<svg xmlns="http://www.w3.org/2000/svg" viewBox="0 0 704 704" fill="none" width="512" height="512">
    <desc>"Open Peeps" by "Pablo Stanley", licensed under "CC0 1.0". / Remix of the original.</desc>
    <mask id="viewbox"><rect width="704" height="704" rx="0" ry="0" x="0" y="0" fill="#ffffff" /></mask>
    <g mask="url(#viewbox)">
        <rect id="background" fill="#ffdfbf" width="704" height="704" x="0" y="0" />

        <g id="body"><path id="skin" d="M705.3 1074a2351.1 2351.1 0 0 1-15.6-101c-1-7.7-2.5-16.4 2.7-22 7.3-8 14-14.8 14.8-26.2.8-10.7-2.8-22.4-5-32.8a809.4 809.4 0 0 0-17.3-64.7c-6.6-21.7-13.9-43.2-21.3-64.6-6.9-20-13.5-40.3-22.5-59.5-17-36.5-46-63.5-81.6-81.6-9-4.5-27-20.5-36.3-24-8.5-3.4-8.5 6.3-16.9 2.6-6.7-2.9-13-6.7-16.7-13.2-4-7-14.3-16.9-15.9-25-3.3-17.4.3-32.2-12-45.3a90 90 0 0 0-41.1-23.8c-33.7-9.3-78.5-2.8-98.8 28.5-9.7 14.9-13 33-26.2 45.1-11.4 10.7-8.8 18-23.6 23.4-.9.3-23.6-4.5-24.4-4.2-16.2-3.5-31.7 6.2-46.5 11.8a325.4 325.4 0 0 0-63 32.3 399.2 399.2 0 0 0-102.3 98.5 482.5 482.5 0 0 0-76.4 161c-1.7 6.4-3.5 13-1.5 19.4 1.7 5.3 5.4 9.2 9.8 12.4 6 4.3 18 7 17.7 15.7-.1 6.6-2.4 13.5-3.5 20-1.3 7.7-2.3 15.5-3.4 23.2-4.8 35.4-8.6 71-10.3 106.6a920 920 0 0 0-.5 106c.1 2.3.8 4.5 2 6.2-1 .4-1.2 2.4.1 2.7l2.7.5a12 12 0 0 0 7 2.4l5.5.2c19.3 4 38.6 7.9 58.1 10.8 23.8 3.5 47.6 6.3 71.5 8.7 49.2 4.8 98 3.2 147.1.6a1877 1877 0 0 1 147.4-2c49.2 1.4 98.4 3.5 147.6 4.4 55 1 110-.5 164.8-5 7.5-.5 12.2-6.5 10.7-14-8.9-44.7-19-89.1-27-134Z" fill="#ae5d29"/><path id="shirt" d="m201 597.5 1.2-.4c14.5-5.7 29.6-14.8 45.4-11.4.5-.2 10.8 1.9 17.9 3.2l-6.7 7L247 598c40.7 67.1 88.8 100.7 144.3 100.7 55.5 0 97.7-33.6 126.4-100.7l4-1c.4 0 1 .2 1.5.4 9.3 3.6 27.4 19.6 36.3 24.1 35.6 18 64.5 45 81.6 81.6 8.7 18.6 15.2 38 21.8 57.5l.7 2c7.4 21.4 14.7 43 21.3 64.6 6.3 20.4 12 41 16.6 61.8l.7 2.9c2.2 10.4 5.8 22 5 32.8a29 29 0 0 1-3 10.7l-80.4 29 38.4 261.3c-35.1 1.5-70.3 2-105.5 1.3-49.2-.9-98.4-3-147.6-4.3-47.7-1.2-95.3-.7-143 1.7l-12 .6a946.3 946.3 0 0 1-139.5-1l-3.1-.3v-38.3l16.3-212.9-83-15.6-81.3-39.5a21.7 21.7 0 0 1-5.6-8.8c-1.9-6-.5-12 1-18l.5-1.3a492.8 492.8 0 0 1 76.4-161A399.3 399.3 0 0 1 138 629.7c19.8-13 40.9-23.9 63-32.3Z" fill="#78e185"/><path d="M232.2 584.6c5.1-.3 10.3.6 15.4 1 .4.1.6.8 0 .9-9 1.9-18 4.5-26.9 7.1l-3.8 1.2c-10 3-19.8 6-29.6 10-19.4 7.9-37.8 18.5-54.8 30.8C67.2 682.8 20 754.3-9.9 828.3a526 526 0 0 0-24.3 77c-.4 1.6-2 5.4-1 7 .7 1.3 3.6 2.1 5 2.9l4.5 2.3 25.2 12.9 2.3 1.1c38 18.6 78.4 34.4 121 35.5l.4-3.7a342 342 0 0 1 9.9-60c.3-1 1.6-.6 1.7.3 3 23.1 2 46.4 1 69.7-1.8 41-4.3 82.2-6.5 123.3-1.2 20.6-2.6 41-3.9 61.7-1.3 20.5-1.7 41.6-4.7 62-.6 4.6-6 7-10 6.6-4.4-.5-7.9-4.5-8-9 0-11.9 1.5-24 2.4-35.8l2.5-33.8c3.1-41.1 6.8-82.2 10.2-123.3a4771 4771 0 0 1 3.8-43.7C76.4 979.8 34.2 963-6.1 943.5c-.6 13.2-2 26.5-3.4 39.6-3.8 36.8-7.1 73.6-9.6 110.5a2254.2 2254.2 0 0 0-4.2 92.7l-.2 7c0 4.4-.5 8.5-4.3 11.7-3.7 3.3-8.9 3.5-12.6 0-5-4.6-4.2-10.9-4-17.1a1675.6 1675.6 0 0 1 1.8-47.2 1321 1321 0 0 1 10.5-109.5l2-14c3.5-26 7.5-52.7 15.5-77.9-3.1-1.5-6.2-3-9.3-4.7-5.5-2.7-11.2-5.4-16.6-8.4-4.2-2.5-7.9-5.8-9-10.8-1.4-5.5.6-11.5 2-16.9v-.4a502 502 0 0 1 26.6-80 523.2 523.2 0 0 1 67.8-117 353.8 353.8 0 0 1 88.7-83.3 239 239 0 0 1 53.8-25.7 142.6 142.6 0 0 1 42.8-7.5Zm90.1-66c6-6.5 18.1.2 15.2 8.8a108.2 108.2 0 0 1-34.7 52A79.4 79.4 0 0 1 247 598l1.7 2.4a321.1 321.1 0 0 0 46.1 52.6c36 31.2 84.8 48 132 36 37.1-9.4 69.8-38.8 79.4-76.2-1.3.6-3 .9-4.8.5-7.7-1.7-15.3-9.8-20.3-15.6-5.3-6.3-9.5-13-12.6-20.7-5.6-14-7.4-32.1.3-45.7 1-1.7 3-.7 3.3 1l.3 2.5c1.5 12.7 3.3 25 9.3 36.6a76 76 0 0 0 18.2 23.1c2.6 2 5.8 3.6 8.1 6l.5.4c.6-5 4.1-7.3 7.6-7.2 3.3.2 7.3 1.6 8.8 2.3l.1.1a341 341 0 0 1 65.1 42 259 259 0 0 1 88.4 129c7.5 25.3 11.8 51.4 16.3 77.4l2.8 16c4.2 23.9 8.9 48.4 18.4 70.7 2.5 5.7.6 11.1-5.5 13.4A1493 1493 0 0 1 688 953c3.7 16 6 32.5 8.7 48.5 6 34.1 13.2 68 19.4 102 3.2 17.5 6.1 35 9.3 52.3l4.7 25.2 2.4 13.6.1.7c.5 2.4 1 4.9.4 7.3-.8 2.7-2.9 4.6-4.8 6.6-1.6 1.6-3.8 1.6-5.7.7l-.7-.3c-3.4-1.6-6-3.2-7.3-7-.7-2.5-1-5.2-1.5-7.7a3535.6 3535.6 0 0 1-7.8-43.6l-1.6-9.1c-5.2-31.4-10.2-62.9-12.8-94.5-1-14-2.3-28.1-3.5-42.2l-.9-10.5c-1.1-13.3-2.5-27-2.7-40.5l-4.5 1.6L657 964c-5.5 2-12.5 6-18.4 5.2-2.9-.3-5-1.2-6.8-2.9 2 28.8 4.8 57.4 8.5 86a1965.7 1965.7 0 0 0 22 135c.6 3.2 1.4 6.4 1.9 9.6.5 3.7-.5 5.9-2.5 9-1.7 2.4-5 3.7-7.8 2-3.6-2.3-5.5-4.3-6.5-8.4-1-3.7-1.6-7.6-2.3-11.4a1654.2 1654.2 0 0 1-11.4-65.2c-7.8-52-12.7-104.4-15.2-156.8a1388 1388 0 0 1-1.4-77.8c0-13.3.5-26.6 1.4-39.9 1-13.4 3-26.5 4.8-39.8 0-.5.7-.5.7 0 .8 14.9 2.1 29.8 2.8 44.7.6 14.3.9 28.5 1.4 42.8.6 18.7 1.5 37.5 2.7 56.2a9.6 9.6 0 0 1 8.5-3.1c4.7-1 9.7-3.4 14.1-5l16.8-5.5 26.4-8.7a679 679 0 0 1-18-80.8l-2-12.3c-4-24.2-8.5-48.5-15.8-72a229.8 229.8 0 0 0-34.8-68.2 370.2 370.2 0 0 0-52.7-55.3C557 627 539.7 614 523 600c.1.9.2 2 0 3-3.5 25.9-17 50-35.8 67.9-37.7 36-93.6 43.4-142 26.5-46.7-16.3-88-55-102.6-102.8-.3-.8.8-1 1.3-.5l2.4 3.3c0-.4.2-.9.7-1a129 129 0 0 0 46.6-29.2 100.2 100.2 0 0 0 21.3-33.3l.4-1c1.7-5 3.2-10.2 7-14.2Z" fill="#000000"/></g>

        <g id="head" transform="matrix(.99789 0 0 1 156 62)"></g>

        <g id="face" transform="translate(315 248)"><path d="M95.4 211.2c16-12.4 100.6-16 109-8 8.4 8 28.2 31.2-9.6 46-37.8 14.7-86 13.9-99.4 0-13.5-13.9-16-25.6 0-38Z" fill="#fff"/><path d="M168 192.8c8.4-.3 17-1 25.4.3 14 2 28.3 12 28.3 27.6-.1 26-29.4 35.9-50.4 39.3l-2.3.3c-25.1 4-55.2 7.7-77.7-6.6-10.7-6.7-17.4-18-14.3-30.8a36.2 36.2 0 0 1 24.7-24.7c13.5-4.4 27.4-2.1 41-.3l3 .4c3.2-1 6.4-2.4 9.6-3.4a50 50 0 0 1 12.6-2Zm-3.2 33.4-13.1 1.7-14.9 1.9c.7 6.7.8 13.5.6 20.4a185 185 0 0 0 26.5-2.8c.6-7 1-14.1 1-21.2Zm-39 5c-12 1.3-24 2.5-36 3.5 2.8 5.2 9.7 8.5 15 10.4 6.1 2.1 12.4 3.4 18.8 4 1-5.8 1.8-11.9 2.2-18Zm87-10c-9 1.5-18.4 2.1-27.4 3.3l-10.6 1.3c1.1 6.4 2 12.9 2.5 19.4l1.6-.3a70.3 70.3 0 0 0 21.4-7.3l.6-.3c5.2-3.2 12.1-9.4 12-16.1Zm-86-10c-5.9.5-12.1.6-17.8 1.9-8.4 1.8-18.4 6.4-20 15.8a10 10 0 0 0 .2 4.3c12.3-2.3 24.7-4.5 37-6.5.4-5.2.5-10.4.6-15.5Zm32.1-3-8 .7c-6 .5-12 .7-18 1.1 1.4 4.7 2.4 9.4 3.1 14.2l14.8-2.2 14-2v-3.6l-.1-7.2h-.6l-5.2-1Zm50 5.6c-5.7-5-16.2-4.7-22.9-4.5-5 .1-10 .7-15.2.7 1 3 1.9 6 2.6 9.2l10.8-1.6c8.2-1.2 16.4-2.8 24.6-3.8Zm-38-69.4c7.5 4.6 19 15.3 10.8 26.6-9.5 10-23.3-1.4-30-6.6-6.4-4-13.4 6.3-7.6 11 49 36.3 69-29.8 30.5-36.4-4.2-.8-5.8 4-3.8 5.4Zm73.9-25.6c-2.6 16.9-29.1 40.4-32.7 40.4-3.6 0-34.5-30-34.5-43.3 0-13.3 13.3-31.2 34.5-8.7 12-15 35.3-5.3 32.7 11.6Zm-118-15c6.3 9 4 20.4-2.4 28.7-5.6 7.4-24.6 23.9-27.5 24.3-3.7.5-20.4-18.4-24.2-21.6-4-3.1-14.6-13.3-12-22.8 2.4-9 15.5-24.4 34.6-8.6 6-15.1 26-8.3 31.6 0Zm-62-29.4c9.7-11 30.5-22.6 42-7.7 2.8 3.8-.3 10-4.6 11-5.2 1.2-10.6.4-15.8 2a49.5 49.5 0 0 0-13.3 6.8c-4.7 3.2-9 6.7-12.9 10.7-2.3 2.4-5.3 8-8.9 8.1-3.6.1 1.2-11 1.6-12 2.9-7 6.8-13.3 11.8-18.9Zm118.5-26.8c5.7-2.7 11.2-1.5 16.9 0l2.4.7a58 58 0 0 1 17.7 7.4l.4.3c6.6 4.7 16.5 14.7 11.8 23.5-.3.6-1 .6-1.6.4-6.1-2.7-10.7-8-17.2-10.3l-1.2-.4a64.3 64.3 0 0 0-21-4.2c-4.8 1.5-11.2.3-12.5-5.6v-.3l-.1-.6c-.8-4 .3-9 4.4-11Z" fill="#000"/></g>

        <g id="facial-hair" transform="translate(279 400)"></g>

        <g id="eyewear" transform="translate(203 303)"><path d="M367.1336,98.3183 C360.4006,107.3633 347.9186,110.2443 336.4056,109.2493 C311.5746,106.8593 303.7596,78.6583 302.9456,56.7393 C319.5966,61.4233 301.5376,28.2493 358.4566,24.6013 C378.5216,22.9293 372.9896,35.0473 381.8546,43.9013 C381.6726,62.4833 378.5796,82.6743 367.1336,98.3183 M248.8626,76.9663 C234.2026,145.6193 153.9246,129.2893 145.4916,67.4033 C153.2786,61.9073 151.2276,48.3363 160.9016,43.4193 C176.2336,33.6233 195.3996,34.0423 212.8106,34.2723 C235.0656,35.8013 241.4076,45.0203 252.8396,55.0783 C252.2896,61.7963 250.7036,69.7583 248.8626,76.9663 M398.9346,13.2313 C398.1116,13.0943 397.2876,12.9653 396.4636,12.8443 C395.8206,12.4793 395.0656,12.1983 394.1876,12.0293 C392.1826,11.5203 390.1916,11.1773 388.2036,10.9923 C359.6716,4.5713 293.6646,13.6883 290.9406,38.0363 C281.8546,41.0693 273.9926,38.3533 263.4616,38.6233 C255.4456,5.1183 116.8626,9.8473 110.1976,30.0473 C110.1726,30.0403 110.1476,30.0343 110.1216,30.0263 C103.7176,28.0443 94.2766,28.5223 86.9466,28.2083 C71.2956,27.8803 55.6266,29.2753 40.3136,32.5763 C11.6386,37.1333 -27.4964,42.4683 -7.5534,78.2763 C-7.5494,78.2823 -7.5464,78.2893 -7.5414,78.2953 L-7.5384,78.2923 C-4.1014,81.8153 1.7316,78.9783 1.9486,74.2093 C-4.7564,57.2453 10.3876,55.2083 22.0396,50.3333 C51.0326,39.9173 80.5506,38.4733 110.5366,41.6953 C112.7926,44.3513 116.2156,46.6673 119.8336,47.8793 C139.8826,51.2073 129.3166,66.0793 141.9896,68.2423 C139.6616,120.0843 202.6026,148.3823 239.0716,114.3033 C253.6326,100.0673 257.1036,78.9783 260.4796,59.9693 C262.2646,59.5683 263.3996,58.5923 264.0626,57.3003 C268.3556,53.0143 271.0526,49.0563 279.5416,47.8793 C288.0306,46.7033 294.5656,49.0643 295.4496,49.7873 C295.6726,50.2363 295.9116,50.6863 296.1896,51.1363 C296.5776,51.8073 297.1056,52.3423 297.7056,52.7633 C289.3226,104.3873 329.3996,137.0353 369.8586,110.2603 C387.4386,93.7233 391.1536,68.4053 391.8876,45.8073 C394.2706,44.3693 395.7796,41.5823 394.9546,38.0783 C393.8176,33.2483 396.4836,29.0663 400.7296,26.9663 C406.2466,24.2393 405.2706,14.2803 398.9346,13.2313" id="ðŸ–-Ink" fill="#000000"/></g>
    </g>
</svg>