<svg xmlns="http://www.w3.org/2000/svg" viewBox="0 0 704 704" fill="none" width="512" height="512">
    <desc>"Open Peeps" by "Pablo Stanley", licensed under "CC0 1.0". / Remix of the original.</desc>
    <mask id="viewbox"><rect width="704" height="704" rx="0" ry="0" x="0" y="0" fill="#ffffff" /></mask>
    <g mask="url(#viewbox)">
        <rect id="background" fill="#d1d4f9" width="704" height="704" x="0" y="0" />

        <g id="body"><path id="skin" d="M705.3 1074a2351.1 2351.1 0 0 1-15.6-101c-1-7.7-2.5-16.4 2.7-22 7.3-8 14-14.8 14.8-26.2.8-10.7-2.8-22.4-5-32.8a809.4 809.4 0 0 0-17.3-64.7c-6.6-21.7-13.9-43.2-21.3-64.6-6.9-20-13.5-40.3-22.5-59.5-17-36.5-46-63.5-81.6-81.6-9-4.5-27-20.5-36.3-24-8.5-3.4-8.5 6.3-16.9 2.6-6.7-2.9-13-6.7-16.7-13.2-4-7-14.3-16.9-15.9-25-3.3-17.4.3-32.2-12-45.3a90 90 0 0 0-41.1-23.8c-33.7-9.3-78.5-2.8-98.8 28.5-9.7 14.9-13 33-26.2 45.1-11.4 10.7-8.8 18-23.6 23.4-.9.3-23.6-4.5-24.4-4.2-16.2-3.5-31.7 6.2-46.5 11.8a325.4 325.4 0 0 0-63 32.3 399.2 399.2 0 0 0-102.3 98.5 482.5 482.5 0 0 0-76.4 161c-1.7 6.4-3.5 13-1.5 19.4 1.7 5.3 5.4 9.2 9.8 12.4 6 4.3 18 7 17.7 15.7-.1 6.6-2.4 13.5-3.5 20-1.3 7.7-2.3 15.5-3.4 23.2-4.8 35.4-8.6 71-10.3 106.6a920 920 0 0 0-.5 106c.1 2.3.8 4.5 2 6.2-1 .4-1.2 2.4.1 2.7l2.7.5a12 12 0 0 0 7 2.4l5.5.2c19.3 4 38.6 7.9 58.1 10.8 23.8 3.5 47.6 6.3 71.5 8.7 49.2 4.8 98 3.2 147.1.6a1877 1877 0 0 1 147.4-2c49.2 1.4 98.4 3.5 147.6 4.4 55 1 110-.5 164.8-5 7.5-.5 12.2-6.5 10.7-14-8.9-44.7-19-89.1-27-134Z" fill="#ae5d29"/><path id="shirt" d="m201 597.5 1.2-.4c14.5-5.7 29.6-14.8 45.4-11.4.5-.2 10.8 1.9 17.9 3.2l-6.7 7L247 598c40.7 67.1 88.8 100.7 144.3 100.7 55.5 0 97.7-33.6 126.4-100.7l4-1c.4 0 1 .2 1.5.4 9.3 3.6 27.4 19.6 36.3 24.1 35.6 18 64.5 45 81.6 81.6 8.7 18.6 15.2 38 21.8 57.5l.7 2c7.4 21.4 14.7 43 21.3 64.6 6.3 20.4 12 41 16.6 61.8l.7 2.9c2.2 10.4 5.8 22 5 32.8a29 29 0 0 1-3 10.7l-80.4 29 38.4 261.3c-35.1 1.5-70.3 2-105.5 1.3-49.2-.9-98.4-3-147.6-4.3-47.7-1.2-95.3-.7-143 1.7l-12 .6a946.3 946.3 0 0 1-139.5-1l-3.1-.3v-38.3l16.3-212.9-83-15.6-81.3-39.5a21.7 21.7 0 0 1-5.6-8.8c-1.9-6-.5-12 1-18l.5-1.3a492.8 492.8 0 0 1 76.4-161A399.3 399.3 0 0 1 138 629.7c19.8-13 40.9-23.9 63-32.3Z" fill="#fdea6b"/><path d="M232.2 584.6c5.1-.3 10.3.6 15.4 1 .4.1.6.8 0 .9-9 1.9-18 4.5-26.9 7.1l-3.8 1.2c-10 3-19.8 6-29.6 10-19.4 7.9-37.8 18.5-54.8 30.8C67.2 682.8 20 754.3-9.9 828.3a526 526 0 0 0-24.3 77c-.4 1.6-2 5.4-1 7 .7 1.3 3.6 2.1 5 2.9l4.5 2.3 25.2 12.9 2.3 1.1c38 18.6 78.4 34.4 121 35.5l.4-3.7a342 342 0 0 1 9.9-60c.3-1 1.6-.6 1.7.3 3 23.1 2 46.4 1 69.7-1.8 41-4.3 82.2-6.5 123.3-1.2 20.6-2.6 41-3.9 61.7-1.3 20.5-1.7 41.6-4.7 62-.6 4.6-6 7-10 6.6-4.4-.5-7.9-4.5-8-9 0-11.9 1.5-24 2.4-35.8l2.5-33.8c3.1-41.1 6.8-82.2 10.2-123.3a4771 4771 0 0 1 3.8-43.7C76.4 979.8 34.2 963-6.1 943.5c-.6 13.2-2 26.5-3.4 39.6-3.8 36.8-7.1 73.6-9.6 110.5a2254.2 2254.2 0 0 0-4.2 92.7l-.2 7c0 4.4-.5 8.5-4.3 11.7-3.7 3.3-8.9 3.5-12.6 0-5-4.6-4.2-10.9-4-17.1a1675.6 1675.6 0 0 1 1.8-47.2 1321 1321 0 0 1 10.5-109.5l2-14c3.5-26 7.5-52.7 15.5-77.9-3.1-1.5-6.2-3-9.3-4.7-5.5-2.7-11.2-5.4-16.6-8.4-4.2-2.5-7.9-5.8-9-10.8-1.4-5.5.6-11.5 2-16.9v-.4a502 502 0 0 1 26.6-80 523.2 523.2 0 0 1 67.8-117 353.8 353.8 0 0 1 88.7-83.3 239 239 0 0 1 53.8-25.7 142.6 142.6 0 0 1 42.8-7.5Zm90.1-66c6-6.5 18.1.2 15.2 8.8a108.2 108.2 0 0 1-34.7 52A79.4 79.4 0 0 1 247 598l1.7 2.4a321.1 321.1 0 0 0 46.1 52.6c36 31.2 84.8 48 132 36 37.1-9.4 69.8-38.8 79.4-76.2-1.3.6-3 .9-4.8.5-7.7-1.7-15.3-9.8-20.3-15.6-5.3-6.3-9.5-13-12.6-20.7-5.6-14-7.4-32.1.3-45.7 1-1.7 3-.7 3.3 1l.3 2.5c1.5 12.7 3.3 25 9.3 36.6a76 76 0 0 0 18.2 23.1c2.6 2 5.8 3.6 8.1 6l.5.4c.6-5 4.1-7.3 7.6-7.2 3.3.2 7.3 1.6 8.8 2.3l.1.1a341 341 0 0 1 65.1 42 259 259 0 0 1 88.4 129c7.5 25.3 11.8 51.4 16.3 77.4l2.8 16c4.2 23.9 8.9 48.4 18.4 70.7 2.5 5.7.6 11.1-5.5 13.4A1493 1493 0 0 1 688 953c3.7 16 6 32.5 8.7 48.5 6 34.1 13.2 68 19.4 102 3.2 17.5 6.1 35 9.3 52.3l4.7 25.2 2.4 13.6.1.7c.5 2.4 1 4.9.4 7.3-.8 2.7-2.9 4.6-4.8 6.6-1.6 1.6-3.8 1.6-5.7.7l-.7-.3c-3.4-1.6-6-3.2-7.3-7-.7-2.5-1-5.2-1.5-7.7a3535.6 3535.6 0 0 1-7.8-43.6l-1.6-9.1c-5.2-31.4-10.2-62.9-12.8-94.5-1-14-2.3-28.1-3.5-42.2l-.9-10.5c-1.1-13.3-2.5-27-2.7-40.5l-4.5 1.6L657 964c-5.5 2-12.5 6-18.4 5.2-2.9-.3-5-1.2-6.8-2.9 2 28.8 4.8 57.4 8.5 86a1965.7 1965.7 0 0 0 22 135c.6 3.2 1.4 6.4 1.9 9.6.5 3.7-.5 5.9-2.5 9-1.7 2.4-5 3.7-7.8 2-3.6-2.3-5.5-4.3-6.5-8.4-1-3.7-1.6-7.6-2.3-11.4a1654.2 1654.2 0 0 1-11.4-65.2c-7.8-52-12.7-104.4-15.2-156.8a1388 1388 0 0 1-1.4-77.8c0-13.3.5-26.6 1.4-39.9 1-13.4 3-26.5 4.8-39.8 0-.5.7-.5.7 0 .8 14.9 2.1 29.8 2.8 44.7.6 14.3.9 28.5 1.4 42.8.6 18.7 1.5 37.5 2.7 56.2a9.6 9.6 0 0 1 8.5-3.1c4.7-1 9.7-3.4 14.1-5l16.8-5.5 26.4-8.7a679 679 0 0 1-18-80.8l-2-12.3c-4-24.2-8.5-48.5-15.8-72a229.8 229.8 0 0 0-34.8-68.2 370.2 370.2 0 0 0-52.7-55.3C557 627 539.7 614 523 600c.1.9.2 2 0 3-3.5 25.9-17 50-35.8 67.9-37.7 36-93.6 43.4-142 26.5-46.7-16.3-88-55-102.6-102.8-.3-.8.8-1 1.3-.5l2.4 3.3c0-.4.2-.9.7-1a129 129 0 0 0 46.6-29.2 100.2 100.2 0 0 0 21.3-33.3l.4-1c1.7-5 3.2-10.2 7-14.2Z" fill="#000000"/></g>

        <g id="head" transform="matrix(.99789 0 0 1 156 62)"><path id="skin" d="M397.5 243.8c-2.4-30.8 1.3-63-10.5-92.2-20.7-48.5-78.7-64.7-123.6-83.1-18-5.4-78.6-6.1-99.6-13.1-47.7-16-59.1-35-97-4.6a41.2 41.2 0 0 0-13.4 18.5h.2c-.9 3.2 0 6.4 1.9 8.9a61.8 61.8 0 0 0-14.9 64.3c27.5 58.2 26.2 89.7 17.4 152.2-11.6 58.4 14.8 79.8 58.7 111.5-1.8 3.5-2.2 8 .1 11.1 50.7 71.2 146.2 105.2 228 69 33.3-14.7 48.1-50 56.6-82a228.4 228.4 0 0 0 4.9-109.8c-3.3-16.9-7.5-33.6-8.8-50.7Z" fill="#ae5d29"/><path id="accessories" d="m34.6 156.5 30.1 20.1L172.6 63l-36-28.2s-65 48-77.8 60.8c-12.8 12.7-24.2 61-24.2 61Z" fill="#8fa7df"/><path d="M105.2-96.9c6.2-.9 10.8 3 13 8.3l.2.3 2.3 5.4c15.4-7.6 37.4-5.7 47.1 9.6 7 11 2.7 24 0 35.5l-1.6 7.6c3.3 2.1 5.8 6 5.7 9.9v.3l-.7 10.6a55.2 55.2 0 0 0 10-14c8.6-12.9 27.8-1.7 20.7 12a67 67 0 0 0-9 18.6c3.3 1.5 6 4.7 6.2 9.5a29.4 29.4 0 0 1-14.8 26.8c-2.8 1.8-5.7 2.1-8.3 1.5l-1.4 1.8c3.8 3 7.2 6.6 10.1 10.5a182 182 0 0 1 26.6-2 59 59 0 0 1 35.5-3.2c7.5 1.3 14.7 3.8 22 5.6 7.8 1.8 15.7 2 23.6 3.2 10 1.6 18.6 6.2 24 13.5a36 36 0 0 1 17.7 6l36.5 23.5c4.6 3 6.4 7.8 5.5 13.1v.4l-.4 2.2 1 1.4c3.6 5.2 7.7 10.7 10.1 16.5 4.5 6.5 8.5 13.2 12 20.2a146.5 146.5 0 0 1 13.3 37.1c.6 3.7-.3 6.6-.9 10.2-.6 4.5-.9 9-1.6 13.5-.4 3-3 4.5-5.6 4.6a889.4 889.4 0 0 1 4.6 55.5c3 4.2 9 7.6 13.3 8.8 6 1.6 12.3-.1 18-2.2 3.5-1.3 6.5 3.2 4.7 6.2-5.4 9.4-17.1 9.4-26 5.2-3.8-1.7-7-4.3-9.5-7.6l.5 9.5.1 2.8c1.8 33.6 5.7 68.3-.6 101.5a127.5 127.5 0 0 1-116.6 104.7 161 161 0 0 1-68.6-12.3c-12.6-5-7.7-15.3 1-12.3 15.2 5 43 12.5 67.8 9.3 58.5-7.7 108.2-37 103-163-.7-17.8-2.9-35.7-3.4-53.6-.4-17.4-.3-35-1-52.4l-.3-6c-.3-6.9-.6-13.9-1.1-20.9-.7-2.7-1.2-5.4-2-8-2-7.3-4.8-14.3-8.2-21-.7.6-1.5 1-2.5 1.2a31.2 31.2 0 0 1-28-7.3c-1.2-1-2-2-2.6-3-3 0-6.2-1-8.2-3.2-2.2-2.6-2.6-5.2-1.7-7.7v-.2h-.1a38.5 38.5 0 0 1-13.7 16.8 55.5 55.5 0 0 1-31.5 8.5 218.2 218.2 0 0 1-46-5.4c-.2 0-.3.2-.4.3a34 34 0 0 1-37.6 6.8 58.5 58.5 0 0 1-19.4-14.4c0 3-.2 6.2-.5 9.3l-.1 1.2c-.6 5.8-1.6 11.9-6 16-7 6.8-17.2 4-25.3-.3v.6l6.6 22.4.4 1.6c1.6 5.3 3.4 10.6 3.9 16 1 10.7-6.1 21.1-17.9 17.6-6.2-1.9-11.1-7-15.8-11.2l-3-2.6c7.7 25.3 13 51.4 13.6 77.8 0 1.4-1.2 2.5-2.6 2.6-3.2 0-6.6-.5-9.8-1.8h-.6a37.2 37.2 0 0 1-15-5.7c1 3.2 1.5 6.7 1.3 10.4-.1 1-1.5 1.2-1.7.2-2.6-12.7-17.4-22.2-30.2-19.8a34.3 34.3 0 0 0-26.4 27.9 53.7 53.7 0 0 0 11.9 42.3c4.3 5.1 10 9.4 16.8 10.5 3.1.5 6.3.3 9.4-.6l3.7-1.4c1.7-.7 3.8-.8 5.5-1.6 3.8-1.7 7.6 1.8 5.7 5.7a16.4 16.4 0 0 1-6 7.5c2.3 2.8 4.3 6.6 5 7.6a128.7 128.7 0 0 0 26.8 28.4l2.3 1.8c5 4 9.4 7.6 12.9 13.3 2.8 4.5-.8 10.6-6 10.5-16.3-.2-28.2-14.6-36.6-27a69.7 69.7 0 0 1-3.4-5.7 12 12 0 0 1-1.3 1.7l1 2.5c2.7 7.4-9.2 12.2-12.6 5.3-2.5-5-5.4-9.7-8.7-14.2-1.9-.3-3.8-1.4-4.8-3-2.6-3.7-5.6-7.6-8-11.6a102 102 0 0 0-4.3-3.8l-1.3 1c-1.8 4.2-4 8-6.8 11.6l-.6.8c-5.4 6.7-12.4 13.6-21 15.2-2.6.5-5.1-2.7-2.8-4.8 6-5.4 13.2-9.1 18.7-15.2 2.8-3 5.3-6.2 7.4-9.7l.5-.8 1.1-1.8-7.5-5.1c-6.9 5.9-15.9 8.6-23.5 13.5l-.8.5c-7 4.6-14.2-5.6-8.6-11.2 6-6.2 11.2-13.5 16.6-20.4a40 40 0 0 1-4.2-15.8l-.5-4.8c-3.9 0-7.8-1.2-11-3.5l-1.3-1c-4 1.4-8.2 2-12.3 1.9-9.4-.3-13.3-11.1-7.4-18 6-7 16.6-8.5 25-5.1l.9-.5c-.4-1.8-.4-3.5 0-5v-.8a23 23 0 0 1-3.2-17.6c.2-.9.6-1.8 1-2.7-.7-1.7-1.1-3.5-1.3-5.3l-.5-.7a14.2 14.2 0 0 1 .6-17.6l.1-1-.6-1.5c-3.9-4-6.7-8.6-6.2-14.4a15 15 0 0 1 3.8-8.9 5 5 0 0 1 0-3.4c-3.3-9-2.9-20-.4-30.1-.6-1.5-.9-3.2-.8-5 .3-7.5 6.8-14.4 14.5-14.3 1 0 1.8.1 2.6.3v-.2c.3-2.2 1-4.3 1.8-6.2a4 4 0 0 1-1.2-.7c-5 2.7-10.1 4.7-15.6 6-4 1-8.2-3.5-5.6-7.3 1.1-1.8 2.4-3.3 3.8-4.8-2 0-4 .2-6 .4-3.6.5-7.7-2-10-5.3l-8.8 8.5c-7.4 7.2-18.6 1.9-19.8-7.6-2.2-.6-4.3-1.6-6-3a104 104 0 0 1-37.2 8.4c-9.3.4-14.7-10.4-10.3-18A60 60 0 0 1-66 145.4c-6.4 2-13 3.4-19.9 4.3-3.6.5-8.8-2.5-10.3-5.9a44.4 44.4 0 0 1 1.3-39l.8-1.5a75 75 0 0 1 2.2-5c-8-8.3-8.6-20.6-4.3-31a10.4 10.4 0 0 1-1.3-9.1 78.7 78.7 0 0 1 14.2-23.8l-1.5-3.6a29.8 29.8 0 0 1 8.5-30c5-4.6 10.8-7.3 17-9 2.5-4.6 5.9-8.7 9.7-12.2l.5-1c6-11.4 17-17.5 28.8-18.9.5-4.4 3.5-8.7 7.9-10 1.2-4 3-7.6 5.4-11C-3-66.4 3.4-69 9.5-65.4c3.3 1.9 6.5 4 9.5 6.4a13 13 0 0 1 4.5-1.1h.5l9.8-.6 12.4-5.6a33.2 33.2 0 0 1 18.7-7.5 89.9 89.9 0 0 1 29.8-4.7l.2-5.6v-1c-.2-6 4.7-10.8 10.3-11.7Zm-6.9 484-3 .6 1 2.2 2.4 1.3c-.3-1.4-.4-2.7-.4-4ZM47 372l-.7 1.2-.3.6 4.2.1v-.1l-.5-.2c-1-.5-1.9-1-2.7-1.6Zm27.7-55.8c8.9.5 16.4 1.8 24.4 5.7l.7.3c7.1 3.6 18.9 10 17.9 19.4-.3 2.7-2.2 5.5-5.3 5.3-8.3-.6-13-9-18.7-14.2a96.6 96.6 0 0 0-19.6-14.4c-1-.5-.6-2 .5-2.1h.1Zm-40-123.2c-2.2 0-1.5 2.1-.4.4 0-.2.2-.3.3-.4ZM149 55.4c-20 .5-40.2 12.3-55.3 24.3A196 196 0 0 0 59.3 116c-2.5 6.7-4.8 13.5-6.6 20.3-1.3 4.5-2 9-3 13.7l-.4 1.4a22 22 0 0 0-1.8 4.8c1.8 1.8 4.2 3.1 6.8 3.7.8.2 1.5.7 2 1.2 2.2-3.5 4-7.2 5-11v-.2c4.1-6.6 8.5-13 13.2-19.2A230 230 0 0 1 118.8 85c13-9.8 27.5-17.5 43-22.5a47 47 0 0 0-12.8-7.2Z" fill="#000"/></g>

        <g id="face" transform="translate(315 248)"><path d="M176.02971,239.644154 C169.637887,239.69642 162.4524,237.297827 157.647928,235.419824 L156.395115,234.923639 C152.236202,233.257962 147.964779,231.345719 144.779349,228.136932 C143.760701,227.094114 142.676146,225.914068 142.125282,224.673113 C141.802605,223.946205 141.668471,223.193634 141.980225,222.445961 C143.132269,222.332728 144.223848,222.18535 145.257786,221.996378 C145.750099,221.906399 146.221692,221.813093 146.583373,221.81068 C147.916117,221.802185 149.234462,221.971757 150.551836,222.138281 C150.742616,222.162397 150.933374,222.186509 151.124192,222.21013 C152.149847,222.33705 153.170512,222.474162 154.189301,222.611004 C157.15276,223.00905 160.100624,223.40378 163.107057,223.54755 C165.277827,223.651743 167.553758,223.529757 169.849917,223.404802 C175.805483,223.080703 181.962683,222.638337 186.551339,226.809651 C187.753038,227.902069 188.255407,229.278258 188.255407,230.680051 C188.255407,232.383472 187.538373,234.117465 186.444757,235.477978 C183.967691,238.557867 180.155556,239.610416 176.02971,239.644154 Z M210.882238,185.924199 C208.101743,190.095941 203.468972,192.77845 197.121054,192.486987 C184.5045,191.910097 169.446891,187.15002 158.88008,180.266926 C156.128254,178.474961 154.343912,175.609924 154.023919,172.540519 L153.454622,167.079765 L150.378172,171.627224 C150.05764,172.101019 149.734326,172.573495 149.410857,173.046205 C148.520054,174.348006 147.629997,175.649576 146.790017,176.983619 C143.566443,182.105733 140.611422,187.278696 137.927921,192.704365 C136.028157,196.546126 134.639141,200.843111 133.246133,205.178324 C130.894675,212.497754 128.62303,219.696429 123.598652,224.840723 C122.838977,225.618815 121.67117,225.897244 120.602356,225.7597 C119.660229,225.638459 118.736955,225.176544 118.284437,224.256337 C112.281263,212.048578 120.355669,197.337564 126.905585,187.11034 L127.598347,186.042365 C133.671845,176.800347 143.591061,164.56942 154.950956,162.906726 L156.251556,164.980884 L158.142417,163.719789 C161.234923,161.657268 165.317025,161.75321 168.890951,163.366833 L172.46509,164.979953 C179.118253,167.965637 185.680929,170.720436 192.879383,172.229357 C193.403952,172.339316 193.928091,172.441879 194.451426,172.537236 C194.945375,172.627237 195.442258,172.711484 195.941761,172.789626 C195.834073,172.298898 195.719079,171.810388 195.60382,171.323207 C195.481894,170.807841 195.359038,170.291279 195.227326,169.776315 C195.091324,169.244578 194.946219,168.715881 194.801286,168.189225 C194.224622,166.08955 193.573092,164.00866 192.800594,161.971325 C189.89417,154.312226 185.253562,147.148997 180.738376,140.316568 L180.207002,139.512828 C179.559635,138.533742 178.850833,137.512243 178.117422,136.455618 C174.596502,131.385477 170.691585,125.882915 170.414924,120.359436 C175.088786,120.653673 178.999744,123.557252 182.442437,126.085317 C187.166925,129.552355 191.545423,133.517086 195.517266,137.824564 C203.221312,146.180834 210.135753,156.863899 213.168061,167.907383 C214.904163,174.231128 214.140496,181.035639 210.882238,185.924199 L210.882238,185.924199 Z M87.6173265,122.923881 L87.6160369,122.698595 C87.6300369,116.321808 91.344047,101.762216 100.524157,101.762216 C106.259134,101.762216 109.740999,111.67102 110.343765,121.885575 L110.3647,122.302049 C110.630879,128.652574 108.888163,142.533717 100.524157,142.533717 C92.071637,142.533717 87.7042339,129.386546 87.6173265,122.923881 L87.6173265,122.923881 Z M222.772617,120.923881 L222.773907,120.698595 C222.759907,114.321808 219.045897,99.7622157 209.865787,99.7622157 C204.274184,99.7622157 200.824446,109.181773 200.096775,119.120207 L200.046179,119.885575 C199.684084,126.021693 201.313826,140.533717 209.865787,140.533717 C218.318307,140.533717 222.68571,127.386546 222.772617,120.923881 L222.772617,120.923881 Z M118.53429,79.7680988 C117.317758,79.9106848 116.107261,80.097547 114.897379,80.2897525 C111.367333,80.8521052 107.8564,81.5271297 104.36948,82.3138498 C97.7467896,83.8090043 91.1772706,85.6967567 84.7333151,87.8300044 C78.7033507,89.8269901 72.7671998,92.083769 66.8324925,94.3403369 C66.5157989,94.4607541 66.199109,94.5811698 65.8822838,94.7015918 C63.7868818,95.4983536 61.6984692,96.3910009 59.6036281,97.2867029 C56.4154582,98.6498851 53.2126678,100.022204 49.9443536,101.056289 C58.5551148,89.1503798 71.8238293,80.328547 84.5909251,74.0157103 C91.875359,70.4139625 99.6032726,67.5095184 107.377029,65.1296645 L111.706218,63.8287835 C118.080863,61.9480786 125.050815,60.2108515 131.038939,63.9608215 C133.407327,65.4440266 134.918619,67.749563 135.394602,70.2420298 C135.861386,72.6863293 135.328871,75.3070881 133.641078,77.494289 C132.170428,79.3996534 130.337932,80.4847925 128.387536,80.8566957 C126.234862,81.2671695 123.953511,80.816378 121.87681,79.7072256 C120.213068,79.5833049 119.722096,79.6280883 119.229893,79.6828202 L118.53429,79.7680988 Z M214.43213,80.9794236 C210.165597,80.0519166 205.940872,79.6795437 201.563665,79.8130512 C199.584208,79.8725314 197.669201,80.1783078 195.759277,80.4860248 C192.792996,80.9639365 189.838131,81.4575379 186.642392,80.8776949 C184.975143,80.5748977 183.555111,79.5997219 182.458274,78.3267269 C181.175979,76.8384886 180.327609,74.9364168 180.055575,73.1278488 C179.774546,71.259614 180.054149,69.6257955 180.745371,68.1830624 C181.56198,66.4786183 182.937687,65.0421873 184.60029,63.783895 C189.631241,59.9752285 198.263297,60.8912257 204.200778,61.6612548 C210.068138,62.4240507 215.902979,64.2434393 221.089813,67.1330647 C226.206828,69.9853958 230.655195,73.8275454 234.126512,78.5239749 C237.052247,82.4824883 238.430481,87.0384392 239.853737,91.6773738 C233.158782,86.0610835 222.913254,82.8205217 214.43213,80.9794236 Z" id="ðŸ–-Ink" fill="#000000"/></g>

        <g id="facial-hair" transform="translate(279 400)"><path d="M237.5945,65.8793 C240.3345,68.6893 242.9645,71.6993 245.4445,74.8093 C246.1345,79.7493 246.2945,84.7493 245.6645,89.9093 C244.7445,97.3893 242.7045,104.6993 239.9445,111.7193 C238.3145,111.4893 236.7045,111.0293 235.1345,110.3093 C230.1545,108.0193 227.3745,103.4093 224.0045,99.3393 C217.2945,91.2493 205.0545,86.4693 196.4945,94.8593 C192.7745,98.5093 190.3945,103.5593 187.0745,107.5693 C183.4245,111.9793 179.3245,116.1693 175.0445,119.9693 C174.5145,120.4493 173.9645,120.9693 173.3945,121.4793 C171.0145,118.7593 168.6745,116.0193 166.3845,113.2393 C159.5745,104.9593 153.6945,95.7893 150.6045,85.4493 C149.6245,82.1693 149.0145,78.7493 148.7745,75.2993 C151.8045,71.5393 155.2645,68.1193 159.1945,65.2893 C171.0445,56.7393 184.6945,55.3493 198.8945,54.6093 C213.5845,53.8493 226.8145,54.8493 237.5945,65.8793 M273.4345,105.5493 C272.8645,99.8293 271.9845,93.8793 270.6845,87.9393 C265.9345,65.8993 255.6445,43.9293 235.0145,33.8593 C225.2545,29.0893 214.1645,27.4093 203.6445,29.7093 C185.1845,22.7993 164.6845,29.8493 150.1545,42.4893 C133.0145,57.3993 125.1045,80.7993 122.4445,102.7193 C120.5945,117.9693 119.8975,138.3443 124.2245,149.4093 C128.5515,160.4743 156.0505,190.0633 195.3045,190.2693 C251.2145,190.5623 264.8045,152.8593 266.4545,149.5593 C273.3445,135.8393 274.9445,120.6893 273.4345,105.5493" id="ðŸ–-Ink" fill="#000000"/></g>

        <g id="eyewear" transform="translate(203 303)"><path d="M389.0901,63.2824 C379.5561,127.7714 313.0021,134.9034 301.1771,70.8814 C303.0751,70.0504 304.4401,68.4144 304.1551,65.2384 C304.0881,51.2864 308.4191,36.5404 321.0051,28.7814 C334.0111,20.7754 349.2321,19.9814 364.2831,20.1834 C393.0051,19.4994 392.4011,43.5064 389.0901,63.2824 M290.7581,35.2354 C281.7441,34.8554 270.3401,35.1734 262.2651,40.6654 C260.0451,34.6874 254.2771,28.3044 248.4491,24.8914 C270.1111,25.5254 292.4091,23.3934 314.2331,21.7384 C309.0091,25.2994 304.1491,30.6494 300.9901,36.8344 C298.0591,35.2714 293.8611,35.4174 290.7581,35.2354 M251.0261,70.1194 C226.0311,156.1554 163.6401,118.6554 156.8381,107.6294 C144.5691,89.3834 142.2611,45.0294 152.9481,33.1704 C168.2461,22.4464 189.9031,25.2064 207.9751,24.9434 C241.1761,25.3914 264.7561,35.3234 251.0261,70.1194 M418.6031,30.5484 C411.8121,29.6604 404.5551,29.4814 398.2411,32.4714 C396.2971,24.2084 390.1941,17.3004 383.3031,14.2604 C382.4691,13.2144 382.5941,12.6524 379.7451,12.8094 C362.2501,7.5514 342.6731,10.3334 325.8611,15.7254 C299.3091,17.9614 271.4521,19.7244 244.6771,22.8054 C219.5951,11.5414 143.9021,9.8904 139.1981,37.6534 C133.2811,36.7684 123.2041,32.1114 118.2321,38.4284 C81.7611,32.2454 44.0761,40.8384 7.4471,44.6654 C-1.7729,46.3634 -6.5219,64.6614 3.9441,64.4114 C9.8281,62.8144 3.7631,53.0174 11.6861,52.2804 C47.0271,48.4204 81.5951,42.9444 117.2981,42.3034 C116.0561,48.4684 140.9121,48.8694 141.2791,45.2694 C141.3321,45.2964 141.3881,45.3144 141.4421,45.3384 C135.3001,68.2284 140.8441,101.1704 151.9441,115.3644 C167.4961,133.9504 206.5411,139.2824 223.8541,127.3244 C246.1871,116.2874 269.4201,60.8854 262.8941,42.4794 C274.7381,38.7254 286.4471,39.8524 298.7391,41.7644 C295.9251,49.7134 291.0671,69.2814 298.0561,70.9784 C296.7731,109.8284 332.1301,134.0694 364.7241,118.1324 C392.9351,104.8894 402.8011,62.9714 399.3491,37.5284 C402.8611,44.3144 432.3491,36.9264 418.6031,30.5484" id="ðŸ–-Ink" fill="#000000"/></g>
    </g>
</svg>