<svg xmlns="http://www.w3.org/2000/svg" viewBox="0 0 704 704" fill="none" width="512" height="512">
    <desc>"Open Peeps" by "Pablo Stanley", licensed under "CC0 1.0". / Remix of the original.</desc>
    <mask id="viewbox"><rect width="704" height="704" rx="0" ry="0" x="0" y="0" fill="#ffffff" /></mask>
    <g mask="url(#viewbox)">
        <rect id="background" fill="#ffd5dc" width="704" height="704" x="0" y="0" />

        <g id="body"><path id="skin" d="M705.3 1074a2351.1 2351.1 0 0 1-15.6-101c-1-7.7-2.5-16.4 2.7-22 7.3-8 14-14.8 14.8-26.2.8-10.7-2.8-22.4-5-32.8a809.4 809.4 0 0 0-17.3-64.7c-6.6-21.7-13.9-43.2-21.3-64.6-6.9-20-13.5-40.3-22.5-59.5-17-36.5-46-63.5-81.6-81.6-9-4.5-27-20.5-36.3-24-8.5-3.4-8.5 6.3-16.9 2.6-6.7-2.9-13-6.7-16.7-13.2-4-7-14.3-16.9-15.9-25-3.3-17.4.3-32.2-12-45.3a90 90 0 0 0-41.1-23.8c-33.7-9.3-78.5-2.8-98.8 28.5-9.7 14.9-13 33-26.2 45.1-11.4 10.7-8.8 18-23.6 23.4-.9.3-23.6-4.5-24.4-4.2-16.2-3.5-31.7 6.2-46.5 11.8a325.4 325.4 0 0 0-63 32.3 399.2 399.2 0 0 0-102.3 98.5 482.5 482.5 0 0 0-76.4 161c-1.7 6.4-3.5 13-1.5 19.4 1.7 5.3 5.4 9.2 9.8 12.4 6 4.3 18 7 17.7 15.7-.1 6.6-2.4 13.5-3.5 20-1.3 7.7-2.3 15.5-3.4 23.2-4.8 35.4-8.6 71-10.3 106.6a920 920 0 0 0-.5 106c.1 2.3.8 4.5 2 6.2-1 .4-1.2 2.4.1 2.7l2.7.5a12 12 0 0 0 7 2.4l5.5.2c19.3 4 38.6 7.9 58.1 10.8 23.8 3.5 47.6 6.3 71.5 8.7 49.2 4.8 98 3.2 147.1.6a1877 1877 0 0 1 147.4-2c49.2 1.4 98.4 3.5 147.6 4.4 55 1 110-.5 164.8-5 7.5-.5 12.2-6.5 10.7-14-8.9-44.7-19-89.1-27-134Z" fill="#ae5d29"/><path id="shirt" d="m201 597.5 1.2-.4c14.5-5.7 29.6-14.8 45.4-11.4.5-.2 10.8 1.9 17.9 3.2l-6.7 7L247 598c40.7 67.1 88.8 100.7 144.3 100.7 55.5 0 97.7-33.6 126.4-100.7l4-1c.4 0 1 .2 1.5.4 9.3 3.6 27.4 19.6 36.3 24.1 35.6 18 64.5 45 81.6 81.6 8.7 18.6 15.2 38 21.8 57.5l.7 2c7.4 21.4 14.7 43 21.3 64.6 6.3 20.4 12 41 16.6 61.8l.7 2.9c2.2 10.4 5.8 22 5 32.8a29 29 0 0 1-3 10.7l-80.4 29 38.4 261.3c-35.1 1.5-70.3 2-105.5 1.3-49.2-.9-98.4-3-147.6-4.3-47.7-1.2-95.3-.7-143 1.7l-12 .6a946.3 946.3 0 0 1-139.5-1l-3.1-.3v-38.3l16.3-212.9-83-15.6-81.3-39.5a21.7 21.7 0 0 1-5.6-8.8c-1.9-6-.5-12 1-18l.5-1.3a492.8 492.8 0 0 1 76.4-161A399.3 399.3 0 0 1 138 629.7c19.8-13 40.9-23.9 63-32.3Z" fill="#e78276"/><path d="M232.2 584.6c5.1-.3 10.3.6 15.4 1 .4.1.6.8 0 .9-9 1.9-18 4.5-26.9 7.1l-3.8 1.2c-10 3-19.8 6-29.6 10-19.4 7.9-37.8 18.5-54.8 30.8C67.2 682.8 20 754.3-9.9 828.3a526 526 0 0 0-24.3 77c-.4 1.6-2 5.4-1 7 .7 1.3 3.6 2.1 5 2.9l4.5 2.3 25.2 12.9 2.3 1.1c38 18.6 78.4 34.4 121 35.5l.4-3.7a342 342 0 0 1 9.9-60c.3-1 1.6-.6 1.7.3 3 23.1 2 46.4 1 69.7-1.8 41-4.3 82.2-6.5 123.3-1.2 20.6-2.6 41-3.9 61.7-1.3 20.5-1.7 41.6-4.7 62-.6 4.6-6 7-10 6.6-4.4-.5-7.9-4.5-8-9 0-11.9 1.5-24 2.4-35.8l2.5-33.8c3.1-41.1 6.8-82.2 10.2-123.3a4771 4771 0 0 1 3.8-43.7C76.4 979.8 34.2 963-6.1 943.5c-.6 13.2-2 26.5-3.4 39.6-3.8 36.8-7.1 73.6-9.6 110.5a2254.2 2254.2 0 0 0-4.2 92.7l-.2 7c0 4.4-.5 8.5-4.3 11.7-3.7 3.3-8.9 3.5-12.6 0-5-4.6-4.2-10.9-4-17.1a1675.6 1675.6 0 0 1 1.8-47.2 1321 1321 0 0 1 10.5-109.5l2-14c3.5-26 7.5-52.7 15.5-77.9-3.1-1.5-6.2-3-9.3-4.7-5.5-2.7-11.2-5.4-16.6-8.4-4.2-2.5-7.9-5.8-9-10.8-1.4-5.5.6-11.5 2-16.9v-.4a502 502 0 0 1 26.6-80 523.2 523.2 0 0 1 67.8-117 353.8 353.8 0 0 1 88.7-83.3 239 239 0 0 1 53.8-25.7 142.6 142.6 0 0 1 42.8-7.5Zm90.1-66c6-6.5 18.1.2 15.2 8.8a108.2 108.2 0 0 1-34.7 52A79.4 79.4 0 0 1 247 598l1.7 2.4a321.1 321.1 0 0 0 46.1 52.6c36 31.2 84.8 48 132 36 37.1-9.4 69.8-38.8 79.4-76.2-1.3.6-3 .9-4.8.5-7.7-1.7-15.3-9.8-20.3-15.6-5.3-6.3-9.5-13-12.6-20.7-5.6-14-7.4-32.1.3-45.7 1-1.7 3-.7 3.3 1l.3 2.5c1.5 12.7 3.3 25 9.3 36.6a76 76 0 0 0 18.2 23.1c2.6 2 5.8 3.6 8.1 6l.5.4c.6-5 4.1-7.3 7.6-7.2 3.3.2 7.3 1.6 8.8 2.3l.1.1a341 341 0 0 1 65.1 42 259 259 0 0 1 88.4 129c7.5 25.3 11.8 51.4 16.3 77.4l2.8 16c4.2 23.9 8.9 48.4 18.4 70.7 2.5 5.7.6 11.1-5.5 13.4A1493 1493 0 0 1 688 953c3.7 16 6 32.5 8.7 48.5 6 34.1 13.2 68 19.4 102 3.2 17.5 6.1 35 9.3 52.3l4.7 25.2 2.4 13.6.1.7c.5 2.4 1 4.9.4 7.3-.8 2.7-2.9 4.6-4.8 6.6-1.6 1.6-3.8 1.6-5.7.7l-.7-.3c-3.4-1.6-6-3.2-7.3-7-.7-2.5-1-5.2-1.5-7.7a3535.6 3535.6 0 0 1-7.8-43.6l-1.6-9.1c-5.2-31.4-10.2-62.9-12.8-94.5-1-14-2.3-28.1-3.5-42.2l-.9-10.5c-1.1-13.3-2.5-27-2.7-40.5l-4.5 1.6L657 964c-5.5 2-12.5 6-18.4 5.2-2.9-.3-5-1.2-6.8-2.9 2 28.8 4.8 57.4 8.5 86a1965.7 1965.7 0 0 0 22 135c.6 3.2 1.4 6.4 1.9 9.6.5 3.7-.5 5.9-2.5 9-1.7 2.4-5 3.7-7.8 2-3.6-2.3-5.5-4.3-6.5-8.4-1-3.7-1.6-7.6-2.3-11.4a1654.2 1654.2 0 0 1-11.4-65.2c-7.8-52-12.7-104.4-15.2-156.8a1388 1388 0 0 1-1.4-77.8c0-13.3.5-26.6 1.4-39.9 1-13.4 3-26.5 4.8-39.8 0-.5.7-.5.7 0 .8 14.9 2.1 29.8 2.8 44.7.6 14.3.9 28.5 1.4 42.8.6 18.7 1.5 37.5 2.7 56.2a9.6 9.6 0 0 1 8.5-3.1c4.7-1 9.7-3.4 14.1-5l16.8-5.5 26.4-8.7a679 679 0 0 1-18-80.8l-2-12.3c-4-24.2-8.5-48.5-15.8-72a229.8 229.8 0 0 0-34.8-68.2 370.2 370.2 0 0 0-52.7-55.3C557 627 539.7 614 523 600c.1.9.2 2 0 3-3.5 25.9-17 50-35.8 67.9-37.7 36-93.6 43.4-142 26.5-46.7-16.3-88-55-102.6-102.8-.3-.8.8-1 1.3-.5l2.4 3.3c0-.4.2-.9.7-1a129 129 0 0 0 46.6-29.2 100.2 100.2 0 0 0 21.3-33.3l.4-1c1.7-5 3.2-10.2 7-14.2Z" fill="#000000"/></g>

        <g id="head" transform="matrix(.99789 0 0 1 156 62)"><path id="skin" d="M394.1417,209.1377 C395.2317,199.0127 383.3794,172.0013 383.6654,177.4803 C364.6634,148.1813 327.5804,136.6593 295.5854,126.9873 C227.6644,104.5653 174.6264,131.6443 126.9044,179.6373 C98.7304,205.9543 71.9224,235.3513 57.7794,271.7823 C29.9564,341.2803 71.6614,420.5263 135.0844,453.7263 C140.2024,456.4963 145.7794,459.1263 150.6534,462.4723 C176.8714,477.6193 207.6584,482.8593 236.8734,489.4523 C291.5294,501.9453 360.1724,495.9913 392.3824,443.9553 C414.2294,407.0253 408.4254,362.2563 406.7154,321.2723 C404.1464,285.3633 399.6367,244.7837 394.1417,209.1377 Z" fill="#ae5d29"/><path d="M101.9947,106.6537 C137.4047,73.5517 189.7417,57.5077 237.5937,60.3137 C263.5107,61.8337 288.4887,68.3277 311.9107,79.4847 C319.2357,82.9737 326.3737,87.0577 332.9557,91.8667 C337.3957,93.9387 341.7367,96.1807 345.9417,98.6187 C367.0017,110.8187 383.2817,129.2977 393.7017,151.2177 C398.675894,161.679958 402.60118,172.71256 404.824106,184.079863 L405.181874,185.951127 C406.316266,191.655334 408.558367,199.170783 405.7217,204.5087 C403.8417,208.0477 399.9017,210.2787 396.1717,209.9787 C396.9817,213.2587 397.9517,216.5377 398.5717,219.8387 L400.260589,228.8387 C400.540589,230.3387 400.818367,231.8387 401.0917,233.3387 C402.7217,242.2787 404.2217,251.2077 405.4217,260.2177 C407.9317,278.9787 410.2017,297.7787 412.2017,316.6087 C413.635033,330.075367 414.978089,343.555922 416.28295,357.033006 L417.0617,365.1187 C418.4017,379.0377 419.4517,393.0787 418.5407,407.0587 C417.1697,428.0297 410.7197,447.1627 398.2007,462.7277 C399.3937,465.5967 399.7957,468.8267 400.6937,472.3937 C401.9367,477.3297 403.5557,482.1627 405.2787,486.9537 C406.0847,488.8367 406.8927,490.7207 407.6917,492.6087 L409.7927,497.6097 L409.7927,497.6097 L411.432172,500.888526 C413.208351,504.455797 414.926465,508.0747 416.0177,511.7667 C423.0917,515.5437 428.8687,521.7057 429.1517,530.1487 C429.4017,537.7787 425.4417,545.8587 418.7517,549.7477 C412.1507,553.5907 405.3547,552.0777 399.0337,549.1437 C393.5227,550.7477 387.6237,550.9507 382.1647,549.2377 C377.9617,553.0417 372.5407,555.6687 366.5317,556.3777 C357.472382,557.453677 348.871493,554.91761 340.561031,551.582634 L339.9817,551.3487 C339.7217,551.2477 339.4617,551.1377 339.2117,551.0287 C329.6517,550.5687 320.1317,546.7877 313.3507,540.0887 C311.1417,537.9187 309.2317,535.4387 307.6917,532.6587 C302.1007,522.5477 301.2317,510.1377 306.7317,500.1087 C305.5517,500.1587 304.3617,500.2077 303.1817,500.2387 C287.446917,500.687309 271.684687,499.884288 255.9904,498.850067 L252.290088,498.599003 C242.1344,497.8676 227.1567,496.1462 226.8717,483.5587 C226.8307,481.9487 228.4917,480.7387 230.0117,481.1687 C235.7817,482.7977 241.4517,485.3587 247.4317,486.2787 C255.2517,487.4887 263.3507,487.6187 271.2517,488.0587 L273.523615,488.185156 C289.455274,489.056694 305.958064,489.588245 321.6317,486.4287 C333.3307,484.0787 345.5217,479.7977 356.2417,474.4977 C366.5317,469.3987 375.8817,462.7287 383.4217,454.0187 C400.0317,434.8587 402.2317,407.8287 401.4217,383.5887 C400.4417,354.6377 397.0407,325.7287 395.1217,296.8187 L394.253245,283.830945 C393.53721,273.000333 392.883129,262.154414 392.6117,251.3187 C392.4117,243.4087 392.5407,235.4787 392.5807,227.5687 C392.6007,223.6187 392.5517,219.6487 392.6417,215.6987 C392.6917,213.4787 392.9517,211.3087 393.1417,209.1377 C392.2617,208.6787 391.4417,208.0377 390.7017,207.1887 C390.1217,206.5187 389.6717,205.8087 389.3617,205.0887 C385.6317,203.9977 383.9017,202.5477 381.4817,199.2587 C379.4417,196.4887 377.1317,193.9287 374.6617,191.5287 C369.4017,186.4287 363.3917,182.2587 357.0407,178.6277 C343.9117,171.1187 329.5317,166.0987 315.0317,161.9787 C292.8307,155.6787 269.7717,152.4387 247.2417,147.3777 C241.0317,156.0377 234.4517,164.4387 227.5717,172.5687 C206.1007,197.9287 181.4817,220.5377 155.1007,240.6987 C149.7317,244.8087 144.2907,248.8587 138.7717,252.7877 C131.50045,263.87395 124.152638,274.907372 116.694766,285.866528 L113.4917,290.5587 L113.4417,290.6487 C113.0017,291.3187 112.5807,291.9887 112.1617,292.6587 C111.2717,294.0787 110.2717,295.4487 109.2117,296.7787 C108.5217,297.7877 107.8217,298.7977 107.1117,299.8087 C108.4717,300.5377 109.7117,301.3587 110.6817,302.2687 C112.6617,304.1377 112.3307,307.1087 110.6817,309.0087 C105.3617,315.1487 96.9417,307.1487 90.8217,305.0187 C84.1917,307.0377 78.6617,314.9287 75.9117,320.9577 C71.9517,329.6487 70.3617,340.1277 72.1517,349.5377 C73.7907,358.1377 78.2117,365.5687 85.5617,370.2287 C85.8217,370.3877 86.1007,370.5587 86.3717,370.7077 C86.3817,370.7287 86.3817,370.7287 86.3917,370.7177 C86.6417,370.8777 86.9017,371.0287 87.1617,371.1687 C90.6117,373.0687 94.4017,374.1887 98.3307,374.4577 C100.5807,374.6187 102.9317,374.4977 105.1817,374.7687 C107.4917,375.0377 109.3917,376.0987 111.6117,376.6587 C114.0617,377.2877 115.6417,380.5787 114.1007,382.7877 C113.3417,383.8777 112.6217,384.9187 111.8507,385.8487 C114.3817,388.8287 116.5807,392.1187 118.5717,395.2477 C121.2907,399.5377 123.7017,404.0887 125.9017,408.7287 C127.9317,411.3987 129.8717,414.1187 131.7517,416.8987 C142.4017,432.6787 150.5517,450.2587 155.5617,468.6277 C160.5217,486.7977 163.6217,507.2077 159.0317,525.7587 C154.8017,542.8187 142.4517,556.9487 124.1717,557.8587 C120.3567,558.0467 116.6047,557.6207 113.0767,556.6517 C105.3267,561.4387 95.7227,563.8467 87.1277,564.1277 C80.1737,564.3557 72.5617,562.8917 66.8827,558.6867 C60.1457,561.6187 52.8377,563.2827 46.4827,563.6617 C39.3717,564.0857 31.9297,562.1477 26.1327,558.3097 C20.6167,563.0347 14.6647,567.0227 7.9017,569.7587 C-3.7283,574.4577 -17.5683,573.8777 -28.2183,566.8487 C-38.8883,559.8087 -44.3183,547.1687 -41.0583,534.6277 C-38.0583,523.0687 -28.6283,514.5887 -19.7683,507.2877 L-18.0176799,505.852966 C-9.25388594,498.699677 -0.4033,491.776825 5.2217,481.6987 C11.1917,471.0087 13.3717,458.5887 13.9617,446.4887 C15.2417,419.8487 9.8217,393.4487 8.1717,366.9487 C6.4717,339.5787 7.4217,312.1277 11.1517,284.9577 C18.4017,232.1787 37.4817,180.4387 72.0017,139.2977 C76.9957,133.3447 82.3417,127.6707 87.9757,122.2927 C92.2817,116.6607 96.9357,111.3817 101.9947,106.6537 Z M561.1711,408.0085 C561.3611,408.0185 561.5411,408.0285 561.7111,408.0985 C561.8251,408.1465 561.9211,408.2233 562.0099,408.3073 L562.8511,409.1485 C563.1511,409.4485 563.1311,409.9085 562.8511,410.2085 C562.605645,410.481227 562.161844,410.489492 561.872813,410.278372 L561.7911,410.2085 L560.91998,409.336772 C560.8247,409.23362 560.7431,409.1219 560.7011,408.9785 C560.6611,408.8385 560.6611,408.6785 560.6511,408.5285 C560.6411,408.2585 560.9011,408.0085 561.1711,408.0085 Z M91.9913,326.3087 C100.0113,323.8777 109.6313,329.6587 114.4113,335.7587 C116.8113,338.8187 117.4913,343.0087 114.4113,346.0187 C111.7913,348.5787 106.6713,349.0477 104.1413,346.0187 C101.2713,342.5687 98.9313,337.7877 94.8313,335.5787 C90.3813,333.1787 84.4213,333.7787 83.3713,339.6277 C83.1913,340.6187 81.7713,340.2877 81.7113,339.3987 C81.3213,333.4787 86.5113,327.9577 91.9913,326.3087 Z" id="ðŸ–-Ink" fill="#000000"/></g>

        <g id="face" transform="translate(315 248)"><path d="M182.2439,225.9652 L182.935568,225.805218 C188.460204,224.502539 193.7763,222.73084 198.9219,226.1542 C203.8249,229.4152 204.5059,235.4472 200.6859,239.8472 C196.759696,244.370955 191.543789,244.117821 186.039297,244.179866 L185.6949,244.1842 C181.1239,244.2472 176.4769,244.1792 171.9239,243.7742 C167.6795,243.3962 163.40756,242.79221 159.211598,241.999409 L156.7304,241.51302 C154.195197,240.999997 151.698275,240.3327 150.3919,237.8792 C148.1139,233.6022 165.0459,230.2462 167.1029,229.6592 C172.0949,228.2342 177.1809,227.1122 182.2439,225.9652 Z M191.634193,174.394641 C188.935096,177.193987 185.36999,179.105754 181.367913,180.295732 C171.30965,183.286456 158.475622,181.693303 150.260436,178.645782 C148.556171,178.013644 146.963437,176.725048 146.048312,175.11365 C145.212412,173.641759 144.929477,171.91077 145.565716,170.145361 C145.746918,169.643897 145.967267,169.151539 146.18863,168.666648 C146.791277,167.347561 148.019458,166.321346 149.46204,165.734482 C150.960207,165.125004 152.663865,165.000599 154.030205,165.430262 C154.213756,165.487988 154.402027,165.547335 154.594782,165.608097 C159.799869,167.24887 168.337051,169.966044 175.409899,169.439413 C179.653911,169.123412 183.386915,167.62397 185.317652,163.740235 C186.335149,161.692395 186.053343,159.667058 185.150862,157.812727 C183.790166,155.016898 181.064689,152.584134 178.768455,150.90779 C175.531656,148.544107 172.079313,147.600482 168.508515,146.60419 C167.163013,146.22878 165.800236,145.848174 164.424715,145.392793 C163.971448,145.243158 163.574107,144.949174 163.276585,144.567009 C162.982731,144.189555 162.789851,143.72864 162.72939,143.266187 C162.666777,142.787275 162.744136,142.309698 162.966096,141.898081 C163.171987,141.516264 163.501275,141.180912 163.99334,140.960603 C170.979515,137.830669 180.015055,139.898917 186.834896,144.822934 C190.243367,147.283895 193.08628,150.445245 194.838513,153.977859 C196.46466,157.256278 197.155548,160.853243 196.518445,164.521349 C195.805094,168.627862 194.066972,171.871505 191.634193,174.394641 Z M77.1362,104.5549 C79.0992,103.6899 80.7122,107.7389 81.1162,108.8429 L81.9517138,111.133296 C83.3146459,114.826319 84.879269,118.580934 87.7452,121.3219 C90.1442,123.6169 93.9882,125.5619 96.7712,122.8769 C99.4112,120.3299 98.1242,117.4609 98.5132,114.3359 C99.2152,108.6839 106.9222,103.0349 111.5562,108.9329 C122.0242,122.2589 105.8282,140.7909 90.9102,137.5399 C83.3233034,135.885917 77.2160347,129.802709 74.7069246,122.568683 L74.5782,122.1869 C73.0762,117.6039 71.5572,107.0159 77.1362,104.5549 Z M212.219928,113.835683 L212.1476,113.6667 C207.1616,102.3257 224.9476,97.4517 226.4556,107.6347 L226.551051,108.321775 C228.017921,119.626038 224.92704,134.8277 211.0816,135.9547 C195.5396,137.2207 189.0676,119.8797 190.4556,107.1547 C190.7046,104.8767 193.4686,104.5617 194.3226,106.6317 L194.504313,107.083458 C197.013691,113.478563 199.396659,125.777394 208.2386,125.7647 C214.145986,125.755829 213.864071,117.781513 212.219928,113.835683 L212.219928,113.835683 Z M223.4962,81.0054 C232.4302,80.6884 232.4182,94.6704 223.4962,94.8804 C193.6942,95.5814 163.8692,96.5134 134.0582,96.6734 L128.639761,96.706498 C100.637912,96.8941456 72.5399273,97.2767636 44.6202,94.9264 C42.2372,94.7264 42.6802,91.3804 44.6712,91.5154 C73.9422,87.3494 103.5702,86.1314 133.0642,84.5484 C163.1812,82.9314 193.3562,82.0754 223.4962,81.0054 Z" id="ðŸ–-Ink" fill="#000000"/></g>

        <g id="facial-hair" transform="translate(279 400)"><path d="M245.365277,32.8226847 C231.338969,30.4572303 216.766641,33.9532014 203.242791,37.6782594 C181.759624,23.5729056 153.92278,37.8103838 138.536995,55.4330191 C133.271305,59.7696855 122.213152,65.5298866 128.039044,73.8036493 C125.830655,79.6522886 125.240063,82.4045268 129.81082,75.5670849 C155.679361,78.5452133 183.43415,72.9192677 209.035253,67.6129782 C217.752312,70.5442237 225.450269,77.3976483 235.032448,75.0503077 C244.092921,76.9767679 253.901005,78.7753656 262.080148,72.9629541 C268.30821,72.7104258 282.164331,83.8941237 281.941466,70.8883866 C280.014697,58.4218027 255.296689,37.6782594 245.365277,32.8226847 Z" id="ðŸŽ¨-Background" fill="#000"/><path d="M255.8834,72.8453 C240.6554,74.5303 225.2124,72.0543 212.4614,63.2123 C211.1304,62.2893 209.8184,62.2993 208.7484,62.8403 C207.4474,62.6963 206.1164,63.2153 205.3444,64.7013 C202.1424,70.8683 191.5294,69.4943 185.6954,69.6203 C166.6124,69.9883 146.8634,68.9353 128.4984,74.7043 C146.0624,40.3703 170.3534,25.5483 207.9404,39.0273 C204.5464,41.7603 221.4824,35.3623 222.9684,35.2403 C248.9744,28.7243 270.4294,50.5363 280.9104,72.1503 C272.9814,70.2633 264.0964,71.9363 255.8834,72.8453 M292.2074,78.6883 C280.7404,52.8593 258.1304,24.4593 226.5934,28.9233 C220.1184,29.8763 213.3074,34.2993 206.7884,33.5013 C187.9134,26.5303 172.3334,22.9883 153.4304,34.2603 C145.4104,34.8593 100.2784,90.7363 121.7254,86.1743 C148.0514,71.0563 193.8254,85.2963 210.1734,71.7743 C242.2684,92.8433 268.3644,69.9563 286.4524,83.1263 C289.5974,86.0113 294.0084,82.4183 292.2074,78.6883" id="ðŸ–-Ink" fill="#000000"/></g>

        <g id="eyewear" transform="translate(203 303)"></g>
    </g>
</svg>