<svg xmlns="http://www.w3.org/2000/svg" viewBox="0 0 704 704" fill="none" width="512" height="512">
    <desc>"Open Peeps" by "Pablo Stanley", licensed under "CC0 1.0". / Remix of the original.</desc>
    <mask id="viewbox"><rect width="704" height="704" rx="0" ry="0" x="0" y="0" fill="#ffffff" /></mask>
    <g mask="url(#viewbox)">
        <rect id="background" fill="#c0aede" width="704" height="704" x="0" y="0" />

        <g id="body"><path id="skin" d="M705.3 1074a2351.1 2351.1 0 0 1-15.6-101c-1-7.7-2.5-16.4 2.7-22 7.3-8 14-14.8 14.8-26.2.8-10.7-2.8-22.4-5-32.8a809.4 809.4 0 0 0-17.3-64.7c-6.6-21.7-13.9-43.2-21.3-64.6-6.9-20-13.5-40.3-22.5-59.5-17-36.5-46-63.5-81.6-81.6-9-4.5-27-20.5-36.3-24-8.5-3.4-8.5 6.3-16.9 2.6-6.7-2.9-13-6.7-16.7-13.2-4-7-14.3-16.9-15.9-25-3.3-17.4.3-32.2-12-45.3a90 90 0 0 0-41.1-23.8c-33.7-9.3-78.5-2.8-98.8 28.5-9.7 14.9-13 33-26.2 45.1-11.4 10.7-8.8 18-23.6 23.4-.9.3-23.6-4.5-24.4-4.2-16.2-3.5-31.7 6.2-46.5 11.8a325.4 325.4 0 0 0-63 32.3 399.2 399.2 0 0 0-102.3 98.5 482.5 482.5 0 0 0-76.4 161c-1.7 6.4-3.5 13-1.5 19.4 1.7 5.3 5.4 9.2 9.8 12.4 6 4.3 18 7 17.7 15.7-.1 6.6-2.4 13.5-3.5 20-1.3 7.7-2.3 15.5-3.4 23.2-4.8 35.4-8.6 71-10.3 106.6a920 920 0 0 0-.5 106c.1 2.3.8 4.5 2 6.2-1 .4-1.2 2.4.1 2.7l2.7.5a12 12 0 0 0 7 2.4l5.5.2c19.3 4 38.6 7.9 58.1 10.8 23.8 3.5 47.6 6.3 71.5 8.7 49.2 4.8 98 3.2 147.1.6a1877 1877 0 0 1 147.4-2c49.2 1.4 98.4 3.5 147.6 4.4 55 1 110-.5 164.8-5 7.5-.5 12.2-6.5 10.7-14-8.9-44.7-19-89.1-27-134Z" fill="#d08b5b"/><path id="shirt" d="m201 597.5 1.2-.4c14.5-5.7 29.6-14.8 45.4-11.4.5-.2 10.8 1.9 17.9 3.2l-6.7 7L247 598c40.7 67.1 88.8 100.7 144.3 100.7 55.5 0 97.7-33.6 126.4-100.7l4-1c.4 0 1 .2 1.5.4 9.3 3.6 27.4 19.6 36.3 24.1 35.6 18 64.5 45 81.6 81.6 8.7 18.6 15.2 38 21.8 57.5l.7 2c7.4 21.4 14.7 43 21.3 64.6 6.3 20.4 12 41 16.6 61.8l.7 2.9c2.2 10.4 5.8 22 5 32.8a29 29 0 0 1-3 10.7l-80.4 29 38.4 261.3c-35.1 1.5-70.3 2-105.5 1.3-49.2-.9-98.4-3-147.6-4.3-47.7-1.2-95.3-.7-143 1.7l-12 .6a946.3 946.3 0 0 1-139.5-1l-3.1-.3v-38.3l16.3-212.9-83-15.6-81.3-39.5a21.7 21.7 0 0 1-5.6-8.8c-1.9-6-.5-12 1-18l.5-1.3a492.8 492.8 0 0 1 76.4-161A399.3 399.3 0 0 1 138 629.7c19.8-13 40.9-23.9 63-32.3Z" fill="#e279c7"/><path d="M232.2 584.6c5.1-.3 10.3.6 15.4 1 .4.1.6.8 0 .9-9 1.9-18 4.5-26.9 7.1l-3.8 1.2c-10 3-19.8 6-29.6 10-19.4 7.9-37.8 18.5-54.8 30.8C67.2 682.8 20 754.3-9.9 828.3a526 526 0 0 0-24.3 77c-.4 1.6-2 5.4-1 7 .7 1.3 3.6 2.1 5 2.9l4.5 2.3 25.2 12.9 2.3 1.1c38 18.6 78.4 34.4 121 35.5l.4-3.7a342 342 0 0 1 9.9-60c.3-1 1.6-.6 1.7.3 3 23.1 2 46.4 1 69.7-1.8 41-4.3 82.2-6.5 123.3-1.2 20.6-2.6 41-3.9 61.7-1.3 20.5-1.7 41.6-4.7 62-.6 4.6-6 7-10 6.6-4.4-.5-7.9-4.5-8-9 0-11.9 1.5-24 2.4-35.8l2.5-33.8c3.1-41.1 6.8-82.2 10.2-123.3a4771 4771 0 0 1 3.8-43.7C76.4 979.8 34.2 963-6.1 943.5c-.6 13.2-2 26.5-3.4 39.6-3.8 36.8-7.1 73.6-9.6 110.5a2254.2 2254.2 0 0 0-4.2 92.7l-.2 7c0 4.4-.5 8.5-4.3 11.7-3.7 3.3-8.9 3.5-12.6 0-5-4.6-4.2-10.9-4-17.1a1675.6 1675.6 0 0 1 1.8-47.2 1321 1321 0 0 1 10.5-109.5l2-14c3.5-26 7.5-52.7 15.5-77.9-3.1-1.5-6.2-3-9.3-4.7-5.5-2.7-11.2-5.4-16.6-8.4-4.2-2.5-7.9-5.8-9-10.8-1.4-5.5.6-11.5 2-16.9v-.4a502 502 0 0 1 26.6-80 523.2 523.2 0 0 1 67.8-117 353.8 353.8 0 0 1 88.7-83.3 239 239 0 0 1 53.8-25.7 142.6 142.6 0 0 1 42.8-7.5Zm90.1-66c6-6.5 18.1.2 15.2 8.8a108.2 108.2 0 0 1-34.7 52A79.4 79.4 0 0 1 247 598l1.7 2.4a321.1 321.1 0 0 0 46.1 52.6c36 31.2 84.8 48 132 36 37.1-9.4 69.8-38.8 79.4-76.2-1.3.6-3 .9-4.8.5-7.7-1.7-15.3-9.8-20.3-15.6-5.3-6.3-9.5-13-12.6-20.7-5.6-14-7.4-32.1.3-45.7 1-1.7 3-.7 3.3 1l.3 2.5c1.5 12.7 3.3 25 9.3 36.6a76 76 0 0 0 18.2 23.1c2.6 2 5.8 3.6 8.1 6l.5.4c.6-5 4.1-7.3 7.6-7.2 3.3.2 7.3 1.6 8.8 2.3l.1.1a341 341 0 0 1 65.1 42 259 259 0 0 1 88.4 129c7.5 25.3 11.8 51.4 16.3 77.4l2.8 16c4.2 23.9 8.9 48.4 18.4 70.7 2.5 5.7.6 11.1-5.5 13.4A1493 1493 0 0 1 688 953c3.7 16 6 32.5 8.7 48.5 6 34.1 13.2 68 19.4 102 3.2 17.5 6.1 35 9.3 52.3l4.7 25.2 2.4 13.6.1.7c.5 2.4 1 4.9.4 7.3-.8 2.7-2.9 4.6-4.8 6.6-1.6 1.6-3.8 1.6-5.7.7l-.7-.3c-3.4-1.6-6-3.2-7.3-7-.7-2.5-1-5.2-1.5-7.7a3535.6 3535.6 0 0 1-7.8-43.6l-1.6-9.1c-5.2-31.4-10.2-62.9-12.8-94.5-1-14-2.3-28.1-3.5-42.2l-.9-10.5c-1.1-13.3-2.5-27-2.7-40.5l-4.5 1.6L657 964c-5.5 2-12.5 6-18.4 5.2-2.9-.3-5-1.2-6.8-2.9 2 28.8 4.8 57.4 8.5 86a1965.7 1965.7 0 0 0 22 135c.6 3.2 1.4 6.4 1.9 9.6.5 3.7-.5 5.9-2.5 9-1.7 2.4-5 3.7-7.8 2-3.6-2.3-5.5-4.3-6.5-8.4-1-3.7-1.6-7.6-2.3-11.4a1654.2 1654.2 0 0 1-11.4-65.2c-7.8-52-12.7-104.4-15.2-156.8a1388 1388 0 0 1-1.4-77.8c0-13.3.5-26.6 1.4-39.9 1-13.4 3-26.5 4.8-39.8 0-.5.7-.5.7 0 .8 14.9 2.1 29.8 2.8 44.7.6 14.3.9 28.5 1.4 42.8.6 18.7 1.5 37.5 2.7 56.2a9.6 9.6 0 0 1 8.5-3.1c4.7-1 9.7-3.4 14.1-5l16.8-5.5 26.4-8.7a679 679 0 0 1-18-80.8l-2-12.3c-4-24.2-8.5-48.5-15.8-72a229.8 229.8 0 0 0-34.8-68.2 370.2 370.2 0 0 0-52.7-55.3C557 627 539.7 614 523 600c.1.9.2 2 0 3-3.5 25.9-17 50-35.8 67.9-37.7 36-93.6 43.4-142 26.5-46.7-16.3-88-55-102.6-102.8-.3-.8.8-1 1.3-.5l2.4 3.3c0-.4.2-.9.7-1a129 129 0 0 0 46.6-29.2 100.2 100.2 0 0 0 21.3-33.3l.4-1c1.7-5 3.2-10.2 7-14.2Z" fill="#000000"/></g>

        <g id="head" transform="matrix(.99789 0 0 1 156 62)"><path id="skin" d="M154.012273,59.3368084 L162.6492,69.6084 C157.866656,72.9785856 153.352072,76.3650077 149.105449,79.7676665 L149.101501,79.7574477 C168.772333,66.9232668 190.557824,59.3368084 214.092229,59.3368084 C259.420488,59.3368084 351.492512,98.2737499 372.306108,126.358976 C382.63519,140.296721 401.829756,183.084374 411.786376,229.602142 C419.786376,266.978497 431.684994,372.572264 419.786376,412.249578 C404.558147,463.029869 354.457078,509.963551 302.796771,509.963551 C251.136464,509.963551 170.932706,472.667686 113.850306,390.935886 C111.240138,387.198591 81.2662975,382.866523 59.8837667,368.839219 L65.4977424,430.687175 L69.7645361,466.664661 L68.8229558,469.22514 C53.5086813,510.642032 41.3730655,532.249378 32.4161085,534.04718 C23.2763564,535.881671 4.66320274,520.899571 -23.4233526,489.100881 L-27.0121741,474.037505 C-36.1277921,435.612003 -40.6856012,414.986233 -40.6856012,412.160195 L-40.6793035,411.645463 C-40.5449254,405.142273 -38.3045967,368.333489 -38.2584329,358.427928 L-38.2577094,209.9639 C-8.05157467,109.545839 20.7735199,59.3368084 48.2175743,59.3368084 L154.012273,59.3368084 Z" fill="#d08b5b"/><path d="M82.4392,25.1384 C91.3202,21.6984 101.6092,22.3484 110.0392,27.5284 C126.5902,26.8184 143.0502,36.4984 151.6792,50.6284 C151.8592,50.8284 152.0502,51.0284 152.2202,51.2284 L154.049014,53.359888 C155.780796,55.3953378 157.607333,57.6388 159.0542,59.9554 C151.9662,60.1174 146.0612,63.0064 141.9392,68.8414 C138.998212,73.0048353 145.735419,76.9612295 148.741451,73.0234059 L148.8472,72.8794 C151.3222,69.3764 155.0582,68.0194 159.2172,67.9484 C160.4112,67.9284 161.3172,67.4714 161.9572,66.7974 C162.2122,67.7264 162.4402,68.6654 162.6492,69.6084 C183.5912,61.4634 206.1672,59.3064 228.6522,61.2384 C227.6662,62.8344 226.8422,64.5444 226.2082,66.3414 C225.4892,68.3784 227.0232,70.7174 229.0022,71.2614 C231.142169,71.8494312 233.076611,70.595233 233.850921,68.6570613 L233.9222,68.4674 C234.7862,66.0194 236.1972,63.9184 238.0912,62.2894 C248.6762,63.7244 259.1862,66.0064 269.4392,68.9484 C281.7622,72.4874 293.9692,76.8064 305.9072,81.7514 C303.8852,82.5444 302.1382,83.8844 300.9152,86.1214 C298.473617,90.5866024 305.186124,94.5860943 307.732982,90.3173078 L307.8232,90.1594 C308.072978,89.7016222 308.294311,89.426363 308.456297,89.26971 L308.5142,89.2164 L308.8662,89.0544 L309.5222,88.8664 L309.5222,88.8664 L309.774065,88.8045716 C309.996277,88.7545124 310.088585,88.7577077 310.6732,88.7254 C311.4512,88.6814 312.2302,88.6854 313.0092,88.6844 C314.8412,88.6834 316.0102,87.6624 316.5392,86.3564 C322.4302,89.0154 328.2462,91.8154 333.9592,94.7484 L335.3174,95.4514975 C352.951538,104.66515 369.6577,116.7649 379.3492,134.5684 C379.9902,135.7584 380.1892,137.0584 380.0302,138.2984 C382.0992,140.7784 384.0992,143.3384 386.0192,145.9384 C391.8792,153.8984 396.1692,162.9484 400.2292,171.9184 C408.3992,189.9584 413.8992,208.4884 418.1892,227.8084 C422.3402,246.4284 425.6892,265.2484 428.8002,284.0684 C432.2492,304.9784 435.1192,326.0684 435.7202,347.2784 C436.7802,385.0884 429.3892,423.1184 408.1592,454.9484 C389.2202,483.3484 360.7002,505.8984 326.8792,513.1184 C292.4792,520.4584 256.0792,513.2984 228.9702,490.3784 C224.5992,486.6884 225.2002,479.2384 228.9702,475.4584 C233.2402,471.1984 239.5392,471.7884 243.8892,475.4584 C269.4192,497.0484 306.5792,500.3784 337.3402,489.3784 C365.7802,479.1984 388.0592,455.7184 401.7292,429.3484 C418.4092,397.1884 421.2202,360.2484 418.6592,324.6684 C417.2602,305.1284 414.3492,285.7484 411.3492,266.3984 L409.538403,254.750755 C407.562761,242.134801 405.487259,229.536047 402.7802,217.0484 L402.1465,214.139043 C398.837964,199.080126 394.962594,183.635067 388.9702,169.4784 C385.8292,162.0484 382.0502,154.8884 378.1802,147.8184 C377.4302,146.4484 376.6592,145.0584 375.8692,143.6584 C374.8092,144.0284 373.5992,144.0884 372.3292,143.6884 C361.3992,140.2884 350.1692,138.0084 338.7402,137.2484 C333.5332,136.9004 328.3182,136.8464 323.1092,137.0494 C314.1922,136.5304 305.0262,137.3144 296.5322,140.0484 C295.7012,139.3354 294.8592,138.6374 294.0162,137.9394 C293.7892,137.9214 293.5622,137.8974 293.3342,137.8524 C291.1672,137.4264 289.6432,135.8864 288.7252,133.9414 C288.6772,133.8384 288.6342,133.7354 288.5932,133.6324 C287.5062,132.8014 286.4102,131.9834 285.3042,131.1764 C282.6082,131.8754 280.2462,129.6324 279.6102,127.1744 C279.0102,126.7694 278.4002,126.3774 277.7942,125.9804 C277.3192,126.0964 276.8472,126.1924 276.3872,126.2264 C274.4022,126.3694 272.4852,126.0654 270.7262,125.1184 C268.4992,123.9194 267.0762,121.9854 266.1242,119.7884 C262.7562,119.9954 259.3482,118.9024 256.3372,116.9264 C253.8932,115.3234 252.0212,113.1104 250.1602,110.9014 C227.4822,100.7864 202.8302,94.8144 178.1202,93.2844 C175.6862,93.7524 173.2692,94.3094 170.8822,94.9574 C170.3172,95.1114 169.5152,95.4134 168.5922,95.7754 C174.1012,95.1094 179.6812,95.0434 185.3402,95.8584 C212.1942,99.7414 233.1092,119.8474 251.1102,138.8264 C255.3922,137.9614 259.7202,143.5064 255.7572,147.1784 L224.8602,175.8094 L224.8602,175.8094 C225.6182,179.0114 221.9462,182.1674 218.7292,181.3984 C213.3352,180.1024 207.9322,178.8424 202.5252,177.6034 C196.8852,180.3324 189.7942,179.8654 184.6782,175.9094 C184.4402,175.7254 183.9232,175.4314 183.4742,175.1394 C183.0542,175.4864 182.4892,175.8344 182.2642,175.9824 C180.4452,177.1864 178.2292,177.5404 176.1042,177.2024 C173.9182,176.8554 171.9452,175.7464 170.2442,174.3654 C169.161297,173.485723 166.638019,169.815202 165.233797,169.54487 L165.0972,169.5294 C166.0342,169.5564 163.0222,172.3554 162.2132,172.9344 C160.3252,174.2814 158.2382,174.9894 155.8892,174.7314 C151.795175,174.28095 148.275327,170.549893 146.2732,167.104784 L146.1222,166.8404 L146.0592,166.6764 L146.006015,166.853807 C145.996089,166.885178 145.984867,166.918733 145.9712,166.9564 C145.6712,167.7674 144.7292,168.6894 144.0892,169.2564 C142.2652,170.8694 140.0072,171.5784 137.5952,171.1574 C135.55365,170.8021 133.837,169.568667 132.457253,168.076127 L132.2422,167.8384 C131.833958,167.377794 129.144518,163.764321 129.569107,162.898355 L129.6182,162.8254 L129.4842,162.7974 C127.8482,163.1994 126.4752,162.7964 125.4692,161.9534 C119.8552,160.7234 114.3142,159.2904 108.9502,157.4684 C108.5302,158.6484 108.1192,159.8284 107.7202,161.0184 C110.6492,162.8284 113.3592,165.4084 115.8492,167.2484 C120.5702,170.7284 125.2892,174.2084 129.9992,177.6984 L148.6612,191.4644 L148.6612,191.4644 L150.7952,190.8914 L150.7952,190.8914 C153.522283,190.159317 155.861828,191.746794 156.862711,194.173386 L156.9452,194.3834 C157.3422,195.4464 157.8202,196.4294 158.3822,197.3704 C163.0472,197.1844 166.9972,200.0484 168.2742,204.1564 C169.4262,204.1304 170.5902,204.1744 171.7802,204.3054 C175.039133,204.663267 177.235896,207.083332 176.645774,210.406439 L176.6012,210.6344 L176.5222,211.0044 C178.4112,211.8064 179.7812,213.3554 180.0852,215.6974 C180.5912,216.4584 180.9992,217.2864 181.2602,218.2084 C182.623328,222.992503 179.971548,228.906362 178.559043,233.489392 L178.4502,233.8484 C177.5436,236.8604 176.60532,239.858 175.656096,242.85416 L173.291676,250.292987 C166.735572,271.025151 160.343586,292.883855 165.6492,314.6184 C166.7802,319.2184 160.8992,321.2984 158.3492,317.6984 C152.1672,308.9824 145.4882,300.7694 138.4752,292.8854 L138.1352,292.8314 L138.1352,292.8314 C133.2242,291.8444 131.3172,288.3754 129.0632,284.8394 C127.7352,285.2304 126.3072,285.3224 124.9272,285.0564 C122.9292,284.6714 121.1392,283.5304 119.7262,282.0894 C118.5292,280.8674 117.4322,277.7334 116.0172,276.9564 C114.2472,275.9854 110.6892,277.3734 108.5752,277.0614 C106.8562,276.8084 105.2512,276.2184 103.6942,275.4774 C100.8322,279.3784 98.9352,283.9644 98.4702,288.9084 C98.2892,290.7884 97.7292,292.3784 96.9192,293.6984 C99.8992,293.5884 102.8892,293.7984 105.8402,294.3484 C116.7602,296.3784 124.5902,303.1184 128.9902,313.1584 C129.1792,313.5984 128.6092,313.9584 128.3492,313.5384 C121.8202,303.4884 107.6092,302.9784 97.2892,306.5184 C86.3292,310.2784 80.1792,319.9284 77.9902,330.9384 C75.5902,343.0084 78.6692,356.0184 85.2402,366.2984 C88.2892,371.0784 92.4502,375.4384 97.9792,377.1984 C104.5502,379.2884 110.6192,375.5484 117.3492,377.4784 C121.9292,378.7884 123.9502,383.2184 123.1192,387.6484 C122.7892,389.3884 122.1792,390.9084 121.3592,392.2284 C123.7802,397.0284 126.0192,401.9684 128.8692,406.5084 C133.2692,413.5184 138.5902,419.3184 144.3892,425.1684 C150.3792,431.2084 156.4792,437.1284 162.8892,442.7284 C169.0302,448.0984 176.0702,451.9184 182.5102,456.8384 C187.0302,460.2884 189.2692,465.1284 187.0392,470.6684 C185.2002,475.2484 178.9992,479.1484 173.9792,477.0784 C164.3692,473.1184 155.9592,466.3784 148.3002,459.4384 C141.2002,452.9984 135.0192,445.2984 130.3492,436.9384 C125.94376,429.0568 122.697693,420.106144 119.958948,411.484315 L119.6192,410.4084 C118.3292,406.3084 116.9702,401.6984 116.0902,397.0484 C110.8202,399.9284 103.6692,400.3484 98.0302,399.5684 C88.9192,398.3184 80.6092,393.7284 74.3292,387.0384 C71.4022,383.9254 68.8152,380.3744 66.5812,376.5254 C66.7842,378.8684 66.9052,381.1354 67.0352,383.1984 C72.2562,388.9164 74.3502,397.1684 72.4972,404.6974 C76.8652,409.1934 78.0892,415.9424 75.8092,421.6884 C80.5902,426.4304 80.4102,433.9764 78.3432,440.8294 C83.9952,447.1464 84.5302,456.9874 80.1172,464.1154 L79.9842,464.6274 L79.9842,464.6274 C84.4402,472.0834 83.4352,481.7194 77.8522,488.3034 C81.6652,495.6994 81.0752,505.6474 71.5462,508.5174 C68.0732,509.5624 64.7072,508.6704 62.1882,506.7244 C64.4882,518.1634 65.5172,529.7764 62.4502,541.2684 C61.2292,545.8284 56.7692,549.1584 52.0792,549.1584 C48.1592,549.1584 45.3092,547.1884 43.3402,544.2884 C43.5702,550.0584 43.2202,555.8584 41.9902,561.7084 C41.2482,565.2414 37.9712,567.9964 34.4922,568.8494 C35.7472,570.2644 36.2472,572.3114 35.0442,574.4424 C29.9432,583.4724 17.6182,579.7274 16.7852,571.0764 C13.3042,568.4784 11.6862,564.2124 11.0162,559.6034 C10.0402,552.8814 9.6862,546.2704 8.5802,539.6344 L8.15738519,540.029881 L8.15738519,540.029881 L7.9392,540.2184 L7.8692,540.6984 C7.2352,543.9784 5.3852,546.2754 2.9842,547.6454 C3.5062,553.3674 2.5402,559.1944 -1.0898,563.5394 C-3.5078,566.4354 -7.6268,567.5754 -11.1578,566.9474 C-11.3798,566.9584 -11.6068,566.9574 -11.8428,566.9264 C-19.8398,565.8634 -24.4668,558.2784 -22.3618,551.3164 C-25.5818,547.3704 -26.9378,542.3634 -25.9848,537.4154 C-32.2158,533.2894 -32.0888,524.2274 -29.9308,516.9484 C-36.4628,511.7934 -38.9198,502.1564 -35.6378,494.4974 C-41.5248,487.1864 -42.3438,476.9984 -38.3438,468.6734 C-44.8208,463.3524 -44.7838,453.0794 -38.3598,447.6374 C-41.7808,440.8464 -43.8438,432.7094 -40.4248,426.4944 C-42.8368,423.8324 -44.1608,420.0384 -43.8818,416.3724 C-43.4728,410.9884 -39.9108,407.2684 -35.4908,404.7894 L-35.1848,403.1054 L-35.1848,403.1054 C-34.1468,403.2344 -33.0408,402.9444 -32.0658,402.0084 C-31.1008,401.0814 -30.1078,400.3344 -29.0808,399.7184 C-27.9178,399.7034 -26.9168,399.1854 -26.2128,398.3884 C-24.2868,397.7344 -22.2158,397.4454 -19.9188,397.4194 C-14.9578,397.3654 -14.7828,389.9464 -19.3998,389.4654 C-20.1288,388.7304 -21.1328,388.2674 -22.2218,388.2674 L-23.0745344,388.270832 C-25.0682219,388.289822 -27.08105,388.41265 -28.9308,389.2054 C-30.1328,389.7194 -31.0598,390.4944 -31.7388,391.4424 C-31.8658,392.8764 -32.6458,394.3064 -34.3348,395.4874 C-36.2858,396.8514 -38.9538,397.0104 -41.0418,395.7764 C-43.9648,394.0484 -43.9948,391.3514 -43.6578,388.4194 C-42.9198,382.0054 -46.6078,375.9694 -45.7298,369.4074 C-45.3408,366.5064 -44.3748,364.0014 -42.7998,361.9784 C-46.1208,357.0074 -46.7068,350.5904 -44.1498,345.1334 C-49.4768,339.4024 -50.3978,330.5684 -47.0008,323.6714 C-46.9518,323.5044 -46.9138,323.3334 -46.8608,323.1684 C-46.4768,321.9964 -45.9478,320.9394 -45.3648,319.9284 C-48.3468,314.7624 -48.3248,308.4234 -45.2938,303.2794 C-49.8848,297.9274 -50.0308,289.4104 -45.9478,283.6444 C-45.9238,283.1664 -45.8738,282.6884 -45.8328,282.2104 C-47.7068,277.3454 -47.2568,271.8144 -44.8798,267.2904 C-45.7278,265.3354 -46.3818,263.2304 -46.7998,260.9884 C-47.8708,255.2084 -47.3198,249.5884 -45.7198,243.9484 C-45.4608,243.0584 -45.1708,242.1684 -44.8608,241.2784 C-44.8088,237.4154 -44.6618,233.5694 -44.4678,229.7304 C-45.228175,226.48065 -45.3507844,222.909337 -45.3675461,219.593935 L-45.3723419,217.444063 C-45.4095807,211.972936 -45.7909111,203.962089 -42.3318,199.3114 C-44.5528,194.2874 -43.6398,187.9574 -39.9328,183.9754 C-42.5348,179.5004 -43.0808,174.0054 -40.4658,169.0404 C-40.0458,168.2414 -39.5588,167.4974 -39.0248,166.7934 C-39.2408,162.2464 -38.2838,157.5574 -35.8608,153.0384 C-34.2868,150.0964 -31.9358,147.5494 -29.1408,145.5114 C-29.1878,144.9084 -29.2168,144.3064 -29.2068,143.7134 C-29.1578,141.0674 -28.5708,138.4104 -27.5828,135.9314 C-29.3558,132.9054 -30.1778,129.4944 -29.1408,125.8184 C-27.9808,121.6584 -24.9298,118.0784 -21.1208,116.0584 C-20.8138,112.1364 -20.2008,108.2374 -19.3248,104.3904 C-21.6658,99.1774 -19.8018,92.2974 -14.5108,89.2264 C-15.2008,85.0604 -14.5788,80.7404 -11.5468,77.4864 C-10.3978,76.2534 -9.0438,75.3184 -7.5868,74.6984 C-8.2888,70.5094 -7.4968,66.1514 -4.5998,62.7404 C-2.2338,59.9554 1.2722,58.2634 4.8402,58.0144 C6.2142,50.7284 13.1752,45.2804 20.5192,45.7144 C21.4372,42.5064 23.6302,39.7094 27.0322,38.2914 C27.9032,37.9284 28.7832,37.6894 29.6602,37.5564 C35.6322,31.5324 44.5232,27.4494 52.2202,25.3584 C59.9408905,23.2693524 67.7673582,23.0671415 74.3963107,25.4959742 L74.8792,25.6784 L75.4192,25.6084 C77.7602,25.3484 80.0992,25.1984 82.4392,25.1384 Z M23.7692,518.8744 C21.7072,518.2314 19.4072,519.6354 18.8482,521.6674 C18.2582,523.8154 19.5722,525.9434 21.6422,526.5884 C24.2212,527.3924 26.9302,527.5934 29.6182,527.595403 C31.7792,527.5974 33.6182,525.7554 33.6182,523.5954 C33.6182,521.4244 31.7872,519.5974 29.6182,519.5954 C27.4322,519.5934 25.8182,519.5134 23.7692,518.8744 Z M5.4262,476.395397 C2.3432,476.3984 -0.3008,477.1344 -2.5868,479.2944 C-4.1108,480.7354 -4.1488,483.5184 -2.5868,484.9524 C-1.00914483,486.39971 1.27979691,486.48411 2.8993057,485.10569 L3.2112,484.826025 C3.2487,484.7919 3.2777,484.7649 3.3012,484.7424 C3.4312,484.6584 3.5622,484.5724 3.7002,484.5004 L3.43928868,484.67089 C3.24070292,484.814323 3.70144665,484.580159 3.95981675,484.469508 L4.0412,484.4364 L4.0672,484.4304 L4.2742,484.4144 C4.6572,484.3944 5.0422,484.395397 5.4262,484.395397 C7.5182,484.3934 9.5222,482.5574 9.4262,480.395397 C9.3282,478.2294 7.6682,476.3934 5.4262,476.395397 Z M63.6042,451.0174 C67.9340333,448.362388 64.0665815,441.571633 59.7243417,444.016969 L59.5672,444.1094 C57.3412,445.4754 54.6032,445.2904 52.0812,445.2914 C46.9342,445.2944 46.9252,453.2944 52.0812,453.291402 L52.9333793,453.288255 C56.6304959,453.2599 60.3699857,453.001757 63.6042,451.0174 Z M29.5292,421.8184 C26.2579368,421.202611 22.5935657,420.653237 19.1516817,421.0282 L18.5802,421.0994 L17.5212,421.0994 C16.6012,421.0994 15.7102,421.4694 14.9952,422.0514 C13.8632,422.5214 12.7912,423.1514 11.8132,423.9984 C7.9162,427.3774 13.5952,433.0154 17.4702,429.6564 C17.6854,429.4692 17.93516,429.31528 18.212824,429.189008 L18.4262,429.0994 L22.7052,429.0994 C23.0942,429.0994 23.4732,429.0184 23.8422,428.9014 C25.2312,429.0924 26.5252,429.3674 27.4022,429.5324 C32.4342,430.4794 34.5902,422.7704 29.5292,421.8184 Z M25.8762,345.0384 C19.6062,342.1304 12.6622,342.1514 6.8632,346.1894 C2.71656471,349.077024 6.56835709,355.886709 10.7507029,353.197504 L10.9002,353.0974 C11.4202,352.7354 11.9542,352.4324 12.4942,352.1574 C15.4382,353.0084 18.4014865,353.04845 21.2476383,352.002068 L21.6182,351.8594 L21.8392,351.9454 C26.4792,354.0974 30.5472,347.2044 25.8762,345.0384 Z M94.1533,332.5037 C87.8193,331.7937 87.7683,321.7877 94.1533,322.5037 C107.6343,324.0157 119.8663,330.0087 128.8253,340.3007 C132.992341,345.087353 126.129965,352.090078 121.884746,347.516846 L121.7543,347.3717 C114.6303,339.1877 105.0163,333.7217 94.1533,332.5037 Z M23.1942,281.1314 C21.7862,280.9774 20.3812,280.9004 18.9982,280.9674 C15.6762,281.1274 11.6302,283.3434 13.0882,287.3474 C14.2572,290.5554 18.0892,290.6824 19.9812,288.9714 C20.7682,288.9904 21.5542,289.0424 22.3372,289.1224 C24.4262,289.3374 26.4952,289.7354 28.5542,290.1414 C33.5832,291.1304 35.7362,283.4214 30.6812,282.4264 L28.445325,281.984025 C27.69195,281.83665 26.9317,281.6924 26.1682,281.5604 C25.7113429,281.333257 25.2214245,281.180318 24.6978152,281.141257 L24.4332,281.1314 L23.1942,281.1314 Z M-16.5508,219.0664 L-17.0206479,219.00272 C-23.7756298,218.138502 -34.6190874,218.933722 -35.4388,227.5324 C-35.8918,232.2944 -29.0118,232.5934 -27.6538,228.5214 C-22.6658,227.6224 -17.6368,227.4504 -12.6828,227.9964 C-10.7928,226.0764 -10.7778,222.3854 -13.9238,221.4644 C-14.3678,220.2704 -15.2948,219.2474 -16.5508,219.0664 Z M137.8542,204.5434 C136.2932,203.1104 133.7332,202.9204 132.1972,204.5434 C131.3122,205.4774 130.5732,206.5154 129.9882,207.6574 L129.598941,208.428511 C129.532978,208.556511 129.465533,208.683733 129.3952,208.8094 C129.2642,209.0424 129.1172,209.2644 128.9742,209.4904 L128.87795,209.5849 C128.8397,209.62365 128.7947,209.6704 128.7412,209.7274 C127.3022,211.2484 127.1192,213.8954 128.7412,215.3844 C130.3022,216.8174 132.8612,217.0074 134.3982,215.3844 C135.2822,214.4504 136.0212,213.4134 136.6072,212.2704 L136.995719,211.50003 C137.061533,211.372178 137.128867,211.245067 137.1992,211.1194 C137.3302,210.8854 137.4782,210.6634 137.6202,210.4374 L137.779528,210.278494 C137.802387,210.254837 137.8272,210.2289 137.8542,210.2004 C139.2932,208.6804 139.4752,206.0324 137.8542,204.5434 Z M55.8282,194.1264 C50.1922,190.1324 43.4902,189.9464 38.3092,194.7514 C34.5701884,198.219598 40.0636639,203.776363 43.8338674,200.526766 L43.9662,200.4084 C44.1032,200.2804 44.2422,200.1684 44.3802,200.0614 C45.0562,200.6374 45.9152,201.0024 46.8972,201.0034 C47.1538667,201.004067 47.4100889,201.0034 47.666163,201.008807 L48.0502,201.0224 L48.2562,201.0394 L48.2822,201.0444 L48.4621234,201.120874 C48.7910809,201.269271 49.2450696,201.498313 48.6222,201.1084 C48.7612,201.1814 48.8912,201.2674 49.0232,201.3514 L49.2532,201.5604 C50.7612,202.9864 53.3702,203.1744 54.8672,201.5974 C57.5182,200.7014 58.9252,196.3194 55.8282,194.1264 Z M110.930894,181.021659 L111.0332,180.9894 C115.9752,179.5784 113.8742,171.8574 108.9062,173.2744 C103.6352,174.7794 101.1182,179.6844 100.0642,184.7084 C99.6212,186.8214 100.6842,189.0324 102.8582,189.6294 C104.8442,190.1744 107.3332,188.9594 107.7792,186.8354 C108.091927,185.341764 108.452588,184.074574 109.023467,182.898593 L109.368963,182.227309 C109.530567,181.921334 109.586914,181.870543 110.1322,181.3944 C110.223756,181.3144 110.640052,181.120622 110.930894,181.021659 Z M27.2252,140.7304 L26.4522536,140.554109 C21.6377342,139.49948 15.2476138,138.948728 12.3402,143.7214 C9.6902,148.0694 16.3752,152.0274 19.1282,147.9174 C19.1702,147.916067 19.2184222,147.916511 19.2746444,147.921104 L19.3652,147.9314 L20.5992,147.8314 C22.1362,147.8204 23.6072,148.0924 25.0982,148.4454 C30.1042,149.6304 32.2412,141.9184 27.2252,140.7304 Z M200.0612,109.9764 C203.7062,106.3314 198.0512,100.6724 194.4052,104.3204 C191.5222,107.2034 188.7412,110.1064 186.8672,113.7694 C185.8842,115.6914 186.3652,118.1094 188.3022,119.2424 C190.0892,120.2874 192.7872,119.7374 193.7752,117.8074 C195.3992,114.6324 197.4492,112.5904 200.0612,109.9764 Z M154.0672,100.4084 C150.4662,102.5404 148.1352,106.0524 146.7202,110.1174 C146.0102,112.1574 147.5292,114.4924 149.5142,115.0374 C151.647387,115.623494 153.596634,114.373927 154.363692,112.43332 L154.4342,112.2434 C154.8132,111.1564 155.4192,109.8724 156.1682,108.9034 C156.8082,108.0764 157.8032,107.2484 158.5532,106.9734 C160.3562,106.3114 161.6342,104.6774 161.4672,102.7694 C158.5022,103.7944 155.7492,102.5614 154.0672,100.4084 Z M46.2702,83.0084 C42.6372,79.6364 37.7632,79.1894 33.3592,81.2304 C31.3982,82.1384 30.9072,84.9654 31.9242,86.7034 C33.1002,88.7144 35.4292,89.0504 37.3962,88.1384 C36.8912,88.3724 37.8032,88.0634 38.1972,87.9504 C38.2476,87.9738 38.90793,87.94374 39.13572,87.946971 L39.4097,87.964275 C39.41195,87.96615 39.3447,87.9649 39.2082,87.9604 C39.4002,88.0037333 39.5899778,88.0555111 39.7769407,88.1151407 L40.0152818,88.1976545 C39.8951849,88.1726521 40.4356151,88.5249079 40.5859182,88.6418655 L40.6132,88.6644 C44.3832,92.1634 50.0542,86.5194 46.2702,83.0084 Z" id="ðŸ–-Ink" fill="#000000"/></g>

        <g id="face" transform="translate(315 248)"><path d="M195.648193,205.742798 C187.261657,201.289422 177.421377,202.042614 169.00004,206.020824 C158.706314,210.88389 150.747499,218.869283 143.697486,227.649864 C140.990543,231.020761 138.458006,234.536024 135.928336,238.048092 C134.887194,239.493561 133.846489,240.938447 132.79402,242.372032 C132.588772,242.640738 132.363649,242.930014 132.12515,243.236505 C130.439996,245.40207 128.13963,248.397076 127.259175,251.115005 C126.905739,252.206047 126.774119,253.259272 126.932764,254.218574 C127.009571,254.683016 127.151913,255.128132 127.369961,255.548545 C126.026468,255.89614 125.129125,255.565059 124.508835,254.897651 C123.526737,253.840951 123.182462,252.253688 123.168043,250.431638 C123.118384,243.905641 127.421312,234.392264 129.178267,230.471862 C129.359195,230.068147 129.514259,229.722096 129.636514,229.44246 C135.990874,214.902707 146.156691,200.739536 160.288147,192.902543 C173.980473,185.309944 190.185593,183.874719 204.351165,191.053 C220.000474,198.983539 224.269956,214.687223 226.043182,230.826214 C226.314815,233.298502 225.196205,235.57888 223.475851,237.299234 C221.534025,239.24106 218.805833,240.498 216.2562,240.498 C213.608639,240.498 211.184446,239.377079 209.411751,237.604384 C207.624435,235.817068 206.49522,233.364 206.47514,230.706002 L206.458107,229.158195 C206.376243,223.769253 205.998264,218.709456 204.04209,214.418522 C202.469585,210.969178 199.895477,207.998577 195.648193,205.742798 Z M174.814304,133.367155 C182.365682,137.9572 193.871664,148.660291 185.748119,160.039573 C176.185929,170.073062 162.418535,158.568982 155.634201,153.366134 C149.343449,149.333898 142.275437,159.704507 148.112,164.412823 C197.135736,200.708059 217.030606,134.567387 178.633685,127.970386 C174.406047,127.243425 172.835891,131.947174 174.814304,133.367155 Z M111.249842,134.873685 C109.21559,135.869593 106.960397,136.273981 104.748339,135.812416 C102.766863,135.398964 100.83098,134.28903 99.1167073,132.332702 C96.7628125,129.643932 95.0538784,125.825893 96.1958438,122.182731 L96.522735,121.245789 C96.9093992,120.156024 97.4302579,119.134445 98.0641829,118.208027 C98.4710172,116.223311 98.5529701,114.923595 98.6298744,113.689429 C98.6495261,113.374056 98.6688905,113.063106 98.6908225,112.752749 C98.8127143,111.024361 99.066476,109.214651 99.6465705,107.55057 C99.7557985,107.237235 99.8772989,106.927048 100.008665,106.620486 C99.683933,106.506758 99.3592902,106.392662 99.0347035,106.278263 C96.7917559,105.487748 94.5557732,104.68431 92.3319381,103.844018 C86.0072865,101.452869 79.7532165,98.7573797 73.699327,95.7413805 C70.7082667,94.2508057 67.7926562,92.5737833 64.9139627,90.8770546 C63.5392598,89.9628132 60.5237088,87.8342564 59.1713627,86.6881642 L58.1451201,85.8184397 L57.6080011,87.0517676 C57.0306197,87.6334134 56.564872,87.6786301 56.1732669,87.5480196 C55.7523002,87.4076162 55.440413,87.0757766 55.2442996,86.6771596 C55.0082325,86.1973332 54.9345795,85.6131759 55.0591196,85.0493532 C55.1712928,84.5415179 55.4484252,84.0510599 55.9164995,83.6649246 C57.7001254,82.194146 60.2160755,82.8325585 62.3064786,83.2425326 C62.604845,83.3010488 62.8969781,83.3583123 63.1805622,83.4101146 C66.4312338,84.0040556 69.6742461,84.7114779 72.9040661,85.4416519 L76.7918803,86.327351 C78.2754916,86.6658136 79.7585845,87.0057018 81.2414495,87.3455377 C98.0882943,91.2064165 114.906174,95.0578885 132.122274,96.7503413 L133.936387,96.9204394 C137.005394,97.1943986 139.736127,98.4974603 141.535006,100.572739 C143.191844,102.48415 144.038528,105.048285 143.636316,108.02142 C143.242927,110.931137 141.606085,113.353809 139.353379,114.85422 C137.112221,116.346939 134.260478,116.926782 131.414339,116.162533 C126.070424,114.72933 120.738301,113.221432 115.431497,111.622283 L116.672752,114.571059 C117.740487,117.140109 118.725205,119.802457 118.841202,122.519863 C118.949725,125.073251 118.20064,127.544857 116.90419,129.659453 C115.524303,131.910141 113.523131,133.760751 111.249842,134.873685 Z M231.352025,73.4294893 C230.034079,75.2283938 228.519368,76.7648694 227.010036,78.304574 C223.75001,81.6302018 220.49134,84.9556201 217.000272,88.0490599 C215.73473,89.1711545 214.45535,90.2767508 213.175748,91.3825744 C212.70081,91.7930133 212.225838,92.203481 211.751524,92.614824 L211.004763,93.2624417 L211.643673,94.0166662 C211.815135,94.2190758 211.976961,94.4281686 212.112304,94.6495634 C214.030029,97.7892009 215.095107,101.196799 216.173318,104.614455 C216.912014,106.955936 217.654492,109.303239 218.650635,111.583012 L218.972312,112.29729 C220.269118,115.087375 220.618068,118.000041 219.928905,120.628455 C219.279746,123.104299 217.705376,125.314212 215.178913,126.923219 C214.543962,127.328244 213.460483,127.798237 212.726121,127.961035 C209.831292,128.603237 206.899979,128.155475 204.504242,126.795324 C202.213647,125.494866 200.4178,123.357954 199.621703,120.555259 C198.446409,116.414356 197.690559,112.20737 197.730652,108.107078 C197.737443,107.412601 197.767122,106.71551 197.817624,106.016716 C197.360448,106.481285 196.834987,106.88982 196.238805,107.226646 C194.383563,108.274805 192.286969,108.377994 190.315694,107.842886 C188.085419,107.237471 186.007568,105.820358 184.568759,103.968081 C183.301768,102.336995 182.526878,100.361258 182.627006,98.2959198 C182.714404,96.4931468 183.475101,94.6366233 185.102274,92.8878161 L186.636822,91.3243557 C187.779102,90.1656977 189.351381,89.2743516 191.026519,88.823827 C192.56375,88.4103922 194.193717,88.3660516 195.655884,88.8647619 C197.627626,88.3254321 198.906165,87.6894097 200.093298,87.0978865 C200.938605,86.6766877 201.735754,86.2788833 202.446542,85.9693195 C205.909514,84.4631572 209.359467,82.9279547 212.797752,81.365553 C215.778829,80.0095323 218.807301,78.7577584 221.835722,77.5057861 C225.026091,76.1868631 228.216312,74.8675388 231.352025,73.4294893 Z" id="ðŸ–-Ink" fill="#000000"/></g>

        <g id="facial-hair" transform="translate(279 400)"><path d="M258.6349,38.6644 C252.0409,37.4254 245.2239,37.7734 238.6739,36.3314 C232.2839,34.9234 227.2089,30.7364 221.0349,28.7874 C215.6019,27.0714 209.2339,28.2334 205.0029,31.5594 C201.0719,29.7424 196.6049,29.3494 192.1329,29.9494 C185.3509,30.8594 179.0229,33.7294 172.9819,36.8334 C172.2819,37.1934 171.5809,37.5364 170.8809,37.8834 C159.7189,37.6044 148.2759,37.6264 137.3229,40.0184 C127.6239,42.1374 118.4549,47.0694 112.6709,55.3074 C106.1979,64.5284 105.0289,76.2704 104.0309,87.1664 C103.3959,94.0824 113.0019,95.4854 116.2569,90.4774 C119.6319,85.2854 123.1449,80.0814 127.6419,75.7794 C132.7499,70.8924 138.9629,68.9684 145.9259,68.5224 C161.2939,67.5384 176.7639,68.3634 192.1469,67.6824 C201.0639,67.2874 210.9919,63.8584 214.5859,56.1064 C218.4219,62.1174 227.1139,65.6914 234.2629,66.2334 C241.8179,66.8074 249.4889,65.4344 256.9689,67.0084 C264.1149,68.5124 272.6089,73.8344 271.0199,82.3464 C270.0859,87.3464 276.4069,90.2944 279.3159,85.8444 C291.1949,67.6614 279.4899,42.5854 258.6349,38.6644" id="ðŸ–-Ink" fill="#000000"/></g>

        <g id="eyewear" transform="translate(203 303)"><path d="M367.0895,74.4323 C364.2615,82.1283 359.9575,90.1403 354.6945,96.6173 C333.4005,114.6493 312.7095,104.6653 302.2035,80.2263 C298.2115,62.9553 308.8105,44.3513 320.0415,31.6463 C336.2615,15.3893 362.7325,23.9213 370.1905,43.2473 C370.6435,45.7513 370.9175,48.2493 371.0485,50.7393 C370.8935,58.8303 369.9185,65.7453 367.0895,73.4323 M162.4095,58.9113 C190.4615,25.5443 242.9415,23.7603 241.6025,75.1153 C235.5765,140.1193 134.1055,124.1643 162.4095,58.9113 Z M375.9125,31.0763 C374.9295,29.4113 373.8385,27.8003 372.6475,26.2593 C372.2075,25.9973 371.9545,23.6733 370.3365,23.5013 C348.7095,-0.3577 310.7165,13.1793 296.9885,36.9533 C294.4815,39.9593 292.4365,43.4783 290.9285,47.1963 C277.4025,44.7153 261.6335,45.1973 249.0535,50.3063 C236.5795,17.7343 198.8145,14.8263 173.9275,28.7433 C158.4485,36.3563 148.4115,52.2993 133.3575,61.0573 C97.9685,63.6043 59.9875,55.6753 25.2375,64.5523 C-2.1685,70.2503 20.7415,84.1273 25.3375,74.8663 C58.1005,65.1863 96.9155,73.3663 130.9325,71.1853 C134.4695,77.1683 141.2525,82.0643 148.0125,81.8553 C155.3135,146.5763 249.6975,135.8443 252.9535,78.3113 C256.6465,72.4723 261.2395,66.8843 267.8135,63.2463 C270.3305,62.7253 272.7615,62.0483 274.9835,61.0003 C278.7815,60.4643 284.6335,62.0743 288.1275,65.2363 C300.0965,137.0523 369.0515,128.6883 381.3745,65.7743 C381.6195,65.5243 382.3045,64.5863 382.8305,63.0813 C387.0485,57.5043 397.3745,55.4313 395.7245,46.0163 C394.2555,36.5993 382.3635,36.7113 375.9125,31.0763 Z" id="ðŸ–-Ink" fill="#000000"/></g>
    </g>
</svg>