<svg xmlns="http://www.w3.org/2000/svg" viewBox="0 0 704 704" fill="none" width="512" height="512">
    <desc>"Open Peeps" by "Pablo Stanley", licensed under "CC0 1.0". / Remix of the original.</desc>
    <mask id="viewbox"><rect width="704" height="704" rx="0" ry="0" x="0" y="0" fill="#ffffff" /></mask>
    <g mask="url(#viewbox)">
        <rect id="background" fill="#ffd5dc" width="704" height="704" x="0" y="0" />

        <g id="body"><path id="skin" d="M705.3 1074a2351.1 2351.1 0 0 1-15.6-101c-1-7.7-2.5-16.4 2.7-22 7.3-8 14-14.8 14.8-26.2.8-10.7-2.8-22.4-5-32.8a809.4 809.4 0 0 0-17.3-64.7c-6.6-21.7-13.9-43.2-21.3-64.6-6.9-20-13.5-40.3-22.5-59.5-17-36.5-46-63.5-81.6-81.6-9-4.5-27-20.5-36.3-24-8.5-3.4-8.5 6.3-16.9 2.6-6.7-2.9-13-6.7-16.7-13.2-4-7-14.3-16.9-15.9-25-3.3-17.4.3-32.2-12-45.3a90 90 0 0 0-41.1-23.8c-33.7-9.3-78.5-2.8-98.8 28.5-9.7 14.9-13 33-26.2 45.1-11.4 10.7-8.8 18-23.6 23.4-.9.3-23.6-4.5-24.4-4.2-16.2-3.5-31.7 6.2-46.5 11.8a325.4 325.4 0 0 0-63 32.3 399.2 399.2 0 0 0-102.3 98.5 482.5 482.5 0 0 0-76.4 161c-1.7 6.4-3.5 13-1.5 19.4 1.7 5.3 5.4 9.2 9.8 12.4 6 4.3 18 7 17.7 15.7-.1 6.6-2.4 13.5-3.5 20-1.3 7.7-2.3 15.5-3.4 23.2-4.8 35.4-8.6 71-10.3 106.6a920 920 0 0 0-.5 106c.1 2.3.8 4.5 2 6.2-1 .4-1.2 2.4.1 2.7l2.7.5a12 12 0 0 0 7 2.4l5.5.2c19.3 4 38.6 7.9 58.1 10.8 23.8 3.5 47.6 6.3 71.5 8.7 49.2 4.8 98 3.2 147.1.6a1877 1877 0 0 1 147.4-2c49.2 1.4 98.4 3.5 147.6 4.4 55 1 110-.5 164.8-5 7.5-.5 12.2-6.5 10.7-14-8.9-44.7-19-89.1-27-134Z" fill="#edb98a"/><path id="shirt" d="m201 597.5 1.2-.4c14.5-5.7 29.6-14.8 45.4-11.4.5-.2 10.8 1.9 17.9 3.2l-6.7 7L247 598c40.7 67.1 88.8 100.7 144.3 100.7 55.5 0 97.7-33.6 126.4-100.7l4-1c.4 0 1 .2 1.5.4 9.3 3.6 27.4 19.6 36.3 24.1 35.6 18 64.5 45 81.6 81.6 8.7 18.6 15.2 38 21.8 57.5l.7 2c7.4 21.4 14.7 43 21.3 64.6 6.3 20.4 12 41 16.6 61.8l.7 2.9c2.2 10.4 5.8 22 5 32.8a29 29 0 0 1-3 10.7l-80.4 29 38.4 261.3c-35.1 1.5-70.3 2-105.5 1.3-49.2-.9-98.4-3-147.6-4.3-47.7-1.2-95.3-.7-143 1.7l-12 .6a946.3 946.3 0 0 1-139.5-1l-3.1-.3v-38.3l16.3-212.9-83-15.6-81.3-39.5a21.7 21.7 0 0 1-5.6-8.8c-1.9-6-.5-12 1-18l.5-1.3a492.8 492.8 0 0 1 76.4-161A399.3 399.3 0 0 1 138 629.7c19.8-13 40.9-23.9 63-32.3Z" fill="#78e185"/><path d="M232.2 584.6c5.1-.3 10.3.6 15.4 1 .4.1.6.8 0 .9-9 1.9-18 4.5-26.9 7.1l-3.8 1.2c-10 3-19.8 6-29.6 10-19.4 7.9-37.8 18.5-54.8 30.8C67.2 682.8 20 754.3-9.9 828.3a526 526 0 0 0-24.3 77c-.4 1.6-2 5.4-1 7 .7 1.3 3.6 2.1 5 2.9l4.5 2.3 25.2 12.9 2.3 1.1c38 18.6 78.4 34.4 121 35.5l.4-3.7a342 342 0 0 1 9.9-60c.3-1 1.6-.6 1.7.3 3 23.1 2 46.4 1 69.7-1.8 41-4.3 82.2-6.5 123.3-1.2 20.6-2.6 41-3.9 61.7-1.3 20.5-1.7 41.6-4.7 62-.6 4.6-6 7-10 6.6-4.4-.5-7.9-4.5-8-9 0-11.9 1.5-24 2.4-35.8l2.5-33.8c3.1-41.1 6.8-82.2 10.2-123.3a4771 4771 0 0 1 3.8-43.7C76.4 979.8 34.2 963-6.1 943.5c-.6 13.2-2 26.5-3.4 39.6-3.8 36.8-7.1 73.6-9.6 110.5a2254.2 2254.2 0 0 0-4.2 92.7l-.2 7c0 4.4-.5 8.5-4.3 11.7-3.7 3.3-8.9 3.5-12.6 0-5-4.6-4.2-10.9-4-17.1a1675.6 1675.6 0 0 1 1.8-47.2 1321 1321 0 0 1 10.5-109.5l2-14c3.5-26 7.5-52.7 15.5-77.9-3.1-1.5-6.2-3-9.3-4.7-5.5-2.7-11.2-5.4-16.6-8.4-4.2-2.5-7.9-5.8-9-10.8-1.4-5.5.6-11.5 2-16.9v-.4a502 502 0 0 1 26.6-80 523.2 523.2 0 0 1 67.8-117 353.8 353.8 0 0 1 88.7-83.3 239 239 0 0 1 53.8-25.7 142.6 142.6 0 0 1 42.8-7.5Zm90.1-66c6-6.5 18.1.2 15.2 8.8a108.2 108.2 0 0 1-34.7 52A79.4 79.4 0 0 1 247 598l1.7 2.4a321.1 321.1 0 0 0 46.1 52.6c36 31.2 84.8 48 132 36 37.1-9.4 69.8-38.8 79.4-76.2-1.3.6-3 .9-4.8.5-7.7-1.7-15.3-9.8-20.3-15.6-5.3-6.3-9.5-13-12.6-20.7-5.6-14-7.4-32.1.3-45.7 1-1.7 3-.7 3.3 1l.3 2.5c1.5 12.7 3.3 25 9.3 36.6a76 76 0 0 0 18.2 23.1c2.6 2 5.8 3.6 8.1 6l.5.4c.6-5 4.1-7.3 7.6-7.2 3.3.2 7.3 1.6 8.8 2.3l.1.1a341 341 0 0 1 65.1 42 259 259 0 0 1 88.4 129c7.5 25.3 11.8 51.4 16.3 77.4l2.8 16c4.2 23.9 8.9 48.4 18.4 70.7 2.5 5.7.6 11.1-5.5 13.4A1493 1493 0 0 1 688 953c3.7 16 6 32.5 8.7 48.5 6 34.1 13.2 68 19.4 102 3.2 17.5 6.1 35 9.3 52.3l4.7 25.2 2.4 13.6.1.7c.5 2.4 1 4.9.4 7.3-.8 2.7-2.9 4.6-4.8 6.6-1.6 1.6-3.8 1.6-5.7.7l-.7-.3c-3.4-1.6-6-3.2-7.3-7-.7-2.5-1-5.2-1.5-7.7a3535.6 3535.6 0 0 1-7.8-43.6l-1.6-9.1c-5.2-31.4-10.2-62.9-12.8-94.5-1-14-2.3-28.1-3.5-42.2l-.9-10.5c-1.1-13.3-2.5-27-2.7-40.5l-4.5 1.6L657 964c-5.5 2-12.5 6-18.4 5.2-2.9-.3-5-1.2-6.8-2.9 2 28.8 4.8 57.4 8.5 86a1965.7 1965.7 0 0 0 22 135c.6 3.2 1.4 6.4 1.9 9.6.5 3.7-.5 5.9-2.5 9-1.7 2.4-5 3.7-7.8 2-3.6-2.3-5.5-4.3-6.5-8.4-1-3.7-1.6-7.6-2.3-11.4a1654.2 1654.2 0 0 1-11.4-65.2c-7.8-52-12.7-104.4-15.2-156.8a1388 1388 0 0 1-1.4-77.8c0-13.3.5-26.6 1.4-39.9 1-13.4 3-26.5 4.8-39.8 0-.5.7-.5.7 0 .8 14.9 2.1 29.8 2.8 44.7.6 14.3.9 28.5 1.4 42.8.6 18.7 1.5 37.5 2.7 56.2a9.6 9.6 0 0 1 8.5-3.1c4.7-1 9.7-3.4 14.1-5l16.8-5.5 26.4-8.7a679 679 0 0 1-18-80.8l-2-12.3c-4-24.2-8.5-48.5-15.8-72a229.8 229.8 0 0 0-34.8-68.2 370.2 370.2 0 0 0-52.7-55.3C557 627 539.7 614 523 600c.1.9.2 2 0 3-3.5 25.9-17 50-35.8 67.9-37.7 36-93.6 43.4-142 26.5-46.7-16.3-88-55-102.6-102.8-.3-.8.8-1 1.3-.5l2.4 3.3c0-.4.2-.9.7-1a129 129 0 0 0 46.6-29.2 100.2 100.2 0 0 0 21.3-33.3l.4-1c1.7-5 3.2-10.2 7-14.2Z" fill="#000000"/></g>

        <g id="head" transform="matrix(.99789 0 0 1 156 62)"><path id="skin" d="M398.9 192C363.7 99.6 300.3 31.9 193.3 74.4c-3-2-7-2.6-10.9-.2A277.4 277.4 0 0 0 64.1 235.4a90.6 90.6 0 0 0-31.4 11.8c-20.9 13-35 33.9-48 54.2-4 6-.4 16.1 7 17.5 3.3.6 6.5 1 9.7 1a41 41 0 0 1-3.1 8c-4.7 9.1 4.2 18.7 12.5 16.2 1 .5 1.9 1 2.9 1.2 0 5.1 2.7 12 8 13 8.3 1.8 19.5-4.6 17.5-14 2.6.4 5 .5 7.6.2.2 4.9.1 10 .8 14.5A34 34 0 0 0 91.4 388c1.2 6.6 2.7 16 9.2 19.6 7.7 21.4 20.9 45.8 42.5 55.6-2 5-1 11 4.9 14.2 39.5 22.6 87 30.2 131.7 21.8 17.8-1 35.2-5 52-13.7a243.4 243.4 0 0 0 34.3-22.4c11-8.3 22.6-16.3 31.3-27a87 87 0 0 0 16.8-39.6A344.3 344.3 0 0 0 399 203.4c-29.6-77.7 29.5 66.3 0-11.3Z" fill="#edb98a"/><path id="hair" d="M32.6 243.4c32.8-19.3 74.7-14.3 94.4 15.7a56 56 0 0 1 7.4 17.5l.3 1 .3 1.2c.8 3.8 1.4 7.4 2.2 13.5l.8 7 .3 1.8a98 98 0 0 0 2.6 14.3l.2.8 1.3 4.4-4.9 1.8c-9.3 3.4-11.3 3.7-16.7 1-4.3-2.3-6.5-5.3-9.4-11.3l-.4-.9-1-2-.5-1c-1.9-3.8-3.4-7.9-5.6-9.4-3-2-12.2-2.8-18.6-2h-.4l-.3.1-.4.1a50.4 50.4 0 0 0-27.3 20.6 49.6 49.6 0 0 0-8.6 26.6v.6l-.2 5-10.5-.2.1-2-.1.4c-3.3 7-11.7 11.6-18.6 7l-.3-.2-.2-.2c-5.9-4.3-6.6-13-1.8-18.4l.2-.2.3-.2H17a10 10 0 0 0-5.1 2.9l-.5.4-1 1.1-1 1.1-.5.5a22 22 0 0 1-1.8 1.6l-1 .5c-1 .4-2 .6-3.3.3a5 5 0 0 1-3.4-2.8c-.3-.5-.4-1-.5-1.4l-.2-1.6v-3.5l.2-2.3c.4-7.6 2.4-15.2 5.9-22.3l.3-.7.2-.2-.4.5c-2.3 3-4.6 5.2-7.5 6.6l-.3.2-.4.2c-4 1.7-8 1-10.3-2.2a11.4 11.4 0 0 1-1.8-8.2c.7-6 3-11.4 7.6-19.3l.7-1.1 2.5-4.3a107.4 107.4 0 0 1 37-38.4Z" fill="#241c11"/><path d="M228.8 56.3a145 145 0 0 1 53.5 7.2A185.4 185.4 0 0 1 401.9 181c11.5 33.6 13.3 69.6 16.5 104.7 1.6 17.8 4.3 35.2 7.2 52.8l.4 2.8c2.7 17.1 4.3 34.4.5 51.5-6.3 28.5-25.2 52.6-47.6 70.4-46 36.6-117.8 59-171.4 25.3-8.3-5.2-.5-18.6 7.6-13.1a83.2 83.2 0 0 0 18.2 9.4c27.1 9.7 56.8 6.3 83.6-2.7a180 180 0 0 0 71-43.9c20.5-21 31.8-46.9 30.2-76.4-1-17.5-5-34.8-7.2-52.2-2-15.4-3.2-31-4.5-46.4l-.5-5.6c-2.9-31.5-7-64-21.4-92.6-12-24-29.7-45.5-51-62a170.4 170.4 0 0 0-76.7-34c-32.8-5.4-64.2 4.3-91.6 22.3a216.8 216.8 0 0 0-61.1 61.5A254.6 254.6 0 0 0 84 189.9c-5.4 12.1-9 24.8-13.4 37.3a68.1 68.1 0 0 1 58.4 27.7c13.7 18.8 10 41.9 15.3 63.3.4 1.7-.3 3.3-1.7 4.2-8 5.2-19 5.4-26.7-.5a20.4 20.4 0 0 1-7.3-22.4c.4-1 2-.9 2 .3.5 13.7 13.2 24.3 25.7 17.7-5.4-18.4-2.5-39-13.5-55.7-19.4-29.5-59.5-30.7-87.7-14-14.9 8.7-26.6 21.8-35.4 36.5l-2.5 4.3a50 50 0 0 0-7.6 18.5c-.4 3.6 1 7 5.1 5.2 3.4-1.5 6-5 8-8 3.4-5 11.3-.6 8.4 4.8v.2A54.1 54.1 0 0 0 4 332.9l-.2 2.3c0 1.7 0 4 .3 4.1.4.1 3.4-3.3 3.8-3.8 2.4-2.2 4.9-4.1 8.2-4.7 4.3-.8 8.7 4.6 5 8.1l-.2.2c-3.4 2.9-3.2 8.7.5 11.5 5.3 3.8 11.7-2.5 12.5-7.7v-.2c.7-5.6 8.5-5.8 9 0 .9 12.7-14.2 23.2-25.6 16.9a17.2 17.2 0 0 1-8.3-12c-1.5.7-3 1.2-4.7 1.3-5.3.5-9.1-3.3-10-8.3-1-6-.4-12.2 1.1-18.3-2.9.7-6 .4-9-1.4-9.3-5.4-6.7-17.3-3.1-25.4 15-34.4 46-65.7 84.6-68.2.2-6 1-11.8 2.4-17.9A207.8 207.8 0 0 1 181.8 69a134.3 134.3 0 0 1 47-12.7ZM83 294h.5c6-1.4 21.8-3 20 7.2-.2.5-.9.4-1 0-1.9-6.4-14.5-1.3-18.2.3a53.4 53.4 0 0 0-14.3 8.8c-9.2 8-15.3 19-16.2 31.2-1 12 2.6 25 11.2 33.7 4.3 4.2 9.7 7.1 15.8 7.3 5.5.2 11.5-4 16.6-1.5 1 .5 1.8 1.8 1.7 3a7.4 7.4 0 0 1-2.5 5c8.4 15.3 15.3 31.7 26.1 45.7 5.4 7 11.6 13.5 18.5 19 3.3 2.7 7 5 10.6 7 4.4 2.4 8.1 4 11.2 8 2.6 3.4 0 10-4.3 10.7-10.3 1.4-20.3-7-27.8-13.1a100 100 0 0 1-19.4-22 132.5 132.5 0 0 1-20.1-52.6 33 33 0 0 1-30-5.8c-21.2-16.4-23.6-50-8.6-71.3A52 52 0 0 1 83 294Zm.1 39.1c5-.4 9.8.4 14.5 2l1.9.7c4 1.5 8.3 3.2 11.2 6.3 4.5 4.6 0 12.6-6.3 10.8-7-2-12.7-7.9-19.7-10.3a21 21 0 0 0-18.9 1.9c-.7.5-1.7-.5-1.2-1.2 4.2-6.5 11-9.5 18.5-10.2Z" fill="#000"/></g>

        <g id="face" transform="translate(315 248)"><path d="M166.9438,221.352 C168.4778,218.685 172.0098,216.214 175.2418,216.593 C189.7208,218.291 189.6958,235.845 184.1048,246.093 C179.1478,255.18 168.8888,260.514 158.6208,259.735 C147.8338,258.916 138.6428,252.574 134.5978,242.483 C131.9228,235.808 130.6868,223.485 137.8028,219 C137.9348,218.916 138.1528,218.937 138.2578,219.058 C141.6698,223.027 141.8038,228.986 144.7908,233.405 C147.5688,237.515 151.8848,240.909 156.9408,241.433 C160.7168,241.825 164.5368,240.463 166.0138,237.073 C166.812891,235.239364 166.721899,234.243744 166.421516,232.981708 L166.148563,231.885055 C165.202801,228.043565 164.778057,225.118714 166.9438,221.352 Z M170.814304,144.367155 C178.365682,148.9572 189.871664,159.660291 181.748119,171.039573 C172.185929,181.073062 158.418535,169.568982 151.634201,164.366134 C145.343449,160.333898 138.275437,170.704507 144.112,175.412823 C193.135736,211.708059 213.030606,145.567387 174.633685,138.970386 C170.406047,138.243425 168.835891,142.947174 170.814304,144.367155 Z M91.0715,112.8926 C95.7065,105.9386 106.2865,106.9626 108.8395,115.2146 C110.2225,119.6846 108.3125,123.7026 108.4115,128.1666 C108.4945,131.9376 108.2475,136.1396 107.0915,139.7916 C104.4555,148.1196 96.9655,154.0016 88.1045,153.7576 C79.2725,153.5146 71.4935,147.9246 67.7945,140.0516 C64.0825,132.1486 64.8685,123.9696 67.5785,115.9336 C67.7085,115.5476 68.2145,115.3606 68.5195,115.6856 C71.7228333,119.089767 74.0678333,122.683517 76.4943148,126.495785 L78.9809333,130.40279 C80.8812656,133.344819 83.6431037,137.103142 87.1914615,136.867072 L87.7238987,136.814547 C88.7099852,136.729908 88.5588846,136.9256 89.3195,135.5816 C89.6715,134.9596 89.6075,133.8036 89.7775,133.0696 L89.8365,132.8216 L89.8365,132.8216 L89.8043384,132.68798 C89.7292832,132.332503 89.6547866,131.66266 89.5942529,130.500284 L89.5815,130.2436 C89.3245,124.8066 87.7875,117.8196 91.0715,112.8926 Z M208.5632,117.5221 C207.7322,108.6281 220.2362,106.6531 224.3932,113.2341 C226.561303,116.665997 227.192546,120.977055 227.67203,125.0615 L227.8962,127.0001 C228.3882,131.1951 228.5832,135.5591 226.7622,139.4721 C223.8942,145.6351 217.6572,148.8931 210.9292,148.3771 C204.5042,147.8831 198.6422,144.1581 195.5522,138.5031 C192.7972,133.4571 190.0582,123.6051 193.4042,118.3421 C193.6062,118.0231 194.0102,117.9821 194.2872,118.2281 C197.4492,121.0351 197.9642,126.1551 199.8442,129.8121 C201.7832,133.5841 204.7242,137.2601 209.1812,137.8331 C213.4452,138.3811 215.0742,136.0521 213.9862,131.9871 C212.5832,126.7391 209.0912,123.1691 208.5632,117.5221 Z M94.4489,60.0159 L96.4937284,59.2327124 C103.499922,56.5860716 113.118768,53.5268605 118.8149,59.2239 C122.3289,62.7369 122.9979,67.9119 120.4899,72.1989 C117.4509,77.3919 111.9999,77.5199 106.7359,78.2849 C100.7489,79.1549 94.6599,80.8089 89.0859,83.1669 C82.8069,85.8239 76.9799,89.1359 71.2709,92.8349 C65.8449,96.3499 60.4379,102.0949 53.9429,103.1779 C53.6779,103.2219 53.3769,103.1079 53.3079,102.8169 C51.8329,96.4669 55.9319,90.2179 59.5899,85.2639 C64.0159,79.2659 69.3789,74.3429 75.3729,69.9289 C81.1579,65.6679 87.7679,62.5889 94.4489,60.0159 Z M221.7162,82.5925 L222.340762,82.4830541 C226.589355,81.7757704 230.439386,81.9386395 233.6412,85.3035 C236.0852,87.8705 237.0272,91.1975 235.8622,94.5915 C234.7872,97.7225 232.3832,100.9035 228.8942,101.5595 C217.1152,103.7755 204.0682,103.4095 192.2302,101.7315 C186.814067,100.963367 181.349151,100.023624 176.073673,98.5415284 L173.646557,97.8379125 C169.242357,96.5798884 164.200291,95.2655909 161.0012,92.0265 C159.8512,90.8625 160.5142,89.1965 161.8902,88.6575 C167.4722,86.4715 175.1232,87.6345 181.0752,87.4635 C187.9992,87.2655 194.9342,86.7465 201.8252,86.0315 C208.5592,85.3315 215.0752,83.8105 221.7162,82.5925 Z" id="ðŸ–-Ink" fill="#000000"/></g>

        <g id="facial-hair" transform="translate(279 400)"><path d="M248.1317,111.7235 C244.6417,110.5815 241.2137,109.2525 237.7697,107.9715 C220.1607,99.1265 198.8897,97.5225 180.4227,104.9715 C171.3587,108.6275 162.9067,115.1965 153.8117,119.5015 C151.6517,120.3075 149.4737,121.0395 147.2717,121.6535 C145.9217,121.1835 144.5717,120.6835 143.2317,120.1835 C133.5847,116.5475 124.5107,112.0625 115.7007,107.1285 C114.7607,105.8055 113.7857,104.5195 112.7377,103.2845 C119.1127,102.3795 125.3547,100.8755 131.0017,99.3235 C148.3417,94.5735 164.6817,86.8335 181.9617,81.8735 C198.0517,77.2435 215.5117,74.7135 231.6717,80.4635 C239.3417,83.1935 246.0917,87.9735 253.5517,91.1935 C257.4117,92.8535 262.0417,94.4835 266.5517,94.7235 C263.6417,101.6935 259.9617,108.2035 254.9317,113.6235 C252.6317,113.1335 250.3517,112.4435 248.1317,111.7235 Z M285.6527,57.1315 C284.1087,58.4145 277.7367,62.5545 275.6697,65.0225 C275.1357,64.8195 274.6047,64.6115 274.0767,64.3975 C273.1677,63.2815 271.8287,62.7915 270.4637,62.8215 C260.9347,58.3895 252.4517,52.1265 244.8817,44.2735 C239.5017,38.7035 233.9917,32.8735 226.8017,29.6435 C218.3317,25.8235 210.0017,27.5835 201.1017,28.1635 C191.6317,28.7935 182.2817,26.1035 172.8217,27.3935 C165.9017,28.3435 159.4217,31.2735 153.8217,35.4035 C142.3917,43.8335 134.5117,55.6735 124.8517,65.8835 C113.8917,77.4635 100.4117,84.8635 85.4217,88.6435 C85.2417,88.5235 85.0517,88.4035 84.8617,88.2935 C73.8117,78.2935 63.8317,67.0035 55.0017,54.9735 C46.3817,43.2235 23.6517,-9.6665 18.1617,-14.3065 C15.8817,-16.2365 13.3817,-17.0665 10.9917,-16.9965 C6.6617,-16.8965 2.6617,-13.8865 0.8717,-9.1465 C-2.1683,-1.0865 -0.6483,9.3335 -0.4083,17.7635 C-0.1083,28.0835 0.5717,38.3935 1.6517,48.6635 C2.7217,58.8135 4.1417,68.9335 5.9117,78.9835 C6.8017,84.0635 7.7917,89.1335 8.8817,94.1835 C9.2217,95.7735 9.6517,97.1935 10.1717,98.5135 C10.7017,101.0035 11.2717,103.4835 11.8817,105.9435 C15.8617,122.0535 22.1417,138.1835 34.1317,150.0735 C46.6117,162.4635 63.5717,170.6935 79.3217,178.0535 C94.3217,185.0635 110.0417,191.2935 126.1717,196.1735 C140.1817,202.5235 155.1817,207.5435 170.2417,210.1835 C186.8217,213.0935 204.2517,213.2735 220.2617,207.5135 C228.1317,204.6835 235.5717,200.7335 242.3217,195.8135 C251.8917,190.8435 260.5017,184.0135 267.5517,174.9735 C280.178808,158.772201 286.205845,139.111428 288.843079,118.838022 C289.518075,113.64907 292.055805,93.7618006 292.255358,90.6655083 C292.899805,80.6661617 293.544253,70.6671223 294.1887,60.6675 C294.4927,55.9485 288.7007,54.6015 285.6527,57.1315 Z" id="ðŸ–-Ink" fill="#000000"/></g>

        <g id="eyewear" transform="translate(203 303)"><path id="accessories" d="M370.267229,94.0812186 C361.087518,105.550169 325.150885,118.280642 306.024457,104.460924 C286.89803,90.6412047 279.339478,81.010236 276.782894,63.7418278 C276.51029,61.9005247 273.181038,60.6757933 271.773574,61.9830996 C263.892542,69.3032997 258.790943,78.6267129 253.736631,87.9739798 C248.036181,98.5161913 242.421537,109.123108 232.062291,116.259689 C213.713905,126.095013 180.520036,127.495741 170.713277,123.157318 C151.927276,114.846558 137.066708,97.0725316 133.687387,72.6128057 C131.395829,65.3796109 129.246349,61.0020129 127.238947,59.4800116 C124.384546,57.3158209 108.631937,55.3878277 106.906249,55.0676312 C75.8071363,49.2972786 36.4749058,45.6190335 8.77600719,65.9200219 C5.02749548,68.1858834 -7.80539205,76.6985178 -7.99790561,74.60536 C-8.12928599,66.4063563 1.16220359,47.8487707 22.2939084,39.0185659 C48.4257396,28.098982 87.2707875,27.4603638 109.774665,29.8701917 C110.906452,29.9913891 114.764588,29.0433611 115.037186,28.9253388 C149.130646,14.1644408 188.359486,18.0847288 224.839489,24.2887991 C230.066858,25.3031978 276.863504,36.8905006 295.477887,29.8701917 C326.25407,17.3061158 359.067147,8.2038606 392.30185,11.7849229 C392.579752,11.8148671 396.775316,37.2812197 393.50699,39.0185659 C390.906064,40.4011413 386.480238,43.9439017 384.907987,45.8827637 C383.502453,47.6160336 382.61672,49.7708648 382.69528,52.7561081 C383.327324,70.0252897 378.399915,83.920401 370.267229,94.0812186 Z M243.72836,78.6720803 C247.630761,73.0270335 248.862219,60.3460528 247.228404,51.0948644 C246.401153,46.4106974 244.794863,42.6821957 242.779067,40.8261969 C241.439156,39.5925037 239.910346,39.0117383 238.243089,39.0979354 C237.328973,39.1451951 236.338477,39.4051824 235.290511,39.9705735 C221.097217,32.2929564 203.902812,29.5286089 187.604096,30.323616 C174.629301,30.3211866 165.372072,33.3837093 159.0944,38.1509351 C151.540713,43.8871592 148.137536,52.1332968 147.940635,61.0762046 C147.706992,71.6878578 152.06617,83.2970102 159.216953,92.4828862 C166.061287,101.275098 175.424043,107.793236 185.581316,109.297105 C197.111926,111.586016 208.862264,109.37159 219.07862,103.95477 C229.556845,98.3991036 238.407944,89.4765185 243.72836,78.6720803 Z M357.507438,84.6585403 C364.084035,76.8869454 368.457047,66.7766474 369.122697,56.7593194 C369.728486,47.6428312 367.287306,38.6124814 360.537606,31.1497224 C354.418516,25.8975011 343.605727,25.8104772 332.231167,28.7352865 C317.523167,32.5172431 302.307464,40.969058 297.23517,46.4275624 C296.040378,47.0540173 294.931407,48.1449237 293.965307,50.4849258 L293.958397,51.3191347 C292.421839,58.4056844 293.333557,65.5970212 295.991544,72.2310611 C298.878802,79.4373326 303.830659,85.9791775 309.868491,90.9705601 C317.890232,97.5784779 326.26399,99.6013328 334.1016,98.5342588 C342.979407,97.325564 351.234778,92.0709712 357.507438,84.6585403 Z" fill="#8fa7df"/><path d="M294.4196,27.0634 C325.5846,14.3394 358.8976,5.1684 392.6236,8.8024 C395.4126,7.7414 398.8746,8.6354 400.1106,12.5794 C412.1236,49.1744 385.3346,38.9974 385.6946,52.6774 C388.5026,129.3804 285.4076,142.4794 273.8156,64.1814 L273.6026,64.3074 L273.6026,64.3074 C256.9246,79.8704 253.4116,105.1954 233.7646,118.7304 C194.1316,147.7154 137.9496,124.7504 130.7336,73.1504 L130.576211,72.452332 C128.153961,61.9216159 125.257898,59.3105277 113.3116,59.3624 L111.424306,58.9874342 C80.385228,52.872048 39.05216,47.3766 10.4636,68.4074 C4.2456,72.0234 3.9536,81.3194 -1.3004,85.3584 C-7.0564,86.4764 -10.6024,79.5534 -10.9924,74.7624 C-11.9044,26.9994 73.5656,23.5634 111.8436,27.6624 C112.5746,26.9054 114.1356,26.9994 114.6616,27.9424 C149.2796,12.9544 188.2806,15.0284 225.3466,21.3314 C248.3076,25.7764 270.9856,35.9014 294.4196,27.0634 Z M389.5206,17.6204 C370.8196,16.6854 353.5216,17.7084 335.1656,22.2034 C325.4916,24.5374 318.0676,27.4884 308.8076,31.0374 C251.0496,56.6264 244.3876,11.1414 114.9196,28.9714 C116.5946,36.1454 116.9026,43.2484 116.9926,49.9884 C143.42758,48.92316 137.203668,74.1647841 147.107497,91.894471 L147.4126,92.4294 C161.8466,118.2974 195.9066,130.3634 223.3816,113.2054 C246.3036,99.8454 248.5396,65.9604 271.3616,52.5124 C291.1446,51.7344 283.2426,78.4344 294.0086,89.4084 C309.1626,109.6294 341.3736,112.4564 360.3756,93.4364 C369.2906,84.2844 374.0286,72.6644 374.2906,60.1804 C374.7876,52.2044 373.4196,44.0994 379.4496,38.4894 C383.6766,34.1954 391.1866,35.6284 392.0486,29.1374 C392.5966,25.2994 391.0006,21.1364 389.5206,17.6204 Z M186.28,28.0747 C204.857,27.1597 224.513,30.3857 240.464,39.4967 C252.271,30.1007 255.164,67.4427 247.327,78.2437 C236.036,101.3457 209.749,116.5347 184.438,111.4907 C144.952,105.7687 117.44,28.0057 186.28,28.0747 Z M239.33,42.0007 L238.319634,41.8530365 C221.207242,39.24197 174.61224,27.14534 156.641,46.2377 C139.2,77.9067 183.447,131.1007 229.492,88.7307 C242.307,75.6837 247.274,59.8627 239.33,42.0007 Z M293.5595,46.0482 C302.4215,35.5552 347.5865,14.3012 363.3295,27.9402 C392.0625,60.1412 346.4955,125.2742 308.3295,93.5412 C295.6175,82.9342 287.2545,66.0342 290.9145,49.6692 L290.92013,48.9832 C290.928056,48.7345333 290.9745,48.7912 291.2405,48.4812 C291.7115,47.2442 292.5595,46.4542 293.5595,46.0482 Z M362.9285,65.5652 C372.6185,13.0082 332.1195,32.9882 298.8595,47.0162 C300.6445,48.6472 300.6365,50.8742 300.1235,52.7042 C296.6155,91.7002 344.0125,113.7982 362.9285,65.5652 Z M111.1716,30.2164 C97.2986,34.9144 5.5376,26.5124 -2.9394,69.5264 C6.0086,55.0294 24.5406,49.2764 41.2006,46.1544 C63.8616,41.9074 86.3986,44.3664 108.7416,48.8354 L109.203057,44.2113617 C109.698597,39.3065938 110.221071,34.7182235 111.1716,30.2164 Z" id="ðŸ–-Ink" fill="#000000"/></g>
    </g>
</svg>