<svg xmlns="http://www.w3.org/2000/svg" viewBox="0 0 704 704" fill="none" width="512" height="512">
    <desc>"Open Peeps" by "Pablo Stanley", licensed under "CC0 1.0". / Remix of the original.</desc>
    <mask id="viewbox"><rect width="704" height="704" rx="0" ry="0" x="0" y="0" fill="#ffffff" /></mask>
    <g mask="url(#viewbox)">
        <rect id="background" fill="#c0aede" width="704" height="704" x="0" y="0" />

        <g id="body"><path id="skin" d="M705.3 1074a2351.1 2351.1 0 0 1-15.6-101c-1-7.7-2.5-16.4 2.7-22 7.3-8 14-14.8 14.8-26.2.8-10.7-2.8-22.4-5-32.8a809.4 809.4 0 0 0-17.3-64.7c-6.6-21.7-13.9-43.2-21.3-64.6-6.9-20-13.5-40.3-22.5-59.5-17-36.5-46-63.5-81.6-81.6-9-4.5-27-20.5-36.3-24-8.5-3.4-8.5 6.3-16.9 2.6-6.7-2.9-13-6.7-16.7-13.2-4-7-14.3-16.9-15.9-25-3.3-17.4.3-32.2-12-45.3a90 90 0 0 0-41.1-23.8c-33.7-9.3-78.5-2.8-98.8 28.5-9.7 14.9-13 33-26.2 45.1-11.4 10.7-8.8 18-23.6 23.4-.9.3-23.6-4.5-24.4-4.2-16.2-3.5-31.7 6.2-46.5 11.8a325.4 325.4 0 0 0-63 32.3 399.2 399.2 0 0 0-102.3 98.5 482.5 482.5 0 0 0-76.4 161c-1.7 6.4-3.5 13-1.5 19.4 1.7 5.3 5.4 9.2 9.8 12.4 6 4.3 18 7 17.7 15.7-.1 6.6-2.4 13.5-3.5 20-1.3 7.7-2.3 15.5-3.4 23.2-4.8 35.4-8.6 71-10.3 106.6a920 920 0 0 0-.5 106c.1 2.3.8 4.5 2 6.2-1 .4-1.2 2.4.1 2.7l2.7.5a12 12 0 0 0 7 2.4l5.5.2c19.3 4 38.6 7.9 58.1 10.8 23.8 3.5 47.6 6.3 71.5 8.7 49.2 4.8 98 3.2 147.1.6a1877 1877 0 0 1 147.4-2c49.2 1.4 98.4 3.5 147.6 4.4 55 1 110-.5 164.8-5 7.5-.5 12.2-6.5 10.7-14-8.9-44.7-19-89.1-27-134Z" fill="#d08b5b"/><path id="shirt" d="m201 597.5 1.2-.4c14.5-5.7 29.6-14.8 45.4-11.4.5-.2 10.8 1.9 17.9 3.2l-6.7 7L247 598c40.7 67.1 88.8 100.7 144.3 100.7 55.5 0 97.7-33.6 126.4-100.7l4-1c.4 0 1 .2 1.5.4 9.3 3.6 27.4 19.6 36.3 24.1 35.6 18 64.5 45 81.6 81.6 8.7 18.6 15.2 38 21.8 57.5l.7 2c7.4 21.4 14.7 43 21.3 64.6 6.3 20.4 12 41 16.6 61.8l.7 2.9c2.2 10.4 5.8 22 5 32.8a29 29 0 0 1-3 10.7l-80.4 29 38.4 261.3c-35.1 1.5-70.3 2-105.5 1.3-49.2-.9-98.4-3-147.6-4.3-47.7-1.2-95.3-.7-143 1.7l-12 .6a946.3 946.3 0 0 1-139.5-1l-3.1-.3v-38.3l16.3-212.9-83-15.6-81.3-39.5a21.7 21.7 0 0 1-5.6-8.8c-1.9-6-.5-12 1-18l.5-1.3a492.8 492.8 0 0 1 76.4-161A399.3 399.3 0 0 1 138 629.7c19.8-13 40.9-23.9 63-32.3Z" fill="#9ddadb"/><path d="M232.2 584.6c5.1-.3 10.3.6 15.4 1 .4.1.6.8 0 .9-9 1.9-18 4.5-26.9 7.1l-3.8 1.2c-10 3-19.8 6-29.6 10-19.4 7.9-37.8 18.5-54.8 30.8C67.2 682.8 20 754.3-9.9 828.3a526 526 0 0 0-24.3 77c-.4 1.6-2 5.4-1 7 .7 1.3 3.6 2.1 5 2.9l4.5 2.3 25.2 12.9 2.3 1.1c38 18.6 78.4 34.4 121 35.5l.4-3.7a342 342 0 0 1 9.9-60c.3-1 1.6-.6 1.7.3 3 23.1 2 46.4 1 69.7-1.8 41-4.3 82.2-6.5 123.3-1.2 20.6-2.6 41-3.9 61.7-1.3 20.5-1.7 41.6-4.7 62-.6 4.6-6 7-10 6.6-4.4-.5-7.9-4.5-8-9 0-11.9 1.5-24 2.4-35.8l2.5-33.8c3.1-41.1 6.8-82.2 10.2-123.3a4771 4771 0 0 1 3.8-43.7C76.4 979.8 34.2 963-6.1 943.5c-.6 13.2-2 26.5-3.4 39.6-3.8 36.8-7.1 73.6-9.6 110.5a2254.2 2254.2 0 0 0-4.2 92.7l-.2 7c0 4.4-.5 8.5-4.3 11.7-3.7 3.3-8.9 3.5-12.6 0-5-4.6-4.2-10.9-4-17.1a1675.6 1675.6 0 0 1 1.8-47.2 1321 1321 0 0 1 10.5-109.5l2-14c3.5-26 7.5-52.7 15.5-77.9-3.1-1.5-6.2-3-9.3-4.7-5.5-2.7-11.2-5.4-16.6-8.4-4.2-2.5-7.9-5.8-9-10.8-1.4-5.5.6-11.5 2-16.9v-.4a502 502 0 0 1 26.6-80 523.2 523.2 0 0 1 67.8-117 353.8 353.8 0 0 1 88.7-83.3 239 239 0 0 1 53.8-25.7 142.6 142.6 0 0 1 42.8-7.5Zm90.1-66c6-6.5 18.1.2 15.2 8.8a108.2 108.2 0 0 1-34.7 52A79.4 79.4 0 0 1 247 598l1.7 2.4a321.1 321.1 0 0 0 46.1 52.6c36 31.2 84.8 48 132 36 37.1-9.4 69.8-38.8 79.4-76.2-1.3.6-3 .9-4.8.5-7.7-1.7-15.3-9.8-20.3-15.6-5.3-6.3-9.5-13-12.6-20.7-5.6-14-7.4-32.1.3-45.7 1-1.7 3-.7 3.3 1l.3 2.5c1.5 12.7 3.3 25 9.3 36.6a76 76 0 0 0 18.2 23.1c2.6 2 5.8 3.6 8.1 6l.5.4c.6-5 4.1-7.3 7.6-7.2 3.3.2 7.3 1.6 8.8 2.3l.1.1a341 341 0 0 1 65.1 42 259 259 0 0 1 88.4 129c7.5 25.3 11.8 51.4 16.3 77.4l2.8 16c4.2 23.9 8.9 48.4 18.4 70.7 2.5 5.7.6 11.1-5.5 13.4A1493 1493 0 0 1 688 953c3.7 16 6 32.5 8.7 48.5 6 34.1 13.2 68 19.4 102 3.2 17.5 6.1 35 9.3 52.3l4.7 25.2 2.4 13.6.1.7c.5 2.4 1 4.9.4 7.3-.8 2.7-2.9 4.6-4.8 6.6-1.6 1.6-3.8 1.6-5.7.7l-.7-.3c-3.4-1.6-6-3.2-7.3-7-.7-2.5-1-5.2-1.5-7.7a3535.6 3535.6 0 0 1-7.8-43.6l-1.6-9.1c-5.2-31.4-10.2-62.9-12.8-94.5-1-14-2.3-28.1-3.5-42.2l-.9-10.5c-1.1-13.3-2.5-27-2.7-40.5l-4.5 1.6L657 964c-5.5 2-12.5 6-18.4 5.2-2.9-.3-5-1.2-6.8-2.9 2 28.8 4.8 57.4 8.5 86a1965.7 1965.7 0 0 0 22 135c.6 3.2 1.4 6.4 1.9 9.6.5 3.7-.5 5.9-2.5 9-1.7 2.4-5 3.7-7.8 2-3.6-2.3-5.5-4.3-6.5-8.4-1-3.7-1.6-7.6-2.3-11.4a1654.2 1654.2 0 0 1-11.4-65.2c-7.8-52-12.7-104.4-15.2-156.8a1388 1388 0 0 1-1.4-77.8c0-13.3.5-26.6 1.4-39.9 1-13.4 3-26.5 4.8-39.8 0-.5.7-.5.7 0 .8 14.9 2.1 29.8 2.8 44.7.6 14.3.9 28.5 1.4 42.8.6 18.7 1.5 37.5 2.7 56.2a9.6 9.6 0 0 1 8.5-3.1c4.7-1 9.7-3.4 14.1-5l16.8-5.5 26.4-8.7a679 679 0 0 1-18-80.8l-2-12.3c-4-24.2-8.5-48.5-15.8-72a229.8 229.8 0 0 0-34.8-68.2 370.2 370.2 0 0 0-52.7-55.3C557 627 539.7 614 523 600c.1.9.2 2 0 3-3.5 25.9-17 50-35.8 67.9-37.7 36-93.6 43.4-142 26.5-46.7-16.3-88-55-102.6-102.8-.3-.8.8-1 1.3-.5l2.4 3.3c0-.4.2-.9.7-1a129 129 0 0 0 46.6-29.2 100.2 100.2 0 0 0 21.3-33.3l.4-1c1.7-5 3.2-10.2 7-14.2Z" fill="#000000"/></g>

        <g id="head" transform="matrix(.99789 0 0 1 156 62)"><path id="skin" d="M242.041161,75.2596156 C298.821805,75.2596156 372.115238,110.877442 378.365264,147.356837 C385.730757,190.346849 425.171562,355.304424 416.265335,408.203572 C407.359108,461.10272 359.365264,499.183765 282.566771,499.183765 C205.768277,499.183765 148.446655,457.302629 135.285147,442.922462 C126.510808,433.335685 113.993271,411.428601 97.7325351,377.201211 C70.3194918,373.555491 56.5470645,360.55971 56.4152532,338.213866 C56.2871511,315.868022 65.1995229,300.630067 83.1523686,292.5 C76.7512999,204.313833 81.6113554,148.741029 97.7325351,125.781589 C121.914305,91.3424282 185.260516,75.2596156 242.041161,75.2596156 Z" fill="#d08b5b"/><path d="M374.8904,141.4707 C374.8494,140.7017 375.9694,140.6117 376.1794,141.2917 C388.4294,181.7617 395.9804,213.3007 403.9294,254.7917 L406.276866,266.997009 C412.550326,299.550095 418.8884,332.150589 424.2404,364.8617 L424.554568,366.814687 C427.23555,383.747064 428.781141,400.844293 425.4204,417.8117 C422.2804,433.6717 413.7004,448.2117 402.5604,459.7917 C381.0304,482.1727 351.1094,496.1517 321.0104,502.4017 C305.7904,505.5617 290.0904,506.7817 274.5804,505.6817 C266.8494,505.1407 259.1304,504.0507 251.5604,502.4417 L250.724678,502.263016 C243.094277,500.615682 236.322032,498.650612 232.2694,491.4707 C231.2504,489.6617 231.6604,486.5617 233.8004,485.6317 C237.8404,483.8907 240.8104,483.1617 245.2194,483.6617 C249.4294,484.1407 253.5404,485.4117 257.7004,486.2017 C265.6504,487.7117 273.7304,488.4707 281.8204,488.6517 C297.7104,489.0017 313.6404,487.0117 328.8304,482.2717 C354.9294,474.1217 381.4504,458.5317 396.7004,435.2117 C414.6392,407.7788 407.496261,374.484902 402.742688,344.188836 L402.5994,343.2717 C397.7869,312.30545 393.028759,281.3392 388.410058,250.352852 L386.4394,237.0717 C381.2604,201.9817 376.3704,176.9317 374.8904,141.4707 Z M109.9002,55.5816 C122.926662,46.9957538 139.113587,44.8859503 154.413673,45.0044304 L156.329603,45.0285863 C175.920941,45.3271956 274.537721,47.674017 307.55555,48.3961621 L315.4102,48.5616 C325.806354,48.7577538 346.77388,48.9625649 357.576625,49.1599951 L358.2002,49.1716 C363.5002,49.2716 368.8002,49.3116 374.1002,49.4816 L374.877076,49.5095821 C378.847271,49.6790784 382.150806,50.2731455 385.2602,53.0716 C386.84145,54.4899333 387.458377,56.6530913 387.313413,58.713503 L387.2902,58.9816 L395.1602,59.6716 C400.50401,60.143981 403.329704,64.9368668 401.206794,69.7868945 L401.1002,70.0216 C397.3302,78.0616 394.4502,101.4616 392.4302,110.1116 C391.3702,114.6616 390.5192,119.2816 390.0192,123.9316 C389.6202,127.5926 389.5802,131.2616 387.5402,134.4816 C383.1892,141.3516 370.9502,141.2916 370.7302,131.5616 C370.7202,131.2516 370.7302,130.9516 370.7602,130.6616 C339.9602,129.3116 297.9102,129.4416 267.1502,131.2816 C238.4202,133.0016 209.8202,136.9016 181.6702,142.8716 C174.5402,144.3816 167.4302,146.0316 160.3702,147.8216 C154.5802,149.2816 147.4702,150.1516 142.2902,153.2816 C136.4902,156.8016 136.6002,163.1116 137.2302,169.1216 C137.9064,175.4916 139.033988,172.20958 140.631788,178.014673 L140.7302,178.3816 C142.3802,184.6816 144.4202,190.9116 147.1202,196.8316 C148.6602,200.2116 151.1412,203.4616 150.2002,207.3516 C149.6702,209.5416 147.9392,211.8816 146.3502,213.4116 C139.1092,220.3616 126.8702,215.9316 121.9502,225.4516 C116.801162,235.406408 116.673284,248.891419 116.236302,259.906545 L116.2102,260.5516 C115.8912,268.1416 115.9802,275.7516 116.4802,283.3216 C116.9302,290.2206 118.7692,297.0516 116.4102,303.6816 C114.6892,308.5016 109.0702,308.9516 106.1302,305.0316 C105.7927,304.5816 105.483325,304.12035 105.193638,303.656287 L104.9102,303.1916 L104.8912,303.2016 C105.1702,303.6416 105.4302,304.0926 105.6802,304.5516 C105.9502,305.0616 105.2802,305.6216 104.8702,305.1816 C97.9502,297.6516 87.8402,299.1516 80.0102,304.4216 C72.0802,309.7816 68.9502,319.9616 68.5402,329.0926 C68.0802,339.2206 68.9802,351.0926 73.2002,360.4516 C74.9802,364.4116 77.5192,368.0516 81.7302,369.5616 C83.6412,370.2416 85.4602,370.1516 87.4502,370.3116 C89.5192,370.4706 92.0102,371.5116 94.0192,371.3716 C96.6311565,371.18573 98.9761116,374.167512 98.2342607,376.665804 L98.1802,376.8316 C98.1412,376.9516 98.1002,377.0716 98.0612,377.1816 C98.1602,377.2716 98.2602,377.3816 98.3302,377.5416 C105.9302,393.0716 116.3502,406.8916 127.8702,419.7116 C133.6412,426.1216 140.0402,432.0116 146.7302,437.4616 C150.0302,440.1516 153.5102,442.8426 157.1802,445.0116 C158.4002,445.7206 159.5192,446.2016 160.8912,446.5926 C161.5302,446.7716 162.2602,446.8616 162.8802,447.0716 L163.52404,447.29208 C163.5682,447.3064 163.6102,447.3196 163.6502,447.3316 C165.4902,447.5416 167.0402,448.7616 167.6502,450.6716 C169.2402,455.6516 166.3502,460.0516 161.4102,461.4216 C156.058135,462.918339 151.014222,460.290433 146.771833,457.273279 L146.4902,457.0716 C137.8402,450.8426 129.8702,443.8516 122.9702,435.6916 C109.3202,419.5816 100.7692,400.9316 96.8112,380.3016 C95.8302,382.4116 94.5102,384.2516 92.2202,385.5316 C88.6602,387.5316 84.4102,387.5316 80.5102,386.8616 C72.6602,385.5316 65.9702,380.7416 61.5002,374.2616 C56.8592,367.5416 55.1302,359.3816 54.0802,351.4316 C53.0402,343.4706 52.5302,335.4816 53.5702,327.5016 C55.0612,316.0416 59.8702,304.7116 69.2202,298.4316 C62.2202,283.1816 60.9902,266.0816 61.4902,249.3816 C62.1002,228.8216 65.6502,208.0316 68.3802,187.6616 L76.1412,129.7516 L76.1412,129.7516 L76.4587208,127.417033 C78.331566,113.793594 80.6115514,100.098086 85.7102,87.2616 C90.7402,74.6116 98.3802,63.1716 109.9002,55.5816 Z M77.2404,329.5414 C90.0604,323.3214 103.9104,329.0514 110.8104,341.1214 C116.8098,351.6154 98.9721879,358.551637 95.9959987,347.734637 L95.9104,347.4014 C93.9504,339.2114 85.9694,332.1314 77.6404,331.0314 C76.9504,330.9324 76.4394,329.9324 77.2404,329.5414 Z" id="ðŸ–-Ink" fill="#000000"/></g>

        <g id="face" transform="translate(315 248)"><path d="M93.8 224.8c8-16 81.4-8.9 81.4-8.9l6.2 51s-35.4 11.3-56.5 9c-21-2.5-39-35.1-31-51.1Z" fill="#fff"/><path d="M99 251.5c-2.5-5.5 50-20.2 66.2-10.1 16.2 10 11.1 23.9 11.1 23.9S108 280.8 99 251.5Z" fill="#FF8181"/><path d="M89.3 215.3c12.2-14.2 32.9-15.2 50-11.7 11 2.3 21.6 6.1 32.7 7.5 5.2.7 10.5.9 15.7.8 5.2-.1 10.3-1.1 15.4-1 .8 0 1.1 1.1.4 1.5-7 4.4-16.5 5.7-24.8 6.6a93 93 0 0 1 .7 5.8l1.3 9.2c.8 6 1 12.3 2.5 18.2l.3 1a9 9 0 0 1 .3 3.4l.3-.1 1.1-.5.7-.4c2.6-1.2 5-2 8-1.7 2.3.2 4.2 1.7 4.2 4.2 0 11-14.7 14.5-23.1 16.6l-2.5.6c-10.8 2.6-21.7 4.9-32.8 5.4-17.7 1-37.7-4-49.3-18.4-10.8-13.4-12.8-33.4-1.1-47Zm80.6 46c-2-16.5-22.2-17.4-28-7-2.6-14.5-40.9-1.2-37.9 1.7 11.4 11 28.6 12 43.4 10 7.5-1 15-2.8 22.5-4.7Zm-22.5-43.2-5.1-.7-2-.3c-12.7-1.7-26.9-2.6-37.3 5.5a18 18 0 0 0-6.7 11A552 552 0 0 1 126 230l2.7-.3 18.6-1.7 4.3-.5 4.4-.4c1.6-.2 12-.7 14-.4.2-1.7.4-5.5.9-7.3-7.4.3-14.8-.3-22.1-1.2l-1.3-.2Zm23.4-73.7c7.6 4.6 19 15.3 11 26.6-9.6 10-23.4-1.4-30.2-6.6-6.3-4-13.3 6.3-7.5 11 49 36.3 69-29.8 30.5-36.4-4.2-.8-5.8 4-3.8 5.4Zm13.5 19.3.4-.2h.1c.2-.2 0-.2-.4 0l-.4.1v.3l.3-.2ZM87.6 123v-.2c0-6.4 3.7-21 13-21 5.7 0 9.1 10 9.7 20.2v.4c.3 6.4-1.4 20.2-9.8 20.2S87.7 129.4 87.6 123Zm135.2-2v-.2c0-6.4-3.8-21-13-21-5.5 0-9 9.5-9.7 19.4v.8c-.4 6.1 1.2 20.6 9.8 20.6 8.4 0 12.8-13.1 12.9-19.6Zm-130-62.6c7.5-1.2 17.5 1 21 8.6 1.5 3.4-.3 7.2-4.2 7.4-9.5.4-18-1.7-26.4 4.5a42 42 0 0 0-9 10l-1 1.4-.8 1.1c-1.7 2.5-3.4 5.3-3.1 8.3 0 1-.9 1.8-1.7 1.7-5.5-.2-6-7-5.4-11.1 1.4-7.7 5-14.8 10.2-20.6 5.4-6 12.4-10 20.5-11.3ZM196 67.5a29.3 29.3 0 0 1 17.9-4c12 .9 32 11 29.3 25.6-.8 4.5-7 6.9-10.8 4.4-4-2.7-4.9-6.9-7.8-10.4a28.5 28.5 0 0 0-8.6-6.5 28.3 28.3 0 0 0-10.3-3.1h-.6c-2.2-.3-13-.2-11.4 3.8.3.8-.9 1.5-1.4.9-3.4-3.7.4-8.5 3.7-10.7Z" fill="#000"/></g>

        <g id="facial-hair" transform="translate(279 400)"><path d="M209.56,138.063869 C179.966667,142.412366 158.546667,141.513713 145.3,135.367911 C125.49,126.178077 106.22,117.286552 88.25,105.11363 C69.84,92.6423999 54.22,77.8328139 43.07,58.8757739 C32.7,41.2370661 24.08,22.5205977 15.4,3.94847219 C14.8927599,2.8631581 9.91,-7.92614068 8.15,-11.5443372 C5.44,-17.1544662 -2.48276151,-15.3934895 -2.48276151,-6.68479136 C-2.48276151,2.0239068 -2.87,67.9754124 12.35,93.9186509 C26.08,117.350322 49.35,133.722402 72.47,148.012353 C98.05,163.813094 132.03,180.893676 162.55,185.406799 C190.17,189.486893 221.69,178.026063 241.69,159.136383 C262.6,139.380645 268.52,112.541703 279.31,86.8390358 C281.72,81.0941866 273.176247,77.6294969 270.67,83.2793543 C267.523643,90.3722187 247.153643,108.633723 209.56,138.063869 Z" id="ðŸ–-Ink" fill="#000000"/></g>

        <g id="eyewear" transform="translate(203 303)"></g>
    </g>
</svg>