<svg xmlns="http://www.w3.org/2000/svg" viewBox="0 0 704 704" fill="none" width="512" height="512">
    <desc>"Open Peeps" by "Pablo Stanley", licensed under "CC0 1.0". / Remix of the original.</desc>
    <mask id="viewbox"><rect width="704" height="704" rx="0" ry="0" x="0" y="0" fill="#ffffff" /></mask>
    <g mask="url(#viewbox)">
        <rect id="background" fill="#ffd5dc" width="704" height="704" x="0" y="0" />

        <g id="body"><path id="skin" d="M705.3 1074a2351.1 2351.1 0 0 1-15.6-101c-1-7.7-2.5-16.4 2.7-22 7.3-8 14-14.8 14.8-26.2.8-10.7-2.8-22.4-5-32.8a809.4 809.4 0 0 0-17.3-64.7c-6.6-21.7-13.9-43.2-21.3-64.6-6.9-20-13.5-40.3-22.5-59.5-17-36.5-46-63.5-81.6-81.6-9-4.5-27-20.5-36.3-24-8.5-3.4-8.5 6.3-16.9 2.6-6.7-2.9-13-6.7-16.7-13.2-4-7-14.3-16.9-15.9-25-3.3-17.4.3-32.2-12-45.3a90 90 0 0 0-41.1-23.8c-33.7-9.3-78.5-2.8-98.8 28.5-9.7 14.9-13 33-26.2 45.1-11.4 10.7-8.8 18-23.6 23.4-.9.3-23.6-4.5-24.4-4.2-16.2-3.5-31.7 6.2-46.5 11.8a325.4 325.4 0 0 0-63 32.3 399.2 399.2 0 0 0-102.3 98.5 482.5 482.5 0 0 0-76.4 161c-1.7 6.4-3.5 13-1.5 19.4 1.7 5.3 5.4 9.2 9.8 12.4 6 4.3 18 7 17.7 15.7-.1 6.6-2.4 13.5-3.5 20-1.3 7.7-2.3 15.5-3.4 23.2-4.8 35.4-8.6 71-10.3 106.6a920 920 0 0 0-.5 106c.1 2.3.8 4.5 2 6.2-1 .4-1.2 2.4.1 2.7l2.7.5a12 12 0 0 0 7 2.4l5.5.2c19.3 4 38.6 7.9 58.1 10.8 23.8 3.5 47.6 6.3 71.5 8.7 49.2 4.8 98 3.2 147.1.6a1877 1877 0 0 1 147.4-2c49.2 1.4 98.4 3.5 147.6 4.4 55 1 110-.5 164.8-5 7.5-.5 12.2-6.5 10.7-14-8.9-44.7-19-89.1-27-134Z" fill="#d08b5b"/><path id="shirt" d="m201 597.5 1.2-.4c14.5-5.7 29.6-14.8 45.4-11.4.5-.2 10.8 1.9 17.9 3.2l-6.7 7L247 598c40.7 67.1 88.8 100.7 144.3 100.7 55.5 0 97.7-33.6 126.4-100.7l4-1c.4 0 1 .2 1.5.4 9.3 3.6 27.4 19.6 36.3 24.1 35.6 18 64.5 45 81.6 81.6 8.7 18.6 15.2 38 21.8 57.5l.7 2c7.4 21.4 14.7 43 21.3 64.6 6.3 20.4 12 41 16.6 61.8l.7 2.9c2.2 10.4 5.8 22 5 32.8a29 29 0 0 1-3 10.7l-80.4 29 38.4 261.3c-35.1 1.5-70.3 2-105.5 1.3-49.2-.9-98.4-3-147.6-4.3-47.7-1.2-95.3-.7-143 1.7l-12 .6a946.3 946.3 0 0 1-139.5-1l-3.1-.3v-38.3l16.3-212.9-83-15.6-81.3-39.5a21.7 21.7 0 0 1-5.6-8.8c-1.9-6-.5-12 1-18l.5-1.3a492.8 492.8 0 0 1 76.4-161A399.3 399.3 0 0 1 138 629.7c19.8-13 40.9-23.9 63-32.3Z" fill="#78e185"/><path d="M232.2 584.6c5.1-.3 10.3.6 15.4 1 .4.1.6.8 0 .9-9 1.9-18 4.5-26.9 7.1l-3.8 1.2c-10 3-19.8 6-29.6 10-19.4 7.9-37.8 18.5-54.8 30.8C67.2 682.8 20 754.3-9.9 828.3a526 526 0 0 0-24.3 77c-.4 1.6-2 5.4-1 7 .7 1.3 3.6 2.1 5 2.9l4.5 2.3 25.2 12.9 2.3 1.1c38 18.6 78.4 34.4 121 35.5l.4-3.7a342 342 0 0 1 9.9-60c.3-1 1.6-.6 1.7.3 3 23.1 2 46.4 1 69.7-1.8 41-4.3 82.2-6.5 123.3-1.2 20.6-2.6 41-3.9 61.7-1.3 20.5-1.7 41.6-4.7 62-.6 4.6-6 7-10 6.6-4.4-.5-7.9-4.5-8-9 0-11.9 1.5-24 2.4-35.8l2.5-33.8c3.1-41.1 6.8-82.2 10.2-123.3a4771 4771 0 0 1 3.8-43.7C76.4 979.8 34.2 963-6.1 943.5c-.6 13.2-2 26.5-3.4 39.6-3.8 36.8-7.1 73.6-9.6 110.5a2254.2 2254.2 0 0 0-4.2 92.7l-.2 7c0 4.4-.5 8.5-4.3 11.7-3.7 3.3-8.9 3.5-12.6 0-5-4.6-4.2-10.9-4-17.1a1675.6 1675.6 0 0 1 1.8-47.2 1321 1321 0 0 1 10.5-109.5l2-14c3.5-26 7.5-52.7 15.5-77.9-3.1-1.5-6.2-3-9.3-4.7-5.5-2.7-11.2-5.4-16.6-8.4-4.2-2.5-7.9-5.8-9-10.8-1.4-5.5.6-11.5 2-16.9v-.4a502 502 0 0 1 26.6-80 523.2 523.2 0 0 1 67.8-117 353.8 353.8 0 0 1 88.7-83.3 239 239 0 0 1 53.8-25.7 142.6 142.6 0 0 1 42.8-7.5Zm90.1-66c6-6.5 18.1.2 15.2 8.8a108.2 108.2 0 0 1-34.7 52A79.4 79.4 0 0 1 247 598l1.7 2.4a321.1 321.1 0 0 0 46.1 52.6c36 31.2 84.8 48 132 36 37.1-9.4 69.8-38.8 79.4-76.2-1.3.6-3 .9-4.8.5-7.7-1.7-15.3-9.8-20.3-15.6-5.3-6.3-9.5-13-12.6-20.7-5.6-14-7.4-32.1.3-45.7 1-1.7 3-.7 3.3 1l.3 2.5c1.5 12.7 3.3 25 9.3 36.6a76 76 0 0 0 18.2 23.1c2.6 2 5.8 3.6 8.1 6l.5.4c.6-5 4.1-7.3 7.6-7.2 3.3.2 7.3 1.6 8.8 2.3l.1.1a341 341 0 0 1 65.1 42 259 259 0 0 1 88.4 129c7.5 25.3 11.8 51.4 16.3 77.4l2.8 16c4.2 23.9 8.9 48.4 18.4 70.7 2.5 5.7.6 11.1-5.5 13.4A1493 1493 0 0 1 688 953c3.7 16 6 32.5 8.7 48.5 6 34.1 13.2 68 19.4 102 3.2 17.5 6.1 35 9.3 52.3l4.7 25.2 2.4 13.6.1.7c.5 2.4 1 4.9.4 7.3-.8 2.7-2.9 4.6-4.8 6.6-1.6 1.6-3.8 1.6-5.7.7l-.7-.3c-3.4-1.6-6-3.2-7.3-7-.7-2.5-1-5.2-1.5-7.7a3535.6 3535.6 0 0 1-7.8-43.6l-1.6-9.1c-5.2-31.4-10.2-62.9-12.8-94.5-1-14-2.3-28.1-3.5-42.2l-.9-10.5c-1.1-13.3-2.5-27-2.7-40.5l-4.5 1.6L657 964c-5.5 2-12.5 6-18.4 5.2-2.9-.3-5-1.2-6.8-2.9 2 28.8 4.8 57.4 8.5 86a1965.7 1965.7 0 0 0 22 135c.6 3.2 1.4 6.4 1.9 9.6.5 3.7-.5 5.9-2.5 9-1.7 2.4-5 3.7-7.8 2-3.6-2.3-5.5-4.3-6.5-8.4-1-3.7-1.6-7.6-2.3-11.4a1654.2 1654.2 0 0 1-11.4-65.2c-7.8-52-12.7-104.4-15.2-156.8a1388 1388 0 0 1-1.4-77.8c0-13.3.5-26.6 1.4-39.9 1-13.4 3-26.5 4.8-39.8 0-.5.7-.5.7 0 .8 14.9 2.1 29.8 2.8 44.7.6 14.3.9 28.5 1.4 42.8.6 18.7 1.5 37.5 2.7 56.2a9.6 9.6 0 0 1 8.5-3.1c4.7-1 9.7-3.4 14.1-5l16.8-5.5 26.4-8.7a679 679 0 0 1-18-80.8l-2-12.3c-4-24.2-8.5-48.5-15.8-72a229.8 229.8 0 0 0-34.8-68.2 370.2 370.2 0 0 0-52.7-55.3C557 627 539.7 614 523 600c.1.9.2 2 0 3-3.5 25.9-17 50-35.8 67.9-37.7 36-93.6 43.4-142 26.5-46.7-16.3-88-55-102.6-102.8-.3-.8.8-1 1.3-.5l2.4 3.3c0-.4.2-.9.7-1a129 129 0 0 0 46.6-29.2 100.2 100.2 0 0 0 21.3-33.3l.4-1c1.7-5 3.2-10.2 7-14.2Z" fill="#000000"/></g>

        <g id="head" transform="matrix(.99789 0 0 1 156 62)"><path id="skin" d="M67.9729,102.4005 C73.1589,96.8355 79.7919,92.6895 87.0429,91.3645 C80.4149,94.6755 73.9359,98.1265 67.9729,102.4005 Z M57.8149,150.3845 C56.8979,146.1435 56.2819,141.8615 56.0879,137.5805 C57.2469,139.3425 59.0979,140.5195 61.1769,141.1275 C59.8339,144.1345 58.6919,147.2325 57.8149,150.3845 Z M404.835051,216.877813 C398.849051,191.960813 370.921192,144.033657 364.320299,134.809034 C357.152299,111.968034 396.2459,93.6505 374.9849,75.7895 C365.3589,67.7305 352.6369,64.8785 340.7029,62.0205 C258.0729,42.1765 169.2949,52.1845 92.6589,88.6755 C81.0019,86.2225 68.8569,91.0165 60.3799,99.4365 C20.5549,139.4645 74.8289,211.6865 86.6969,256.8125 C107.0589,307.1295 65.1149,315.5935 69.6129,358.1665 C73.1079,380.1605 95.3849,385.9735 114.1839,389.2975 C117.1969,390.0025 121.2249,390.1085 122.1969,393.2935 C125.2429,411.8845 135.6849,429.6015 149.7039,441.6255 C148.4779,445.2575 149.4139,449.6665 153.7369,452.8565 C192.9049,481.9635 242.292016,496.529913 291.1439,493.9115 C349.361999,490.791067 379.4689,457.4225 386.7339,448.8305 C426.9029,394.5835 422.103119,323.0095 413.909119,258.3605 C408.201016,213.324721 415.439183,261.018001 404.835051,216.877813 Z" fill="#d08b5b"/><path d="M225.3217,9.5415 C227.1517,3.8215 232.3317,0.3815 238.2617,1.0915 C243.5117,1.7115 249.1317,6.9215 248.4917,12.6715 C248.3717,13.7815 248.2117,14.8215 248.0217,15.8015 L248.0467,15.81025 L248.0467,15.81025 L248.0717,15.8115 L247.9417,16.1915 C247.5517,18.0215 247.0117,19.6615 246.2117,21.2115 C245.1917,24.1815 244.2117,27.1615 243.2417,30.1515 C244.6417,30.0915 246.0717,30.1715 247.5217,30.4415 C249.0217,26.6015 250.5317,22.7715 252.0317,18.9215 C253.6417,14.8115 254.7717,9.5315 257.9517,6.3515 C262.0217,2.2915 269.0817,1.4515 274.0417,4.3515 C279.2817,7.4115 281.1517,12.8515 280.0117,18.6815 C279.43239,21.6552931 277.445422,23.7248294 274.986877,25.0251205 L274.7217,25.1615 L272.8317,29.6415 C273.4117,29.3915 274.0117,29.1615 274.6617,28.9715 C275.6817,28.6715 276.6817,28.4815 277.6617,28.4015 C280.3617,23.5115 283.3317,18.7615 286.4017,14.1015 C289.9317,8.7415 296.8317,6.4615 302.6217,9.8515 C307.8017,12.8815 310.5817,20.8415 306.8717,26.0715 C304.0517,30.0415 301.3817,34.0915 298.7517,38.1815 C299.2017,38.2615 299.6517,38.3615 300.0817,38.4915 C300.2817,38.2215 300.4917,37.9515 300.7117,37.6815 C303.5817,34.1215 306.9217,31.4515 310.3517,28.4915 C313.5617,25.7115 315.0417,21.3415 319.2617,19.2315 C324.5717,16.5815 330.9717,17.8515 334.1317,23.1315 C340.9117,34.4415 329.5317,42.7015 322.2517,49.5515 C328.5817,45.6015 335.1717,41.9915 341.9317,38.8715 C345.7317,37.1215 349.5917,35.4315 353.5117,33.9715 C359.3217,31.8115 364.0217,32.5025 368.7917,36.5215 C370.9217,38.3215 371.9817,42.2525 371.0017,44.8715 C369.1017,49.8915 366.1017,52.9415 360.8417,54.3915 C357.1417,55.4115 353.3517,56.1015 349.6517,57.1715 C343.4517,58.9515 337.4317,61.1215 331.5917,63.8315 C332.0117,64.0915 332.4117,64.3715 332.7817,64.6915 C337.1417,63.2815 341.5817,62.0615 346.0417,61.0215 C353.438575,59.287125 360.967286,58.11525 368.528956,57.3822788 L371.041055,57.1484247 C380.106521,56.2784643 391.007771,54.6729286 396.5717,63.3515 C398.4017,66.2115 398.6017,70.9315 396.5717,73.7615 C392.6917,79.2015 388.8317,80.2815 382.4117,80.3815 C388.7317,81.0515 395.0417,81.8815 401.3217,82.8515 C405.650271,83.5115 409.978843,84.2596633 414.288522,85.0896924 L416.4417,85.5115 C421.6917,86.5615 427.5517,87.1715 432.0617,90.2115 C441.9017,96.8515 437.2817,109.7815 426.3817,111.1615 C421.1117,111.8215 415.2617,109.5915 410.0917,108.5515 C405.0717,107.5415 400.0317,106.6515 394.9717,105.8715 C392.3517,105.4615 389.7317,105.1015 387.1017,104.7715 C392.4517,105.5415 397.7617,106.6315 402.9317,108.1715 L404.367786,108.60485 C414.362598,111.650948 427.853793,116.50243 430.9717,127.1815 C432.8617,133.6715 427.6917,139.3315 421.4317,139.7115 C415.6117,140.0615 410.7617,136.5915 405.8217,134.0315 C402.2217,132.1715 398.5617,130.7815 394.6817,129.5915 C390.6717,128.3615 386.5817,127.3415 382.4617,126.5115 C385.943518,128.429682 389.334427,130.537946 392.589348,132.896399 L394.085527,134.00174 C402.736936,140.447976 415.9295,150.4281 412.8817,162.5115 C411.9217,166.3215 407.6717,169.9615 403.5917,169.5715 C392.9717,168.5815 387.1117,157.2715 379.1017,151.2115 C377.0117,149.6315 374.7217,148.0715 372.3217,146.5515 C384.4617,161.0315 394.1217,177.7715 401.4717,195.0615 C417.625169,233.099357 422.580714,268.325487 422.69956,309.224756 L422.7017,310.4915 C422.7217,333.0515 422.2117,356.0215 420.0117,378.4815 C417.9717,399.2315 414.2317,419.7115 404.8217,438.5025 C389.0517,470.0115 358.3217,494.5515 324.4317,503.8915 C286.7217,514.2915 244.5717,506.1615 213.6817,482.1615 C205.8017,476.0415 216.2517,462.7525 224.3017,468.4015 C256.4517,490.9515 298.0317,498.0915 334.9317,482.8315 C364.2017,470.7315 387.7717,444.7015 397.7617,414.7315 C404.120396,395.665196 405.971648,375.335659 408.239817,355.465479 L408.3917,354.1415 C410.7917,333.3615 412.1817,312.4415 412.1617,291.5215 C412.1317,252.6715 406.5517,220.6915 389.4617,185.4515 C381.4217,168.8515 370.9917,153.5025 358.5317,140.0315 C354.7517,140.8015 350.7317,139.7215 346.9117,139.3115 C344.9617,139.1015 343.0117,138.9015 341.0617,138.7215 C343.0537,140.0095 345.0073,141.3487 346.92762,142.719132 L349.446292,144.535382 C357.327907,150.179865 367.327478,156.609056 365.3017,167.5215 C364.7517,170.4715 361.8117,173.1815 358.9617,173.8515 C348.6317,176.3115 341.5317,166.2715 334.5517,160.3115 C328.4817,155.1315 322.1317,150.4915 315.6617,145.8415 C314.1917,144.7915 312.7117,143.7415 311.2217,142.7015 C312.6217,144.3335 313.9833,145.9911 315.31162,147.66406 L317.275475,150.153141 C323.217958,157.588482 331.78436,167.252989 326.4917,176.8915 C324.9917,179.6115 321.7917,181.4215 318.6917,181.3615 C308.0317,181.1415 303.7917,169.0415 298.7917,161.4015 C294.4917,154.8515 289.8217,148.6815 284.9917,142.5115 C283.6617,140.8215 282.3217,139.1315 280.9617,137.4415 C258.5717,138.6015 236.2617,141.5615 214.3417,146.2915 C199.2817,149.5415 184.4717,153.7525 169.7717,158.3615 L168.550042,158.750131 C160.594514,161.311565 152.397554,164.589793 146.6617,170.2115 C145.8429,174.0847 146.471444,178.1695 147.25471,182.037622 L147.86518,184.998365 C150.3804,197.37905 152.0942,209.5305 150.8117,222.2415 C149.4817,235.3515 145.5317,247.1415 140.7117,259.3215 C138.4317,265.0615 136.0717,264.0215 135.2617,270.1815 C134.6412,274.8735 135.024975,279.717225 135.448849,284.448601 L135.803076,288.459623 C136.692069,298.966608 137.138469,310.421992 130.2517,319.0915 C129.1817,320.4215 126.8917,319.8915 126.1317,318.5615 C125.8317,318.0315 125.5117,317.5215 125.1617,317.0315 C121.8417,312.2215 116.7517,309.4815 110.9317,308.4215 C110.1917,308.2915 110.4817,307.3015 111.1017,307.2215 C116.0217,306.6415 120.6817,307.8715 124.6417,310.4115 C122.763793,303.917895 108.225529,307.075859 103.44629,308.337768 L103.2817,308.3815 C97.3217,309.9815 91.6817,312.5815 86.7117,316.2615 C76.7117,323.6615 70.9317,335.2015 71.2217,347.6315 C71.5117,359.8515 77.8217,371.1415 88.6617,376.9915 C93.8917,379.8115 99.8417,381.1715 105.7617,381.1115 C111.9417,381.0515 117.4417,378.3415 123.6317,378.7215 C127.2117,378.9415 129.9517,382.7815 127.8817,386.1315 C126.5017,388.3715 124.7017,390.1315 122.6217,391.4815 C127.6917,403.1715 134.1617,414.3215 141.6217,424.6115 C145.7517,430.3215 150.4317,435.5915 155.5817,440.4015 C159.6017,444.1615 168.3117,448.5115 167.8217,454.7815 C167.6517,457.0415 166.4817,458.4215 164.4217,459.2615 C158.017167,461.879767 150.229462,452.864234 145.945791,448.517885 L145.6017,448.1715 C140.2617,442.8515 135.3917,436.9715 131.1517,430.7315 C123.6317,419.6515 118.9617,407.1615 117.0317,394.0415 C106.7617,397.1315 93.1617,394.2315 84.7817,390.4415 C58.4417,378.5415 49.8317,343.0715 65.8417,319.4515 C68.9417,314.8815 72.8217,310.9715 77.2417,307.8115 C76.2717,307.2815 75.3617,306.6015 74.5517,305.7415 C70.0709308,300.981885 66.9030314,294.770716 63.7589571,289.046006 L63.3817,288.3615 C60.5905889,283.3215 57.9575025,278.202488 55.4894641,273.004463 L54.5717,271.0515 C49.0617,259.2015 44.2317,254.0215 40.3017,241.5615 C36.5217,229.5415 33.5417,217.2915 31.6117,204.8315 L31.098823,201.533414 C29.9826333,194.303411 28.9270333,186.572167 29.7417,179.2315 C24.1317,181.0615 18.4917,182.1915 12.9417,179.4415 C9.2817,177.6315 7.2617,172.3515 8.5117,168.5615 C9.4217,165.7715 10.9417,163.5815 12.8717,161.8615 C11.7217,161.2815 10.6417,160.5415 9.6917,159.7215 L8.8617,159.0025 L8.8617,159.0025 C5.5017,156.0815 5.2617,150.5315 7.3017,146.8715 C7.5017,146.5215 7.7017,146.1615 7.8917,145.8115 C9.8317,142.3415 13.8417,140.0715 17.8017,140.1315 C18.4417,140.1415 19.0817,140.1415 19.7317,140.1315 C17.8817,139.7215 16.0717,139.0915 14.3517,138.0315 C6.5917,133.2615 7.5717,120.3315 16.9617,118.0515 C20.9017,117.1015 25.2517,117.4915 29.5917,118.5115 C29.4317,118.4215 29.2717,118.3315 29.1117,118.2315 C25.8317,116.2215 23.0817,112.2915 23.3917,108.2615 C23.7317,103.8015 25.1717,100.6215 29.1117,98.2815 C32.5317,96.2615 37.3717,96.0715 40.7717,98.2815 C43.7217,100.2115 46.6117,102.3415 49.3917,104.6315 C46.6017,101.2015 44.1817,97.4715 43.2017,93.5115 C41.9917,88.5815 44.0117,83.2115 48.4517,80.6115 C51.9917,78.5415 55.7317,78.7715 59.0717,80.3715 C58.8917,77.7815 59.5217,75.1415 61.2417,72.8015 C64.7617,68.0025 71.1617,65.2415 76.7317,68.7415 C77.4617,69.2015 78.4417,69.9915 79.3917,70.9615 C77.5417,65.0715 79.2117,58.8915 85.5217,56.2315 C89.3717,54.6015 94.5817,55.4215 97.9217,58.2315 C95.8017,46.7615 112.7317,38.3315 119.3117,50.1815 C120.805033,52.8659444 122.282564,55.6926111 123.603826,58.5842435 L124.0917,59.6715 L124.1417,59.6515 L123.80545,58.8565 L123.80545,58.8565 L123.4617,58.0615 C121.6317,53.8115 119.3017,49.3915 118.6617,44.7815 C117.7217,37.9615 120.7617,31.4915 128.1817,30.4915 C132.0117,29.9715 136.2717,31.7115 138.8417,34.7525 C137.4517,24.1715 149.2717,16.4815 157.7817,24.3815 C161.8117,28.1215 163.9617,33.5915 166.5217,38.3915 C167.9717,41.1015 169.4517,43.8015 170.9017,46.5215 C171.2717,46.0815 171.6717,45.6415 172.0917,45.2115 C169.9417,38.7715 168.2717,32.1715 166.8617,25.5315 C165.5217,19.2715 168.6517,12.7715 175.1117,11.0025 C180.9817,9.3815 188.3317,13.0025 189.6417,19.2525 C190.5617,23.6515 191.6517,28.0025 192.8517,32.3315 C193.6717,32.1315 194.4817,31.9915 195.2817,31.8915 C195.348367,31.0781667 195.423922,30.2603889 195.508367,29.4470556 L195.823115,26.5543536 C196.52242,19.9449176 197.227753,12.3999211 200.6817,6.7815 C206.5717,-2.8185 221.6717,1.1615 221.8317,12.5115 C221.9217,18.3815 219.5317,24.2015 218.7017,30.0115 C218.3417,32.5415 218.1317,35.1015 218.0117,37.6615 C219.6217,29.1615 221.8317,20.7715 224.3917,12.5115 C224.6917,11.5215 225.0117,10.5315 225.3217,9.5415 Z M95.0416,337.3218 C108.2916,335.2718 120.4016,342.6618 128.2516,353.0118 C129.6816,354.9018 128.7416,357.5718 127.4516,359.1618 C126.5216,360.3318 125.2716,360.4718 123.8616,360.6518 C122.2416,360.8618 120.1916,359.5518 119.4816,358.1418 C114.4316,348.0618 105.4216,341.6918 95.0416,337.7718 C94.8516,337.7018 94.7916,337.3618 95.0416,337.3218 Z M113.409421,156.717337 L113.8107,156.2865 C116.4917,153.5055 112.2547,149.2575 109.5677,152.0445 C106.7387,154.9785 104.8587,158.5425 103.0507,162.1545 C101.3277,165.5985 106.5017,168.6405 108.2317,165.1835 L109.019473,163.612241 C110.255859,161.169068 111.574416,158.755335 113.409421,156.717337 L113.409421,156.717337 Z M76.1987,151.0095 C79.9987,150.3695 78.3877,144.5865 74.6037,145.2245 C69.7017,146.0505 64.8187,146.9895 59.9157,147.8165 C56.1167,148.4565 57.7277,154.2395 61.5117,153.6025 C66.4137,152.7755 71.2967,151.8365 76.1987,151.0095 Z M302.5667,111.5285 C298.8957,110.3035 297.3207,116.0965 300.9717,117.3145 C306.0167,118.9975 311.0207,120.7225 315.8067,123.0595 C319.2637,124.7475 322.3087,119.5745 318.8347,117.8785 C313.5817,115.3135 308.1047,113.3765 302.5667,111.5285 Z M75.3347,103.7525 C71.7497,102.3185 70.1927,108.1195 73.7397,109.5385 L86.6997,114.7215 L86.6997,114.7215 C90.2847,116.1555 91.8417,110.3555 88.2947,108.9365 L75.3347,103.7525 L75.3347,103.7525 Z M347.820662,89.6649702 L347.3477,89.3665 C344.0977,87.2605 341.0867,92.4525 344.3187,94.5475 C346.216167,95.7767 348.523056,96.6104156 350.26047,98.0746994 L350.6237,98.3985 C353.4297,101.0485 357.6807,96.8145 354.8667,94.1555 C352.80795,92.2120625 350.201641,91.1299531 347.820662,89.6649702 L347.820662,89.6649702 Z" id="ðŸ–-Ink" fill="#000000"/></g>

        <g id="face" transform="translate(315 248)"><path d="M93.8 224.8c8-16 81.4-8.9 81.4-8.9l6.2 51s-35.4 11.3-56.5 9c-21-2.5-39-35.1-31-51.1Z" fill="#fff"/><path d="M99 251.5c-2.5-5.5 50-20.2 66.2-10.1 16.2 10 11.1 23.9 11.1 23.9S108 280.8 99 251.5Z" fill="#FF8181"/><path d="M89.3 215.3c12.2-14.2 32.9-15.2 50-11.7 11 2.3 21.6 6.1 32.7 7.5 5.2.7 10.5.9 15.7.8 5.2-.1 10.3-1.1 15.4-1 .8 0 1.1 1.1.4 1.5-7 4.4-16.5 5.7-24.8 6.6a93 93 0 0 1 .7 5.8l1.3 9.2c.8 6 1 12.3 2.5 18.2l.3 1a9 9 0 0 1 .3 3.4l.3-.1 1.1-.5.7-.4c2.6-1.2 5-2 8-1.7 2.3.2 4.2 1.7 4.2 4.2 0 11-14.7 14.5-23.1 16.6l-2.5.6c-10.8 2.6-21.7 4.9-32.8 5.4-17.7 1-37.7-4-49.3-18.4-10.8-13.4-12.8-33.4-1.1-47Zm80.6 46c-2-16.5-22.2-17.4-28-7-2.6-14.5-40.9-1.2-37.9 1.7 11.4 11 28.6 12 43.4 10 7.5-1 15-2.8 22.5-4.7Zm-22.5-43.2-5.1-.7-2-.3c-12.7-1.7-26.9-2.6-37.3 5.5a18 18 0 0 0-6.7 11A552 552 0 0 1 126 230l2.7-.3 18.6-1.7 4.3-.5 4.4-.4c1.6-.2 12-.7 14-.4.2-1.7.4-5.5.9-7.3-7.4.3-14.8-.3-22.1-1.2l-1.3-.2Zm23.4-73.7c7.6 4.6 19 15.3 11 26.6-9.6 10-23.4-1.4-30.2-6.6-6.3-4-13.3 6.3-7.5 11 49 36.3 69-29.8 30.5-36.4-4.2-.8-5.8 4-3.8 5.4Zm13.5 19.3.4-.2h.1c.2-.2 0-.2-.4 0l-.4.1v.3l.3-.2ZM87.6 123v-.2c0-6.4 3.7-21 13-21 5.7 0 9.1 10 9.7 20.2v.4c.3 6.4-1.4 20.2-9.8 20.2S87.7 129.4 87.6 123Zm135.2-2v-.2c0-6.4-3.8-21-13-21-5.5 0-9 9.5-9.7 19.4v.8c-.4 6.1 1.2 20.6 9.8 20.6 8.4 0 12.8-13.1 12.9-19.6Zm-130-62.6c7.5-1.2 17.5 1 21 8.6 1.5 3.4-.3 7.2-4.2 7.4-9.5.4-18-1.7-26.4 4.5a42 42 0 0 0-9 10l-1 1.4-.8 1.1c-1.7 2.5-3.4 5.3-3.1 8.3 0 1-.9 1.8-1.7 1.7-5.5-.2-6-7-5.4-11.1 1.4-7.7 5-14.8 10.2-20.6 5.4-6 12.4-10 20.5-11.3ZM196 67.5a29.3 29.3 0 0 1 17.9-4c12 .9 32 11 29.3 25.6-.8 4.5-7 6.9-10.8 4.4-4-2.7-4.9-6.9-7.8-10.4a28.5 28.5 0 0 0-8.6-6.5 28.3 28.3 0 0 0-10.3-3.1h-.6c-2.2-.3-13-.2-11.4 3.8.3.8-.9 1.5-1.4.9-3.4-3.7.4-8.5 3.7-10.7Z" fill="#000"/></g>

        <g id="facial-hair" transform="translate(279 400)"><path d="M258.5298,37.2406 C249.4788,33.0086 239.7508,30.4896 229.7568,29.5966 C225.4348,29.2096 216.9448,27.9886 212.3478,30.8076 C210.1978,32.1276 208.3808,33.9716 206.9398,36.2236 C206.3778,35.4466 205.6378,34.7846 205.1698,33.9446 C202.6528,29.4226 187.2048,29.3286 182.5408,29.7126 C171.4808,30.6226 160.7158,33.2196 150.5778,37.5856 C132.3768,45.4256 117.0868,61.7146 121.8948,82.3946 C122.5748,85.3236 125.8558,86.4626 128.5588,85.9566 C146.7778,82.5416 164.9968,79.1256 183.2168,75.7106 C187.4458,74.9186 191.6758,74.1256 195.9048,73.3326 C199.7298,72.6156 204.4178,72.3886 208.0478,70.7386 C209.5078,71.3626 211.1338,71.7586 212.8698,72.1026 C234.7908,76.4566 256.7398,80.6806 278.6748,84.9696 C281.3048,85.4846 284.7548,84.1506 285.2268,81.2366 C288.3748,61.7926 275.9918,45.4046 258.5298,37.2406" id="ðŸ–-Ink" fill="#000000"/></g>

        <g id="eyewear" transform="translate(203 303)"><path d="M398.9346,13.2313 C398.1116,13.0943 397.2876,12.9653 396.4636,12.8443 C395.8206,12.4793 395.0656,12.1983 394.1876,12.0293 C392.1826,11.5203 390.1916,11.1773 388.2036,10.9923 C359.6716,4.5713 293.6646,13.6883 290.9406,38.0363 C281.8546,41.0693 273.9926,38.3533 263.4616,38.6233 C255.4456,5.1183 116.8626,9.8473 110.1976,30.0473 C110.1726,30.0403 110.1476,30.0343 110.1216,30.0263 C103.7176,28.0443 94.2766,28.5223 86.9466,28.2083 C71.2956,27.8803 55.6266,29.2753 40.3136,32.5763 C11.6386,37.1333 -27.4964,42.4683 -7.5534,78.2763 C-7.5494,78.2823 -7.5464,78.2893 -7.5414,78.2953 L-7.5384,78.2923 C-4.1014,81.8153 1.7316,78.9783 1.9486,74.2093 C-4.7564,57.2453 10.3876,55.2083 22.0396,50.3333 C51.0326,39.9173 80.5506,38.4733 110.5366,41.6953 C112.7926,44.3513 116.2156,46.6673 119.8336,47.8793 C139.8826,51.2073 129.3166,66.0793 141.9896,68.2423 C139.6616,120.0843 202.6026,148.3823 239.0716,114.3033 C253.6326,100.0673 257.1036,78.9783 260.4796,59.9693 C262.2646,59.5683 263.3996,58.5923 264.0626,57.3003 C268.3556,53.0143 271.0526,49.0563 279.5416,47.8793 C288.0306,46.7033 294.5656,49.0643 295.4496,49.7873 C295.6726,50.2363 295.9116,50.6863 296.1896,51.1363 C296.5776,51.8073 297.1056,52.3423 297.7056,52.7633 C289.3226,104.3873 329.3996,137.0353 369.8586,110.2603 C387.4386,93.7233 391.1536,68.4053 391.8876,45.8073 C394.2706,44.3693 395.7796,41.5823 394.9546,38.0783 C393.8176,33.2483 396.4836,29.0663 400.7296,26.9663 C406.2466,24.2393 405.2706,14.2803 398.9346,13.2313 M225.086988,37.7223618 C220.065054,36.6178235 217.920374,44.3606372 222.95832,45.4681879 C226.525804,46.252514 229.549376,48.0515396 231.592155,51.0993468 L231.807252,51.4306867 C234.548399,55.792609 241.479828,51.7660647 238.719666,47.3760269 C235.614234,42.4357281 230.788453,38.9755108 225.086988,37.7223618 Z M372.1732,32.9216366 C370.402814,31.6745124 367.723715,32.6003163 366.69591,34.362557 C365.564701,36.303111 366.306135,38.4637159 367.964208,39.7331967 L368.133036,39.8571332 C369.653907,40.9290575 371.135119,42.8505012 371.321131,44.8192514 L371.337546,45.0655335 C371.536702,50.2177028 379.543974,50.24381 379.343817,45.0655335 C379.148664,39.999719 376.215367,35.767329 372.1732,32.9216366 Z" id="ðŸ–-Ink" fill="#000000"/></g>
    </g>
</svg>