<svg xmlns="http://www.w3.org/2000/svg" viewBox="0 0 704 704" fill="none" width="512" height="512">
    <desc>"Open Peeps" by "Pablo Stanley", licensed under "CC0 1.0". / Remix of the original.</desc>
    <mask id="viewbox"><rect width="704" height="704" rx="0" ry="0" x="0" y="0" fill="#ffffff" /></mask>
    <g mask="url(#viewbox)">
        <rect id="background" fill="#ffd5dc" width="704" height="704" x="0" y="0" />

        <g id="body"><path id="skin" d="M705.3 1074a2351.1 2351.1 0 0 1-15.6-101c-1-7.7-2.5-16.4 2.7-22 7.3-8 14-14.8 14.8-26.2.8-10.7-2.8-22.4-5-32.8a809.4 809.4 0 0 0-17.3-64.7c-6.6-21.7-13.9-43.2-21.3-64.6-6.9-20-13.5-40.3-22.5-59.5-17-36.5-46-63.5-81.6-81.6-9-4.5-27-20.5-36.3-24-8.5-3.4-8.5 6.3-16.9 2.6-6.7-2.9-13-6.7-16.7-13.2-4-7-14.3-16.9-15.9-25-3.3-17.4.3-32.2-12-45.3a90 90 0 0 0-41.1-23.8c-33.7-9.3-78.5-2.8-98.8 28.5-9.7 14.9-13 33-26.2 45.1-11.4 10.7-8.8 18-23.6 23.4-.9.3-23.6-4.5-24.4-4.2-16.2-3.5-31.7 6.2-46.5 11.8a325.4 325.4 0 0 0-63 32.3 399.2 399.2 0 0 0-102.3 98.5 482.5 482.5 0 0 0-76.4 161c-1.7 6.4-3.5 13-1.5 19.4 1.7 5.3 5.4 9.2 9.8 12.4 6 4.3 18 7 17.7 15.7-.1 6.6-2.4 13.5-3.5 20-1.3 7.7-2.3 15.5-3.4 23.2-4.8 35.4-8.6 71-10.3 106.6a920 920 0 0 0-.5 106c.1 2.3.8 4.5 2 6.2-1 .4-1.2 2.4.1 2.7l2.7.5a12 12 0 0 0 7 2.4l5.5.2c19.3 4 38.6 7.9 58.1 10.8 23.8 3.5 47.6 6.3 71.5 8.7 49.2 4.8 98 3.2 147.1.6a1877 1877 0 0 1 147.4-2c49.2 1.4 98.4 3.5 147.6 4.4 55 1 110-.5 164.8-5 7.5-.5 12.2-6.5 10.7-14-8.9-44.7-19-89.1-27-134Z" fill="#ffdbb4"/><path id="shirt" d="m201 597.5 1.2-.4c14.5-5.7 29.6-14.8 45.4-11.4.5-.2 10.8 1.9 17.9 3.2l-6.7 7L247 598c40.7 67.1 88.8 100.7 144.3 100.7 55.5 0 97.7-33.6 126.4-100.7l4-1c.4 0 1 .2 1.5.4 9.3 3.6 27.4 19.6 36.3 24.1 35.6 18 64.5 45 81.6 81.6 8.7 18.6 15.2 38 21.8 57.5l.7 2c7.4 21.4 14.7 43 21.3 64.6 6.3 20.4 12 41 16.6 61.8l.7 2.9c2.2 10.4 5.8 22 5 32.8a29 29 0 0 1-3 10.7l-80.4 29 38.4 261.3c-35.1 1.5-70.3 2-105.5 1.3-49.2-.9-98.4-3-147.6-4.3-47.7-1.2-95.3-.7-143 1.7l-12 .6a946.3 946.3 0 0 1-139.5-1l-3.1-.3v-38.3l16.3-212.9-83-15.6-81.3-39.5a21.7 21.7 0 0 1-5.6-8.8c-1.9-6-.5-12 1-18l.5-1.3a492.8 492.8 0 0 1 76.4-161A399.3 399.3 0 0 1 138 629.7c19.8-13 40.9-23.9 63-32.3Z" fill="#78e185"/><path d="M232.2 584.6c5.1-.3 10.3.6 15.4 1 .4.1.6.8 0 .9-9 1.9-18 4.5-26.9 7.1l-3.8 1.2c-10 3-19.8 6-29.6 10-19.4 7.9-37.8 18.5-54.8 30.8C67.2 682.8 20 754.3-9.9 828.3a526 526 0 0 0-24.3 77c-.4 1.6-2 5.4-1 7 .7 1.3 3.6 2.1 5 2.9l4.5 2.3 25.2 12.9 2.3 1.1c38 18.6 78.4 34.4 121 35.5l.4-3.7a342 342 0 0 1 9.9-60c.3-1 1.6-.6 1.7.3 3 23.1 2 46.4 1 69.7-1.8 41-4.3 82.2-6.5 123.3-1.2 20.6-2.6 41-3.9 61.7-1.3 20.5-1.7 41.6-4.7 62-.6 4.6-6 7-10 6.6-4.4-.5-7.9-4.5-8-9 0-11.9 1.5-24 2.4-35.8l2.5-33.8c3.1-41.1 6.8-82.2 10.2-123.3a4771 4771 0 0 1 3.8-43.7C76.4 979.8 34.2 963-6.1 943.5c-.6 13.2-2 26.5-3.4 39.6-3.8 36.8-7.1 73.6-9.6 110.5a2254.2 2254.2 0 0 0-4.2 92.7l-.2 7c0 4.4-.5 8.5-4.3 11.7-3.7 3.3-8.9 3.5-12.6 0-5-4.6-4.2-10.9-4-17.1a1675.6 1675.6 0 0 1 1.8-47.2 1321 1321 0 0 1 10.5-109.5l2-14c3.5-26 7.5-52.7 15.5-77.9-3.1-1.5-6.2-3-9.3-4.7-5.5-2.7-11.2-5.4-16.6-8.4-4.2-2.5-7.9-5.8-9-10.8-1.4-5.5.6-11.5 2-16.9v-.4a502 502 0 0 1 26.6-80 523.2 523.2 0 0 1 67.8-117 353.8 353.8 0 0 1 88.7-83.3 239 239 0 0 1 53.8-25.7 142.6 142.6 0 0 1 42.8-7.5Zm90.1-66c6-6.5 18.1.2 15.2 8.8a108.2 108.2 0 0 1-34.7 52A79.4 79.4 0 0 1 247 598l1.7 2.4a321.1 321.1 0 0 0 46.1 52.6c36 31.2 84.8 48 132 36 37.1-9.4 69.8-38.8 79.4-76.2-1.3.6-3 .9-4.8.5-7.7-1.7-15.3-9.8-20.3-15.6-5.3-6.3-9.5-13-12.6-20.7-5.6-14-7.4-32.1.3-45.7 1-1.7 3-.7 3.3 1l.3 2.5c1.5 12.7 3.3 25 9.3 36.6a76 76 0 0 0 18.2 23.1c2.6 2 5.8 3.6 8.1 6l.5.4c.6-5 4.1-7.3 7.6-7.2 3.3.2 7.3 1.6 8.8 2.3l.1.1a341 341 0 0 1 65.1 42 259 259 0 0 1 88.4 129c7.5 25.3 11.8 51.4 16.3 77.4l2.8 16c4.2 23.9 8.9 48.4 18.4 70.7 2.5 5.7.6 11.1-5.5 13.4A1493 1493 0 0 1 688 953c3.7 16 6 32.5 8.7 48.5 6 34.1 13.2 68 19.4 102 3.2 17.5 6.1 35 9.3 52.3l4.7 25.2 2.4 13.6.1.7c.5 2.4 1 4.9.4 7.3-.8 2.7-2.9 4.6-4.8 6.6-1.6 1.6-3.8 1.6-5.7.7l-.7-.3c-3.4-1.6-6-3.2-7.3-7-.7-2.5-1-5.2-1.5-7.7a3535.6 3535.6 0 0 1-7.8-43.6l-1.6-9.1c-5.2-31.4-10.2-62.9-12.8-94.5-1-14-2.3-28.1-3.5-42.2l-.9-10.5c-1.1-13.3-2.5-27-2.7-40.5l-4.5 1.6L657 964c-5.5 2-12.5 6-18.4 5.2-2.9-.3-5-1.2-6.8-2.9 2 28.8 4.8 57.4 8.5 86a1965.7 1965.7 0 0 0 22 135c.6 3.2 1.4 6.4 1.9 9.6.5 3.7-.5 5.9-2.5 9-1.7 2.4-5 3.7-7.8 2-3.6-2.3-5.5-4.3-6.5-8.4-1-3.7-1.6-7.6-2.3-11.4a1654.2 1654.2 0 0 1-11.4-65.2c-7.8-52-12.7-104.4-15.2-156.8a1388 1388 0 0 1-1.4-77.8c0-13.3.5-26.6 1.4-39.9 1-13.4 3-26.5 4.8-39.8 0-.5.7-.5.7 0 .8 14.9 2.1 29.8 2.8 44.7.6 14.3.9 28.5 1.4 42.8.6 18.7 1.5 37.5 2.7 56.2a9.6 9.6 0 0 1 8.5-3.1c4.7-1 9.7-3.4 14.1-5l16.8-5.5 26.4-8.7a679 679 0 0 1-18-80.8l-2-12.3c-4-24.2-8.5-48.5-15.8-72a229.8 229.8 0 0 0-34.8-68.2 370.2 370.2 0 0 0-52.7-55.3C557 627 539.7 614 523 600c.1.9.2 2 0 3-3.5 25.9-17 50-35.8 67.9-37.7 36-93.6 43.4-142 26.5-46.7-16.3-88-55-102.6-102.8-.3-.8.8-1 1.3-.5l2.4 3.3c0-.4.2-.9.7-1a129 129 0 0 0 46.6-29.2 100.2 100.2 0 0 0 21.3-33.3l.4-1c1.7-5 3.2-10.2 7-14.2Z" fill="#000000"/></g>

        <g id="head" transform="matrix(.99789 0 0 1 156 62)"><path id="skin" d="M242 75.3c56.8 0 115.6 44 136.4 72 24 32.5 43 188.4 34.1 241.3-8.9 53-53.1 110.6-130 110.6-76.7 0-123.5-9.5-125.3-23.2-2-13.8-50.7-90.2-50.7-90.2s-49.9-14-50-47.6c-.3-33.5 26.7-45.7 26.7-45.7s-9.6-132.3 14.5-166.7C122 91.3 185.3 75.3 242 75.3Z" fill="#ffdbb4"/><path d="M203.8-10.2c7.6-9 21-.4 20.8 9.4 3 .8 6.6 3.6 8 7.4 3-.2 6 .4 8.7 2l.6-.8c9.5-11.5 22-21.4 34.9-13 3.5 2.4 5 6.2 4.3 10.3v.3l.2-1.2-.3 1.7-1 2c13.2-9.4 33.3-3.9 22.7 14.3l4.3-1.7c15-5.8 33.4-12 47-1.6 6.1 5.8-.6 13.6-6.8 15.5l1-.1c12-2 36.7-7 40.2 8.4 1.3 5.6-2.4 9.6-7 11.9 9.8 0 19.6 1.6 28.2 6.4 8.1 5.8 1.5 15.4-7 15 2.6 3.3 3.5 8.8 1 12.3 4.8 1.3 9.3 3 13.4 5.5l1.1.1c8.3 1 17.7 1.7 22.2 9.8 6.7 17.5-17 16.8-27.3 10.7.6 1 1 2 1.3 3.2l3.3.9c12.5 3.5 26.6 7.3 34.6 17.8 3.7 6-1.4 16.3-9 14.4 20.8 10 12.8 36.1-7.6 22.5-1 .9-2.1 1.6-3.3 1.8l4.3 2.4c10.9 6 24 14.1 21.7 27.7-2.1 7.2-12 5.9-17.2 3.1 8.9 7.7 17.2 15.9 24.8 24.8l2.1 2.5c6 7 16.2 20.1 5 27-13.6 6.9-20.5-13.7-28.4-21 6.3 15-14.4 25.4-21.6 10.3-1.2.2-2.5.2-3.7 0 6.3 6.7 23.1 52 2.2 42a85.2 85.2 0 0 1-9-11.5c3.4 26 5.8 52 7.4 78l.6 9.5c.6 9.8 1 19.6 0 29.4a99.5 99.5 0 0 1-9.6 32.3 128.2 128.2 0 0 1-17.2 26.4 59.5 59.5 0 0 1-12 11.7c-3.8 2.6-8.2 4.2-12.4 5.8a88.3 88.3 0 0 1-24.2 16.2 143.7 143.7 0 0 1-45 12.4c-16 1.9-32 1.4-47.7-1.3-15-2.6-31.2-9.2-40.5-22-.8-1 .7-2 1.7-1.6a156.4 156.4 0 0 0 126 .3c10.6-5 19.5-12.1 29-18.7 1.8-2.4 3.7-4.8 5.8-7l3.3-3.5a106.3 106.3 0 0 0 23.3-37.4c7.2-20.4 5.3-42.6 4-63.9l-.1-1.8a934.5 934.5 0 0 0-10.6-96.2c-2.4-4-5-7.8-7.9-11.3 2.4 9.1-5.8 21.8-15.8 15.8-11.4-9.8-10.9-25.6-20.5-37.6-9.9-15.3-78.5-45.2-99-49.4 3.4 4.8 9.4 8.1 10.8 13.8 25 22.1-15.8 34-28.6 2.3.3 10.5 1.4 21 3.7 31.2 3.4 9.5 6 36.8-11 28.5-8.2 2.4-14.4-4.6-15.4-12.4-6 17.7-.4 46.1-11.2 59.2-3.3 3.4-8.5 1.1-10.2-2.8-10-2.6-9.1-14.3-10.4-22.6-9 33.3-20.5 56.4-22.1 91.2 7 10-8.4 17.4-15.1 9.4-9.3-13.5-.7-32 1.5-46.8-2.7 0-5.3-1.3-7.4-3.8-1.2 4.6-.5 10.7-.1 15.8-6 23.1-28.5 8.3-27.5-10.5-1 5.3-1.8 10.7-2.2 16 4.3 5 7.5 11 9.5 17.4 1.3 4.6-3.3 7.4-7 6.7-1.8 6.5-10 11.1-15.4 5-5.4-5.5-6.3-13.3-6.7-21a4 4 0 0 1-1.2-3.1 7 7 0 0 1 .9-3l-.4-4.7c-4.2 12.9-1.5 26.3-1.1 39.5a82.3 82.3 0 0 0 24 7.6l1.2.3c2.6.5 3.5 4.4 1.5 6 5.2 5 9.7 11.2 14 16.7 5.8 7.5 11.4 15.2 16.8 22.9l3.2 4.5c9.2 13.2 22 31 16.3 47.3-.8 2.2-4 3-5.3.7-4.2-7.7-6.5-16.2-10.5-24-3.9-7.6-8.7-14.7-13.5-21.8l-2.8-4c-4.6-7-9.2-13.8-13.4-21l-3-4.8a109 109 0 0 1-7.5-14.3c-7.3 1.7-14.9.5-21.8-2.6l-.1.5-.2.9c-1 4.2-6.8 7-10.5 4.3a36.3 36.3 0 0 1-13.4-27.2c-1.7-3-3.3-6.2-4.5-9.4-.6 6.5-3 12.8-10.9 12.6-13.4-1-14.8-13.8-11.1-26.5-16 5-17.8-17.7-12.8-29.5a8.4 8.4 0 0 1-4.6-3.2l-.8 1.4c-3 5.3-6.6 10.5-11.4 13.3-6.8 3.8-16.6-1-16.2-9.4 1.5-13.9 13.6-24.4 21-35.5-1.4.2-2.7.2-4 0-14.8 8.2-21.8-11.2-16.6-22.4a79.5 79.5 0 0 1 18-26.4L3.5 232c-4 2.3-8.3 4.5-12.6 3.6-28 18.5-37.3-12.5-5.8-22.2v-.2c-3.1-3-4.5-7.8-2-12.7-11.6 4-28.1-5-18-17.6a62.9 62.9 0 0 1 23.3-14.5c-.5-2.3-.6-4.6-.4-7h-.6c-5.4.9-12.2 3.1-15.6-2.8-1.7-3-1.5-7.9 1.3-10.2 9.7-8 20.7-14.6 32.7-17.3l1.4-4.3c-10.2-.2-21.7-13.8-10-21.5A67 67 0 0 1 30 96.9c-6.8-6.7-2.8-19 6.3-20.8-6-12.7 8.8-19.3 19.8-17.2-.4-5.7 2.6-12 8.4-13.4-3-17.8 15.8-16.1 27.7-12-4-6.8 0-14.9 7-17.3 11.5-2.6 22.5 8.3 31.2 15-3-7-.5-13.4 6.6-16.2 7.3-2.8 15.2 2.7 21.2 6.4 3.4-4.1 9-5.5 14-5.2.6-1.6 1.4-2.9 2.4-4 0-9.5 16.4-14.8 22-5.9a34 34 0 0 1 7.3-16.5Zm204.8 174.5.2 1 .7.7 2.1.5-3-2.2Zm12.7-25.3-.3.3v.2l1.8.7.9.4.3.1c-1-.5-1.8-1.1-2.7-1.7ZM273.9 12l-.6.1-.5.1h-.2.2l-.9.7h.8l1.2-1Z" fill="#000"/></g>

        <g id="face" transform="translate(315 248)"><path d="M182.1622,217.944437 C175.818663,214.891576 168.562915,215.102951 161.910567,217.121951 C154.03688,219.51384 147.064604,224.482123 140.860171,229.770792 C138.438967,231.835486 136.138367,234.165912 133.828649,236.509296 C130.894803,239.485903 127.950312,242.491794 124.681533,244.928994 C125.759686,235.746126 132.203294,226.420872 137.736988,219.676305 C144.526239,211.402689 153.979675,204.697403 164.199975,201.453875 C175.083531,197.999299 186.314125,199.898229 195.128036,205.507146 C203.861286,211.064732 210.223033,220.269827 211.504761,231.527047 C211.774243,233.891831 210.668892,236.056124 209.028966,237.696192 C207.115883,239.609439 204.42973,240.8686 201.9249,240.8686 C199.368586,240.8686 197.101844,239.838852 195.42024,238.197563 C193.656431,236.47604 192.530626,234.087169 192.369622,231.492058 C192.261561,228.726514 191.620729,226.303933 189.296796,223.385913 C187.735495,221.427351 184.80054,219.214173 182.1622,217.944437 Z M198.289023,121.302437 C195.656533,122.259375 192.599047,124.569715 191.710195,127.099885 C191.514526,127.656869 191.40461,128.226372 191.395602,128.803012 C190.538647,127.061656 190.212556,125.011272 190.324278,122.981997 C190.679012,116.535999 196.82653,111.857577 202.064082,109.12393 C203.924833,108.152235 205.836884,107.506728 207.742297,107.167059 L214.488223,105.964497 L208.154558,103.349469 C202.31398,100.938025 196.837197,97.6208236 191.949853,93.5603152 C187.280917,89.6840017 182.965124,84.6709279 180.43174,79.1394691 C179.287901,76.6413595 178.390185,74.1975806 177.760365,71.5575861 L177.59164,70.8159761 C177.282284,69.3937416 176.944139,68.6683942 176.564256,67.8635422 C176.341356,67.3912885 176.09902,66.8827497 175.838811,66.0559331 C175.692498,65.5916806 175.610879,65.2029977 175.747041,64.9001748 C175.878784,64.607182 176.199149,64.4814402 176.511634,64.3631984 C178.579255,63.5808277 181.909292,64.1138616 183.323945,64.6792237 C186.742779,66.0458477 189.747436,69.0253172 192.639666,71.8157105 C194.050989,73.17734 195.433013,74.5077822 196.805837,75.6457894 C205.565186,82.9076312 216.497853,87.0394119 227.182029,88.0470266 L227.824109,88.1038551 C230.649571,88.3357746 233.269433,89.4485909 235.126022,91.3051798 C236.785791,92.9649481 237.8103,95.2228621 237.8103,97.9271 C237.8103,100.560935 236.62542,103.09701 234.784213,104.938218 C233.025905,106.696525 230.647626,107.835792 228.065569,107.74437 C226.251755,107.679695 224.451489,107.517189 222.663749,107.277794 L216.013678,106.387288 L221.090813,110.773533 C222.098475,111.644073 223.046122,112.643248 223.898326,113.802966 C228.524863,120.102548 230.510624,129.706096 230.338796,137.415564 C230.306023,138.88694 229.89962,140.404563 229.149522,141.712128 C228.494434,142.854073 227.573409,143.839781 226.386092,144.454888 C224.964585,145.192549 223.761821,145.585972 222.143076,145.617485 C220.383092,145.652008 218.892245,145.095102 217.667233,144.162492 C216.135221,142.996161 215.009659,141.275569 214.236753,139.398835 C213.209573,136.903356 213.148424,134.267566 213.046868,131.633051 C212.976688,129.812501 212.900838,127.988516 212.597392,126.191155 C212.164848,123.896013 211.126973,120.971497 209.8177,120.048188 C207.884841,118.683758 202.742435,119.734442 199.548914,120.850555 L198.289023,121.302437 Z M170.814304,144.367155 C178.365682,148.9572 189.871664,159.660291 181.748119,171.039573 C172.185929,181.073062 158.418535,169.568982 151.634201,164.366134 C145.343449,160.333898 138.275437,170.704507 144.112,175.412823 C193.135736,211.708059 213.030606,145.567387 174.633685,138.970386 C170.406047,138.243425 168.835891,142.947174 170.814304,144.367155 Z M117.253343,129.795878 C115.189697,127.467877 113.180038,125.297848 110.07553,124.062087 C106.402731,122.597901 101.952364,122.440575 98.131967,123.537565 C93.8004021,124.781227 90.3708449,127.652701 87.8300313,131.320509 C85.5977411,134.542946 84.060359,138.378485 83.1837539,142.160566 C81.5474246,140.363486 80.7821931,138.285389 80.4127514,136.171348 C79.8045273,132.69093 80.2355568,129.104548 81.4217683,125.693847 C84.0626538,118.100538 90.4248164,111.34976 97.8433211,108.444142 C106.31361,105.126417 116.794138,106.23401 124.575076,110.905386 C128.544708,113.289788 133.120212,117.426725 135.424805,121.473358 C136.999069,124.238731 137.089932,127.101893 136.089237,129.561518 C134.987724,132.268945 132.610787,134.467746 129.576036,135.571451 C128.13846,136.094533 126.658808,136.052665 125.254893,135.681478 C123.427923,135.198437 121.720911,134.166802 120.328796,132.965095 C119.168854,131.965121 118.201916,130.865965 117.253343,129.795878 Z M129.909364,81.906319 C128.170956,84.2324165 125.610528,85.4209854 122.942935,85.5457851 C122.669402,85.558582 122.395948,85.5601377 122.123521,85.5503249 C121.951466,85.7482134 121.759318,85.9668681 121.533596,86.2239105 C121.012719,86.8170628 120.671442,87.2065182 120.316454,87.5845152 C119.034154,88.9500438 117.685984,90.25357 116.281192,91.4937762 C113.152795,94.257709 109.783274,96.6822042 106.138989,98.7165833 C99.7555839,102.282667 92.7546136,105.064062 85.5557623,106.391751 C78.4120992,107.708864 71.3603807,108.113738 64.1668449,107.081931 L62.4220059,106.831235 C58.2665484,106.222436 52.8193479,105.428061 49.4069952,102.854398 C50.7508377,102.426295 52.1121415,102.405375 53.440212,102.346646 C54.3142587,102.307994 55.1826477,102.268832 56.0294255,102.191391 C60.0554707,101.82548 63.9678503,101.157258 67.8658041,100.078158 C75.4430494,97.9813426 82.3096312,95.0855504 88.9994876,90.9352762 C95.5585767,86.8675282 101.581523,81.3311727 106.37991,75.2665777 L106.954901,74.5312102 C107.199882,74.2145892 107.441158,73.8992955 107.680714,73.5862338 C109.643457,71.0212404 111.4463,68.5768669 114.495745,66.9492162 C116.912021,65.6602396 119.357112,65.3118666 121.708053,65.6827776 C124.435778,66.1131342 127.025507,67.486486 129.320578,69.4081583 C131.017757,70.8289556 131.803161,72.8749261 131.928138,74.9733664 C132.07516,77.4419375 131.323839,80.0132766 129.909364,81.906319 Z" id="ðŸ–-Ink" fill="#000000"/></g>

        <g id="facial-hair" transform="translate(279 400)"><path d="M237.5945,65.8793 C240.3345,68.6893 242.9645,71.6993 245.4445,74.8093 C246.1345,79.7493 246.2945,84.7493 245.6645,89.9093 C244.7445,97.3893 242.7045,104.6993 239.9445,111.7193 C238.3145,111.4893 236.7045,111.0293 235.1345,110.3093 C230.1545,108.0193 227.3745,103.4093 224.0045,99.3393 C217.2945,91.2493 205.0545,86.4693 196.4945,94.8593 C192.7745,98.5093 190.3945,103.5593 187.0745,107.5693 C183.4245,111.9793 179.3245,116.1693 175.0445,119.9693 C174.5145,120.4493 173.9645,120.9693 173.3945,121.4793 C171.0145,118.7593 168.6745,116.0193 166.3845,113.2393 C159.5745,104.9593 153.6945,95.7893 150.6045,85.4493 C149.6245,82.1693 149.0145,78.7493 148.7745,75.2993 C151.8045,71.5393 155.2645,68.1193 159.1945,65.2893 C171.0445,56.7393 184.6945,55.3493 198.8945,54.6093 C213.5845,53.8493 226.8145,54.8493 237.5945,65.8793 M273.4345,105.5493 C272.8645,99.8293 271.9845,93.8793 270.6845,87.9393 C265.9345,65.8993 255.6445,43.9293 235.0145,33.8593 C225.2545,29.0893 214.1645,27.4093 203.6445,29.7093 C185.1845,22.7993 164.6845,29.8493 150.1545,42.4893 C133.0145,57.3993 125.1045,80.7993 122.4445,102.7193 C120.5945,117.9693 119.8975,138.3443 124.2245,149.4093 C128.5515,160.4743 156.0505,190.0633 195.3045,190.2693 C251.2145,190.5623 264.8045,152.8593 266.4545,149.5593 C273.3445,135.8393 274.9445,120.6893 273.4345,105.5493" id="ðŸ–-Ink" fill="#000000"/></g>

        <g id="eyewear" transform="translate(203 303)"><path d="M367.1336,98.3183 C360.4006,107.3633 347.9186,110.2443 336.4056,109.2493 C311.5746,106.8593 303.7596,78.6583 302.9456,56.7393 C319.5966,61.4233 301.5376,28.2493 358.4566,24.6013 C378.5216,22.9293 372.9896,35.0473 381.8546,43.9013 C381.6726,62.4833 378.5796,82.6743 367.1336,98.3183 M248.8626,76.9663 C234.2026,145.6193 153.9246,129.2893 145.4916,67.4033 C153.2786,61.9073 151.2276,48.3363 160.9016,43.4193 C176.2336,33.6233 195.3996,34.0423 212.8106,34.2723 C235.0656,35.8013 241.4076,45.0203 252.8396,55.0783 C252.2896,61.7963 250.7036,69.7583 248.8626,76.9663 M398.9346,13.2313 C398.1116,13.0943 397.2876,12.9653 396.4636,12.8443 C395.8206,12.4793 395.0656,12.1983 394.1876,12.0293 C392.1826,11.5203 390.1916,11.1773 388.2036,10.9923 C359.6716,4.5713 293.6646,13.6883 290.9406,38.0363 C281.8546,41.0693 273.9926,38.3533 263.4616,38.6233 C255.4456,5.1183 116.8626,9.8473 110.1976,30.0473 C110.1726,30.0403 110.1476,30.0343 110.1216,30.0263 C103.7176,28.0443 94.2766,28.5223 86.9466,28.2083 C71.2956,27.8803 55.6266,29.2753 40.3136,32.5763 C11.6386,37.1333 -27.4964,42.4683 -7.5534,78.2763 C-7.5494,78.2823 -7.5464,78.2893 -7.5414,78.2953 L-7.5384,78.2923 C-4.1014,81.8153 1.7316,78.9783 1.9486,74.2093 C-4.7564,57.2453 10.3876,55.2083 22.0396,50.3333 C51.0326,39.9173 80.5506,38.4733 110.5366,41.6953 C112.7926,44.3513 116.2156,46.6673 119.8336,47.8793 C139.8826,51.2073 129.3166,66.0793 141.9896,68.2423 C139.6616,120.0843 202.6026,148.3823 239.0716,114.3033 C253.6326,100.0673 257.1036,78.9783 260.4796,59.9693 C262.2646,59.5683 263.3996,58.5923 264.0626,57.3003 C268.3556,53.0143 271.0526,49.0563 279.5416,47.8793 C288.0306,46.7033 294.5656,49.0643 295.4496,49.7873 C295.6726,50.2363 295.9116,50.6863 296.1896,51.1363 C296.5776,51.8073 297.1056,52.3423 297.7056,52.7633 C289.3226,104.3873 329.3996,137.0353 369.8586,110.2603 C387.4386,93.7233 391.1536,68.4053 391.8876,45.8073 C394.2706,44.3693 395.7796,41.5823 394.9546,38.0783 C393.8176,33.2483 396.4836,29.0663 400.7296,26.9663 C406.2466,24.2393 405.2706,14.2803 398.9346,13.2313" id="ðŸ–-Ink" fill="#000000"/></g>
    </g>
</svg>