<svg xmlns="http://www.w3.org/2000/svg" viewBox="0 0 704 704" fill="none" width="512" height="512">
    <desc>"Open Peeps" by "Pablo Stanley", licensed under "CC0 1.0". / Remix of the original.</desc>
    <mask id="viewbox"><rect width="704" height="704" rx="0" ry="0" x="0" y="0" fill="#ffffff" /></mask>
    <g mask="url(#viewbox)">
        <rect id="background" fill="#ffdfbf" width="704" height="704" x="0" y="0" />

        <g id="body"><path id="skin" d="M705.3 1074a2351.1 2351.1 0 0 1-15.6-101c-1-7.7-2.5-16.4 2.7-22 7.3-8 14-14.8 14.8-26.2.8-10.7-2.8-22.4-5-32.8a809.4 809.4 0 0 0-17.3-64.7c-6.6-21.7-13.9-43.2-21.3-64.6-6.9-20-13.5-40.3-22.5-59.5-17-36.5-46-63.5-81.6-81.6-9-4.5-27-20.5-36.3-24-8.5-3.4-8.5 6.3-16.9 2.6-6.7-2.9-13-6.7-16.7-13.2-4-7-14.3-16.9-15.9-25-3.3-17.4.3-32.2-12-45.3a90 90 0 0 0-41.1-23.8c-33.7-9.3-78.5-2.8-98.8 28.5-9.7 14.9-13 33-26.2 45.1-11.4 10.7-8.8 18-23.6 23.4-.9.3-23.6-4.5-24.4-4.2-16.2-3.5-31.7 6.2-46.5 11.8a325.4 325.4 0 0 0-63 32.3 399.2 399.2 0 0 0-102.3 98.5 482.5 482.5 0 0 0-76.4 161c-1.7 6.4-3.5 13-1.5 19.4 1.7 5.3 5.4 9.2 9.8 12.4 6 4.3 18 7 17.7 15.7-.1 6.6-2.4 13.5-3.5 20-1.3 7.7-2.3 15.5-3.4 23.2-4.8 35.4-8.6 71-10.3 106.6a920 920 0 0 0-.5 106c.1 2.3.8 4.5 2 6.2-1 .4-1.2 2.4.1 2.7l2.7.5a12 12 0 0 0 7 2.4l5.5.2c19.3 4 38.6 7.9 58.1 10.8 23.8 3.5 47.6 6.3 71.5 8.7 49.2 4.8 98 3.2 147.1.6a1877 1877 0 0 1 147.4-2c49.2 1.4 98.4 3.5 147.6 4.4 55 1 110-.5 164.8-5 7.5-.5 12.2-6.5 10.7-14-8.9-44.7-19-89.1-27-134Z" fill="#d08b5b"/><path id="shirt" d="m201 597.5 1.2-.4c14.5-5.7 29.6-14.8 45.4-11.4.5-.2 10.8 1.9 17.9 3.2l-6.7 7L247 598c40.7 67.1 88.8 100.7 144.3 100.7 55.5 0 97.7-33.6 126.4-100.7l4-1c.4 0 1 .2 1.5.4 9.3 3.6 27.4 19.6 36.3 24.1 35.6 18 64.5 45 81.6 81.6 8.7 18.6 15.2 38 21.8 57.5l.7 2c7.4 21.4 14.7 43 21.3 64.6 6.3 20.4 12 41 16.6 61.8l.7 2.9c2.2 10.4 5.8 22 5 32.8a29 29 0 0 1-3 10.7l-80.4 29 38.4 261.3c-35.1 1.5-70.3 2-105.5 1.3-49.2-.9-98.4-3-147.6-4.3-47.7-1.2-95.3-.7-143 1.7l-12 .6a946.3 946.3 0 0 1-139.5-1l-3.1-.3v-38.3l16.3-212.9-83-15.6-81.3-39.5a21.7 21.7 0 0 1-5.6-8.8c-1.9-6-.5-12 1-18l.5-1.3a492.8 492.8 0 0 1 76.4-161A399.3 399.3 0 0 1 138 629.7c19.8-13 40.9-23.9 63-32.3Z" fill="#e279c7"/><path d="M232.2 584.6c5.1-.3 10.3.6 15.4 1 .4.1.6.8 0 .9-9 1.9-18 4.5-26.9 7.1l-3.8 1.2c-10 3-19.8 6-29.6 10-19.4 7.9-37.8 18.5-54.8 30.8C67.2 682.8 20 754.3-9.9 828.3a526 526 0 0 0-24.3 77c-.4 1.6-2 5.4-1 7 .7 1.3 3.6 2.1 5 2.9l4.5 2.3 25.2 12.9 2.3 1.1c38 18.6 78.4 34.4 121 35.5l.4-3.7a342 342 0 0 1 9.9-60c.3-1 1.6-.6 1.7.3 3 23.1 2 46.4 1 69.7-1.8 41-4.3 82.2-6.5 123.3-1.2 20.6-2.6 41-3.9 61.7-1.3 20.5-1.7 41.6-4.7 62-.6 4.6-6 7-10 6.6-4.4-.5-7.9-4.5-8-9 0-11.9 1.5-24 2.4-35.8l2.5-33.8c3.1-41.1 6.8-82.2 10.2-123.3a4771 4771 0 0 1 3.8-43.7C76.4 979.8 34.2 963-6.1 943.5c-.6 13.2-2 26.5-3.4 39.6-3.8 36.8-7.1 73.6-9.6 110.5a2254.2 2254.2 0 0 0-4.2 92.7l-.2 7c0 4.4-.5 8.5-4.3 11.7-3.7 3.3-8.9 3.5-12.6 0-5-4.6-4.2-10.9-4-17.1a1675.6 1675.6 0 0 1 1.8-47.2 1321 1321 0 0 1 10.5-109.5l2-14c3.5-26 7.5-52.7 15.5-77.9-3.1-1.5-6.2-3-9.3-4.7-5.5-2.7-11.2-5.4-16.6-8.4-4.2-2.5-7.9-5.8-9-10.8-1.4-5.5.6-11.5 2-16.9v-.4a502 502 0 0 1 26.6-80 523.2 523.2 0 0 1 67.8-117 353.8 353.8 0 0 1 88.7-83.3 239 239 0 0 1 53.8-25.7 142.6 142.6 0 0 1 42.8-7.5Zm90.1-66c6-6.5 18.1.2 15.2 8.8a108.2 108.2 0 0 1-34.7 52A79.4 79.4 0 0 1 247 598l1.7 2.4a321.1 321.1 0 0 0 46.1 52.6c36 31.2 84.8 48 132 36 37.1-9.4 69.8-38.8 79.4-76.2-1.3.6-3 .9-4.8.5-7.7-1.7-15.3-9.8-20.3-15.6-5.3-6.3-9.5-13-12.6-20.7-5.6-14-7.4-32.1.3-45.7 1-1.7 3-.7 3.3 1l.3 2.5c1.5 12.7 3.3 25 9.3 36.6a76 76 0 0 0 18.2 23.1c2.6 2 5.8 3.6 8.1 6l.5.4c.6-5 4.1-7.3 7.6-7.2 3.3.2 7.3 1.6 8.8 2.3l.1.1a341 341 0 0 1 65.1 42 259 259 0 0 1 88.4 129c7.5 25.3 11.8 51.4 16.3 77.4l2.8 16c4.2 23.9 8.9 48.4 18.4 70.7 2.5 5.7.6 11.1-5.5 13.4A1493 1493 0 0 1 688 953c3.7 16 6 32.5 8.7 48.5 6 34.1 13.2 68 19.4 102 3.2 17.5 6.1 35 9.3 52.3l4.7 25.2 2.4 13.6.1.7c.5 2.4 1 4.9.4 7.3-.8 2.7-2.9 4.6-4.8 6.6-1.6 1.6-3.8 1.6-5.7.7l-.7-.3c-3.4-1.6-6-3.2-7.3-7-.7-2.5-1-5.2-1.5-7.7a3535.6 3535.6 0 0 1-7.8-43.6l-1.6-9.1c-5.2-31.4-10.2-62.9-12.8-94.5-1-14-2.3-28.1-3.5-42.2l-.9-10.5c-1.1-13.3-2.5-27-2.7-40.5l-4.5 1.6L657 964c-5.5 2-12.5 6-18.4 5.2-2.9-.3-5-1.2-6.8-2.9 2 28.8 4.8 57.4 8.5 86a1965.7 1965.7 0 0 0 22 135c.6 3.2 1.4 6.4 1.9 9.6.5 3.7-.5 5.9-2.5 9-1.7 2.4-5 3.7-7.8 2-3.6-2.3-5.5-4.3-6.5-8.4-1-3.7-1.6-7.6-2.3-11.4a1654.2 1654.2 0 0 1-11.4-65.2c-7.8-52-12.7-104.4-15.2-156.8a1388 1388 0 0 1-1.4-77.8c0-13.3.5-26.6 1.4-39.9 1-13.4 3-26.5 4.8-39.8 0-.5.7-.5.7 0 .8 14.9 2.1 29.8 2.8 44.7.6 14.3.9 28.5 1.4 42.8.6 18.7 1.5 37.5 2.7 56.2a9.6 9.6 0 0 1 8.5-3.1c4.7-1 9.7-3.4 14.1-5l16.8-5.5 26.4-8.7a679 679 0 0 1-18-80.8l-2-12.3c-4-24.2-8.5-48.5-15.8-72a229.8 229.8 0 0 0-34.8-68.2 370.2 370.2 0 0 0-52.7-55.3C557 627 539.7 614 523 600c.1.9.2 2 0 3-3.5 25.9-17 50-35.8 67.9-37.7 36-93.6 43.4-142 26.5-46.7-16.3-88-55-102.6-102.8-.3-.8.8-1 1.3-.5l2.4 3.3c0-.4.2-.9.7-1a129 129 0 0 0 46.6-29.2 100.2 100.2 0 0 0 21.3-33.3l.4-1c1.7-5 3.2-10.2 7-14.2Z" fill="#000000"/></g>

        <g id="head" transform="matrix(.99789 0 0 1 156 62)"><path id="skin" d="M236.452396,86.8265552 C268.972826,86.8265552 316.610448,105.669983 379.365264,143.356837 C408.831003,266.837653 420.59513,346.21111 414.657645,381.477208 C405.751418,434.376356 359.365264,499.183765 282.566771,499.183765 C205.768277,499.183765 184.903783,472.088057 166.430645,459.772979 C154.11522,451.562927 135.546572,428.776374 110.7247,391.41332 C93.881767,396.658464 82.9884707,397.763517 78.0448113,394.728478 C67.514226,388.263483 68.7925651,371.261262 65.4644787,354.819677 C63.0119593,342.703613 54.6607617,330.814449 54.6607617,324.068568 C54.6607617,299.594784 72.0535308,301.343748 80.8138575,295.478662 C61.6181333,276.570518 66.6701406,210.997585 90.8519102,176.558424 C115.03368,142.119264 187.671751,86.8265552 236.452396,86.8265552 Z" fill="#d08b5b"/><path d="M324.1944,45.0538 C328.4614,44.3708 331.8904,50.3688 327.3734,52.5928 C308.1434,62.0658 287.9554,69.1928 268.3774,77.8278 C278.3784,79.0278 288.5774,80.9238 298.4324,83.8588 C309.7724,79.1978 321.4174,75.4218 333.4084,72.7528 L337.208808,71.9098962 C349.417577,69.231961 363.160781,66.6988 375.0204,70.8028 C379.0954,72.2118 378.8454,77.3578 375.0204,78.8488 C368.1364,81.5328 360.5284,82.2368 353.2424,83.0788 C345.9054,83.9258 338.6484,84.9598 331.4174,86.4858 C326.1494,87.5968 320.9074,88.8878 315.7134,90.3548 C318.9714,91.8758 322.1484,93.5428 325.2124,95.3898 C341.7214,105.3438 356.7494,116.7088 369.3244,131.4588 C381.5304,145.7738 391.1344,161.9858 397.6704,179.6318 C399.3814,184.2518 400.4794,189.1618 401.1884,194.0368 C401.7574,197.9408 401.4034,201.7658 401.4994,205.6168 C401.7044,205.6968 401.8804,205.8518 401.9384,206.0858 C404.2764,215.3688 404.5734,225.4568 405.3114,235.0008 C406.0774,244.9008 406.8634,254.7978 407.5184,264.7068 C408.1714,274.5648 408.0684,284.8518 409.9134,294.5678 C411.5894,303.3928 416.5694,311.2288 419.3724,319.7708 C436.1904,371.0228 419.7744,432.4368 378.8764,467.8338 C358.2274,485.7048 332.4824,497.0328 305.4714,500.7678 C291.4274,502.7088 277.4834,502.6588 263.4564,500.5898 C256.7984,499.6088 250.2194,498.1328 243.7944,496.1298 L241.412177,495.390985 C238.744631,494.557557 236.036938,493.656492 233.5754,492.4288 C230.0644,490.6778 228.5434,487.7318 227.3114,484.1498 C226.5634,481.9758 227.7704,478.6378 229.9384,477.6908 L230.64397,477.388234 C234.359656,475.828447 237.354812,475.158329 241.4094,476.6868 C244.6764,477.9188 247.9934,479.0098 251.3524,479.9618 C258.0164,481.8508 264.8504,483.2548 271.7454,483.9308 C285.6404,485.2948 299.6984,484.5988 313.3284,481.5458 C337.8194,476.0598 360.2514,463.7458 377.2364,445.1728 C393.8334,427.0248 404.2294,403.8758 408.2144,379.7038 C410.1904,367.7098 410.3524,355.1228 408.7644,343.0728 C407.9394,336.8198 406.5384,330.6168 404.7234,324.5798 C403.6984,321.1718 402.3784,317.8698 401.3064,314.4818 C400.335114,311.4138 400.038966,308.132826 399.594882,304.931116 L399.4894,304.1938 C398.2844,296.0528 398.6994,287.7618 398.7074,279.5588 C398.7154,271.3078 398.6694,263.0548 398.7514,254.8038 L398.8319,245.47455 C398.86015,242.36405 398.8944,239.2533 398.9484,236.1438 C397.8114,236.3248 396.3974,235.4878 396.2884,234.1328 C395.8864,229.1188 394.7524,224.2498 394.1244,219.2638 L393.957623,217.952221 C393.36492,213.369751 392.644052,208.877061 390.7294,204.6378 C386.8414,196.0308 384.1034,186.9488 380.4184,178.2568 C373.0954,160.9888 362.1814,145.0548 348.6684,132.0488 C332.4464,116.4348 312.3474,105.3468 290.8064,99.0208 C290.1214,99.3078 289.4314,99.5818 288.7494,99.8748 C275.1084,105.7608 262.1584,113.3338 249.8624,121.6528 C243.5244,125.9408 237.4254,130.5698 231.6044,135.5388 C228.7704,137.9578 225.9294,140.3748 223.1594,142.8688 C221.9744,143.9348 220.8014,145.0158 219.6414,146.1108 C218.8674,146.8388 218.1014,147.5738 217.3394,148.3148 C215.5864,149.5468 215.5484,151.2808 217.2254,153.5128 C217.8224,153.2668 218.2084,154.2498 217.6584,154.5418 C214.3374,156.3058 211.7274,152.5358 212.4334,149.4108 C212.992009,146.936278 215.286247,144.664872 216.900689,142.721728 L217.1164,142.4588 C219.6264,139.3578 222.1984,136.2788 224.9264,133.3648 C239.2964,118.0148 256.2564,105.3228 274.6434,95.2138 C266.9134,93.8288 259.0794,93.0328 251.2464,92.8368 C246.7374,92.7258 242.2454,92.7988 237.7754,93.0488 C230.8064,96.8368 223.9254,100.7808 217.1754,104.9658 C211.5424,108.4588 205.9914,112.0858 200.5364,115.8508 C197.6944,117.8118 194.8854,119.8178 192.0874,121.8398 C190.6774,122.8608 188.5224,124.0718 187.3904,125.3528 L187.304561,125.458035 C186.512726,126.493264 184.223155,131.010894 187.2004,130.8858 C187.5184,130.8728 187.5794,131.3648 187.2744,131.4388 C184.5594,132.0988 184.2064,129.2998 184.6714,127.1888 C185.832166,121.924247 192.859108,117.670278 196.810175,114.386579 L197.0634,114.1738 C205.0594,107.3808 213.3194,100.8958 221.8064,94.7238 C195.3564,98.7858 170.1874,109.1708 148.3094,125.1198 C120.1944,145.6128 99.0634,174.4978 84.9844,206.0928 C78.2944,221.1068 72.7464,237.1068 70.7614,253.4708 C68.9824,268.1368 70.8764,284.2238 82.3184,294.5908 C82.9414,294.5298 83.5644,294.4668 84.1874,294.4238 L85.1580526,294.364908 C93.3071424,293.929355 110.30256,294.4822 109.7544,305.6998 C109.7314,306.1668 109.0214,306.4568 108.7934,305.9598 C106.12111,300.155162 98.3162204,301.198028 92.7540004,302.115771 L89.6243119,302.631293 C83.1260379,303.71079 76.4854,305.098897 70.7724,308.4788 C65.2924,311.7218 60.4914,316.9058 59.4334,323.3968 C58.3894,329.7938 62.6344,334.6188 66.2924,339.3238 C70.4394,344.6588 73.7734,350.1778 74.1714,357.1048 C74.5694,364.0778 71.1524,371.0978 72.1434,377.9918 C74.3544,393.3958 96.7674,388.4328 106.4024,386.0658 C109.2914,385.3568 113.2734,386.4598 114.6054,389.4038 C120.9804,403.4928 129.6484,416.3508 140.5654,427.3198 C145.9634,432.7438 151.8044,437.7048 158.1184,442.0278 C164.5014,446.3978 170.6984,449.9848 175.0744,456.5908 C176.7704,459.1528 174.4684,462.0118 171.8364,462.2338 C163.2124,462.9608 156.1794,458.7178 149.3744,453.9228 C142.5214,449.0938 136.0334,443.7108 130.1284,437.7578 C119.5814,427.1268 110.7944,414.8168 104.2274,401.3748 L103.323745,401.544784 C88.530032,404.266852 72.1264,404.25274 62.5224,390.7258 C58.2504,384.7088 57.7744,377.6588 58.8804,370.5688 C59.9574,363.6628 62.4804,357.1928 58.5804,350.7438 C55.0404,344.8898 50.0014,340.0688 47.9804,333.3518 C46.0274,326.8618 47.1334,319.9798 50.0484,313.9738 C55.6264,302.4858 67.1354,296.8188 79.1834,294.9768 C64.6754,286.2418 59.8104,268.3728 59.7854,252.0408 C59.7534,231.5868 66.9834,210.9168 75.1804,192.4638 C90.6434,157.6538 116.7314,126.9818 148.5654,106.0928 C178.1084,86.7088 213.7224,76.2628 249.1024,76.5768 C258.1904,71.1298 267.5214,66.0868 277.0174,61.3938 L279.047118,60.3987491 C293.590674,53.330079 308.099978,47.6328444 324.1944,45.0538 Z M75.8454,328.249 C77.6064,323.952 85.3474,323.966 89.0014,324.111 L89.6727926,324.141794 C100.791313,324.724928 119.21988,329.26272 121.4974,341.695 C121.8784,343.772 120.5464,346.511 118.0174,346.264 C114.3584,345.907 111.5834,345.239 108.5774,343.085 L107.05552,341.997926 C104.524872,340.199083 102.005567,338.476167 99.2314,336.997 C95.8294,335.185 92.3214,333.876 88.6184,332.829 C87.1004,332.401 85.5714,331.954 84.0464,331.551 C83.0374,331.285 82.0214,331.051 80.9994,330.848 C79.8004,330.109 79.0204,330.567 78.6614,332.22 C79.1324,332.382 79.0894,333.2 78.5364,333.141 C76.3414,332.908 74.9904,330.333 75.8454,328.249 Z M111.1747,310.2103 C111.1747,310.1591 111.2387,310.1495 111.2643,310.179964 L111.2747,310.2103 L111.2747,314.8183 C111.2747,314.8703 111.2107,314.8807 111.1851,314.8495 L111.1747,314.8183 L111.1747,310.2103 Z" id="ðŸ–-Ink" fill="#000000"/></g>

        <g id="face" transform="translate(315 248)"><path d="M126.149889,196.292214 C131.744002,187.090211 143.667824,209.632062 144.934713,213.508101 C146.056772,216.941676 146.797464,220.458991 147.173947,224.017014 C151.510872,224.989057 156.01445,224.990851 160.458249,224.139019 C167.062878,222.871873 171.100325,219.321223 176.840498,216.27243 C180.80528,214.165719 185.802087,216.636182 187.863888,220.130132 C190.289134,224.242684 188.744036,228.511189 185.554301,231.577101 C179.505319,237.390824 167.603613,238.726425 159.707644,237.182493 C155.183676,236.298273 151.03744,234.601718 147.375949,232.136142 C147.351679,232.596242 147.335471,233.056465 147.299179,233.515885 L147.229265,234.312833 C146.622587,240.760805 144.850336,248.868644 139.841994,253.064289 C131.627701,259.946669 121.490148,246.710667 129.471775,239.836072 L129.719209,239.629726 C134.680373,235.621175 135.762718,224.866141 135.495556,218.942309 C135.320385,215.075928 134.616096,211.160035 133.395334,207.477648 L133.144299,206.744368 C132.776832,205.704151 128.770187,195.83676 127.322375,197.093402 L127.253261,197.164261 C126.656242,197.877109 125.691416,197.04675 126.149889,196.292214 Z M170.814304,144.367155 C178.365682,148.9572 189.871664,159.660291 181.748119,171.039573 C172.185929,181.073062 158.418535,169.568982 151.634201,164.366134 C145.343449,160.333898 138.275437,170.704507 144.112,175.412823 C193.135736,211.708059 213.030606,145.567387 174.633685,138.970386 C170.406047,138.243425 168.835891,142.947174 170.814304,144.367155 Z M90.1787,101.9403 C97.5587,100.6313 105.1187,102.4663 111.2257,106.7843 L111.688541,107.117181 C117.57206,111.42005 124.154854,118.975479 120.7787,126.3923 C119.4237,129.3703 115.3657,129.8373 112.7907,128.4873 C108.5037,126.2393 107.7267,120.7083 103.9017,117.6473 C100.7647,115.1383 96.5407,113.6163 92.5007,113.9833 C83.0097,114.8453 77.1717,124.2063 74.2237,132.2733 C73.8467,133.3053 72.3317,133.7063 71.7397,132.5983 C64.7887,119.6063 77.0927,104.2623 90.1787,101.9403 Z M208.3893,97.0373 C222.5263,95.8723 239.0733,110.5283 235.3513,125.4503 C233.5663,132.6103 222.9453,132.4053 221.0573,125.4503 C220.0183,121.6233 220.1223,118.2373 217.3673,115.0593 C215.0933,112.4353 211.8623,110.9113 208.3893,111.1453 C204.5613,111.4033 201.0303,113.3163 198.3473,116.0053 C195.9243,118.4333 194.4753,121.9863 191.9653,124.1353 C191.3473,124.6633 190.5203,124.6973 189.9103,124.1353 C185.5903,120.1523 188.1833,111.8603 190.9223,107.7023 C194.8423,101.7523 201.2253,97.6283 208.3893,97.0373 Z M63.2578,75.4751 C72.3268,67.4471 88.8058,59.6941 101.0348,63.6451 C108.0658,65.9161 111.1308,77.2451 103.2818,80.8361 C94.1928,84.9941 83.7138,83.3021 74.4628,87.6121 C70.5778,89.4231 66.9238,91.6861 64.2188,95.0051 C62.0878,97.6211 59.9198,101.0631 56.8378,102.5711 C56.0278,102.9681 54.9308,102.9781 54.2818,102.2421 C47.5258,94.6001 57.3588,80.6961 63.2578,75.4751 Z M192.8016,63.2466 C198.4066,61.6736 204.6246,61.7056 210.3186,62.6936 C216.0106,63.6816 221.7896,66.0406 226.4366,69.4816 L226.976058,69.8845105 C232.049154,73.7073503 238.103014,79.2694621 237.7786,86.0416 C237.5076,91.6966 231.5586,95.5216 226.4226,92.5576 C222.2356,90.1406 220.2656,85.2986 216.7206,82.0746 C213.7956,79.4136 210.3596,77.3156 206.6936,75.8456 C202.6216,74.2126 198.5426,73.4476 194.1726,73.3746 C190.8076,73.3186 187.4226,74.4226 184.1206,74.7756 C184.3926,75.3336 181.7826,75.0736 180.2866,74.5786 C179.1786,74.1066 179.1726,72.7056 179.5566,71.7966 C181.4616,67.2936 188.3926,64.4826 192.8016,63.2466 Z" id="ðŸ–-Ink" fill="#000000"/></g>

        <g id="facial-hair" transform="translate(279 400)"><path d="M-11.5714046,-16.2445506 C-4.5036342,-16.2445506 -1.60885814,0.21020417 -1.60885814,0.21020417 C16.3669846,31.2060244 33.6702345,62.1145317 64.5431853,83.439754 C98.8148257,97.1732276 132.524366,120.563082 171.574412,123.127705 C189.178832,121.279245 194.342239,105.166097 216.083764,110.835804 C229.954781,114.205982 245.529699,120.852835 258.353514,111.251939 C269.194027,104.166346 276.820336,93.432125 286.170347,84.7539177 C286.646648,83.1880181 289.751951,99.7121632 288.81365,105.297616 L288.088881,108.469125 C282.299567,134.041435 276.444928,164.133971 250.539105,178.191064 C242.646596,182.349329 231.573983,186.36169 222.815772,184.017978 C176.538718,191.397434 126.341258,185.997957 85.7974104,162.913268 C71.5237935,159.205045 60.906581,147.822476 49.6667677,139.224413 C22.1755352,115.145111 -9.32938734,84.6422841 -12.2652908,48.0614724 C-15.2011943,11.4806607 -13.8937483,-16.2445506 -11.5714046,-16.2445506 Z M128.254394,55.9858378 C144.006168,30.6921764 175.299795,34.7998857 199.650639,46.3236979 C213.102074,37.190697 230.849747,38.8719114 245.444207,45.3062012 L245.442009,45.3143575 C258.88575,52.6692881 269.067472,64.7456886 278.427094,76.2960087 C280.704353,79.3648112 281.609981,83.4878136 278.407311,85.0008046 C263.32047,97.4350621 231.97622,90.1376333 217.752144,80.8924835 C207.489092,80.06564 209.73894,65.4950474 197.893237,75.6924435 C189.988774,83.1228198 180.058738,87.7301017 169.272532,90.4604183 C145.155788,98.7400678 122.951414,97.3647141 101.948316,84.4584116 C99.2468185,84.1963909 88.1792519,77.9364416 92.1117001,75.7087561 C96.3892541,76.8638901 120.087255,63.2622642 128.254394,55.9858378 Z" id="ðŸŽ¨-Background" fill="#000"/><path d="M-15.2541583,10.948422 C-15.0933415,9.61801671 -13.0280563,9.55211428 -12.9817939,10.948422 C-12.0246031,40.2142492 -2.4945512,72.2994646 13.623485,97.3568039 C52.3583214,160.604601 131.419641,192.288223 207.513558,181.401966 C263.123151,180.648207 269.063572,149.138299 282.886113,105.13916 C290.060087,99.2491303 293.584813,101.359291 291.356515,108.263945 C274.222055,161.357154 268.355119,191.808927 200.560982,191.230695 C91.7044821,206.768223 -26.3461165,117.763903 -15.2541583,10.948422 Z M138.535374,34.5476174 C156.295694,26.6190522 177.428896,27.7378321 192.263182,38.7014624 L193.309189,38.9397327 C195.907041,39.5204648 198.399844,39.962437 201.320426,39.6652867 C240.574737,19.0003984 266.781056,55.0399884 286.906917,82.023969 C288.425101,82.0756209 289.661935,83.2667135 289.251496,84.6623475 L289.895841,85.3513838 C287.360386,92.1508386 282.779356,98.7147608 276.515746,102.838648 C255.978342,130.184192 240.642041,121.635804 213.88516,110.376725 C186.371394,106.258003 185.258133,138.690225 146.87435,123.833075 L145.426126,123.36136 C132.799418,119.190609 118.303552,112.864968 109.122776,103.723961 C108.82267,103.42438 109.116156,102.846912 109.575141,102.996703 C130.874947,109.418066 158.26183,130.384601 179.942284,116.258842 C185.422529,112.581227 190.345593,108.116438 196.47239,105.346864 C231.449087,93.6435782 243.741298,139.862723 274.3477,91.8781166 C249.425659,96.2210076 221.334851,91.9029095 202.70621,74.9342305 C174.858135,108.473869 120.656998,103.100006 86.195557,82.2677659 C81.4821269,82.9464717 74.5079715,78.2843721 78.8484757,73.8464417 C83.5961091,70.0727546 91.1075867,71.5520647 96.9442079,69.5056168 C115.575056,62.8776462 119.974036,41.7520231 138.535374,34.5476174 Z M200.796573,48.5727782 C181.11269,34.5708827 151.673992,32.2131362 132.836004,48.7307875 C121.071774,60.5463713 113.439968,77.5019045 94.4751514,80.6269772 C127.044875,99.3743151 173.842623,99.6893009 198.921708,69.8606577 C199.709151,67.2819047 203.790844,68.3941662 204.283823,70.635213 C222.240624,83.1644205 245.208831,89.8224984 267.575977,85.9807038 C271.181234,85.3889435 274.741272,84.54726 278.213082,83.4659808 L274.911924,78.9288281 C257.359527,54.9124981 234.778358,26.9459739 201.299479,46.6983542 C200.541812,47.0815009 200.223085,46.1014302 200.128239,45.5984856 L199.716871,45.8990131 C200.013541,46.5196901 202.480644,48.5634835 200.796573,48.5727782 Z M281.399289,90.2757857 C281.563359,90.4230158 281.698622,90.5838487 281.813847,90.7510829 C282.36492,90.4646243 282.936033,90.1733647 283.523427,89.8941076 L283.364367,89.7772837 C282.733138,89.9565204 282.075607,90.1221542 281.399289,90.2757857 Z M-12.7195703,-25.3678008 L-12.7270529,-26.32765 C-12.7261592,-35.9872095 -10.1303317,-23.8088618 -8.96468811,-21.4130327 C-3.95303838,-12.3906384 0.236921082,-3.46201263 5.54596541,5.3336884 C26.8339114,43.6324953 30.1305856,60.2326293 73.0259014,82.049801 C76.2124295,84.7783643 72.8650881,89.6759706 68.9064355,88.6692461 C62.9849786,87.1637963 57.4005689,83.3914133 52.2424248,80.3485706 C23.0327678,65.2837687 12.1371109,34.5523972 -0.968077775,7.80464564 C-4.81658418,-2.80151071 -13.6943637,-14.1165989 -12.7195703,-25.3678008 Z" id="ðŸ–-Ink" fill="#000000"/></g>

        <g id="eyewear" transform="translate(203 303)"><path d="M389.0901,63.2824 C379.5561,127.7714 313.0021,134.9034 301.1771,70.8814 C303.0751,70.0504 304.4401,68.4144 304.1551,65.2384 C304.0881,51.2864 308.4191,36.5404 321.0051,28.7814 C334.0111,20.7754 349.2321,19.9814 364.2831,20.1834 C393.0051,19.4994 392.4011,43.5064 389.0901,63.2824 M290.7581,35.2354 C281.7441,34.8554 270.3401,35.1734 262.2651,40.6654 C260.0451,34.6874 254.2771,28.3044 248.4491,24.8914 C270.1111,25.5254 292.4091,23.3934 314.2331,21.7384 C309.0091,25.2994 304.1491,30.6494 300.9901,36.8344 C298.0591,35.2714 293.8611,35.4174 290.7581,35.2354 M251.0261,70.1194 C226.0311,156.1554 163.6401,118.6554 156.8381,107.6294 C144.5691,89.3834 142.2611,45.0294 152.9481,33.1704 C168.2461,22.4464 189.9031,25.2064 207.9751,24.9434 C241.1761,25.3914 264.7561,35.3234 251.0261,70.1194 M418.6031,30.5484 C411.8121,29.6604 404.5551,29.4814 398.2411,32.4714 C396.2971,24.2084 390.1941,17.3004 383.3031,14.2604 C382.4691,13.2144 382.5941,12.6524 379.7451,12.8094 C362.2501,7.5514 342.6731,10.3334 325.8611,15.7254 C299.3091,17.9614 271.4521,19.7244 244.6771,22.8054 C219.5951,11.5414 143.9021,9.8904 139.1981,37.6534 C133.2811,36.7684 123.2041,32.1114 118.2321,38.4284 C81.7611,32.2454 44.0761,40.8384 7.4471,44.6654 C-1.7729,46.3634 -6.5219,64.6614 3.9441,64.4114 C9.8281,62.8144 3.7631,53.0174 11.6861,52.2804 C47.0271,48.4204 81.5951,42.9444 117.2981,42.3034 C116.0561,48.4684 140.9121,48.8694 141.2791,45.2694 C141.3321,45.2964 141.3881,45.3144 141.4421,45.3384 C135.3001,68.2284 140.8441,101.1704 151.9441,115.3644 C167.4961,133.9504 206.5411,139.2824 223.8541,127.3244 C246.1871,116.2874 269.4201,60.8854 262.8941,42.4794 C274.7381,38.7254 286.4471,39.8524 298.7391,41.7644 C295.9251,49.7134 291.0671,69.2814 298.0561,70.9784 C296.7731,109.8284 332.1301,134.0694 364.7241,118.1324 C392.9351,104.8894 402.8011,62.9714 399.3491,37.5284 C402.8611,44.3144 432.3491,36.9264 418.6031,30.5484" id="ðŸ–-Ink" fill="#000000"/></g>
    </g>
</svg>