<svg xmlns="http://www.w3.org/2000/svg" viewBox="0 0 704 704" fill="none" width="512" height="512">
    <desc>"Open Peeps" by "Pablo Stanley", licensed under "CC0 1.0". / Remix of the original.</desc>
    <mask id="viewbox"><rect width="704" height="704" rx="0" ry="0" x="0" y="0" fill="#ffffff" /></mask>
    <g mask="url(#viewbox)">
        <rect id="background" fill="#c0aede" width="704" height="704" x="0" y="0" />

        <g id="body"><path id="skin" d="M705.3 1074a2351.1 2351.1 0 0 1-15.6-101c-1-7.7-2.5-16.4 2.7-22 7.3-8 14-14.8 14.8-26.2.8-10.7-2.8-22.4-5-32.8a809.4 809.4 0 0 0-17.3-64.7c-6.6-21.7-13.9-43.2-21.3-64.6-6.9-20-13.5-40.3-22.5-59.5-17-36.5-46-63.5-81.6-81.6-9-4.5-27-20.5-36.3-24-8.5-3.4-8.5 6.3-16.9 2.6-6.7-2.9-13-6.7-16.7-13.2-4-7-14.3-16.9-15.9-25-3.3-17.4.3-32.2-12-45.3a90 90 0 0 0-41.1-23.8c-33.7-9.3-78.5-2.8-98.8 28.5-9.7 14.9-13 33-26.2 45.1-11.4 10.7-8.8 18-23.6 23.4-.9.3-23.6-4.5-24.4-4.2-16.2-3.5-31.7 6.2-46.5 11.8a325.4 325.4 0 0 0-63 32.3 399.2 399.2 0 0 0-102.3 98.5 482.5 482.5 0 0 0-76.4 161c-1.7 6.4-3.5 13-1.5 19.4 1.7 5.3 5.4 9.2 9.8 12.4 6 4.3 18 7 17.7 15.7-.1 6.6-2.4 13.5-3.5 20-1.3 7.7-2.3 15.5-3.4 23.2-4.8 35.4-8.6 71-10.3 106.6a920 920 0 0 0-.5 106c.1 2.3.8 4.5 2 6.2-1 .4-1.2 2.4.1 2.7l2.7.5a12 12 0 0 0 7 2.4l5.5.2c19.3 4 38.6 7.9 58.1 10.8 23.8 3.5 47.6 6.3 71.5 8.7 49.2 4.8 98 3.2 147.1.6a1877 1877 0 0 1 147.4-2c49.2 1.4 98.4 3.5 147.6 4.4 55 1 110-.5 164.8-5 7.5-.5 12.2-6.5 10.7-14-8.9-44.7-19-89.1-27-134Z" fill="#ffdbb4"/><path id="shirt" d="m201 597.5 1.2-.4c14.5-5.7 29.6-14.8 45.4-11.4.5-.2 10.8 1.9 17.9 3.2l-6.7 7L247 598c40.7 67.1 88.8 100.7 144.3 100.7 55.5 0 97.7-33.6 126.4-100.7l4-1c.4 0 1 .2 1.5.4 9.3 3.6 27.4 19.6 36.3 24.1 35.6 18 64.5 45 81.6 81.6 8.7 18.6 15.2 38 21.8 57.5l.7 2c7.4 21.4 14.7 43 21.3 64.6 6.3 20.4 12 41 16.6 61.8l.7 2.9c2.2 10.4 5.8 22 5 32.8a29 29 0 0 1-3 10.7l-80.4 29 38.4 261.3c-35.1 1.5-70.3 2-105.5 1.3-49.2-.9-98.4-3-147.6-4.3-47.7-1.2-95.3-.7-143 1.7l-12 .6a946.3 946.3 0 0 1-139.5-1l-3.1-.3v-38.3l16.3-212.9-83-15.6-81.3-39.5a21.7 21.7 0 0 1-5.6-8.8c-1.9-6-.5-12 1-18l.5-1.3a492.8 492.8 0 0 1 76.4-161A399.3 399.3 0 0 1 138 629.7c19.8-13 40.9-23.9 63-32.3Z" fill="#e279c7"/><path d="M232.2 584.6c5.1-.3 10.3.6 15.4 1 .4.1.6.8 0 .9-9 1.9-18 4.5-26.9 7.1l-3.8 1.2c-10 3-19.8 6-29.6 10-19.4 7.9-37.8 18.5-54.8 30.8C67.2 682.8 20 754.3-9.9 828.3a526 526 0 0 0-24.3 77c-.4 1.6-2 5.4-1 7 .7 1.3 3.6 2.1 5 2.9l4.5 2.3 25.2 12.9 2.3 1.1c38 18.6 78.4 34.4 121 35.5l.4-3.7a342 342 0 0 1 9.9-60c.3-1 1.6-.6 1.7.3 3 23.1 2 46.4 1 69.7-1.8 41-4.3 82.2-6.5 123.3-1.2 20.6-2.6 41-3.9 61.7-1.3 20.5-1.7 41.6-4.7 62-.6 4.6-6 7-10 6.6-4.4-.5-7.9-4.5-8-9 0-11.9 1.5-24 2.4-35.8l2.5-33.8c3.1-41.1 6.8-82.2 10.2-123.3a4771 4771 0 0 1 3.8-43.7C76.4 979.8 34.2 963-6.1 943.5c-.6 13.2-2 26.5-3.4 39.6-3.8 36.8-7.1 73.6-9.6 110.5a2254.2 2254.2 0 0 0-4.2 92.7l-.2 7c0 4.4-.5 8.5-4.3 11.7-3.7 3.3-8.9 3.5-12.6 0-5-4.6-4.2-10.9-4-17.1a1675.6 1675.6 0 0 1 1.8-47.2 1321 1321 0 0 1 10.5-109.5l2-14c3.5-26 7.5-52.7 15.5-77.9-3.1-1.5-6.2-3-9.3-4.7-5.5-2.7-11.2-5.4-16.6-8.4-4.2-2.5-7.9-5.8-9-10.8-1.4-5.5.6-11.5 2-16.9v-.4a502 502 0 0 1 26.6-80 523.2 523.2 0 0 1 67.8-117 353.8 353.8 0 0 1 88.7-83.3 239 239 0 0 1 53.8-25.7 142.6 142.6 0 0 1 42.8-7.5Zm90.1-66c6-6.5 18.1.2 15.2 8.8a108.2 108.2 0 0 1-34.7 52A79.4 79.4 0 0 1 247 598l1.7 2.4a321.1 321.1 0 0 0 46.1 52.6c36 31.2 84.8 48 132 36 37.1-9.4 69.8-38.8 79.4-76.2-1.3.6-3 .9-4.8.5-7.7-1.7-15.3-9.8-20.3-15.6-5.3-6.3-9.5-13-12.6-20.7-5.6-14-7.4-32.1.3-45.7 1-1.7 3-.7 3.3 1l.3 2.5c1.5 12.7 3.3 25 9.3 36.6a76 76 0 0 0 18.2 23.1c2.6 2 5.8 3.6 8.1 6l.5.4c.6-5 4.1-7.3 7.6-7.2 3.3.2 7.3 1.6 8.8 2.3l.1.1a341 341 0 0 1 65.1 42 259 259 0 0 1 88.4 129c7.5 25.3 11.8 51.4 16.3 77.4l2.8 16c4.2 23.9 8.9 48.4 18.4 70.7 2.5 5.7.6 11.1-5.5 13.4A1493 1493 0 0 1 688 953c3.7 16 6 32.5 8.7 48.5 6 34.1 13.2 68 19.4 102 3.2 17.5 6.1 35 9.3 52.3l4.7 25.2 2.4 13.6.1.7c.5 2.4 1 4.9.4 7.3-.8 2.7-2.9 4.6-4.8 6.6-1.6 1.6-3.8 1.6-5.7.7l-.7-.3c-3.4-1.6-6-3.2-7.3-7-.7-2.5-1-5.2-1.5-7.7a3535.6 3535.6 0 0 1-7.8-43.6l-1.6-9.1c-5.2-31.4-10.2-62.9-12.8-94.5-1-14-2.3-28.1-3.5-42.2l-.9-10.5c-1.1-13.3-2.5-27-2.7-40.5l-4.5 1.6L657 964c-5.5 2-12.5 6-18.4 5.2-2.9-.3-5-1.2-6.8-2.9 2 28.8 4.8 57.4 8.5 86a1965.7 1965.7 0 0 0 22 135c.6 3.2 1.4 6.4 1.9 9.6.5 3.7-.5 5.9-2.5 9-1.7 2.4-5 3.7-7.8 2-3.6-2.3-5.5-4.3-6.5-8.4-1-3.7-1.6-7.6-2.3-11.4a1654.2 1654.2 0 0 1-11.4-65.2c-7.8-52-12.7-104.4-15.2-156.8a1388 1388 0 0 1-1.4-77.8c0-13.3.5-26.6 1.4-39.9 1-13.4 3-26.5 4.8-39.8 0-.5.7-.5.7 0 .8 14.9 2.1 29.8 2.8 44.7.6 14.3.9 28.5 1.4 42.8.6 18.7 1.5 37.5 2.7 56.2a9.6 9.6 0 0 1 8.5-3.1c4.7-1 9.7-3.4 14.1-5l16.8-5.5 26.4-8.7a679 679 0 0 1-18-80.8l-2-12.3c-4-24.2-8.5-48.5-15.8-72a229.8 229.8 0 0 0-34.8-68.2 370.2 370.2 0 0 0-52.7-55.3C557 627 539.7 614 523 600c.1.9.2 2 0 3-3.5 25.9-17 50-35.8 67.9-37.7 36-93.6 43.4-142 26.5-46.7-16.3-88-55-102.6-102.8-.3-.8.8-1 1.3-.5l2.4 3.3c0-.4.2-.9.7-1a129 129 0 0 0 46.6-29.2 100.2 100.2 0 0 0 21.3-33.3l.4-1c1.7-5 3.2-10.2 7-14.2Z" fill="#000000"/></g>

        <g id="head" transform="matrix(.99789 0 0 1 156 62)"><path id="skin" d="M343.4072,146.7179 C277.6372,93.2619 172.2402,75.9049 101.8372,129.8359 C47.1332,180.4489 24.4952,324.2749 34.1762,396.5469 C36.8682,442.9019 72.2832,495.4429 124.2702,480.7819 C133.0982,479.9129 141.6702,476.5289 150.5792,475.8199 C161.2362,474.5929 171.9742,474.5719 182.6102,476.0749 C205.7862,479.3529 226.3312,491.6579 248.8252,497.4109 C290.5642,508.0849 337.1352,500.9049 373.0632,476.8609 C491.7902,398.8029 438.0102,222.2679 343.4072,146.7179 L343.4072,146.7179 Z" fill="#ffdbb4"/><path d="M334.6483,498.6955 C335.8693,498.2745 337.0883,497.8355 338.2983,497.3855 C338.3783,497.6655 338.5083,497.9345 338.6593,498.1955 C338.8293,498.6155 338.9993,499.0245 339.1883,499.4345 C337.6693,499.4455 336.1483,499.1745 334.6483,498.6955 M332.2093,-19.3255 C331.6693,-20.5345 331.0483,-21.6945 330.3483,-22.8155 C332.0483,-22.2645 333.7493,-21.5045 335.2893,-20.5245 C334.2493,-20.1745 333.2283,-19.7745 332.2093,-19.3255 M72.4193,138.8355 C72.3493,138.8235 72.2803,138.8135 72.2113,138.8015 C73.1033,136.4265 74.6923,134.1845 76.4473,132.5655 C76.7623,132.2745 77.1033,132.0055 77.4333,131.7275 C75.5703,133.9465 73.8803,136.3135 72.4193,138.8355 M547.7683,387.1845 C546.8883,378.8445 545.7683,370.5355 544.3183,362.2745 C542.9283,354.3655 541.7583,345.9055 537.7283,338.8855 C533.7283,331.8955 529.7183,325.1045 524.9593,318.9555 C525.6383,315.8155 526.5393,312.8655 527.3183,310.4855 C531.8183,296.7855 536.2493,279.3855 526.8983,266.6555 C524.7283,263.7055 522.0793,261.4455 519.0483,259.4055 C517.7583,258.5355 515.6193,257.7455 514.6283,256.5455 C513.9283,255.6955 514.1693,256.1555 514.1383,255.7355 C513.9683,253.4755 519.2683,248.7055 520.5083,246.9155 C522.8293,243.6045 524.5583,239.8755 525.8783,236.0655 C531.0983,220.9855 527.5483,204.3755 524.4093,189.2645 C522.7493,181.2555 520.9193,173.2255 520.3183,165.0455 C519.7583,157.3655 520.8083,149.8655 521.4283,142.2255 C522.0293,134.6845 521.8693,126.9055 518.6383,119.9245 C517.0583,116.5245 514.6693,113.5245 511.7583,111.1845 C508.9193,108.8955 505.3783,107.5655 502.6093,105.2855 C499.8483,103.0145 500.6383,99.9455 501.3593,96.8055 C502.3483,92.5455 503.5983,88.3155 503.7183,83.9155 C503.9383,76.2455 500.8083,68.7745 495.9193,62.9755 C490.8783,56.9855 483.6783,52.9345 475.8983,52.0245 C472.3383,51.6045 468.8383,52.3155 465.2983,52.0655 C461.7983,51.8255 461.0393,50.0755 460.3783,46.8755 C458.8593,39.5455 459.4783,32.3055 455.8693,25.4655 C452.6693,19.3855 446.9783,15.2645 440.6883,12.8355 C429.1593,8.3755 415.7493,9.2955 403.5883,11.9245 C396.4093,-9.1945 373.9993,-23.0445 351.9493,-23.2145 C348.5083,-29.0545 342.6783,-33.4145 336.0293,-35.9755 C325.0293,-40.2255 313.3783,-37.7445 301.9193,-37.7445 L301.8693,-37.7445 C300.7183,-37.8155 299.5683,-37.8445 298.4193,-37.8345 C297.3383,-37.8955 296.2583,-37.9855 295.1783,-38.1045 C282.1383,-39.6455 269.2383,-44.9855 256.3183,-39.7545 C250.5583,-37.4245 245.9783,-33.8345 243.0793,-29.2545 C238.7093,-28.0655 234.3983,-26.7045 230.1693,-25.1245 C211.8383,-24.6455 193.6783,-14.8155 184.4093,1.1155 C171.3593,-0.3645 157.1993,2.1455 148.5683,12.8055 C146.3203,15.5795 144.5793,18.8385 143.4253,22.2985 C134.6253,25.1445 126.4823,30.2155 121.1533,37.8535 C116.2903,44.8235 115.3563,53.8355 118.6453,61.3175 C110.7893,67.0085 104.6503,75.1555 101.6933,84.7755 C99.8963,90.6205 99.6293,96.6595 100.7853,102.4125 C92.7423,104.1965 85.0493,107.5035 78.2333,112.4665 C71.0903,117.6655 62.1693,125.9405 61.6993,135.4645 C61.6643,136.1635 61.6913,136.8625 61.7473,137.5595 C46.0223,136.4545 29.9883,139.1185 19.3593,151.7255 C11.3783,161.1845 7.9093,173.3655 10.0393,184.4555 C-8.6707,188.2555 -26.3617,198.0355 -38.7017,212.4955 C-47.6707,223.0055 -55.6407,236.3655 -55.1617,250.6745 C-55.0117,254.9855 -54.0007,259.3255 -52.2507,263.3355 L-52.2507,263.3445 C-53.0007,264.7555 -53.7717,266.3255 -54.5117,267.9955 C-66.1017,276.1045 -74.5217,288.8155 -79.2617,302.8255 C-83.0907,314.1745 -85.5007,328.9155 -81.4117,340.4655 C-80.7907,342.2255 -80.0007,343.8855 -79.0807,345.4245 C-79.8517,346.2455 -80.5807,347.0655 -81.2907,347.8955 C-89.1017,357.0245 -97.0117,368.5245 -96.4707,381.0945 C-96.2507,386.1555 -94.3717,391.2455 -91.3007,395.4245 C-102.1017,406.3755 -110.8007,420.1955 -109.9417,435.6255 C-109.2017,449.0555 -101.8307,462.6955 -90.2817,469.1455 C-92.2107,479.4955 -89.6307,490.4155 -81.5717,498.4955 C-77.5507,502.5355 -72.8117,505.1955 -67.7907,506.6155 C-66.6707,518.8055 -55.8517,528.6155 -44.3617,531.4345 C-42.2207,531.9655 -40.0807,532.2855 -37.9517,532.4345 C-27.6117,537.5055 -15.2817,536.9245 -4.7317,532.2745 C-1.6217,536.2255 2.4283,539.4455 7.1483,541.7555 C9.0583,542.6955 11.0793,543.4755 13.1883,544.1045 C28.0883,548.5145 43.3693,542.5355 56.3983,535.5555 C56.8183,535.3355 57.5883,535.0555 58.2683,534.7455 C60.0683,536.7555 63.3483,538.7455 65.0583,539.7255 C70.8593,543.0555 77.9493,544.6045 84.6093,544.1655 C92.4193,543.6455 99.3083,541.0655 105.6883,537.3955 C106.6193,537.5555 107.5583,537.6455 108.4993,537.6955 C114.4993,538.0145 119.8483,536.1155 124.6593,533.1155 C127.8383,533.5355 131.0983,533.4955 134.3983,532.9155 C141.6693,534.7645 148.7493,531.8255 154.4383,527.1555 C156.9593,525.0855 159.0883,522.6555 161.3693,520.3355 C163.7383,517.9245 165.5393,517.3655 168.3083,515.7455 C174.8593,511.9155 175.6483,502.2055 172.8083,495.1845 C173.3483,493.9555 173.6593,492.5855 173.6593,491.0655 C173.6383,477.8055 167.5293,465.6455 160.0293,455.0355 C156.6783,450.3055 153.0393,445.6745 149.0483,441.4755 C145.8383,438.1045 141.3293,432.6355 136.5793,431.2645 C136.2893,431.0555 135.9883,430.8445 135.6883,430.6455 C136.6093,427.4245 137.1483,424.1455 136.9193,420.7955 C136.6783,417.3545 135.5683,414.0945 133.7893,411.3155 C139.7583,399.7455 142.2793,387.0555 141.0793,373.8155 C145.9383,366.9245 149.6193,359.3155 151.5183,350.9755 C152.6883,345.8155 153.3593,340.3855 153.2683,335.0945 C153.2283,332.5555 152.2983,329.3445 152.2793,326.7155 C152.4193,327.5455 153.4993,324.4455 153.9193,323.6745 C158.7383,314.7255 164.9283,307.7455 165.9593,297.1955 C166.5583,291.0245 165.0983,284.2055 161.3983,279.1455 C163.7683,269.8055 163.7383,259.7745 160.0083,250.8655 C159.0083,248.4855 157.8593,246.1555 156.5393,243.9455 C157.1483,242.0855 157.7093,240.2055 158.4283,238.5145 C158.7093,237.8445 158.9883,237.1655 159.2683,236.4855 C161.9783,234.0945 164.4993,231.4855 166.6193,228.9245 C171.3183,223.2555 174.9093,216.7555 175.3593,209.2645 C175.5793,205.5145 174.6993,201.9245 173.6093,198.3655 C173.1283,196.7555 172.8383,194.9655 172.2683,193.3955 C171.9493,192.5245 171.1783,191.6355 170.9093,190.8155 C170.8483,190.6355 170.7983,190.4855 170.7583,190.3655 C170.7983,190.2455 170.8293,189.9955 170.8293,189.5245 C170.8383,185.9345 171.3083,182.4245 171.3293,178.9655 C174.6193,182.2855 178.5793,184.7645 183.0793,186.2155 C192.1483,189.1255 201.6093,187.8055 209.6383,183.3155 C218.2793,189.2355 227.9883,194.5945 238.1693,196.7455 C244.2183,198.0245 250.2793,197.4955 256.3483,198.2855 C262.3783,199.0755 268.2093,201.7055 273.8883,203.7555 C286.5293,208.3255 299.1383,213.0145 311.8183,217.4655 C322.0583,221.0555 333.1383,223.9055 343.8593,221.8855 C346.8693,226.5245 350.7793,230.4455 355.7893,233.3255 C359.3783,235.3755 363.3183,236.7645 367.3883,237.4555 C370.9883,238.0655 375.2093,237.8255 378.1283,240.2955 C380.9783,242.6955 382.7583,246.2745 385.3183,248.9755 C388.1693,251.9955 391.6883,254.6155 395.3783,256.4955 C398.3383,258.0055 401.3593,259.0945 404.4283,259.8055 C404.1593,266.6355 403.8983,273.4555 403.8183,280.2955 C403.6693,295.1555 403.7283,310.0145 403.5293,324.8755 C403.3293,339.6845 402.8593,354.4955 402.0793,369.2855 C401.3383,383.1655 400.2983,397.0945 396.9883,410.6355 C386.0083,455.5655 344.8783,487.7355 298.8383,489.3755 C285.1693,489.8655 271.6383,487.9455 258.5683,483.9245 C245.0293,479.7555 232.9383,471.1745 219.0583,468.5355 C215.4283,467.8545 212.0083,471.5055 214.0883,475.0145 C217.6693,481.0455 222.0183,484.7255 227.9683,488.3545 C234.1993,492.1455 241.1383,494.9555 247.9883,497.4155 C260.5883,501.9345 273.9193,504.5555 287.2893,505.2855 C297.4883,505.8445 307.7283,505.1455 317.7183,503.2255 C318.4193,505.3755 319.6593,507.4655 320.5983,509.4555 C320.7383,509.7455 321.2093,509.5455 321.1193,509.2455 C320.9683,508.7455 320.8693,508.3055 320.8293,507.9455 C324.1883,512.3255 329.3783,515.3545 334.7093,516.8255 C338.4683,517.8655 342.4593,518.1845 346.3293,517.7455 C347.5793,517.6045 348.7683,517.3955 349.9493,517.1355 C353.8883,520.5855 358.9283,522.8855 363.9883,524.0355 C363.1193,529.3155 365.7283,535.0755 371.7793,536.5755 C374.3183,537.2055 376.7583,537.2155 379.1993,536.9855 C381.1693,537.9055 383.2893,538.6255 385.5393,539.1155 C388.4683,539.7555 391.9683,538.9345 394.1783,536.8155 C395.3883,537.6655 396.5183,538.2555 397.6383,539.6045 C402.2493,545.1655 412.1883,540.7355 412.6283,534.3055 C414.0883,534.3055 415.5583,534.3255 417.0293,534.3755 C417.3783,534.5355 417.7283,534.6955 418.0883,534.8655 C424.5183,537.8545 431.1783,540.4655 438.2893,538.1155 C439.5983,537.6845 440.7983,537.1355 441.8883,536.4955 C446.8983,536.9455 451.8383,536.9555 456.9193,535.3155 C459.9193,534.3445 462.7383,532.8055 465.0883,530.7855 C472.9283,533.0855 481.1993,534.1255 488.9993,531.2745 C494.8383,529.1455 499.5393,525.7855 502.8483,521.3545 C507.9093,521.5355 513.0483,520.3155 517.6783,517.9055 C525.5983,513.8055 531.1483,506.0145 535.0183,498.2055 C543.5393,480.9755 548.5793,462.4655 550.5583,443.3755 C552.5083,424.5755 549.7283,405.8755 547.7683,387.1845" id="ðŸ–-Ink" fill="#000000"/></g>

        <g id="face" transform="translate(315 248)"><path d="M146.586567,240.926554 C139.864291,238.184203 133.866322,233.609781 129.481228,227.766254 C127.956691,225.734803 127.561405,223.589624 127.881219,221.627583 C128.240828,219.421406 129.546036,217.4219 131.326046,216.080693 C133.111571,214.735331 135.345035,214.071832 137.504329,214.410065 C139.380629,214.703969 141.248396,215.731287 142.726594,217.861908 L143.035427,218.287981 C145.642441,221.814933 149.039621,224.708755 152.91047,226.573991 C156.641339,228.371775 160.813939,229.21087 165.131898,228.722919 C173.355732,227.793938 179.024012,223.346401 185.048774,217.30672 C185.795561,216.544195 186.542826,215.757766 187.293714,214.958678 C187.767915,214.234308 188.425986,213.768756 189.156624,213.524488 C189.967867,213.253272 190.885573,213.268617 191.726122,213.56195 C192.536835,213.844871 193.261572,214.380994 193.747527,215.094538 C194.209389,215.772704 194.47125,216.610486 194.386283,217.574143 C193.834826,223.833283 190.562474,229.419299 185.914235,233.805502 C180.751772,238.67694 173.908551,242.047034 167.465957,243.229031 C160.36811,244.531047 153.135593,243.598228 146.586567,240.926554 L146.586567,240.926554 Z M170.814304,144.367155 C178.365682,148.9572 189.871664,159.660291 181.748119,171.039573 C172.185929,181.073062 158.418535,169.568982 151.634201,164.366134 C145.343449,160.333898 138.275437,170.704507 144.112,175.412823 C193.135736,211.708059 213.030606,145.567387 174.633685,138.970386 C170.406047,138.243425 168.835891,142.947174 170.814304,144.367155 Z M82.9633,102.1464 C83.7976284,91.7901242 99.5703,89.4384 101.1393,99.6864 C102.5443,108.8664 100.8903,117.2994 96.7553,125.5644 C92.8043,133.4604 82.8737826,129.776544 82.1227826,122.586544 C81.1160984,112.948648 82.4443,108.588596 82.9633,102.1464 Z M203.027,97.5615 C205.226,94.6815 208.401,92.7155 212.205,93.8265 C224.09,97.2995 220.587,114.1725 216.413,122.3855 C214.145,126.8455 206.814,127.9765 203.501,124.0495 C198.101,117.6455 195.515,104.8565 202.38,98.5485 C202.566,98.2225 202.773,97.8935 203.027,97.5615 Z M96.5879,56.8305 L98.465271,56.501905 C104.27307,55.49746 111.4944,54.5323 115.6029,59.2015 C117.7819,61.6775 118.5319,66.2795 115.6029,68.6495 C110.4509,72.8195 104.7549,71.2035 98.5809,71.5565 C93.4929,71.8485 88.6029,72.6905 83.7019,74.0915 C72.9499,77.1645 64.1889,82.7745 55.0059,88.9345 C53.8009,89.7425 52.5709,88.2015 53.1459,87.0745 C58.4469,76.6915 68.7199,68.1625 79.0099,62.9635 C84.5019,60.1885 90.5119,57.8865 96.5879,56.8305 Z M192.192876,52.1793876 L193.629806,52.4734684 C209.267042,55.742077 229.583473,62.2713911 236.988459,77.6308459 C237.270623,79.8027272 236.97249,80.2682047 236.730054,80.5723213 L236.649336,80.6735209 C236.449568,80.9332186 236.290169,81.2912104 235.348782,81.5868073 C235.087547,81.5245653 234.823712,81.4586426 234.557082,81.3887687 C231.162766,80.499243 228.477205,79.2737961 225.877298,78.0022488 L223.058339,76.6134493 C219.787784,75.0098309 216.488352,73.4645766 212.991711,72.3238115 C205.52958,69.8898666 197.854137,68.1753043 190.059777,67.259767 C188.37041,67.0615005 186.743655,66.4913394 185.460262,65.5141761 C184.242065,64.5866523 183.311441,63.3024737 182.887128,61.5955207 C182.33722,59.3864508 182.495251,57.7140037 183.680513,55.7210991 C184.571756,54.2244705 185.846982,53.1871113 187.311265,52.5914244 C188.804038,51.9841473 190.503545,51.840982 192.192876,52.1793876 Z" id="ðŸ–-Ink" fill="#000000"/></g>

        <g id="facial-hair" transform="translate(279 400)"><path d="M294.3921,32.7224 C293.0591,28.7404 286.2001,29.0874 286.6221,33.7744 C287.1051,39.1294 285.2721,45.1014 280.1421,47.7014 C274.7701,50.4234 268.7261,47.9764 265.4491,43.3064 C262.6001,39.2474 260.6351,34.8324 257.0501,31.2924 C253.7171,28.0004 249.6631,25.4614 245.2281,23.9544 C241.7741,22.7814 238.1911,22.4694 234.7161,22.8544 C226.0561,20.8974 216.0221,25.3484 210.6251,32.1004 C210.2771,32.5354 209.9541,32.9824 209.6421,33.4334 C209.1071,32.7054 208.5471,31.9844 207.9541,31.2734 C206.4251,29.4414 204.5271,29.0484 202.8131,29.5474 C193.0521,22.2884 179.3731,21.3264 168.2871,27.8774 C159.4051,33.1264 152.0581,40.8624 141.1361,41.4644 C132.4851,41.9414 123.0621,37.0054 122.4521,27.4984 C122.1321,22.5344 115.3681,18.3964 111.5731,22.9924 C103.5951,32.6564 101.9991,45.4934 106.4131,57.1784 C111.0711,69.5074 120.5611,78.1924 132.5771,83.3014 C145.5531,88.8184 160.7591,90.7344 174.7961,90.2974 C188.7901,89.8614 201.5141,84.4804 209.9491,73.0334 C210.9561,71.6674 211.8411,70.2794 212.6171,68.8754 C220.8071,79.3034 233.6451,83.6864 246.7211,84.0014 C260.4011,84.3294 276.5731,81.9284 286.2451,71.3044 C295.5661,61.0644 298.7831,45.8364 294.3921,32.7224" id="ðŸ–-Ink" fill="#000000"/></g>

        <g id="eyewear" transform="translate(203 303)"></g>
    </g>
</svg>