<svg xmlns="http://www.w3.org/2000/svg" viewBox="0 0 704 704" fill="none" width="512" height="512">
    <desc>"Open Peeps" by "Pablo Stanley", licensed under "CC0 1.0". / Remix of the original.</desc>
    <mask id="viewbox"><rect width="704" height="704" rx="0" ry="0" x="0" y="0" fill="#ffffff" /></mask>
    <g mask="url(#viewbox)">
        <rect id="background" fill="#c0aede" width="704" height="704" x="0" y="0" />

        <g id="body"><path id="skin" d="M705.3 1074a2351.1 2351.1 0 0 1-15.6-101c-1-7.7-2.5-16.4 2.7-22 7.3-8 14-14.8 14.8-26.2.8-10.7-2.8-22.4-5-32.8a809.4 809.4 0 0 0-17.3-64.7c-6.6-21.7-13.9-43.2-21.3-64.6-6.9-20-13.5-40.3-22.5-59.5-17-36.5-46-63.5-81.6-81.6-9-4.5-27-20.5-36.3-24-8.5-3.4-8.5 6.3-16.9 2.6-6.7-2.9-13-6.7-16.7-13.2-4-7-14.3-16.9-15.9-25-3.3-17.4.3-32.2-12-45.3a90 90 0 0 0-41.1-23.8c-33.7-9.3-78.5-2.8-98.8 28.5-9.7 14.9-13 33-26.2 45.1-11.4 10.7-8.8 18-23.6 23.4-.9.3-23.6-4.5-24.4-4.2-16.2-3.5-31.7 6.2-46.5 11.8a325.4 325.4 0 0 0-63 32.3 399.2 399.2 0 0 0-102.3 98.5 482.5 482.5 0 0 0-76.4 161c-1.7 6.4-3.5 13-1.5 19.4 1.7 5.3 5.4 9.2 9.8 12.4 6 4.3 18 7 17.7 15.7-.1 6.6-2.4 13.5-3.5 20-1.3 7.7-2.3 15.5-3.4 23.2-4.8 35.4-8.6 71-10.3 106.6a920 920 0 0 0-.5 106c.1 2.3.8 4.5 2 6.2-1 .4-1.2 2.4.1 2.7l2.7.5a12 12 0 0 0 7 2.4l5.5.2c19.3 4 38.6 7.9 58.1 10.8 23.8 3.5 47.6 6.3 71.5 8.7 49.2 4.8 98 3.2 147.1.6a1877 1877 0 0 1 147.4-2c49.2 1.4 98.4 3.5 147.6 4.4 55 1 110-.5 164.8-5 7.5-.5 12.2-6.5 10.7-14-8.9-44.7-19-89.1-27-134Z" fill="#ae5d29"/><path id="shirt" d="m201 597.5 1.2-.4c14.5-5.7 29.6-14.8 45.4-11.4.5-.2 10.8 1.9 17.9 3.2l-6.7 7L247 598c40.7 67.1 88.8 100.7 144.3 100.7 55.5 0 97.7-33.6 126.4-100.7l4-1c.4 0 1 .2 1.5.4 9.3 3.6 27.4 19.6 36.3 24.1 35.6 18 64.5 45 81.6 81.6 8.7 18.6 15.2 38 21.8 57.5l.7 2c7.4 21.4 14.7 43 21.3 64.6 6.3 20.4 12 41 16.6 61.8l.7 2.9c2.2 10.4 5.8 22 5 32.8a29 29 0 0 1-3 10.7l-80.4 29 38.4 261.3c-35.1 1.5-70.3 2-105.5 1.3-49.2-.9-98.4-3-147.6-4.3-47.7-1.2-95.3-.7-143 1.7l-12 .6a946.3 946.3 0 0 1-139.5-1l-3.1-.3v-38.3l16.3-212.9-83-15.6-81.3-39.5a21.7 21.7 0 0 1-5.6-8.8c-1.9-6-.5-12 1-18l.5-1.3a492.8 492.8 0 0 1 76.4-161A399.3 399.3 0 0 1 138 629.7c19.8-13 40.9-23.9 63-32.3Z" fill="#78e185"/><path d="M232.2 584.6c5.1-.3 10.3.6 15.4 1 .4.1.6.8 0 .9-9 1.9-18 4.5-26.9 7.1l-3.8 1.2c-10 3-19.8 6-29.6 10-19.4 7.9-37.8 18.5-54.8 30.8C67.2 682.8 20 754.3-9.9 828.3a526 526 0 0 0-24.3 77c-.4 1.6-2 5.4-1 7 .7 1.3 3.6 2.1 5 2.9l4.5 2.3 25.2 12.9 2.3 1.1c38 18.6 78.4 34.4 121 35.5l.4-3.7a342 342 0 0 1 9.9-60c.3-1 1.6-.6 1.7.3 3 23.1 2 46.4 1 69.7-1.8 41-4.3 82.2-6.5 123.3-1.2 20.6-2.6 41-3.9 61.7-1.3 20.5-1.7 41.6-4.7 62-.6 4.6-6 7-10 6.6-4.4-.5-7.9-4.5-8-9 0-11.9 1.5-24 2.4-35.8l2.5-33.8c3.1-41.1 6.8-82.2 10.2-123.3a4771 4771 0 0 1 3.8-43.7C76.4 979.8 34.2 963-6.1 943.5c-.6 13.2-2 26.5-3.4 39.6-3.8 36.8-7.1 73.6-9.6 110.5a2254.2 2254.2 0 0 0-4.2 92.7l-.2 7c0 4.4-.5 8.5-4.3 11.7-3.7 3.3-8.9 3.5-12.6 0-5-4.6-4.2-10.9-4-17.1a1675.6 1675.6 0 0 1 1.8-47.2 1321 1321 0 0 1 10.5-109.5l2-14c3.5-26 7.5-52.7 15.5-77.9-3.1-1.5-6.2-3-9.3-4.7-5.5-2.7-11.2-5.4-16.6-8.4-4.2-2.5-7.9-5.8-9-10.8-1.4-5.5.6-11.5 2-16.9v-.4a502 502 0 0 1 26.6-80 523.2 523.2 0 0 1 67.8-117 353.8 353.8 0 0 1 88.7-83.3 239 239 0 0 1 53.8-25.7 142.6 142.6 0 0 1 42.8-7.5Zm90.1-66c6-6.5 18.1.2 15.2 8.8a108.2 108.2 0 0 1-34.7 52A79.4 79.4 0 0 1 247 598l1.7 2.4a321.1 321.1 0 0 0 46.1 52.6c36 31.2 84.8 48 132 36 37.1-9.4 69.8-38.8 79.4-76.2-1.3.6-3 .9-4.8.5-7.7-1.7-15.3-9.8-20.3-15.6-5.3-6.3-9.5-13-12.6-20.7-5.6-14-7.4-32.1.3-45.7 1-1.7 3-.7 3.3 1l.3 2.5c1.5 12.7 3.3 25 9.3 36.6a76 76 0 0 0 18.2 23.1c2.6 2 5.8 3.6 8.1 6l.5.4c.6-5 4.1-7.3 7.6-7.2 3.3.2 7.3 1.6 8.8 2.3l.1.1a341 341 0 0 1 65.1 42 259 259 0 0 1 88.4 129c7.5 25.3 11.8 51.4 16.3 77.4l2.8 16c4.2 23.9 8.9 48.4 18.4 70.7 2.5 5.7.6 11.1-5.5 13.4A1493 1493 0 0 1 688 953c3.7 16 6 32.5 8.7 48.5 6 34.1 13.2 68 19.4 102 3.2 17.5 6.1 35 9.3 52.3l4.7 25.2 2.4 13.6.1.7c.5 2.4 1 4.9.4 7.3-.8 2.7-2.9 4.6-4.8 6.6-1.6 1.6-3.8 1.6-5.7.7l-.7-.3c-3.4-1.6-6-3.2-7.3-7-.7-2.5-1-5.2-1.5-7.7a3535.6 3535.6 0 0 1-7.8-43.6l-1.6-9.1c-5.2-31.4-10.2-62.9-12.8-94.5-1-14-2.3-28.1-3.5-42.2l-.9-10.5c-1.1-13.3-2.5-27-2.7-40.5l-4.5 1.6L657 964c-5.5 2-12.5 6-18.4 5.2-2.9-.3-5-1.2-6.8-2.9 2 28.8 4.8 57.4 8.5 86a1965.7 1965.7 0 0 0 22 135c.6 3.2 1.4 6.4 1.9 9.6.5 3.7-.5 5.9-2.5 9-1.7 2.4-5 3.7-7.8 2-3.6-2.3-5.5-4.3-6.5-8.4-1-3.7-1.6-7.6-2.3-11.4a1654.2 1654.2 0 0 1-11.4-65.2c-7.8-52-12.7-104.4-15.2-156.8a1388 1388 0 0 1-1.4-77.8c0-13.3.5-26.6 1.4-39.9 1-13.4 3-26.5 4.8-39.8 0-.5.7-.5.7 0 .8 14.9 2.1 29.8 2.8 44.7.6 14.3.9 28.5 1.4 42.8.6 18.7 1.5 37.5 2.7 56.2a9.6 9.6 0 0 1 8.5-3.1c4.7-1 9.7-3.4 14.1-5l16.8-5.5 26.4-8.7a679 679 0 0 1-18-80.8l-2-12.3c-4-24.2-8.5-48.5-15.8-72a229.8 229.8 0 0 0-34.8-68.2 370.2 370.2 0 0 0-52.7-55.3C557 627 539.7 614 523 600c.1.9.2 2 0 3-3.5 25.9-17 50-35.8 67.9-37.7 36-93.6 43.4-142 26.5-46.7-16.3-88-55-102.6-102.8-.3-.8.8-1 1.3-.5l2.4 3.3c0-.4.2-.9.7-1a129 129 0 0 0 46.6-29.2 100.2 100.2 0 0 0 21.3-33.3l.4-1c1.7-5 3.2-10.2 7-14.2Z" fill="#000000"/></g>

        <g id="head" transform="matrix(.99789 0 0 1 156 62)"><path id="skin" d="M242.041161,75.2596156 C298.821805,75.2596156 357.551668,119.271611 378.365264,147.356837 C402.432055,179.831825 421.416954,335.7285 412.510727,388.627648 C403.6045,441.526795 359.365264,499.183765 282.566771,499.183765 C205.768277,499.183765 159.031094,489.72438 157.157053,475.984472 C155.907692,466.824533 139.023041,436.751409 106.5031,385.7651 C73.2430134,376.410121 56.5475248,360.55971 56.4166341,338.213866 C56.2876114,315.868022 65.1995229,300.630067 83.1523686,292.5 C76.7512999,204.313833 81.6113554,148.741029 97.7325351,125.781589 C121.914305,91.3424282 185.260516,75.2596156 242.041161,75.2596156 Z" fill="#ae5d29"/><path d="M213.131911,62.0006544 L214.1441,62.0051 C276.96851,62.411 340.86433,91.3199108 378.24079,141.819932 L379.365264,143.356837 C379.426264,143.436837 380.54442,145.101688 380.808846,145.576157 C382.358288,148.356371 384.183034,150.957633 385.5831,153.7851 C386.764918,156.1851 387.550869,158.866092 388.419539,161.422365 L388.6831,162.1851 C390.9141,168.5651 392.7931,175.0051 394.4541,181.5551 C397.6731,194.3051 400.1831,207.2551 402.6241,220.1751 C411.344526,266.439355 417.04661,313.364561 419.919731,360.350706 L420.486794,369.798471 C421.066435,379.597307 421.504814,389.438314 420.4041,399.2051 C419.1331,410.5751 415.8641,421.2451 410.9141,431.5451 C406.3531,441.0451 400.4731,449.8451 393.7441,457.9351 C390.1441,462.2651 386.3241,466.4751 381.6241,469.6441 C377.8831,472.1651 373.5131,473.8251 369.3031,475.4251 C362.4541,482.2651 353.6641,487.4351 345.0741,491.5651 C330.9141,498.3551 315.5641,502.1051 300.0341,503.9851 C284.1541,505.8941 268.1141,505.4351 252.3641,502.7051 C237.3141,500.1051 221.1831,493.4551 211.9141,480.7851 C211.1141,479.6951 212.6031,478.6651 213.5831,479.1151 C240.4841,491.5651 270.7131,494.8151 300.0341,490.8851 C313.7131,489.0551 327.1731,485.2751 339.6641,479.4051 C350.2041,474.4551 359.0931,467.2551 368.5531,460.7351 C370.3941,458.2851 372.2531,455.8751 374.3741,453.6351 L377.682932,450.165223 C380.156183,447.558828 382.584638,444.917408 384.7931,442.0651 C391.6141,433.2751 397.2631,423.3051 400.9941,412.8151 C408.2497,392.395671 406.287498,370.230447 405.005225,348.950388 L404.8941,347.0751 C403.5741,324.3151 401.4231,301.6351 398.4441,279.0351 C395.4631,256.4051 391.6731,233.8651 387.1941,211.4851 C384.9841,200.4551 382.5031,189.4951 380.3141,178.4651 C379.1831,172.7751 378.3941,167.0051 377.5341,161.2551 C377.0131,157.7551 377.0231,154.3851 377.0131,150.9651 C376.9141,151.1251 376.7931,151.2751 376.6731,151.4251 C377.0341,152.2751 376.7841,153.3651 375.9041,153.8651 C372.5741,155.7651 368.7341,155.1251 364.9841,155.1351 C361.0031,155.1551 357.0231,155.1651 353.0431,155.1751 C348.8981,155.1901 344.7531,155.1901 340.6081,155.18385 L328.1731,155.1551 L278.4331,155.0051 C245.858681,154.907426 212.73188,156.202634 180.262227,153.131938 L177.783241,152.887188 C175.231932,152.593371 146.437335,149.07211 138.650545,148.162663 L138.4141,148.1351 C124.1831,146.4951 110.1541,144.0651 96.3241,140.4251 C100.8431,142.2351 105.1941,144.6751 109.6731,146.5251 C115.4541,148.9051 121.3831,150.9851 127.3141,152.9751 C139.4841,157.0651 151.6731,161.0351 163.7931,165.2551 C167.268,166.4629 175.164131,196.230814 177.154601,200.940119 L177.2131,201.0751 C178.2231,203.3451 179.6141,205.8351 178.8431,208.4151 C177.1441,214.1151 168.1331,218.3351 163.6641,221.5551 L159.0686,224.87135 L159.0686,224.87135 L153.059075,229.219137 C150.594086,230.984712 148.318363,232.335626 145.0931,231.3251 C145.0831,231.3151 145.0741,231.3151 145.0641,231.3151 C147.8241,244.1251 149.1641,285.5551 149.5741,292.8251 C149.9331,299.1551 151.7931,307.2651 148.8331,313.0351 C148.1331,314.4051 146.3141,315.4851 144.7631,315.3751 C138.0031,314.8651 131.2441,314.3651 124.4841,313.8651 C122.6731,313.7251 121.0231,312.6951 120.5231,310.8551 L120.5031,310.7551 L120.5031,310.7551 C120.2841,310.8151 120.0341,310.7751 119.8241,310.5551 C119.4541,310.1851 119.0741,309.8251 118.6831,309.4751 C109.7841,301.5351 95.8641,299.5751 84.8831,303.7051 C79.1241,305.8651 72.5741,309.5051 68.5131,314.2251 C64.0031,319.4651 63.0341,326.7851 63.0231,333.4751 C63.0031,346.3751 67.6641,359.4351 77.1731,368.3851 C85.911031,376.600686 97.1855423,378.99174 108.52862,381.343061 L109.7441,381.5951 C112.3331,382.1351 113.1541,385.9951 111.2041,387.6151 C116.3941,392.6951 120.8741,398.7551 125.2441,404.3451 C131.0466,411.760933 136.596176,419.470864 141.994503,427.1976 L144.600655,430.93532 C153.887812,444.189372 167.3305,462.4455 161.4841,479.0151 C160.7041,481.2451 157.4441,482.0451 156.1731,479.7051 C152.0031,472.0051 149.6731,463.5251 145.7131,455.7351 C141.8241,448.0951 136.9841,441.0151 132.1831,433.9351 L129.414095,429.832137 C124.803794,422.979822 120.236433,416.053433 116.0031,408.9951 L113.055323,404.107864 C110.285593,399.492967 107.544153,394.724047 105.5031,389.7651 C91.8531,393.0551 77.0131,385.7351 67.4231,375.9851 C55.3641,363.7051 49.6941,345.6151 51.2531,328.6051 C52.0741,319.7051 54.7041,311.0951 61.2231,304.6951 C61.8831,304.0551 62.5741,303.4451 63.2841,302.8351 C63.0341,302.7051 62.8241,302.5051 62.7231,302.2651 C58.3531,291.8851 57.4231,279.5151 57.0531,268.3351 C56.6641,256.7751 56.9141,245.1851 57.7931,233.6451 C59.4041,212.4851 63.2231,191.4351 69.2841,171.0951 C78.2531,141.0351 93.6641,111.6051 118.2841,91.4351 C144.53791,69.9224 179.71161,61.944881 213.131911,62.0006544 Z M82.4444,324.9251 C86.1520087,323.242491 91.9362951,326.239585 95.2370772,328.14945 L95.4534,328.2751 C105.2034,333.9451 112.1444,343.6051 115.3534,354.3051 C117.4134,361.2051 105.8434,363.9551 104.8634,357.1951 C104.0644,351.6851 102.2234,346.5251 99.1944,341.9151 C98.4734,342.1551 97.7734,342.4651 97.1444,342.8651 C94.7344,344.4251 93.3334,347.1051 89.9844,346.7051 C87.5034,346.4151 84.9634,344.6951 85.1334,341.8551 C85.4044,337.1651 89.1834,335.2951 93.2344,335.0551 C92.65615,334.5376 92.0728375,334.025725 91.4756031,333.532131 L90.8217493,333.006821 C90.0805155,332.471445 82.1560075,327.005825 81.9281084,328.411539 L81.9234,328.4951 C81.9334,329.0551 81.1834,329.3751 80.8034,328.9551 C79.2734,327.3151 80.6944,325.7251 82.4444,324.9251 Z" id="ðŸ–-Ink" fill="#000000"/></g>

        <g id="face" transform="translate(315 248)"><path style=" stroke:none;fill-rule:evenodd;fill:rgb(0%,0%,0%);fill-opacity:1;" d="M 127.09375 64.90625 C 132.585938 64.816406 136.035156 67.425781 137.441406 72.726562 C 137.988281 77.246094 136.285156 80.632812 132.339844 82.882812 C 131.1875 83.480469 129.980469 83.925781 128.714844 84.21875 C 119.59375 88.425781 110.117188 91.605469 100.292969 93.757812 C 89.773438 95.964844 79.152344 96.726562 68.433594 96.046875 C 63.515625 95.648438 58.84375 94.378906 54.414062 92.230469 C 53.914062 91.726562 53.800781 91.140625 54.082031 90.464844 C 54.304688 90.144531 54.609375 89.9375 54.984375 89.84375 C 56.652344 89.398438 58.335938 89.046875 60.042969 88.796875 C 69.839844 87.957031 79.472656 86.207031 88.941406 83.550781 C 100 80.324219 110.269531 75.492188 119.75 69.054688 C 121.640625 66.679688 124.085938 65.296875 127.09375 64.90625 Z M 127.09375 64.90625 "/><path style=" stroke:none;fill-rule:evenodd;fill:rgb(0%,0%,0%);fill-opacity:1;" d="M 178.503906 65.382812 C 178.859375 65.371094 179.210938 65.417969 179.550781 65.523438 C 181.621094 66.207031 183.589844 67.097656 185.464844 68.195312 C 192.785156 73.03125 200.734375 76.464844 209.308594 78.496094 C 214.09375 79.5625 218.929688 79.878906 223.808594 79.449219 C 226.453125 79.035156 229.089844 78.589844 231.722656 78.113281 C 233.652344 77.8125 235.59375 77.714844 237.542969 77.828125 C 240.703125 78.445312 242.976562 80.210938 244.363281 83.121094 C 245.324219 85.34375 245.417969 87.601562 244.648438 89.894531 C 243.984375 91.289062 243.015625 92.417969 241.738281 93.28125 C 238.011719 95.234375 234.039062 96.285156 229.816406 96.425781 C 223.957031 96.613281 218.203125 95.910156 212.554688 94.328125 C 204.269531 92.203125 196.671875 88.675781 189.757812 83.742188 C 186.5625 81.375 183.75 78.625 181.316406 75.492188 C 179.332031 72.828125 178.171875 69.839844 177.835938 66.527344 C 177.816406 65.988281 178.039062 65.609375 178.503906 65.382812 Z M 178.503906 65.382812 "/><path style=" stroke:none;fill-rule:evenodd;fill:rgb(0%,0%,0%);fill-opacity:1;" d="M 97.527344 98.382812 C 104.136719 98.246094 109.890625 100.363281 114.789062 104.726562 C 117.847656 107.660156 119.867188 111.207031 120.847656 115.359375 C 122.824219 116.386719 124.003906 118.007812 124.375 120.222656 C 124.984375 123.691406 123.792969 126.347656 120.796875 128.1875 C 118.125 129.507812 115.359375 129.730469 112.5 128.855469 C 109.191406 128.058594 107.332031 125.976562 106.921875 122.609375 C 106.910156 121.078125 106.976562 119.550781 107.109375 118.03125 C 106.855469 116.71875 106.3125 115.542969 105.488281 114.5 C 101.722656 110.4375 97.414062 109.785156 92.566406 112.546875 C 86.898438 116.359375 84.070312 121.714844 84.078125 128.617188 C 83.984375 130.636719 84.445312 132.511719 85.460938 134.242188 C 85.847656 134.695312 86.292969 135.078125 86.796875 135.386719 C 87.03125 135.964844 86.839844 136.3125 86.222656 136.4375 C 78.640625 135.183594 74.777344 130.714844 74.632812 123.039062 C 75.089844 114.460938 78.746094 107.625 85.601562 102.53125 C 89.183594 100.007812 93.160156 98.625 97.527344 98.382812 Z M 97.527344 98.382812 "/><path style=" stroke:none;fill-rule:evenodd;fill:rgb(0%,0%,0%);fill-opacity:1;" d="M 209.40625 98.953125 C 215.871094 99.121094 221.164062 101.664062 225.285156 106.585938 C 229.28125 111.863281 229.914062 117.519531 227.195312 123.5625 C 225.3125 126.558594 222.628906 127.71875 219.132812 127.042969 C 215.6875 126.046875 213.699219 123.773438 213.171875 120.222656 C 213.203125 118.699219 213.238281 117.171875 213.269531 115.644531 C 212.539062 112.820312 210.710938 111.566406 207.785156 111.878906 C 205.457031 112.222656 203.5 113.257812 201.917969 114.976562 C 198.523438 118.90625 197.1875 123.449219 197.914062 128.617188 C 198.152344 129.621094 198.484375 130.589844 198.914062 131.527344 C 198.796875 132.109375 198.449219 132.332031 197.863281 132.195312 C 195.6875 129.28125 193.859375 126.148438 192.378906 122.796875 C 190.398438 116.46875 191.511719 110.746094 195.71875 105.628906 C 199.324219 101.453125 203.886719 99.226562 209.40625 98.953125 Z M 209.40625 98.953125 "/><path style=" stroke:none;fill-rule:evenodd;fill:rgb(0%,0%,0%);fill-opacity:1;" d="M 172.875 138.820312 C 179.570312 139.269531 185.148438 141.96875 189.613281 146.929688 C 193.667969 152.074219 195.351562 157.921875 194.667969 164.480469 C 193.863281 171.773438 190.570312 177.636719 184.796875 182.074219 C 179.773438 185.445312 174.242188 186.78125 168.203125 186.082031 C 163.660156 185.542969 159.335938 184.269531 155.230469 182.265625 C 151.542969 180.457031 148.046875 178.359375 144.738281 175.972656 C 142.015625 174.039062 141.207031 171.476562 142.304688 168.292969 C 143.25 165.824219 144.980469 164.21875 147.503906 163.476562 C 148.765625 163.234375 149.972656 163.394531 151.128906 163.953125 C 154.101562 166.257812 157.152344 168.453125 160.285156 170.535156 C 162.785156 172.132812 165.457031 173.375 168.296875 174.253906 C 173.53125 175.84375 178.03125 174.683594 181.792969 170.773438 C 185.042969 165.929688 185.265625 160.9375 182.460938 155.800781 C 180.691406 152.855469 178.480469 150.261719 175.832031 148.027344 C 174.152344 146.613281 172.371094 145.34375 170.492188 144.210938 C 169.488281 142.371094 169.804688 140.78125 171.445312 139.441406 C 171.910156 139.179688 172.386719 138.972656 172.875 138.820312 Z M 172.875 138.820312 "/><path style=" stroke:none;fill-rule:evenodd;fill:rgb(0%,0%,0%);fill-opacity:1;" d="M 161.90625 207.875 C 164.832031 207.859375 167.757812 207.875 170.683594 207.921875 C 176.957031 208.007812 182.839844 209.5625 188.328125 212.597656 C 193.058594 215.105469 197.476562 218.0625 201.585938 221.46875 C 203.835938 223.460938 205.726562 225.734375 207.257812 228.285156 C 210.171875 233.722656 210.460938 239.285156 208.117188 244.976562 C 206.035156 249.15625 202.746094 251.875 198.246094 253.132812 C 193.308594 253.925781 188.347656 254.558594 183.367188 255.039062 C 166.984375 256.691406 150.578125 258.089844 134.152344 259.234375 C 130.039062 259.53125 126 259.117188 122.039062 257.996094 C 117.171875 256.339844 113.660156 253.179688 111.5 248.507812 C 110.304688 245.460938 110.082031 242.347656 110.832031 239.160156 C 111.734375 235.828125 113.195312 232.777344 115.21875 230.003906 C 124.082031 218.40625 135.765625 211.425781 150.269531 209.066406 C 154.140625 208.449219 158.019531 208.050781 161.90625 207.875 Z M 161.90625 207.875 "/><path style=" stroke:none;fill-rule:evenodd;fill:rgb(100%,100%,100%);fill-opacity:1;" d="M 161.90625 217.222656 C 168.765625 217.027344 175.28125 218.410156 181.460938 221.371094 C 182.257812 221.820312 182.972656 222.375 183.605469 223.039062 C 184.179688 223.855469 184.003906 224.445312 183.082031 224.804688 C 179.835938 225.75 176.53125 226.382812 173.160156 226.710938 C 163.402344 227.910156 153.609375 228.355469 143.785156 228.046875 C 142.882812 227.949219 141.992188 227.792969 141.113281 227.570312 C 140.40625 227.375 140.199219 226.945312 140.492188 226.285156 C 140.882812 225.703125 141.34375 225.179688 141.878906 224.710938 C 144.476562 222.871094 147.273438 221.375 150.269531 220.226562 C 154.042969 218.761719 157.921875 217.761719 161.90625 217.222656 Z M 161.90625 217.222656 "/></g>

        <g id="facial-hair" transform="translate(279 400)"><path d="M258.6349,38.6644 C252.0409,37.4254 245.2239,37.7734 238.6739,36.3314 C232.2839,34.9234 227.2089,30.7364 221.0349,28.7874 C215.6019,27.0714 209.2339,28.2334 205.0029,31.5594 C201.0719,29.7424 196.6049,29.3494 192.1329,29.9494 C185.3509,30.8594 179.0229,33.7294 172.9819,36.8334 C172.2819,37.1934 171.5809,37.5364 170.8809,37.8834 C159.7189,37.6044 148.2759,37.6264 137.3229,40.0184 C127.6239,42.1374 118.4549,47.0694 112.6709,55.3074 C106.1979,64.5284 105.0289,76.2704 104.0309,87.1664 C103.3959,94.0824 113.0019,95.4854 116.2569,90.4774 C119.6319,85.2854 123.1449,80.0814 127.6419,75.7794 C132.7499,70.8924 138.9629,68.9684 145.9259,68.5224 C161.2939,67.5384 176.7639,68.3634 192.1469,67.6824 C201.0639,67.2874 210.9919,63.8584 214.5859,56.1064 C218.4219,62.1174 227.1139,65.6914 234.2629,66.2334 C241.8179,66.8074 249.4889,65.4344 256.9689,67.0084 C264.1149,68.5124 272.6089,73.8344 271.0199,82.3464 C270.0859,87.3464 276.4069,90.2944 279.3159,85.8444 C291.1949,67.6614 279.4899,42.5854 258.6349,38.6644" id="ðŸ–-Ink" fill="#000000"/></g>

        <g id="eyewear" transform="translate(203 303)"><path d="M372.3111,95.4577 C360.1701,108.0027 339.9021,111.6027 323.7491,104.8747 C282.2731,87.5457 302.5741,33.4957 334.5611,18.9807 C338.5571,17.9847 343.8941,15.6217 348.7611,15.0857 C349.2011,14.8697 350.1591,15.4947 351.3201,14.9037 C386.5911,18.8417 394.6231,73.5937 372.3111,95.4577 M238.5331,98.6687 C224.9161,116.7297 199.6001,122.3017 178.9161,113.9057 C138.0541,97.8137 152.5471,49.8847 180.5041,31.0947 C239.5611,8.9037 263.9481,65.3677 238.5331,98.6687 M149.9531,58.6507 C149.9151,58.6327 149.8771,58.6237 149.8381,58.6057 C150.0541,58.5107 150.2701,58.4157 150.4851,58.3187 C150.4151,58.5017 150.3391,58.6827 150.2711,58.8657 C150.1651,58.7927 150.0721,58.7077 149.9531,58.6507 M400.4231,39.1277 C397.0891,39.1347 392.2731,39.6827 389.5131,41.9957 C382.7071,19.0427 357.5851,-2.2003 335.7371,13.2897 C318.5321,18.8227 305.7651,31.0937 298.5091,47.4077 C285.4261,39.6257 264.8541,42.9487 253.5091,53.2397 C246.0791,28.6887 227.7931,20.0917 206.0281,18.8227 C182.2721,14.9317 158.5941,38.0027 151.2061,56.5107 C145.0631,55.8117 135.8841,53.8567 130.1051,57.6477 C92.5981,47.8117 27.0231,42.3887 19.3981,47.8537 C13.9641,49.9387 10.9821,62.7647 18.5721,63.4567 C25.1861,62.5177 17.8001,54.0587 24.4671,53.1357 C59.9901,50.9337 94.4751,58.0877 129.6221,61.0897 C132.7601,65.3107 142.8991,66.7227 148.3081,65.0267 C139.7891,96.4227 158.1791,117.7827 185.7341,124.1807 C228.4011,133.9817 265.5221,95.8137 254.3651,56.1137 C267.2901,49.6837 282.1571,49.9597 296.2371,53.3467 C272.7091,139.9367 412.1661,136.0517 390.3851,44.9627 C404.8801,52.1727 408.0281,40.5827 400.4231,39.1277" id="ðŸ–-Ink" fill="#000000"/></g>
    </g>
</svg>