<svg xmlns="http://www.w3.org/2000/svg" viewBox="0 0 704 704" fill="none" width="512" height="512">
    <desc>"Open Peeps" by "Pablo Stanley", licensed under "CC0 1.0". / Remix of the original.</desc>
    <mask id="viewbox"><rect width="704" height="704" rx="0" ry="0" x="0" y="0" fill="#ffffff" /></mask>
    <g mask="url(#viewbox)">
        <rect id="background" fill="#ffdfbf" width="704" height="704" x="0" y="0" />

        <g id="body"><path id="skin" d="M705.3 1074a2351.1 2351.1 0 0 1-15.6-101c-1-7.7-2.5-16.4 2.7-22 7.3-8 14-14.8 14.8-26.2.8-10.7-2.8-22.4-5-32.8a809.4 809.4 0 0 0-17.3-64.7c-6.6-21.7-13.9-43.2-21.3-64.6-6.9-20-13.5-40.3-22.5-59.5-17-36.5-46-63.5-81.6-81.6-9-4.5-27-20.5-36.3-24-8.5-3.4-8.5 6.3-16.9 2.6-6.7-2.9-13-6.7-16.7-13.2-4-7-14.3-16.9-15.9-25-3.3-17.4.3-32.2-12-45.3a90 90 0 0 0-41.1-23.8c-33.7-9.3-78.5-2.8-98.8 28.5-9.7 14.9-13 33-26.2 45.1-11.4 10.7-8.8 18-23.6 23.4-.9.3-23.6-4.5-24.4-4.2-16.2-3.5-31.7 6.2-46.5 11.8a325.4 325.4 0 0 0-63 32.3 399.2 399.2 0 0 0-102.3 98.5 482.5 482.5 0 0 0-76.4 161c-1.7 6.4-3.5 13-1.5 19.4 1.7 5.3 5.4 9.2 9.8 12.4 6 4.3 18 7 17.7 15.7-.1 6.6-2.4 13.5-3.5 20-1.3 7.7-2.3 15.5-3.4 23.2-4.8 35.4-8.6 71-10.3 106.6a920 920 0 0 0-.5 106c.1 2.3.8 4.5 2 6.2-1 .4-1.2 2.4.1 2.7l2.7.5a12 12 0 0 0 7 2.4l5.5.2c19.3 4 38.6 7.9 58.1 10.8 23.8 3.5 47.6 6.3 71.5 8.7 49.2 4.8 98 3.2 147.1.6a1877 1877 0 0 1 147.4-2c49.2 1.4 98.4 3.5 147.6 4.4 55 1 110-.5 164.8-5 7.5-.5 12.2-6.5 10.7-14-8.9-44.7-19-89.1-27-134Z" fill="#d08b5b"/><path id="shirt" d="m201 597.5 1.2-.4c14.5-5.7 29.6-14.8 45.4-11.4.5-.2 10.8 1.9 17.9 3.2l-6.7 7L247 598c40.7 67.1 88.8 100.7 144.3 100.7 55.5 0 97.7-33.6 126.4-100.7l4-1c.4 0 1 .2 1.5.4 9.3 3.6 27.4 19.6 36.3 24.1 35.6 18 64.5 45 81.6 81.6 8.7 18.6 15.2 38 21.8 57.5l.7 2c7.4 21.4 14.7 43 21.3 64.6 6.3 20.4 12 41 16.6 61.8l.7 2.9c2.2 10.4 5.8 22 5 32.8a29 29 0 0 1-3 10.7l-80.4 29 38.4 261.3c-35.1 1.5-70.3 2-105.5 1.3-49.2-.9-98.4-3-147.6-4.3-47.7-1.2-95.3-.7-143 1.7l-12 .6a946.3 946.3 0 0 1-139.5-1l-3.1-.3v-38.3l16.3-212.9-83-15.6-81.3-39.5a21.7 21.7 0 0 1-5.6-8.8c-1.9-6-.5-12 1-18l.5-1.3a492.8 492.8 0 0 1 76.4-161A399.3 399.3 0 0 1 138 629.7c19.8-13 40.9-23.9 63-32.3Z" fill="#e279c7"/><path d="M232.2 584.6c5.1-.3 10.3.6 15.4 1 .4.1.6.8 0 .9-9 1.9-18 4.5-26.9 7.1l-3.8 1.2c-10 3-19.8 6-29.6 10-19.4 7.9-37.8 18.5-54.8 30.8C67.2 682.8 20 754.3-9.9 828.3a526 526 0 0 0-24.3 77c-.4 1.6-2 5.4-1 7 .7 1.3 3.6 2.1 5 2.9l4.5 2.3 25.2 12.9 2.3 1.1c38 18.6 78.4 34.4 121 35.5l.4-3.7a342 342 0 0 1 9.9-60c.3-1 1.6-.6 1.7.3 3 23.1 2 46.4 1 69.7-1.8 41-4.3 82.2-6.5 123.3-1.2 20.6-2.6 41-3.9 61.7-1.3 20.5-1.7 41.6-4.7 62-.6 4.6-6 7-10 6.6-4.4-.5-7.9-4.5-8-9 0-11.9 1.5-24 2.4-35.8l2.5-33.8c3.1-41.1 6.8-82.2 10.2-123.3a4771 4771 0 0 1 3.8-43.7C76.4 979.8 34.2 963-6.1 943.5c-.6 13.2-2 26.5-3.4 39.6-3.8 36.8-7.1 73.6-9.6 110.5a2254.2 2254.2 0 0 0-4.2 92.7l-.2 7c0 4.4-.5 8.5-4.3 11.7-3.7 3.3-8.9 3.5-12.6 0-5-4.6-4.2-10.9-4-17.1a1675.6 1675.6 0 0 1 1.8-47.2 1321 1321 0 0 1 10.5-109.5l2-14c3.5-26 7.5-52.7 15.5-77.9-3.1-1.5-6.2-3-9.3-4.7-5.5-2.7-11.2-5.4-16.6-8.4-4.2-2.5-7.9-5.8-9-10.8-1.4-5.5.6-11.5 2-16.9v-.4a502 502 0 0 1 26.6-80 523.2 523.2 0 0 1 67.8-117 353.8 353.8 0 0 1 88.7-83.3 239 239 0 0 1 53.8-25.7 142.6 142.6 0 0 1 42.8-7.5Zm90.1-66c6-6.5 18.1.2 15.2 8.8a108.2 108.2 0 0 1-34.7 52A79.4 79.4 0 0 1 247 598l1.7 2.4a321.1 321.1 0 0 0 46.1 52.6c36 31.2 84.8 48 132 36 37.1-9.4 69.8-38.8 79.4-76.2-1.3.6-3 .9-4.8.5-7.7-1.7-15.3-9.8-20.3-15.6-5.3-6.3-9.5-13-12.6-20.7-5.6-14-7.4-32.1.3-45.7 1-1.7 3-.7 3.3 1l.3 2.5c1.5 12.7 3.3 25 9.3 36.6a76 76 0 0 0 18.2 23.1c2.6 2 5.8 3.6 8.1 6l.5.4c.6-5 4.1-7.3 7.6-7.2 3.3.2 7.3 1.6 8.8 2.3l.1.1a341 341 0 0 1 65.1 42 259 259 0 0 1 88.4 129c7.5 25.3 11.8 51.4 16.3 77.4l2.8 16c4.2 23.9 8.9 48.4 18.4 70.7 2.5 5.7.6 11.1-5.5 13.4A1493 1493 0 0 1 688 953c3.7 16 6 32.5 8.7 48.5 6 34.1 13.2 68 19.4 102 3.2 17.5 6.1 35 9.3 52.3l4.7 25.2 2.4 13.6.1.7c.5 2.4 1 4.9.4 7.3-.8 2.7-2.9 4.6-4.8 6.6-1.6 1.6-3.8 1.6-5.7.7l-.7-.3c-3.4-1.6-6-3.2-7.3-7-.7-2.5-1-5.2-1.5-7.7a3535.6 3535.6 0 0 1-7.8-43.6l-1.6-9.1c-5.2-31.4-10.2-62.9-12.8-94.5-1-14-2.3-28.1-3.5-42.2l-.9-10.5c-1.1-13.3-2.5-27-2.7-40.5l-4.5 1.6L657 964c-5.5 2-12.5 6-18.4 5.2-2.9-.3-5-1.2-6.8-2.9 2 28.8 4.8 57.4 8.5 86a1965.7 1965.7 0 0 0 22 135c.6 3.2 1.4 6.4 1.9 9.6.5 3.7-.5 5.9-2.5 9-1.7 2.4-5 3.7-7.8 2-3.6-2.3-5.5-4.3-6.5-8.4-1-3.7-1.6-7.6-2.3-11.4a1654.2 1654.2 0 0 1-11.4-65.2c-7.8-52-12.7-104.4-15.2-156.8a1388 1388 0 0 1-1.4-77.8c0-13.3.5-26.6 1.4-39.9 1-13.4 3-26.5 4.8-39.8 0-.5.7-.5.7 0 .8 14.9 2.1 29.8 2.8 44.7.6 14.3.9 28.5 1.4 42.8.6 18.7 1.5 37.5 2.7 56.2a9.6 9.6 0 0 1 8.5-3.1c4.7-1 9.7-3.4 14.1-5l16.8-5.5 26.4-8.7a679 679 0 0 1-18-80.8l-2-12.3c-4-24.2-8.5-48.5-15.8-72a229.8 229.8 0 0 0-34.8-68.2 370.2 370.2 0 0 0-52.7-55.3C557 627 539.7 614 523 600c.1.9.2 2 0 3-3.5 25.9-17 50-35.8 67.9-37.7 36-93.6 43.4-142 26.5-46.7-16.3-88-55-102.6-102.8-.3-.8.8-1 1.3-.5l2.4 3.3c0-.4.2-.9.7-1a129 129 0 0 0 46.6-29.2 100.2 100.2 0 0 0 21.3-33.3l.4-1c1.7-5 3.2-10.2 7-14.2Z" fill="#000000"/></g>

        <g id="head" transform="matrix(.99789 0 0 1 156 62)"><path id="skin" d="M402.066246,224.220511 C393.015708,186.067037 373.228495,150.560837 341.5498,121.8656 C246.2218,27.6196 71.1588,78.7746 71.9518,220.7966 C68.5328,237.3846 67.1448,254.4406 68.2768,271.3576 C68.7448,278.5756 71.8688,288.6486 67.6718,295.1446 C58.2048,307.2976 52.7028,316.2556 55.9248,332.4216 C58.6168,346.5366 68.2228,356.5366 81.1868,361.8526 C88.9618,364.0836 96.3388,368.9436 99.2188,376.3516 C116.5248,408.0356 129.3458,434.3896 156.6288,455.9826 C163.6688,461.5416 235.874671,494.8836 259.6658,494.8836 C329.317032,494.8836 417.1028,469.6536 418.5598,391.8536 C418.8118,374.7656 415.8128,357.4786 413.9318,340.5256 C409.352962,301.837543 410.968396,261.748438 402.066246,224.220511 Z" fill="#d08b5b"/><path d="M400.499,205.1369 C400.521,204.6649 401.197,204.5589 401.328,205.0249 C403.917,214.2099 405.384,223.5669 407.409,232.8949 C409.359,241.8799 411.2,250.8909 412.732,259.9549 C415.623077,277.061362 418.059148,294.212131 420.324936,311.407994 L420.888,315.7079 C424.826,345.9649 431.33,377.4859 425.643,407.9199 C420.79,433.8889 404.519,454.8189 383.55,470.1639 C363.695,484.6929 339.622,494.0169 315.72,499.3179 C290.066,505.0089 259.658,506.7069 238.785,487.8949 C230.429,480.3619 241.82,465.4159 250.885,472.2139 C272.17099,488.1727 299.249371,483.468052 323.268105,477.117815 L323.995,476.9249 C345.076,471.3099 366.297,462.7989 383.033,448.4409 C401.536,432.5659 410.685,410.5339 411.742,386.3699 C412.335036,372.793721 411.069307,359.23335 409.704019,345.737205 L409.552,344.2379 C407.985,328.8039 406.341,313.3769 404.824,297.9369 C403.439867,283.857567 402.245636,269.696349 401.614491,255.554063 L401.319968,248.421162 C400.706618,234.040085 399.88087,219.448857 400.499,205.1369 Z M150.8565,85.645 C185.4945,67.612 225.3025,61.158 263.8505,67.21 C300.9085,73.028 334.9185,92.15 360.3395,119.569 C372.7505,132.956 383.7665,148.441 390.8065,165.358 C394.3035,173.762 397.0415,182.529 398.4995,191.533 C399.2495,196.162 399.9865,200.958 400.1275,205.651 C400.2575,209.996 398.9815,214.071 399.1325,218.488 C399.1555,219.179 398.0965,219.312 397.9355,218.65 C396.7315,213.725 393.8305,210.001 392.0105,205.323 C390.650167,201.83 389.107142,198.419877 387.536223,195.020171 L386.1865,192.107 C382.2685,183.64 377.5855,175.521 372.9525,167.431 C363.6235,151.137 351.6535,136.329 337.6375,123.834 C313.0285,101.896 281.4575,87.735 248.5065,85.185 C214.3055,82.537 179.6155,90.689 150.4075,108.747 C121.2015,126.804 99.1175,154.874 87.6515,187.193 C81.8665,203.502 78.6715,220.495 77.9285,237.773 C77.5525,246.519 77.9035,255.338 78.5165,264.067 L78.8209867,268.229562 C79.1777779,273.221416 79.4223261,278.194043 78.6765,283.065 C83.9445,281.422 89.4665,280.741 95.0085,281.554 C103.2435,282.762 108.1635,286.138 111.8575,293.496 C112.0505,293.88 111.6635,294.264 111.2805,294.073 C106.4915,291.683 98.7435,292.941 93.6715,294.194 C88.3935,295.498 83.6395,297.766 79.1545,300.832 C70.8575,306.501 64.3535,315.286 62.7575,325.365 C61.2145,335.101 65.2115,344.959 71.9255,351.937 C75.3815,355.531 79.5125,358.638 84.1375,360.574 C89.7505,362.925 95.3065,362.852 100.2725,366.733 C103.3425,369.132 102.6005,373.237 100.5185,375.901 C110.9955,387.389 120.2865,399.957 130.7625,411.49 C135.6185,416.835778 140.435784,422.187877 145.088634,427.705726 L146.8255,429.783 C151.4715,435.39 158.8635,441.313 160.9865,448.365 C162.3075,452.752 157.6095,458.49 152.8605,456.491 C145.575862,453.423681 140.375613,445.443295 135.453155,439.322478 L135.1325,438.926 C129.9705,432.583 125.3875,425.887 121.1975,418.87 L119.819796,416.558354 C112.243173,403.816009 104.7317,390.6006 99.9005,376.602 C99.5815,376.93 99.2435,377.229 98.8875,377.482 C91.9275,382.431 81.8095,378.626 74.8585,375.412 C68.2965,372.379 62.2805,367.815 57.5915,362.314 C47.3935,350.352 42.6925,334.86 46.0985,319.335 C48.9835,306.184 58.0985,293.392 70.0485,286.74 C64.5325,280.39 62.2485,271.83 60.7285,263.461 C58.7885,252.778 58.4015,241.83 58.9285,230.997 C59.9795,209.42 65.5325,188.151 74.1165,168.393 C89.4745,133.04 116.6265,103.468 150.8565,85.645 Z M77.9552,321.556 C85.2252,320.194 92.0002,319.865 99.0122,322.941 C106.6182,326.28 111.9712,331.792 116.9472,338.25 C122.60901,345.5958 108.098402,353.620809 104.439716,343.868971 L104.3322,343.568 C103.3522,340.681 101.5972,337.89 99.3742,335.321 C98.7072,336.343 97.8152,337.243 96.7672,337.758 C95.4982,338.382 93.5602,337.95 93.2552,336.329 C92.9172,334.53 93.2912,332.35 94.3292,330.827 L94.4712,330.619 L94.4712,330.619 C89.4272,326.56 83.3602,323.595 77.9552,322.641 C77.4152,322.545 77.4212,321.656 77.9552,321.556 Z" id="ðŸ–-Ink" fill="#000000"/></g>

        <g id="face" transform="translate(315 248)"><path d="M97.8 210.4c16.7-11.2 101.5-9 109.3-.4 7.9 8.6 26 33.1-12.8 45.2-38.7 12-86.7 7.9-99.2-7l-.7-.8c-11.8-14.4-13-26 3.4-37Z" fill="#fff"/><path d="M170.8 144.4c7.6 4.6 19 15.3 11 26.6-9.6 10-23.4-1.4-30.2-6.6-6.3-4-13.3 6.3-7.5 11 49 36.3 69-29.8 30.5-36.4-4.2-.8-5.8 4-3.8 5.4Zm-68.2-87.6 1.9-.3 1-.2c5.6-.9 12.2-1.5 16.1 3 2.2 2.4 3 7 0 9.3-5.1 4.2-10.8 2.6-17 3-5.1.2-10 1-14.9 2.5C79 77 70.2 82.8 61 88.9c-1.2.8-2.4-.7-1.9-1.8a59.3 59.3 0 0 1 26-24.1 64 64 0 0 1 17.5-6.2Zm49.7 143.5c16.5 1.2 52-6.7 66.9 5C274.9 275 54 293 77.8 216c15.2-25 50.2-15 74.5-15.6Zm-2.8 42c-4-.4-9 2.9-10.2 5.4-1.2 2.4-.7 7.7-.7 8.6 7.1.7 14.3.8 21.4.4-1.8-6.2-1.9-13.5-10.5-14.4Zm32.8 10.3c-1.1-7.6-6.6-9.4-11-8.3-4.5 1.2-7.1 6.3-6.8 11 0 .3-.2.5-.3.8 6.1-.7 12.2-2 18.1-3.5Zm-50.4-9c-2.5-3.8-8.7-5.7-12.6-5-6.4 1.3-7.1 9.4-7.1 11.1a113 113 0 0 0 21.7 5.6l.1-1c.2-2.1.3-7-2-10.6Zm72.4-.6c-6.5-10.1-20.6-2.9-19.5 8.2l3.8-1.2c5.1-1.8 10.8-4 15.7-7Zm-51.6-35c-8.9-.8-16.1-.5-21.9.6l-.1 1.9c-.7 6.7-1.5 13.2 2 15.9 2.8 2.2 12.3 2 18.6.4 1.6-.4 3.6-14.2 1.4-18.8Zm13.6-.8c-1.4 6.6-2 14.6.8 17 3 2.5 12.6 2.1 15.2.4 2.2-1.4 2.1-8.1 1.3-15.7a96 96 0 0 0-17.3-1.7Zm-39.4 1.4h-4.5c-4.1.1-8.6.4-12.8 1.3-8.4 18.1 22.2 21.3 17.5-.6l-.2-.7Zm60.6.5v1c-.3 5-.1 11.8 2.7 13.6 4.1 2.7 12 2.1 16.1-10.2-1.4-3.7-16.2-4.2-18.8-4.4ZM106.2 101c1.8 0 3.5.6 5 1.7 1.6 1.1 3 2.7 4 4.7 2.2 3.8 3.6 9 3.6 14.8 0 5.7-1.4 11-3.5 14.7-1.2 2-2.5 3.6-4 4.7a8.5 8.5 0 0 1-5 1.7c-1.8 0-3.5-.6-5-1.7-1.6-1-3-2.7-4.1-4.7-2.2-3.8-3.6-9-3.6-14.7 0-5.8 1.4-11 3.6-14.8 1.1-2 2.5-3.6 4-4.7a8.5 8.5 0 0 1 5-1.7Zm112.3 0c1.7 0 3.4.6 5 1.7 1.5 1.1 2.9 2.7 4 4.7 2.2 3.8 3.5 9 3.5 14.8 0 5.7-1.3 11-3.5 14.7-1.1 2-2.5 3.6-4 4.7a8.5 8.5 0 0 1-5 1.7c-1.8 0-3.5-.6-5-1.7-1.6-1-3-2.7-4-4.7-2.3-3.8-3.6-9-3.6-14.7 0-5.8 1.3-11 3.5-14.8 1.2-2 2.5-3.6 4-4.7a8.5 8.5 0 0 1 5-1.7Zm-15.3-48.8 1.4.3 1 .2c15.5 3.3 35.1 9.9 42.4 25 .3 2.1 0 2.6-.3 2.9-.2.3-.4.7-1.4 1A36 36 0 0 1 237 78l-2.8-1.4a77.7 77.7 0 0 0-10.1-4.3c-7.5-2.4-15.1-4.1-23-5a9.4 9.4 0 0 1-4.5-1.8 7 7 0 0 1-2.6-4 7 7 0 0 1 .8-5.8 7.4 7.4 0 0 1 3.6-3.1c1.5-.6 3.2-.8 4.9-.4Z" fill="#000"/></g>

        <g id="facial-hair" transform="translate(279 400)"><path d="M279.528,190.8631 C281.547,192.7781 285.93,196.9931 290.129,198.8461 L294.056,198.8461 C294.899,198.6881 295.727,198.4471 296.549,198.1751 C297.618,195.5521 297.824,192.4961 297.299,189.4181 C294.331,172.3721 291.68,155.1111 293.093,137.7621 C294.424,121.4051 299.132,105.1281 297.861,88.6151 C296.088,49.6481 258.461,22.6651 225.52,30.5541 C221.267,30.9311 217.108,32.1281 213.404,34.2561 C162.018,12.7001 98.507,49.1221 110.469,108.7041 C112.762,124.8141 116.46,140.0931 115.324,156.5121 C114.78,164.3701 113.529,172.1421 112.061,179.8741 C110.959,185.6761 108.042,192.8301 110.722,198.5571 C121.488,205.3561 132.712,191.2261 139.903,179.0991 C143.667,168.9071 146.794,158.4721 150.32,148.2011 C156.682,129.7401 158.156,119.5441 179.151,114.5101 C188.219,111.4171 196.313,106.8571 203.254,100.8451 C208.589,98.2901 211.63,93.1721 213.448,87.9971 C214.354,90.5451 213.101,93.6381 212.874,96.2831 C228.101,116.4651 246.944,112.6441 253.723,126.6781 C258.91,139.8891 261.825,153.9731 265.794,167.6431 C266.337,169.5141 276.384,187.8811 279.528,190.8631" id="ðŸ–-Ink" fill="#000000"/></g>

        <g id="eyewear" transform="translate(203 303)"><path d="M337.808766,15 C361.280828,15 374.675545,20.0476268 379.583995,20.4408262 L379.731604,20.4513988 C381.773203,20.5819351 383.604638,20.7526365 385.526143,21.4956895 C392.591677,24.2168704 393.742579,31.6273185 389.619349,36.2975074 C389.330123,45.9612137 390.601118,57.2526079 388.42041,66.9474421 C385.730303,107.818373 366.509247,114.715713 355.583689,117.233056 C350.098392,118.49725 343.5973,119.000317 337.770736,117.665834 C327.83095,117.295312 318.004253,114.183526 309.596667,108.765263 C297.887495,101.213234 289.190683,89.6055398 286.368473,75.8299385 C285.030886,69.2635354 284.405767,62.4288331 285.133692,55.7543104 L285.24159,54.834673 C281.435609,53.014193 277.025154,52.6697779 272.478593,52.5091178 C270.306891,52.4318001 268.166215,52.3625154 266.086586,52.454895 C264.053994,52.6818274 262.04542,52.9840692 260.030842,53.3957608 C257.831119,54.0594879 255.753492,55.1549891 253.834989,56.8901185 L253.702886,59.4225236 C253.342603,65.7485159 252.511953,72.0935866 251.230949,78.3000879 C249.339468,87.4577148 246.297085,96.2036502 239.822013,102.69934 C237.630296,105.97279 234.918171,108.894796 231.625592,111.425193 C219.665224,120.63403 203.415495,124.014921 188.501813,122.74169 C158.225098,120.158074 140.724389,96.1233201 136.69123,85.8501095 L136.45028,85.2277051 C133.536796,77.5902322 131.214914,67.6806815 122.008729,66.0397124 L120.050703,65.6879191 C115.84966,64.8993558 111.973202,63.8015161 109.509939,59.7026747 C108.430093,57.9133226 107.874658,55.9121 107.738551,53.8717164 C106.301426,53.9821703 104.866302,54.0876035 103.436181,54.1900243 C92.0277451,56.6026875 23.600227,58.6483427 18.1383674,58.6483427 C18.1383674,58.6483427 7.63935915,63.0673229 3.20667133,59.6434313 C0.134264704,57.2626491 -0.876527051,54.0896117 0.814797767,50.4948415 C3.36675899,45.0862033 15.1402688,41.832872 20.368158,40.8027483 C20.368158,40.8027483 104.732847,41.5034375 110.804953,40.3521672 C114.561896,36.47825 121.28216,37.0084284 126.897559,36.3959117 C131.5462,33.0812926 138.049294,30.8611705 143.186318,29.3750644 C144.233138,28.9784347 145.26995,28.5948587 146.277739,28.2333734 C155.695116,24.8795934 165.483783,23.1032949 175.421568,22.1493754 C185.669595,21.1753734 195.947646,21.6161846 206.135626,23.0119194 C210.428989,23.5943124 214.682321,24.3474067 218.905629,25.3324541 C226.467802,26.3293627 233.985996,27.9714025 241.550918,29.9193501 L243.064552,30.3129178 C251.030792,32.4014994 259.217205,34.2079217 267.463664,32.7921043 C274.177256,31.6469826 280.633494,29.0632415 286.823569,26.2693175 L287.62946,25.9038016 C301.240122,19.6892673 322.495771,15 337.808766,15 Z M218.086988,37.7223618 C213.065054,36.6178235 210.920374,44.3606372 215.95832,45.4681879 C219.525804,46.252514 222.549376,48.0515396 224.592155,51.0993468 L224.807252,51.4306867 C227.548399,55.792609 234.479828,51.7660647 231.719666,47.3760269 C228.614234,42.4357281 223.788453,38.9755108 218.086988,37.7223618 Z M365.1732,32.9216366 C363.402814,31.6745124 360.723715,32.6003163 359.69591,34.362557 C358.564701,36.303111 359.306135,38.4637159 360.964208,39.7331967 L361.133036,39.8571332 C362.653907,40.9290575 364.135119,42.8505012 364.321131,44.8192514 L364.337546,45.0655335 C364.536702,50.2177028 372.543974,50.24381 372.343817,45.0655335 C372.148664,39.999719 369.215367,35.767329 365.1732,32.9216366 Z" id="ðŸ–-Ink" fill="#000000"/></g>
    </g>
</svg>