<svg xmlns="http://www.w3.org/2000/svg" viewBox="0 0 704 704" fill="none" width="512" height="512">
    <desc>"Open Peeps" by "Pablo Stanley", licensed under "CC0 1.0". / Remix of the original.</desc>
    <mask id="viewbox"><rect width="704" height="704" rx="0" ry="0" x="0" y="0" fill="#ffffff" /></mask>
    <g mask="url(#viewbox)">
        <rect id="background" fill="#ffdfbf" width="704" height="704" x="0" y="0" />

        <g id="body"><path id="skin" d="M705.3 1074a2351.1 2351.1 0 0 1-15.6-101c-1-7.7-2.5-16.4 2.7-22 7.3-8 14-14.8 14.8-26.2.8-10.7-2.8-22.4-5-32.8a809.4 809.4 0 0 0-17.3-64.7c-6.6-21.7-13.9-43.2-21.3-64.6-6.9-20-13.5-40.3-22.5-59.5-17-36.5-46-63.5-81.6-81.6-9-4.5-27-20.5-36.3-24-8.5-3.4-8.5 6.3-16.9 2.6-6.7-2.9-13-6.7-16.7-13.2-4-7-14.3-16.9-15.9-25-3.3-17.4.3-32.2-12-45.3a90 90 0 0 0-41.1-23.8c-33.7-9.3-78.5-2.8-98.8 28.5-9.7 14.9-13 33-26.2 45.1-11.4 10.7-8.8 18-23.6 23.4-.9.3-23.6-4.5-24.4-4.2-16.2-3.5-31.7 6.2-46.5 11.8a325.4 325.4 0 0 0-63 32.3 399.2 399.2 0 0 0-102.3 98.5 482.5 482.5 0 0 0-76.4 161c-1.7 6.4-3.5 13-1.5 19.4 1.7 5.3 5.4 9.2 9.8 12.4 6 4.3 18 7 17.7 15.7-.1 6.6-2.4 13.5-3.5 20-1.3 7.7-2.3 15.5-3.4 23.2-4.8 35.4-8.6 71-10.3 106.6a920 920 0 0 0-.5 106c.1 2.3.8 4.5 2 6.2-1 .4-1.2 2.4.1 2.7l2.7.5a12 12 0 0 0 7 2.4l5.5.2c19.3 4 38.6 7.9 58.1 10.8 23.8 3.5 47.6 6.3 71.5 8.7 49.2 4.8 98 3.2 147.1.6a1877 1877 0 0 1 147.4-2c49.2 1.4 98.4 3.5 147.6 4.4 55 1 110-.5 164.8-5 7.5-.5 12.2-6.5 10.7-14-8.9-44.7-19-89.1-27-134Z" fill="#ffdbb4"/><path id="shirt" d="m201 597.5 1.2-.4c14.5-5.7 29.6-14.8 45.4-11.4.5-.2 10.8 1.9 17.9 3.2l-6.7 7L247 598c40.7 67.1 88.8 100.7 144.3 100.7 55.5 0 97.7-33.6 126.4-100.7l4-1c.4 0 1 .2 1.5.4 9.3 3.6 27.4 19.6 36.3 24.1 35.6 18 64.5 45 81.6 81.6 8.7 18.6 15.2 38 21.8 57.5l.7 2c7.4 21.4 14.7 43 21.3 64.6 6.3 20.4 12 41 16.6 61.8l.7 2.9c2.2 10.4 5.8 22 5 32.8a29 29 0 0 1-3 10.7l-80.4 29 38.4 261.3c-35.1 1.5-70.3 2-105.5 1.3-49.2-.9-98.4-3-147.6-4.3-47.7-1.2-95.3-.7-143 1.7l-12 .6a946.3 946.3 0 0 1-139.5-1l-3.1-.3v-38.3l16.3-212.9-83-15.6-81.3-39.5a21.7 21.7 0 0 1-5.6-8.8c-1.9-6-.5-12 1-18l.5-1.3a492.8 492.8 0 0 1 76.4-161A399.3 399.3 0 0 1 138 629.7c19.8-13 40.9-23.9 63-32.3Z" fill="#8fa7df"/><path d="M232.2 584.6c5.1-.3 10.3.6 15.4 1 .4.1.6.8 0 .9-9 1.9-18 4.5-26.9 7.1l-3.8 1.2c-10 3-19.8 6-29.6 10-19.4 7.9-37.8 18.5-54.8 30.8C67.2 682.8 20 754.3-9.9 828.3a526 526 0 0 0-24.3 77c-.4 1.6-2 5.4-1 7 .7 1.3 3.6 2.1 5 2.9l4.5 2.3 25.2 12.9 2.3 1.1c38 18.6 78.4 34.4 121 35.5l.4-3.7a342 342 0 0 1 9.9-60c.3-1 1.6-.6 1.7.3 3 23.1 2 46.4 1 69.7-1.8 41-4.3 82.2-6.5 123.3-1.2 20.6-2.6 41-3.9 61.7-1.3 20.5-1.7 41.6-4.7 62-.6 4.6-6 7-10 6.6-4.4-.5-7.9-4.5-8-9 0-11.9 1.5-24 2.4-35.8l2.5-33.8c3.1-41.1 6.8-82.2 10.2-123.3a4771 4771 0 0 1 3.8-43.7C76.4 979.8 34.2 963-6.1 943.5c-.6 13.2-2 26.5-3.4 39.6-3.8 36.8-7.1 73.6-9.6 110.5a2254.2 2254.2 0 0 0-4.2 92.7l-.2 7c0 4.4-.5 8.5-4.3 11.7-3.7 3.3-8.9 3.5-12.6 0-5-4.6-4.2-10.9-4-17.1a1675.6 1675.6 0 0 1 1.8-47.2 1321 1321 0 0 1 10.5-109.5l2-14c3.5-26 7.5-52.7 15.5-77.9-3.1-1.5-6.2-3-9.3-4.7-5.5-2.7-11.2-5.4-16.6-8.4-4.2-2.5-7.9-5.8-9-10.8-1.4-5.5.6-11.5 2-16.9v-.4a502 502 0 0 1 26.6-80 523.2 523.2 0 0 1 67.8-117 353.8 353.8 0 0 1 88.7-83.3 239 239 0 0 1 53.8-25.7 142.6 142.6 0 0 1 42.8-7.5Zm90.1-66c6-6.5 18.1.2 15.2 8.8a108.2 108.2 0 0 1-34.7 52A79.4 79.4 0 0 1 247 598l1.7 2.4a321.1 321.1 0 0 0 46.1 52.6c36 31.2 84.8 48 132 36 37.1-9.4 69.8-38.8 79.4-76.2-1.3.6-3 .9-4.8.5-7.7-1.7-15.3-9.8-20.3-15.6-5.3-6.3-9.5-13-12.6-20.7-5.6-14-7.4-32.1.3-45.7 1-1.7 3-.7 3.3 1l.3 2.5c1.5 12.7 3.3 25 9.3 36.6a76 76 0 0 0 18.2 23.1c2.6 2 5.8 3.6 8.1 6l.5.4c.6-5 4.1-7.3 7.6-7.2 3.3.2 7.3 1.6 8.8 2.3l.1.1a341 341 0 0 1 65.1 42 259 259 0 0 1 88.4 129c7.5 25.3 11.8 51.4 16.3 77.4l2.8 16c4.2 23.9 8.9 48.4 18.4 70.7 2.5 5.7.6 11.1-5.5 13.4A1493 1493 0 0 1 688 953c3.7 16 6 32.5 8.7 48.5 6 34.1 13.2 68 19.4 102 3.2 17.5 6.1 35 9.3 52.3l4.7 25.2 2.4 13.6.1.7c.5 2.4 1 4.9.4 7.3-.8 2.7-2.9 4.6-4.8 6.6-1.6 1.6-3.8 1.6-5.7.7l-.7-.3c-3.4-1.6-6-3.2-7.3-7-.7-2.5-1-5.2-1.5-7.7a3535.6 3535.6 0 0 1-7.8-43.6l-1.6-9.1c-5.2-31.4-10.2-62.9-12.8-94.5-1-14-2.3-28.1-3.5-42.2l-.9-10.5c-1.1-13.3-2.5-27-2.7-40.5l-4.5 1.6L657 964c-5.5 2-12.5 6-18.4 5.2-2.9-.3-5-1.2-6.8-2.9 2 28.8 4.8 57.4 8.5 86a1965.7 1965.7 0 0 0 22 135c.6 3.2 1.4 6.4 1.9 9.6.5 3.7-.5 5.9-2.5 9-1.7 2.4-5 3.7-7.8 2-3.6-2.3-5.5-4.3-6.5-8.4-1-3.7-1.6-7.6-2.3-11.4a1654.2 1654.2 0 0 1-11.4-65.2c-7.8-52-12.7-104.4-15.2-156.8a1388 1388 0 0 1-1.4-77.8c0-13.3.5-26.6 1.4-39.9 1-13.4 3-26.5 4.8-39.8 0-.5.7-.5.7 0 .8 14.9 2.1 29.8 2.8 44.7.6 14.3.9 28.5 1.4 42.8.6 18.7 1.5 37.5 2.7 56.2a9.6 9.6 0 0 1 8.5-3.1c4.7-1 9.7-3.4 14.1-5l16.8-5.5 26.4-8.7a679 679 0 0 1-18-80.8l-2-12.3c-4-24.2-8.5-48.5-15.8-72a229.8 229.8 0 0 0-34.8-68.2 370.2 370.2 0 0 0-52.7-55.3C557 627 539.7 614 523 600c.1.9.2 2 0 3-3.5 25.9-17 50-35.8 67.9-37.7 36-93.6 43.4-142 26.5-46.7-16.3-88-55-102.6-102.8-.3-.8.8-1 1.3-.5l2.4 3.3c0-.4.2-.9.7-1a129 129 0 0 0 46.6-29.2 100.2 100.2 0 0 0 21.3-33.3l.4-1c1.7-5 3.2-10.2 7-14.2Z" fill="#000000"/></g>

        <g id="head" transform="matrix(.99789 0 0 1 156 62)"><path id="skin" d="M405.8668,203.178 C395.5658,165.992 356.1908,149.766 320.7288,147.191 C224.7148,137.21 126.9848,190.734 84.4188,277.525 C50.3458,343.428 49.2788,412.658 122.5208,450.287 C126.5208,452.492 130.6978,454.849 134.9638,456.989 C138.6698,460.435 142.4868,463.746 146.6528,466.526 C186.5358,492.752 235.4868,504.095 282.9248,501.635 C352.9658,500.223 377.9698,452.696 393.2708,391.747 C409.4088,331.068 418.4338,265.226 405.8668,203.178 L405.8668,203.178 Z" fill="#ffdbb4"/><path d="M451.8433,553.684 C448.5733,543.794 444.4733,534.204 440.6433,524.514 C439.8333,519.684 439.2933,514.814 439.1543,509.904 C438.6233,492.364 441.9043,474.674 445.5833,457.594 C453.0633,422.884 460.9933,388.534 464.9733,353.184 C472.0833,289.954 467.8533,224.204 439.0933,166.484 C414.1733,116.484 371.9433,75.594 317.3933,60.274 C301.2673,55.743 284.6703,53.244 267.9593,52.246 C265.8903,51.917 263.8243,51.595 261.7683,51.285 C238.5243,47.781 214.9943,46.035 191.5003,47.546 C152.5403,50.053 113.9443,61.249 81.4963,83.393 C48.8273,105.69 25.6153,136.954 14.8143,175.087 C3.5783,214.757 4.5313,257.72 -14.8717,294.912 C-20.6037,305.9 -27.2947,316.346 -33.6757,326.966 C-50.6067,345.857 -68.9887,366.858 -73.0167,392.833 C-77.9867,424.934 -59.5167,452.064 -42.0367,477.114 C-26.2367,499.734 -4.7967,530.974 -21.0567,558.824 C-28.7267,571.964 -41.0167,581.794 -50.2467,593.774 C-59.8167,606.214 -67.2867,620.494 -71.1467,635.754 C-78.3967,664.413 -71.7267,694.284 -52.3367,716.684 C-42.2367,728.344 -29.2667,736.054 -15.2267,742.064 C-0.8567,748.204 13.1833,754.034 25.0633,764.484 C30.4933,769.254 35.4633,774.484 40.1633,779.964 C44.5433,786.814 49.6433,793.214 55.3933,799.074 C61.7233,805.524 74.1233,796.694 68.3133,789.104 C67.8833,788.544 67.4633,787.994 67.0333,787.434 C62.7833,781.894 58.5133,776.354 54.0433,770.994 C40.7133,749.873 35.5833,724.014 42.2133,699.344 C43.9333,692.934 46.3533,686.854 49.3643,681.114 C50.0033,682.784 50.7033,684.434 51.4433,686.064 C54.3233,692.384 58.3643,699.873 63.5033,706.274 C63.7033,710.663 64.3643,715.014 65.6433,719.274 C73.5633,745.684 100.0433,758.714 123.9233,768.854 C126.2633,769.854 128.5733,770.814 130.8433,771.764 C137.0833,774.373 143.6833,765.484 139.7933,760.123 C138.7733,758.714 137.7833,757.274 136.8433,755.814 C125.6433,738.474 120.3133,717.734 123.3333,697.074 C126.5133,675.224 139.3933,657.144 152.1833,639.794 C164.7433,622.734 178.2333,605.324 183.8533,584.514 C190.0733,561.524 184.4133,538.604 174.8133,517.444 C166.0233,498.081 154.3143,480.234 144.4953,461.404 C147.8573,464.757 151.3263,468 154.9003,471.128 C158.9193,474.646 163.0483,478.672 167.8113,481.152 C171.3333,482.985 174.8613,478.597 172.0723,475.63 C168.4063,471.732 163.7153,468.72 159.6443,465.241 C155.7363,461.902 151.9413,458.429 148.2403,454.862 C143.6833,450.471 139.3483,445.873 135.1683,441.136 C131.8233,432.615 129.0673,423.865 126.8233,414.984 C123.7733,402.964 120.9533,390.174 121.1733,377.714 C121.3933,364.934 128.0333,355.984 136.8733,347.404 C140.6173,343.771 144.3973,340.181 148.1703,336.584 C156.2063,330.685 163.7863,324.095 171.1493,317.523 C184.2693,305.812 196.9593,293.433 209.0783,280.692 C212.3293,277.274 215.5533,273.818 218.7373,270.322 C229.8623,258.906 240.4723,246.986 250.4733,234.654 C260.4133,231.034 269.9633,226.244 278.9233,220.604 C275.0233,224.554 271.0833,228.454 267.1633,232.384 C258.4333,241.144 249.3643,249.944 239.2433,257.083 C238.2033,257.824 238.8333,259.394 240.1143,259.144 C252.9833,256.574 265.0233,252.294 276.2633,245.474 C287.6933,238.534 297.7633,229.104 307.1633,219.644 C312.4833,217.244 317.6143,214.154 322.3033,211.114 C322.5533,210.954 322.8033,210.784 323.0533,210.623 C318.4333,225.264 311.6543,241.844 297.2033,247.064 C296.7333,247.234 296.7633,248.014 297.3233,247.984 C309.4973,247.27 319.2813,241.793 327.0053,233.81 C333.2173,229.34 339.1453,224.603 344.8023,219.446 C350.2823,214.45 355.4733,209.092 360.4033,203.544 C353.5133,217.193 345.7953,230.539 338.1833,243.734 C337.7833,244.434 338.6233,245.384 339.3433,244.894 C355.4133,234.014 367.6033,219.974 377.5733,203.373 C379.0453,200.929 380.4503,198.445 381.8203,195.942 C380.7863,199.859 379.6573,203.751 378.4483,207.623 C376.2593,214.632 374.1043,221.657 371.9113,228.662 C370.7293,232.439 369.2883,236.13 367.7073,239.758 C366.5753,242.354 365.0933,244.945 364.8633,247.792 C364.8483,247.981 365.0543,248.105 365.2193,248.064 C371.6273,246.462 377.5943,239.154 382.1603,234.627 C384.7033,232.106 387.0853,229.339 389.2763,226.421 C389.6833,243.228 389.9633,260.037 389.5933,276.894 C388.9043,307.854 386.9043,338.804 384.3433,369.663 C382.0833,396.944 380.4133,425.574 365.1933,449.284 C353.4133,467.634 334.3133,480.333 313.5633,486.484 C311.7333,487.034 309.8933,487.524 308.0433,487.964 C278.0033,495.094 248.0833,487.014 221.5233,472.734 C213.5433,468.444 206.7233,480.083 214.4233,484.873 C243.2433,502.814 279.7733,508.924 312.3933,500.884 C311.3643,539.413 330.3533,575.964 349.2433,608.644 C359.8133,626.934 370.3933,645.104 377.8643,664.934 C384.2033,681.774 388.5133,699.244 389.9633,717.214 C391.6833,738.394 389.9933,759.694 387.0333,780.694 C386.8733,781.833 386.7133,782.984 386.5433,784.123 C385.8833,788.634 389.9333,792.413 394.3233,790.104 C413.7333,779.904 422.1033,758.163 427.1933,738.064 C431.9533,719.234 435.1833,700.034 436.9833,680.704 C439.6233,687.994 441.7633,695.464 443.4233,703.083 C443.6543,704.174 443.8733,705.264 444.0933,706.354 C445.3533,712.724 454.9933,712.274 456.5333,706.354 C456.8133,705.284 457.0833,704.214 457.3333,703.134 C465.2833,670.984 467.4233,637.454 463.2233,604.583 C461.0133,587.294 457.3233,570.234 451.8433,553.684" id="ðŸ–-Ink" fill="#000000"/></g>

        <g id="face" transform="translate(315 248)"><path d="M97.8 210.4c16.7-11.2 101.5-9 109.3-.4 7.9 8.6 26 33.1-12.8 45.2-38.7 12-86.7 7.9-99.2-7l-.7-.8c-11.8-14.4-13-26 3.4-37Z" fill="#fff"/><path d="M170.8 144.4c7.6 4.6 19 15.3 11 26.6-9.6 10-23.4-1.4-30.2-6.6-6.3-4-13.3 6.3-7.5 11 49 36.3 69-29.8 30.5-36.4-4.2-.8-5.8 4-3.8 5.4Zm-68.2-87.6 1.9-.3 1-.2c5.6-.9 12.2-1.5 16.1 3 2.2 2.4 3 7 0 9.3-5.1 4.2-10.8 2.6-17 3-5.1.2-10 1-14.9 2.5C79 77 70.2 82.8 61 88.9c-1.2.8-2.4-.7-1.9-1.8a59.3 59.3 0 0 1 26-24.1 64 64 0 0 1 17.5-6.2Zm49.7 143.5c16.5 1.2 52-6.7 66.9 5C274.9 275 54 293 77.8 216c15.2-25 50.2-15 74.5-15.6Zm-2.8 42c-4-.4-9 2.9-10.2 5.4-1.2 2.4-.7 7.7-.7 8.6 7.1.7 14.3.8 21.4.4-1.8-6.2-1.9-13.5-10.5-14.4Zm32.8 10.3c-1.1-7.6-6.6-9.4-11-8.3-4.5 1.2-7.1 6.3-6.8 11 0 .3-.2.5-.3.8 6.1-.7 12.2-2 18.1-3.5Zm-50.4-9c-2.5-3.8-8.7-5.7-12.6-5-6.4 1.3-7.1 9.4-7.1 11.1a113 113 0 0 0 21.7 5.6l.1-1c.2-2.1.3-7-2-10.6Zm72.4-.6c-6.5-10.1-20.6-2.9-19.5 8.2l3.8-1.2c5.1-1.8 10.8-4 15.7-7Zm-51.6-35c-8.9-.8-16.1-.5-21.9.6l-.1 1.9c-.7 6.7-1.5 13.2 2 15.9 2.8 2.2 12.3 2 18.6.4 1.6-.4 3.6-14.2 1.4-18.8Zm13.6-.8c-1.4 6.6-2 14.6.8 17 3 2.5 12.6 2.1 15.2.4 2.2-1.4 2.1-8.1 1.3-15.7a96 96 0 0 0-17.3-1.7Zm-39.4 1.4h-4.5c-4.1.1-8.6.4-12.8 1.3-8.4 18.1 22.2 21.3 17.5-.6l-.2-.7Zm60.6.5v1c-.3 5-.1 11.8 2.7 13.6 4.1 2.7 12 2.1 16.1-10.2-1.4-3.7-16.2-4.2-18.8-4.4ZM106.2 101c1.8 0 3.5.6 5 1.7 1.6 1.1 3 2.7 4 4.7 2.2 3.8 3.6 9 3.6 14.8 0 5.7-1.4 11-3.5 14.7-1.2 2-2.5 3.6-4 4.7a8.5 8.5 0 0 1-5 1.7c-1.8 0-3.5-.6-5-1.7-1.6-1-3-2.7-4.1-4.7-2.2-3.8-3.6-9-3.6-14.7 0-5.8 1.4-11 3.6-14.8 1.1-2 2.5-3.6 4-4.7a8.5 8.5 0 0 1 5-1.7Zm112.3 0c1.7 0 3.4.6 5 1.7 1.5 1.1 2.9 2.7 4 4.7 2.2 3.8 3.5 9 3.5 14.8 0 5.7-1.3 11-3.5 14.7-1.1 2-2.5 3.6-4 4.7a8.5 8.5 0 0 1-5 1.7c-1.8 0-3.5-.6-5-1.7-1.6-1-3-2.7-4-4.7-2.3-3.8-3.6-9-3.6-14.7 0-5.8 1.3-11 3.5-14.8 1.2-2 2.5-3.6 4-4.7a8.5 8.5 0 0 1 5-1.7Zm-15.3-48.8 1.4.3 1 .2c15.5 3.3 35.1 9.9 42.4 25 .3 2.1 0 2.6-.3 2.9-.2.3-.4.7-1.4 1A36 36 0 0 1 237 78l-2.8-1.4a77.7 77.7 0 0 0-10.1-4.3c-7.5-2.4-15.1-4.1-23-5a9.4 9.4 0 0 1-4.5-1.8 7 7 0 0 1-2.6-4 7 7 0 0 1 .8-5.8 7.4 7.4 0 0 1 3.6-3.1c1.5-.6 3.2-.8 4.9-.4Z" fill="#000"/></g>

        <g id="facial-hair" transform="translate(279 400)"><path d="M229.9448,33.9998 C241.6588,34.8308 252.7388,42.0988 262.8158,47.7168 C272.51397,53.5108426 279.691907,62.0952464 285.425881,71.6662255 L285.7978,72.2918 C286.1341,72.79055 285.534508,73.3515725 285.041591,73.1612186 L284.9648,73.1248 C275.4478,68.3498 265.4058,64.4798 256.0618,59.2708 C246.9378,53.6298 235.7338,51.7018 226.5408,46.5708 C221.2868,42.6758 222.8638,34.3008 229.9448,33.9998 Z M199.4764,39.6831 C199.9034,42.3551 198.8244,46.5961 195.3164,47.8351 C189.153275,50.0091625 183.540345,51.1812719 177.34959,52.8774291 L169.32497,55.1248967 C153.910423,59.4668903 138.264477,64.1279974 124.6174,70.9681 L124.1894,70.7801 C114.2764,64.5781 169.0404,38.7041 187.9494,34.5821 C191.4234,33.8241 198.8314,35.6511 199.4764,39.6831 Z" id="ðŸ–-Ink" fill="#000000"/></g>

        <g id="eyewear" transform="translate(203 303)"><path d="M367.0895,74.4323 C364.2615,82.1283 359.9575,90.1403 354.6945,96.6173 C333.4005,114.6493 312.7095,104.6653 302.2035,80.2263 C298.2115,62.9553 308.8105,44.3513 320.0415,31.6463 C336.2615,15.3893 362.7325,23.9213 370.1905,43.2473 C370.6435,45.7513 370.9175,48.2493 371.0485,50.7393 C370.8935,58.8303 369.9185,65.7453 367.0895,73.4323 M162.4095,58.9113 C190.4615,25.5443 242.9415,23.7603 241.6025,75.1153 C235.5765,140.1193 134.1055,124.1643 162.4095,58.9113 Z M375.9125,31.0763 C374.9295,29.4113 373.8385,27.8003 372.6475,26.2593 C372.2075,25.9973 371.9545,23.6733 370.3365,23.5013 C348.7095,-0.3577 310.7165,13.1793 296.9885,36.9533 C294.4815,39.9593 292.4365,43.4783 290.9285,47.1963 C277.4025,44.7153 261.6335,45.1973 249.0535,50.3063 C236.5795,17.7343 198.8145,14.8263 173.9275,28.7433 C158.4485,36.3563 148.4115,52.2993 133.3575,61.0573 C97.9685,63.6043 59.9875,55.6753 25.2375,64.5523 C-2.1685,70.2503 20.7415,84.1273 25.3375,74.8663 C58.1005,65.1863 96.9155,73.3663 130.9325,71.1853 C134.4695,77.1683 141.2525,82.0643 148.0125,81.8553 C155.3135,146.5763 249.6975,135.8443 252.9535,78.3113 C256.6465,72.4723 261.2395,66.8843 267.8135,63.2463 C270.3305,62.7253 272.7615,62.0483 274.9835,61.0003 C278.7815,60.4643 284.6335,62.0743 288.1275,65.2363 C300.0965,137.0523 369.0515,128.6883 381.3745,65.7743 C381.6195,65.5243 382.3045,64.5863 382.8305,63.0813 C387.0485,57.5043 397.3745,55.4313 395.7245,46.0163 C394.2555,36.5993 382.3635,36.7113 375.9125,31.0763 Z" id="ðŸ–-Ink" fill="#000000"/></g>
    </g>
</svg>