<svg xmlns="http://www.w3.org/2000/svg" viewBox="0 0 704 704" fill="none" width="512" height="512">
    <desc>"Open Peeps" by "Pablo Stanley", licensed under "CC0 1.0". / Remix of the original.</desc>
    <mask id="viewbox"><rect width="704" height="704" rx="0" ry="0" x="0" y="0" fill="#ffffff" /></mask>
    <g mask="url(#viewbox)">
        <rect id="background" fill="#ffd5dc" width="704" height="704" x="0" y="0" />

        <g id="body"><path id="skin" d="M705.3 1074a2351.1 2351.1 0 0 1-15.6-101c-1-7.7-2.5-16.4 2.7-22 7.3-8 14-14.8 14.8-26.2.8-10.7-2.8-22.4-5-32.8a809.4 809.4 0 0 0-17.3-64.7c-6.6-21.7-13.9-43.2-21.3-64.6-6.9-20-13.5-40.3-22.5-59.5-17-36.5-46-63.5-81.6-81.6-9-4.5-27-20.5-36.3-24-8.5-3.4-8.5 6.3-16.9 2.6-6.7-2.9-13-6.7-16.7-13.2-4-7-14.3-16.9-15.9-25-3.3-17.4.3-32.2-12-45.3a90 90 0 0 0-41.1-23.8c-33.7-9.3-78.5-2.8-98.8 28.5-9.7 14.9-13 33-26.2 45.1-11.4 10.7-8.8 18-23.6 23.4-.9.3-23.6-4.5-24.4-4.2-16.2-3.5-31.7 6.2-46.5 11.8a325.4 325.4 0 0 0-63 32.3 399.2 399.2 0 0 0-102.3 98.5 482.5 482.5 0 0 0-76.4 161c-1.7 6.4-3.5 13-1.5 19.4 1.7 5.3 5.4 9.2 9.8 12.4 6 4.3 18 7 17.7 15.7-.1 6.6-2.4 13.5-3.5 20-1.3 7.7-2.3 15.5-3.4 23.2-4.8 35.4-8.6 71-10.3 106.6a920 920 0 0 0-.5 106c.1 2.3.8 4.5 2 6.2-1 .4-1.2 2.4.1 2.7l2.7.5a12 12 0 0 0 7 2.4l5.5.2c19.3 4 38.6 7.9 58.1 10.8 23.8 3.5 47.6 6.3 71.5 8.7 49.2 4.8 98 3.2 147.1.6a1877 1877 0 0 1 147.4-2c49.2 1.4 98.4 3.5 147.6 4.4 55 1 110-.5 164.8-5 7.5-.5 12.2-6.5 10.7-14-8.9-44.7-19-89.1-27-134Z" fill="#edb98a"/><path id="shirt" d="m201 597.5 1.2-.4c14.5-5.7 29.6-14.8 45.4-11.4.5-.2 10.8 1.9 17.9 3.2l-6.7 7L247 598c40.7 67.1 88.8 100.7 144.3 100.7 55.5 0 97.7-33.6 126.4-100.7l4-1c.4 0 1 .2 1.5.4 9.3 3.6 27.4 19.6 36.3 24.1 35.6 18 64.5 45 81.6 81.6 8.7 18.6 15.2 38 21.8 57.5l.7 2c7.4 21.4 14.7 43 21.3 64.6 6.3 20.4 12 41 16.6 61.8l.7 2.9c2.2 10.4 5.8 22 5 32.8a29 29 0 0 1-3 10.7l-80.4 29 38.4 261.3c-35.1 1.5-70.3 2-105.5 1.3-49.2-.9-98.4-3-147.6-4.3-47.7-1.2-95.3-.7-143 1.7l-12 .6a946.3 946.3 0 0 1-139.5-1l-3.1-.3v-38.3l16.3-212.9-83-15.6-81.3-39.5a21.7 21.7 0 0 1-5.6-8.8c-1.9-6-.5-12 1-18l.5-1.3a492.8 492.8 0 0 1 76.4-161A399.3 399.3 0 0 1 138 629.7c19.8-13 40.9-23.9 63-32.3Z" fill="#e279c7"/><path d="M232.2 584.6c5.1-.3 10.3.6 15.4 1 .4.1.6.8 0 .9-9 1.9-18 4.5-26.9 7.1l-3.8 1.2c-10 3-19.8 6-29.6 10-19.4 7.9-37.8 18.5-54.8 30.8C67.2 682.8 20 754.3-9.9 828.3a526 526 0 0 0-24.3 77c-.4 1.6-2 5.4-1 7 .7 1.3 3.6 2.1 5 2.9l4.5 2.3 25.2 12.9 2.3 1.1c38 18.6 78.4 34.4 121 35.5l.4-3.7a342 342 0 0 1 9.9-60c.3-1 1.6-.6 1.7.3 3 23.1 2 46.4 1 69.7-1.8 41-4.3 82.2-6.5 123.3-1.2 20.6-2.6 41-3.9 61.7-1.3 20.5-1.7 41.6-4.7 62-.6 4.6-6 7-10 6.6-4.4-.5-7.9-4.5-8-9 0-11.9 1.5-24 2.4-35.8l2.5-33.8c3.1-41.1 6.8-82.2 10.2-123.3a4771 4771 0 0 1 3.8-43.7C76.4 979.8 34.2 963-6.1 943.5c-.6 13.2-2 26.5-3.4 39.6-3.8 36.8-7.1 73.6-9.6 110.5a2254.2 2254.2 0 0 0-4.2 92.7l-.2 7c0 4.4-.5 8.5-4.3 11.7-3.7 3.3-8.9 3.5-12.6 0-5-4.6-4.2-10.9-4-17.1a1675.6 1675.6 0 0 1 1.8-47.2 1321 1321 0 0 1 10.5-109.5l2-14c3.5-26 7.5-52.7 15.5-77.9-3.1-1.5-6.2-3-9.3-4.7-5.5-2.7-11.2-5.4-16.6-8.4-4.2-2.5-7.9-5.8-9-10.8-1.4-5.5.6-11.5 2-16.9v-.4a502 502 0 0 1 26.6-80 523.2 523.2 0 0 1 67.8-117 353.8 353.8 0 0 1 88.7-83.3 239 239 0 0 1 53.8-25.7 142.6 142.6 0 0 1 42.8-7.5Zm90.1-66c6-6.5 18.1.2 15.2 8.8a108.2 108.2 0 0 1-34.7 52A79.4 79.4 0 0 1 247 598l1.7 2.4a321.1 321.1 0 0 0 46.1 52.6c36 31.2 84.8 48 132 36 37.1-9.4 69.8-38.8 79.4-76.2-1.3.6-3 .9-4.8.5-7.7-1.7-15.3-9.8-20.3-15.6-5.3-6.3-9.5-13-12.6-20.7-5.6-14-7.4-32.1.3-45.7 1-1.7 3-.7 3.3 1l.3 2.5c1.5 12.7 3.3 25 9.3 36.6a76 76 0 0 0 18.2 23.1c2.6 2 5.8 3.6 8.1 6l.5.4c.6-5 4.1-7.3 7.6-7.2 3.3.2 7.3 1.6 8.8 2.3l.1.1a341 341 0 0 1 65.1 42 259 259 0 0 1 88.4 129c7.5 25.3 11.8 51.4 16.3 77.4l2.8 16c4.2 23.9 8.9 48.4 18.4 70.7 2.5 5.7.6 11.1-5.5 13.4A1493 1493 0 0 1 688 953c3.7 16 6 32.5 8.7 48.5 6 34.1 13.2 68 19.4 102 3.2 17.5 6.1 35 9.3 52.3l4.7 25.2 2.4 13.6.1.7c.5 2.4 1 4.9.4 7.3-.8 2.7-2.9 4.6-4.8 6.6-1.6 1.6-3.8 1.6-5.7.7l-.7-.3c-3.4-1.6-6-3.2-7.3-7-.7-2.5-1-5.2-1.5-7.7a3535.6 3535.6 0 0 1-7.8-43.6l-1.6-9.1c-5.2-31.4-10.2-62.9-12.8-94.5-1-14-2.3-28.1-3.5-42.2l-.9-10.5c-1.1-13.3-2.5-27-2.7-40.5l-4.5 1.6L657 964c-5.5 2-12.5 6-18.4 5.2-2.9-.3-5-1.2-6.8-2.9 2 28.8 4.8 57.4 8.5 86a1965.7 1965.7 0 0 0 22 135c.6 3.2 1.4 6.4 1.9 9.6.5 3.7-.5 5.9-2.5 9-1.7 2.4-5 3.7-7.8 2-3.6-2.3-5.5-4.3-6.5-8.4-1-3.7-1.6-7.6-2.3-11.4a1654.2 1654.2 0 0 1-11.4-65.2c-7.8-52-12.7-104.4-15.2-156.8a1388 1388 0 0 1-1.4-77.8c0-13.3.5-26.6 1.4-39.9 1-13.4 3-26.5 4.8-39.8 0-.5.7-.5.7 0 .8 14.9 2.1 29.8 2.8 44.7.6 14.3.9 28.5 1.4 42.8.6 18.7 1.5 37.5 2.7 56.2a9.6 9.6 0 0 1 8.5-3.1c4.7-1 9.7-3.4 14.1-5l16.8-5.5 26.4-8.7a679 679 0 0 1-18-80.8l-2-12.3c-4-24.2-8.5-48.5-15.8-72a229.8 229.8 0 0 0-34.8-68.2 370.2 370.2 0 0 0-52.7-55.3C557 627 539.7 614 523 600c.1.9.2 2 0 3-3.5 25.9-17 50-35.8 67.9-37.7 36-93.6 43.4-142 26.5-46.7-16.3-88-55-102.6-102.8-.3-.8.8-1 1.3-.5l2.4 3.3c0-.4.2-.9.7-1a129 129 0 0 0 46.6-29.2 100.2 100.2 0 0 0 21.3-33.3l.4-1c1.7-5 3.2-10.2 7-14.2Z" fill="#000000"/></g>

        <g id="head" transform="matrix(.99789 0 0 1 156 62)"><path id="skin" d="M405.8668,203.178 C395.5658,165.992 356.1908,149.766 320.7288,147.191 C224.7148,137.21 126.9848,190.734 84.4188,277.525 C50.3458,343.428 49.2788,412.658 122.5208,450.287 C126.5208,452.492 130.6978,454.849 134.9638,456.989 C138.6698,460.435 142.4868,463.746 146.6528,466.526 C186.5358,492.752 235.4868,504.095 282.9248,501.635 C352.9658,500.223 377.9698,452.696 393.2708,391.747 C409.4088,331.068 418.4338,265.226 405.8668,203.178 L405.8668,203.178 Z" fill="#edb98a"/><path d="M451.8433,553.684 C448.5733,543.794 444.4733,534.204 440.6433,524.514 C439.8333,519.684 439.2933,514.814 439.1543,509.904 C438.6233,492.364 441.9043,474.674 445.5833,457.594 C453.0633,422.884 460.9933,388.534 464.9733,353.184 C472.0833,289.954 467.8533,224.204 439.0933,166.484 C414.1733,116.484 371.9433,75.594 317.3933,60.274 C301.2673,55.743 284.6703,53.244 267.9593,52.246 C265.8903,51.917 263.8243,51.595 261.7683,51.285 C238.5243,47.781 214.9943,46.035 191.5003,47.546 C152.5403,50.053 113.9443,61.249 81.4963,83.393 C48.8273,105.69 25.6153,136.954 14.8143,175.087 C3.5783,214.757 4.5313,257.72 -14.8717,294.912 C-20.6037,305.9 -27.2947,316.346 -33.6757,326.966 C-50.6067,345.857 -68.9887,366.858 -73.0167,392.833 C-77.9867,424.934 -59.5167,452.064 -42.0367,477.114 C-26.2367,499.734 -4.7967,530.974 -21.0567,558.824 C-28.7267,571.964 -41.0167,581.794 -50.2467,593.774 C-59.8167,606.214 -67.2867,620.494 -71.1467,635.754 C-78.3967,664.413 -71.7267,694.284 -52.3367,716.684 C-42.2367,728.344 -29.2667,736.054 -15.2267,742.064 C-0.8567,748.204 13.1833,754.034 25.0633,764.484 C30.4933,769.254 35.4633,774.484 40.1633,779.964 C44.5433,786.814 49.6433,793.214 55.3933,799.074 C61.7233,805.524 74.1233,796.694 68.3133,789.104 C67.8833,788.544 67.4633,787.994 67.0333,787.434 C62.7833,781.894 58.5133,776.354 54.0433,770.994 C40.7133,749.873 35.5833,724.014 42.2133,699.344 C43.9333,692.934 46.3533,686.854 49.3643,681.114 C50.0033,682.784 50.7033,684.434 51.4433,686.064 C54.3233,692.384 58.3643,699.873 63.5033,706.274 C63.7033,710.663 64.3643,715.014 65.6433,719.274 C73.5633,745.684 100.0433,758.714 123.9233,768.854 C126.2633,769.854 128.5733,770.814 130.8433,771.764 C137.0833,774.373 143.6833,765.484 139.7933,760.123 C138.7733,758.714 137.7833,757.274 136.8433,755.814 C125.6433,738.474 120.3133,717.734 123.3333,697.074 C126.5133,675.224 139.3933,657.144 152.1833,639.794 C164.7433,622.734 178.2333,605.324 183.8533,584.514 C190.0733,561.524 184.4133,538.604 174.8133,517.444 C166.0233,498.081 154.3143,480.234 144.4953,461.404 C147.8573,464.757 151.3263,468 154.9003,471.128 C158.9193,474.646 163.0483,478.672 167.8113,481.152 C171.3333,482.985 174.8613,478.597 172.0723,475.63 C168.4063,471.732 163.7153,468.72 159.6443,465.241 C155.7363,461.902 151.9413,458.429 148.2403,454.862 C143.6833,450.471 139.3483,445.873 135.1683,441.136 C131.8233,432.615 129.0673,423.865 126.8233,414.984 C123.7733,402.964 120.9533,390.174 121.1733,377.714 C121.3933,364.934 128.0333,355.984 136.8733,347.404 C140.6173,343.771 144.3973,340.181 148.1703,336.584 C156.2063,330.685 163.7863,324.095 171.1493,317.523 C184.2693,305.812 196.9593,293.433 209.0783,280.692 C212.3293,277.274 215.5533,273.818 218.7373,270.322 C229.8623,258.906 240.4723,246.986 250.4733,234.654 C260.4133,231.034 269.9633,226.244 278.9233,220.604 C275.0233,224.554 271.0833,228.454 267.1633,232.384 C258.4333,241.144 249.3643,249.944 239.2433,257.083 C238.2033,257.824 238.8333,259.394 240.1143,259.144 C252.9833,256.574 265.0233,252.294 276.2633,245.474 C287.6933,238.534 297.7633,229.104 307.1633,219.644 C312.4833,217.244 317.6143,214.154 322.3033,211.114 C322.5533,210.954 322.8033,210.784 323.0533,210.623 C318.4333,225.264 311.6543,241.844 297.2033,247.064 C296.7333,247.234 296.7633,248.014 297.3233,247.984 C309.4973,247.27 319.2813,241.793 327.0053,233.81 C333.2173,229.34 339.1453,224.603 344.8023,219.446 C350.2823,214.45 355.4733,209.092 360.4033,203.544 C353.5133,217.193 345.7953,230.539 338.1833,243.734 C337.7833,244.434 338.6233,245.384 339.3433,244.894 C355.4133,234.014 367.6033,219.974 377.5733,203.373 C379.0453,200.929 380.4503,198.445 381.8203,195.942 C380.7863,199.859 379.6573,203.751 378.4483,207.623 C376.2593,214.632 374.1043,221.657 371.9113,228.662 C370.7293,232.439 369.2883,236.13 367.7073,239.758 C366.5753,242.354 365.0933,244.945 364.8633,247.792 C364.8483,247.981 365.0543,248.105 365.2193,248.064 C371.6273,246.462 377.5943,239.154 382.1603,234.627 C384.7033,232.106 387.0853,229.339 389.2763,226.421 C389.6833,243.228 389.9633,260.037 389.5933,276.894 C388.9043,307.854 386.9043,338.804 384.3433,369.663 C382.0833,396.944 380.4133,425.574 365.1933,449.284 C353.4133,467.634 334.3133,480.333 313.5633,486.484 C311.7333,487.034 309.8933,487.524 308.0433,487.964 C278.0033,495.094 248.0833,487.014 221.5233,472.734 C213.5433,468.444 206.7233,480.083 214.4233,484.873 C243.2433,502.814 279.7733,508.924 312.3933,500.884 C311.3643,539.413 330.3533,575.964 349.2433,608.644 C359.8133,626.934 370.3933,645.104 377.8643,664.934 C384.2033,681.774 388.5133,699.244 389.9633,717.214 C391.6833,738.394 389.9933,759.694 387.0333,780.694 C386.8733,781.833 386.7133,782.984 386.5433,784.123 C385.8833,788.634 389.9333,792.413 394.3233,790.104 C413.7333,779.904 422.1033,758.163 427.1933,738.064 C431.9533,719.234 435.1833,700.034 436.9833,680.704 C439.6233,687.994 441.7633,695.464 443.4233,703.083 C443.6543,704.174 443.8733,705.264 444.0933,706.354 C445.3533,712.724 454.9933,712.274 456.5333,706.354 C456.8133,705.284 457.0833,704.214 457.3333,703.134 C465.2833,670.984 467.4233,637.454 463.2233,604.583 C461.0133,587.294 457.3233,570.234 451.8433,553.684" id="ðŸ–-Ink" fill="#000000"/></g>

        <g id="face" transform="translate(315 248)"><path d="M176.02971,239.644154 C169.637887,239.69642 162.4524,237.297827 157.647928,235.419824 L156.395115,234.923639 C152.236202,233.257962 147.964779,231.345719 144.779349,228.136932 C143.760701,227.094114 142.676146,225.914068 142.125282,224.673113 C141.802605,223.946205 141.668471,223.193634 141.980225,222.445961 C143.132269,222.332728 144.223848,222.18535 145.257786,221.996378 C145.750099,221.906399 146.221692,221.813093 146.583373,221.81068 C147.916117,221.802185 149.234462,221.971757 150.551836,222.138281 C150.742616,222.162397 150.933374,222.186509 151.124192,222.21013 C152.149847,222.33705 153.170512,222.474162 154.189301,222.611004 C157.15276,223.00905 160.100624,223.40378 163.107057,223.54755 C165.277827,223.651743 167.553758,223.529757 169.849917,223.404802 C175.805483,223.080703 181.962683,222.638337 186.551339,226.809651 C187.753038,227.902069 188.255407,229.278258 188.255407,230.680051 C188.255407,232.383472 187.538373,234.117465 186.444757,235.477978 C183.967691,238.557867 180.155556,239.610416 176.02971,239.644154 Z M210.882238,185.924199 C208.101743,190.095941 203.468972,192.77845 197.121054,192.486987 C184.5045,191.910097 169.446891,187.15002 158.88008,180.266926 C156.128254,178.474961 154.343912,175.609924 154.023919,172.540519 L153.454622,167.079765 L150.378172,171.627224 C150.05764,172.101019 149.734326,172.573495 149.410857,173.046205 C148.520054,174.348006 147.629997,175.649576 146.790017,176.983619 C143.566443,182.105733 140.611422,187.278696 137.927921,192.704365 C136.028157,196.546126 134.639141,200.843111 133.246133,205.178324 C130.894675,212.497754 128.62303,219.696429 123.598652,224.840723 C122.838977,225.618815 121.67117,225.897244 120.602356,225.7597 C119.660229,225.638459 118.736955,225.176544 118.284437,224.256337 C112.281263,212.048578 120.355669,197.337564 126.905585,187.11034 L127.598347,186.042365 C133.671845,176.800347 143.591061,164.56942 154.950956,162.906726 L156.251556,164.980884 L158.142417,163.719789 C161.234923,161.657268 165.317025,161.75321 168.890951,163.366833 L172.46509,164.979953 C179.118253,167.965637 185.680929,170.720436 192.879383,172.229357 C193.403952,172.339316 193.928091,172.441879 194.451426,172.537236 C194.945375,172.627237 195.442258,172.711484 195.941761,172.789626 C195.834073,172.298898 195.719079,171.810388 195.60382,171.323207 C195.481894,170.807841 195.359038,170.291279 195.227326,169.776315 C195.091324,169.244578 194.946219,168.715881 194.801286,168.189225 C194.224622,166.08955 193.573092,164.00866 192.800594,161.971325 C189.89417,154.312226 185.253562,147.148997 180.738376,140.316568 L180.207002,139.512828 C179.559635,138.533742 178.850833,137.512243 178.117422,136.455618 C174.596502,131.385477 170.691585,125.882915 170.414924,120.359436 C175.088786,120.653673 178.999744,123.557252 182.442437,126.085317 C187.166925,129.552355 191.545423,133.517086 195.517266,137.824564 C203.221312,146.180834 210.135753,156.863899 213.168061,167.907383 C214.904163,174.231128 214.140496,181.035639 210.882238,185.924199 L210.882238,185.924199 Z M87.6173265,122.923881 L87.6160369,122.698595 C87.6300369,116.321808 91.344047,101.762216 100.524157,101.762216 C106.259134,101.762216 109.740999,111.67102 110.343765,121.885575 L110.3647,122.302049 C110.630879,128.652574 108.888163,142.533717 100.524157,142.533717 C92.071637,142.533717 87.7042339,129.386546 87.6173265,122.923881 L87.6173265,122.923881 Z M222.772617,120.923881 L222.773907,120.698595 C222.759907,114.321808 219.045897,99.7622157 209.865787,99.7622157 C204.274184,99.7622157 200.824446,109.181773 200.096775,119.120207 L200.046179,119.885575 C199.684084,126.021693 201.313826,140.533717 209.865787,140.533717 C218.318307,140.533717 222.68571,127.386546 222.772617,120.923881 L222.772617,120.923881 Z M118.53429,79.7680988 C117.317758,79.9106848 116.107261,80.097547 114.897379,80.2897525 C111.367333,80.8521052 107.8564,81.5271297 104.36948,82.3138498 C97.7467896,83.8090043 91.1772706,85.6967567 84.7333151,87.8300044 C78.7033507,89.8269901 72.7671998,92.083769 66.8324925,94.3403369 C66.5157989,94.4607541 66.199109,94.5811698 65.8822838,94.7015918 C63.7868818,95.4983536 61.6984692,96.3910009 59.6036281,97.2867029 C56.4154582,98.6498851 53.2126678,100.022204 49.9443536,101.056289 C58.5551148,89.1503798 71.8238293,80.328547 84.5909251,74.0157103 C91.875359,70.4139625 99.6032726,67.5095184 107.377029,65.1296645 L111.706218,63.8287835 C118.080863,61.9480786 125.050815,60.2108515 131.038939,63.9608215 C133.407327,65.4440266 134.918619,67.749563 135.394602,70.2420298 C135.861386,72.6863293 135.328871,75.3070881 133.641078,77.494289 C132.170428,79.3996534 130.337932,80.4847925 128.387536,80.8566957 C126.234862,81.2671695 123.953511,80.816378 121.87681,79.7072256 C120.213068,79.5833049 119.722096,79.6280883 119.229893,79.6828202 L118.53429,79.7680988 Z M214.43213,80.9794236 C210.165597,80.0519166 205.940872,79.6795437 201.563665,79.8130512 C199.584208,79.8725314 197.669201,80.1783078 195.759277,80.4860248 C192.792996,80.9639365 189.838131,81.4575379 186.642392,80.8776949 C184.975143,80.5748977 183.555111,79.5997219 182.458274,78.3267269 C181.175979,76.8384886 180.327609,74.9364168 180.055575,73.1278488 C179.774546,71.259614 180.054149,69.6257955 180.745371,68.1830624 C181.56198,66.4786183 182.937687,65.0421873 184.60029,63.783895 C189.631241,59.9752285 198.263297,60.8912257 204.200778,61.6612548 C210.068138,62.4240507 215.902979,64.2434393 221.089813,67.1330647 C226.206828,69.9853958 230.655195,73.8275454 234.126512,78.5239749 C237.052247,82.4824883 238.430481,87.0384392 239.853737,91.6773738 C233.158782,86.0610835 222.913254,82.8205217 214.43213,80.9794236 Z" id="ðŸ–-Ink" fill="#000000"/></g>

        <g id="facial-hair" transform="translate(279 400)"><path d="M117.724748,95.193032 C125.820991,76.2257701 143.491513,62.2858787 163.836481,57.1894344 C178.77663,53.4564466 194.455798,53.5755739 209.685563,55.0571566 C217.664961,55.82798 226.223589,56.4596548 233.743597,59.4228202 C240.165065,61.9545247 245.398112,66.7396365 249.332884,72.3566369 C254.016661,79.0127473 257.202428,86.6308855 259.439456,94.4392268 C259.757034,95.5494127 260.055637,96.6676073 260.334267,97.7918082 C259.36156,103.683102 257.296304,108.697458 251.839554,112.401415 C246.514629,116.018279 240.161071,117.497859 233.827486,118.023421 C233.206311,117.725102 232.606109,117.418775 232.05584,117.104439 C222.185954,111.454403 215.239184,98.1021397 202.781736,99.90907 C191.664507,101.522794 184.34623,115.510737 177.735014,123.713499 C156.513211,126.186141 135.307387,119.809329 118.040329,107.674365 C117.163494,103.520928 117.112562,99.332454 117.724748,95.193032 M274.758103,80.8046615 C273.060358,76.0405723 270.922199,71.4266434 268.387567,67.0800001 C260.0087,52.7056446 247.14579,41.2524095 231.876079,34.7054157 C195.754073,19.2388934 149.016172,30.1415403 119.844931,55.5076378 C109.880171,64.1789009 99.8045583,76.9215133 96.7576067,90.6281556 C95.8478155,90.8083481 94.9889566,91.2818539 94.2818961,91.9485661 C73.2058992,78.6793912 51.5017369,65.9127532 34.5183023,47.519104 C22.1846896,34.1548275 13.6060877,18.338932 8.35306724,0.959366195 C7.92363781,-0.471161978 5.61670297,-0.261938473 5.68661009,1.32075225 C5.70658355,1.69114793 5.72655701,2.06054254 5.74653047,2.43093821 C5.52682239,1.75021102 4.48820238,2.10058531 4.40830853,2.76129112 C1.58206368,23.8738448 -1.95323907,46.2577565 1.30243521,67.4804278 C3.24984774,80.1439557 9.00220475,89.4148595 16.6919876,99.4255535 C24.9310406,110.156016 34.2586473,120.136678 43.7959753,129.707903 C49.8479342,135.783393 56.1695349,142.790879 63.5796892,147.245638 C72.198238,152.421166 81.9752476,156.35637 91.1730268,160.349636 C100.530594,164.423989 110.027975,168.188009 119.705117,171.451496 C139.049415,177.99849 159.04285,182.523323 179.385821,184.505441 C195.674179,186.08713 214.289446,187.809971 229.898706,181.682425 C241.86281,176.98741 251.519978,168.499342 259.179801,158.287433 C267.518721,147.165552 274.110962,134.497019 277.755121,121.137748 C281.542089,107.260924 275.556042,83.0420517 274.758103,80.8046615" id="ðŸ–-Ink" fill="#000000"/></g>

        <g id="eyewear" transform="translate(203 303)"><path d="M398.9346,13.2313 C398.1116,13.0943 397.2876,12.9653 396.4636,12.8443 C395.8206,12.4793 395.0656,12.1983 394.1876,12.0293 C392.1826,11.5203 390.1916,11.1773 388.2036,10.9923 C359.6716,4.5713 293.6646,13.6883 290.9406,38.0363 C281.8546,41.0693 273.9926,38.3533 263.4616,38.6233 C255.4456,5.1183 116.8626,9.8473 110.1976,30.0473 C110.1726,30.0403 110.1476,30.0343 110.1216,30.0263 C103.7176,28.0443 94.2766,28.5223 86.9466,28.2083 C71.2956,27.8803 55.6266,29.2753 40.3136,32.5763 C11.6386,37.1333 -27.4964,42.4683 -7.5534,78.2763 C-7.5494,78.2823 -7.5464,78.2893 -7.5414,78.2953 L-7.5384,78.2923 C-4.1014,81.8153 1.7316,78.9783 1.9486,74.2093 C-4.7564,57.2453 10.3876,55.2083 22.0396,50.3333 C51.0326,39.9173 80.5506,38.4733 110.5366,41.6953 C112.7926,44.3513 116.2156,46.6673 119.8336,47.8793 C139.8826,51.2073 129.3166,66.0793 141.9896,68.2423 C139.6616,120.0843 202.6026,148.3823 239.0716,114.3033 C253.6326,100.0673 257.1036,78.9783 260.4796,59.9693 C262.2646,59.5683 263.3996,58.5923 264.0626,57.3003 C268.3556,53.0143 271.0526,49.0563 279.5416,47.8793 C288.0306,46.7033 294.5656,49.0643 295.4496,49.7873 C295.6726,50.2363 295.9116,50.6863 296.1896,51.1363 C296.5776,51.8073 297.1056,52.3423 297.7056,52.7633 C289.3226,104.3873 329.3996,137.0353 369.8586,110.2603 C387.4386,93.7233 391.1536,68.4053 391.8876,45.8073 C394.2706,44.3693 395.7796,41.5823 394.9546,38.0783 C393.8176,33.2483 396.4836,29.0663 400.7296,26.9663 C406.2466,24.2393 405.2706,14.2803 398.9346,13.2313 M225.086988,37.7223618 C220.065054,36.6178235 217.920374,44.3606372 222.95832,45.4681879 C226.525804,46.252514 229.549376,48.0515396 231.592155,51.0993468 L231.807252,51.4306867 C234.548399,55.792609 241.479828,51.7660647 238.719666,47.3760269 C235.614234,42.4357281 230.788453,38.9755108 225.086988,37.7223618 Z M372.1732,32.9216366 C370.402814,31.6745124 367.723715,32.6003163 366.69591,34.362557 C365.564701,36.303111 366.306135,38.4637159 367.964208,39.7331967 L368.133036,39.8571332 C369.653907,40.9290575 371.135119,42.8505012 371.321131,44.8192514 L371.337546,45.0655335 C371.536702,50.2177028 379.543974,50.24381 379.343817,45.0655335 C379.148664,39.999719 376.215367,35.767329 372.1732,32.9216366 Z" id="ðŸ–-Ink" fill="#000000"/></g>
    </g>
</svg>