<svg xmlns="http://www.w3.org/2000/svg" viewBox="0 0 704 704" fill="none" width="512" height="512">
    <desc>"Open Peeps" by "Pablo Stanley", licensed under "CC0 1.0". / Remix of the original.</desc>
    <mask id="viewbox"><rect width="704" height="704" rx="0" ry="0" x="0" y="0" fill="#ffffff" /></mask>
    <g mask="url(#viewbox)">
        <rect id="background" fill="#ffffff" width="704" height="704" x="0" y="0" />

        <g id="body"><path id="skin" d="M705.3 1074a2351.1 2351.1 0 0 1-15.6-101c-1-7.7-2.5-16.4 2.7-22 7.3-8 14-14.8 14.8-26.2.8-10.7-2.8-22.4-5-32.8a809.4 809.4 0 0 0-17.3-64.7c-6.6-21.7-13.9-43.2-21.3-64.6-6.9-20-13.5-40.3-22.5-59.5-17-36.5-46-63.5-81.6-81.6-9-4.5-27-20.5-36.3-24-8.5-3.4-8.5 6.3-16.9 2.6-6.7-2.9-13-6.7-16.7-13.2-4-7-14.3-16.9-15.9-25-3.3-17.4.3-32.2-12-45.3a90 90 0 0 0-41.1-23.8c-33.7-9.3-78.5-2.8-98.8 28.5-9.7 14.9-13 33-26.2 45.1-11.4 10.7-8.8 18-23.6 23.4-.9.3-23.6-4.5-24.4-4.2-16.2-3.5-31.7 6.2-46.5 11.8a325.4 325.4 0 0 0-63 32.3 399.2 399.2 0 0 0-102.3 98.5 482.5 482.5 0 0 0-76.4 161c-1.7 6.4-3.5 13-1.5 19.4 1.7 5.3 5.4 9.2 9.8 12.4 6 4.3 18 7 17.7 15.7-.1 6.6-2.4 13.5-3.5 20-1.3 7.7-2.3 15.5-3.4 23.2-4.8 35.4-8.6 71-10.3 106.6a920 920 0 0 0-.5 106c.1 2.3.8 4.5 2 6.2-1 .4-1.2 2.4.1 2.7l2.7.5a12 12 0 0 0 7 2.4l5.5.2c19.3 4 38.6 7.9 58.1 10.8 23.8 3.5 47.6 6.3 71.5 8.7 49.2 4.8 98 3.2 147.1.6a1877 1877 0 0 1 147.4-2c49.2 1.4 98.4 3.5 147.6 4.4 55 1 110-.5 164.8-5 7.5-.5 12.2-6.5 10.7-14-8.9-44.7-19-89.1-27-134Z" fill="#FFFFFF"/><path id="shirt" d="m201 597.5 1.2-.4c14.5-5.7 29.6-14.8 45.4-11.4.5-.2 10.8 1.9 17.9 3.2l-6.7 7L247 598c40.7 67.1 88.8 100.7 144.3 100.7 55.5 0 97.7-33.6 126.4-100.7l4-1c.4 0 1 .2 1.5.4 9.3 3.6 27.4 19.6 36.3 24.1 35.6 18 64.5 45 81.6 81.6 8.7 18.6 15.2 38 21.8 57.5l.7 2c7.4 21.4 14.7 43 21.3 64.6 6.3 20.4 12 41 16.6 61.8l.7 2.9c2.2 10.4 5.8 22 5 32.8a29 29 0 0 1-3 10.7l-80.4 29 38.4 261.3c-35.1 1.5-70.3 2-105.5 1.3-49.2-.9-98.4-3-147.6-4.3-47.7-1.2-95.3-.7-143 1.7l-12 .6a946.3 946.3 0 0 1-139.5-1l-3.1-.3v-38.3l16.3-212.9-83-15.6-81.3-39.5a21.7 21.7 0 0 1-5.6-8.8c-1.9-6-.5-12 1-18l.5-1.3a492.8 492.8 0 0 1 76.4-161A399.3 399.3 0 0 1 138 629.7c19.8-13 40.9-23.9 63-32.3Z" fill="#fff"/><path d="M232.2 584.6c5.1-.3 10.3.6 15.4 1 .4.1.6.8 0 .9-9 1.9-18 4.5-26.9 7.1l-3.8 1.2c-10 3-19.8 6-29.6 10-19.4 7.9-37.8 18.5-54.8 30.8C67.2 682.8 20 754.3-9.9 828.3a526 526 0 0 0-24.3 77c-.4 1.6-2 5.4-1 7 .7 1.3 3.6 2.1 5 2.9l4.5 2.3 25.2 12.9 2.3 1.1c38 18.6 78.4 34.4 121 35.5l.4-3.7a342 342 0 0 1 9.9-60c.3-1 1.6-.6 1.7.3 3 23.1 2 46.4 1 69.7-1.8 41-4.3 82.2-6.5 123.3-1.2 20.6-2.6 41-3.9 61.7-1.3 20.5-1.7 41.6-4.7 62-.6 4.6-6 7-10 6.6-4.4-.5-7.9-4.5-8-9 0-11.9 1.5-24 2.4-35.8l2.5-33.8c3.1-41.1 6.8-82.2 10.2-123.3a4771 4771 0 0 1 3.8-43.7C76.4 979.8 34.2 963-6.1 943.5c-.6 13.2-2 26.5-3.4 39.6-3.8 36.8-7.1 73.6-9.6 110.5a2254.2 2254.2 0 0 0-4.2 92.7l-.2 7c0 4.4-.5 8.5-4.3 11.7-3.7 3.3-8.9 3.5-12.6 0-5-4.6-4.2-10.9-4-17.1a1675.6 1675.6 0 0 1 1.8-47.2 1321 1321 0 0 1 10.5-109.5l2-14c3.5-26 7.5-52.7 15.5-77.9-3.1-1.5-6.2-3-9.3-4.7-5.5-2.7-11.2-5.4-16.6-8.4-4.2-2.5-7.9-5.8-9-10.8-1.4-5.5.6-11.5 2-16.9v-.4a502 502 0 0 1 26.6-80 523.2 523.2 0 0 1 67.8-117 353.8 353.8 0 0 1 88.7-83.3 239 239 0 0 1 53.8-25.7 142.6 142.6 0 0 1 42.8-7.5Zm90.1-66c6-6.5 18.1.2 15.2 8.8a108.2 108.2 0 0 1-34.7 52A79.4 79.4 0 0 1 247 598l1.7 2.4a321.1 321.1 0 0 0 46.1 52.6c36 31.2 84.8 48 132 36 37.1-9.4 69.8-38.8 79.4-76.2-1.3.6-3 .9-4.8.5-7.7-1.7-15.3-9.8-20.3-15.6-5.3-6.3-9.5-13-12.6-20.7-5.6-14-7.4-32.1.3-45.7 1-1.7 3-.7 3.3 1l.3 2.5c1.5 12.7 3.3 25 9.3 36.6a76 76 0 0 0 18.2 23.1c2.6 2 5.8 3.6 8.1 6l.5.4c.6-5 4.1-7.3 7.6-7.2 3.3.2 7.3 1.6 8.8 2.3l.1.1a341 341 0 0 1 65.1 42 259 259 0 0 1 88.4 129c7.5 25.3 11.8 51.4 16.3 77.4l2.8 16c4.2 23.9 8.9 48.4 18.4 70.7 2.5 5.7.6 11.1-5.5 13.4A1493 1493 0 0 1 688 953c3.7 16 6 32.5 8.7 48.5 6 34.1 13.2 68 19.4 102 3.2 17.5 6.1 35 9.3 52.3l4.7 25.2 2.4 13.6.1.7c.5 2.4 1 4.9.4 7.3-.8 2.7-2.9 4.6-4.8 6.6-1.6 1.6-3.8 1.6-5.7.7l-.7-.3c-3.4-1.6-6-3.2-7.3-7-.7-2.5-1-5.2-1.5-7.7a3535.6 3535.6 0 0 1-7.8-43.6l-1.6-9.1c-5.2-31.4-10.2-62.9-12.8-94.5-1-14-2.3-28.1-3.5-42.2l-.9-10.5c-1.1-13.3-2.5-27-2.7-40.5l-4.5 1.6L657 964c-5.5 2-12.5 6-18.4 5.2-2.9-.3-5-1.2-6.8-2.9 2 28.8 4.8 57.4 8.5 86a1965.7 1965.7 0 0 0 22 135c.6 3.2 1.4 6.4 1.9 9.6.5 3.7-.5 5.9-2.5 9-1.7 2.4-5 3.7-7.8 2-3.6-2.3-5.5-4.3-6.5-8.4-1-3.7-1.6-7.6-2.3-11.4a1654.2 1654.2 0 0 1-11.4-65.2c-7.8-52-12.7-104.4-15.2-156.8a1388 1388 0 0 1-1.4-77.8c0-13.3.5-26.6 1.4-39.9 1-13.4 3-26.5 4.8-39.8 0-.5.7-.5.7 0 .8 14.9 2.1 29.8 2.8 44.7.6 14.3.9 28.5 1.4 42.8.6 18.7 1.5 37.5 2.7 56.2a9.6 9.6 0 0 1 8.5-3.1c4.7-1 9.7-3.4 14.1-5l16.8-5.5 26.4-8.7a679 679 0 0 1-18-80.8l-2-12.3c-4-24.2-8.5-48.5-15.8-72a229.8 229.8 0 0 0-34.8-68.2 370.2 370.2 0 0 0-52.7-55.3C557 627 539.7 614 523 600c.1.9.2 2 0 3-3.5 25.9-17 50-35.8 67.9-37.7 36-93.6 43.4-142 26.5-46.7-16.3-88-55-102.6-102.8-.3-.8.8-1 1.3-.5l2.4 3.3c0-.4.2-.9.7-1a129 129 0 0 0 46.6-29.2 100.2 100.2 0 0 0 21.3-33.3l.4-1c1.7-5 3.2-10.2 7-14.2Z" fill="#000000"/></g>

        <g id="head" transform="matrix(.99789 0 0 1 156 62)"><path id="skin" d="M388.416675,151.808832 C381.338675,126.312832 382.3511,123.5552 371.8021,99.2022 C336.8221,28.4522 103.0631,52.1412 79.2061,122.7652 C66.2635108,161.079214 69.3041,215.0382 65.9351,248.2612 C64.904144,265.875904 63.8914203,283.491714 62.8423101,301.104932 C62.4799964,307.187714 62.113343,313.270188 61.7401,319.3522 C61.0131,331.1922 60.3061,343.0322 59.6461,354.8762 C55.2511,391.3622 73.5871,395.0732 105.0381,393.9932 C113.3531,414.0542 126.8201,430.8002 143.4551,444.4252 C139.4401,455.3472 154.0001,461.0012 161.8541,465.3682 C204.5871,489.2282 257.0781,503.7832 304.4111,490.3662 C318.318671,486.423963 375.752622,472.770576 393.4121,430.504717 C402.084181,409.749124 419.713053,302.26361 396.465053,205.57561 L388.416675,151.808832 Z" fill="#FFFFFF"/><path d="M239.0013,-14.494 C245.6103,-15.663 253.0013,-15.213 256.7903,-8.723 C257.6103,-7.324 258.1303,-5.913 258.3803,-4.523 C276.4403,-8.583 295.1903,-9.023 313.6403,-6.363 C319.1403,-5.574 321.0703,1.756 318.6503,5.947 C318.4003,6.377 318.1503,6.796 317.8803,7.207 C323.6603,7.676 329.4303,8.676 335.1503,10.217 C339.2203,11.317 343.0203,16.587 341.2113,20.907 C341.0503,21.287 340.8803,21.667 340.7113,22.046 C349.7003,23.557 358.2903,27.087 365.8003,32.787 C366.7003,33.457 367.5303,34.327 368.2203,35.317 C385.0103,33.426 402.3003,36.897 417.2903,44.997 C421.4903,47.266 423.5203,53.807 420.6703,57.887 C419.7803,59.157 418.8503,60.367 417.8503,61.537 C424.3703,63.947 430.1403,67.846 434.0303,74.197 C438.2603,81.087 439.5603,89.957 437.2903,97.537 C442.0303,102.367 444.5103,109.766 442.8203,117.186 C441.2803,123.957 437.1303,128.256 431.8103,130.837 C432.8903,134.137 432.0203,137.887 429.5703,140.436 C425.8103,144.346 421.3103,147.346 416.4103,149.317 C416.4003,150.587 416.0803,151.897 415.4403,153.117 C411.0203,161.596 401.4903,167.227 391.8003,168.077 C395.0603,181.766 397.7403,195.627 400.3403,209.407 C404.9613,233.917 408.5403,258.667 410.7203,283.516 L410.984914,286.589063 C414.53615,328.637328 415.361729,372.68769 406.8103,414.167 C401.3603,440.577 384.8403,462.837 362.8003,477.917 C340.3903,493.256 313.0103,500.887 286.0703,502.096 C272.3303,502.707 258.4613,501.546 245.0013,498.727 C238.6103,497.387 232.4403,495.487 226.3703,493.067 C219.8403,490.457 214.4613,486.607 208.9403,482.277 C206.0703,480.027 207.7113,474.717 211.1103,474.046 C213.5403,473.557 215.9403,473.027 218.3603,472.587 C220.5803,472.176 223.0013,474.397 222.5403,476.447 L227.22254,477.652568 C228.78318,478.055096 230.34286,478.461112 231.89902,478.879064 L234.2303,479.516 C240.8603,481.367 247.6403,482.926 254.4403,484.037 C268.2803,486.287 282.6803,486.337 296.5903,484.587 C319.9803,481.657 343.8703,473.317 362.0603,457.947 C370.9803,450.407 378.4103,441.477 383.8003,431.107 C390.6503,417.936 392.7203,403.266 394.4403,388.697 C399.4103,346.567 397.8803,304.377 394.0203,262.237 C392.1003,241.277 389.4803,220.357 386.7003,199.487 C385.2703,188.787 383.7303,178.067 382.4613,167.327 C379.6303,166.567 376.9303,165.307 374.5103,163.477 C372.8703,162.237 371.9103,160.796 371.4903,159.327 C369.04655,158.866042 366.704743,157.525253 365.016723,155.257988 L364.8003,154.957 C360.3703,148.546 352.7113,144.877 345.6203,142.207 C341.3203,140.587 336.9403,139.176 332.5803,137.737 C328.0403,136.227 323.2403,133.997 318.4703,133.417 C313.0603,132.777 307.6103,134.407 302.1503,133.827 C297.1903,133.287 292.8203,131.506 289.2513,127.947 C288.0013,126.707 286.9203,125.277 286.0603,123.737 C269.4103,127.296 251.9203,122.807 234.6203,123.887 C223.2403,124.607 213.2003,131.647 201.7003,131.457 C198.5603,131.407 195.5203,130.307 193.3103,128.377 C182.4613,130.447 171.4303,134.426 161.2303,137.846 C151.1503,141.227 141.4503,145.777 131.4903,149.467 C131.4803,149.477 131.4803,149.477 131.4803,149.487 C130.1803,153.697 126.3003,155.516 122.1703,154.777 C108.6603,152.367 97.2803,143.846 84.1303,140.727 C80.5103,153.917 76.6203,166.936 73.9613,180.387 C71.2703,193.957 69.3803,207.707 68.1303,221.487 C66.8703,235.317 66.2703,249.287 66.2403,263.167 C66.2303,270.247 66.4103,277.346 66.6503,284.426 C66.8447444,290.357528 67.9749528,297.857169 65.832088,303.56153 L65.6403,304.046 L65.6303,304.046 C65.3703,304.877 64.2003,305.377 63.5403,304.607 C59.5103,299.926 58.5503,292.477 57.4303,286.596 C56.0703,279.457 55.2003,272.247 54.5013,265.016 C53.1003,250.506 52.7903,236.057 53.5303,221.487 C54.9803,192.807 59.5803,162.516 69.4003,135.407 C66.3803,135.686 65.0303,131.237 64.8303,128.727 C64.4476913,123.682652 65.2378614,118.329798 66.0942106,113.270722 L66.989513,108.033435 C67.8383556,103.089917 68.7369667,98.2753333 70.4203,93.467 C74.4613,81.926 80.2703,71.087 87.5103,61.237 C102.2803,41.147 122.7513,25.936 146.0603,17.167 C147.5203,16.617 148.9003,16.627 150.1203,17.046 C171.3303,5.617 194.1303,-3.183 217.2903,-9.443 C224.4503,-11.373 231.7003,-13.193 239.0013,-14.494 Z M62.8606,307.9365 C72.4906,301.8975 92.3606,300.3175 97.7306,313.1865 C97.9506,313.7065 97.3306,314.1665 96.8706,314.0465 L95.5565528,313.714567 C90.5088271,312.463795 86.1469158,311.745132 80.9706,313.8175 C76.4206,315.6375 72.0006,318.4865 68.9906,322.4065 C61.8753619,331.676976 61.1038376,344.269428 61.7673931,355.514457 L61.8006,356.0575 C62.4206,365.9265 64.9506,377.9465 74.6006,382.8265 C79.4906,385.2965 84.7806,385.1165 90.0906,385.0765 C96.1406,385.0365 102.3206,385.6965 108.1006,387.5575 C111.3306,388.5965 112.8506,392.8765 110.1706,395.3875 C109.2806,396.2175 108.3506,396.9965 107.3706,397.6965 C110.3006,400.8175 113.1806,403.9775 115.9706,407.3075 C120.7006,412.9565 125.7306,418.4165 130.9806,423.5865 C136.0606,428.5765 141.4406,433.4065 147.2406,437.5465 C153.3406,441.8875 160.6406,444.9365 165.9206,450.2565 C169.3606,453.7175 168.7706,458.5465 165.9206,462.0465 C158.8454,470.74506 146.802776,461.600522 140.037971,456.457019 L139.2206,455.8365 C132.1906,450.5165 125.5106,444.7765 119.8206,438.0165 C114.0206,431.1165 109.0006,423.7765 105.2906,415.5465 C103.1106,410.7065 101.7206,406.1375 100.9706,401.3575 C88.8106,406.6375 73.4806,404.9565 62.5806,397.5265 C48.1106,387.6665 44.0506,369.5675 43.9999519,353.0465 L44.0014227,352.06706 C44.108496,336.0086 48.3272,317.0505 62.8606,307.9365 Z M90.2943881,331.211644 L90.7403,331.2169 C96.0956333,331.3329 100.871611,333.261722 105.420519,335.919411 L105.8903,336.1969 C110.3103,338.8269 116.6503,340.9359 118.9903,345.8569 C120.3903,348.8269 120.2903,352.2269 117.8503,354.6859 C113.4303,359.1469 106.7603,358.4069 101.9803,354.9259 C98.4103,352.3169 96.0603,348.4069 92.5603,345.7659 C85.9803,340.7869 75.6003,341.0669 68.7513,345.3769 C68.3303,345.6469 67.9213,345.1369 68.1103,344.7369 C72.3165879,336.129324 80.652823,331.178372 90.2943881,331.211644 L90.2943881,331.211644 Z" id="ðŸ–-Ink" fill="#000000"/></g>

        <g id="face" transform="translate(315 248)"><path d="M176.02971,239.644154 C169.637887,239.69642 162.4524,237.297827 157.647928,235.419824 L156.395115,234.923639 C152.236202,233.257962 147.964779,231.345719 144.779349,228.136932 C143.760701,227.094114 142.676146,225.914068 142.125282,224.673113 C141.802605,223.946205 141.668471,223.193634 141.980225,222.445961 C143.132269,222.332728 144.223848,222.18535 145.257786,221.996378 C145.750099,221.906399 146.221692,221.813093 146.583373,221.81068 C147.916117,221.802185 149.234462,221.971757 150.551836,222.138281 C150.742616,222.162397 150.933374,222.186509 151.124192,222.21013 C152.149847,222.33705 153.170512,222.474162 154.189301,222.611004 C157.15276,223.00905 160.100624,223.40378 163.107057,223.54755 C165.277827,223.651743 167.553758,223.529757 169.849917,223.404802 C175.805483,223.080703 181.962683,222.638337 186.551339,226.809651 C187.753038,227.902069 188.255407,229.278258 188.255407,230.680051 C188.255407,232.383472 187.538373,234.117465 186.444757,235.477978 C183.967691,238.557867 180.155556,239.610416 176.02971,239.644154 Z M210.882238,185.924199 C208.101743,190.095941 203.468972,192.77845 197.121054,192.486987 C184.5045,191.910097 169.446891,187.15002 158.88008,180.266926 C156.128254,178.474961 154.343912,175.609924 154.023919,172.540519 L153.454622,167.079765 L150.378172,171.627224 C150.05764,172.101019 149.734326,172.573495 149.410857,173.046205 C148.520054,174.348006 147.629997,175.649576 146.790017,176.983619 C143.566443,182.105733 140.611422,187.278696 137.927921,192.704365 C136.028157,196.546126 134.639141,200.843111 133.246133,205.178324 C130.894675,212.497754 128.62303,219.696429 123.598652,224.840723 C122.838977,225.618815 121.67117,225.897244 120.602356,225.7597 C119.660229,225.638459 118.736955,225.176544 118.284437,224.256337 C112.281263,212.048578 120.355669,197.337564 126.905585,187.11034 L127.598347,186.042365 C133.671845,176.800347 143.591061,164.56942 154.950956,162.906726 L156.251556,164.980884 L158.142417,163.719789 C161.234923,161.657268 165.317025,161.75321 168.890951,163.366833 L172.46509,164.979953 C179.118253,167.965637 185.680929,170.720436 192.879383,172.229357 C193.403952,172.339316 193.928091,172.441879 194.451426,172.537236 C194.945375,172.627237 195.442258,172.711484 195.941761,172.789626 C195.834073,172.298898 195.719079,171.810388 195.60382,171.323207 C195.481894,170.807841 195.359038,170.291279 195.227326,169.776315 C195.091324,169.244578 194.946219,168.715881 194.801286,168.189225 C194.224622,166.08955 193.573092,164.00866 192.800594,161.971325 C189.89417,154.312226 185.253562,147.148997 180.738376,140.316568 L180.207002,139.512828 C179.559635,138.533742 178.850833,137.512243 178.117422,136.455618 C174.596502,131.385477 170.691585,125.882915 170.414924,120.359436 C175.088786,120.653673 178.999744,123.557252 182.442437,126.085317 C187.166925,129.552355 191.545423,133.517086 195.517266,137.824564 C203.221312,146.180834 210.135753,156.863899 213.168061,167.907383 C214.904163,174.231128 214.140496,181.035639 210.882238,185.924199 L210.882238,185.924199 Z M87.6173265,122.923881 L87.6160369,122.698595 C87.6300369,116.321808 91.344047,101.762216 100.524157,101.762216 C106.259134,101.762216 109.740999,111.67102 110.343765,121.885575 L110.3647,122.302049 C110.630879,128.652574 108.888163,142.533717 100.524157,142.533717 C92.071637,142.533717 87.7042339,129.386546 87.6173265,122.923881 L87.6173265,122.923881 Z M222.772617,120.923881 L222.773907,120.698595 C222.759907,114.321808 219.045897,99.7622157 209.865787,99.7622157 C204.274184,99.7622157 200.824446,109.181773 200.096775,119.120207 L200.046179,119.885575 C199.684084,126.021693 201.313826,140.533717 209.865787,140.533717 C218.318307,140.533717 222.68571,127.386546 222.772617,120.923881 L222.772617,120.923881 Z M118.53429,79.7680988 C117.317758,79.9106848 116.107261,80.097547 114.897379,80.2897525 C111.367333,80.8521052 107.8564,81.5271297 104.36948,82.3138498 C97.7467896,83.8090043 91.1772706,85.6967567 84.7333151,87.8300044 C78.7033507,89.8269901 72.7671998,92.083769 66.8324925,94.3403369 C66.5157989,94.4607541 66.199109,94.5811698 65.8822838,94.7015918 C63.7868818,95.4983536 61.6984692,96.3910009 59.6036281,97.2867029 C56.4154582,98.6498851 53.2126678,100.022204 49.9443536,101.056289 C58.5551148,89.1503798 71.8238293,80.328547 84.5909251,74.0157103 C91.875359,70.4139625 99.6032726,67.5095184 107.377029,65.1296645 L111.706218,63.8287835 C118.080863,61.9480786 125.050815,60.2108515 131.038939,63.9608215 C133.407327,65.4440266 134.918619,67.749563 135.394602,70.2420298 C135.861386,72.6863293 135.328871,75.3070881 133.641078,77.494289 C132.170428,79.3996534 130.337932,80.4847925 128.387536,80.8566957 C126.234862,81.2671695 123.953511,80.816378 121.87681,79.7072256 C120.213068,79.5833049 119.722096,79.6280883 119.229893,79.6828202 L118.53429,79.7680988 Z M214.43213,80.9794236 C210.165597,80.0519166 205.940872,79.6795437 201.563665,79.8130512 C199.584208,79.8725314 197.669201,80.1783078 195.759277,80.4860248 C192.792996,80.9639365 189.838131,81.4575379 186.642392,80.8776949 C184.975143,80.5748977 183.555111,79.5997219 182.458274,78.3267269 C181.175979,76.8384886 180.327609,74.9364168 180.055575,73.1278488 C179.774546,71.259614 180.054149,69.6257955 180.745371,68.1830624 C181.56198,66.4786183 182.937687,65.0421873 184.60029,63.783895 C189.631241,59.9752285 198.263297,60.8912257 204.200778,61.6612548 C210.068138,62.4240507 215.902979,64.2434393 221.089813,67.1330647 C226.206828,69.9853958 230.655195,73.8275454 234.126512,78.5239749 C237.052247,82.4824883 238.430481,87.0384392 239.853737,91.6773738 C233.158782,86.0610835 222.913254,82.8205217 214.43213,80.9794236 Z" id="ðŸ–-Ink" fill="#000000"/></g>

        <g id="facial-hair" transform="translate(279 400)"></g>

        <g id="eyewear" transform="translate(203 303)"><path d="M372.3111,95.4577 C360.1701,108.0027 339.9021,111.6027 323.7491,104.8747 C282.2731,87.5457 302.5741,33.4957 334.5611,18.9807 C338.5571,17.9847 343.8941,15.6217 348.7611,15.0857 C349.2011,14.8697 350.1591,15.4947 351.3201,14.9037 C386.5911,18.8417 394.6231,73.5937 372.3111,95.4577 M238.5331,98.6687 C224.9161,116.7297 199.6001,122.3017 178.9161,113.9057 C138.0541,97.8137 152.5471,49.8847 180.5041,31.0947 C239.5611,8.9037 263.9481,65.3677 238.5331,98.6687 M149.9531,58.6507 C149.9151,58.6327 149.8771,58.6237 149.8381,58.6057 C150.0541,58.5107 150.2701,58.4157 150.4851,58.3187 C150.4151,58.5017 150.3391,58.6827 150.2711,58.8657 C150.1651,58.7927 150.0721,58.7077 149.9531,58.6507 M400.4231,39.1277 C397.0891,39.1347 392.2731,39.6827 389.5131,41.9957 C382.7071,19.0427 357.5851,-2.2003 335.7371,13.2897 C318.5321,18.8227 305.7651,31.0937 298.5091,47.4077 C285.4261,39.6257 264.8541,42.9487 253.5091,53.2397 C246.0791,28.6887 227.7931,20.0917 206.0281,18.8227 C182.2721,14.9317 158.5941,38.0027 151.2061,56.5107 C145.0631,55.8117 135.8841,53.8567 130.1051,57.6477 C92.5981,47.8117 27.0231,42.3887 19.3981,47.8537 C13.9641,49.9387 10.9821,62.7647 18.5721,63.4567 C25.1861,62.5177 17.8001,54.0587 24.4671,53.1357 C59.9901,50.9337 94.4751,58.0877 129.6221,61.0897 C132.7601,65.3107 142.8991,66.7227 148.3081,65.0267 C139.7891,96.4227 158.1791,117.7827 185.7341,124.1807 C228.4011,133.9817 265.5221,95.8137 254.3651,56.1137 C267.2901,49.6837 282.1571,49.9597 296.2371,53.3467 C272.7091,139.9367 412.1661,136.0517 390.3851,44.9627 C404.8801,52.1727 408.0281,40.5827 400.4231,39.1277" id="ðŸ–-Ink" fill="#000000"/></g>
    </g>
</svg>