<svg xmlns="http://www.w3.org/2000/svg" viewBox="0 0 704 704" fill="none" width="512" height="512">
    <desc>"Open Peeps" by "Pablo Stanley", licensed under "CC0 1.0". / Remix of the original.</desc>
    <mask id="viewbox"><rect width="704" height="704" rx="0" ry="0" x="0" y="0" fill="#ffffff" /></mask>
    <g mask="url(#viewbox)">
        <rect id="background" fill="#c0aede" width="704" height="704" x="0" y="0" />

        <g id="body"><path id="skin" d="M705.3 1074a2351.1 2351.1 0 0 1-15.6-101c-1-7.7-2.5-16.4 2.7-22 7.3-8 14-14.8 14.8-26.2.8-10.7-2.8-22.4-5-32.8a809.4 809.4 0 0 0-17.3-64.7c-6.6-21.7-13.9-43.2-21.3-64.6-6.9-20-13.5-40.3-22.5-59.5-17-36.5-46-63.5-81.6-81.6-9-4.5-27-20.5-36.3-24-8.5-3.4-8.5 6.3-16.9 2.6-6.7-2.9-13-6.7-16.7-13.2-4-7-14.3-16.9-15.9-25-3.3-17.4.3-32.2-12-45.3a90 90 0 0 0-41.1-23.8c-33.7-9.3-78.5-2.8-98.8 28.5-9.7 14.9-13 33-26.2 45.1-11.4 10.7-8.8 18-23.6 23.4-.9.3-23.6-4.5-24.4-4.2-16.2-3.5-31.7 6.2-46.5 11.8a325.4 325.4 0 0 0-63 32.3 399.2 399.2 0 0 0-102.3 98.5 482.5 482.5 0 0 0-76.4 161c-1.7 6.4-3.5 13-1.5 19.4 1.7 5.3 5.4 9.2 9.8 12.4 6 4.3 18 7 17.7 15.7-.1 6.6-2.4 13.5-3.5 20-1.3 7.7-2.3 15.5-3.4 23.2-4.8 35.4-8.6 71-10.3 106.6a920 920 0 0 0-.5 106c.1 2.3.8 4.5 2 6.2-1 .4-1.2 2.4.1 2.7l2.7.5a12 12 0 0 0 7 2.4l5.5.2c19.3 4 38.6 7.9 58.1 10.8 23.8 3.5 47.6 6.3 71.5 8.7 49.2 4.8 98 3.2 147.1.6a1877 1877 0 0 1 147.4-2c49.2 1.4 98.4 3.5 147.6 4.4 55 1 110-.5 164.8-5 7.5-.5 12.2-6.5 10.7-14-8.9-44.7-19-89.1-27-134Z" fill="#d08b5b"/><path id="shirt" d="m201 597.5 1.2-.4c14.5-5.7 29.6-14.8 45.4-11.4.5-.2 10.8 1.9 17.9 3.2l-6.7 7L247 598c40.7 67.1 88.8 100.7 144.3 100.7 55.5 0 97.7-33.6 126.4-100.7l4-1c.4 0 1 .2 1.5.4 9.3 3.6 27.4 19.6 36.3 24.1 35.6 18 64.5 45 81.6 81.6 8.7 18.6 15.2 38 21.8 57.5l.7 2c7.4 21.4 14.7 43 21.3 64.6 6.3 20.4 12 41 16.6 61.8l.7 2.9c2.2 10.4 5.8 22 5 32.8a29 29 0 0 1-3 10.7l-80.4 29 38.4 261.3c-35.1 1.5-70.3 2-105.5 1.3-49.2-.9-98.4-3-147.6-4.3-47.7-1.2-95.3-.7-143 1.7l-12 .6a946.3 946.3 0 0 1-139.5-1l-3.1-.3v-38.3l16.3-212.9-83-15.6-81.3-39.5a21.7 21.7 0 0 1-5.6-8.8c-1.9-6-.5-12 1-18l.5-1.3a492.8 492.8 0 0 1 76.4-161A399.3 399.3 0 0 1 138 629.7c19.8-13 40.9-23.9 63-32.3Z" fill="#ffcf77"/><path d="M232.2 584.6c5.1-.3 10.3.6 15.4 1 .4.1.6.8 0 .9-9 1.9-18 4.5-26.9 7.1l-3.8 1.2c-10 3-19.8 6-29.6 10-19.4 7.9-37.8 18.5-54.8 30.8C67.2 682.8 20 754.3-9.9 828.3a526 526 0 0 0-24.3 77c-.4 1.6-2 5.4-1 7 .7 1.3 3.6 2.1 5 2.9l4.5 2.3 25.2 12.9 2.3 1.1c38 18.6 78.4 34.4 121 35.5l.4-3.7a342 342 0 0 1 9.9-60c.3-1 1.6-.6 1.7.3 3 23.1 2 46.4 1 69.7-1.8 41-4.3 82.2-6.5 123.3-1.2 20.6-2.6 41-3.9 61.7-1.3 20.5-1.7 41.6-4.7 62-.6 4.6-6 7-10 6.6-4.4-.5-7.9-4.5-8-9 0-11.9 1.5-24 2.4-35.8l2.5-33.8c3.1-41.1 6.8-82.2 10.2-123.3a4771 4771 0 0 1 3.8-43.7C76.4 979.8 34.2 963-6.1 943.5c-.6 13.2-2 26.5-3.4 39.6-3.8 36.8-7.1 73.6-9.6 110.5a2254.2 2254.2 0 0 0-4.2 92.7l-.2 7c0 4.4-.5 8.5-4.3 11.7-3.7 3.3-8.9 3.5-12.6 0-5-4.6-4.2-10.9-4-17.1a1675.6 1675.6 0 0 1 1.8-47.2 1321 1321 0 0 1 10.5-109.5l2-14c3.5-26 7.5-52.7 15.5-77.9-3.1-1.5-6.2-3-9.3-4.7-5.5-2.7-11.2-5.4-16.6-8.4-4.2-2.5-7.9-5.8-9-10.8-1.4-5.5.6-11.5 2-16.9v-.4a502 502 0 0 1 26.6-80 523.2 523.2 0 0 1 67.8-117 353.8 353.8 0 0 1 88.7-83.3 239 239 0 0 1 53.8-25.7 142.6 142.6 0 0 1 42.8-7.5Zm90.1-66c6-6.5 18.1.2 15.2 8.8a108.2 108.2 0 0 1-34.7 52A79.4 79.4 0 0 1 247 598l1.7 2.4a321.1 321.1 0 0 0 46.1 52.6c36 31.2 84.8 48 132 36 37.1-9.4 69.8-38.8 79.4-76.2-1.3.6-3 .9-4.8.5-7.7-1.7-15.3-9.8-20.3-15.6-5.3-6.3-9.5-13-12.6-20.7-5.6-14-7.4-32.1.3-45.7 1-1.7 3-.7 3.3 1l.3 2.5c1.5 12.7 3.3 25 9.3 36.6a76 76 0 0 0 18.2 23.1c2.6 2 5.8 3.6 8.1 6l.5.4c.6-5 4.1-7.3 7.6-7.2 3.3.2 7.3 1.6 8.8 2.3l.1.1a341 341 0 0 1 65.1 42 259 259 0 0 1 88.4 129c7.5 25.3 11.8 51.4 16.3 77.4l2.8 16c4.2 23.9 8.9 48.4 18.4 70.7 2.5 5.7.6 11.1-5.5 13.4A1493 1493 0 0 1 688 953c3.7 16 6 32.5 8.7 48.5 6 34.1 13.2 68 19.4 102 3.2 17.5 6.1 35 9.3 52.3l4.7 25.2 2.4 13.6.1.7c.5 2.4 1 4.9.4 7.3-.8 2.7-2.9 4.6-4.8 6.6-1.6 1.6-3.8 1.6-5.7.7l-.7-.3c-3.4-1.6-6-3.2-7.3-7-.7-2.5-1-5.2-1.5-7.7a3535.6 3535.6 0 0 1-7.8-43.6l-1.6-9.1c-5.2-31.4-10.2-62.9-12.8-94.5-1-14-2.3-28.1-3.5-42.2l-.9-10.5c-1.1-13.3-2.5-27-2.7-40.5l-4.5 1.6L657 964c-5.5 2-12.5 6-18.4 5.2-2.9-.3-5-1.2-6.8-2.9 2 28.8 4.8 57.4 8.5 86a1965.7 1965.7 0 0 0 22 135c.6 3.2 1.4 6.4 1.9 9.6.5 3.7-.5 5.9-2.5 9-1.7 2.4-5 3.7-7.8 2-3.6-2.3-5.5-4.3-6.5-8.4-1-3.7-1.6-7.6-2.3-11.4a1654.2 1654.2 0 0 1-11.4-65.2c-7.8-52-12.7-104.4-15.2-156.8a1388 1388 0 0 1-1.4-77.8c0-13.3.5-26.6 1.4-39.9 1-13.4 3-26.5 4.8-39.8 0-.5.7-.5.7 0 .8 14.9 2.1 29.8 2.8 44.7.6 14.3.9 28.5 1.4 42.8.6 18.7 1.5 37.5 2.7 56.2a9.6 9.6 0 0 1 8.5-3.1c4.7-1 9.7-3.4 14.1-5l16.8-5.5 26.4-8.7a679 679 0 0 1-18-80.8l-2-12.3c-4-24.2-8.5-48.5-15.8-72a229.8 229.8 0 0 0-34.8-68.2 370.2 370.2 0 0 0-52.7-55.3C557 627 539.7 614 523 600c.1.9.2 2 0 3-3.5 25.9-17 50-35.8 67.9-37.7 36-93.6 43.4-142 26.5-46.7-16.3-88-55-102.6-102.8-.3-.8.8-1 1.3-.5l2.4 3.3c0-.4.2-.9.7-1a129 129 0 0 0 46.6-29.2 100.2 100.2 0 0 0 21.3-33.3l.4-1c1.7-5 3.2-10.2 7-14.2Z" fill="#000000"/></g>

        <g id="head" transform="matrix(.99789 0 0 1 156 62)"><path id="skin" d="M242 75.3c56.8 0 115.6 44 136.4 72 24 32.5 43 188.4 34.1 241.3-8.9 53-53.1 110.6-130 110.6-76.7 0-123.5-9.5-125.3-23.2-2-13.8-50.7-90.2-50.7-90.2s-49.9-14-50-47.6c-.3-33.5 26.7-45.7 26.7-45.7s-9.6-132.3 14.5-166.7C122 91.3 185.3 75.3 242 75.3Z" fill="#d08b5b"/><path d="M275.1 8.2c9-2 12.6 11.8 3.7 13.4-6 1-12 2.3-18 4 2.4-.2 4.9 0 7.2.9l1.4-.5c19.2-6.7 40.1-11.7 60.3-6.6 16.6 12-24.1 13.8-30.7 15.4 22 1.3 44.7-3.6 66 4.3 8.1 3.2 5 15.8-9.6 10 .3 1 .4 2.2.2 3.2 6.6.7 13.5 2.5 19.5 6.3 44.7-1.1 60.8 35.3 23.2 22.7 1 .8 1.8 1.8 2.4 2.7h.6c10 .9 36.4 6.6 35 18.6a50 50 0 0 1 19.6 8.1c5.9 4.7-.5 13.6-7 11.9-2-.5-3.7-1.4-5.5-2.3-.7.8-1.6 1.5-2.8 2.3 11.3 9.1 26.2 16.8 32 30.5 1.1 3.3-1.2 7.3-4.6 8-11.8 3-21.6-6.2-29.7-14.9 1.7 4.8 3 9.4 3.2 13.5a61 61 0 0 1 19.3 17.2c8.7 4.9 19.4 13 19.7 22.9.2 7.2-6.9 11.2-13.4 10h-.2a50 50 0 0 1 5.7 17.5l.6.4c6.2 3.8 12.3 8.4 12.5 16 .1 5.7-5.6 9.4-11 8.2l-2.1-.7v.6c2.2 1.6 4.4 3.3 6.4 5l1.8 1.5c7 6 13.8 12.8 11.8 23-.7 3.5-4.3 5.3-7.5 5.6H483l.3.8c4.4 11.9 7.3 31-7.1 29.3 2.2 19.4-9.5 22.3-17.6 12.6 9.5 11.3 26.8 82.7-3.4 70-1.4 16-4.3 32.2-11.6 46.6l-.2.5c-3.7 8-20.2 32-25.5 14.5 3.8-21.8 14.7-42.4 16.5-64.8-2.2-.3-4-2.4-4.8-4.7a71.8 71.8 0 0 1-14.8 30.8l-3.9 9a128.2 128.2 0 0 1-17.2 26.4 59.5 59.5 0 0 1-12 11.7c-3.8 2.6-8.2 4.2-12.4 5.8a88.3 88.3 0 0 1-24.2 16.2 143.7 143.7 0 0 1-45 12.4c-16 1.9-32 1.4-47.7-1.3-15-2.6-31.2-9.2-40.5-22-.8-1 .7-2 1.7-1.6a156.4 156.4 0 0 0 126 .3c10.6-5 19.5-12.1 29-18.7 1.8-2.4 3.7-4.8 5.8-7l3.3-3.5a106.3 106.3 0 0 0 23.3-37.4c7.2-20.4 5.3-42.6 4-63.9l-.1-1.8c-1.1-19.7-3-39.4-5.3-59-1.7-.5-3.4-1.4-4.7-2.6-5.3-33.3-20.7-67.3-46.7-89.8a136.7 136.7 0 0 1 25.6 71.5c.4 4.6-5.9 4.5-7.3 1-14.5-37.8-21.9-78.6-66.1-93.4-17.6 23.8-25.3 52.5-40 77.6-3.8 5.9-12 3-12.5-3.3-1.8-18 5.5-35.8 14.5-51.6l-7.3 8.8c-56.4 67.5-61 77.6-55 181-.5 5.2-7.2 7.7-10.2 2.8-17.2-32.8-9.8-73-5-108l-5 10.4c-1.1-3.6-3 .4-2.6 5.7-3 6.7-5.8 13.6-8.3 20.7.1 22.4 7.6 43.9 7.6 66.2.5 6.3-8 7.3-11 3-2.6-3.7-5-7.2-7-11 .2 9.4 4 17.7 6.6 26.5 1.8 3.1 2.6 6.4 1.4 9.9v.3c-2 5.8-9 7-13.3 3 0 3.7-.3 7.4-1.4 10.8a99 99 0 0 1 12.2 19.2c1.8 4.3-.7 7.9-4.2 9.6 3 7.5 4.2 15.2 1.6 22.6-.8 2.2-4 3-5.3.7-4.2-7.7-6.5-16.2-10.5-24a112 112 0 0 0-2.3-4.2c-4.4-3.8-8-8.4-11.5-13.2-12.2 14.4-23.8-16.5-26-25.9l-1-.9c2.4 22.3 15.7 42.7 15.9 65.1-.5 4.7-5.6 9-10.3 5.8C94 470.2 90.6 448.1 86 429.6c-.7.3-1.5.6-2.3.7-.8 12.5 28.4 53 4.7 53.2-26.2-13.3-23.2-51.5-26.8-76.2-1.6 7.4-.2 19.5-5.5 24.8 22.8 55.4-15.6 37.7-25-3.7a19.8 19.8 0 0 1-4.3 4.5c-3.4 2.7-8 2.6-10.5-1.4-5.2-8-3.4-17.6-1.2-26.5-20.2-8.7-28.9-29-30.4-50.4l-1.7 2.2c-2.5 2.9-7.4 1.9-9-1.1-5.1-8.7-2.7-19.7 1.6-29a7.7 7.7 0 0 1-3.4-2.6c-7-11.3-9-24.2-8.3-37.2-1 .9-2 1.8-3.1 2.5-3.4 2.4-7.8-.2-9-3.5-3.8-11 4.8-22 12-29.4 2.5-2.6 5.4-5.1 8.5-7.2 1.5-4.1 3.2-8.1 4.8-12-2.4-4.8-3.8-10-4.3-15.4-2 3.4-4.6 6.3-8.3 8.6-3.5 2-7.4-.7-7.6-4.3-.7-11 8-20.6 14.5-28.7l.7-.8c1.1-1.5 3-4 5-6.2l1-3c-5 2.8-12.8.8-12.4-6.2 1-22.7 25.1-33.7 32.1-53.7-35.4 31.4-31.6-9-6.7-24.7l6.1-4.7a5.6 5.6 0 0 1-1-8.6c7.2-8 18.3-9.6 28.6-10.4 3.7-.4 7.4-.4 11-.1h1.3c2.4-2.8 5.1-5.4 7.7-7.6-19.6-3.7-1-32.1 43.8-21.8a89 89 0 0 1 7.5-3.3c-6.7-.3-13.3-1-20-2.3-5.9-1.2-6.8-10-1.6-12.7 20.8-10.3 44.8-7.7 67-2.5-.5-1-.8-2.2-.8-3.4-7.3-.7-8-12 .5-12.6a85 85 0 0 1 40.5 7.2c1.6-.2 3.2-.4 4.9-.4 2.4-24.8 35.2-4.2 42.4 7.7a145.4 145.4 0 0 1 46-19.2Z" fill="#000"/></g>

        <g id="face" transform="translate(315 248)"><path d="M157.853264,261.089186 L159.986434,260.522285 C167.625732,258.441025 175.553661,255.136935 182.8485,259.665 C185.4825,261.3 185.8795,264.777 183.7975,267.027 C177.888371,273.411339 169.166228,272.172661 161.174911,272.236758 L160.7825,272.241 C152.7425,272.352 144.7625,271.951 136.8055,270.798 C135.7565,270.646 135.5495,268.903 136.5025,268.485 C143.4305,265.447824 150.556036,263.052862 157.853264,261.089186 L157.853264,261.089186 Z M170.814304,144.367155 C178.365682,148.9572 189.871664,159.660291 181.748119,171.039573 C172.185929,181.073062 158.418535,169.568982 151.634201,164.366134 C145.343449,160.333898 138.275437,170.704507 144.112,175.412823 C193.135736,211.708059 213.030606,145.567387 174.633685,138.970386 C170.406047,138.243425 168.835891,142.947174 170.814304,144.367155 Z M223.3163,84.0053 C235.4983,83.6323 235.5093,102.9853 223.3163,102.9333 C219.6763,102.9173 216.0363,102.9163 212.3963,102.9083 C214.5113,110.6193 213.3033,119.8143 209.4833,126.2913 C206.9633,130.5663 200.9323,131.3433 197.4093,127.8473 C191.3273,121.8113 190.1283,112.9843 192.2773,104.9803 L191.8353,103.9333 L191.8353,103.9333 C191.6913,103.5903 191.5883,103.2433 191.5043,102.8943 C179.738967,102.9043 167.973633,102.932522 156.2083,102.951707 L138.5603,102.9703 C127.1023,102.9743 115.6393,103.0673 104.1803,102.9603 C104.3213,103.1733 104.4623,103.3853 104.5773,103.6283 C105.2923,105.1333 105.5953,107.0333 105.8203,108.6603 C106.2043,111.4523 106.1583,114.4593 105.7183,117.2403 C105.3973,119.2723 104.8073,121.6923 103.6763,123.6073 L103.6693,123.6473 L103.6693,123.6473 C103.1363,125.9193 102.4633,128.0943 100.7063,129.7333 C100.1783,130.2243 99.6633,130.5743 99.1193,130.8223 C98.0923,131.8973 96.7703,132.6083 95.0333,132.630932 C94.1113,132.6413 93.1003,132.3723 92.1203,131.9903 C90.6133,132.1163 89.0573,131.4343 87.7243,130.8303 C86.6553,130.3453 85.6743,129.7013 84.8833,128.8613 C84.5123,128.7733 84.1383,128.6283 83.7643,128.3973 C81.4723,126.9873 80.5963,124.1613 80.4773,121.6093 C80.4693,121.4543 80.4753,121.2913 80.4703,121.1343 C80.3853,120.7883 80.3093,120.4403 80.2513,120.0903 C79.4893,115.5553 80.4153,110.4483 81.3853,106.0413 C81.6293,104.9383 81.8303,103.6573 82.1293,102.4183 C79.8423,102.3293 77.5573,102.2413 75.2703,102.1473 C69.5423,101.9133 62.5513,102.6803 57.2523,100.2593 C56.8663,100.0843 56.9703,99.5703 57.2523,99.3693 C62.1445222,95.8722167 69.7457336,95.3062483 75.6375743,94.1545348 L76.1383,94.0543 C83.1643,92.6133 90.1863,91.4013 97.2833,90.3663 C110.9443,88.3743 124.7803,87.3023 138.5603,86.5303 C166.7733,84.9503 195.0743,84.8683 223.3163,84.0053 Z" id="ðŸ–-Ink" fill="#000000"/></g>

        <g id="facial-hair" transform="translate(279 400)"><path d="M229.9448,33.9998 C241.6588,34.8308 252.7388,42.0988 262.8158,47.7168 C272.51397,53.5108426 279.691907,62.0952464 285.425881,71.6662255 L285.7978,72.2918 C286.1341,72.79055 285.534508,73.3515725 285.041591,73.1612186 L284.9648,73.1248 C275.4478,68.3498 265.4058,64.4798 256.0618,59.2708 C246.9378,53.6298 235.7338,51.7018 226.5408,46.5708 C221.2868,42.6758 222.8638,34.3008 229.9448,33.9998 Z M199.4764,39.6831 C199.9034,42.3551 198.8244,46.5961 195.3164,47.8351 C189.153275,50.0091625 183.540345,51.1812719 177.34959,52.8774291 L169.32497,55.1248967 C153.910423,59.4668903 138.264477,64.1279974 124.6174,70.9681 L124.1894,70.7801 C114.2764,64.5781 169.0404,38.7041 187.9494,34.5821 C191.4234,33.8241 198.8314,35.6511 199.4764,39.6831 Z" id="ðŸ–-Ink" fill="#000000"/></g>

        <g id="eyewear" transform="translate(203 303)"><path d="M335.396552,-59.6130626 C341.176552,-61.5940626 345.786552,-55.5830626 344.676552,-50.3440626 C343.366552,-44.1740626 336.926552,-39.2220626 332.656552,-34.8730626 C328.176552,-30.2930626 323.606552,-25.8030626 318.866552,-21.4830626 C309.816552,-13.2220626 300.436552,-5.44306262 290.546552,1.80693738 L287.522492,4.02283738 C278.456252,10.6558374 269.417552,17.1349374 259.706552,22.8769374 C254.446552,25.9769374 249.136552,28.9769374 243.756552,31.8669374 C241.837552,32.8969374 239.496552,34.4859374 237.087552,35.6669374 C245.896552,42.4669374 252.676552,52.8469374 254.146552,62.5169374 C257.786552,86.5369374 242.306552,108.796937 220.465552,117.646937 C209.576552,122.056937 197.456552,123.336937 185.816552,122.006937 C173.976552,120.655937 161.976552,117.155937 154.286552,107.456937 C147.456552,98.8469374 144.996552,87.8579374 144.506552,77.0669374 C144.276552,71.9469374 144.326552,66.9059374 145.406552,62.3769374 C140.696552,62.4169374 135.986552,62.3969374 131.316552,62.4469374 C119.776552,62.5569374 108.215552,62.6079374 96.6665524,62.2869374 C84.7565524,61.9469374 72.9065524,61.4169374 61.0365524,60.3579374 C55.8265524,59.8869374 50.6465524,59.1169374 45.4655524,58.3769374 C40.4365524,57.6669374 34.8865524,57.3969374 30.1865524,55.3369374 C29.8665524,55.2069374 30.0003371,54.7469374 30.2765524,54.6559374 C35.2865524,53.0369374 40.9765524,53.3259374 46.1965524,53.0069374 L51.2842492,52.6983426 C55.5218586,52.4452231 59.7565524,52.212366 64.0065524,52.0759374 C73.8240524,51.7530624 83.6338962,51.6736561 93.4494821,51.5054374 L97.6565524,51.4269374 C109.206552,51.1969374 120.756552,51.0669374 132.306552,50.6969374 C137.096552,50.5469374 141.896552,50.2669374 146.706552,50.0069374 C147.266552,48.7359374 148.087552,47.5759374 148.876552,46.4469374 C151.236552,43.0669374 154.236552,40.0869374 157.346552,37.3869374 C163.715552,31.8259374 170.886552,27.6969374 178.886552,24.9269374 C186.814186,22.1912707 198.409172,20.8341567 206.796178,21.0107485 C215.183185,21.1873402 227.135719,22.3702707 230.976552,29.2269374 C231.376552,29.9369374 238.686552,28.5669374 240.856552,26.9059374 C245.926552,23.0369374 250.906552,19.0569374 255.795552,14.9769374 C264.876552,7.38693738 274.215552,-0.0830626211 282.816552,-8.20306262 C291.686552,-16.5830626 300.486552,-25.1030626 308.926552,-33.9030626 C313.166552,-38.3130626 317.396552,-42.7330626 321.506552,-47.2530626 C325.706552,-51.8630626 329.316552,-57.5430626 335.396552,-59.6130626 Z" id="ðŸ–-Ink" fill="#000000"/></g>
    </g>
</svg>