<svg xmlns="http://www.w3.org/2000/svg" viewBox="0 0 704 704" fill="none" width="512" height="512">
    <desc>"Open Peeps" by "Pablo Stanley", licensed under "CC0 1.0". / Remix of the original.</desc>
    <mask id="viewbox"><rect width="704" height="704" rx="0" ry="0" x="0" y="0" fill="#ffffff" /></mask>
    <g mask="url(#viewbox)">
        <rect id="background" fill="#ffffff" width="704" height="704" x="0" y="0" />

        <g id="body"><path id="skin" d="M705.3 1074a2351.1 2351.1 0 0 1-15.6-101c-1-7.7-2.5-16.4 2.7-22 7.3-8 14-14.8 14.8-26.2.8-10.7-2.8-22.4-5-32.8a809.4 809.4 0 0 0-17.3-64.7c-6.6-21.7-13.9-43.2-21.3-64.6-6.9-20-13.5-40.3-22.5-59.5-17-36.5-46-63.5-81.6-81.6-9-4.5-27-20.5-36.3-24-8.5-3.4-8.5 6.3-16.9 2.6-6.7-2.9-13-6.7-16.7-13.2-4-7-14.3-16.9-15.9-25-3.3-17.4.3-32.2-12-45.3a90 90 0 0 0-41.1-23.8c-33.7-9.3-78.5-2.8-98.8 28.5-9.7 14.9-13 33-26.2 45.1-11.4 10.7-8.8 18-23.6 23.4-.9.3-23.6-4.5-24.4-4.2-16.2-3.5-31.7 6.2-46.5 11.8a325.4 325.4 0 0 0-63 32.3 399.2 399.2 0 0 0-102.3 98.5 482.5 482.5 0 0 0-76.4 161c-1.7 6.4-3.5 13-1.5 19.4 1.7 5.3 5.4 9.2 9.8 12.4 6 4.3 18 7 17.7 15.7-.1 6.6-2.4 13.5-3.5 20-1.3 7.7-2.3 15.5-3.4 23.2-4.8 35.4-8.6 71-10.3 106.6a920 920 0 0 0-.5 106c.1 2.3.8 4.5 2 6.2-1 .4-1.2 2.4.1 2.7l2.7.5a12 12 0 0 0 7 2.4l5.5.2c19.3 4 38.6 7.9 58.1 10.8 23.8 3.5 47.6 6.3 71.5 8.7 49.2 4.8 98 3.2 147.1.6a1877 1877 0 0 1 147.4-2c49.2 1.4 98.4 3.5 147.6 4.4 55 1 110-.5 164.8-5 7.5-.5 12.2-6.5 10.7-14-8.9-44.7-19-89.1-27-134Z" fill="#FFFFFF"/><path id="shirt" d="m201 597.5 1.2-.4c14.5-5.7 29.6-14.8 45.4-11.4.5-.2 10.8 1.9 17.9 3.2l-6.7 7L247 598c40.7 67.1 88.8 100.7 144.3 100.7 55.5 0 97.7-33.6 126.4-100.7l4-1c.4 0 1 .2 1.5.4 9.3 3.6 27.4 19.6 36.3 24.1 35.6 18 64.5 45 81.6 81.6 8.7 18.6 15.2 38 21.8 57.5l.7 2c7.4 21.4 14.7 43 21.3 64.6 6.3 20.4 12 41 16.6 61.8l.7 2.9c2.2 10.4 5.8 22 5 32.8a29 29 0 0 1-3 10.7l-80.4 29 38.4 261.3c-35.1 1.5-70.3 2-105.5 1.3-49.2-.9-98.4-3-147.6-4.3-47.7-1.2-95.3-.7-143 1.7l-12 .6a946.3 946.3 0 0 1-139.5-1l-3.1-.3v-38.3l16.3-212.9-83-15.6-81.3-39.5a21.7 21.7 0 0 1-5.6-8.8c-1.9-6-.5-12 1-18l.5-1.3a492.8 492.8 0 0 1 76.4-161A399.3 399.3 0 0 1 138 629.7c19.8-13 40.9-23.9 63-32.3Z" fill="#fff"/><path d="M232.2 584.6c5.1-.3 10.3.6 15.4 1 .4.1.6.8 0 .9-9 1.9-18 4.5-26.9 7.1l-3.8 1.2c-10 3-19.8 6-29.6 10-19.4 7.9-37.8 18.5-54.8 30.8C67.2 682.8 20 754.3-9.9 828.3a526 526 0 0 0-24.3 77c-.4 1.6-2 5.4-1 7 .7 1.3 3.6 2.1 5 2.9l4.5 2.3 25.2 12.9 2.3 1.1c38 18.6 78.4 34.4 121 35.5l.4-3.7a342 342 0 0 1 9.9-60c.3-1 1.6-.6 1.7.3 3 23.1 2 46.4 1 69.7-1.8 41-4.3 82.2-6.5 123.3-1.2 20.6-2.6 41-3.9 61.7-1.3 20.5-1.7 41.6-4.7 62-.6 4.6-6 7-10 6.6-4.4-.5-7.9-4.5-8-9 0-11.9 1.5-24 2.4-35.8l2.5-33.8c3.1-41.1 6.8-82.2 10.2-123.3a4771 4771 0 0 1 3.8-43.7C76.4 979.8 34.2 963-6.1 943.5c-.6 13.2-2 26.5-3.4 39.6-3.8 36.8-7.1 73.6-9.6 110.5a2254.2 2254.2 0 0 0-4.2 92.7l-.2 7c0 4.4-.5 8.5-4.3 11.7-3.7 3.3-8.9 3.5-12.6 0-5-4.6-4.2-10.9-4-17.1a1675.6 1675.6 0 0 1 1.8-47.2 1321 1321 0 0 1 10.5-109.5l2-14c3.5-26 7.5-52.7 15.5-77.9-3.1-1.5-6.2-3-9.3-4.7-5.5-2.7-11.2-5.4-16.6-8.4-4.2-2.5-7.9-5.8-9-10.8-1.4-5.5.6-11.5 2-16.9v-.4a502 502 0 0 1 26.6-80 523.2 523.2 0 0 1 67.8-117 353.8 353.8 0 0 1 88.7-83.3 239 239 0 0 1 53.8-25.7 142.6 142.6 0 0 1 42.8-7.5Zm90.1-66c6-6.5 18.1.2 15.2 8.8a108.2 108.2 0 0 1-34.7 52A79.4 79.4 0 0 1 247 598l1.7 2.4a321.1 321.1 0 0 0 46.1 52.6c36 31.2 84.8 48 132 36 37.1-9.4 69.8-38.8 79.4-76.2-1.3.6-3 .9-4.8.5-7.7-1.7-15.3-9.8-20.3-15.6-5.3-6.3-9.5-13-12.6-20.7-5.6-14-7.4-32.1.3-45.7 1-1.7 3-.7 3.3 1l.3 2.5c1.5 12.7 3.3 25 9.3 36.6a76 76 0 0 0 18.2 23.1c2.6 2 5.8 3.6 8.1 6l.5.4c.6-5 4.1-7.3 7.6-7.2 3.3.2 7.3 1.6 8.8 2.3l.1.1a341 341 0 0 1 65.1 42 259 259 0 0 1 88.4 129c7.5 25.3 11.8 51.4 16.3 77.4l2.8 16c4.2 23.9 8.9 48.4 18.4 70.7 2.5 5.7.6 11.1-5.5 13.4A1493 1493 0 0 1 688 953c3.7 16 6 32.5 8.7 48.5 6 34.1 13.2 68 19.4 102 3.2 17.5 6.1 35 9.3 52.3l4.7 25.2 2.4 13.6.1.7c.5 2.4 1 4.9.4 7.3-.8 2.7-2.9 4.6-4.8 6.6-1.6 1.6-3.8 1.6-5.7.7l-.7-.3c-3.4-1.6-6-3.2-7.3-7-.7-2.5-1-5.2-1.5-7.7a3535.6 3535.6 0 0 1-7.8-43.6l-1.6-9.1c-5.2-31.4-10.2-62.9-12.8-94.5-1-14-2.3-28.1-3.5-42.2l-.9-10.5c-1.1-13.3-2.5-27-2.7-40.5l-4.5 1.6L657 964c-5.5 2-12.5 6-18.4 5.2-2.9-.3-5-1.2-6.8-2.9 2 28.8 4.8 57.4 8.5 86a1965.7 1965.7 0 0 0 22 135c.6 3.2 1.4 6.4 1.9 9.6.5 3.7-.5 5.9-2.5 9-1.7 2.4-5 3.7-7.8 2-3.6-2.3-5.5-4.3-6.5-8.4-1-3.7-1.6-7.6-2.3-11.4a1654.2 1654.2 0 0 1-11.4-65.2c-7.8-52-12.7-104.4-15.2-156.8a1388 1388 0 0 1-1.4-77.8c0-13.3.5-26.6 1.4-39.9 1-13.4 3-26.5 4.8-39.8 0-.5.7-.5.7 0 .8 14.9 2.1 29.8 2.8 44.7.6 14.3.9 28.5 1.4 42.8.6 18.7 1.5 37.5 2.7 56.2a9.6 9.6 0 0 1 8.5-3.1c4.7-1 9.7-3.4 14.1-5l16.8-5.5 26.4-8.7a679 679 0 0 1-18-80.8l-2-12.3c-4-24.2-8.5-48.5-15.8-72a229.8 229.8 0 0 0-34.8-68.2 370.2 370.2 0 0 0-52.7-55.3C557 627 539.7 614 523 600c.1.9.2 2 0 3-3.5 25.9-17 50-35.8 67.9-37.7 36-93.6 43.4-142 26.5-46.7-16.3-88-55-102.6-102.8-.3-.8.8-1 1.3-.5l2.4 3.3c0-.4.2-.9.7-1a129 129 0 0 0 46.6-29.2 100.2 100.2 0 0 0 21.3-33.3l.4-1c1.7-5 3.2-10.2 7-14.2Z" fill="#000000"/></g>

        <g id="head" transform="matrix(.99789 0 0 1 156 62)"><path id="skin" d="M388.416675,151.808832 C381.338675,126.312832 382.3511,123.5552 371.8021,99.2022 C336.8221,28.4522 103.0631,52.1412 79.2061,122.7652 C66.2635108,161.079214 69.3041,215.0382 65.9351,248.2612 C64.904144,265.875904 63.8914203,283.491714 62.8423101,301.104932 C62.4799964,307.187714 62.113343,313.270188 61.7401,319.3522 C61.0131,331.1922 60.3061,343.0322 59.6461,354.8762 C55.2511,391.3622 73.5871,395.0732 105.0381,393.9932 C113.3531,414.0542 126.8201,430.8002 143.4551,444.4252 C139.4401,455.3472 154.0001,461.0012 161.8541,465.3682 C204.5871,489.2282 257.0781,503.7832 304.4111,490.3662 C318.318671,486.423963 375.752622,472.770576 393.4121,430.504717 C402.084181,409.749124 419.713053,302.26361 396.465053,205.57561 L388.416675,151.808832 Z" fill="#FFFFFF"/><path d="M239.0013,-14.494 C245.6103,-15.663 253.0013,-15.213 256.7903,-8.723 C257.6103,-7.324 258.1303,-5.913 258.3803,-4.523 C276.4403,-8.583 295.1903,-9.023 313.6403,-6.363 C319.1403,-5.574 321.0703,1.756 318.6503,5.947 C318.4003,6.377 318.1503,6.796 317.8803,7.207 C323.6603,7.676 329.4303,8.676 335.1503,10.217 C339.2203,11.317 343.0203,16.587 341.2113,20.907 C341.0503,21.287 340.8803,21.667 340.7113,22.046 C349.7003,23.557 358.2903,27.087 365.8003,32.787 C366.7003,33.457 367.5303,34.327 368.2203,35.317 C385.0103,33.426 402.3003,36.897 417.2903,44.997 C421.4903,47.266 423.5203,53.807 420.6703,57.887 C419.7803,59.157 418.8503,60.367 417.8503,61.537 C424.3703,63.947 430.1403,67.846 434.0303,74.197 C438.2603,81.087 439.5603,89.957 437.2903,97.537 C442.0303,102.367 444.5103,109.766 442.8203,117.186 C441.2803,123.957 437.1303,128.256 431.8103,130.837 C432.8903,134.137 432.0203,137.887 429.5703,140.436 C425.8103,144.346 421.3103,147.346 416.4103,149.317 C416.4003,150.587 416.0803,151.897 415.4403,153.117 C411.0203,161.596 401.4903,167.227 391.8003,168.077 C395.0603,181.766 397.7403,195.627 400.3403,209.407 C404.9613,233.917 408.5403,258.667 410.7203,283.516 L410.984914,286.589063 C414.53615,328.637328 415.361729,372.68769 406.8103,414.167 C401.3603,440.577 384.8403,462.837 362.8003,477.917 C340.3903,493.256 313.0103,500.887 286.0703,502.096 C272.3303,502.707 258.4613,501.546 245.0013,498.727 C238.6103,497.387 232.4403,495.487 226.3703,493.067 C219.8403,490.457 214.4613,486.607 208.9403,482.277 C206.0703,480.027 207.7113,474.717 211.1103,474.046 C213.5403,473.557 215.9403,473.027 218.3603,472.587 C220.5803,472.176 223.0013,474.397 222.5403,476.447 L227.22254,477.652568 C228.78318,478.055096 230.34286,478.461112 231.89902,478.879064 L234.2303,479.516 C240.8603,481.367 247.6403,482.926 254.4403,484.037 C268.2803,486.287 282.6803,486.337 296.5903,484.587 C319.9803,481.657 343.8703,473.317 362.0603,457.947 C370.9803,450.407 378.4103,441.477 383.8003,431.107 C390.6503,417.936 392.7203,403.266 394.4403,388.697 C399.4103,346.567 397.8803,304.377 394.0203,262.237 C392.1003,241.277 389.4803,220.357 386.7003,199.487 C385.2703,188.787 383.7303,178.067 382.4613,167.327 C379.6303,166.567 376.9303,165.307 374.5103,163.477 C372.8703,162.237 371.9103,160.796 371.4903,159.327 C369.04655,158.866042 366.704743,157.525253 365.016723,155.257988 L364.8003,154.957 C360.3703,148.546 352.7113,144.877 345.6203,142.207 C341.3203,140.587 336.9403,139.176 332.5803,137.737 C328.0403,136.227 323.2403,133.997 318.4703,133.417 C313.0603,132.777 307.6103,134.407 302.1503,133.827 C297.1903,133.287 292.8203,131.506 289.2513,127.947 C288.0013,126.707 286.9203,125.277 286.0603,123.737 C269.4103,127.296 251.9203,122.807 234.6203,123.887 C223.2403,124.607 213.2003,131.647 201.7003,131.457 C198.5603,131.407 195.5203,130.307 193.3103,128.377 C182.4613,130.447 171.4303,134.426 161.2303,137.846 C151.1503,141.227 141.4503,145.777 131.4903,149.467 C131.4803,149.477 131.4803,149.477 131.4803,149.487 C130.1803,153.697 126.3003,155.516 122.1703,154.777 C108.6603,152.367 97.2803,143.846 84.1303,140.727 C80.5103,153.917 76.6203,166.936 73.9613,180.387 C71.2703,193.957 69.3803,207.707 68.1303,221.487 C66.8703,235.317 66.2703,249.287 66.2403,263.167 C66.2303,270.247 66.4103,277.346 66.6503,284.426 C66.8447444,290.357528 67.9749528,297.857169 65.832088,303.56153 L65.6403,304.046 L65.6303,304.046 C65.3703,304.877 64.2003,305.377 63.5403,304.607 C59.5103,299.926 58.5503,292.477 57.4303,286.596 C56.0703,279.457 55.2003,272.247 54.5013,265.016 C53.1003,250.506 52.7903,236.057 53.5303,221.487 C54.9803,192.807 59.5803,162.516 69.4003,135.407 C66.3803,135.686 65.0303,131.237 64.8303,128.727 C64.4476913,123.682652 65.2378614,118.329798 66.0942106,113.270722 L66.989513,108.033435 C67.8383556,103.089917 68.7369667,98.2753333 70.4203,93.467 C74.4613,81.926 80.2703,71.087 87.5103,61.237 C102.2803,41.147 122.7513,25.936 146.0603,17.167 C147.5203,16.617 148.9003,16.627 150.1203,17.046 C171.3303,5.617 194.1303,-3.183 217.2903,-9.443 C224.4503,-11.373 231.7003,-13.193 239.0013,-14.494 Z M62.8606,307.9365 C72.4906,301.8975 92.3606,300.3175 97.7306,313.1865 C97.9506,313.7065 97.3306,314.1665 96.8706,314.0465 L95.5565528,313.714567 C90.5088271,312.463795 86.1469158,311.745132 80.9706,313.8175 C76.4206,315.6375 72.0006,318.4865 68.9906,322.4065 C61.8753619,331.676976 61.1038376,344.269428 61.7673931,355.514457 L61.8006,356.0575 C62.4206,365.9265 64.9506,377.9465 74.6006,382.8265 C79.4906,385.2965 84.7806,385.1165 90.0906,385.0765 C96.1406,385.0365 102.3206,385.6965 108.1006,387.5575 C111.3306,388.5965 112.8506,392.8765 110.1706,395.3875 C109.2806,396.2175 108.3506,396.9965 107.3706,397.6965 C110.3006,400.8175 113.1806,403.9775 115.9706,407.3075 C120.7006,412.9565 125.7306,418.4165 130.9806,423.5865 C136.0606,428.5765 141.4406,433.4065 147.2406,437.5465 C153.3406,441.8875 160.6406,444.9365 165.9206,450.2565 C169.3606,453.7175 168.7706,458.5465 165.9206,462.0465 C158.8454,470.74506 146.802776,461.600522 140.037971,456.457019 L139.2206,455.8365 C132.1906,450.5165 125.5106,444.7765 119.8206,438.0165 C114.0206,431.1165 109.0006,423.7765 105.2906,415.5465 C103.1106,410.7065 101.7206,406.1375 100.9706,401.3575 C88.8106,406.6375 73.4806,404.9565 62.5806,397.5265 C48.1106,387.6665 44.0506,369.5675 43.9999519,353.0465 L44.0014227,352.06706 C44.108496,336.0086 48.3272,317.0505 62.8606,307.9365 Z M90.2943881,331.211644 L90.7403,331.2169 C96.0956333,331.3329 100.871611,333.261722 105.420519,335.919411 L105.8903,336.1969 C110.3103,338.8269 116.6503,340.9359 118.9903,345.8569 C120.3903,348.8269 120.2903,352.2269 117.8503,354.6859 C113.4303,359.1469 106.7603,358.4069 101.9803,354.9259 C98.4103,352.3169 96.0603,348.4069 92.5603,345.7659 C85.9803,340.7869 75.6003,341.0669 68.7513,345.3769 C68.3303,345.6469 67.9213,345.1369 68.1103,344.7369 C72.3165879,336.129324 80.652823,331.178372 90.2943881,331.211644 L90.2943881,331.211644 Z" id="ðŸ–-Ink" fill="#000000"/></g>

        <g id="face" transform="translate(315 248)"><path d="M127.8 246.7s14.2 11 40.6 11c26.4 0 41.7-9.9 41.7-9.9s-23.1-14-41.7-15.2c-18.6-1.1-40.6 14-40.6 14Z" fill="#FF6C6C"/><path d="M96.3 218.9c0-11 9.6-13 18.7-11.5a332 332 0 0 0 46.3 4.6h2.7c.5-.6 1.2-1 2.2-1.2 8.6-1 17.4-.8 26-1 7.6-.3 15.4-1 23-.4h.6c9.2 1 19 5.6 17.9 16.5-1 10-10.7 19-18.3 24.5a60 60 0 0 1-7 4.4A64 64 0 0 1 184 262a117 117 0 0 1-57.2-8.1c-5.7-2.6-11-5.8-15.7-9.8-7.3-6-14.9-15.3-14.8-25.3Zm73 19.8a64 64 0 0 0-21.6 3c-4.7 1.6-9 4.5-13.6 6.6a118 118 0 0 0 48.8 6 59 59 0 0 0 19.7-4.8l-3-2a64.3 64.3 0 0 0-30.3-8.8Zm1.5-94.3c-2-1.5-.4-6.2 3.8-5.4 38.4 6.6 18.5 72.7-30.5 36.4-5.8-4.7 1.2-15 7.5-11l2.3 1.7c7.2 5.6 19.2 14 27.8 5 8.2-11.4-3.3-22.1-10.9-26.7Zm26-50c8.2-7 18.4-2 24.4 5.1l1 1.3c1.3 1.4 2.6 3.1 3.4 4.9 6.7-5.7 15.7-9.7 24.3-7a16.7 16.7 0 0 1 11.8 19c-1.7 9.8-9 16.4-17 21.4l-2.3 1.5c-9.5 6-18.4 12.2-26.3 20.6-1.3 1.3-4 1.1-4.9-.7l-.6-1.4-.7-1.5c-5.6-11.9-11.6-23.7-16.5-35.8-3.6-9-4.8-20.5 3.4-27.5ZM105 99.1c6-7 16.1-11.6 24.1-4.9 8.5 7.2 6.8 19 3 28.3-4.5 11-9.8 21.8-15 32.7l-1 2.3-1.4 3c-.9 1.7-3.6 2-5 .6-7.5-8.1-16.1-14.1-25.3-20l-2.8-1.8c-8-5.1-15.7-11.7-17.4-21.7a16.7 16.7 0 0 1 11.8-19c8.6-2.6 17.6 1.3 24.3 7 .8-1.8 2.2-3.6 3.5-5l1.2-1.5Zm9.7-48.5c3 3.8-.2 10-4.5 11-5.2 1.2-10.6.4-15.8 2a49.5 49.5 0 0 0-13.3 6.8c-4.7 3.2-9 6.7-12.9 10.7-2.3 2.4-5.3 8-8.9 8.1-3.6.1 1.2-11 1.6-12 2.9-7 6.8-13.3 11.8-18.9 9.8-11 30.6-22.6 42-7.7Zm109.5-3 2.4.6a58 58 0 0 1 17.7 7.4l.4.3.7.5c6.5 4.8 15.7 14.5 11 23-.2.6-1 .6-1.5.4-6.1-2.7-10.7-8-17.2-10.3l-1.2-.4a64.3 64.3 0 0 0-21-4.2c-4.8 1.5-11.2.3-12.5-5.6v-.3l-.1-.6c-.8-4 .3-9 4.4-11 5.7-2.6 11.2-1.4 16.9.2Z" fill="#000"/></g>

        <g id="facial-hair" transform="translate(279 400)"></g>

        <g id="eyewear" transform="translate(203 303)"><path d="M367.1336,98.3183 C360.4006,107.3633 347.9186,110.2443 336.4056,109.2493 C311.5746,106.8593 303.7596,78.6583 302.9456,56.7393 C319.5966,61.4233 301.5376,28.2493 358.4566,24.6013 C378.5216,22.9293 372.9896,35.0473 381.8546,43.9013 C381.6726,62.4833 378.5796,82.6743 367.1336,98.3183 M248.8626,76.9663 C234.2026,145.6193 153.9246,129.2893 145.4916,67.4033 C153.2786,61.9073 151.2276,48.3363 160.9016,43.4193 C176.2336,33.6233 195.3996,34.0423 212.8106,34.2723 C235.0656,35.8013 241.4076,45.0203 252.8396,55.0783 C252.2896,61.7963 250.7036,69.7583 248.8626,76.9663 M398.9346,13.2313 C398.1116,13.0943 397.2876,12.9653 396.4636,12.8443 C395.8206,12.4793 395.0656,12.1983 394.1876,12.0293 C392.1826,11.5203 390.1916,11.1773 388.2036,10.9923 C359.6716,4.5713 293.6646,13.6883 290.9406,38.0363 C281.8546,41.0693 273.9926,38.3533 263.4616,38.6233 C255.4456,5.1183 116.8626,9.8473 110.1976,30.0473 C110.1726,30.0403 110.1476,30.0343 110.1216,30.0263 C103.7176,28.0443 94.2766,28.5223 86.9466,28.2083 C71.2956,27.8803 55.6266,29.2753 40.3136,32.5763 C11.6386,37.1333 -27.4964,42.4683 -7.5534,78.2763 C-7.5494,78.2823 -7.5464,78.2893 -7.5414,78.2953 L-7.5384,78.2923 C-4.1014,81.8153 1.7316,78.9783 1.9486,74.2093 C-4.7564,57.2453 10.3876,55.2083 22.0396,50.3333 C51.0326,39.9173 80.5506,38.4733 110.5366,41.6953 C112.7926,44.3513 116.2156,46.6673 119.8336,47.8793 C139.8826,51.2073 129.3166,66.0793 141.9896,68.2423 C139.6616,120.0843 202.6026,148.3823 239.0716,114.3033 C253.6326,100.0673 257.1036,78.9783 260.4796,59.9693 C262.2646,59.5683 263.3996,58.5923 264.0626,57.3003 C268.3556,53.0143 271.0526,49.0563 279.5416,47.8793 C288.0306,46.7033 294.5656,49.0643 295.4496,49.7873 C295.6726,50.2363 295.9116,50.6863 296.1896,51.1363 C296.5776,51.8073 297.1056,52.3423 297.7056,52.7633 C289.3226,104.3873 329.3996,137.0353 369.8586,110.2603 C387.4386,93.7233 391.1536,68.4053 391.8876,45.8073 C394.2706,44.3693 395.7796,41.5823 394.9546,38.0783 C393.8176,33.2483 396.4836,29.0663 400.7296,26.9663 C406.2466,24.2393 405.2706,14.2803 398.9346,13.2313" id="ðŸ–-Ink" fill="#000000"/></g>
    </g>
</svg>