<svg xmlns="http://www.w3.org/2000/svg" viewBox="0 0 704 704" fill="none" width="512" height="512">
    <desc>"Open Peeps" by "Pablo Stanley", licensed under "CC0 1.0". / Remix of the original.</desc>
    <mask id="viewbox"><rect width="704" height="704" rx="0" ry="0" x="0" y="0" fill="#ffffff" /></mask>
    <g mask="url(#viewbox)">
        <rect id="background" fill="#ffdfbf" width="704" height="704" x="0" y="0" />

        <g id="body"><path id="skin" d="M705.3 1074a2351.1 2351.1 0 0 1-15.6-101c-1-7.7-2.5-16.4 2.7-22 7.3-8 14-14.8 14.8-26.2.8-10.7-2.8-22.4-5-32.8a809.4 809.4 0 0 0-17.3-64.7c-6.6-21.7-13.9-43.2-21.3-64.6-6.9-20-13.5-40.3-22.5-59.5-17-36.5-46-63.5-81.6-81.6-9-4.5-27-20.5-36.3-24-8.5-3.4-8.5 6.3-16.9 2.6-6.7-2.9-13-6.7-16.7-13.2-4-7-14.3-16.9-15.9-25-3.3-17.4.3-32.2-12-45.3a90 90 0 0 0-41.1-23.8c-33.7-9.3-78.5-2.8-98.8 28.5-9.7 14.9-13 33-26.2 45.1-11.4 10.7-8.8 18-23.6 23.4-.9.3-23.6-4.5-24.4-4.2-16.2-3.5-31.7 6.2-46.5 11.8a325.4 325.4 0 0 0-63 32.3 399.2 399.2 0 0 0-102.3 98.5 482.5 482.5 0 0 0-76.4 161c-1.7 6.4-3.5 13-1.5 19.4 1.7 5.3 5.4 9.2 9.8 12.4 6 4.3 18 7 17.7 15.7-.1 6.6-2.4 13.5-3.5 20-1.3 7.7-2.3 15.5-3.4 23.2-4.8 35.4-8.6 71-10.3 106.6a920 920 0 0 0-.5 106c.1 2.3.8 4.5 2 6.2-1 .4-1.2 2.4.1 2.7l2.7.5a12 12 0 0 0 7 2.4l5.5.2c19.3 4 38.6 7.9 58.1 10.8 23.8 3.5 47.6 6.3 71.5 8.7 49.2 4.8 98 3.2 147.1.6a1877 1877 0 0 1 147.4-2c49.2 1.4 98.4 3.5 147.6 4.4 55 1 110-.5 164.8-5 7.5-.5 12.2-6.5 10.7-14-8.9-44.7-19-89.1-27-134Z" fill="#d08b5b"/><path id="shirt" d="m201 597.5 1.2-.4c14.5-5.7 29.6-14.8 45.4-11.4.5-.2 10.8 1.9 17.9 3.2l-6.7 7L247 598c40.7 67.1 88.8 100.7 144.3 100.7 55.5 0 97.7-33.6 126.4-100.7l4-1c.4 0 1 .2 1.5.4 9.3 3.6 27.4 19.6 36.3 24.1 35.6 18 64.5 45 81.6 81.6 8.7 18.6 15.2 38 21.8 57.5l.7 2c7.4 21.4 14.7 43 21.3 64.6 6.3 20.4 12 41 16.6 61.8l.7 2.9c2.2 10.4 5.8 22 5 32.8a29 29 0 0 1-3 10.7l-80.4 29 38.4 261.3c-35.1 1.5-70.3 2-105.5 1.3-49.2-.9-98.4-3-147.6-4.3-47.7-1.2-95.3-.7-143 1.7l-12 .6a946.3 946.3 0 0 1-139.5-1l-3.1-.3v-38.3l16.3-212.9-83-15.6-81.3-39.5a21.7 21.7 0 0 1-5.6-8.8c-1.9-6-.5-12 1-18l.5-1.3a492.8 492.8 0 0 1 76.4-161A399.3 399.3 0 0 1 138 629.7c19.8-13 40.9-23.9 63-32.3Z" fill="#9ddadb"/><path d="M232.2 584.6c5.1-.3 10.3.6 15.4 1 .4.1.6.8 0 .9-9 1.9-18 4.5-26.9 7.1l-3.8 1.2c-10 3-19.8 6-29.6 10-19.4 7.9-37.8 18.5-54.8 30.8C67.2 682.8 20 754.3-9.9 828.3a526 526 0 0 0-24.3 77c-.4 1.6-2 5.4-1 7 .7 1.3 3.6 2.1 5 2.9l4.5 2.3 25.2 12.9 2.3 1.1c38 18.6 78.4 34.4 121 35.5l.4-3.7a342 342 0 0 1 9.9-60c.3-1 1.6-.6 1.7.3 3 23.1 2 46.4 1 69.7-1.8 41-4.3 82.2-6.5 123.3-1.2 20.6-2.6 41-3.9 61.7-1.3 20.5-1.7 41.6-4.7 62-.6 4.6-6 7-10 6.6-4.4-.5-7.9-4.5-8-9 0-11.9 1.5-24 2.4-35.8l2.5-33.8c3.1-41.1 6.8-82.2 10.2-123.3a4771 4771 0 0 1 3.8-43.7C76.4 979.8 34.2 963-6.1 943.5c-.6 13.2-2 26.5-3.4 39.6-3.8 36.8-7.1 73.6-9.6 110.5a2254.2 2254.2 0 0 0-4.2 92.7l-.2 7c0 4.4-.5 8.5-4.3 11.7-3.7 3.3-8.9 3.5-12.6 0-5-4.6-4.2-10.9-4-17.1a1675.6 1675.6 0 0 1 1.8-47.2 1321 1321 0 0 1 10.5-109.5l2-14c3.5-26 7.5-52.7 15.5-77.9-3.1-1.5-6.2-3-9.3-4.7-5.5-2.7-11.2-5.4-16.6-8.4-4.2-2.5-7.9-5.8-9-10.8-1.4-5.5.6-11.5 2-16.9v-.4a502 502 0 0 1 26.6-80 523.2 523.2 0 0 1 67.8-117 353.8 353.8 0 0 1 88.7-83.3 239 239 0 0 1 53.8-25.7 142.6 142.6 0 0 1 42.8-7.5Zm90.1-66c6-6.5 18.1.2 15.2 8.8a108.2 108.2 0 0 1-34.7 52A79.4 79.4 0 0 1 247 598l1.7 2.4a321.1 321.1 0 0 0 46.1 52.6c36 31.2 84.8 48 132 36 37.1-9.4 69.8-38.8 79.4-76.2-1.3.6-3 .9-4.8.5-7.7-1.7-15.3-9.8-20.3-15.6-5.3-6.3-9.5-13-12.6-20.7-5.6-14-7.4-32.1.3-45.7 1-1.7 3-.7 3.3 1l.3 2.5c1.5 12.7 3.3 25 9.3 36.6a76 76 0 0 0 18.2 23.1c2.6 2 5.8 3.6 8.1 6l.5.4c.6-5 4.1-7.3 7.6-7.2 3.3.2 7.3 1.6 8.8 2.3l.1.1a341 341 0 0 1 65.1 42 259 259 0 0 1 88.4 129c7.5 25.3 11.8 51.4 16.3 77.4l2.8 16c4.2 23.9 8.9 48.4 18.4 70.7 2.5 5.7.6 11.1-5.5 13.4A1493 1493 0 0 1 688 953c3.7 16 6 32.5 8.7 48.5 6 34.1 13.2 68 19.4 102 3.2 17.5 6.1 35 9.3 52.3l4.7 25.2 2.4 13.6.1.7c.5 2.4 1 4.9.4 7.3-.8 2.7-2.9 4.6-4.8 6.6-1.6 1.6-3.8 1.6-5.7.7l-.7-.3c-3.4-1.6-6-3.2-7.3-7-.7-2.5-1-5.2-1.5-7.7a3535.6 3535.6 0 0 1-7.8-43.6l-1.6-9.1c-5.2-31.4-10.2-62.9-12.8-94.5-1-14-2.3-28.1-3.5-42.2l-.9-10.5c-1.1-13.3-2.5-27-2.7-40.5l-4.5 1.6L657 964c-5.5 2-12.5 6-18.4 5.2-2.9-.3-5-1.2-6.8-2.9 2 28.8 4.8 57.4 8.5 86a1965.7 1965.7 0 0 0 22 135c.6 3.2 1.4 6.4 1.9 9.6.5 3.7-.5 5.9-2.5 9-1.7 2.4-5 3.7-7.8 2-3.6-2.3-5.5-4.3-6.5-8.4-1-3.7-1.6-7.6-2.3-11.4a1654.2 1654.2 0 0 1-11.4-65.2c-7.8-52-12.7-104.4-15.2-156.8a1388 1388 0 0 1-1.4-77.8c0-13.3.5-26.6 1.4-39.9 1-13.4 3-26.5 4.8-39.8 0-.5.7-.5.7 0 .8 14.9 2.1 29.8 2.8 44.7.6 14.3.9 28.5 1.4 42.8.6 18.7 1.5 37.5 2.7 56.2a9.6 9.6 0 0 1 8.5-3.1c4.7-1 9.7-3.4 14.1-5l16.8-5.5 26.4-8.7a679 679 0 0 1-18-80.8l-2-12.3c-4-24.2-8.5-48.5-15.8-72a229.8 229.8 0 0 0-34.8-68.2 370.2 370.2 0 0 0-52.7-55.3C557 627 539.7 614 523 600c.1.9.2 2 0 3-3.5 25.9-17 50-35.8 67.9-37.7 36-93.6 43.4-142 26.5-46.7-16.3-88-55-102.6-102.8-.3-.8.8-1 1.3-.5l2.4 3.3c0-.4.2-.9.7-1a129 129 0 0 0 46.6-29.2 100.2 100.2 0 0 0 21.3-33.3l.4-1c1.7-5 3.2-10.2 7-14.2Z" fill="#000000"/></g>

        <g id="head" transform="matrix(.99789 0 0 1 156 62)"><path id="skin" d="M402.066246,224.220511 C393.015708,186.067037 373.228495,150.560837 341.5498,121.8656 C246.2218,27.6196 71.1588,78.7746 71.9518,220.7966 C68.5328,237.3846 67.1448,254.4406 68.2768,271.3576 C68.7448,278.5756 71.8688,288.6486 67.6718,295.1446 C58.2048,307.2976 52.7028,316.2556 55.9248,332.4216 C58.6168,346.5366 68.2228,356.5366 81.1868,361.8526 C88.9618,364.0836 96.3388,368.9436 99.2188,376.3516 C116.5248,408.0356 129.3458,434.3896 156.6288,455.9826 C163.6688,461.5416 235.874671,494.8836 259.6658,494.8836 C329.317032,494.8836 417.1028,469.6536 418.5598,391.8536 C418.8118,374.7656 415.8128,357.4786 413.9318,340.5256 C409.352962,301.837543 410.968396,261.748438 402.066246,224.220511 Z" fill="#d08b5b"/><path d="M400.499,205.1369 C400.521,204.6649 401.197,204.5589 401.328,205.0249 C403.917,214.2099 405.384,223.5669 407.409,232.8949 C409.359,241.8799 411.2,250.8909 412.732,259.9549 C415.623077,277.061362 418.059148,294.212131 420.324936,311.407994 L420.888,315.7079 C424.826,345.9649 431.33,377.4859 425.643,407.9199 C420.79,433.8889 404.519,454.8189 383.55,470.1639 C363.695,484.6929 339.622,494.0169 315.72,499.3179 C290.066,505.0089 259.658,506.7069 238.785,487.8949 C230.429,480.3619 241.82,465.4159 250.885,472.2139 C272.17099,488.1727 299.249371,483.468052 323.268105,477.117815 L323.995,476.9249 C345.076,471.3099 366.297,462.7989 383.033,448.4409 C401.536,432.5659 410.685,410.5339 411.742,386.3699 C412.335036,372.793721 411.069307,359.23335 409.704019,345.737205 L409.552,344.2379 C407.985,328.8039 406.341,313.3769 404.824,297.9369 C403.439867,283.857567 402.245636,269.696349 401.614491,255.554063 L401.319968,248.421162 C400.706618,234.040085 399.88087,219.448857 400.499,205.1369 Z M150.8565,85.645 C185.4945,67.612 225.3025,61.158 263.8505,67.21 C300.9085,73.028 334.9185,92.15 360.3395,119.569 C372.7505,132.956 383.7665,148.441 390.8065,165.358 C394.3035,173.762 397.0415,182.529 398.4995,191.533 C399.2495,196.162 399.9865,200.958 400.1275,205.651 C400.2575,209.996 398.9815,214.071 399.1325,218.488 C399.1555,219.179 398.0965,219.312 397.9355,218.65 C396.7315,213.725 393.8305,210.001 392.0105,205.323 C390.650167,201.83 389.107142,198.419877 387.536223,195.020171 L386.1865,192.107 C382.2685,183.64 377.5855,175.521 372.9525,167.431 C363.6235,151.137 351.6535,136.329 337.6375,123.834 C313.0285,101.896 281.4575,87.735 248.5065,85.185 C214.3055,82.537 179.6155,90.689 150.4075,108.747 C121.2015,126.804 99.1175,154.874 87.6515,187.193 C81.8665,203.502 78.6715,220.495 77.9285,237.773 C77.5525,246.519 77.9035,255.338 78.5165,264.067 L78.8209867,268.229562 C79.1777779,273.221416 79.4223261,278.194043 78.6765,283.065 C83.9445,281.422 89.4665,280.741 95.0085,281.554 C103.2435,282.762 108.1635,286.138 111.8575,293.496 C112.0505,293.88 111.6635,294.264 111.2805,294.073 C106.4915,291.683 98.7435,292.941 93.6715,294.194 C88.3935,295.498 83.6395,297.766 79.1545,300.832 C70.8575,306.501 64.3535,315.286 62.7575,325.365 C61.2145,335.101 65.2115,344.959 71.9255,351.937 C75.3815,355.531 79.5125,358.638 84.1375,360.574 C89.7505,362.925 95.3065,362.852 100.2725,366.733 C103.3425,369.132 102.6005,373.237 100.5185,375.901 C110.9955,387.389 120.2865,399.957 130.7625,411.49 C135.6185,416.835778 140.435784,422.187877 145.088634,427.705726 L146.8255,429.783 C151.4715,435.39 158.8635,441.313 160.9865,448.365 C162.3075,452.752 157.6095,458.49 152.8605,456.491 C145.575862,453.423681 140.375613,445.443295 135.453155,439.322478 L135.1325,438.926 C129.9705,432.583 125.3875,425.887 121.1975,418.87 L119.819796,416.558354 C112.243173,403.816009 104.7317,390.6006 99.9005,376.602 C99.5815,376.93 99.2435,377.229 98.8875,377.482 C91.9275,382.431 81.8095,378.626 74.8585,375.412 C68.2965,372.379 62.2805,367.815 57.5915,362.314 C47.3935,350.352 42.6925,334.86 46.0985,319.335 C48.9835,306.184 58.0985,293.392 70.0485,286.74 C64.5325,280.39 62.2485,271.83 60.7285,263.461 C58.7885,252.778 58.4015,241.83 58.9285,230.997 C59.9795,209.42 65.5325,188.151 74.1165,168.393 C89.4745,133.04 116.6265,103.468 150.8565,85.645 Z M77.9552,321.556 C85.2252,320.194 92.0002,319.865 99.0122,322.941 C106.6182,326.28 111.9712,331.792 116.9472,338.25 C122.60901,345.5958 108.098402,353.620809 104.439716,343.868971 L104.3322,343.568 C103.3522,340.681 101.5972,337.89 99.3742,335.321 C98.7072,336.343 97.8152,337.243 96.7672,337.758 C95.4982,338.382 93.5602,337.95 93.2552,336.329 C92.9172,334.53 93.2912,332.35 94.3292,330.827 L94.4712,330.619 L94.4712,330.619 C89.4272,326.56 83.3602,323.595 77.9552,322.641 C77.4152,322.545 77.4212,321.656 77.9552,321.556 Z" id="ðŸ–-Ink" fill="#000000"/></g>

        <g id="face" transform="translate(315 248)"><path d="M155.8839,250.9317 C163.4429,249.8797 171.5709,245.5987 178.7909,249.0777 C182.1659,250.7037 183.7679,256.2647 181.4859,259.3557 C178.0009,264.0767 174.4029,264.8577 168.7459,265.3117 C164.5049,265.6517 160.2409,265.6767 156.0109,265.1877 L154.934929,265.056029 C147.387247,264.081793 139.542445,261.975155 133.6949,256.9027 C132.4989,255.8647 133.1119,253.6227 134.6469,253.2987 C141.5909,251.8377 148.8549,251.9107 155.8839,250.9317 Z M146.9873,233.5262 C146.9843,233.4652 147.0773,233.4652 147.0803,233.5262 C147.2633,237.8462 148.4773,241.8512 150.7213,245.5472 C150.7523,245.6002 150.6713,245.6472 150.6403,245.5952 C148.3953,241.8962 147.1703,237.8502 146.9873,233.5262 Z M170.814304,144.367155 C178.365682,148.9572 189.871664,159.660291 181.748119,171.039573 C172.185929,181.073062 158.418535,169.568982 151.634201,164.366134 C145.343449,160.333898 138.275437,170.704507 144.112,175.412823 C193.135736,211.708059 213.030606,145.567387 174.633685,138.970386 C170.406047,138.243425 168.835891,142.947174 170.814304,144.367155 Z M209.464,93.0002 C211.237197,93.0002 212.933146,93.6020668 214.477662,94.7157521 C215.997787,95.8118502 217.37393,97.4115833 218.520105,99.4068237 C220.689089,103.182554 222.045,108.395834 222.045,114.1602 C222.045,119.924566 220.689089,125.137846 218.520105,128.913576 C217.37393,130.908817 215.997787,132.50855 214.477662,133.604648 C212.933146,134.718333 211.237197,135.3202 209.464,135.3202 C207.690803,135.3202 205.994854,134.718333 204.450338,133.604648 C202.930213,132.50855 201.55407,130.908817 200.407895,128.913576 C198.238911,125.137846 196.883,119.924566 196.883,114.1602 C196.883,108.395834 198.238911,103.182554 200.407895,99.4068237 C201.55407,97.4115833 202.930213,95.8118502 204.450338,94.7157521 C205.994854,93.6020668 207.690803,93.0002 209.464,93.0002 Z M127.3467,98.8798 L128.014238,98.7532209 C131.908988,98.044836 133.877121,98.2832737 137.2687,100.9378 C139.8177,102.9328 139.0877,106.8618 137.2687,108.9598 C134.100382,112.615777 131.004648,111.968245 126.664534,112.107728 L126.3597,112.1188 C122.7427,112.2658 119.1227,112.3688 115.5027,112.4238 C114.5127,112.4398 113.5217,112.4358 112.5317,112.4418 C112.6367,121.6028 107.3547,128.5778 100.3987,133.8808 C95.9027,137.3098 90.2157,133.3538 88.6117,129.0858 C87.2847,125.5538 86.9997,121.2108 87.6877,117.3438 C87.9425333,115.918383 88.4738181,114.371126 89.2861757,113.051725 L89.5147,112.6978 L89.4777,112.1918 C89.4687,112.0668 89.4777,111.9458 89.4737,111.8208 C83.0162,111.4284 76.59596,110.78085 70.177988,109.967088 L68.0387,109.6898 C62.5607,108.9648 54.5157,108.7318 50.0827,105.1688 C49.9427,105.0548 49.9927,104.8058 50.1407,104.7268 C52.5776545,103.4143 55.0501442,103.488581 57.7756042,103.367584 L58.1667,103.3488 C61.1307,103.1958 64.08795,103.068112 67.0502625,102.966581 L70.0147,102.8738 C77.5967,102.6568 85.1857,102.2888 92.7607,101.8858 C94.0777,101.8158 95.3947,101.7328 96.7137,101.6518 C98.0927,101.0738 99.5587,100.7278 101.0067,100.6638 C102.2067,100.6098 103.3607,100.7758 104.4457,101.1208 C107.21245,100.90705 109.977513,100.674175 112.740466,100.423862 L115.5027,100.1678 C119.4007,99.7968 123.4987,99.6348 127.3467,98.8798 Z M175.2153,30.2196 C183.5483,26.1246 193.6803,26.0246 202.2623,29.4136 L202.831053,29.6439032 C211.498518,33.2408114 221.942601,41.5490409 219.6813,51.8976 C217.6123,61.3696 202.7553,59.7646 202.0023,50.8116 C197.2053,44.1656 186.4483,42.7076 179.6863,46.9336 C175.5853,49.4976 172.7703,53.8146 170.8463,58.1686 C169.2063,61.8766 168.8973,66.4556 166.3783,69.6856 C166.2963,69.7906 166.1323,69.8096 166.0133,69.7816 C158.5013,68.0436 158.3273,56.1066 159.6083,50.3166 C161.4693,41.8986 167.4423,34.0416 175.2153,30.2196 Z" id="ðŸ–-Ink" fill="#000000"/></g>

        <g id="facial-hair" transform="translate(279 400)"><path d="M207.9143,31.3282 C196.7933,26.3192 176.8233,30.6902 169.5733,32.4282 C152.7183,36.4702 135.7623,45.2052 130.5223,58.8902 C124.6173,74.3132 136.3993,79.1682 138.1323,78.3752 C149.8003,79.1972 163.6953,71.8622 175.9223,69.9692 C185.8483,68.4192 196.3193,67.0662 205.6193,61.7922 C212.4093,65.5272 227.7453,67.5462 240.1223,70.8122 C250.6633,73.5922 255.2303,79.6212 265.0023,78.3392 C276.7143,76.8032 271.9203,52.1702 258.8673,42.1912 C244.5813,31.2702 220.4193,26.8412 207.9143,31.3282 Z M229.9341,136.6535 C220.204493,139.025645 219.5511,117.7005 218.4611,110.1665 C217.609542,104.280593 212.806884,89.1015762 200.6311,89.7565 C188.455316,90.4114238 183.878432,103.128761 184.4961,111.0385 C184.896642,116.16777 189.62335,142.149551 174.5361,145.4365 C164.9171,145.4025 153.7891,144.7535 143.6751,142.8885 C131.7711,140.1925 116.291914,130.753365 112.2031,149.3425 C110.731534,156.03274 163.1691,175.9095 186.4381,177.7075 C210.036475,182.489578 237.64678,175.136312 254.448053,157.083732 C258.270339,152.976774 269.035635,135.930081 269.802759,131.753365 C271.414428,122.978404 267.682963,117.331642 256.8251,120.4245 C249.1551,124.5205 236.191168,135.127984 229.9341,136.6535 Z" id="ðŸ–-Ink" fill="#000000"/></g>

        <g id="eyewear" transform="translate(203 303)"><path d="M389.0901,63.2824 C379.5561,127.7714 313.0021,134.9034 301.1771,70.8814 C303.0751,70.0504 304.4401,68.4144 304.1551,65.2384 C304.0881,51.2864 308.4191,36.5404 321.0051,28.7814 C334.0111,20.7754 349.2321,19.9814 364.2831,20.1834 C393.0051,19.4994 392.4011,43.5064 389.0901,63.2824 M290.7581,35.2354 C281.7441,34.8554 270.3401,35.1734 262.2651,40.6654 C260.0451,34.6874 254.2771,28.3044 248.4491,24.8914 C270.1111,25.5254 292.4091,23.3934 314.2331,21.7384 C309.0091,25.2994 304.1491,30.6494 300.9901,36.8344 C298.0591,35.2714 293.8611,35.4174 290.7581,35.2354 M251.0261,70.1194 C226.0311,156.1554 163.6401,118.6554 156.8381,107.6294 C144.5691,89.3834 142.2611,45.0294 152.9481,33.1704 C168.2461,22.4464 189.9031,25.2064 207.9751,24.9434 C241.1761,25.3914 264.7561,35.3234 251.0261,70.1194 M418.6031,30.5484 C411.8121,29.6604 404.5551,29.4814 398.2411,32.4714 C396.2971,24.2084 390.1941,17.3004 383.3031,14.2604 C382.4691,13.2144 382.5941,12.6524 379.7451,12.8094 C362.2501,7.5514 342.6731,10.3334 325.8611,15.7254 C299.3091,17.9614 271.4521,19.7244 244.6771,22.8054 C219.5951,11.5414 143.9021,9.8904 139.1981,37.6534 C133.2811,36.7684 123.2041,32.1114 118.2321,38.4284 C81.7611,32.2454 44.0761,40.8384 7.4471,44.6654 C-1.7729,46.3634 -6.5219,64.6614 3.9441,64.4114 C9.8281,62.8144 3.7631,53.0174 11.6861,52.2804 C47.0271,48.4204 81.5951,42.9444 117.2981,42.3034 C116.0561,48.4684 140.9121,48.8694 141.2791,45.2694 C141.3321,45.2964 141.3881,45.3144 141.4421,45.3384 C135.3001,68.2284 140.8441,101.1704 151.9441,115.3644 C167.4961,133.9504 206.5411,139.2824 223.8541,127.3244 C246.1871,116.2874 269.4201,60.8854 262.8941,42.4794 C274.7381,38.7254 286.4471,39.8524 298.7391,41.7644 C295.9251,49.7134 291.0671,69.2814 298.0561,70.9784 C296.7731,109.8284 332.1301,134.0694 364.7241,118.1324 C392.9351,104.8894 402.8011,62.9714 399.3491,37.5284 C402.8611,44.3144 432.3491,36.9264 418.6031,30.5484" id="ðŸ–-Ink" fill="#000000"/></g>
    </g>
</svg>