<svg xmlns="http://www.w3.org/2000/svg" viewBox="0 0 704 704" fill="none" width="512" height="512">
    <desc>"Open Peeps" by "Pablo Stanley", licensed under "CC0 1.0". / Remix of the original.</desc>
    <mask id="viewbox"><rect width="704" height="704" rx="0" ry="0" x="0" y="0" fill="#ffffff" /></mask>
    <g mask="url(#viewbox)">
        <rect id="background" fill="#b6e3f4" width="704" height="704" x="0" y="0" />

        <g id="body"><path id="skin" d="M705.3 1074a2351.1 2351.1 0 0 1-15.6-101c-1-7.7-2.5-16.4 2.7-22 7.3-8 14-14.8 14.8-26.2.8-10.7-2.8-22.4-5-32.8a809.4 809.4 0 0 0-17.3-64.7c-6.6-21.7-13.9-43.2-21.3-64.6-6.9-20-13.5-40.3-22.5-59.5-17-36.5-46-63.5-81.6-81.6-9-4.5-27-20.5-36.3-24-8.5-3.4-8.5 6.3-16.9 2.6-6.7-2.9-13-6.7-16.7-13.2-4-7-14.3-16.9-15.9-25-3.3-17.4.3-32.2-12-45.3a90 90 0 0 0-41.1-23.8c-33.7-9.3-78.5-2.8-98.8 28.5-9.7 14.9-13 33-26.2 45.1-11.4 10.7-8.8 18-23.6 23.4-.9.3-23.6-4.5-24.4-4.2-16.2-3.5-31.7 6.2-46.5 11.8a325.4 325.4 0 0 0-63 32.3 399.2 399.2 0 0 0-102.3 98.5 482.5 482.5 0 0 0-76.4 161c-1.7 6.4-3.5 13-1.5 19.4 1.7 5.3 5.4 9.2 9.8 12.4 6 4.3 18 7 17.7 15.7-.1 6.6-2.4 13.5-3.5 20-1.3 7.7-2.3 15.5-3.4 23.2-4.8 35.4-8.6 71-10.3 106.6a920 920 0 0 0-.5 106c.1 2.3.8 4.5 2 6.2-1 .4-1.2 2.4.1 2.7l2.7.5a12 12 0 0 0 7 2.4l5.5.2c19.3 4 38.6 7.9 58.1 10.8 23.8 3.5 47.6 6.3 71.5 8.7 49.2 4.8 98 3.2 147.1.6a1877 1877 0 0 1 147.4-2c49.2 1.4 98.4 3.5 147.6 4.4 55 1 110-.5 164.8-5 7.5-.5 12.2-6.5 10.7-14-8.9-44.7-19-89.1-27-134Z" fill="#ffdbb4"/><path id="shirt" d="m201 597.5 1.2-.4c14.5-5.7 29.6-14.8 45.4-11.4.5-.2 10.8 1.9 17.9 3.2l-6.7 7L247 598c40.7 67.1 88.8 100.7 144.3 100.7 55.5 0 97.7-33.6 126.4-100.7l4-1c.4 0 1 .2 1.5.4 9.3 3.6 27.4 19.6 36.3 24.1 35.6 18 64.5 45 81.6 81.6 8.7 18.6 15.2 38 21.8 57.5l.7 2c7.4 21.4 14.7 43 21.3 64.6 6.3 20.4 12 41 16.6 61.8l.7 2.9c2.2 10.4 5.8 22 5 32.8a29 29 0 0 1-3 10.7l-80.4 29 38.4 261.3c-35.1 1.5-70.3 2-105.5 1.3-49.2-.9-98.4-3-147.6-4.3-47.7-1.2-95.3-.7-143 1.7l-12 .6a946.3 946.3 0 0 1-139.5-1l-3.1-.3v-38.3l16.3-212.9-83-15.6-81.3-39.5a21.7 21.7 0 0 1-5.6-8.8c-1.9-6-.5-12 1-18l.5-1.3a492.8 492.8 0 0 1 76.4-161A399.3 399.3 0 0 1 138 629.7c19.8-13 40.9-23.9 63-32.3Z" fill="#fdea6b"/><path d="M232.2 584.6c5.1-.3 10.3.6 15.4 1 .4.1.6.8 0 .9-9 1.9-18 4.5-26.9 7.1l-3.8 1.2c-10 3-19.8 6-29.6 10-19.4 7.9-37.8 18.5-54.8 30.8C67.2 682.8 20 754.3-9.9 828.3a526 526 0 0 0-24.3 77c-.4 1.6-2 5.4-1 7 .7 1.3 3.6 2.1 5 2.9l4.5 2.3 25.2 12.9 2.3 1.1c38 18.6 78.4 34.4 121 35.5l.4-3.7a342 342 0 0 1 9.9-60c.3-1 1.6-.6 1.7.3 3 23.1 2 46.4 1 69.7-1.8 41-4.3 82.2-6.5 123.3-1.2 20.6-2.6 41-3.9 61.7-1.3 20.5-1.7 41.6-4.7 62-.6 4.6-6 7-10 6.6-4.4-.5-7.9-4.5-8-9 0-11.9 1.5-24 2.4-35.8l2.5-33.8c3.1-41.1 6.8-82.2 10.2-123.3a4771 4771 0 0 1 3.8-43.7C76.4 979.8 34.2 963-6.1 943.5c-.6 13.2-2 26.5-3.4 39.6-3.8 36.8-7.1 73.6-9.6 110.5a2254.2 2254.2 0 0 0-4.2 92.7l-.2 7c0 4.4-.5 8.5-4.3 11.7-3.7 3.3-8.9 3.5-12.6 0-5-4.6-4.2-10.9-4-17.1a1675.6 1675.6 0 0 1 1.8-47.2 1321 1321 0 0 1 10.5-109.5l2-14c3.5-26 7.5-52.7 15.5-77.9-3.1-1.5-6.2-3-9.3-4.7-5.5-2.7-11.2-5.4-16.6-8.4-4.2-2.5-7.9-5.8-9-10.8-1.4-5.5.6-11.5 2-16.9v-.4a502 502 0 0 1 26.6-80 523.2 523.2 0 0 1 67.8-117 353.8 353.8 0 0 1 88.7-83.3 239 239 0 0 1 53.8-25.7 142.6 142.6 0 0 1 42.8-7.5Zm90.1-66c6-6.5 18.1.2 15.2 8.8a108.2 108.2 0 0 1-34.7 52A79.4 79.4 0 0 1 247 598l1.7 2.4a321.1 321.1 0 0 0 46.1 52.6c36 31.2 84.8 48 132 36 37.1-9.4 69.8-38.8 79.4-76.2-1.3.6-3 .9-4.8.5-7.7-1.7-15.3-9.8-20.3-15.6-5.3-6.3-9.5-13-12.6-20.7-5.6-14-7.4-32.1.3-45.7 1-1.7 3-.7 3.3 1l.3 2.5c1.5 12.7 3.3 25 9.3 36.6a76 76 0 0 0 18.2 23.1c2.6 2 5.8 3.6 8.1 6l.5.4c.6-5 4.1-7.3 7.6-7.2 3.3.2 7.3 1.6 8.8 2.3l.1.1a341 341 0 0 1 65.1 42 259 259 0 0 1 88.4 129c7.5 25.3 11.8 51.4 16.3 77.4l2.8 16c4.2 23.9 8.9 48.4 18.4 70.7 2.5 5.7.6 11.1-5.5 13.4A1493 1493 0 0 1 688 953c3.7 16 6 32.5 8.7 48.5 6 34.1 13.2 68 19.4 102 3.2 17.5 6.1 35 9.3 52.3l4.7 25.2 2.4 13.6.1.7c.5 2.4 1 4.9.4 7.3-.8 2.7-2.9 4.6-4.8 6.6-1.6 1.6-3.8 1.6-5.7.7l-.7-.3c-3.4-1.6-6-3.2-7.3-7-.7-2.5-1-5.2-1.5-7.7a3535.6 3535.6 0 0 1-7.8-43.6l-1.6-9.1c-5.2-31.4-10.2-62.9-12.8-94.5-1-14-2.3-28.1-3.5-42.2l-.9-10.5c-1.1-13.3-2.5-27-2.7-40.5l-4.5 1.6L657 964c-5.5 2-12.5 6-18.4 5.2-2.9-.3-5-1.2-6.8-2.9 2 28.8 4.8 57.4 8.5 86a1965.7 1965.7 0 0 0 22 135c.6 3.2 1.4 6.4 1.9 9.6.5 3.7-.5 5.9-2.5 9-1.7 2.4-5 3.7-7.8 2-3.6-2.3-5.5-4.3-6.5-8.4-1-3.7-1.6-7.6-2.3-11.4a1654.2 1654.2 0 0 1-11.4-65.2c-7.8-52-12.7-104.4-15.2-156.8a1388 1388 0 0 1-1.4-77.8c0-13.3.5-26.6 1.4-39.9 1-13.4 3-26.5 4.8-39.8 0-.5.7-.5.7 0 .8 14.9 2.1 29.8 2.8 44.7.6 14.3.9 28.5 1.4 42.8.6 18.7 1.5 37.5 2.7 56.2a9.6 9.6 0 0 1 8.5-3.1c4.7-1 9.7-3.4 14.1-5l16.8-5.5 26.4-8.7a679 679 0 0 1-18-80.8l-2-12.3c-4-24.2-8.5-48.5-15.8-72a229.8 229.8 0 0 0-34.8-68.2 370.2 370.2 0 0 0-52.7-55.3C557 627 539.7 614 523 600c.1.9.2 2 0 3-3.5 25.9-17 50-35.8 67.9-37.7 36-93.6 43.4-142 26.5-46.7-16.3-88-55-102.6-102.8-.3-.8.8-1 1.3-.5l2.4 3.3c0-.4.2-.9.7-1a129 129 0 0 0 46.6-29.2 100.2 100.2 0 0 0 21.3-33.3l.4-1c1.7-5 3.2-10.2 7-14.2Z" fill="#000000"/></g>

        <g id="head" transform="matrix(.99789 0 0 1 156 62)"><path id="skin" d="M431.9006,270.053 C428.1106,207.851 407.9266,137.33 348.5226,106.79 C217.5636,54.232 45.3796,186.588 36.2636,321.8 C33.0856,368.084 58.7836,418.659 105.7446,431.527 C116.1856,445.36 131.9756,453.808 147.5606,461.14 C333.1876,557.447 453.0946,479.16 431.9006,270.053 L431.9006,270.053 Z" fill="#ffdbb4"/><path d="M474.1891,231.3601 C467.6291,213.1401 460.6991,195.0601 453.4091,177.1201 C446.3091,159.6601 439.896026,141.822713 431.0791,125.1901 C378.4191,25.8501 282.6591,25.8501 233.1591,38.8301 C207.4891,27.7701 159.408421,30.8898441 132.6791,40.8701 C89.4071,57.0271 36.6581,120.5851 18.6231,149.1411 C-21.1959,212.1901 -46.0459,296.1071 -19.5959,368.9631 C-16.1389,378.4851 -11.7299,387.3041 -6.7659,395.8031 C-9.8929,400.0411 -13.4919,404.0551 -17.4789,407.9991 C-29.3269,419.7211 -41.1749,431.0571 -51.4099,444.2781 C-61.5809,457.4171 -70.0129,471.3891 -76.2899,486.7941 C-88.1259,515.8461 -88.6959,548.7421 -73.0479,576.4631 C-59.4339,600.5831 -35.3169,618.5441 -8.1459,620.2571 C-6.7509,620.4511 -5.3539,620.6291 -3.9509,620.7701 C-0.3509,626.7001 4.0391,632.1601 9.0491,636.9201 C24.3991,651.5201 60.9891,659.0101 81.8591,659.4901 C82.9291,660.3501 84.0091,661.2101 85.0891,662.0601 C97.8591,672.1101 111.2591,682.2501 125.9191,689.4001 C135.8491,694.2501 148.8691,698.3001 159.2291,694.8001 C163.9291,697.9401 171.6391,697.2801 176.2991,694.7101 C183.9591,690.4901 190.1891,682.8901 193.9791,675.1101 C203.1691,656.2201 200.9591,635.5501 198.5991,615.3701 C195.9991,593.0801 193.4991,570.7801 190.9591,548.4901 C188.9691,531.0601 186.8891,513.3401 181.5891,496.5501 C178.8491,487.8501 175.2591,479.4901 170.6191,471.6301 C170.7391,470.9701 170.7191,470.3101 170.5291,469.6901 C169.0091,464.7501 165.8691,462.1601 162.1491,458.8001 C161.6691,458.3701 161.1891,457.9301 160.7191,457.4801 C158.8591,455.3601 156.8691,453.3901 154.7391,451.7201 C153.9191,450.8901 153.1091,450.0501 152.2991,449.2101 C145.5691,442.1601 139.2091,434.7501 133.5591,426.8101 C128.0791,419.1101 123.1291,411.0701 118.4191,402.8801 C113.6291,394.5501 110.4591,385.3601 105.6791,377.0901 C105.2691,376.3801 104.2291,376.2401 103.6491,376.8301 C102.1691,378.3601 101.2191,380.0601 101.3991,381.8501 L100.6591,381.9601 C100.3791,379.2601 97.8891,377.0601 94.5091,377.6501 C89.4491,378.5301 85.2891,378.8601 80.9091,377.1801 C81.6791,372.0701 82.3891,366.9501 83.0891,361.8201 C84.3691,352.3801 85.5591,342.9101 86.5791,333.4401 C89.0491,334.0301 91.4991,334.8801 93.8991,335.9601 C97.3191,337.4901 100.5491,339.5501 103.3091,342.0801 C106.0291,344.5801 107.9091,347.9501 111.2291,349.6901 C115.0491,351.6801 119.6591,348.3901 118.5391,344.0701 C116.2691,335.3401 103.4191,330.3401 95.4691,328.6901 C92.7391,328.1201 89.9491,327.8801 87.1591,327.9401 C87.7891,321.8601 88.3491,315.7801 88.8091,309.6901 C89.0291,306.8101 89.2291,303.9301 89.4191,301.0401 C95.5991,299.1701 102.2191,298.6101 108.6491,299.4901 C110.7691,301.1801 112.8891,302.8501 114.9391,304.5401 C121.4491,309.9201 127.9291,315.3301 134.3291,320.8401 C134.9091,321.3301 135.4791,321.8201 136.0591,322.3201 C139.8591,325.5901 144.5991,322.3501 143.9591,317.7201 C138.7391,279.7801 161.9791,249.6001 189.1891,226.2201 C219.3091,200.3301 274.0691,197.315396 309.8891,152.4701 C326.3862,155.827691 363.2191,165.8001 378.4191,190.0201 C399.6991,223.9601 396.9191,254.3701 398.5391,292.8701 C400.1591,331.4001 404.2791,371.5901 395.5291,409.5801 C387.4591,444.6101 365.6091,474.5401 331.7091,488.3001 C330.8691,488.6401 330.0191,488.9701 329.1691,489.2901 C311.6391,495.9001 292.5091,497.7701 274.0691,494.2901 C253.6591,490.4301 236.6191,481.0901 219.6391,469.6001 C218.6591,468.9501 217.2291,470.2901 217.9691,471.2701 C240.3491,500.9301 284.3091,510.8401 319.1791,503.0101 C320.8091,502.6401 322.4291,502.2401 324.0391,501.8001 C316.2391,524.2301 317.8091,548.8501 327.9691,570.6901 C334.0791,583.8301 343.3991,595.2001 354.7491,604.1701 C367.2591,614.0501 382.7791,622.0301 391.4591,635.9001 C399.4091,648.6101 397.0491,662.8901 383.4391,670.2301 C380.0091,672.0901 378.6891,678.1001 382.0891,680.7401 C383.3891,681.7401 384.6891,682.7601 386.0191,683.7601 C393.6391,689.5101 414.5691,700.3101 417.9591,700.7101 C448.0591,704.2801 468.2991,682.1801 481.2691,656.1101 C496.4991,625.5101 492.5391,588.2201 475.7591,559.0801 C462.2991,535.7001 435.7891,512.6601 446.3291,483.0701 C450.0891,472.5001 457.7791,463.4901 465.2491,455.3501 C473.7691,446.0801 482.9291,437.4001 491.0991,427.8001 C499.2191,418.2701 506.4191,407.9001 510.4391,395.9401 C516.3091,378.4601 513.3891,359.5601 508.9791,342.1101 C499.5291,304.6501 487.2591,267.6901 474.1891,231.3601 Z" id="ðŸ–-Ink" fill="#000000"/></g>

        <g id="face" transform="translate(315 248)"><path d="M93.8 224.8c8-16 81.4-8.9 81.4-8.9l6.2 51s-35.4 11.3-56.5 9c-21-2.5-39-35.1-31-51.1Z" fill="#fff"/><path d="M99 251.5c-2.5-5.5 50-20.2 66.2-10.1 16.2 10 11.1 23.9 11.1 23.9S108 280.8 99 251.5Z" fill="#FF8181"/><path d="M89.3 215.3c12.2-14.2 32.9-15.2 50-11.7 11 2.3 21.6 6.1 32.7 7.5 5.2.7 10.5.9 15.7.8 5.2-.1 10.3-1.1 15.4-1 .8 0 1.1 1.1.4 1.5-7 4.4-16.5 5.7-24.8 6.6a93 93 0 0 1 .7 5.8l1.3 9.2c.8 6 1 12.3 2.5 18.2l.3 1a9 9 0 0 1 .3 3.4l.3-.1 1.1-.5.7-.4c2.6-1.2 5-2 8-1.7 2.3.2 4.2 1.7 4.2 4.2 0 11-14.7 14.5-23.1 16.6l-2.5.6c-10.8 2.6-21.7 4.9-32.8 5.4-17.7 1-37.7-4-49.3-18.4-10.8-13.4-12.8-33.4-1.1-47Zm80.6 46c-2-16.5-22.2-17.4-28-7-2.6-14.5-40.9-1.2-37.9 1.7 11.4 11 28.6 12 43.4 10 7.5-1 15-2.8 22.5-4.7Zm-22.5-43.2-5.1-.7-2-.3c-12.7-1.7-26.9-2.6-37.3 5.5a18 18 0 0 0-6.7 11A552 552 0 0 1 126 230l2.7-.3 18.6-1.7 4.3-.5 4.4-.4c1.6-.2 12-.7 14-.4.2-1.7.4-5.5.9-7.3-7.4.3-14.8-.3-22.1-1.2l-1.3-.2Zm23.4-73.7c7.6 4.6 19 15.3 11 26.6-9.6 10-23.4-1.4-30.2-6.6-6.3-4-13.3 6.3-7.5 11 49 36.3 69-29.8 30.5-36.4-4.2-.8-5.8 4-3.8 5.4Zm13.5 19.3.4-.2h.1c.2-.2 0-.2-.4 0l-.4.1v.3l.3-.2ZM87.6 123v-.2c0-6.4 3.7-21 13-21 5.7 0 9.1 10 9.7 20.2v.4c.3 6.4-1.4 20.2-9.8 20.2S87.7 129.4 87.6 123Zm135.2-2v-.2c0-6.4-3.8-21-13-21-5.5 0-9 9.5-9.7 19.4v.8c-.4 6.1 1.2 20.6 9.8 20.6 8.4 0 12.8-13.1 12.9-19.6Zm-130-62.6c7.5-1.2 17.5 1 21 8.6 1.5 3.4-.3 7.2-4.2 7.4-9.5.4-18-1.7-26.4 4.5a42 42 0 0 0-9 10l-1 1.4-.8 1.1c-1.7 2.5-3.4 5.3-3.1 8.3 0 1-.9 1.8-1.7 1.7-5.5-.2-6-7-5.4-11.1 1.4-7.7 5-14.8 10.2-20.6 5.4-6 12.4-10 20.5-11.3ZM196 67.5a29.3 29.3 0 0 1 17.9-4c12 .9 32 11 29.3 25.6-.8 4.5-7 6.9-10.8 4.4-4-2.7-4.9-6.9-7.8-10.4a28.5 28.5 0 0 0-8.6-6.5 28.3 28.3 0 0 0-10.3-3.1h-.6c-2.2-.3-13-.2-11.4 3.8.3.8-.9 1.5-1.4.9-3.4-3.7.4-8.5 3.7-10.7Z" fill="#000"/></g>

        <g id="facial-hair" transform="translate(279 400)"><path d="M227.9943,104.3107 C218.6813,96.0137 208.2423,79.3337 194.8633,92.5317 C191.5543,96.2607 190.2143,104.6207 185.1543,106.2607 C178.4343,108.4407 171.7743,101.3307 169.4843,95.8707 C160.1143,65.5337 198.8483,57.2127 220.9143,62.1137 C231.6943,66.5407 239.6343,84.3607 240.1143,93.6607 C240.4243,99.9107 235.1343,109.1007 227.9943,104.3107 M298.2543,57.5507 C298.1633,57.1477 298.0363,56.7837 297.8833,56.4527 C293.7643,54.8957 290.5053,56.4837 288.4913,59.4497 C288.5573,60.1867 288.7773,60.9337 288.9163,61.6647 C287.3623,64.9387 285.9603,68.9897 283.8543,71.8187 C283.4383,71.8507 283.0073,71.8067 282.5933,71.6867 C247.6803,75.3327 264.7253,38.8037 229.3143,29.7307 C201.9413,25.2147 152.4673,30.3877 139.5543,58.8787 C129.3703,104.3867 77.5873,72.6767 60.5853,49.0097 C42.4443,27.4707 30.7143,1.1507 19.4043,-24.3893 C17.0143,-29.7943 9.5553,-25.9293 10.3663,-20.7433 C-0.0877,0.2277 0.2603,25.4177 -2.3287,48.3917 C-6.7327,94.2267 -11.0237,158.5047 31.5633,186.4917 C87.0503,249.2087 225.6083,271.3407 289.6063,213.7147 C311.7603,166.0847 309.0293,107.9777 298.2543,57.5507" id="ðŸ–-Ink" fill="#000000"/></g>

        <g id="eyewear" transform="translate(203 303)"><path d="M367.1336,98.3183 C360.4006,107.3633 347.9186,110.2443 336.4056,109.2493 C311.5746,106.8593 303.7596,78.6583 302.9456,56.7393 C319.5966,61.4233 301.5376,28.2493 358.4566,24.6013 C378.5216,22.9293 372.9896,35.0473 381.8546,43.9013 C381.6726,62.4833 378.5796,82.6743 367.1336,98.3183 M248.8626,76.9663 C234.2026,145.6193 153.9246,129.2893 145.4916,67.4033 C153.2786,61.9073 151.2276,48.3363 160.9016,43.4193 C176.2336,33.6233 195.3996,34.0423 212.8106,34.2723 C235.0656,35.8013 241.4076,45.0203 252.8396,55.0783 C252.2896,61.7963 250.7036,69.7583 248.8626,76.9663 M398.9346,13.2313 C398.1116,13.0943 397.2876,12.9653 396.4636,12.8443 C395.8206,12.4793 395.0656,12.1983 394.1876,12.0293 C392.1826,11.5203 390.1916,11.1773 388.2036,10.9923 C359.6716,4.5713 293.6646,13.6883 290.9406,38.0363 C281.8546,41.0693 273.9926,38.3533 263.4616,38.6233 C255.4456,5.1183 116.8626,9.8473 110.1976,30.0473 C110.1726,30.0403 110.1476,30.0343 110.1216,30.0263 C103.7176,28.0443 94.2766,28.5223 86.9466,28.2083 C71.2956,27.8803 55.6266,29.2753 40.3136,32.5763 C11.6386,37.1333 -27.4964,42.4683 -7.5534,78.2763 C-7.5494,78.2823 -7.5464,78.2893 -7.5414,78.2953 L-7.5384,78.2923 C-4.1014,81.8153 1.7316,78.9783 1.9486,74.2093 C-4.7564,57.2453 10.3876,55.2083 22.0396,50.3333 C51.0326,39.9173 80.5506,38.4733 110.5366,41.6953 C112.7926,44.3513 116.2156,46.6673 119.8336,47.8793 C139.8826,51.2073 129.3166,66.0793 141.9896,68.2423 C139.6616,120.0843 202.6026,148.3823 239.0716,114.3033 C253.6326,100.0673 257.1036,78.9783 260.4796,59.9693 C262.2646,59.5683 263.3996,58.5923 264.0626,57.3003 C268.3556,53.0143 271.0526,49.0563 279.5416,47.8793 C288.0306,46.7033 294.5656,49.0643 295.4496,49.7873 C295.6726,50.2363 295.9116,50.6863 296.1896,51.1363 C296.5776,51.8073 297.1056,52.3423 297.7056,52.7633 C289.3226,104.3873 329.3996,137.0353 369.8586,110.2603 C387.4386,93.7233 391.1536,68.4053 391.8876,45.8073 C394.2706,44.3693 395.7796,41.5823 394.9546,38.0783 C393.8176,33.2483 396.4836,29.0663 400.7296,26.9663 C406.2466,24.2393 405.2706,14.2803 398.9346,13.2313" id="ðŸ–-Ink" fill="#000000"/></g>
    </g>
</svg>