<svg xmlns="http://www.w3.org/2000/svg" viewBox="0 0 704 704" fill="none" width="512" height="512">
    <desc>"Open Peeps" by "Pablo Stanley", licensed under "CC0 1.0". / Remix of the original.</desc>
    <mask id="viewbox"><rect width="704" height="704" rx="0" ry="0" x="0" y="0" fill="#ffffff" /></mask>
    <g mask="url(#viewbox)">
        <rect id="background" fill="#ffd5dc" width="704" height="704" x="0" y="0" />

        <g id="body"><path id="skin" d="M705.3 1074a2351.1 2351.1 0 0 1-15.6-101c-1-7.7-2.5-16.4 2.7-22 7.3-8 14-14.8 14.8-26.2.8-10.7-2.8-22.4-5-32.8a809.4 809.4 0 0 0-17.3-64.7c-6.6-21.7-13.9-43.2-21.3-64.6-6.9-20-13.5-40.3-22.5-59.5-17-36.5-46-63.5-81.6-81.6-9-4.5-27-20.5-36.3-24-8.5-3.4-8.5 6.3-16.9 2.6-6.7-2.9-13-6.7-16.7-13.2-4-7-14.3-16.9-15.9-25-3.3-17.4.3-32.2-12-45.3a90 90 0 0 0-41.1-23.8c-33.7-9.3-78.5-2.8-98.8 28.5-9.7 14.9-13 33-26.2 45.1-11.4 10.7-8.8 18-23.6 23.4-.9.3-23.6-4.5-24.4-4.2-16.2-3.5-31.7 6.2-46.5 11.8a325.4 325.4 0 0 0-63 32.3 399.2 399.2 0 0 0-102.3 98.5 482.5 482.5 0 0 0-76.4 161c-1.7 6.4-3.5 13-1.5 19.4 1.7 5.3 5.4 9.2 9.8 12.4 6 4.3 18 7 17.7 15.7-.1 6.6-2.4 13.5-3.5 20-1.3 7.7-2.3 15.5-3.4 23.2-4.8 35.4-8.6 71-10.3 106.6a920 920 0 0 0-.5 106c.1 2.3.8 4.5 2 6.2-1 .4-1.2 2.4.1 2.7l2.7.5a12 12 0 0 0 7 2.4l5.5.2c19.3 4 38.6 7.9 58.1 10.8 23.8 3.5 47.6 6.3 71.5 8.7 49.2 4.8 98 3.2 147.1.6a1877 1877 0 0 1 147.4-2c49.2 1.4 98.4 3.5 147.6 4.4 55 1 110-.5 164.8-5 7.5-.5 12.2-6.5 10.7-14-8.9-44.7-19-89.1-27-134Z" fill="#ffdbb4"/><path id="shirt" d="m201 597.5 1.2-.4c14.5-5.7 29.6-14.8 45.4-11.4.5-.2 10.8 1.9 17.9 3.2l-6.7 7L247 598c40.7 67.1 88.8 100.7 144.3 100.7 55.5 0 97.7-33.6 126.4-100.7l4-1c.4 0 1 .2 1.5.4 9.3 3.6 27.4 19.6 36.3 24.1 35.6 18 64.5 45 81.6 81.6 8.7 18.6 15.2 38 21.8 57.5l.7 2c7.4 21.4 14.7 43 21.3 64.6 6.3 20.4 12 41 16.6 61.8l.7 2.9c2.2 10.4 5.8 22 5 32.8a29 29 0 0 1-3 10.7l-80.4 29 38.4 261.3c-35.1 1.5-70.3 2-105.5 1.3-49.2-.9-98.4-3-147.6-4.3-47.7-1.2-95.3-.7-143 1.7l-12 .6a946.3 946.3 0 0 1-139.5-1l-3.1-.3v-38.3l16.3-212.9-83-15.6-81.3-39.5a21.7 21.7 0 0 1-5.6-8.8c-1.9-6-.5-12 1-18l.5-1.3a492.8 492.8 0 0 1 76.4-161A399.3 399.3 0 0 1 138 629.7c19.8-13 40.9-23.9 63-32.3Z" fill="#e279c7"/><path d="M232.2 584.6c5.1-.3 10.3.6 15.4 1 .4.1.6.8 0 .9-9 1.9-18 4.5-26.9 7.1l-3.8 1.2c-10 3-19.8 6-29.6 10-19.4 7.9-37.8 18.5-54.8 30.8C67.2 682.8 20 754.3-9.9 828.3a526 526 0 0 0-24.3 77c-.4 1.6-2 5.4-1 7 .7 1.3 3.6 2.1 5 2.9l4.5 2.3 25.2 12.9 2.3 1.1c38 18.6 78.4 34.4 121 35.5l.4-3.7a342 342 0 0 1 9.9-60c.3-1 1.6-.6 1.7.3 3 23.1 2 46.4 1 69.7-1.8 41-4.3 82.2-6.5 123.3-1.2 20.6-2.6 41-3.9 61.7-1.3 20.5-1.7 41.6-4.7 62-.6 4.6-6 7-10 6.6-4.4-.5-7.9-4.5-8-9 0-11.9 1.5-24 2.4-35.8l2.5-33.8c3.1-41.1 6.8-82.2 10.2-123.3a4771 4771 0 0 1 3.8-43.7C76.4 979.8 34.2 963-6.1 943.5c-.6 13.2-2 26.5-3.4 39.6-3.8 36.8-7.1 73.6-9.6 110.5a2254.2 2254.2 0 0 0-4.2 92.7l-.2 7c0 4.4-.5 8.5-4.3 11.7-3.7 3.3-8.9 3.5-12.6 0-5-4.6-4.2-10.9-4-17.1a1675.6 1675.6 0 0 1 1.8-47.2 1321 1321 0 0 1 10.5-109.5l2-14c3.5-26 7.5-52.7 15.5-77.9-3.1-1.5-6.2-3-9.3-4.7-5.5-2.7-11.2-5.4-16.6-8.4-4.2-2.5-7.9-5.8-9-10.8-1.4-5.5.6-11.5 2-16.9v-.4a502 502 0 0 1 26.6-80 523.2 523.2 0 0 1 67.8-117 353.8 353.8 0 0 1 88.7-83.3 239 239 0 0 1 53.8-25.7 142.6 142.6 0 0 1 42.8-7.5Zm90.1-66c6-6.5 18.1.2 15.2 8.8a108.2 108.2 0 0 1-34.7 52A79.4 79.4 0 0 1 247 598l1.7 2.4a321.1 321.1 0 0 0 46.1 52.6c36 31.2 84.8 48 132 36 37.1-9.4 69.8-38.8 79.4-76.2-1.3.6-3 .9-4.8.5-7.7-1.7-15.3-9.8-20.3-15.6-5.3-6.3-9.5-13-12.6-20.7-5.6-14-7.4-32.1.3-45.7 1-1.7 3-.7 3.3 1l.3 2.5c1.5 12.7 3.3 25 9.3 36.6a76 76 0 0 0 18.2 23.1c2.6 2 5.8 3.6 8.1 6l.5.4c.6-5 4.1-7.3 7.6-7.2 3.3.2 7.3 1.6 8.8 2.3l.1.1a341 341 0 0 1 65.1 42 259 259 0 0 1 88.4 129c7.5 25.3 11.8 51.4 16.3 77.4l2.8 16c4.2 23.9 8.9 48.4 18.4 70.7 2.5 5.7.6 11.1-5.5 13.4A1493 1493 0 0 1 688 953c3.7 16 6 32.5 8.7 48.5 6 34.1 13.2 68 19.4 102 3.2 17.5 6.1 35 9.3 52.3l4.7 25.2 2.4 13.6.1.7c.5 2.4 1 4.9.4 7.3-.8 2.7-2.9 4.6-4.8 6.6-1.6 1.6-3.8 1.6-5.7.7l-.7-.3c-3.4-1.6-6-3.2-7.3-7-.7-2.5-1-5.2-1.5-7.7a3535.6 3535.6 0 0 1-7.8-43.6l-1.6-9.1c-5.2-31.4-10.2-62.9-12.8-94.5-1-14-2.3-28.1-3.5-42.2l-.9-10.5c-1.1-13.3-2.5-27-2.7-40.5l-4.5 1.6L657 964c-5.5 2-12.5 6-18.4 5.2-2.9-.3-5-1.2-6.8-2.9 2 28.8 4.8 57.4 8.5 86a1965.7 1965.7 0 0 0 22 135c.6 3.2 1.4 6.4 1.9 9.6.5 3.7-.5 5.9-2.5 9-1.7 2.4-5 3.7-7.8 2-3.6-2.3-5.5-4.3-6.5-8.4-1-3.7-1.6-7.6-2.3-11.4a1654.2 1654.2 0 0 1-11.4-65.2c-7.8-52-12.7-104.4-15.2-156.8a1388 1388 0 0 1-1.4-77.8c0-13.3.5-26.6 1.4-39.9 1-13.4 3-26.5 4.8-39.8 0-.5.7-.5.7 0 .8 14.9 2.1 29.8 2.8 44.7.6 14.3.9 28.5 1.4 42.8.6 18.7 1.5 37.5 2.7 56.2a9.6 9.6 0 0 1 8.5-3.1c4.7-1 9.7-3.4 14.1-5l16.8-5.5 26.4-8.7a679 679 0 0 1-18-80.8l-2-12.3c-4-24.2-8.5-48.5-15.8-72a229.8 229.8 0 0 0-34.8-68.2 370.2 370.2 0 0 0-52.7-55.3C557 627 539.7 614 523 600c.1.9.2 2 0 3-3.5 25.9-17 50-35.8 67.9-37.7 36-93.6 43.4-142 26.5-46.7-16.3-88-55-102.6-102.8-.3-.8.8-1 1.3-.5l2.4 3.3c0-.4.2-.9.7-1a129 129 0 0 0 46.6-29.2 100.2 100.2 0 0 0 21.3-33.3l.4-1c1.7-5 3.2-10.2 7-14.2Z" fill="#000000"/></g>

        <g id="head" transform="matrix(.99789 0 0 1 156 62)"><path id="skin" d="M391.825164,167.5733 C361.770031,126.2073 306.431607,114.3113 258.441922,124.3723 C164.622596,141.4743 74.9877332,213.0513 58.4104393,310.3953 C32.5477467,369.2863 49.063211,462.0453 124.27883,468.9753 C134.987305,469.5793 145.594061,467.1143 156.321484,468.4453 C221.792969,478.9033 299.159657,523.6713 357.114866,470.8763 C360.019856,472.9573 363.846306,473.9633 367.103326,472.7043 C391.771313,463.1713 392.930118,435.5943 395.033319,412.9253 C397.749829,383.6343 400.297804,354.3273 402.674251,325.0083 C403.522912,274.4463 423.564653,211.2633 391.825164,167.5733 L391.825164,167.5733 Z" fill="#ffdbb4"/><path d="M209.9304,62.1665 C249.4304,60.0665 322.2114,78.1585 356.6714,99.3695 C412.8184,133.9285 417.1704,202.8665 414.8804,214.7865 C414.0104,219.3355 411.2304,223.5455 406.8804,222.1465 C410.5704,253.4655 410.2804,271.3665 410.9004,302.8665 L411.326326,323.896833 C411.602622,337.9175 411.8404,351.9395 411.9004,365.9655 C413.3204,365.4365 414.7204,366.0855 415.2404,367.4465 C415.3704,367.7765 414.9204,367.9565 414.7004,367.7665 C412.2004,365.5855 413.9804,370.5555 414.8404,371.5665 C416.0304,372.9565 418.0104,374.2665 419.4004,375.4565 L423.1754,378.724875 L423.1754,378.724875 L426.9504,381.9865 C431.827067,386.194 436.544081,390.409903 441.093739,394.94231 L442.3304,396.1865 C450.6204,404.6065 461.0104,412.7555 466.1704,423.6465 C471.1004,434.0455 469.5804,445.8355 461.3904,454.1255 C458.4104,457.1355 454.9304,459.4365 451.1504,461.1765 C457.8804,472.2565 458.8604,486.9065 451.8404,498.3055 C444.8104,509.7465 431.2904,515.7365 418.2704,514.8165 C417.8704,516.4465 417.2504,518.0365 416.4304,519.5455 C411.267451,529.033282 400.998,530.264902 391.25954,529.757148 L390.8804,529.7365 C368.9604,528.4755 347.8704,522.9865 328.6704,512.3165 C322.0104,512.7665 316.0704,507.2955 314.7704,501.2955 C311.2704,501.1665 307.7504,500.8755 304.1604,500.4655 C293.5104,499.2365 282.5904,496.9465 273.2004,491.5365 C271.7604,490.7065 272.4304,488.5165 274.0304,488.4755 C285.4704,488.2155 296.9204,489.0065 308.3404,487.7665 C318.8204,486.6355 329.9904,483.7465 339.7604,479.8165 C357.3204,472.7365 372.3804,460.7265 380.6904,444.0855 C391.4504,422.5455 390.4704,396.6765 391.6404,373.2765 C392.9364,347.3745 394.5321,321.4968 396.23796,295.62153 L397.065754,283.218403 C398.722544,259.042706 400.093787,246.109581 404.2904,221.0165 C391.6404,222.1465 339.091585,203.233069 322.7504,172.2955 C291.735266,238.110268 134.599319,211.174996 127.6304,312.4965 C127.571303,313.355714 126.2104,313.1165 126.1604,312.2955 L126.03077,309.986352 C125.967993,308.845296 125.911048,307.722407 125.872437,306.608185 L125.8404,305.4965 L123.3704,305.5265 C123.3704,305.8355 122.9304,305.9465 122.8204,305.6165 C120.4904,299.0055 109.3904,301.1355 104.5604,302.7065 C100.2104,304.1255 96.1104,306.3055 92.4304,308.9965 C85.0404,314.3965 79.3104,321.6665 77.4104,330.7555 C73.8004,348.0165 84.7904,365.5965 99.3804,373.9265 C108.5804,379.1765 118.6604,382.5665 127.4804,388.5165 C135.2704,393.7665 142.5304,399.9165 148.8204,406.9065 C173.7404,434.5965 188.4004,476.5965 176.6104,513.1465 C175.7104,515.9365 173.3304,519.1255 170.1804,519.5765 C164.9704,520.3265 159.7604,519.5665 156.8404,514.6065 C155.7004,512.6665 155.1604,510.4565 155.2804,508.2765 C153.2604,515.2155 146.7104,522.0765 140.6704,524.6565 C132.4404,528.1765 123.1704,527.1255 115.9104,522.5855 L114.993191,523.264072 C103.186561,531.954382 89.9974886,539.874981 74.8704,538.2765 C63.9104,537.1165 53.1504,531.5365 47.0904,522.7365 C39.0304,527.2665 30.4204,530.8755 21.5404,533.3355 L20.5953472,533.595096 C8.37803019,536.921531 -7.20580253,539.971032 -18.6096,533.2155 C-29.5596,526.7255 -33.1996,512.5555 -30.6296,500.7255 C-30.3196,499.3165 -29.9296,497.9465 -29.4496,496.6165 C-37.6896,497.0555 -45.9196,496.2665 -53.7396,493.8465 C-61.7296,491.3755 -69.3496,486.6255 -73.1796,478.9265 C-77.4996,470.2155 -76.3496,460.3165 -73.1296,451.4465 C-67.9796,437.2155 -59.6996,424.5555 -49.3896,413.5265 C-39.4750054,402.911365 -27.5155898,393.90558 -15.086418,386.398613 L-12.9910836,385.144734 C-1.80264379,378.471607 11.6900923,370.651838 24.9104,371.1665 C24.8704,370.9965 24.8404,370.8355 24.8204,370.6665 C22.8204,355.9365 23.0504,340.9165 22.5804,326.0665 C22.1504,312.4065 21.6604,298.7465 21.3404,285.0765 C20.8204,261.8355 20.9904,238.4965 24.0204,215.4165 C26.7104,194.9365 31.5504,174.9655 40.3804,156.2155 C49.6504,136.5165 63.6104,119.7065 80.8504,106.4865 C117.0304,78.7365 164.8204,64.5665 209.9304,62.1665 Z M87.0403,335.1361 C90.9803,327.7061 99.9503,325.3661 107.8203,326.7061 C118.8503,328.5861 126.3503,338.2271 132.7903,346.5171 C139.5503,355.2061 125.4503,363.3961 121.8203,354.9771 L120.960225,352.988001 C118.047077,346.311141 114.605755,339.270645 108.6603,334.9161 C102.3403,330.2961 93.4203,329.6161 87.8403,335.7561 C87.4403,336.2061 86.7703,335.6261 87.0403,335.1361 Z" id="ðŸ–-Ink" fill="#000000"/></g>

        <g id="face" transform="translate(315 248)"><path style=" stroke:none;fill-rule:evenodd;fill:rgb(0%,0%,0%);fill-opacity:1;" d="M 127.09375 64.90625 C 132.585938 64.816406 136.035156 67.425781 137.441406 72.726562 C 137.988281 77.246094 136.285156 80.632812 132.339844 82.882812 C 131.1875 83.480469 129.980469 83.925781 128.714844 84.21875 C 119.59375 88.425781 110.117188 91.605469 100.292969 93.757812 C 89.773438 95.964844 79.152344 96.726562 68.433594 96.046875 C 63.515625 95.648438 58.84375 94.378906 54.414062 92.230469 C 53.914062 91.726562 53.800781 91.140625 54.082031 90.464844 C 54.304688 90.144531 54.609375 89.9375 54.984375 89.84375 C 56.652344 89.398438 58.335938 89.046875 60.042969 88.796875 C 69.839844 87.957031 79.472656 86.207031 88.941406 83.550781 C 100 80.324219 110.269531 75.492188 119.75 69.054688 C 121.640625 66.679688 124.085938 65.296875 127.09375 64.90625 Z M 127.09375 64.90625 "/><path style=" stroke:none;fill-rule:evenodd;fill:rgb(0%,0%,0%);fill-opacity:1;" d="M 178.503906 65.382812 C 178.859375 65.371094 179.210938 65.417969 179.550781 65.523438 C 181.621094 66.207031 183.589844 67.097656 185.464844 68.195312 C 192.785156 73.03125 200.734375 76.464844 209.308594 78.496094 C 214.09375 79.5625 218.929688 79.878906 223.808594 79.449219 C 226.453125 79.035156 229.089844 78.589844 231.722656 78.113281 C 233.652344 77.8125 235.59375 77.714844 237.542969 77.828125 C 240.703125 78.445312 242.976562 80.210938 244.363281 83.121094 C 245.324219 85.34375 245.417969 87.601562 244.648438 89.894531 C 243.984375 91.289062 243.015625 92.417969 241.738281 93.28125 C 238.011719 95.234375 234.039062 96.285156 229.816406 96.425781 C 223.957031 96.613281 218.203125 95.910156 212.554688 94.328125 C 204.269531 92.203125 196.671875 88.675781 189.757812 83.742188 C 186.5625 81.375 183.75 78.625 181.316406 75.492188 C 179.332031 72.828125 178.171875 69.839844 177.835938 66.527344 C 177.816406 65.988281 178.039062 65.609375 178.503906 65.382812 Z M 178.503906 65.382812 "/><path style=" stroke:none;fill-rule:evenodd;fill:rgb(0%,0%,0%);fill-opacity:1;" d="M 97.527344 98.382812 C 104.136719 98.246094 109.890625 100.363281 114.789062 104.726562 C 117.847656 107.660156 119.867188 111.207031 120.847656 115.359375 C 122.824219 116.386719 124.003906 118.007812 124.375 120.222656 C 124.984375 123.691406 123.792969 126.347656 120.796875 128.1875 C 118.125 129.507812 115.359375 129.730469 112.5 128.855469 C 109.191406 128.058594 107.332031 125.976562 106.921875 122.609375 C 106.910156 121.078125 106.976562 119.550781 107.109375 118.03125 C 106.855469 116.71875 106.3125 115.542969 105.488281 114.5 C 101.722656 110.4375 97.414062 109.785156 92.566406 112.546875 C 86.898438 116.359375 84.070312 121.714844 84.078125 128.617188 C 83.984375 130.636719 84.445312 132.511719 85.460938 134.242188 C 85.847656 134.695312 86.292969 135.078125 86.796875 135.386719 C 87.03125 135.964844 86.839844 136.3125 86.222656 136.4375 C 78.640625 135.183594 74.777344 130.714844 74.632812 123.039062 C 75.089844 114.460938 78.746094 107.625 85.601562 102.53125 C 89.183594 100.007812 93.160156 98.625 97.527344 98.382812 Z M 97.527344 98.382812 "/><path style=" stroke:none;fill-rule:evenodd;fill:rgb(0%,0%,0%);fill-opacity:1;" d="M 209.40625 98.953125 C 215.871094 99.121094 221.164062 101.664062 225.285156 106.585938 C 229.28125 111.863281 229.914062 117.519531 227.195312 123.5625 C 225.3125 126.558594 222.628906 127.71875 219.132812 127.042969 C 215.6875 126.046875 213.699219 123.773438 213.171875 120.222656 C 213.203125 118.699219 213.238281 117.171875 213.269531 115.644531 C 212.539062 112.820312 210.710938 111.566406 207.785156 111.878906 C 205.457031 112.222656 203.5 113.257812 201.917969 114.976562 C 198.523438 118.90625 197.1875 123.449219 197.914062 128.617188 C 198.152344 129.621094 198.484375 130.589844 198.914062 131.527344 C 198.796875 132.109375 198.449219 132.332031 197.863281 132.195312 C 195.6875 129.28125 193.859375 126.148438 192.378906 122.796875 C 190.398438 116.46875 191.511719 110.746094 195.71875 105.628906 C 199.324219 101.453125 203.886719 99.226562 209.40625 98.953125 Z M 209.40625 98.953125 "/><path style=" stroke:none;fill-rule:evenodd;fill:rgb(0%,0%,0%);fill-opacity:1;" d="M 172.875 138.820312 C 179.570312 139.269531 185.148438 141.96875 189.613281 146.929688 C 193.667969 152.074219 195.351562 157.921875 194.667969 164.480469 C 193.863281 171.773438 190.570312 177.636719 184.796875 182.074219 C 179.773438 185.445312 174.242188 186.78125 168.203125 186.082031 C 163.660156 185.542969 159.335938 184.269531 155.230469 182.265625 C 151.542969 180.457031 148.046875 178.359375 144.738281 175.972656 C 142.015625 174.039062 141.207031 171.476562 142.304688 168.292969 C 143.25 165.824219 144.980469 164.21875 147.503906 163.476562 C 148.765625 163.234375 149.972656 163.394531 151.128906 163.953125 C 154.101562 166.257812 157.152344 168.453125 160.285156 170.535156 C 162.785156 172.132812 165.457031 173.375 168.296875 174.253906 C 173.53125 175.84375 178.03125 174.683594 181.792969 170.773438 C 185.042969 165.929688 185.265625 160.9375 182.460938 155.800781 C 180.691406 152.855469 178.480469 150.261719 175.832031 148.027344 C 174.152344 146.613281 172.371094 145.34375 170.492188 144.210938 C 169.488281 142.371094 169.804688 140.78125 171.445312 139.441406 C 171.910156 139.179688 172.386719 138.972656 172.875 138.820312 Z M 172.875 138.820312 "/><path style=" stroke:none;fill-rule:evenodd;fill:rgb(0%,0%,0%);fill-opacity:1;" d="M 161.90625 207.875 C 164.832031 207.859375 167.757812 207.875 170.683594 207.921875 C 176.957031 208.007812 182.839844 209.5625 188.328125 212.597656 C 193.058594 215.105469 197.476562 218.0625 201.585938 221.46875 C 203.835938 223.460938 205.726562 225.734375 207.257812 228.285156 C 210.171875 233.722656 210.460938 239.285156 208.117188 244.976562 C 206.035156 249.15625 202.746094 251.875 198.246094 253.132812 C 193.308594 253.925781 188.347656 254.558594 183.367188 255.039062 C 166.984375 256.691406 150.578125 258.089844 134.152344 259.234375 C 130.039062 259.53125 126 259.117188 122.039062 257.996094 C 117.171875 256.339844 113.660156 253.179688 111.5 248.507812 C 110.304688 245.460938 110.082031 242.347656 110.832031 239.160156 C 111.734375 235.828125 113.195312 232.777344 115.21875 230.003906 C 124.082031 218.40625 135.765625 211.425781 150.269531 209.066406 C 154.140625 208.449219 158.019531 208.050781 161.90625 207.875 Z M 161.90625 207.875 "/><path style=" stroke:none;fill-rule:evenodd;fill:rgb(100%,100%,100%);fill-opacity:1;" d="M 161.90625 217.222656 C 168.765625 217.027344 175.28125 218.410156 181.460938 221.371094 C 182.257812 221.820312 182.972656 222.375 183.605469 223.039062 C 184.179688 223.855469 184.003906 224.445312 183.082031 224.804688 C 179.835938 225.75 176.53125 226.382812 173.160156 226.710938 C 163.402344 227.910156 153.609375 228.355469 143.785156 228.046875 C 142.882812 227.949219 141.992188 227.792969 141.113281 227.570312 C 140.40625 227.375 140.199219 226.945312 140.492188 226.285156 C 140.882812 225.703125 141.34375 225.179688 141.878906 224.710938 C 144.476562 222.871094 147.273438 221.375 150.269531 220.226562 C 154.042969 218.761719 157.921875 217.761719 161.90625 217.222656 Z M 161.90625 217.222656 "/></g>

        <g id="facial-hair" transform="translate(279 400)"><path d="M209.56,138.063869 C179.966667,142.412366 158.546667,141.513713 145.3,135.367911 C125.49,126.178077 106.22,117.286552 88.25,105.11363 C69.84,92.6423999 54.22,77.8328139 43.07,58.8757739 C32.7,41.2370661 24.08,22.5205977 15.4,3.94847219 C14.8927599,2.8631581 9.91,-7.92614068 8.15,-11.5443372 C5.44,-17.1544662 -2.48276151,-15.3934895 -2.48276151,-6.68479136 C-2.48276151,2.0239068 -2.87,67.9754124 12.35,93.9186509 C26.08,117.350322 49.35,133.722402 72.47,148.012353 C98.05,163.813094 132.03,180.893676 162.55,185.406799 C190.17,189.486893 221.69,178.026063 241.69,159.136383 C262.6,139.380645 268.52,112.541703 279.31,86.8390358 C281.72,81.0941866 273.176247,77.6294969 270.67,83.2793543 C267.523643,90.3722187 247.153643,108.633723 209.56,138.063869 Z" id="ðŸ–-Ink" fill="#000000"/></g>

        <g id="eyewear" transform="translate(203 303)"><path d="M337.808766,15 C361.280828,15 374.675545,20.0476268 379.583995,20.4408262 L379.731604,20.4513988 C381.773203,20.5819351 383.604638,20.7526365 385.526143,21.4956895 C392.591677,24.2168704 393.742579,31.6273185 389.619349,36.2975074 C389.330123,45.9612137 390.601118,57.2526079 388.42041,66.9474421 C385.730303,107.818373 366.509247,114.715713 355.583689,117.233056 C350.098392,118.49725 343.5973,119.000317 337.770736,117.665834 C327.83095,117.295312 318.004253,114.183526 309.596667,108.765263 C297.887495,101.213234 289.190683,89.6055398 286.368473,75.8299385 C285.030886,69.2635354 284.405767,62.4288331 285.133692,55.7543104 L285.24159,54.834673 C281.435609,53.014193 277.025154,52.6697779 272.478593,52.5091178 C270.306891,52.4318001 268.166215,52.3625154 266.086586,52.454895 C264.053994,52.6818274 262.04542,52.9840692 260.030842,53.3957608 C257.831119,54.0594879 255.753492,55.1549891 253.834989,56.8901185 L253.702886,59.4225236 C253.342603,65.7485159 252.511953,72.0935866 251.230949,78.3000879 C249.339468,87.4577148 246.297085,96.2036502 239.822013,102.69934 C237.630296,105.97279 234.918171,108.894796 231.625592,111.425193 C219.665224,120.63403 203.415495,124.014921 188.501813,122.74169 C158.225098,120.158074 140.724389,96.1233201 136.69123,85.8501095 L136.45028,85.2277051 C133.536796,77.5902322 131.214914,67.6806815 122.008729,66.0397124 L120.050703,65.6879191 C115.84966,64.8993558 111.973202,63.8015161 109.509939,59.7026747 C108.430093,57.9133226 107.874658,55.9121 107.738551,53.8717164 C106.301426,53.9821703 104.866302,54.0876035 103.436181,54.1900243 C92.0277451,56.6026875 23.600227,58.6483427 18.1383674,58.6483427 C18.1383674,58.6483427 7.63935915,63.0673229 3.20667133,59.6434313 C0.134264704,57.2626491 -0.876527051,54.0896117 0.814797767,50.4948415 C3.36675899,45.0862033 15.1402688,41.832872 20.368158,40.8027483 C20.368158,40.8027483 104.732847,41.5034375 110.804953,40.3521672 C114.561896,36.47825 121.28216,37.0084284 126.897559,36.3959117 C131.5462,33.0812926 138.049294,30.8611705 143.186318,29.3750644 C144.233138,28.9784347 145.26995,28.5948587 146.277739,28.2333734 C155.695116,24.8795934 165.483783,23.1032949 175.421568,22.1493754 C185.669595,21.1753734 195.947646,21.6161846 206.135626,23.0119194 C210.428989,23.5943124 214.682321,24.3474067 218.905629,25.3324541 C226.467802,26.3293627 233.985996,27.9714025 241.550918,29.9193501 L243.064552,30.3129178 C251.030792,32.4014994 259.217205,34.2079217 267.463664,32.7921043 C274.177256,31.6469826 280.633494,29.0632415 286.823569,26.2693175 L287.62946,25.9038016 C301.240122,19.6892673 322.495771,15 337.808766,15 Z M218.086988,37.7223618 C213.065054,36.6178235 210.920374,44.3606372 215.95832,45.4681879 C219.525804,46.252514 222.549376,48.0515396 224.592155,51.0993468 L224.807252,51.4306867 C227.548399,55.792609 234.479828,51.7660647 231.719666,47.3760269 C228.614234,42.4357281 223.788453,38.9755108 218.086988,37.7223618 Z M365.1732,32.9216366 C363.402814,31.6745124 360.723715,32.6003163 359.69591,34.362557 C358.564701,36.303111 359.306135,38.4637159 360.964208,39.7331967 L361.133036,39.8571332 C362.653907,40.9290575 364.135119,42.8505012 364.321131,44.8192514 L364.337546,45.0655335 C364.536702,50.2177028 372.543974,50.24381 372.343817,45.0655335 C372.148664,39.999719 369.215367,35.767329 365.1732,32.9216366 Z" id="ðŸ–-Ink" fill="#000000"/></g>
    </g>
</svg>