<svg xmlns="http://www.w3.org/2000/svg" viewBox="0 0 704 704" fill="none" width="512" height="512">
    <desc>"Open Peeps" by "Pablo Stanley", licensed under "CC0 1.0". / Remix of the original.</desc>
    <mask id="viewbox"><rect width="704" height="704" rx="0" ry="0" x="0" y="0" fill="#ffffff" /></mask>
    <g mask="url(#viewbox)">
        <rect id="background" fill="#ffd5dc" width="704" height="704" x="0" y="0" />

        <g id="body"><path id="skin" d="M705.3 1074a2351.1 2351.1 0 0 1-15.6-101c-1-7.7-2.5-16.4 2.7-22 7.3-8 14-14.8 14.8-26.2.8-10.7-2.8-22.4-5-32.8a809.4 809.4 0 0 0-17.3-64.7c-6.6-21.7-13.9-43.2-21.3-64.6-6.9-20-13.5-40.3-22.5-59.5-17-36.5-46-63.5-81.6-81.6-9-4.5-27-20.5-36.3-24-8.5-3.4-8.5 6.3-16.9 2.6-6.7-2.9-13-6.7-16.7-13.2-4-7-14.3-16.9-15.9-25-3.3-17.4.3-32.2-12-45.3a90 90 0 0 0-41.1-23.8c-33.7-9.3-78.5-2.8-98.8 28.5-9.7 14.9-13 33-26.2 45.1-11.4 10.7-8.8 18-23.6 23.4-.9.3-23.6-4.5-24.4-4.2-16.2-3.5-31.7 6.2-46.5 11.8a325.4 325.4 0 0 0-63 32.3 399.2 399.2 0 0 0-102.3 98.5 482.5 482.5 0 0 0-76.4 161c-1.7 6.4-3.5 13-1.5 19.4 1.7 5.3 5.4 9.2 9.8 12.4 6 4.3 18 7 17.7 15.7-.1 6.6-2.4 13.5-3.5 20-1.3 7.7-2.3 15.5-3.4 23.2-4.8 35.4-8.6 71-10.3 106.6a920 920 0 0 0-.5 106c.1 2.3.8 4.5 2 6.2-1 .4-1.2 2.4.1 2.7l2.7.5a12 12 0 0 0 7 2.4l5.5.2c19.3 4 38.6 7.9 58.1 10.8 23.8 3.5 47.6 6.3 71.5 8.7 49.2 4.8 98 3.2 147.1.6a1877 1877 0 0 1 147.4-2c49.2 1.4 98.4 3.5 147.6 4.4 55 1 110-.5 164.8-5 7.5-.5 12.2-6.5 10.7-14-8.9-44.7-19-89.1-27-134Z" fill="#694d3d"/><path id="shirt" d="m201 597.5 1.2-.4c14.5-5.7 29.6-14.8 45.4-11.4.5-.2 10.8 1.9 17.9 3.2l-6.7 7L247 598c40.7 67.1 88.8 100.7 144.3 100.7 55.5 0 97.7-33.6 126.4-100.7l4-1c.4 0 1 .2 1.5.4 9.3 3.6 27.4 19.6 36.3 24.1 35.6 18 64.5 45 81.6 81.6 8.7 18.6 15.2 38 21.8 57.5l.7 2c7.4 21.4 14.7 43 21.3 64.6 6.3 20.4 12 41 16.6 61.8l.7 2.9c2.2 10.4 5.8 22 5 32.8a29 29 0 0 1-3 10.7l-80.4 29 38.4 261.3c-35.1 1.5-70.3 2-105.5 1.3-49.2-.9-98.4-3-147.6-4.3-47.7-1.2-95.3-.7-143 1.7l-12 .6a946.3 946.3 0 0 1-139.5-1l-3.1-.3v-38.3l16.3-212.9-83-15.6-81.3-39.5a21.7 21.7 0 0 1-5.6-8.8c-1.9-6-.5-12 1-18l.5-1.3a492.8 492.8 0 0 1 76.4-161A399.3 399.3 0 0 1 138 629.7c19.8-13 40.9-23.9 63-32.3Z" fill="#e279c7"/><path d="M232.2 584.6c5.1-.3 10.3.6 15.4 1 .4.1.6.8 0 .9-9 1.9-18 4.5-26.9 7.1l-3.8 1.2c-10 3-19.8 6-29.6 10-19.4 7.9-37.8 18.5-54.8 30.8C67.2 682.8 20 754.3-9.9 828.3a526 526 0 0 0-24.3 77c-.4 1.6-2 5.4-1 7 .7 1.3 3.6 2.1 5 2.9l4.5 2.3 25.2 12.9 2.3 1.1c38 18.6 78.4 34.4 121 35.5l.4-3.7a342 342 0 0 1 9.9-60c.3-1 1.6-.6 1.7.3 3 23.1 2 46.4 1 69.7-1.8 41-4.3 82.2-6.5 123.3-1.2 20.6-2.6 41-3.9 61.7-1.3 20.5-1.7 41.6-4.7 62-.6 4.6-6 7-10 6.6-4.4-.5-7.9-4.5-8-9 0-11.9 1.5-24 2.4-35.8l2.5-33.8c3.1-41.1 6.8-82.2 10.2-123.3a4771 4771 0 0 1 3.8-43.7C76.4 979.8 34.2 963-6.1 943.5c-.6 13.2-2 26.5-3.4 39.6-3.8 36.8-7.1 73.6-9.6 110.5a2254.2 2254.2 0 0 0-4.2 92.7l-.2 7c0 4.4-.5 8.5-4.3 11.7-3.7 3.3-8.9 3.5-12.6 0-5-4.6-4.2-10.9-4-17.1a1675.6 1675.6 0 0 1 1.8-47.2 1321 1321 0 0 1 10.5-109.5l2-14c3.5-26 7.5-52.7 15.5-77.9-3.1-1.5-6.2-3-9.3-4.7-5.5-2.7-11.2-5.4-16.6-8.4-4.2-2.5-7.9-5.8-9-10.8-1.4-5.5.6-11.5 2-16.9v-.4a502 502 0 0 1 26.6-80 523.2 523.2 0 0 1 67.8-117 353.8 353.8 0 0 1 88.7-83.3 239 239 0 0 1 53.8-25.7 142.6 142.6 0 0 1 42.8-7.5Zm90.1-66c6-6.5 18.1.2 15.2 8.8a108.2 108.2 0 0 1-34.7 52A79.4 79.4 0 0 1 247 598l1.7 2.4a321.1 321.1 0 0 0 46.1 52.6c36 31.2 84.8 48 132 36 37.1-9.4 69.8-38.8 79.4-76.2-1.3.6-3 .9-4.8.5-7.7-1.7-15.3-9.8-20.3-15.6-5.3-6.3-9.5-13-12.6-20.7-5.6-14-7.4-32.1.3-45.7 1-1.7 3-.7 3.3 1l.3 2.5c1.5 12.7 3.3 25 9.3 36.6a76 76 0 0 0 18.2 23.1c2.6 2 5.8 3.6 8.1 6l.5.4c.6-5 4.1-7.3 7.6-7.2 3.3.2 7.3 1.6 8.8 2.3l.1.1a341 341 0 0 1 65.1 42 259 259 0 0 1 88.4 129c7.5 25.3 11.8 51.4 16.3 77.4l2.8 16c4.2 23.9 8.9 48.4 18.4 70.7 2.5 5.7.6 11.1-5.5 13.4A1493 1493 0 0 1 688 953c3.7 16 6 32.5 8.7 48.5 6 34.1 13.2 68 19.4 102 3.2 17.5 6.1 35 9.3 52.3l4.7 25.2 2.4 13.6.1.7c.5 2.4 1 4.9.4 7.3-.8 2.7-2.9 4.6-4.8 6.6-1.6 1.6-3.8 1.6-5.7.7l-.7-.3c-3.4-1.6-6-3.2-7.3-7-.7-2.5-1-5.2-1.5-7.7a3535.6 3535.6 0 0 1-7.8-43.6l-1.6-9.1c-5.2-31.4-10.2-62.9-12.8-94.5-1-14-2.3-28.1-3.5-42.2l-.9-10.5c-1.1-13.3-2.5-27-2.7-40.5l-4.5 1.6L657 964c-5.5 2-12.5 6-18.4 5.2-2.9-.3-5-1.2-6.8-2.9 2 28.8 4.8 57.4 8.5 86a1965.7 1965.7 0 0 0 22 135c.6 3.2 1.4 6.4 1.9 9.6.5 3.7-.5 5.9-2.5 9-1.7 2.4-5 3.7-7.8 2-3.6-2.3-5.5-4.3-6.5-8.4-1-3.7-1.6-7.6-2.3-11.4a1654.2 1654.2 0 0 1-11.4-65.2c-7.8-52-12.7-104.4-15.2-156.8a1388 1388 0 0 1-1.4-77.8c0-13.3.5-26.6 1.4-39.9 1-13.4 3-26.5 4.8-39.8 0-.5.7-.5.7 0 .8 14.9 2.1 29.8 2.8 44.7.6 14.3.9 28.5 1.4 42.8.6 18.7 1.5 37.5 2.7 56.2a9.6 9.6 0 0 1 8.5-3.1c4.7-1 9.7-3.4 14.1-5l16.8-5.5 26.4-8.7a679 679 0 0 1-18-80.8l-2-12.3c-4-24.2-8.5-48.5-15.8-72a229.8 229.8 0 0 0-34.8-68.2 370.2 370.2 0 0 0-52.7-55.3C557 627 539.7 614 523 600c.1.9.2 2 0 3-3.5 25.9-17 50-35.8 67.9-37.7 36-93.6 43.4-142 26.5-46.7-16.3-88-55-102.6-102.8-.3-.8.8-1 1.3-.5l2.4 3.3c0-.4.2-.9.7-1a129 129 0 0 0 46.6-29.2 100.2 100.2 0 0 0 21.3-33.3l.4-1c1.7-5 3.2-10.2 7-14.2Z" fill="#000000"/></g>

        <g id="head" transform="matrix(.99789 0 0 1 156 62)"><path id="skin" d="M391.825164,167.5733 C361.770031,126.2073 306.431607,114.3113 258.441922,124.3723 C164.622596,141.4743 74.9877332,213.0513 58.4104393,310.3953 C32.5477467,369.2863 49.063211,462.0453 124.27883,468.9753 C134.987305,469.5793 145.594061,467.1143 156.321484,468.4453 C221.792969,478.9033 299.159657,523.6713 357.114866,470.8763 C360.019856,472.9573 363.846306,473.9633 367.103326,472.7043 C391.771313,463.1713 392.930118,435.5943 395.033319,412.9253 C397.749829,383.6343 400.297804,354.3273 402.674251,325.0083 C403.522912,274.4463 423.564653,211.2633 391.825164,167.5733 L391.825164,167.5733 Z" fill="#694d3d"/><path d="M209.9304,62.1665 C249.4304,60.0665 322.2114,78.1585 356.6714,99.3695 C412.8184,133.9285 417.1704,202.8665 414.8804,214.7865 C414.0104,219.3355 411.2304,223.5455 406.8804,222.1465 C410.5704,253.4655 410.2804,271.3665 410.9004,302.8665 L411.326326,323.896833 C411.602622,337.9175 411.8404,351.9395 411.9004,365.9655 C413.3204,365.4365 414.7204,366.0855 415.2404,367.4465 C415.3704,367.7765 414.9204,367.9565 414.7004,367.7665 C412.2004,365.5855 413.9804,370.5555 414.8404,371.5665 C416.0304,372.9565 418.0104,374.2665 419.4004,375.4565 L423.1754,378.724875 L423.1754,378.724875 L426.9504,381.9865 C431.827067,386.194 436.544081,390.409903 441.093739,394.94231 L442.3304,396.1865 C450.6204,404.6065 461.0104,412.7555 466.1704,423.6465 C471.1004,434.0455 469.5804,445.8355 461.3904,454.1255 C458.4104,457.1355 454.9304,459.4365 451.1504,461.1765 C457.8804,472.2565 458.8604,486.9065 451.8404,498.3055 C444.8104,509.7465 431.2904,515.7365 418.2704,514.8165 C417.8704,516.4465 417.2504,518.0365 416.4304,519.5455 C411.267451,529.033282 400.998,530.264902 391.25954,529.757148 L390.8804,529.7365 C368.9604,528.4755 347.8704,522.9865 328.6704,512.3165 C322.0104,512.7665 316.0704,507.2955 314.7704,501.2955 C311.2704,501.1665 307.7504,500.8755 304.1604,500.4655 C293.5104,499.2365 282.5904,496.9465 273.2004,491.5365 C271.7604,490.7065 272.4304,488.5165 274.0304,488.4755 C285.4704,488.2155 296.9204,489.0065 308.3404,487.7665 C318.8204,486.6355 329.9904,483.7465 339.7604,479.8165 C357.3204,472.7365 372.3804,460.7265 380.6904,444.0855 C391.4504,422.5455 390.4704,396.6765 391.6404,373.2765 C392.9364,347.3745 394.5321,321.4968 396.23796,295.62153 L397.065754,283.218403 C398.722544,259.042706 400.093787,246.109581 404.2904,221.0165 C391.6404,222.1465 339.091585,203.233069 322.7504,172.2955 C291.735266,238.110268 134.599319,211.174996 127.6304,312.4965 C127.571303,313.355714 126.2104,313.1165 126.1604,312.2955 L126.03077,309.986352 C125.967993,308.845296 125.911048,307.722407 125.872437,306.608185 L125.8404,305.4965 L123.3704,305.5265 C123.3704,305.8355 122.9304,305.9465 122.8204,305.6165 C120.4904,299.0055 109.3904,301.1355 104.5604,302.7065 C100.2104,304.1255 96.1104,306.3055 92.4304,308.9965 C85.0404,314.3965 79.3104,321.6665 77.4104,330.7555 C73.8004,348.0165 84.7904,365.5965 99.3804,373.9265 C108.5804,379.1765 118.6604,382.5665 127.4804,388.5165 C135.2704,393.7665 142.5304,399.9165 148.8204,406.9065 C173.7404,434.5965 188.4004,476.5965 176.6104,513.1465 C175.7104,515.9365 173.3304,519.1255 170.1804,519.5765 C164.9704,520.3265 159.7604,519.5665 156.8404,514.6065 C155.7004,512.6665 155.1604,510.4565 155.2804,508.2765 C153.2604,515.2155 146.7104,522.0765 140.6704,524.6565 C132.4404,528.1765 123.1704,527.1255 115.9104,522.5855 L114.993191,523.264072 C103.186561,531.954382 89.9974886,539.874981 74.8704,538.2765 C63.9104,537.1165 53.1504,531.5365 47.0904,522.7365 C39.0304,527.2665 30.4204,530.8755 21.5404,533.3355 L20.5953472,533.595096 C8.37803019,536.921531 -7.20580253,539.971032 -18.6096,533.2155 C-29.5596,526.7255 -33.1996,512.5555 -30.6296,500.7255 C-30.3196,499.3165 -29.9296,497.9465 -29.4496,496.6165 C-37.6896,497.0555 -45.9196,496.2665 -53.7396,493.8465 C-61.7296,491.3755 -69.3496,486.6255 -73.1796,478.9265 C-77.4996,470.2155 -76.3496,460.3165 -73.1296,451.4465 C-67.9796,437.2155 -59.6996,424.5555 -49.3896,413.5265 C-39.4750054,402.911365 -27.5155898,393.90558 -15.086418,386.398613 L-12.9910836,385.144734 C-1.80264379,378.471607 11.6900923,370.651838 24.9104,371.1665 C24.8704,370.9965 24.8404,370.8355 24.8204,370.6665 C22.8204,355.9365 23.0504,340.9165 22.5804,326.0665 C22.1504,312.4065 21.6604,298.7465 21.3404,285.0765 C20.8204,261.8355 20.9904,238.4965 24.0204,215.4165 C26.7104,194.9365 31.5504,174.9655 40.3804,156.2155 C49.6504,136.5165 63.6104,119.7065 80.8504,106.4865 C117.0304,78.7365 164.8204,64.5665 209.9304,62.1665 Z M87.0403,335.1361 C90.9803,327.7061 99.9503,325.3661 107.8203,326.7061 C118.8503,328.5861 126.3503,338.2271 132.7903,346.5171 C139.5503,355.2061 125.4503,363.3961 121.8203,354.9771 L120.960225,352.988001 C118.047077,346.311141 114.605755,339.270645 108.6603,334.9161 C102.3403,330.2961 93.4203,329.6161 87.8403,335.7561 C87.4403,336.2061 86.7703,335.6261 87.0403,335.1361 Z" id="ðŸ–-Ink" fill="#000000"/></g>

        <g id="face" transform="translate(315 248)"><path d="M190.580838,219.822602 C187.280979,224.137269 181.305753,227.441635 174.614228,229.021959 C168.237661,230.527902 161.190418,230.466453 155.108614,228.149072 L154.586539,227.941176 C150.039387,226.052673 145.674617,222.239371 144.017177,218.259853 C143.358193,216.67763 143.135243,215.069584 143.586238,213.568908 C143.991922,212.219001 144.943012,210.976582 146.527174,209.909206 C147.024517,209.574134 147.691645,209.549745 148.327216,209.661813 C149.115834,209.800867 149.893132,210.16984 150.362097,210.668116 C152.964096,213.434928 156.73898,216.132349 161.207084,216.086453 C164.654507,216.051103 167.469871,214.689827 170.200003,213.151437 L172.118441,212.052717 C173.969461,210.996565 175.846656,210.004165 177.970548,209.550964 C181.772426,208.739097 186.383724,210.222313 189.193828,212.669867 C190.419132,213.737086 191.309321,214.991561 191.551236,216.342614 C191.754414,217.477328 191.469083,218.661462 190.580838,219.822602 Z M170.814304,144.367155 C178.365682,148.9572 189.871664,159.660291 181.748119,171.039573 C172.185929,181.073062 158.418535,169.568982 151.634201,164.366134 C145.343449,160.333898 138.275437,170.704507 144.112,175.412823 C193.135736,211.708059 213.030606,145.567387 174.633685,138.970386 C170.406047,138.243425 168.835891,142.947174 170.814304,144.367155 Z M85.623,73.8212 L87.7924418,73.2263619 L90.0045001,72.6293513 L91.5003254,72.2338515 C101.775159,69.5444674 113.108082,67.1776694 123.297,68.3332 C127.013,68.7552 130.029,70.8462 130.555,74.7392 C130.998,78.0242 128.875,82.2622 125.262,82.8462 C113.295,84.7822 101.044,84.1542 89.022,86.1502 C83.035,87.1432 77.094,88.3762 71.13,89.4872 C66.595,90.3332 61.909,90.6302 57.335,91.3142 L58.386,91.4602 C58.754,91.5102 58.662,92.1292 58.299,92.1042 C56.791375,91.9537 55.2814531,91.9302937 53.7692344,92.035991 L53.121,92.0892 C52.134,92.2282 51.552,91.0502 52.432,90.4522 C58.005,86.6712 62.734,82.5732 68.974,79.7862 C74.371,77.3762 79.926,75.3892 85.623,73.8212 Z M179.1621,68.0224 C187.0621,60.0364 203.8621,63.1054 213.2601,66.7584 C218.6241,68.8444 223.7241,71.4814 227.9721,75.4264 L228.386213,75.8144925 L229.024136,76.4279569 C231.891581,79.2352765 235.089211,83.0982889 234.6341,87.1454 C234.5651,87.7624 234.2291,88.4674 233.5321,88.5914 C229.7681,89.2584 226.0711,87.2724 222.5951,86.0774 L220.293037,85.2874616 C216.836083,84.1099289 213.3571,82.9848545 209.7931,82.1724 C205.3611,81.1644 200.8401,80.5814 196.2901,80.6394 C191.6911,80.6994 186.7511,81.9974 182.3701,80.1714 C177.4841,78.1364 174.9511,72.2804 179.1621,68.0224 Z M101.116056,132.429995 C99.1003582,134.488343 96.4383728,135.649706 93.0314637,134.958836 C90.3692151,134.419447 85.3003252,131.742536 81.251062,127.620059 C78.4808238,124.799734 76.1645189,121.275596 75.5348483,117.193133 C75.3886144,116.245027 74.8854838,115.637224 74.2248528,115.254453 C73.7031014,114.952149 73.0151982,114.800275 72.2659115,114.876138 C71.6297705,114.940545 70.9542643,115.170885 70.4322827,115.476318 C69.4393366,116.057332 69.0332625,116.882185 68.9507107,117.498123 C68.1541083,123.441745 70.4499798,129.339186 74.0286493,134.311705 C78.8582802,141.02242 85.9507822,145.940005 90.1194807,147.091006 C97.2532735,149.061815 104.770166,147.49291 110.31224,142.527816 C114.744111,138.55788 117.01573,133.385744 119.123418,128.067181 L119.529847,127.036237 C120.003893,125.829408 120.474351,124.631454 120.972784,123.446204 C121.971768,121.071164 121.651825,119.018235 120.683197,117.41812 C119.610133,115.645482 117.629461,114.397695 115.424424,114.014451 C113.386375,113.660232 111.205318,114.047672 109.483593,115.292567 C108.029146,116.344207 106.856231,118.01047 106.439508,120.474443 C105.761825,124.480999 104.189738,129.077997 101.417669,132.111101 L101.116056,132.429995 Z M223.440775,109.240446 C221.778563,108.374347 220.478145,108.113213 218.634261,108.665656 C217.614596,108.971929 216.606823,109.558916 215.817824,110.347916 C215.035882,111.129857 214.471712,112.102263 214.252419,113.181012 C213.713072,115.843338 212.256412,118.335447 210.18061,119.960058 C208.406384,121.348643 206.16691,122.084626 203.68291,121.669413 C201.002485,121.221959 198.448729,119.502882 196.689869,117.476128 C196.199984,116.910971 195.798335,116.281896 195.409968,115.645177 L195.177941,115.262679 C194.311333,113.831986 193.469024,112.502121 192.273843,111.451439 C191.82079,111.051686 191.138107,110.774816 190.476901,110.774816 C190.208169,110.774816 189.935444,110.818544 189.675563,110.899539 C187.007679,113.577235 186.494623,115.608542 186.580635,117.62333 C186.670832,119.736131 187.503809,121.875322 188.849905,123.871251 C192.007516,128.553207 198.002761,132.391976 202.048399,133.261475 C207.588873,134.452107 213.091225,133.022832 217.502758,129.928348 C222.041966,126.744306 225.405508,121.80078 226.454161,116.229671 C226.706431,114.887916 226.599231,113.439644 226.088238,112.183929 C225.588922,110.956906 224.71878,109.905984 223.440775,109.240446 Z" id="ðŸ–-Ink" fill="#000000"/></g>

        <g id="facial-hair" transform="translate(279 400)"><path d="M229.9448,33.9998 C241.6588,34.8308 252.7388,42.0988 262.8158,47.7168 C272.51397,53.5108426 279.691907,62.0952464 285.425881,71.6662255 L285.7978,72.2918 C286.1341,72.79055 285.534508,73.3515725 285.041591,73.1612186 L284.9648,73.1248 C275.4478,68.3498 265.4058,64.4798 256.0618,59.2708 C246.9378,53.6298 235.7338,51.7018 226.5408,46.5708 C221.2868,42.6758 222.8638,34.3008 229.9448,33.9998 Z M199.4764,39.6831 C199.9034,42.3551 198.8244,46.5961 195.3164,47.8351 C189.153275,50.0091625 183.540345,51.1812719 177.34959,52.8774291 L169.32497,55.1248967 C153.910423,59.4668903 138.264477,64.1279974 124.6174,70.9681 L124.1894,70.7801 C114.2764,64.5781 169.0404,38.7041 187.9494,34.5821 C191.4234,33.8241 198.8314,35.6511 199.4764,39.6831 Z" id="ðŸ–-Ink" fill="#000000"/></g>

        <g id="eyewear" transform="translate(203 303)"><path d="M389.0901,63.2824 C379.5561,127.7714 313.0021,134.9034 301.1771,70.8814 C303.0751,70.0504 304.4401,68.4144 304.1551,65.2384 C304.0881,51.2864 308.4191,36.5404 321.0051,28.7814 C334.0111,20.7754 349.2321,19.9814 364.2831,20.1834 C393.0051,19.4994 392.4011,43.5064 389.0901,63.2824 M290.7581,35.2354 C281.7441,34.8554 270.3401,35.1734 262.2651,40.6654 C260.0451,34.6874 254.2771,28.3044 248.4491,24.8914 C270.1111,25.5254 292.4091,23.3934 314.2331,21.7384 C309.0091,25.2994 304.1491,30.6494 300.9901,36.8344 C298.0591,35.2714 293.8611,35.4174 290.7581,35.2354 M251.0261,70.1194 C226.0311,156.1554 163.6401,118.6554 156.8381,107.6294 C144.5691,89.3834 142.2611,45.0294 152.9481,33.1704 C168.2461,22.4464 189.9031,25.2064 207.9751,24.9434 C241.1761,25.3914 264.7561,35.3234 251.0261,70.1194 M418.6031,30.5484 C411.8121,29.6604 404.5551,29.4814 398.2411,32.4714 C396.2971,24.2084 390.1941,17.3004 383.3031,14.2604 C382.4691,13.2144 382.5941,12.6524 379.7451,12.8094 C362.2501,7.5514 342.6731,10.3334 325.8611,15.7254 C299.3091,17.9614 271.4521,19.7244 244.6771,22.8054 C219.5951,11.5414 143.9021,9.8904 139.1981,37.6534 C133.2811,36.7684 123.2041,32.1114 118.2321,38.4284 C81.7611,32.2454 44.0761,40.8384 7.4471,44.6654 C-1.7729,46.3634 -6.5219,64.6614 3.9441,64.4114 C9.8281,62.8144 3.7631,53.0174 11.6861,52.2804 C47.0271,48.4204 81.5951,42.9444 117.2981,42.3034 C116.0561,48.4684 140.9121,48.8694 141.2791,45.2694 C141.3321,45.2964 141.3881,45.3144 141.4421,45.3384 C135.3001,68.2284 140.8441,101.1704 151.9441,115.3644 C167.4961,133.9504 206.5411,139.2824 223.8541,127.3244 C246.1871,116.2874 269.4201,60.8854 262.8941,42.4794 C274.7381,38.7254 286.4471,39.8524 298.7391,41.7644 C295.9251,49.7134 291.0671,69.2814 298.0561,70.9784 C296.7731,109.8284 332.1301,134.0694 364.7241,118.1324 C392.9351,104.8894 402.8011,62.9714 399.3491,37.5284 C402.8611,44.3144 432.3491,36.9264 418.6031,30.5484" id="ðŸ–-Ink" fill="#000000"/></g>
    </g>
</svg>