<svg xmlns="http://www.w3.org/2000/svg" viewBox="0 0 704 704" fill="none" width="512" height="512">
    <desc>"Open Peeps" by "Pablo Stanley", licensed under "CC0 1.0". / Remix of the original.</desc>
    <mask id="viewbox"><rect width="704" height="704" rx="0" ry="0" x="0" y="0" fill="#ffffff" /></mask>
    <g mask="url(#viewbox)">
        <rect id="background" fill="#ffd5dc" width="704" height="704" x="0" y="0" />

        <g id="body"><path id="skin" d="M705.3 1074a2351.1 2351.1 0 0 1-15.6-101c-1-7.7-2.5-16.4 2.7-22 7.3-8 14-14.8 14.8-26.2.8-10.7-2.8-22.4-5-32.8a809.4 809.4 0 0 0-17.3-64.7c-6.6-21.7-13.9-43.2-21.3-64.6-6.9-20-13.5-40.3-22.5-59.5-17-36.5-46-63.5-81.6-81.6-9-4.5-27-20.5-36.3-24-8.5-3.4-8.5 6.3-16.9 2.6-6.7-2.9-13-6.7-16.7-13.2-4-7-14.3-16.9-15.9-25-3.3-17.4.3-32.2-12-45.3a90 90 0 0 0-41.1-23.8c-33.7-9.3-78.5-2.8-98.8 28.5-9.7 14.9-13 33-26.2 45.1-11.4 10.7-8.8 18-23.6 23.4-.9.3-23.6-4.5-24.4-4.2-16.2-3.5-31.7 6.2-46.5 11.8a325.4 325.4 0 0 0-63 32.3 399.2 399.2 0 0 0-102.3 98.5 482.5 482.5 0 0 0-76.4 161c-1.7 6.4-3.5 13-1.5 19.4 1.7 5.3 5.4 9.2 9.8 12.4 6 4.3 18 7 17.7 15.7-.1 6.6-2.4 13.5-3.5 20-1.3 7.7-2.3 15.5-3.4 23.2-4.8 35.4-8.6 71-10.3 106.6a920 920 0 0 0-.5 106c.1 2.3.8 4.5 2 6.2-1 .4-1.2 2.4.1 2.7l2.7.5a12 12 0 0 0 7 2.4l5.5.2c19.3 4 38.6 7.9 58.1 10.8 23.8 3.5 47.6 6.3 71.5 8.7 49.2 4.8 98 3.2 147.1.6a1877 1877 0 0 1 147.4-2c49.2 1.4 98.4 3.5 147.6 4.4 55 1 110-.5 164.8-5 7.5-.5 12.2-6.5 10.7-14-8.9-44.7-19-89.1-27-134Z" fill="#edb98a"/><path id="shirt" d="m201 597.5 1.2-.4c14.5-5.7 29.6-14.8 45.4-11.4.5-.2 10.8 1.9 17.9 3.2l-6.7 7L247 598c40.7 67.1 88.8 100.7 144.3 100.7 55.5 0 97.7-33.6 126.4-100.7l4-1c.4 0 1 .2 1.5.4 9.3 3.6 27.4 19.6 36.3 24.1 35.6 18 64.5 45 81.6 81.6 8.7 18.6 15.2 38 21.8 57.5l.7 2c7.4 21.4 14.7 43 21.3 64.6 6.3 20.4 12 41 16.6 61.8l.7 2.9c2.2 10.4 5.8 22 5 32.8a29 29 0 0 1-3 10.7l-80.4 29 38.4 261.3c-35.1 1.5-70.3 2-105.5 1.3-49.2-.9-98.4-3-147.6-4.3-47.7-1.2-95.3-.7-143 1.7l-12 .6a946.3 946.3 0 0 1-139.5-1l-3.1-.3v-38.3l16.3-212.9-83-15.6-81.3-39.5a21.7 21.7 0 0 1-5.6-8.8c-1.9-6-.5-12 1-18l.5-1.3a492.8 492.8 0 0 1 76.4-161A399.3 399.3 0 0 1 138 629.7c19.8-13 40.9-23.9 63-32.3Z" fill="#fdea6b"/><path d="M232.2 584.6c5.1-.3 10.3.6 15.4 1 .4.1.6.8 0 .9-9 1.9-18 4.5-26.9 7.1l-3.8 1.2c-10 3-19.8 6-29.6 10-19.4 7.9-37.8 18.5-54.8 30.8C67.2 682.8 20 754.3-9.9 828.3a526 526 0 0 0-24.3 77c-.4 1.6-2 5.4-1 7 .7 1.3 3.6 2.1 5 2.9l4.5 2.3 25.2 12.9 2.3 1.1c38 18.6 78.4 34.4 121 35.5l.4-3.7a342 342 0 0 1 9.9-60c.3-1 1.6-.6 1.7.3 3 23.1 2 46.4 1 69.7-1.8 41-4.3 82.2-6.5 123.3-1.2 20.6-2.6 41-3.9 61.7-1.3 20.5-1.7 41.6-4.7 62-.6 4.6-6 7-10 6.6-4.4-.5-7.9-4.5-8-9 0-11.9 1.5-24 2.4-35.8l2.5-33.8c3.1-41.1 6.8-82.2 10.2-123.3a4771 4771 0 0 1 3.8-43.7C76.4 979.8 34.2 963-6.1 943.5c-.6 13.2-2 26.5-3.4 39.6-3.8 36.8-7.1 73.6-9.6 110.5a2254.2 2254.2 0 0 0-4.2 92.7l-.2 7c0 4.4-.5 8.5-4.3 11.7-3.7 3.3-8.9 3.5-12.6 0-5-4.6-4.2-10.9-4-17.1a1675.6 1675.6 0 0 1 1.8-47.2 1321 1321 0 0 1 10.5-109.5l2-14c3.5-26 7.5-52.7 15.5-77.9-3.1-1.5-6.2-3-9.3-4.7-5.5-2.7-11.2-5.4-16.6-8.4-4.2-2.5-7.9-5.8-9-10.8-1.4-5.5.6-11.5 2-16.9v-.4a502 502 0 0 1 26.6-80 523.2 523.2 0 0 1 67.8-117 353.8 353.8 0 0 1 88.7-83.3 239 239 0 0 1 53.8-25.7 142.6 142.6 0 0 1 42.8-7.5Zm90.1-66c6-6.5 18.1.2 15.2 8.8a108.2 108.2 0 0 1-34.7 52A79.4 79.4 0 0 1 247 598l1.7 2.4a321.1 321.1 0 0 0 46.1 52.6c36 31.2 84.8 48 132 36 37.1-9.4 69.8-38.8 79.4-76.2-1.3.6-3 .9-4.8.5-7.7-1.7-15.3-9.8-20.3-15.6-5.3-6.3-9.5-13-12.6-20.7-5.6-14-7.4-32.1.3-45.7 1-1.7 3-.7 3.3 1l.3 2.5c1.5 12.7 3.3 25 9.3 36.6a76 76 0 0 0 18.2 23.1c2.6 2 5.8 3.6 8.1 6l.5.4c.6-5 4.1-7.3 7.6-7.2 3.3.2 7.3 1.6 8.8 2.3l.1.1a341 341 0 0 1 65.1 42 259 259 0 0 1 88.4 129c7.5 25.3 11.8 51.4 16.3 77.4l2.8 16c4.2 23.9 8.9 48.4 18.4 70.7 2.5 5.7.6 11.1-5.5 13.4A1493 1493 0 0 1 688 953c3.7 16 6 32.5 8.7 48.5 6 34.1 13.2 68 19.4 102 3.2 17.5 6.1 35 9.3 52.3l4.7 25.2 2.4 13.6.1.7c.5 2.4 1 4.9.4 7.3-.8 2.7-2.9 4.6-4.8 6.6-1.6 1.6-3.8 1.6-5.7.7l-.7-.3c-3.4-1.6-6-3.2-7.3-7-.7-2.5-1-5.2-1.5-7.7a3535.6 3535.6 0 0 1-7.8-43.6l-1.6-9.1c-5.2-31.4-10.2-62.9-12.8-94.5-1-14-2.3-28.1-3.5-42.2l-.9-10.5c-1.1-13.3-2.5-27-2.7-40.5l-4.5 1.6L657 964c-5.5 2-12.5 6-18.4 5.2-2.9-.3-5-1.2-6.8-2.9 2 28.8 4.8 57.4 8.5 86a1965.7 1965.7 0 0 0 22 135c.6 3.2 1.4 6.4 1.9 9.6.5 3.7-.5 5.9-2.5 9-1.7 2.4-5 3.7-7.8 2-3.6-2.3-5.5-4.3-6.5-8.4-1-3.7-1.6-7.6-2.3-11.4a1654.2 1654.2 0 0 1-11.4-65.2c-7.8-52-12.7-104.4-15.2-156.8a1388 1388 0 0 1-1.4-77.8c0-13.3.5-26.6 1.4-39.9 1-13.4 3-26.5 4.8-39.8 0-.5.7-.5.7 0 .8 14.9 2.1 29.8 2.8 44.7.6 14.3.9 28.5 1.4 42.8.6 18.7 1.5 37.5 2.7 56.2a9.6 9.6 0 0 1 8.5-3.1c4.7-1 9.7-3.4 14.1-5l16.8-5.5 26.4-8.7a679 679 0 0 1-18-80.8l-2-12.3c-4-24.2-8.5-48.5-15.8-72a229.8 229.8 0 0 0-34.8-68.2 370.2 370.2 0 0 0-52.7-55.3C557 627 539.7 614 523 600c.1.9.2 2 0 3-3.5 25.9-17 50-35.8 67.9-37.7 36-93.6 43.4-142 26.5-46.7-16.3-88-55-102.6-102.8-.3-.8.8-1 1.3-.5l2.4 3.3c0-.4.2-.9.7-1a129 129 0 0 0 46.6-29.2 100.2 100.2 0 0 0 21.3-33.3l.4-1c1.7-5 3.2-10.2 7-14.2Z" fill="#000000"/></g>

        <g id="head" transform="matrix(.99789 0 0 1 156 62)"><path id="skin" d="M195.4 82.7c151.6-7.5 220 99.2 224.4 147 3 33-16.5 71.1-16.5 100.7 0 15 18.5 47.5 9.9 69.5-19.2 49-59.7 103.3-111.4 103.3-51.6 0-118.9 14.3-176-67.5-5.3-7.6-73-51.2-79.6-92.6C29.8 239.9 87.2 88 195.4 82.7Z" fill="#edb98a"/><path d="M211 8c-8.2-.4-17.3 2-22.8 8.3a51 51 0 0 0-48.2 7c-13-4.9-28.1-.6-36.2 10.6-16-4-33.7 6-38.9 21.5-10.5 1.1-19.6 12.1-16.4 22.3-12.8-7-28 4.6-29.5 18.2a32.2 32.2 0 0 0-14.2 13.4A19 19 0 0 0 3.7 123c-6.6 4.4-12.6 10-14 18A19 19 0 0 0-7.8 154a34 34 0 0 0-11.6 37.2 31 31 0 0 0-9.5 20c-.1 5.3 1.8 10.9 5.4 14.9a47 47 0 0 0-9.4 23.7c-.3 7 1.9 13.7 6.2 18.9-6.3 10.9-4 25.4 4.5 34.6a31 31 0 0 0 7.2 33.5 20 20 0 0 0-.6 7.1c-.6 2.2-.8 4.5-.7 6.7.5 8 5.5 13.6 12 17l.4.5c-1.4 5.3-1 11 1.9 16.4 3 5.8 8.8 10 15 11.7a23.9 23.9 0 0 0 19.7 20.5c.7 5.2 3 10.3 7 14.2a23.7 23.7 0 0 0 16.3 6.5c1.8 4.8 5 9 9.7 12.2 7.2 5 16.5 5.5 24.4 2.5l1 .2.3.1a35.3 35.3 0 0 0 32.7 2.3c4.4 2.8 9.7 3.9 14.6 2.5l1.3 3c1.2 3.2 2.2 6.5 3.2 9.7l2.3 7.3c2.6 7.5 5.5 13.2 14 14.3 3 .4 6.2-2 7.6-4.4 3.2-5.5 1.1-10.7-1-16l-.9-1.9-.3-1-1.5-3.9c-1.6-4.3-3.2-8.6-5-12.8A105.2 105.2 0 0 0 141 426c-5.1-6-11-11.3-16.7-16.7l-4.2-3.9a229.9 229.9 0 0 1-18.4-19.7c4-.7 6.6-2.4 8.1-6.8.5-1.5 0-3-1-4-3.1-3.6-7.2-3.5-11.4-3.4-2 0-4 0-6-.3-5.7-1-11.3-3.4-15.6-7.2A34.8 34.8 0 0 1 65 332.8c1.3-10.6 5.8-19.4 15.5-24.4a47 47 0 0 1 15.7-4.5c1.2 1.6 3 2.6 5.8 2.6h.5c7.7 3.2 17.5 3.6 23.7-2 .6-.5 1.1-1 1.5-1.6l1.5-.8c9.8-5.6 15.7-15.9 16.2-26.8A33.3 33.3 0 0 0 156 258c1-4.8.5-9.5-1.4-13.4a32 32 0 0 0 3.3-11.7 22 22 0 0 0-.7-8 34 34 0 0 0 9.9-10.5c12 4.3 25.7 3.3 36.9-3 6 4.1 14 5.7 21.3 4.8 5-.6 9.7-2.4 14-5a32.6 32.6 0 0 0 28.8-1.6l.4-.3c2.2.2 4.4 0 6.5-.4 3 2.3 6.6 4 10 4.8a28 28 0 0 0 22.3-4.8 35 35 0 0 0 35.6-.7 30.6 30.6 0 0 0 31-.2c4.3 4 9.7 6.8 15.6 8l-.5 3.3c-1.3 9.2-2.2 18.4-2.5 27.7-.4 18.8.8 37.6 2.8 56.3l3 22.5c1.2 8.5 2.4 17 3.3 25.4l-.1 2.2a144 144 0 0 1-2.8 53.4c-12.2 45.7-52.8 83.7-101.2 81a197.8 197.8 0 0 1-13-1.1l-1.8-.3h-.4l-.7-.1c-6.5-1-13-2-19.5-3.6-6.2-1.4-12.2-3.3-18.3-5.4l-.4-.2a21.4 21.4 0 0 0-11.2-1h-.6l-.7.1h-2.5c-3.4.1-5.4 3.5-4.8 6.7a19.9 19.9 0 0 0 8.8 13.7c4.5 2.8 10 4.4 15.2 5.8l2 .5c12.6 3.4 25.5 5.3 38.4 6.6 10.3 1 20.2 1.4 30.4-.1 14.2-2.1 28.2-7 40.6-14.4a131.2 131.2 0 0 0 63-98.3c1 0 2-.1 3-.4a25.2 25.2 0 0 0 17.5-28.1 29.2 29.2 0 0 0 8.1-20.5c3.3-1.8 6.1-4.5 8.2-8.2 3-5 3.7-10.7 2.8-16a30 30 0 0 0 9-25 26.2 26.2 0 0 0 8.1-16.8c.5-5.8-1.2-11.5-4.4-16 1.8-4.4 1.9-9.2.7-13.7 2.7-7 3.2-15-.3-22-1-2-2.2-3.6-3.7-4.9l.5-2.5.2-.6c1-5.4.3-9.7-1.7-15-1.6-4-1.2-7.9-.9-12 .2-1.6.3-3.3.3-5 0-6.6-2.8-13.8-8.3-17a25.2 25.2 0 0 0-8.9-24c-1-9.2-5-18-13-22 .8-8 .1-16-4-23.1A26.9 26.9 0 0 0 413 91.3a36.4 36.4 0 0 0-34.5-31A29.6 29.6 0 0 0 347 41a43.2 43.2 0 0 0-45.7-15.5c-4.9-6-12.4-9.4-20-10.6-7-1.1-13.7-.3-20.5.6-5.3.7-10.6 1.3-16 1-6-.2-11.5-2.2-17-4.2s-11-3.9-16.9-4.2Z" fill="#000"/><path d="M110 337.2c-5.2-7.5-12.7-15.6-22.6-15-6.3.3-13.6 4.8-13.3 11.7 0 .6.7.9 1 .5 2.8-3 6.6-4.3 10.4-3.6-4 1.7-7.6 5.6-6 10 1 2.8 4 5.2 7.1 4a7.7 7.7 0 0 0 5-4.9l.3-1 .6-1v-.1l.4-.5 1-1.5c2 2.4 3.4 5.3 4.7 8 3.7 7.7 16.4.3 11.4-6.6Z" fill="#000"/></g>

        <g id="face" transform="translate(315 248)"><path d="M195.648193,205.742798 C187.261657,201.289422 177.421377,202.042614 169.00004,206.020824 C158.706314,210.88389 150.747499,218.869283 143.697486,227.649864 C140.990543,231.020761 138.458006,234.536024 135.928336,238.048092 C134.887194,239.493561 133.846489,240.938447 132.79402,242.372032 C132.588772,242.640738 132.363649,242.930014 132.12515,243.236505 C130.439996,245.40207 128.13963,248.397076 127.259175,251.115005 C126.905739,252.206047 126.774119,253.259272 126.932764,254.218574 C127.009571,254.683016 127.151913,255.128132 127.369961,255.548545 C126.026468,255.89614 125.129125,255.565059 124.508835,254.897651 C123.526737,253.840951 123.182462,252.253688 123.168043,250.431638 C123.118384,243.905641 127.421312,234.392264 129.178267,230.471862 C129.359195,230.068147 129.514259,229.722096 129.636514,229.44246 C135.990874,214.902707 146.156691,200.739536 160.288147,192.902543 C173.980473,185.309944 190.185593,183.874719 204.351165,191.053 C220.000474,198.983539 224.269956,214.687223 226.043182,230.826214 C226.314815,233.298502 225.196205,235.57888 223.475851,237.299234 C221.534025,239.24106 218.805833,240.498 216.2562,240.498 C213.608639,240.498 211.184446,239.377079 209.411751,237.604384 C207.624435,235.817068 206.49522,233.364 206.47514,230.706002 L206.458107,229.158195 C206.376243,223.769253 205.998264,218.709456 204.04209,214.418522 C202.469585,210.969178 199.895477,207.998577 195.648193,205.742798 Z M174.814304,133.367155 C182.365682,137.9572 193.871664,148.660291 185.748119,160.039573 C176.185929,170.073062 162.418535,158.568982 155.634201,153.366134 C149.343449,149.333898 142.275437,159.704507 148.112,164.412823 C197.135736,200.708059 217.030606,134.567387 178.633685,127.970386 C174.406047,127.243425 172.835891,131.947174 174.814304,133.367155 Z M111.249842,134.873685 C109.21559,135.869593 106.960397,136.273981 104.748339,135.812416 C102.766863,135.398964 100.83098,134.28903 99.1167073,132.332702 C96.7628125,129.643932 95.0538784,125.825893 96.1958438,122.182731 L96.522735,121.245789 C96.9093992,120.156024 97.4302579,119.134445 98.0641829,118.208027 C98.4710172,116.223311 98.5529701,114.923595 98.6298744,113.689429 C98.6495261,113.374056 98.6688905,113.063106 98.6908225,112.752749 C98.8127143,111.024361 99.066476,109.214651 99.6465705,107.55057 C99.7557985,107.237235 99.8772989,106.927048 100.008665,106.620486 C99.683933,106.506758 99.3592902,106.392662 99.0347035,106.278263 C96.7917559,105.487748 94.5557732,104.68431 92.3319381,103.844018 C86.0072865,101.452869 79.7532165,98.7573797 73.699327,95.7413805 C70.7082667,94.2508057 67.7926562,92.5737833 64.9139627,90.8770546 C63.5392598,89.9628132 60.5237088,87.8342564 59.1713627,86.6881642 L58.1451201,85.8184397 L57.6080011,87.0517676 C57.0306197,87.6334134 56.564872,87.6786301 56.1732669,87.5480196 C55.7523002,87.4076162 55.440413,87.0757766 55.2442996,86.6771596 C55.0082325,86.1973332 54.9345795,85.6131759 55.0591196,85.0493532 C55.1712928,84.5415179 55.4484252,84.0510599 55.9164995,83.6649246 C57.7001254,82.194146 60.2160755,82.8325585 62.3064786,83.2425326 C62.604845,83.3010488 62.8969781,83.3583123 63.1805622,83.4101146 C66.4312338,84.0040556 69.6742461,84.7114779 72.9040661,85.4416519 L76.7918803,86.327351 C78.2754916,86.6658136 79.7585845,87.0057018 81.2414495,87.3455377 C98.0882943,91.2064165 114.906174,95.0578885 132.122274,96.7503413 L133.936387,96.9204394 C137.005394,97.1943986 139.736127,98.4974603 141.535006,100.572739 C143.191844,102.48415 144.038528,105.048285 143.636316,108.02142 C143.242927,110.931137 141.606085,113.353809 139.353379,114.85422 C137.112221,116.346939 134.260478,116.926782 131.414339,116.162533 C126.070424,114.72933 120.738301,113.221432 115.431497,111.622283 L116.672752,114.571059 C117.740487,117.140109 118.725205,119.802457 118.841202,122.519863 C118.949725,125.073251 118.20064,127.544857 116.90419,129.659453 C115.524303,131.910141 113.523131,133.760751 111.249842,134.873685 Z M231.352025,73.4294893 C230.034079,75.2283938 228.519368,76.7648694 227.010036,78.304574 C223.75001,81.6302018 220.49134,84.9556201 217.000272,88.0490599 C215.73473,89.1711545 214.45535,90.2767508 213.175748,91.3825744 C212.70081,91.7930133 212.225838,92.203481 211.751524,92.614824 L211.004763,93.2624417 L211.643673,94.0166662 C211.815135,94.2190758 211.976961,94.4281686 212.112304,94.6495634 C214.030029,97.7892009 215.095107,101.196799 216.173318,104.614455 C216.912014,106.955936 217.654492,109.303239 218.650635,111.583012 L218.972312,112.29729 C220.269118,115.087375 220.618068,118.000041 219.928905,120.628455 C219.279746,123.104299 217.705376,125.314212 215.178913,126.923219 C214.543962,127.328244 213.460483,127.798237 212.726121,127.961035 C209.831292,128.603237 206.899979,128.155475 204.504242,126.795324 C202.213647,125.494866 200.4178,123.357954 199.621703,120.555259 C198.446409,116.414356 197.690559,112.20737 197.730652,108.107078 C197.737443,107.412601 197.767122,106.71551 197.817624,106.016716 C197.360448,106.481285 196.834987,106.88982 196.238805,107.226646 C194.383563,108.274805 192.286969,108.377994 190.315694,107.842886 C188.085419,107.237471 186.007568,105.820358 184.568759,103.968081 C183.301768,102.336995 182.526878,100.361258 182.627006,98.2959198 C182.714404,96.4931468 183.475101,94.6366233 185.102274,92.8878161 L186.636822,91.3243557 C187.779102,90.1656977 189.351381,89.2743516 191.026519,88.823827 C192.56375,88.4103922 194.193717,88.3660516 195.655884,88.8647619 C197.627626,88.3254321 198.906165,87.6894097 200.093298,87.0978865 C200.938605,86.6766877 201.735754,86.2788833 202.446542,85.9693195 C205.909514,84.4631572 209.359467,82.9279547 212.797752,81.365553 C215.778829,80.0095323 218.807301,78.7577584 221.835722,77.5057861 C225.026091,76.1868631 228.216312,74.8675388 231.352025,73.4294893 Z" id="ðŸ–-Ink" fill="#000000"/></g>

        <g id="facial-hair" transform="translate(279 400)"><path d="M248.1317,111.7235 C244.6417,110.5815 241.2137,109.2525 237.7697,107.9715 C220.1607,99.1265 198.8897,97.5225 180.4227,104.9715 C171.3587,108.6275 162.9067,115.1965 153.8117,119.5015 C151.6517,120.3075 149.4737,121.0395 147.2717,121.6535 C145.9217,121.1835 144.5717,120.6835 143.2317,120.1835 C133.5847,116.5475 124.5107,112.0625 115.7007,107.1285 C114.7607,105.8055 113.7857,104.5195 112.7377,103.2845 C119.1127,102.3795 125.3547,100.8755 131.0017,99.3235 C148.3417,94.5735 164.6817,86.8335 181.9617,81.8735 C198.0517,77.2435 215.5117,74.7135 231.6717,80.4635 C239.3417,83.1935 246.0917,87.9735 253.5517,91.1935 C257.4117,92.8535 262.0417,94.4835 266.5517,94.7235 C263.6417,101.6935 259.9617,108.2035 254.9317,113.6235 C252.6317,113.1335 250.3517,112.4435 248.1317,111.7235 Z M285.6527,57.1315 C284.1087,58.4145 277.7367,62.5545 275.6697,65.0225 C275.1357,64.8195 274.6047,64.6115 274.0767,64.3975 C273.1677,63.2815 271.8287,62.7915 270.4637,62.8215 C260.9347,58.3895 252.4517,52.1265 244.8817,44.2735 C239.5017,38.7035 233.9917,32.8735 226.8017,29.6435 C218.3317,25.8235 210.0017,27.5835 201.1017,28.1635 C191.6317,28.7935 182.2817,26.1035 172.8217,27.3935 C165.9017,28.3435 159.4217,31.2735 153.8217,35.4035 C142.3917,43.8335 134.5117,55.6735 124.8517,65.8835 C113.8917,77.4635 100.4117,84.8635 85.4217,88.6435 C85.2417,88.5235 85.0517,88.4035 84.8617,88.2935 C73.8117,78.2935 63.8317,67.0035 55.0017,54.9735 C46.3817,43.2235 23.6517,-9.6665 18.1617,-14.3065 C15.8817,-16.2365 13.3817,-17.0665 10.9917,-16.9965 C6.6617,-16.8965 2.6617,-13.8865 0.8717,-9.1465 C-2.1683,-1.0865 -0.6483,9.3335 -0.4083,17.7635 C-0.1083,28.0835 0.5717,38.3935 1.6517,48.6635 C2.7217,58.8135 4.1417,68.9335 5.9117,78.9835 C6.8017,84.0635 7.7917,89.1335 8.8817,94.1835 C9.2217,95.7735 9.6517,97.1935 10.1717,98.5135 C10.7017,101.0035 11.2717,103.4835 11.8817,105.9435 C15.8617,122.0535 22.1417,138.1835 34.1317,150.0735 C46.6117,162.4635 63.5717,170.6935 79.3217,178.0535 C94.3217,185.0635 110.0417,191.2935 126.1717,196.1735 C140.1817,202.5235 155.1817,207.5435 170.2417,210.1835 C186.8217,213.0935 204.2517,213.2735 220.2617,207.5135 C228.1317,204.6835 235.5717,200.7335 242.3217,195.8135 C251.8917,190.8435 260.5017,184.0135 267.5517,174.9735 C280.178808,158.772201 286.205845,139.111428 288.843079,118.838022 C289.518075,113.64907 292.055805,93.7618006 292.255358,90.6655083 C292.899805,80.6661617 293.544253,70.6671223 294.1887,60.6675 C294.4927,55.9485 288.7007,54.6015 285.6527,57.1315 Z" id="ðŸ–-Ink" fill="#000000"/></g>

        <g id="eyewear" transform="translate(203 303)"><path id="accessories" d="M370.267229,94.0812186 C361.087518,105.550169 325.150885,118.280642 306.024457,104.460924 C286.89803,90.6412047 279.339478,81.010236 276.782894,63.7418278 C276.51029,61.9005247 273.181038,60.6757933 271.773574,61.9830996 C263.892542,69.3032997 258.790943,78.6267129 253.736631,87.9739798 C248.036181,98.5161913 242.421537,109.123108 232.062291,116.259689 C213.713905,126.095013 180.520036,127.495741 170.713277,123.157318 C151.927276,114.846558 137.066708,97.0725316 133.687387,72.6128057 C131.395829,65.3796109 129.246349,61.0020129 127.238947,59.4800116 C124.384546,57.3158209 108.631937,55.3878277 106.906249,55.0676312 C75.8071363,49.2972786 36.4749058,45.6190335 8.77600719,65.9200219 C5.02749548,68.1858834 -7.80539205,76.6985178 -7.99790561,74.60536 C-8.12928599,66.4063563 1.16220359,47.8487707 22.2939084,39.0185659 C48.4257396,28.098982 87.2707875,27.4603638 109.774665,29.8701917 C110.906452,29.9913891 114.764588,29.0433611 115.037186,28.9253388 C149.130646,14.1644408 188.359486,18.0847288 224.839489,24.2887991 C230.066858,25.3031978 276.863504,36.8905006 295.477887,29.8701917 C326.25407,17.3061158 359.067147,8.2038606 392.30185,11.7849229 C392.579752,11.8148671 396.775316,37.2812197 393.50699,39.0185659 C390.906064,40.4011413 386.480238,43.9439017 384.907987,45.8827637 C383.502453,47.6160336 382.61672,49.7708648 382.69528,52.7561081 C383.327324,70.0252897 378.399915,83.920401 370.267229,94.0812186 Z M243.72836,78.6720803 C247.630761,73.0270335 248.862219,60.3460528 247.228404,51.0948644 C246.401153,46.4106974 244.794863,42.6821957 242.779067,40.8261969 C241.439156,39.5925037 239.910346,39.0117383 238.243089,39.0979354 C237.328973,39.1451951 236.338477,39.4051824 235.290511,39.9705735 C221.097217,32.2929564 203.902812,29.5286089 187.604096,30.323616 C174.629301,30.3211866 165.372072,33.3837093 159.0944,38.1509351 C151.540713,43.8871592 148.137536,52.1332968 147.940635,61.0762046 C147.706992,71.6878578 152.06617,83.2970102 159.216953,92.4828862 C166.061287,101.275098 175.424043,107.793236 185.581316,109.297105 C197.111926,111.586016 208.862264,109.37159 219.07862,103.95477 C229.556845,98.3991036 238.407944,89.4765185 243.72836,78.6720803 Z M357.507438,84.6585403 C364.084035,76.8869454 368.457047,66.7766474 369.122697,56.7593194 C369.728486,47.6428312 367.287306,38.6124814 360.537606,31.1497224 C354.418516,25.8975011 343.605727,25.8104772 332.231167,28.7352865 C317.523167,32.5172431 302.307464,40.969058 297.23517,46.4275624 C296.040378,47.0540173 294.931407,48.1449237 293.965307,50.4849258 L293.958397,51.3191347 C292.421839,58.4056844 293.333557,65.5970212 295.991544,72.2310611 C298.878802,79.4373326 303.830659,85.9791775 309.868491,90.9705601 C317.890232,97.5784779 326.26399,99.6013328 334.1016,98.5342588 C342.979407,97.325564 351.234778,92.0709712 357.507438,84.6585403 Z" fill="#e279c7"/><path d="M294.4196,27.0634 C325.5846,14.3394 358.8976,5.1684 392.6236,8.8024 C395.4126,7.7414 398.8746,8.6354 400.1106,12.5794 C412.1236,49.1744 385.3346,38.9974 385.6946,52.6774 C388.5026,129.3804 285.4076,142.4794 273.8156,64.1814 L273.6026,64.3074 L273.6026,64.3074 C256.9246,79.8704 253.4116,105.1954 233.7646,118.7304 C194.1316,147.7154 137.9496,124.7504 130.7336,73.1504 L130.576211,72.452332 C128.153961,61.9216159 125.257898,59.3105277 113.3116,59.3624 L111.424306,58.9874342 C80.385228,52.872048 39.05216,47.3766 10.4636,68.4074 C4.2456,72.0234 3.9536,81.3194 -1.3004,85.3584 C-7.0564,86.4764 -10.6024,79.5534 -10.9924,74.7624 C-11.9044,26.9994 73.5656,23.5634 111.8436,27.6624 C112.5746,26.9054 114.1356,26.9994 114.6616,27.9424 C149.2796,12.9544 188.2806,15.0284 225.3466,21.3314 C248.3076,25.7764 270.9856,35.9014 294.4196,27.0634 Z M389.5206,17.6204 C370.8196,16.6854 353.5216,17.7084 335.1656,22.2034 C325.4916,24.5374 318.0676,27.4884 308.8076,31.0374 C251.0496,56.6264 244.3876,11.1414 114.9196,28.9714 C116.5946,36.1454 116.9026,43.2484 116.9926,49.9884 C143.42758,48.92316 137.203668,74.1647841 147.107497,91.894471 L147.4126,92.4294 C161.8466,118.2974 195.9066,130.3634 223.3816,113.2054 C246.3036,99.8454 248.5396,65.9604 271.3616,52.5124 C291.1446,51.7344 283.2426,78.4344 294.0086,89.4084 C309.1626,109.6294 341.3736,112.4564 360.3756,93.4364 C369.2906,84.2844 374.0286,72.6644 374.2906,60.1804 C374.7876,52.2044 373.4196,44.0994 379.4496,38.4894 C383.6766,34.1954 391.1866,35.6284 392.0486,29.1374 C392.5966,25.2994 391.0006,21.1364 389.5206,17.6204 Z M186.28,28.0747 C204.857,27.1597 224.513,30.3857 240.464,39.4967 C252.271,30.1007 255.164,67.4427 247.327,78.2437 C236.036,101.3457 209.749,116.5347 184.438,111.4907 C144.952,105.7687 117.44,28.0057 186.28,28.0747 Z M239.33,42.0007 L238.319634,41.8530365 C221.207242,39.24197 174.61224,27.14534 156.641,46.2377 C139.2,77.9067 183.447,131.1007 229.492,88.7307 C242.307,75.6837 247.274,59.8627 239.33,42.0007 Z M293.5595,46.0482 C302.4215,35.5552 347.5865,14.3012 363.3295,27.9402 C392.0625,60.1412 346.4955,125.2742 308.3295,93.5412 C295.6175,82.9342 287.2545,66.0342 290.9145,49.6692 L290.92013,48.9832 C290.928056,48.7345333 290.9745,48.7912 291.2405,48.4812 C291.7115,47.2442 292.5595,46.4542 293.5595,46.0482 Z M362.9285,65.5652 C372.6185,13.0082 332.1195,32.9882 298.8595,47.0162 C300.6445,48.6472 300.6365,50.8742 300.1235,52.7042 C296.6155,91.7002 344.0125,113.7982 362.9285,65.5652 Z M111.1716,30.2164 C97.2986,34.9144 5.5376,26.5124 -2.9394,69.5264 C6.0086,55.0294 24.5406,49.2764 41.2006,46.1544 C63.8616,41.9074 86.3986,44.3664 108.7416,48.8354 L109.203057,44.2113617 C109.698597,39.3065938 110.221071,34.7182235 111.1716,30.2164 Z" id="ðŸ–-Ink" fill="#000000"/></g>
    </g>
</svg>