<svg xmlns="http://www.w3.org/2000/svg" viewBox="0 0 704 704" fill="none" width="512" height="512">
    <desc>"Open Peeps" by "Pablo Stanley", licensed under "CC0 1.0". / Remix of the original.</desc>
    <mask id="viewbox"><rect width="704" height="704" rx="0" ry="0" x="0" y="0" fill="#ffffff" /></mask>
    <g mask="url(#viewbox)">
        <rect id="background" fill="#b6e3f4" width="704" height="704" x="0" y="0" />

        <g id="body"><path id="skin" d="M705.3 1074a2351.1 2351.1 0 0 1-15.6-101c-1-7.7-2.5-16.4 2.7-22 7.3-8 14-14.8 14.8-26.2.8-10.7-2.8-22.4-5-32.8a809.4 809.4 0 0 0-17.3-64.7c-6.6-21.7-13.9-43.2-21.3-64.6-6.9-20-13.5-40.3-22.5-59.5-17-36.5-46-63.5-81.6-81.6-9-4.5-27-20.5-36.3-24-8.5-3.4-8.5 6.3-16.9 2.6-6.7-2.9-13-6.7-16.7-13.2-4-7-14.3-16.9-15.9-25-3.3-17.4.3-32.2-12-45.3a90 90 0 0 0-41.1-23.8c-33.7-9.3-78.5-2.8-98.8 28.5-9.7 14.9-13 33-26.2 45.1-11.4 10.7-8.8 18-23.6 23.4-.9.3-23.6-4.5-24.4-4.2-16.2-3.5-31.7 6.2-46.5 11.8a325.4 325.4 0 0 0-63 32.3 399.2 399.2 0 0 0-102.3 98.5 482.5 482.5 0 0 0-76.4 161c-1.7 6.4-3.5 13-1.5 19.4 1.7 5.3 5.4 9.2 9.8 12.4 6 4.3 18 7 17.7 15.7-.1 6.6-2.4 13.5-3.5 20-1.3 7.7-2.3 15.5-3.4 23.2-4.8 35.4-8.6 71-10.3 106.6a920 920 0 0 0-.5 106c.1 2.3.8 4.5 2 6.2-1 .4-1.2 2.4.1 2.7l2.7.5a12 12 0 0 0 7 2.4l5.5.2c19.3 4 38.6 7.9 58.1 10.8 23.8 3.5 47.6 6.3 71.5 8.7 49.2 4.8 98 3.2 147.1.6a1877 1877 0 0 1 147.4-2c49.2 1.4 98.4 3.5 147.6 4.4 55 1 110-.5 164.8-5 7.5-.5 12.2-6.5 10.7-14-8.9-44.7-19-89.1-27-134Z" fill="#ffdbb4"/><path id="shirt" d="m201 597.5 1.2-.4c14.5-5.7 29.6-14.8 45.4-11.4.5-.2 10.8 1.9 17.9 3.2l-6.7 7L247 598c40.7 67.1 88.8 100.7 144.3 100.7 55.5 0 97.7-33.6 126.4-100.7l4-1c.4 0 1 .2 1.5.4 9.3 3.6 27.4 19.6 36.3 24.1 35.6 18 64.5 45 81.6 81.6 8.7 18.6 15.2 38 21.8 57.5l.7 2c7.4 21.4 14.7 43 21.3 64.6 6.3 20.4 12 41 16.6 61.8l.7 2.9c2.2 10.4 5.8 22 5 32.8a29 29 0 0 1-3 10.7l-80.4 29 38.4 261.3c-35.1 1.5-70.3 2-105.5 1.3-49.2-.9-98.4-3-147.6-4.3-47.7-1.2-95.3-.7-143 1.7l-12 .6a946.3 946.3 0 0 1-139.5-1l-3.1-.3v-38.3l16.3-212.9-83-15.6-81.3-39.5a21.7 21.7 0 0 1-5.6-8.8c-1.9-6-.5-12 1-18l.5-1.3a492.8 492.8 0 0 1 76.4-161A399.3 399.3 0 0 1 138 629.7c19.8-13 40.9-23.9 63-32.3Z" fill="#8fa7df"/><path d="M232.2 584.6c5.1-.3 10.3.6 15.4 1 .4.1.6.8 0 .9-9 1.9-18 4.5-26.9 7.1l-3.8 1.2c-10 3-19.8 6-29.6 10-19.4 7.9-37.8 18.5-54.8 30.8C67.2 682.8 20 754.3-9.9 828.3a526 526 0 0 0-24.3 77c-.4 1.6-2 5.4-1 7 .7 1.3 3.6 2.1 5 2.9l4.5 2.3 25.2 12.9 2.3 1.1c38 18.6 78.4 34.4 121 35.5l.4-3.7a342 342 0 0 1 9.9-60c.3-1 1.6-.6 1.7.3 3 23.1 2 46.4 1 69.7-1.8 41-4.3 82.2-6.5 123.3-1.2 20.6-2.6 41-3.9 61.7-1.3 20.5-1.7 41.6-4.7 62-.6 4.6-6 7-10 6.6-4.4-.5-7.9-4.5-8-9 0-11.9 1.5-24 2.4-35.8l2.5-33.8c3.1-41.1 6.8-82.2 10.2-123.3a4771 4771 0 0 1 3.8-43.7C76.4 979.8 34.2 963-6.1 943.5c-.6 13.2-2 26.5-3.4 39.6-3.8 36.8-7.1 73.6-9.6 110.5a2254.2 2254.2 0 0 0-4.2 92.7l-.2 7c0 4.4-.5 8.5-4.3 11.7-3.7 3.3-8.9 3.5-12.6 0-5-4.6-4.2-10.9-4-17.1a1675.6 1675.6 0 0 1 1.8-47.2 1321 1321 0 0 1 10.5-109.5l2-14c3.5-26 7.5-52.7 15.5-77.9-3.1-1.5-6.2-3-9.3-4.7-5.5-2.7-11.2-5.4-16.6-8.4-4.2-2.5-7.9-5.8-9-10.8-1.4-5.5.6-11.5 2-16.9v-.4a502 502 0 0 1 26.6-80 523.2 523.2 0 0 1 67.8-117 353.8 353.8 0 0 1 88.7-83.3 239 239 0 0 1 53.8-25.7 142.6 142.6 0 0 1 42.8-7.5Zm90.1-66c6-6.5 18.1.2 15.2 8.8a108.2 108.2 0 0 1-34.7 52A79.4 79.4 0 0 1 247 598l1.7 2.4a321.1 321.1 0 0 0 46.1 52.6c36 31.2 84.8 48 132 36 37.1-9.4 69.8-38.8 79.4-76.2-1.3.6-3 .9-4.8.5-7.7-1.7-15.3-9.8-20.3-15.6-5.3-6.3-9.5-13-12.6-20.7-5.6-14-7.4-32.1.3-45.7 1-1.7 3-.7 3.3 1l.3 2.5c1.5 12.7 3.3 25 9.3 36.6a76 76 0 0 0 18.2 23.1c2.6 2 5.8 3.6 8.1 6l.5.4c.6-5 4.1-7.3 7.6-7.2 3.3.2 7.3 1.6 8.8 2.3l.1.1a341 341 0 0 1 65.1 42 259 259 0 0 1 88.4 129c7.5 25.3 11.8 51.4 16.3 77.4l2.8 16c4.2 23.9 8.9 48.4 18.4 70.7 2.5 5.7.6 11.1-5.5 13.4A1493 1493 0 0 1 688 953c3.7 16 6 32.5 8.7 48.5 6 34.1 13.2 68 19.4 102 3.2 17.5 6.1 35 9.3 52.3l4.7 25.2 2.4 13.6.1.7c.5 2.4 1 4.9.4 7.3-.8 2.7-2.9 4.6-4.8 6.6-1.6 1.6-3.8 1.6-5.7.7l-.7-.3c-3.4-1.6-6-3.2-7.3-7-.7-2.5-1-5.2-1.5-7.7a3535.6 3535.6 0 0 1-7.8-43.6l-1.6-9.1c-5.2-31.4-10.2-62.9-12.8-94.5-1-14-2.3-28.1-3.5-42.2l-.9-10.5c-1.1-13.3-2.5-27-2.7-40.5l-4.5 1.6L657 964c-5.5 2-12.5 6-18.4 5.2-2.9-.3-5-1.2-6.8-2.9 2 28.8 4.8 57.4 8.5 86a1965.7 1965.7 0 0 0 22 135c.6 3.2 1.4 6.4 1.9 9.6.5 3.7-.5 5.9-2.5 9-1.7 2.4-5 3.7-7.8 2-3.6-2.3-5.5-4.3-6.5-8.4-1-3.7-1.6-7.6-2.3-11.4a1654.2 1654.2 0 0 1-11.4-65.2c-7.8-52-12.7-104.4-15.2-156.8a1388 1388 0 0 1-1.4-77.8c0-13.3.5-26.6 1.4-39.9 1-13.4 3-26.5 4.8-39.8 0-.5.7-.5.7 0 .8 14.9 2.1 29.8 2.8 44.7.6 14.3.9 28.5 1.4 42.8.6 18.7 1.5 37.5 2.7 56.2a9.6 9.6 0 0 1 8.5-3.1c4.7-1 9.7-3.4 14.1-5l16.8-5.5 26.4-8.7a679 679 0 0 1-18-80.8l-2-12.3c-4-24.2-8.5-48.5-15.8-72a229.8 229.8 0 0 0-34.8-68.2 370.2 370.2 0 0 0-52.7-55.3C557 627 539.7 614 523 600c.1.9.2 2 0 3-3.5 25.9-17 50-35.8 67.9-37.7 36-93.6 43.4-142 26.5-46.7-16.3-88-55-102.6-102.8-.3-.8.8-1 1.3-.5l2.4 3.3c0-.4.2-.9.7-1a129 129 0 0 0 46.6-29.2 100.2 100.2 0 0 0 21.3-33.3l.4-1c1.7-5 3.2-10.2 7-14.2Z" fill="#000000"/></g>

        <g id="head" transform="matrix(.99789 0 0 1 156 62)"><path id="skin" d="M397.5 243.8c-2.4-30.8 1.3-63-10.5-92.2-20.7-48.5-78.7-64.7-123.6-83.1-18-5.4-78.6-6.1-99.6-13.1-47.7-16-59.1-35-97-4.6a41.2 41.2 0 0 0-13.4 18.5h.2c-.9 3.2 0 6.4 1.9 8.9a61.8 61.8 0 0 0-14.9 64.3c27.5 58.2 26.2 89.7 17.4 152.2-11.6 58.4 14.8 79.8 58.7 111.5-1.8 3.5-2.2 8 .1 11.1 50.7 71.2 146.2 105.2 228 69 33.3-14.7 48.1-50 56.6-82a228.4 228.4 0 0 0 4.9-109.8c-3.3-16.9-7.5-33.6-8.8-50.7Z" fill="#ffdbb4"/><path id="accessories" d="m34.6 156.5 30.1 20.1L172.6 63l-36-28.2s-65 48-77.8 60.8c-12.8 12.7-24.2 61-24.2 61Z" fill="#e279c7"/><path d="M105.2-96.9c6.2-.9 10.8 3 13 8.3l.2.3 2.3 5.4c15.4-7.6 37.4-5.7 47.1 9.6 7 11 2.7 24 0 35.5l-1.6 7.6c3.3 2.1 5.8 6 5.7 9.9v.3l-.7 10.6a55.2 55.2 0 0 0 10-14c8.6-12.9 27.8-1.7 20.7 12a67 67 0 0 0-9 18.6c3.3 1.5 6 4.7 6.2 9.5a29.4 29.4 0 0 1-14.8 26.8c-2.8 1.8-5.7 2.1-8.3 1.5l-1.4 1.8c3.8 3 7.2 6.6 10.1 10.5a182 182 0 0 1 26.6-2 59 59 0 0 1 35.5-3.2c7.5 1.3 14.7 3.8 22 5.6 7.8 1.8 15.7 2 23.6 3.2 10 1.6 18.6 6.2 24 13.5a36 36 0 0 1 17.7 6l36.5 23.5c4.6 3 6.4 7.8 5.5 13.1v.4l-.4 2.2 1 1.4c3.6 5.2 7.7 10.7 10.1 16.5 4.5 6.5 8.5 13.2 12 20.2a146.5 146.5 0 0 1 13.3 37.1c.6 3.7-.3 6.6-.9 10.2-.6 4.5-.9 9-1.6 13.5-.4 3-3 4.5-5.6 4.6a889.4 889.4 0 0 1 4.6 55.5c3 4.2 9 7.6 13.3 8.8 6 1.6 12.3-.1 18-2.2 3.5-1.3 6.5 3.2 4.7 6.2-5.4 9.4-17.1 9.4-26 5.2-3.8-1.7-7-4.3-9.5-7.6l.5 9.5.1 2.8c1.8 33.6 5.7 68.3-.6 101.5a127.5 127.5 0 0 1-116.6 104.7 161 161 0 0 1-68.6-12.3c-12.6-5-7.7-15.3 1-12.3 15.2 5 43 12.5 67.8 9.3 58.5-7.7 108.2-37 103-163-.7-17.8-2.9-35.7-3.4-53.6-.4-17.4-.3-35-1-52.4l-.3-6c-.3-6.9-.6-13.9-1.1-20.9-.7-2.7-1.2-5.4-2-8-2-7.3-4.8-14.3-8.2-21-.7.6-1.5 1-2.5 1.2a31.2 31.2 0 0 1-28-7.3c-1.2-1-2-2-2.6-3-3 0-6.2-1-8.2-3.2-2.2-2.6-2.6-5.2-1.7-7.7v-.2h-.1a38.5 38.5 0 0 1-13.7 16.8 55.5 55.5 0 0 1-31.5 8.5 218.2 218.2 0 0 1-46-5.4c-.2 0-.3.2-.4.3a34 34 0 0 1-37.6 6.8 58.5 58.5 0 0 1-19.4-14.4c0 3-.2 6.2-.5 9.3l-.1 1.2c-.6 5.8-1.6 11.9-6 16-7 6.8-17.2 4-25.3-.3v.6l6.6 22.4.4 1.6c1.6 5.3 3.4 10.6 3.9 16 1 10.7-6.1 21.1-17.9 17.6-6.2-1.9-11.1-7-15.8-11.2l-3-2.6c7.7 25.3 13 51.4 13.6 77.8 0 1.4-1.2 2.5-2.6 2.6-3.2 0-6.6-.5-9.8-1.8h-.6a37.2 37.2 0 0 1-15-5.7c1 3.2 1.5 6.7 1.3 10.4-.1 1-1.5 1.2-1.7.2-2.6-12.7-17.4-22.2-30.2-19.8a34.3 34.3 0 0 0-26.4 27.9 53.7 53.7 0 0 0 11.9 42.3c4.3 5.1 10 9.4 16.8 10.5 3.1.5 6.3.3 9.4-.6l3.7-1.4c1.7-.7 3.8-.8 5.5-1.6 3.8-1.7 7.6 1.8 5.7 5.7a16.4 16.4 0 0 1-6 7.5c2.3 2.8 4.3 6.6 5 7.6a128.7 128.7 0 0 0 26.8 28.4l2.3 1.8c5 4 9.4 7.6 12.9 13.3 2.8 4.5-.8 10.6-6 10.5-16.3-.2-28.2-14.6-36.6-27a69.7 69.7 0 0 1-3.4-5.7 12 12 0 0 1-1.3 1.7l1 2.5c2.7 7.4-9.2 12.2-12.6 5.3-2.5-5-5.4-9.7-8.7-14.2-1.9-.3-3.8-1.4-4.8-3-2.6-3.7-5.6-7.6-8-11.6a102 102 0 0 0-4.3-3.8l-1.3 1c-1.8 4.2-4 8-6.8 11.6l-.6.8c-5.4 6.7-12.4 13.6-21 15.2-2.6.5-5.1-2.7-2.8-4.8 6-5.4 13.2-9.1 18.7-15.2 2.8-3 5.3-6.2 7.4-9.7l.5-.8 1.1-1.8-7.5-5.1c-6.9 5.9-15.9 8.6-23.5 13.5l-.8.5c-7 4.6-14.2-5.6-8.6-11.2 6-6.2 11.2-13.5 16.6-20.4a40 40 0 0 1-4.2-15.8l-.5-4.8c-3.9 0-7.8-1.2-11-3.5l-1.3-1c-4 1.4-8.2 2-12.3 1.9-9.4-.3-13.3-11.1-7.4-18 6-7 16.6-8.5 25-5.1l.9-.5c-.4-1.8-.4-3.5 0-5v-.8a23 23 0 0 1-3.2-17.6c.2-.9.6-1.8 1-2.7-.7-1.7-1.1-3.5-1.3-5.3l-.5-.7a14.2 14.2 0 0 1 .6-17.6l.1-1-.6-1.5c-3.9-4-6.7-8.6-6.2-14.4a15 15 0 0 1 3.8-8.9 5 5 0 0 1 0-3.4c-3.3-9-2.9-20-.4-30.1-.6-1.5-.9-3.2-.8-5 .3-7.5 6.8-14.4 14.5-14.3 1 0 1.8.1 2.6.3v-.2c.3-2.2 1-4.3 1.8-6.2a4 4 0 0 1-1.2-.7c-5 2.7-10.1 4.7-15.6 6-4 1-8.2-3.5-5.6-7.3 1.1-1.8 2.4-3.3 3.8-4.8-2 0-4 .2-6 .4-3.6.5-7.7-2-10-5.3l-8.8 8.5c-7.4 7.2-18.6 1.9-19.8-7.6-2.2-.6-4.3-1.6-6-3a104 104 0 0 1-37.2 8.4c-9.3.4-14.7-10.4-10.3-18A60 60 0 0 1-66 145.4c-6.4 2-13 3.4-19.9 4.3-3.6.5-8.8-2.5-10.3-5.9a44.4 44.4 0 0 1 1.3-39l.8-1.5a75 75 0 0 1 2.2-5c-8-8.3-8.6-20.6-4.3-31a10.4 10.4 0 0 1-1.3-9.1 78.7 78.7 0 0 1 14.2-23.8l-1.5-3.6a29.8 29.8 0 0 1 8.5-30c5-4.6 10.8-7.3 17-9 2.5-4.6 5.9-8.7 9.7-12.2l.5-1c6-11.4 17-17.5 28.8-18.9.5-4.4 3.5-8.7 7.9-10 1.2-4 3-7.6 5.4-11C-3-66.4 3.4-69 9.5-65.4c3.3 1.9 6.5 4 9.5 6.4a13 13 0 0 1 4.5-1.1h.5l9.8-.6 12.4-5.6a33.2 33.2 0 0 1 18.7-7.5 89.9 89.9 0 0 1 29.8-4.7l.2-5.6v-1c-.2-6 4.7-10.8 10.3-11.7Zm-6.9 484-3 .6 1 2.2 2.4 1.3c-.3-1.4-.4-2.7-.4-4ZM47 372l-.7 1.2-.3.6 4.2.1v-.1l-.5-.2c-1-.5-1.9-1-2.7-1.6Zm27.7-55.8c8.9.5 16.4 1.8 24.4 5.7l.7.3c7.1 3.6 18.9 10 17.9 19.4-.3 2.7-2.2 5.5-5.3 5.3-8.3-.6-13-9-18.7-14.2a96.6 96.6 0 0 0-19.6-14.4c-1-.5-.6-2 .5-2.1h.1Zm-40-123.2c-2.2 0-1.5 2.1-.4.4 0-.2.2-.3.3-.4ZM149 55.4c-20 .5-40.2 12.3-55.3 24.3A196 196 0 0 0 59.3 116c-2.5 6.7-4.8 13.5-6.6 20.3-1.3 4.5-2 9-3 13.7l-.4 1.4a22 22 0 0 0-1.8 4.8c1.8 1.8 4.2 3.1 6.8 3.7.8.2 1.5.7 2 1.2 2.2-3.5 4-7.2 5-11v-.2c4.1-6.6 8.5-13 13.2-19.2A230 230 0 0 1 118.8 85c13-9.8 27.5-17.5 43-22.5a47 47 0 0 0-12.8-7.2Z" fill="#000"/></g>

        <g id="face" transform="translate(315 248)"><path d="m111.4 252.4-10.6-40.3 1.7.2c16.8 2.7 25.1 5.4 25.1 8.2v.1c-.2 3.2-5.6 13.8-16.2 31.8Zm97.2-31.6-3.7 28.8-19.5-21.3 23.2-7.5ZM98.5 149c21.8 0 39.5-16.1 39.5-36s-17.7-36-39.5-36S59 93.1 59 113s17.7 36 39.5 36Z" fill="#fff"/><path d="M157 112c19.9 0 36-15.9 36-35.5A35.8 35.8 0 0 0 157 41c-19.9 0-36 15.9-36 35.5a35.8 35.8 0 0 0 36 35.5Z" fill="#fff"/><path d="M206 142c16 0 29-14.3 29-32s-13-29.5-29-29.5-29 11.8-29 29.5 13 32 29 32Z" fill="#fff"/><path d="M101.2 210.7c7.2-1.4 16.2 1.6 23.5 3h.5c8.8 1.6 17.5 3.4 26.4 4.3 8.5 1 17.1 1 25.6 0a82.2 82.2 0 0 0 17-3.8h.2c1.3-.5 4.5-2.4 4.5-1.4 1-1 2.2-1.8 3.6-2.2 2-.5 4.5 0 6.2 1.4 2.1-1.7 5.3-.5 6.8 1.5 2.4 3.5 1.6 7.6 1.3 11.7v.3c-.3 3.9-.7 7.7-1.2 11.5l-.2 1.6c-.8 5.6-1 14.8-7.8 16.7-5.4 1.4-10.3-4-13.8-8.5l-2-2.4a54.3 54.3 0 0 1-8-13.6l-.1-.5c-10 1.3-20.2 1.2-30.2-.2-6.3-.8-12.6-2-18.7-3.6l-2.8 5c-3.2 5.8-6.5 11.6-10 17.4l-.2.4c-3.3 5.1-8.7 10.3-15.1 6.4-5.7-3.4-6-11.3-6.6-17.1l-.9-11.8V225c-.1-3.8-.8-8.2.7-11.8.2-.5 1-1 1.4-.4 3 3.7 4 9.5 5.3 14 1.5 5.2 3.6 10.7 4.4 16l.2-.4a375 375 0 0 1 2.3-4.2l2.3-4.3 6.4-11.5-7.3-3-5.5-2.2a25.9 25.9 0 0 1-8.6-5.2c-.4-.4-.3-1.3.4-1.4Zm103.7 14c-5.4 2.2-11 3.8-16.7 4.9l1.1 1.1 4.2 4.5.8.9c2.2 2.2 5.5 6 8.9 8l.1-1 .1-.3.4-3.2.1-1.6.8-8.6.2-4.6ZM141 40a40 40 0 0 1 39.1 5.4 46.6 46.6 0 0 1 17 36c8.9-7.7 21.8-1.9 29.3 5.3a37 37 0 0 1 11 32.5 32.7 32.7 0 0 1-22 25.7 31.2 31.2 0 0 1-23.6-2.4l.4 1.5c2.7 11.7 4.3 25 .2 36.5-6.7 18.7-30.5 29.1-45.3 12.6a39.1 39.1 0 0 1-10-25.6c.2-4.6 2.9-10 8.3-9.7 4.2.3 6.2 3.8 5.1 7.5v.2c-2.3 7.2 1.6 17.5 7.2 22.4 8.7 7.5 20.6 1 25.4-7.8 5.5-10.2 4.8-23.3 3-34.4-1.7-11-5.5-21-9.6-31l-1.4.2c-8.2 1.1-24.8 1.5-33.8-4.4 1 9.1-1 18.6-6.1 26.3a34 34 0 0 1-24.7 14.6 87.4 87.4 0 0 1-31-.7c-20.7-5-28-30.6-21.7-49 3.7-11 14-20.8 25.5-23.2a34 34 0 0 1 20.7-4.5c10.2.7 20.3 5.2 27.1 12.9 2.6 3 4.8 6.3 6.4 9.9a5 5 0 0 1 2-1c1.1-.2 2.1-.3 3.2.1a7 7 0 0 1 1.9 1.4l1 1.3c1.4 1.5 2.7 2.9 5.1 3.8a54.3 54.3 0 0 0 23 2.8c18.2-1.4 15.9-25.5 11.4-38a32.8 32.8 0 0 0-36-21.1 35 35 0 0 0-17.9 9.3c-5.4 5.1-7.8 11.4-11 18-.2.3-.9.2-1-.2-2.6-13.8 10-28.2 21.8-33.2ZM44.1 151c-.5-.7.3-1.8 1-1.3 5.9 4 12.3 6.8 19.3 7.6 3.3.3 6.6.3 10-.2 2.7-.4 5.2-1.2 8-.5 1.5.4 1.8 2.2.9 3.2-4.2 5-14.6 3.7-20.3 2.4A35 35 0 0 1 44.2 151Zm195.3-9.2c2.9-1.8 6.2 1.7 4.6 4.5-4.4 7.3-16.9 7.9-24.2 6.1-.5 0-.4-1 .2-1 4.1.1 8-.7 11.5-2.8 3.1-2 5-5 8-6.8Zm-139-58-.5.1c-6.7.1-12.8 2.6-19.2 4l-1.5-.1a30.7 30.7 0 0 0-14 24.1 33.8 33.8 0 0 0 5.8 21.7c5 7 13.2 8 21.2 8.3h.8c15.1.3 31.7-.6 37.1-17.5 4-12.5-.2-27.7-11.3-35.2a32.6 32.6 0 0 0-18.4-5.3Zm121.8 9-.4-.5c-6-6.8-15.3-13-24.6-9.5V84.6c0 13.1-5 25.4-17.6 29.2 3.4 4.8 6 10.2 8.2 15.7.8-.5 1.7-.8 2.8-1 4.4-.4 7 3.7 10.7 5.3 3.6 1.4 7.7 1.8 11.4 1 8.3-1.6 14-8.7 16.1-16.6 2.3-9-.7-18.3-6.6-25.2ZM96.5 104c2.8-4.6 9.6-4 12.3.1l.1.3a12.6 12.6 0 0 1-4.2 18.4c-5.3 2.6-12 2-15.5-3.2a9.1 9.1 0 0 1-1.5-4c0-.9 0-1.8.2-2.7v.2l.2-1.4c.5-1.9 1.6-4 3-5.3a8.5 8.5 0 0 1 5.4-2.4Zm113.2-4.8c2.4 0 4.6 1 6.4 2.6 2.5 2.3 2.8 5.6 2.3 8.8l-.7 2.8-.2.9v.4a7 7 0 0 1-.7 1.6c-1 4-5.3 5.8-9 5a7.5 7.5 0 0 1-5-4.9l-.8-1.7-.3-1.3-.7-2.8c-.6-3.3 0-6.3 2.3-8.8 1.7-1.6 4-2.6 6.4-2.6ZM156 65.5c4.2-.6 8.5 1.4 10.7 5.2a11 11 0 0 1 0 10.8l-.1.3c-3.5 6-11.7 6.8-16.6 2.1l-.2-.2a10.7 10.7 0 0 1 6.2-18.2Z" fill="#000"/></g>

        <g id="facial-hair" transform="translate(279 400)"><path d="M-11.5714046,-16.2445506 C-4.5036342,-16.2445506 -1.60885814,0.21020417 -1.60885814,0.21020417 C16.3669846,31.2060244 33.6702345,62.1145317 64.5431853,83.439754 C98.8148257,97.1732276 132.524366,120.563082 171.574412,123.127705 C189.178832,121.279245 194.342239,105.166097 216.083764,110.835804 C229.954781,114.205982 245.529699,120.852835 258.353514,111.251939 C269.194027,104.166346 276.820336,93.432125 286.170347,84.7539177 C286.646648,83.1880181 289.751951,99.7121632 288.81365,105.297616 L288.088881,108.469125 C282.299567,134.041435 276.444928,164.133971 250.539105,178.191064 C242.646596,182.349329 231.573983,186.36169 222.815772,184.017978 C176.538718,191.397434 126.341258,185.997957 85.7974104,162.913268 C71.5237935,159.205045 60.906581,147.822476 49.6667677,139.224413 C22.1755352,115.145111 -9.32938734,84.6422841 -12.2652908,48.0614724 C-15.2011943,11.4806607 -13.8937483,-16.2445506 -11.5714046,-16.2445506 Z M128.254394,55.9858378 C144.006168,30.6921764 175.299795,34.7998857 199.650639,46.3236979 C213.102074,37.190697 230.849747,38.8719114 245.444207,45.3062012 L245.442009,45.3143575 C258.88575,52.6692881 269.067472,64.7456886 278.427094,76.2960087 C280.704353,79.3648112 281.609981,83.4878136 278.407311,85.0008046 C263.32047,97.4350621 231.97622,90.1376333 217.752144,80.8924835 C207.489092,80.06564 209.73894,65.4950474 197.893237,75.6924435 C189.988774,83.1228198 180.058738,87.7301017 169.272532,90.4604183 C145.155788,98.7400678 122.951414,97.3647141 101.948316,84.4584116 C99.2468185,84.1963909 88.1792519,77.9364416 92.1117001,75.7087561 C96.3892541,76.8638901 120.087255,63.2622642 128.254394,55.9858378 Z" id="ðŸŽ¨-Background" fill="#000"/><path d="M-15.2541583,10.948422 C-15.0933415,9.61801671 -13.0280563,9.55211428 -12.9817939,10.948422 C-12.0246031,40.2142492 -2.4945512,72.2994646 13.623485,97.3568039 C52.3583214,160.604601 131.419641,192.288223 207.513558,181.401966 C263.123151,180.648207 269.063572,149.138299 282.886113,105.13916 C290.060087,99.2491303 293.584813,101.359291 291.356515,108.263945 C274.222055,161.357154 268.355119,191.808927 200.560982,191.230695 C91.7044821,206.768223 -26.3461165,117.763903 -15.2541583,10.948422 Z M138.535374,34.5476174 C156.295694,26.6190522 177.428896,27.7378321 192.263182,38.7014624 L193.309189,38.9397327 C195.907041,39.5204648 198.399844,39.962437 201.320426,39.6652867 C240.574737,19.0003984 266.781056,55.0399884 286.906917,82.023969 C288.425101,82.0756209 289.661935,83.2667135 289.251496,84.6623475 L289.895841,85.3513838 C287.360386,92.1508386 282.779356,98.7147608 276.515746,102.838648 C255.978342,130.184192 240.642041,121.635804 213.88516,110.376725 C186.371394,106.258003 185.258133,138.690225 146.87435,123.833075 L145.426126,123.36136 C132.799418,119.190609 118.303552,112.864968 109.122776,103.723961 C108.82267,103.42438 109.116156,102.846912 109.575141,102.996703 C130.874947,109.418066 158.26183,130.384601 179.942284,116.258842 C185.422529,112.581227 190.345593,108.116438 196.47239,105.346864 C231.449087,93.6435782 243.741298,139.862723 274.3477,91.8781166 C249.425659,96.2210076 221.334851,91.9029095 202.70621,74.9342305 C174.858135,108.473869 120.656998,103.100006 86.195557,82.2677659 C81.4821269,82.9464717 74.5079715,78.2843721 78.8484757,73.8464417 C83.5961091,70.0727546 91.1075867,71.5520647 96.9442079,69.5056168 C115.575056,62.8776462 119.974036,41.7520231 138.535374,34.5476174 Z M200.796573,48.5727782 C181.11269,34.5708827 151.673992,32.2131362 132.836004,48.7307875 C121.071774,60.5463713 113.439968,77.5019045 94.4751514,80.6269772 C127.044875,99.3743151 173.842623,99.6893009 198.921708,69.8606577 C199.709151,67.2819047 203.790844,68.3941662 204.283823,70.635213 C222.240624,83.1644205 245.208831,89.8224984 267.575977,85.9807038 C271.181234,85.3889435 274.741272,84.54726 278.213082,83.4659808 L274.911924,78.9288281 C257.359527,54.9124981 234.778358,26.9459739 201.299479,46.6983542 C200.541812,47.0815009 200.223085,46.1014302 200.128239,45.5984856 L199.716871,45.8990131 C200.013541,46.5196901 202.480644,48.5634835 200.796573,48.5727782 Z M281.399289,90.2757857 C281.563359,90.4230158 281.698622,90.5838487 281.813847,90.7510829 C282.36492,90.4646243 282.936033,90.1733647 283.523427,89.8941076 L283.364367,89.7772837 C282.733138,89.9565204 282.075607,90.1221542 281.399289,90.2757857 Z M-12.7195703,-25.3678008 L-12.7270529,-26.32765 C-12.7261592,-35.9872095 -10.1303317,-23.8088618 -8.96468811,-21.4130327 C-3.95303838,-12.3906384 0.236921082,-3.46201263 5.54596541,5.3336884 C26.8339114,43.6324953 30.1305856,60.2326293 73.0259014,82.049801 C76.2124295,84.7783643 72.8650881,89.6759706 68.9064355,88.6692461 C62.9849786,87.1637963 57.4005689,83.3914133 52.2424248,80.3485706 C23.0327678,65.2837687 12.1371109,34.5523972 -0.968077775,7.80464564 C-4.81658418,-2.80151071 -13.6943637,-14.1165989 -12.7195703,-25.3678008 Z" id="ðŸ–-Ink" fill="#000000"/></g>

        <g id="eyewear" transform="translate(203 303)"><path id="accessories" d="M370.267229,94.0812186 C361.087518,105.550169 325.150885,118.280642 306.024457,104.460924 C286.89803,90.6412047 279.339478,81.010236 276.782894,63.7418278 C276.51029,61.9005247 273.181038,60.6757933 271.773574,61.9830996 C263.892542,69.3032997 258.790943,78.6267129 253.736631,87.9739798 C248.036181,98.5161913 242.421537,109.123108 232.062291,116.259689 C213.713905,126.095013 180.520036,127.495741 170.713277,123.157318 C151.927276,114.846558 137.066708,97.0725316 133.687387,72.6128057 C131.395829,65.3796109 129.246349,61.0020129 127.238947,59.4800116 C124.384546,57.3158209 108.631937,55.3878277 106.906249,55.0676312 C75.8071363,49.2972786 36.4749058,45.6190335 8.77600719,65.9200219 C5.02749548,68.1858834 -7.80539205,76.6985178 -7.99790561,74.60536 C-8.12928599,66.4063563 1.16220359,47.8487707 22.2939084,39.0185659 C48.4257396,28.098982 87.2707875,27.4603638 109.774665,29.8701917 C110.906452,29.9913891 114.764588,29.0433611 115.037186,28.9253388 C149.130646,14.1644408 188.359486,18.0847288 224.839489,24.2887991 C230.066858,25.3031978 276.863504,36.8905006 295.477887,29.8701917 C326.25407,17.3061158 359.067147,8.2038606 392.30185,11.7849229 C392.579752,11.8148671 396.775316,37.2812197 393.50699,39.0185659 C390.906064,40.4011413 386.480238,43.9439017 384.907987,45.8827637 C383.502453,47.6160336 382.61672,49.7708648 382.69528,52.7561081 C383.327324,70.0252897 378.399915,83.920401 370.267229,94.0812186 Z M243.72836,78.6720803 C247.630761,73.0270335 248.862219,60.3460528 247.228404,51.0948644 C246.401153,46.4106974 244.794863,42.6821957 242.779067,40.8261969 C241.439156,39.5925037 239.910346,39.0117383 238.243089,39.0979354 C237.328973,39.1451951 236.338477,39.4051824 235.290511,39.9705735 C221.097217,32.2929564 203.902812,29.5286089 187.604096,30.323616 C174.629301,30.3211866 165.372072,33.3837093 159.0944,38.1509351 C151.540713,43.8871592 148.137536,52.1332968 147.940635,61.0762046 C147.706992,71.6878578 152.06617,83.2970102 159.216953,92.4828862 C166.061287,101.275098 175.424043,107.793236 185.581316,109.297105 C197.111926,111.586016 208.862264,109.37159 219.07862,103.95477 C229.556845,98.3991036 238.407944,89.4765185 243.72836,78.6720803 Z M357.507438,84.6585403 C364.084035,76.8869454 368.457047,66.7766474 369.122697,56.7593194 C369.728486,47.6428312 367.287306,38.6124814 360.537606,31.1497224 C354.418516,25.8975011 343.605727,25.8104772 332.231167,28.7352865 C317.523167,32.5172431 302.307464,40.969058 297.23517,46.4275624 C296.040378,47.0540173 294.931407,48.1449237 293.965307,50.4849258 L293.958397,51.3191347 C292.421839,58.4056844 293.333557,65.5970212 295.991544,72.2310611 C298.878802,79.4373326 303.830659,85.9791775 309.868491,90.9705601 C317.890232,97.5784779 326.26399,99.6013328 334.1016,98.5342588 C342.979407,97.325564 351.234778,92.0709712 357.507438,84.6585403 Z" fill="#e279c7"/><path d="M294.4196,27.0634 C325.5846,14.3394 358.8976,5.1684 392.6236,8.8024 C395.4126,7.7414 398.8746,8.6354 400.1106,12.5794 C412.1236,49.1744 385.3346,38.9974 385.6946,52.6774 C388.5026,129.3804 285.4076,142.4794 273.8156,64.1814 L273.6026,64.3074 L273.6026,64.3074 C256.9246,79.8704 253.4116,105.1954 233.7646,118.7304 C194.1316,147.7154 137.9496,124.7504 130.7336,73.1504 L130.576211,72.452332 C128.153961,61.9216159 125.257898,59.3105277 113.3116,59.3624 L111.424306,58.9874342 C80.385228,52.872048 39.05216,47.3766 10.4636,68.4074 C4.2456,72.0234 3.9536,81.3194 -1.3004,85.3584 C-7.0564,86.4764 -10.6024,79.5534 -10.9924,74.7624 C-11.9044,26.9994 73.5656,23.5634 111.8436,27.6624 C112.5746,26.9054 114.1356,26.9994 114.6616,27.9424 C149.2796,12.9544 188.2806,15.0284 225.3466,21.3314 C248.3076,25.7764 270.9856,35.9014 294.4196,27.0634 Z M389.5206,17.6204 C370.8196,16.6854 353.5216,17.7084 335.1656,22.2034 C325.4916,24.5374 318.0676,27.4884 308.8076,31.0374 C251.0496,56.6264 244.3876,11.1414 114.9196,28.9714 C116.5946,36.1454 116.9026,43.2484 116.9926,49.9884 C143.42758,48.92316 137.203668,74.1647841 147.107497,91.894471 L147.4126,92.4294 C161.8466,118.2974 195.9066,130.3634 223.3816,113.2054 C246.3036,99.8454 248.5396,65.9604 271.3616,52.5124 C291.1446,51.7344 283.2426,78.4344 294.0086,89.4084 C309.1626,109.6294 341.3736,112.4564 360.3756,93.4364 C369.2906,84.2844 374.0286,72.6644 374.2906,60.1804 C374.7876,52.2044 373.4196,44.0994 379.4496,38.4894 C383.6766,34.1954 391.1866,35.6284 392.0486,29.1374 C392.5966,25.2994 391.0006,21.1364 389.5206,17.6204 Z M186.28,28.0747 C204.857,27.1597 224.513,30.3857 240.464,39.4967 C252.271,30.1007 255.164,67.4427 247.327,78.2437 C236.036,101.3457 209.749,116.5347 184.438,111.4907 C144.952,105.7687 117.44,28.0057 186.28,28.0747 Z M239.33,42.0007 L238.319634,41.8530365 C221.207242,39.24197 174.61224,27.14534 156.641,46.2377 C139.2,77.9067 183.447,131.1007 229.492,88.7307 C242.307,75.6837 247.274,59.8627 239.33,42.0007 Z M293.5595,46.0482 C302.4215,35.5552 347.5865,14.3012 363.3295,27.9402 C392.0625,60.1412 346.4955,125.2742 308.3295,93.5412 C295.6175,82.9342 287.2545,66.0342 290.9145,49.6692 L290.92013,48.9832 C290.928056,48.7345333 290.9745,48.7912 291.2405,48.4812 C291.7115,47.2442 292.5595,46.4542 293.5595,46.0482 Z M362.9285,65.5652 C372.6185,13.0082 332.1195,32.9882 298.8595,47.0162 C300.6445,48.6472 300.6365,50.8742 300.1235,52.7042 C296.6155,91.7002 344.0125,113.7982 362.9285,65.5652 Z M111.1716,30.2164 C97.2986,34.9144 5.5376,26.5124 -2.9394,69.5264 C6.0086,55.0294 24.5406,49.2764 41.2006,46.1544 C63.8616,41.9074 86.3986,44.3664 108.7416,48.8354 L109.203057,44.2113617 C109.698597,39.3065938 110.221071,34.7182235 111.1716,30.2164 Z" id="ðŸ–-Ink" fill="#000000"/></g>
    </g>
</svg>