<svg xmlns="http://www.w3.org/2000/svg" viewBox="0 0 704 704" fill="none" width="512" height="512">
    <desc>"Open Peeps" by "Pablo Stanley", licensed under "CC0 1.0". / Remix of the original.</desc>
    <mask id="viewbox"><rect width="704" height="704" rx="0" ry="0" x="0" y="0" fill="#ffffff" /></mask>
    <g mask="url(#viewbox)">
        <rect id="background" fill="#ffdfbf" width="704" height="704" x="0" y="0" />

        <g id="body"><path id="skin" d="M705.3 1074a2351.1 2351.1 0 0 1-15.6-101c-1-7.7-2.5-16.4 2.7-22 7.3-8 14-14.8 14.8-26.2.8-10.7-2.8-22.4-5-32.8a809.4 809.4 0 0 0-17.3-64.7c-6.6-21.7-13.9-43.2-21.3-64.6-6.9-20-13.5-40.3-22.5-59.5-17-36.5-46-63.5-81.6-81.6-9-4.5-27-20.5-36.3-24-8.5-3.4-8.5 6.3-16.9 2.6-6.7-2.9-13-6.7-16.7-13.2-4-7-14.3-16.9-15.9-25-3.3-17.4.3-32.2-12-45.3a90 90 0 0 0-41.1-23.8c-33.7-9.3-78.5-2.8-98.8 28.5-9.7 14.9-13 33-26.2 45.1-11.4 10.7-8.8 18-23.6 23.4-.9.3-23.6-4.5-24.4-4.2-16.2-3.5-31.7 6.2-46.5 11.8a325.4 325.4 0 0 0-63 32.3 399.2 399.2 0 0 0-102.3 98.5 482.5 482.5 0 0 0-76.4 161c-1.7 6.4-3.5 13-1.5 19.4 1.7 5.3 5.4 9.2 9.8 12.4 6 4.3 18 7 17.7 15.7-.1 6.6-2.4 13.5-3.5 20-1.3 7.7-2.3 15.5-3.4 23.2-4.8 35.4-8.6 71-10.3 106.6a920 920 0 0 0-.5 106c.1 2.3.8 4.5 2 6.2-1 .4-1.2 2.4.1 2.7l2.7.5a12 12 0 0 0 7 2.4l5.5.2c19.3 4 38.6 7.9 58.1 10.8 23.8 3.5 47.6 6.3 71.5 8.7 49.2 4.8 98 3.2 147.1.6a1877 1877 0 0 1 147.4-2c49.2 1.4 98.4 3.5 147.6 4.4 55 1 110-.5 164.8-5 7.5-.5 12.2-6.5 10.7-14-8.9-44.7-19-89.1-27-134Z" fill="#d08b5b"/><path id="shirt" d="m201 597.5 1.2-.4c14.5-5.7 29.6-14.8 45.4-11.4.5-.2 10.8 1.9 17.9 3.2l-6.7 7L247 598c40.7 67.1 88.8 100.7 144.3 100.7 55.5 0 97.7-33.6 126.4-100.7l4-1c.4 0 1 .2 1.5.4 9.3 3.6 27.4 19.6 36.3 24.1 35.6 18 64.5 45 81.6 81.6 8.7 18.6 15.2 38 21.8 57.5l.7 2c7.4 21.4 14.7 43 21.3 64.6 6.3 20.4 12 41 16.6 61.8l.7 2.9c2.2 10.4 5.8 22 5 32.8a29 29 0 0 1-3 10.7l-80.4 29 38.4 261.3c-35.1 1.5-70.3 2-105.5 1.3-49.2-.9-98.4-3-147.6-4.3-47.7-1.2-95.3-.7-143 1.7l-12 .6a946.3 946.3 0 0 1-139.5-1l-3.1-.3v-38.3l16.3-212.9-83-15.6-81.3-39.5a21.7 21.7 0 0 1-5.6-8.8c-1.9-6-.5-12 1-18l.5-1.3a492.8 492.8 0 0 1 76.4-161A399.3 399.3 0 0 1 138 629.7c19.8-13 40.9-23.9 63-32.3Z" fill="#e78276"/><path d="M232.2 584.6c5.1-.3 10.3.6 15.4 1 .4.1.6.8 0 .9-9 1.9-18 4.5-26.9 7.1l-3.8 1.2c-10 3-19.8 6-29.6 10-19.4 7.9-37.8 18.5-54.8 30.8C67.2 682.8 20 754.3-9.9 828.3a526 526 0 0 0-24.3 77c-.4 1.6-2 5.4-1 7 .7 1.3 3.6 2.1 5 2.9l4.5 2.3 25.2 12.9 2.3 1.1c38 18.6 78.4 34.4 121 35.5l.4-3.7a342 342 0 0 1 9.9-60c.3-1 1.6-.6 1.7.3 3 23.1 2 46.4 1 69.7-1.8 41-4.3 82.2-6.5 123.3-1.2 20.6-2.6 41-3.9 61.7-1.3 20.5-1.7 41.6-4.7 62-.6 4.6-6 7-10 6.6-4.4-.5-7.9-4.5-8-9 0-11.9 1.5-24 2.4-35.8l2.5-33.8c3.1-41.1 6.8-82.2 10.2-123.3a4771 4771 0 0 1 3.8-43.7C76.4 979.8 34.2 963-6.1 943.5c-.6 13.2-2 26.5-3.4 39.6-3.8 36.8-7.1 73.6-9.6 110.5a2254.2 2254.2 0 0 0-4.2 92.7l-.2 7c0 4.4-.5 8.5-4.3 11.7-3.7 3.3-8.9 3.5-12.6 0-5-4.6-4.2-10.9-4-17.1a1675.6 1675.6 0 0 1 1.8-47.2 1321 1321 0 0 1 10.5-109.5l2-14c3.5-26 7.5-52.7 15.5-77.9-3.1-1.5-6.2-3-9.3-4.7-5.5-2.7-11.2-5.4-16.6-8.4-4.2-2.5-7.9-5.8-9-10.8-1.4-5.5.6-11.5 2-16.9v-.4a502 502 0 0 1 26.6-80 523.2 523.2 0 0 1 67.8-117 353.8 353.8 0 0 1 88.7-83.3 239 239 0 0 1 53.8-25.7 142.6 142.6 0 0 1 42.8-7.5Zm90.1-66c6-6.5 18.1.2 15.2 8.8a108.2 108.2 0 0 1-34.7 52A79.4 79.4 0 0 1 247 598l1.7 2.4a321.1 321.1 0 0 0 46.1 52.6c36 31.2 84.8 48 132 36 37.1-9.4 69.8-38.8 79.4-76.2-1.3.6-3 .9-4.8.5-7.7-1.7-15.3-9.8-20.3-15.6-5.3-6.3-9.5-13-12.6-20.7-5.6-14-7.4-32.1.3-45.7 1-1.7 3-.7 3.3 1l.3 2.5c1.5 12.7 3.3 25 9.3 36.6a76 76 0 0 0 18.2 23.1c2.6 2 5.8 3.6 8.1 6l.5.4c.6-5 4.1-7.3 7.6-7.2 3.3.2 7.3 1.6 8.8 2.3l.1.1a341 341 0 0 1 65.1 42 259 259 0 0 1 88.4 129c7.5 25.3 11.8 51.4 16.3 77.4l2.8 16c4.2 23.9 8.9 48.4 18.4 70.7 2.5 5.7.6 11.1-5.5 13.4A1493 1493 0 0 1 688 953c3.7 16 6 32.5 8.7 48.5 6 34.1 13.2 68 19.4 102 3.2 17.5 6.1 35 9.3 52.3l4.7 25.2 2.4 13.6.1.7c.5 2.4 1 4.9.4 7.3-.8 2.7-2.9 4.6-4.8 6.6-1.6 1.6-3.8 1.6-5.7.7l-.7-.3c-3.4-1.6-6-3.2-7.3-7-.7-2.5-1-5.2-1.5-7.7a3535.6 3535.6 0 0 1-7.8-43.6l-1.6-9.1c-5.2-31.4-10.2-62.9-12.8-94.5-1-14-2.3-28.1-3.5-42.2l-.9-10.5c-1.1-13.3-2.5-27-2.7-40.5l-4.5 1.6L657 964c-5.5 2-12.5 6-18.4 5.2-2.9-.3-5-1.2-6.8-2.9 2 28.8 4.8 57.4 8.5 86a1965.7 1965.7 0 0 0 22 135c.6 3.2 1.4 6.4 1.9 9.6.5 3.7-.5 5.9-2.5 9-1.7 2.4-5 3.7-7.8 2-3.6-2.3-5.5-4.3-6.5-8.4-1-3.7-1.6-7.6-2.3-11.4a1654.2 1654.2 0 0 1-11.4-65.2c-7.8-52-12.7-104.4-15.2-156.8a1388 1388 0 0 1-1.4-77.8c0-13.3.5-26.6 1.4-39.9 1-13.4 3-26.5 4.8-39.8 0-.5.7-.5.7 0 .8 14.9 2.1 29.8 2.8 44.7.6 14.3.9 28.5 1.4 42.8.6 18.7 1.5 37.5 2.7 56.2a9.6 9.6 0 0 1 8.5-3.1c4.7-1 9.7-3.4 14.1-5l16.8-5.5 26.4-8.7a679 679 0 0 1-18-80.8l-2-12.3c-4-24.2-8.5-48.5-15.8-72a229.8 229.8 0 0 0-34.8-68.2 370.2 370.2 0 0 0-52.7-55.3C557 627 539.7 614 523 600c.1.9.2 2 0 3-3.5 25.9-17 50-35.8 67.9-37.7 36-93.6 43.4-142 26.5-46.7-16.3-88-55-102.6-102.8-.3-.8.8-1 1.3-.5l2.4 3.3c0-.4.2-.9.7-1a129 129 0 0 0 46.6-29.2 100.2 100.2 0 0 0 21.3-33.3l.4-1c1.7-5 3.2-10.2 7-14.2Z" fill="#000000"/></g>

        <g id="head" transform="matrix(.99789 0 0 1 156 62)"><path id="skin" d="M408.0736,252.0653 C404.3616,222.4443 392.70157,190.994866 380.43857,163.379866 C352.86457,104.993866 289.7376,96.9553 233.1466,84.9173 C177.3026,76.7873 118.1676,69.4463 63.1656,85.6673 C32.2446,93.2423 20.1676,130.0683 25.0476,159.1293 C27.8326,177.2383 36.0756,194.3773 43.1046,211.1603 C57.0756,245.6263 65.9396,282.5253 65.9546,319.8413 C64.9956,344.2273 61.5536,372.0613 89.5776,382.3903 C116.2446,395.6513 118.4976,431.5993 151.8886,451.9953 C165.3906,479.3443 202.1696,481.7513 228.6406,488.0953 C245.3716,491.2973 262.2916,493.6543 279.2576,495.1763 C328.3836,501.4713 367.6836,487.2363 393.3996,443.4743 C410.6086,416.8413 423.4236,386.0893 420.2576,353.8113 C417.1046,319.8213 411.8516,286.0093 408.0736,252.0653 Z" fill="#d08b5b"/><path d="M233.5706,13.9589 C236.3746,10.7809 240.6946,11.8709 243.3166,14.3839 C245.0236,14.8869 246.6776,15.6349 248.2396,16.6249 C251.7696,16.1719 255.4706,16.1719 258.9326,16.2989 C259.7726,15.8279 260.6726,15.4089 261.6526,15.0489 C268.6526,12.4899 274.8516,13.7899 279.9646,17.2159 C282.4276,14.8859 285.5346,13.4239 289.5066,13.6449 C293.0516,13.8429 295.5776,15.5109 297.7426,17.7079 C299.9016,14.5949 303.3916,12.3739 307.7396,12.0649 C313.8166,11.6329 319.6586,14.0699 324.5006,17.8429 C327.3216,14.6069 331.1676,12.7469 335.4536,12.7289 C338.2736,12.2169 341.2496,12.4189 343.9386,13.2309 C347.8426,14.4099 351.2706,16.6189 354.0006,19.4859 C358.3196,15.3499 363.6066,12.3739 369.7026,12.8079 C377.5926,13.3779 384.1326,19.1789 387.1726,26.3189 C392.5126,28.4579 397.4426,31.5089 401.5626,35.8589 C401.7826,36.0879 401.9926,36.3279 402.2126,36.5689 C404.4326,37.3879 406.5226,38.5489 408.3626,40.0779 C414.1926,44.9289 415.4926,51.9489 413.5626,58.8279 C413.8326,59.9289 414.0626,61.0489 414.2726,62.1679 C419.7326,62.9979 424.6926,66.1489 427.5126,71.2789 C431.3726,78.3189 430.6126,87.5979 426.4326,94.3189 C424.6356,97.2099 422.3546,99.6459 419.7926,101.7759 C422.6896,108.3559 421.2996,116.2079 416.6286,121.5299 C415.4906,123.3649 414.0936,125.0209 412.5216,126.5199 C414.2566,133.3229 411.1706,140.3419 405.0106,143.9769 L404.483711,145.295641 C404.395156,145.514789 404.305267,145.7329 404.2126,145.9489 C404.1446,146.2289 404.0606,146.4999 403.9776,146.7729 C403.8306,149.1869 403.0356,151.5559 401.4576,153.7879 C398.227,158.362167 394.22268,161.345074 392.099428,166.684931 L391.8866,167.2459 C390.9736,169.7729 388.0256,171.5559 385.5136,170.7759 C399.4606,199.4169 406.7726,231.2859 411.7926,262.5179 C414.295725,278.09915 416.227561,293.734013 417.794101,309.429082 L419.330606,325.058487 C420.681949,338.950977 421.884908,352.889438 421.8926,366.8279 C421.9126,398.3589 412.8926,428.6879 393.5326,453.7789 C375.2226,477.4979 349.3126,494.6879 320.0426,501.4579 C289.8226,508.4379 254.3726,505.6879 227.2726,489.7079 C219.2826,485.0089 226.2826,473.7079 234.4126,477.4889 C249.8026,484.6489 265.4426,489.9689 282.5026,491.1589 C299.1326,492.3279 315.8026,490.2479 331.5726,484.8079 C357.6626,475.7989 379.8626,456.9289 394.1326,433.4289 C401.1626,421.8479 406.2526,409.2789 408.9626,395.9979 C412.335933,379.4451 411.827706,362.335879 410.588207,345.571389 L410.5026,344.4289 C408.0526,312.1279 404.8226,279.6279 399.6026,247.6489 C394.9886,219.3699 387.8936,191.6639 378.6826,164.5709 C375.0746,161.3949 371.0386,158.7669 366.7196,156.7709 C335.0926,155.4499 303.4086,155.8359 271.8226,158.0179 C244.884669,159.891003 218.077249,163.059898 191.472347,167.678496 L188.6226,168.1789 C182.7326,169.2279 176.1926,169.8279 170.6426,172.1989 C165.8826,174.2389 163.9526,178.1589 162.7526,182.9779 C159.7326,195.1679 159.2726,208.5089 158.7626,221.0089 C158.2626,233.2279 159.3926,245.5489 158.4126,257.7279 C157.5826,267.9179 154.9726,278.3479 147.4226,285.7189 C143.4726,289.5779 138.6126,291.6879 134.0526,294.6179 C131.1026,296.5089 129.8526,298.4579 130.2326,301.9579 C131.0526,309.6179 137.2226,319.2679 130.2926,325.8279 C129.0726,326.9779 126.9626,327.1279 125.7626,325.8279 C122.9026,322.7189 118.9526,320.3479 115.5626,317.8379 C114.1426,316.7989 115.3226,314.7789 116.9326,315.4979 C119.0526,316.4489 121.2126,317.5689 123.4226,318.5489 C118.5426,314.5289 111.6026,312.5579 105.8226,311.3879 C102.9126,310.8079 99.8526,310.6379 96.8226,310.9089 C94.5826,311.9779 92.2926,312.9689 90.0026,313.9379 C87.0926,315.1589 84.1526,316.2679 81.1926,317.3189 C70.9226,325.6879 66.0226,339.2989 68.1626,352.6089 C69.3326,359.9579 72.7226,367.9489 79.1126,372.2389 C86.6826,377.3189 96.8226,375.1379 105.0026,378.9089 C112.6626,382.4379 117.3226,389.5689 120.8126,396.9489 L122.267564,400.021495 C125.506834,406.824289 128.836513,413.446596 133.2626,419.6379 C138.3826,426.8079 144.6526,433.2479 151.4926,438.7789 C154.810933,441.455567 158.347739,443.863344 162.002884,446.056151 L163.0026,446.6489 C166.7026,448.8189 169.3526,450.8879 169.6026,455.4779 C169.6826,457.0779 168.6726,458.5379 167.3726,459.3679 C161.7726,462.9179 156.2026,458.4779 151.5426,455.3779 C146.5126,452.0379 141.7026,448.2789 137.2526,444.1789 C128.7926,436.3989 121.4726,427.1589 115.8426,417.1279 C111.5526,409.4889 109.1126,398.7389 102.3326,392.8189 C98.1926,389.2079 92.3426,389.1789 87.1726,388.5179 C82.3626,387.8989 77.8126,386.8989 73.5326,384.5289 C56.1226,374.8589 51.2026,351.4489 55.3326,333.3589 C56.0326,330.3079 57.0126,327.3379 58.2226,324.4779 C51.7426,325.5579 44.4626,318.8589 47.0926,312.0979 C47.2926,311.5879 47.5226,311.1089 47.7426,310.6179 C43.4726,307.8079 40.1026,303.5489 38.5026,297.9779 C37.6826,295.0979 37.5626,292.1879 37.9926,289.3779 C35.9226,287.9889 34.2126,286.0779 33.1126,283.7279 C29.6726,282.1379 26.6226,279.7589 24.8026,276.3589 C22.2826,271.6679 22.6026,267.3479 24.5226,263.4579 C24.2526,262.9689 23.9926,262.4689 23.7426,261.9579 C16.6926,257.4889 11.7726,249.7879 12.3326,241.2479 C12.5126,238.4179 13.2126,235.8679 14.2926,233.5689 C14.2026,233.2789 14.1126,232.9779 14.0326,232.6879 C8.1326,229.6879 3.2526,224.7589 1.5126,218.1789 C-0.2274,211.5579 1.8226,204.9579 5.9226,199.8779 C-0.0774,195.4889 -3.6874,189.3589 -1.4974,180.0879 C-0.6074,176.3189 1.1826,172.8879 3.6026,169.9979 C3.5926,169.9089 3.5726,169.8189 3.5526,169.7279 L2.99125469,169.292531 C-4.41579976,163.447537 -8.67374146,155.998876 -4.1274,146.8379 C-2.0874,142.7189 0.8226,139.8479 4.2426,137.9579 L4.4126,137.4179 L4.4126,137.4179 C1.9626,132.1679 1.1326,126.3379 2.8226,120.2079 C4.2026,115.1589 7.4726,111.1379 11.6526,108.4689 C11.3726,106.2079 11.4126,103.7989 11.8626,101.1879 C12.6126,96.7789 14.8026,92.9289 18.0026,90.1989 C18.1226,89.6179 18.2726,89.0489 18.4426,88.4779 C19.5226,84.9889 21.5426,81.1989 23.8826,78.3879 C25.8126,76.0579 27.9726,75.2079 30.6126,75.1179 C30.4526,72.9689 30.5626,70.7879 31.0026,68.5779 C32.3526,61.7589 36.6926,55.3479 43.1226,52.4379 C45.7626,51.2479 48.5426,50.8989 51.2226,51.1879 C53.5026,46.3879 57.9526,42.9089 63.4226,42.1589 C65.5526,41.8589 67.5326,41.8779 69.3526,42.1489 C70.3826,41.6679 71.4526,41.2389 72.5726,40.8479 C73.3126,40.5879 74.0626,40.3479 74.8126,40.1089 C77.3426,36.9689 80.6726,34.4579 84.5626,32.9489 C89.0526,31.1989 93.6226,31.3779 97.6726,32.8479 L98.9626,32.5779 L98.9626,32.5779 C100.9826,29.0779 104.2026,26.3679 109.1526,25.1379 C114.7726,23.7479 120.5426,25.6879 124.9626,29.2189 C124.9826,29.2189 125.0026,29.2189 125.0326,29.2079 C127.3426,24.0379 131.2926,20.4379 137.9226,20.6879 C142.0526,20.8479 145.7826,22.8989 148.6626,25.8189 C150.2626,25.6179 151.8626,25.4379 153.4726,25.2589 C155.1726,23.2679 157.0626,21.4089 159.1526,19.7389 C162.5726,16.9979 167.0226,17.2189 169.5426,21.0779 C170.0926,21.9179 170.6026,22.7679 171.1126,23.6179 L173.4226,23.4579 L173.4226,23.4579 C176.1426,19.7879 179.8526,17.3079 184.9326,17.1089 C189.5926,16.9179 192.9126,19.1989 195.4426,22.3879 C197.5026,22.3379 199.5726,22.2989 201.6426,22.2679 C204.0526,19.4779 206.8926,17.0179 210.1326,14.9779 C212.6126,13.4179 216.2726,13.9489 218.2826,16.0289 C219.6406,17.4429 220.9046,18.9189 222.0796,20.4469 C225.1086,17.0509 229.1996,14.8139 233.5706,13.9589 Z M86.3926,331.5085 C91.0626,328.8485 97.3426,331.7285 101.8626,333.9885 C107.3726,336.7385 112.8426,340.8885 116.2126,346.0885 C120.8026,353.1685 110.0126,358.8885 105.1826,352.5385 C102.2126,348.6285 99.8426,344.6885 96.2426,341.2685 C92.9526,338.1285 88.1826,336.0285 86.2926,331.8885 C86.2226,331.7485 86.2426,331.5885 86.3926,331.5085 Z M89.6732526,159.657628 L89.7606,159.4079 C91.0886,155.7749 85.2926,154.2089 83.9756,157.8119 C81.9796,163.2729 84.2806,169.2099 89.6746,171.5679 C91.1696,172.2219 92.8776,171.9949 93.7786,170.4919 C94.5356,169.2269 94.1846,167.0349 92.7026,166.3879 C89.6676263,165.060768 88.6510744,162.718264 89.6732526,159.657628 L89.6732526,159.657628 Z M39.7416,149.4989 C42.6426,146.9389 38.3856,142.7079 35.4986,145.2569 C32.8046,147.6349 30.8066,150.8649 31.3256,154.5799 C31.8546,158.3659 34.7096,161.0389 37.8346,162.9279 C41.1466,164.9309 44.1656,159.7449 40.8626,157.7469 L40.4915497,157.519926 C39.1050722,156.658851 37.4822667,155.4749 37.2476,153.7809 C36.9986,151.9809 38.5216,150.5759 39.7416,149.4989 Z M56.2090224,104.327047 L56.4146,104.1759 C59.5306,101.9519 56.5376,96.7459 53.3856,98.9949 C50.4956,101.0579 48.1776,103.7379 47.9336,107.4339 C47.6966,111.0259 49.5246,114.1399 51.9146,116.6669 C54.5736,119.4779 58.8116,115.2299 56.1576,112.4249 C53.5716208,109.691067 53.0661668,106.707954 56.2090224,104.327047 L56.2090224,104.327047 Z" id="ðŸ–-Ink" fill="#000000"/></g>

        <g id="face" transform="translate(315 248)"><path d="M107 164c30.4 0 55-19 55-42.5S137.4 79 107 79s-55 19-55 42.5S76.6 164 107 164Z" fill="#fff"/><path d="M195 148c23.7 0 47-15.4 47-34.5 0-19-19.3-34.5-43-34.5s-43 15.4-43 34.5c0 10.5 3.4 3.7 12.6 10 7.5 5.2 15.7 24.5 26.4 24.5Z" fill="#fff"/><path d="m199.7 206 .8-.1c5.7-.3 11.1-1.2 16.2 2a10.5 10.5 0 0 1 0 18c-5.3 3.2-11 2.1-17 2a953.9 953.9 0 0 0-43.9-.4c-8.8 0-17.6 0-26.4-.2l-3.8-.1c-9-.3-18.5 0-27.4-1.7l-.3-.1c-1.6-.5-2.4-3-.6-3.9 8.9-4 19-5.8 28.4-7.7 9.6-2 19.4-3.4 29.1-4.5a588.5 588.5 0 0 1 45-3.4ZM170.2 80.1l.6-.4c7.1-4.7 17.3-9.2 25.4-5.6.5.2.9.4 1.2.7a51.7 51.7 0 0 1 44 27.8 34.6 34.6 0 0 1-10.3 44.8 48.4 48.4 0 0 1-24.5 10.3c-3 .2-6 .3-8.9-.6 1.4 2.9 2.4 5.8 3 9 1.7 10.7-2.6 19.6-12.6 24.2-8.8 4.1-21 5.7-29.7.5-7.3-4.3-4.9-18.7 4.8-17.4 6.5.8 12.4 3 18.9.2 5.2-2.2 2-10 .4-14-2.6-6.7-6.5-13-9.7-19.5l-.6-1.3c-2-4.2-4.4-8.7-6.3-13.3-1 5.4-3 10.7-5.1 15.6a40.4 40.4 0 0 1-27.4 22 138 138 0 0 1-39.7 3.8c-13-.4-26.7-3.8-36.2-13.2C40 136.5 45 106.4 63.4 91.9a63.6 63.6 0 0 1 43.9-14 56 56 0 0 1 24 1 49.6 49.6 0 0 1 27 15.4l1.8-3.6c-.3-.2-.4-.6-.1-.9l1.6-1.4c2.2-3.1 5-5.8 8.6-8.2Zm-126 80.9c-.7-1 .6-2 1.4-1.5a90.7 90.7 0 0 0 23 11.3c8 2.4 16.5 2.2 24.6 4.2 3 .8 2.5 4.7 0 5.7-9 3.4-19 .5-27.5-3-8.6-3.7-16.1-9-21.5-16.7ZM92.5 87l.2-.3-.6.2a54 54 0 0 0-25 17.1c-11.6 14-11.7 36 5.5 45.5 9.2 5 20.2 5.3 30.5 4.8l2-.1c9.1-.5 18.3-1.3 27-3.7a28.2 28.2 0 0 0 19.8-17.7l.3-.8c3.6-9.5 5.5-20.1-1.2-28.7-11.4-14.7-37.8-17.6-54.1-10.6-4 1.7-7-2.4-4.4-5.7ZM197 83a5 5 0 0 1-.9.7c-3.3 2-7 2-10.6 3A45 45 0 0 0 176 90c-4.8 2.5-9.8 5.4-14.4 8.6a34 34 0 0 1 5.2 20c3.2 2.8 5.9 6.2 8.7 9.3l2.5 2.7a218.8 218.8 0 0 1 13.2 16 7 7 0 0 1 1-1.9 6 6 0 0 1 6.5-2.7c2.3.6 4 1.7 6.4 1.7a37.7 37.7 0 0 0 24-11c9.1-9.5 4.3-23-3-32.2A49 49 0 0 0 197 83Zm-82.3 23c3-.8 7.4.6 8.7 3.6l1 2.2-.2-.1 1 2.3.8.7a11.7 11.7 0 0 1 3.2 11.4 10.8 10.8 0 0 1-10.4 7.8c-14.2 0-17.7-23.9-4.1-27.8Zm85.6-4.2c6.6-.3 11 5.5 11.5 11.4.2 3.4-.4 7.1-1.4 10.3a10 10 0 0 1-19.4-.2c-1.3-3.1-2-6.6-2.1-10-.2-6.5 5.3-11.2 11.4-11.5ZM114 48.2c6.6-1 13 2.2 14 9.4s-4.4 12-11 12.6c-12.6 1.4-25.4 1.7-38 2.2-5.3.3-10.6.4-15.8.4h-2.7c-4.9 0-11.2 1-15.7-1.4-.3-.1-.3-.5 0-.7 3-3.9 9.5-5.5 14-7.2l.5-.1a264 264 0 0 1 17.6-6l3-1c11.2-3.2 22.7-6.3 34-8.2Zm42.2-3.5c4-1.5 8.2-.5 11 2 9.3 2.7 19 4.7 28.3 7l2.6.6c11.8 3 24.7 5.2 35.7 10.6 1.2.6.4 2-.6 2.2-12.2 1.5-25.4-1-37.5-2.3-12.5-1.5-25-3.9-37.4-4.8-9-.7-10.3-12.2-2.1-15.3Z" fill="#000"/></g>

        <g id="facial-hair" transform="translate(279 400)"><path d="M305.2686,13.0048 C301.9546,8.5558 295.9976,2.7168 289.9716,3.0308 C289.2006,3.0708 288.9116,3.9058 289.3746,4.4708 C291.3456,6.8778 294.0386,8.5898 296.0136,11.0468 C298.3506,13.9548 300.0376,17.4618 301.1346,21.0088 C302.7286,26.1618 303.1686,31.9938 301.7476,37.2338 C299.2436,46.4698 291.3266,53.2398 282.6886,56.6968 C274.1386,60.1188 263.8506,61.2878 255.7646,56.2738 C243.8296,48.8718 233.7066,38.2018 218.7056,37.9908 C215.1966,37.9418 212.7236,39.5488 211.2506,41.8428 C209.7706,39.6308 207.3286,38.0658 203.9076,38.0268 C187.0906,37.8378 174.5386,49.4148 160.4236,56.6318 C150.8846,61.5098 138.5416,59.9958 128.7006,56.7728 C119.4176,53.7338 109.3406,47.6308 105.8386,37.9938 C103.9056,32.6718 104.3386,26.4578 106.3236,21.2118 C107.6286,17.7618 109.6436,14.4288 112.1366,11.7178 C114.7216,8.9058 118.1196,7.1378 120.7676,4.4718 C121.3086,3.9268 120.8816,3.0798 120.1706,3.0308 C108.9246,2.2678 98.7696,15.6958 96.6466,25.4378 C94.5556,35.0318 97.6736,44.6008 103.9846,51.9218 C116.8176,66.8058 140.5796,71.7148 159.0736,67.3408 C174.0426,63.8018 188.2596,55.6498 203.9076,56.8198 C207.3376,57.0768 209.7996,55.6468 211.2856,53.4788 C212.7736,55.7098 215.2516,57.1688 218.7056,56.8348 C233.2896,55.4218 246.3066,65.7498 260.4626,68.2718 C271.7336,70.2788 283.9086,67.5718 293.5666,61.4998 C303.6616,55.1528 310.7676,44.9718 311.2356,32.8338 C311.5046,25.8508 309.4556,18.6258 305.2686,13.0048" id="ðŸ–-Ink" fill="#000000"/></g>

        <g id="eyewear" transform="translate(203 303)"><path d="M335.396552,-59.6130626 C341.176552,-61.5940626 345.786552,-55.5830626 344.676552,-50.3440626 C343.366552,-44.1740626 336.926552,-39.2220626 332.656552,-34.8730626 C328.176552,-30.2930626 323.606552,-25.8030626 318.866552,-21.4830626 C309.816552,-13.2220626 300.436552,-5.44306262 290.546552,1.80693738 L287.522492,4.02283738 C278.456252,10.6558374 269.417552,17.1349374 259.706552,22.8769374 C254.446552,25.9769374 249.136552,28.9769374 243.756552,31.8669374 C241.837552,32.8969374 239.496552,34.4859374 237.087552,35.6669374 C245.896552,42.4669374 252.676552,52.8469374 254.146552,62.5169374 C257.786552,86.5369374 242.306552,108.796937 220.465552,117.646937 C209.576552,122.056937 197.456552,123.336937 185.816552,122.006937 C173.976552,120.655937 161.976552,117.155937 154.286552,107.456937 C147.456552,98.8469374 144.996552,87.8579374 144.506552,77.0669374 C144.276552,71.9469374 144.326552,66.9059374 145.406552,62.3769374 C140.696552,62.4169374 135.986552,62.3969374 131.316552,62.4469374 C119.776552,62.5569374 108.215552,62.6079374 96.6665524,62.2869374 C84.7565524,61.9469374 72.9065524,61.4169374 61.0365524,60.3579374 C55.8265524,59.8869374 50.6465524,59.1169374 45.4655524,58.3769374 C40.4365524,57.6669374 34.8865524,57.3969374 30.1865524,55.3369374 C29.8665524,55.2069374 30.0003371,54.7469374 30.2765524,54.6559374 C35.2865524,53.0369374 40.9765524,53.3259374 46.1965524,53.0069374 L51.2842492,52.6983426 C55.5218586,52.4452231 59.7565524,52.212366 64.0065524,52.0759374 C73.8240524,51.7530624 83.6338962,51.6736561 93.4494821,51.5054374 L97.6565524,51.4269374 C109.206552,51.1969374 120.756552,51.0669374 132.306552,50.6969374 C137.096552,50.5469374 141.896552,50.2669374 146.706552,50.0069374 C147.266552,48.7359374 148.087552,47.5759374 148.876552,46.4469374 C151.236552,43.0669374 154.236552,40.0869374 157.346552,37.3869374 C163.715552,31.8259374 170.886552,27.6969374 178.886552,24.9269374 C186.814186,22.1912707 198.409172,20.8341567 206.796178,21.0107485 C215.183185,21.1873402 227.135719,22.3702707 230.976552,29.2269374 C231.376552,29.9369374 238.686552,28.5669374 240.856552,26.9059374 C245.926552,23.0369374 250.906552,19.0569374 255.795552,14.9769374 C264.876552,7.38693738 274.215552,-0.0830626211 282.816552,-8.20306262 C291.686552,-16.5830626 300.486552,-25.1030626 308.926552,-33.9030626 C313.166552,-38.3130626 317.396552,-42.7330626 321.506552,-47.2530626 C325.706552,-51.8630626 329.316552,-57.5430626 335.396552,-59.6130626 Z" id="ðŸ–-Ink" fill="#000000"/></g>
    </g>
</svg>