<svg xmlns="http://www.w3.org/2000/svg" viewBox="0 0 704 704" fill="none" width="512" height="512">
    <desc>"Open Peeps" by "Pablo Stanley", licensed under "CC0 1.0". / Remix of the original.</desc>
    <mask id="viewbox"><rect width="704" height="704" rx="0" ry="0" x="0" y="0" fill="#ffffff" /></mask>
    <g mask="url(#viewbox)">
        <rect id="background" fill="#ffd5dc" width="704" height="704" x="0" y="0" />

        <g id="body"><path id="skin" d="M705.3 1074a2351.1 2351.1 0 0 1-15.6-101c-1-7.7-2.5-16.4 2.7-22 7.3-8 14-14.8 14.8-26.2.8-10.7-2.8-22.4-5-32.8a809.4 809.4 0 0 0-17.3-64.7c-6.6-21.7-13.9-43.2-21.3-64.6-6.9-20-13.5-40.3-22.5-59.5-17-36.5-46-63.5-81.6-81.6-9-4.5-27-20.5-36.3-24-8.5-3.4-8.5 6.3-16.9 2.6-6.7-2.9-13-6.7-16.7-13.2-4-7-14.3-16.9-15.9-25-3.3-17.4.3-32.2-12-45.3a90 90 0 0 0-41.1-23.8c-33.7-9.3-78.5-2.8-98.8 28.5-9.7 14.9-13 33-26.2 45.1-11.4 10.7-8.8 18-23.6 23.4-.9.3-23.6-4.5-24.4-4.2-16.2-3.5-31.7 6.2-46.5 11.8a325.4 325.4 0 0 0-63 32.3 399.2 399.2 0 0 0-102.3 98.5 482.5 482.5 0 0 0-76.4 161c-1.7 6.4-3.5 13-1.5 19.4 1.7 5.3 5.4 9.2 9.8 12.4 6 4.3 18 7 17.7 15.7-.1 6.6-2.4 13.5-3.5 20-1.3 7.7-2.3 15.5-3.4 23.2-4.8 35.4-8.6 71-10.3 106.6a920 920 0 0 0-.5 106c.1 2.3.8 4.5 2 6.2-1 .4-1.2 2.4.1 2.7l2.7.5a12 12 0 0 0 7 2.4l5.5.2c19.3 4 38.6 7.9 58.1 10.8 23.8 3.5 47.6 6.3 71.5 8.7 49.2 4.8 98 3.2 147.1.6a1877 1877 0 0 1 147.4-2c49.2 1.4 98.4 3.5 147.6 4.4 55 1 110-.5 164.8-5 7.5-.5 12.2-6.5 10.7-14-8.9-44.7-19-89.1-27-134Z" fill="#edb98a"/><path id="shirt" d="m201 597.5 1.2-.4c14.5-5.7 29.6-14.8 45.4-11.4.5-.2 10.8 1.9 17.9 3.2l-6.7 7L247 598c40.7 67.1 88.8 100.7 144.3 100.7 55.5 0 97.7-33.6 126.4-100.7l4-1c.4 0 1 .2 1.5.4 9.3 3.6 27.4 19.6 36.3 24.1 35.6 18 64.5 45 81.6 81.6 8.7 18.6 15.2 38 21.8 57.5l.7 2c7.4 21.4 14.7 43 21.3 64.6 6.3 20.4 12 41 16.6 61.8l.7 2.9c2.2 10.4 5.8 22 5 32.8a29 29 0 0 1-3 10.7l-80.4 29 38.4 261.3c-35.1 1.5-70.3 2-105.5 1.3-49.2-.9-98.4-3-147.6-4.3-47.7-1.2-95.3-.7-143 1.7l-12 .6a946.3 946.3 0 0 1-139.5-1l-3.1-.3v-38.3l16.3-212.9-83-15.6-81.3-39.5a21.7 21.7 0 0 1-5.6-8.8c-1.9-6-.5-12 1-18l.5-1.3a492.8 492.8 0 0 1 76.4-161A399.3 399.3 0 0 1 138 629.7c19.8-13 40.9-23.9 63-32.3Z" fill="#8fa7df"/><path d="M232.2 584.6c5.1-.3 10.3.6 15.4 1 .4.1.6.8 0 .9-9 1.9-18 4.5-26.9 7.1l-3.8 1.2c-10 3-19.8 6-29.6 10-19.4 7.9-37.8 18.5-54.8 30.8C67.2 682.8 20 754.3-9.9 828.3a526 526 0 0 0-24.3 77c-.4 1.6-2 5.4-1 7 .7 1.3 3.6 2.1 5 2.9l4.5 2.3 25.2 12.9 2.3 1.1c38 18.6 78.4 34.4 121 35.5l.4-3.7a342 342 0 0 1 9.9-60c.3-1 1.6-.6 1.7.3 3 23.1 2 46.4 1 69.7-1.8 41-4.3 82.2-6.5 123.3-1.2 20.6-2.6 41-3.9 61.7-1.3 20.5-1.7 41.6-4.7 62-.6 4.6-6 7-10 6.6-4.4-.5-7.9-4.5-8-9 0-11.9 1.5-24 2.4-35.8l2.5-33.8c3.1-41.1 6.8-82.2 10.2-123.3a4771 4771 0 0 1 3.8-43.7C76.4 979.8 34.2 963-6.1 943.5c-.6 13.2-2 26.5-3.4 39.6-3.8 36.8-7.1 73.6-9.6 110.5a2254.2 2254.2 0 0 0-4.2 92.7l-.2 7c0 4.4-.5 8.5-4.3 11.7-3.7 3.3-8.9 3.5-12.6 0-5-4.6-4.2-10.9-4-17.1a1675.6 1675.6 0 0 1 1.8-47.2 1321 1321 0 0 1 10.5-109.5l2-14c3.5-26 7.5-52.7 15.5-77.9-3.1-1.5-6.2-3-9.3-4.7-5.5-2.7-11.2-5.4-16.6-8.4-4.2-2.5-7.9-5.8-9-10.8-1.4-5.5.6-11.5 2-16.9v-.4a502 502 0 0 1 26.6-80 523.2 523.2 0 0 1 67.8-117 353.8 353.8 0 0 1 88.7-83.3 239 239 0 0 1 53.8-25.7 142.6 142.6 0 0 1 42.8-7.5Zm90.1-66c6-6.5 18.1.2 15.2 8.8a108.2 108.2 0 0 1-34.7 52A79.4 79.4 0 0 1 247 598l1.7 2.4a321.1 321.1 0 0 0 46.1 52.6c36 31.2 84.8 48 132 36 37.1-9.4 69.8-38.8 79.4-76.2-1.3.6-3 .9-4.8.5-7.7-1.7-15.3-9.8-20.3-15.6-5.3-6.3-9.5-13-12.6-20.7-5.6-14-7.4-32.1.3-45.7 1-1.7 3-.7 3.3 1l.3 2.5c1.5 12.7 3.3 25 9.3 36.6a76 76 0 0 0 18.2 23.1c2.6 2 5.8 3.6 8.1 6l.5.4c.6-5 4.1-7.3 7.6-7.2 3.3.2 7.3 1.6 8.8 2.3l.1.1a341 341 0 0 1 65.1 42 259 259 0 0 1 88.4 129c7.5 25.3 11.8 51.4 16.3 77.4l2.8 16c4.2 23.9 8.9 48.4 18.4 70.7 2.5 5.7.6 11.1-5.5 13.4A1493 1493 0 0 1 688 953c3.7 16 6 32.5 8.7 48.5 6 34.1 13.2 68 19.4 102 3.2 17.5 6.1 35 9.3 52.3l4.7 25.2 2.4 13.6.1.7c.5 2.4 1 4.9.4 7.3-.8 2.7-2.9 4.6-4.8 6.6-1.6 1.6-3.8 1.6-5.7.7l-.7-.3c-3.4-1.6-6-3.2-7.3-7-.7-2.5-1-5.2-1.5-7.7a3535.6 3535.6 0 0 1-7.8-43.6l-1.6-9.1c-5.2-31.4-10.2-62.9-12.8-94.5-1-14-2.3-28.1-3.5-42.2l-.9-10.5c-1.1-13.3-2.5-27-2.7-40.5l-4.5 1.6L657 964c-5.5 2-12.5 6-18.4 5.2-2.9-.3-5-1.2-6.8-2.9 2 28.8 4.8 57.4 8.5 86a1965.7 1965.7 0 0 0 22 135c.6 3.2 1.4 6.4 1.9 9.6.5 3.7-.5 5.9-2.5 9-1.7 2.4-5 3.7-7.8 2-3.6-2.3-5.5-4.3-6.5-8.4-1-3.7-1.6-7.6-2.3-11.4a1654.2 1654.2 0 0 1-11.4-65.2c-7.8-52-12.7-104.4-15.2-156.8a1388 1388 0 0 1-1.4-77.8c0-13.3.5-26.6 1.4-39.9 1-13.4 3-26.5 4.8-39.8 0-.5.7-.5.7 0 .8 14.9 2.1 29.8 2.8 44.7.6 14.3.9 28.5 1.4 42.8.6 18.7 1.5 37.5 2.7 56.2a9.6 9.6 0 0 1 8.5-3.1c4.7-1 9.7-3.4 14.1-5l16.8-5.5 26.4-8.7a679 679 0 0 1-18-80.8l-2-12.3c-4-24.2-8.5-48.5-15.8-72a229.8 229.8 0 0 0-34.8-68.2 370.2 370.2 0 0 0-52.7-55.3C557 627 539.7 614 523 600c.1.9.2 2 0 3-3.5 25.9-17 50-35.8 67.9-37.7 36-93.6 43.4-142 26.5-46.7-16.3-88-55-102.6-102.8-.3-.8.8-1 1.3-.5l2.4 3.3c0-.4.2-.9.7-1a129 129 0 0 0 46.6-29.2 100.2 100.2 0 0 0 21.3-33.3l.4-1c1.7-5 3.2-10.2 7-14.2Z" fill="#000000"/></g>

        <g id="head" transform="matrix(.99789 0 0 1 156 62)"><path id="skin" d="M242.041161,75.2596156 C298.821805,75.2596156 381.931473,113.176005 388.1815,149.6554 C395.546993,192.645412 411.906116,354.298901 402.999889,407.198049 C394.093662,460.097197 359.365264,499.183765 282.566771,499.183765 C205.768277,499.183765 148.446655,457.302629 135.285147,442.922462 C126.510808,433.335685 116.807627,413.625855 106.175605,383.792973 C78.1438338,379.041337 64.0629699,365.492596 63.9330131,343.146752 C63.8030564,320.800909 70.8440111,306.175148 85.0558771,299.269471 C77.3858027,206.570323 81.6113554,148.741029 97.7325351,125.781589 C121.914305,91.3424282 185.260516,75.2596156 242.041161,75.2596156 Z" fill="#edb98a"/><path d="M223.340354,-2.99954907 L225.6415,-2.9836 C236.0805,-2.8136 246.6015,-2.4236 257.0805,-1.5636 C257.5715,-1.6136 258.0715,-1.6536 258.5615,-1.7036 C278.2815,-3.5946 297.9715,-1.8946 317.6815,-1.0636 C336.4605,-0.2736 356.2905,1.6664 373.1515,10.6554 C375.3195,11.8094 377.1565,13.1214 378.7235,14.5834 C380.9205,14.8924 383.0155,15.5154 384.8985,16.5624 C390.3265,15.4654 396.3865,17.8974 397.6705,24.1964 C399.5405,33.4264 400.2505,42.7354 399.1305,52.0964 C399.1015,52.3154 399.0805,52.5464 399.0505,52.7864 C401.3175,61.4704 401.1665,70.9544 399.2825,79.5194 C400.0765,90.3414 400.5295,101.1944 400.5925,112.0294 C400.6365,119.5244 400.9705,127.1554 400.2735,134.6284 C399.6595,141.1984 396.9555,146.3974 392.7005,151.3874 C391.8985,152.3274 390.5435,152.4834 389.4165,152.2554 C389.1245,152.1964 388.8705,152.1164 388.6405,152.0214 C391.2055,157.5204 393.2335,163.3544 395.3115,168.9264 C398.6115,177.7864 401.8115,186.7964 404.0805,195.9764 C408.6815,214.4854 411.7105,233.3464 413.4715,252.3364 C416.5805,286.1264 417.7505,320.2064 418.3515,354.1264 C418.9315,386.2664 416.1015,419.7864 397.7905,447.2664 C381.7815,471.3064 357.4015,488.7564 330.2505,498.1764 C314.8005,503.5464 297.6915,505.5364 281.3715,506.0264 C272.9415,506.2764 264.4915,505.9164 256.1115,505.0464 C247.9815,504.1964 239.5715,504.2864 233.6305,498.1264 C232.0005,496.4364 232.0215,492.9664 234.4315,491.8664 C239.0215,489.7764 242.1305,489.5564 247.1615,490.2464 C251.3305,490.8154 255.5115,491.2664 259.7105,491.5564 C268.7105,492.1864 277.7715,492.2064 286.7715,491.5164 C303.3115,490.2464 320.2315,485.5754 335.2505,478.4964 C358.8005,467.3764 379.0315,449.1554 389.9515,425.2464 C402.6415,397.4964 401.8215,365.3464 401.2315,335.5264 C400.5805,302.8264 399.3715,270.2264 396.5315,237.6364 C395.1515,221.8364 393.0215,206.1464 391.1015,190.4164 C390.0905,182.0564 388.7615,173.7354 387.1305,165.4764 C386.2715,161.1054 385.1515,156.7964 384.2315,152.4564 C383.5615,152.5654 382.8805,152.6264 382.1815,152.6554 C378.0005,152.7964 373.4315,151.7764 370.3305,148.8064 C369.1415,149.6164 367.6305,150.1264 365.8115,150.2164 C348.6215,151.0654 331.1615,150.0164 313.9415,150.0064 C296.6615,149.9964 279.3715,150.0064 262.0805,150.0564 C244.8115,150.1054 227.4915,150.2664 210.2315,149.8064 C194.1615,149.3764 177.5505,149.7264 161.6915,146.7864 C156.3615,165.7264 156.5505,186.5364 167.6615,203.4564 C170.8005,208.2264 168.2505,213.8464 164.1615,216.8264 C159.9805,219.8674 152.4655,224.5304 146.0355,225.0094 C145.4125,226.4084 144.7725,227.8004 144.1645,229.1884 C141.0955,236.1814 138.3305,243.2184 136.3955,250.6224 C135.3985,254.4384 134.5405,258.3174 133.8185,262.2204 C133.8775,262.9034 133.9385,263.5854 134.0115,264.2664 C134.0115,264.3364 134.0215,264.4054 134.0315,264.4854 C134.0715,264.7664 134.1215,265.0864 134.1515,265.2664 C134.5215,267.2264 134.8805,269.1864 135.2715,271.1364 C136.2015,275.8864 136.9205,280.6764 137.4315,285.4854 C138.3615,294.2864 138.2715,305.7264 129.6915,310.9364 C125.1015,313.7264 119.6015,313.4364 114.7505,311.5654 C111.4915,310.3064 108.7215,308.5264 105.7215,306.7764 C103.9415,305.7354 102.0805,304.8864 100.3405,303.8064 C99.8615,303.5064 99.4015,303.1464 98.9715,302.7664 C95.7215,303.4564 92.5505,304.7464 90.7715,305.6264 C86.0005,307.9964 81.8115,311.4264 78.2505,315.3664 C70.6815,323.7564 68.4115,335.5764 69.4715,346.5464 C70.4605,356.7564 74.4715,368.4854 82.5405,375.2764 C86.0505,378.2354 90.4315,379.9664 95.0615,379.9164 C97.3405,379.8964 99.4415,379.4164 101.6415,378.8364 C103.8115,378.2664 106.4915,378.4364 108.4915,377.6364 C111.4605,376.4464 115.1215,380.0764 113.9115,383.0564 C113.0005,385.2964 112.4815,387.2764 111.3405,389.0264 C119.6215,402.5464 128.6915,415.6464 138.3405,428.2164 C147.0405,439.5364 157.2815,449.0564 166.9605,459.4264 C171.2315,464.0064 173.0115,473.0264 165.2815,474.9854 C157.5715,476.9564 151.8115,468.6764 147.3805,463.6464 C129.0315,442.7764 115.1615,418.8154 108.6705,391.7664 C105.7415,393.8464 102.3805,394.9764 98.8405,395.4664 C91.7905,396.4364 84.6615,395.0464 78.4815,391.4764 C55.0805,377.9664 49.4205,341.4564 60.3805,318.5764 C63.0235,313.0674 66.9275,308.1494 71.6865,304.3304 C71.3115,303.6134 71.1635,302.7734 71.4045,301.8704 C71.8275,300.2894 72.2925,298.7274 72.7805,297.1714 C72.2475,296.9344 71.8575,296.4444 71.9315,295.7164 C72.3715,291.2164 72.8005,286.7164 73.2315,282.2164 C73.0805,275.4164 72.7505,268.6264 72.8305,261.7864 C72.9515,250.8864 73.6115,239.9964 73.6515,229.0964 C73.7815,191.0764 75.3305,153.0964 75.4415,115.0764 C75.5005,96.4854 75.5405,77.8664 75.0505,59.2864 C75.0405,59.0364 75.0405,58.7964 75.0315,58.5464 C74.6305,43.6764 70.6915,23.7764 85.2315,14.1554 C87.6215,12.5764 90.6015,12.5564 93.2015,13.5764 C100.6815,8.3664 110.0615,5.8554 119.0315,4.4054 C136.1215,1.6464 153.3615,0.3154 170.5715,-1.4346 C179.5505,-2.3446 189.0005,-2.6936 198.0405,-2.4936 C207.1815,-2.2936 216.4415,-3.1236 225.6415,-2.9836 Z M87.0312,329.7963 C90.3002,326.6863 95.1812,327.4053 99.1912,328.1463 C104.7712,329.1763 110.1912,331.6163 114.8912,334.7463 C119.9512,338.1163 126.2012,342.7863 127.2012,349.1763 C128.1112,355.0463 122.2712,361.5163 116.2612,357.5863 C110.6912,353.9363 107.9812,347.2463 103.1912,342.6663 C100.8402,340.4263 98.3002,338.4563 95.6112,336.6553 C94.3912,335.8363 93.1912,334.9263 91.8612,334.2963 C91.7312,334.2353 86.2512,332.4563 87.3112,334.8063 C87.6712,335.5863 86.7312,336.4563 86.0612,335.7663 C84.1612,333.8363 85.2212,331.5163 87.0312,329.7963 Z" id="ðŸ–-Ink" fill="#000000"/></g>

        <g id="face" transform="translate(315 248)"><path d="M182.2439,225.9652 L182.935568,225.805218 C188.460204,224.502539 193.7763,222.73084 198.9219,226.1542 C203.8249,229.4152 204.5059,235.4472 200.6859,239.8472 C196.759696,244.370955 191.543789,244.117821 186.039297,244.179866 L185.6949,244.1842 C181.1239,244.2472 176.4769,244.1792 171.9239,243.7742 C167.6795,243.3962 163.40756,242.79221 159.211598,241.999409 L156.7304,241.51302 C154.195197,240.999997 151.698275,240.3327 150.3919,237.8792 C148.1139,233.6022 165.0459,230.2462 167.1029,229.6592 C172.0949,228.2342 177.1809,227.1122 182.2439,225.9652 Z M191.634193,174.394641 C188.935096,177.193987 185.36999,179.105754 181.367913,180.295732 C171.30965,183.286456 158.475622,181.693303 150.260436,178.645782 C148.556171,178.013644 146.963437,176.725048 146.048312,175.11365 C145.212412,173.641759 144.929477,171.91077 145.565716,170.145361 C145.746918,169.643897 145.967267,169.151539 146.18863,168.666648 C146.791277,167.347561 148.019458,166.321346 149.46204,165.734482 C150.960207,165.125004 152.663865,165.000599 154.030205,165.430262 C154.213756,165.487988 154.402027,165.547335 154.594782,165.608097 C159.799869,167.24887 168.337051,169.966044 175.409899,169.439413 C179.653911,169.123412 183.386915,167.62397 185.317652,163.740235 C186.335149,161.692395 186.053343,159.667058 185.150862,157.812727 C183.790166,155.016898 181.064689,152.584134 178.768455,150.90779 C175.531656,148.544107 172.079313,147.600482 168.508515,146.60419 C167.163013,146.22878 165.800236,145.848174 164.424715,145.392793 C163.971448,145.243158 163.574107,144.949174 163.276585,144.567009 C162.982731,144.189555 162.789851,143.72864 162.72939,143.266187 C162.666777,142.787275 162.744136,142.309698 162.966096,141.898081 C163.171987,141.516264 163.501275,141.180912 163.99334,140.960603 C170.979515,137.830669 180.015055,139.898917 186.834896,144.822934 C190.243367,147.283895 193.08628,150.445245 194.838513,153.977859 C196.46466,157.256278 197.155548,160.853243 196.518445,164.521349 C195.805094,168.627862 194.066972,171.871505 191.634193,174.394641 Z M77.1362,104.5549 C79.0992,103.6899 80.7122,107.7389 81.1162,108.8429 L81.9517138,111.133296 C83.3146459,114.826319 84.879269,118.580934 87.7452,121.3219 C90.1442,123.6169 93.9882,125.5619 96.7712,122.8769 C99.4112,120.3299 98.1242,117.4609 98.5132,114.3359 C99.2152,108.6839 106.9222,103.0349 111.5562,108.9329 C122.0242,122.2589 105.8282,140.7909 90.9102,137.5399 C83.3233034,135.885917 77.2160347,129.802709 74.7069246,122.568683 L74.5782,122.1869 C73.0762,117.6039 71.5572,107.0159 77.1362,104.5549 Z M212.219928,113.835683 L212.1476,113.6667 C207.1616,102.3257 224.9476,97.4517 226.4556,107.6347 L226.551051,108.321775 C228.017921,119.626038 224.92704,134.8277 211.0816,135.9547 C195.5396,137.2207 189.0676,119.8797 190.4556,107.1547 C190.7046,104.8767 193.4686,104.5617 194.3226,106.6317 L194.504313,107.083458 C197.013691,113.478563 199.396659,125.777394 208.2386,125.7647 C214.145986,125.755829 213.864071,117.781513 212.219928,113.835683 L212.219928,113.835683 Z M223.4962,81.0054 C232.4302,80.6884 232.4182,94.6704 223.4962,94.8804 C193.6942,95.5814 163.8692,96.5134 134.0582,96.6734 L128.639761,96.706498 C100.637912,96.8941456 72.5399273,97.2767636 44.6202,94.9264 C42.2372,94.7264 42.6802,91.3804 44.6712,91.5154 C73.9422,87.3494 103.5702,86.1314 133.0642,84.5484 C163.1812,82.9314 193.3562,82.0754 223.4962,81.0054 Z" id="ðŸ–-Ink" fill="#000000"/></g>

        <g id="facial-hair" transform="translate(279 400)"><path d="M258.6349,38.6644 C252.0409,37.4254 245.2239,37.7734 238.6739,36.3314 C232.2839,34.9234 227.2089,30.7364 221.0349,28.7874 C215.6019,27.0714 209.2339,28.2334 205.0029,31.5594 C201.0719,29.7424 196.6049,29.3494 192.1329,29.9494 C185.3509,30.8594 179.0229,33.7294 172.9819,36.8334 C172.2819,37.1934 171.5809,37.5364 170.8809,37.8834 C159.7189,37.6044 148.2759,37.6264 137.3229,40.0184 C127.6239,42.1374 118.4549,47.0694 112.6709,55.3074 C106.1979,64.5284 105.0289,76.2704 104.0309,87.1664 C103.3959,94.0824 113.0019,95.4854 116.2569,90.4774 C119.6319,85.2854 123.1449,80.0814 127.6419,75.7794 C132.7499,70.8924 138.9629,68.9684 145.9259,68.5224 C161.2939,67.5384 176.7639,68.3634 192.1469,67.6824 C201.0639,67.2874 210.9919,63.8584 214.5859,56.1064 C218.4219,62.1174 227.1139,65.6914 234.2629,66.2334 C241.8179,66.8074 249.4889,65.4344 256.9689,67.0084 C264.1149,68.5124 272.6089,73.8344 271.0199,82.3464 C270.0859,87.3464 276.4069,90.2944 279.3159,85.8444 C291.1949,67.6614 279.4899,42.5854 258.6349,38.6644" id="ðŸ–-Ink" fill="#000000"/></g>

        <g id="eyewear" transform="translate(203 303)"><path id="accessories" d="M370.267229,94.0812186 C361.087518,105.550169 325.150885,118.280642 306.024457,104.460924 C286.89803,90.6412047 279.339478,81.010236 276.782894,63.7418278 C276.51029,61.9005247 273.181038,60.6757933 271.773574,61.9830996 C263.892542,69.3032997 258.790943,78.6267129 253.736631,87.9739798 C248.036181,98.5161913 242.421537,109.123108 232.062291,116.259689 C213.713905,126.095013 180.520036,127.495741 170.713277,123.157318 C151.927276,114.846558 137.066708,97.0725316 133.687387,72.6128057 C131.395829,65.3796109 129.246349,61.0020129 127.238947,59.4800116 C124.384546,57.3158209 108.631937,55.3878277 106.906249,55.0676312 C75.8071363,49.2972786 36.4749058,45.6190335 8.77600719,65.9200219 C5.02749548,68.1858834 -7.80539205,76.6985178 -7.99790561,74.60536 C-8.12928599,66.4063563 1.16220359,47.8487707 22.2939084,39.0185659 C48.4257396,28.098982 87.2707875,27.4603638 109.774665,29.8701917 C110.906452,29.9913891 114.764588,29.0433611 115.037186,28.9253388 C149.130646,14.1644408 188.359486,18.0847288 224.839489,24.2887991 C230.066858,25.3031978 276.863504,36.8905006 295.477887,29.8701917 C326.25407,17.3061158 359.067147,8.2038606 392.30185,11.7849229 C392.579752,11.8148671 396.775316,37.2812197 393.50699,39.0185659 C390.906064,40.4011413 386.480238,43.9439017 384.907987,45.8827637 C383.502453,47.6160336 382.61672,49.7708648 382.69528,52.7561081 C383.327324,70.0252897 378.399915,83.920401 370.267229,94.0812186 Z M243.72836,78.6720803 C247.630761,73.0270335 248.862219,60.3460528 247.228404,51.0948644 C246.401153,46.4106974 244.794863,42.6821957 242.779067,40.8261969 C241.439156,39.5925037 239.910346,39.0117383 238.243089,39.0979354 C237.328973,39.1451951 236.338477,39.4051824 235.290511,39.9705735 C221.097217,32.2929564 203.902812,29.5286089 187.604096,30.323616 C174.629301,30.3211866 165.372072,33.3837093 159.0944,38.1509351 C151.540713,43.8871592 148.137536,52.1332968 147.940635,61.0762046 C147.706992,71.6878578 152.06617,83.2970102 159.216953,92.4828862 C166.061287,101.275098 175.424043,107.793236 185.581316,109.297105 C197.111926,111.586016 208.862264,109.37159 219.07862,103.95477 C229.556845,98.3991036 238.407944,89.4765185 243.72836,78.6720803 Z M357.507438,84.6585403 C364.084035,76.8869454 368.457047,66.7766474 369.122697,56.7593194 C369.728486,47.6428312 367.287306,38.6124814 360.537606,31.1497224 C354.418516,25.8975011 343.605727,25.8104772 332.231167,28.7352865 C317.523167,32.5172431 302.307464,40.969058 297.23517,46.4275624 C296.040378,47.0540173 294.931407,48.1449237 293.965307,50.4849258 L293.958397,51.3191347 C292.421839,58.4056844 293.333557,65.5970212 295.991544,72.2310611 C298.878802,79.4373326 303.830659,85.9791775 309.868491,90.9705601 C317.890232,97.5784779 326.26399,99.6013328 334.1016,98.5342588 C342.979407,97.325564 351.234778,92.0709712 357.507438,84.6585403 Z" fill="#ffcf77"/><path d="M294.4196,27.0634 C325.5846,14.3394 358.8976,5.1684 392.6236,8.8024 C395.4126,7.7414 398.8746,8.6354 400.1106,12.5794 C412.1236,49.1744 385.3346,38.9974 385.6946,52.6774 C388.5026,129.3804 285.4076,142.4794 273.8156,64.1814 L273.6026,64.3074 L273.6026,64.3074 C256.9246,79.8704 253.4116,105.1954 233.7646,118.7304 C194.1316,147.7154 137.9496,124.7504 130.7336,73.1504 L130.576211,72.452332 C128.153961,61.9216159 125.257898,59.3105277 113.3116,59.3624 L111.424306,58.9874342 C80.385228,52.872048 39.05216,47.3766 10.4636,68.4074 C4.2456,72.0234 3.9536,81.3194 -1.3004,85.3584 C-7.0564,86.4764 -10.6024,79.5534 -10.9924,74.7624 C-11.9044,26.9994 73.5656,23.5634 111.8436,27.6624 C112.5746,26.9054 114.1356,26.9994 114.6616,27.9424 C149.2796,12.9544 188.2806,15.0284 225.3466,21.3314 C248.3076,25.7764 270.9856,35.9014 294.4196,27.0634 Z M389.5206,17.6204 C370.8196,16.6854 353.5216,17.7084 335.1656,22.2034 C325.4916,24.5374 318.0676,27.4884 308.8076,31.0374 C251.0496,56.6264 244.3876,11.1414 114.9196,28.9714 C116.5946,36.1454 116.9026,43.2484 116.9926,49.9884 C143.42758,48.92316 137.203668,74.1647841 147.107497,91.894471 L147.4126,92.4294 C161.8466,118.2974 195.9066,130.3634 223.3816,113.2054 C246.3036,99.8454 248.5396,65.9604 271.3616,52.5124 C291.1446,51.7344 283.2426,78.4344 294.0086,89.4084 C309.1626,109.6294 341.3736,112.4564 360.3756,93.4364 C369.2906,84.2844 374.0286,72.6644 374.2906,60.1804 C374.7876,52.2044 373.4196,44.0994 379.4496,38.4894 C383.6766,34.1954 391.1866,35.6284 392.0486,29.1374 C392.5966,25.2994 391.0006,21.1364 389.5206,17.6204 Z M186.28,28.0747 C204.857,27.1597 224.513,30.3857 240.464,39.4967 C252.271,30.1007 255.164,67.4427 247.327,78.2437 C236.036,101.3457 209.749,116.5347 184.438,111.4907 C144.952,105.7687 117.44,28.0057 186.28,28.0747 Z M239.33,42.0007 L238.319634,41.8530365 C221.207242,39.24197 174.61224,27.14534 156.641,46.2377 C139.2,77.9067 183.447,131.1007 229.492,88.7307 C242.307,75.6837 247.274,59.8627 239.33,42.0007 Z M293.5595,46.0482 C302.4215,35.5552 347.5865,14.3012 363.3295,27.9402 C392.0625,60.1412 346.4955,125.2742 308.3295,93.5412 C295.6175,82.9342 287.2545,66.0342 290.9145,49.6692 L290.92013,48.9832 C290.928056,48.7345333 290.9745,48.7912 291.2405,48.4812 C291.7115,47.2442 292.5595,46.4542 293.5595,46.0482 Z M362.9285,65.5652 C372.6185,13.0082 332.1195,32.9882 298.8595,47.0162 C300.6445,48.6472 300.6365,50.8742 300.1235,52.7042 C296.6155,91.7002 344.0125,113.7982 362.9285,65.5652 Z M111.1716,30.2164 C97.2986,34.9144 5.5376,26.5124 -2.9394,69.5264 C6.0086,55.0294 24.5406,49.2764 41.2006,46.1544 C63.8616,41.9074 86.3986,44.3664 108.7416,48.8354 L109.203057,44.2113617 C109.698597,39.3065938 110.221071,34.7182235 111.1716,30.2164 Z" id="ðŸ–-Ink" fill="#000000"/></g>
    </g>
</svg>