<svg xmlns="http://www.w3.org/2000/svg" viewBox="0 0 704 704" fill="none" width="512" height="512">
    <desc>"Open Peeps" by "Pablo Stanley", licensed under "CC0 1.0". / Remix of the original.</desc>
    <mask id="viewbox"><rect width="704" height="704" rx="0" ry="0" x="0" y="0" fill="#ffffff" /></mask>
    <g mask="url(#viewbox)">
        <rect id="background" fill="#d1d4f9" width="704" height="704" x="0" y="0" />

        <g id="body"><path id="skin" d="M705.3 1074a2351.1 2351.1 0 0 1-15.6-101c-1-7.7-2.5-16.4 2.7-22 7.3-8 14-14.8 14.8-26.2.8-10.7-2.8-22.4-5-32.8a809.4 809.4 0 0 0-17.3-64.7c-6.6-21.7-13.9-43.2-21.3-64.6-6.9-20-13.5-40.3-22.5-59.5-17-36.5-46-63.5-81.6-81.6-9-4.5-27-20.5-36.3-24-8.5-3.4-8.5 6.3-16.9 2.6-6.7-2.9-13-6.7-16.7-13.2-4-7-14.3-16.9-15.9-25-3.3-17.4.3-32.2-12-45.3a90 90 0 0 0-41.1-23.8c-33.7-9.3-78.5-2.8-98.8 28.5-9.7 14.9-13 33-26.2 45.1-11.4 10.7-8.8 18-23.6 23.4-.9.3-23.6-4.5-24.4-4.2-16.2-3.5-31.7 6.2-46.5 11.8a325.4 325.4 0 0 0-63 32.3 399.2 399.2 0 0 0-102.3 98.5 482.5 482.5 0 0 0-76.4 161c-1.7 6.4-3.5 13-1.5 19.4 1.7 5.3 5.4 9.2 9.8 12.4 6 4.3 18 7 17.7 15.7-.1 6.6-2.4 13.5-3.5 20-1.3 7.7-2.3 15.5-3.4 23.2-4.8 35.4-8.6 71-10.3 106.6a920 920 0 0 0-.5 106c.1 2.3.8 4.5 2 6.2-1 .4-1.2 2.4.1 2.7l2.7.5a12 12 0 0 0 7 2.4l5.5.2c19.3 4 38.6 7.9 58.1 10.8 23.8 3.5 47.6 6.3 71.5 8.7 49.2 4.8 98 3.2 147.1.6a1877 1877 0 0 1 147.4-2c49.2 1.4 98.4 3.5 147.6 4.4 55 1 110-.5 164.8-5 7.5-.5 12.2-6.5 10.7-14-8.9-44.7-19-89.1-27-134Z" fill="#ffdbb4"/><path id="shirt" d="m201 597.5 1.2-.4c14.5-5.7 29.6-14.8 45.4-11.4.5-.2 10.8 1.9 17.9 3.2l-6.7 7L247 598c40.7 67.1 88.8 100.7 144.3 100.7 55.5 0 97.7-33.6 126.4-100.7l4-1c.4 0 1 .2 1.5.4 9.3 3.6 27.4 19.6 36.3 24.1 35.6 18 64.5 45 81.6 81.6 8.7 18.6 15.2 38 21.8 57.5l.7 2c7.4 21.4 14.7 43 21.3 64.6 6.3 20.4 12 41 16.6 61.8l.7 2.9c2.2 10.4 5.8 22 5 32.8a29 29 0 0 1-3 10.7l-80.4 29 38.4 261.3c-35.1 1.5-70.3 2-105.5 1.3-49.2-.9-98.4-3-147.6-4.3-47.7-1.2-95.3-.7-143 1.7l-12 .6a946.3 946.3 0 0 1-139.5-1l-3.1-.3v-38.3l16.3-212.9-83-15.6-81.3-39.5a21.7 21.7 0 0 1-5.6-8.8c-1.9-6-.5-12 1-18l.5-1.3a492.8 492.8 0 0 1 76.4-161A399.3 399.3 0 0 1 138 629.7c19.8-13 40.9-23.9 63-32.3Z" fill="#9ddadb"/><path d="M232.2 584.6c5.1-.3 10.3.6 15.4 1 .4.1.6.8 0 .9-9 1.9-18 4.5-26.9 7.1l-3.8 1.2c-10 3-19.8 6-29.6 10-19.4 7.9-37.8 18.5-54.8 30.8C67.2 682.8 20 754.3-9.9 828.3a526 526 0 0 0-24.3 77c-.4 1.6-2 5.4-1 7 .7 1.3 3.6 2.1 5 2.9l4.5 2.3 25.2 12.9 2.3 1.1c38 18.6 78.4 34.4 121 35.5l.4-3.7a342 342 0 0 1 9.9-60c.3-1 1.6-.6 1.7.3 3 23.1 2 46.4 1 69.7-1.8 41-4.3 82.2-6.5 123.3-1.2 20.6-2.6 41-3.9 61.7-1.3 20.5-1.7 41.6-4.7 62-.6 4.6-6 7-10 6.6-4.4-.5-7.9-4.5-8-9 0-11.9 1.5-24 2.4-35.8l2.5-33.8c3.1-41.1 6.8-82.2 10.2-123.3a4771 4771 0 0 1 3.8-43.7C76.4 979.8 34.2 963-6.1 943.5c-.6 13.2-2 26.5-3.4 39.6-3.8 36.8-7.1 73.6-9.6 110.5a2254.2 2254.2 0 0 0-4.2 92.7l-.2 7c0 4.4-.5 8.5-4.3 11.7-3.7 3.3-8.9 3.5-12.6 0-5-4.6-4.2-10.9-4-17.1a1675.6 1675.6 0 0 1 1.8-47.2 1321 1321 0 0 1 10.5-109.5l2-14c3.5-26 7.5-52.7 15.5-77.9-3.1-1.5-6.2-3-9.3-4.7-5.5-2.7-11.2-5.4-16.6-8.4-4.2-2.5-7.9-5.8-9-10.8-1.4-5.5.6-11.5 2-16.9v-.4a502 502 0 0 1 26.6-80 523.2 523.2 0 0 1 67.8-117 353.8 353.8 0 0 1 88.7-83.3 239 239 0 0 1 53.8-25.7 142.6 142.6 0 0 1 42.8-7.5Zm90.1-66c6-6.5 18.1.2 15.2 8.8a108.2 108.2 0 0 1-34.7 52A79.4 79.4 0 0 1 247 598l1.7 2.4a321.1 321.1 0 0 0 46.1 52.6c36 31.2 84.8 48 132 36 37.1-9.4 69.8-38.8 79.4-76.2-1.3.6-3 .9-4.8.5-7.7-1.7-15.3-9.8-20.3-15.6-5.3-6.3-9.5-13-12.6-20.7-5.6-14-7.4-32.1.3-45.7 1-1.7 3-.7 3.3 1l.3 2.5c1.5 12.7 3.3 25 9.3 36.6a76 76 0 0 0 18.2 23.1c2.6 2 5.8 3.6 8.1 6l.5.4c.6-5 4.1-7.3 7.6-7.2 3.3.2 7.3 1.6 8.8 2.3l.1.1a341 341 0 0 1 65.1 42 259 259 0 0 1 88.4 129c7.5 25.3 11.8 51.4 16.3 77.4l2.8 16c4.2 23.9 8.9 48.4 18.4 70.7 2.5 5.7.6 11.1-5.5 13.4A1493 1493 0 0 1 688 953c3.7 16 6 32.5 8.7 48.5 6 34.1 13.2 68 19.4 102 3.2 17.5 6.1 35 9.3 52.3l4.7 25.2 2.4 13.6.1.7c.5 2.4 1 4.9.4 7.3-.8 2.7-2.9 4.6-4.8 6.6-1.6 1.6-3.8 1.6-5.7.7l-.7-.3c-3.4-1.6-6-3.2-7.3-7-.7-2.5-1-5.2-1.5-7.7a3535.6 3535.6 0 0 1-7.8-43.6l-1.6-9.1c-5.2-31.4-10.2-62.9-12.8-94.5-1-14-2.3-28.1-3.5-42.2l-.9-10.5c-1.1-13.3-2.5-27-2.7-40.5l-4.5 1.6L657 964c-5.5 2-12.5 6-18.4 5.2-2.9-.3-5-1.2-6.8-2.9 2 28.8 4.8 57.4 8.5 86a1965.7 1965.7 0 0 0 22 135c.6 3.2 1.4 6.4 1.9 9.6.5 3.7-.5 5.9-2.5 9-1.7 2.4-5 3.7-7.8 2-3.6-2.3-5.5-4.3-6.5-8.4-1-3.7-1.6-7.6-2.3-11.4a1654.2 1654.2 0 0 1-11.4-65.2c-7.8-52-12.7-104.4-15.2-156.8a1388 1388 0 0 1-1.4-77.8c0-13.3.5-26.6 1.4-39.9 1-13.4 3-26.5 4.8-39.8 0-.5.7-.5.7 0 .8 14.9 2.1 29.8 2.8 44.7.6 14.3.9 28.5 1.4 42.8.6 18.7 1.5 37.5 2.7 56.2a9.6 9.6 0 0 1 8.5-3.1c4.7-1 9.7-3.4 14.1-5l16.8-5.5 26.4-8.7a679 679 0 0 1-18-80.8l-2-12.3c-4-24.2-8.5-48.5-15.8-72a229.8 229.8 0 0 0-34.8-68.2 370.2 370.2 0 0 0-52.7-55.3C557 627 539.7 614 523 600c.1.9.2 2 0 3-3.5 25.9-17 50-35.8 67.9-37.7 36-93.6 43.4-142 26.5-46.7-16.3-88-55-102.6-102.8-.3-.8.8-1 1.3-.5l2.4 3.3c0-.4.2-.9.7-1a129 129 0 0 0 46.6-29.2 100.2 100.2 0 0 0 21.3-33.3l.4-1c1.7-5 3.2-10.2 7-14.2Z" fill="#000000"/></g>

        <g id="head" transform="matrix(.99789 0 0 1 156 62)"><path id="skin" d="M242.041161,75.2596156 C298.821805,75.2596156 381.931473,113.176005 388.1815,149.6554 C395.546993,192.645412 411.906116,354.298901 402.999889,407.198049 C394.093662,460.097197 359.365264,499.183765 282.566771,499.183765 C205.768277,499.183765 148.446655,457.302629 135.285147,442.922462 C126.510808,433.335685 116.807627,413.625855 106.175605,383.792973 C78.1438338,379.041337 64.0629699,365.492596 63.9330131,343.146752 C63.8030564,320.800909 70.8440111,306.175148 85.0558771,299.269471 C77.3858027,206.570323 81.6113554,148.741029 97.7325351,125.781589 C121.914305,91.3424282 185.260516,75.2596156 242.041161,75.2596156 Z" fill="#ffdbb4"/><path d="M223.340354,-2.99954907 L225.6415,-2.9836 C236.0805,-2.8136 246.6015,-2.4236 257.0805,-1.5636 C257.5715,-1.6136 258.0715,-1.6536 258.5615,-1.7036 C278.2815,-3.5946 297.9715,-1.8946 317.6815,-1.0636 C336.4605,-0.2736 356.2905,1.6664 373.1515,10.6554 C375.3195,11.8094 377.1565,13.1214 378.7235,14.5834 C380.9205,14.8924 383.0155,15.5154 384.8985,16.5624 C390.3265,15.4654 396.3865,17.8974 397.6705,24.1964 C399.5405,33.4264 400.2505,42.7354 399.1305,52.0964 C399.1015,52.3154 399.0805,52.5464 399.0505,52.7864 C401.3175,61.4704 401.1665,70.9544 399.2825,79.5194 C400.0765,90.3414 400.5295,101.1944 400.5925,112.0294 C400.6365,119.5244 400.9705,127.1554 400.2735,134.6284 C399.6595,141.1984 396.9555,146.3974 392.7005,151.3874 C391.8985,152.3274 390.5435,152.4834 389.4165,152.2554 C389.1245,152.1964 388.8705,152.1164 388.6405,152.0214 C391.2055,157.5204 393.2335,163.3544 395.3115,168.9264 C398.6115,177.7864 401.8115,186.7964 404.0805,195.9764 C408.6815,214.4854 411.7105,233.3464 413.4715,252.3364 C416.5805,286.1264 417.7505,320.2064 418.3515,354.1264 C418.9315,386.2664 416.1015,419.7864 397.7905,447.2664 C381.7815,471.3064 357.4015,488.7564 330.2505,498.1764 C314.8005,503.5464 297.6915,505.5364 281.3715,506.0264 C272.9415,506.2764 264.4915,505.9164 256.1115,505.0464 C247.9815,504.1964 239.5715,504.2864 233.6305,498.1264 C232.0005,496.4364 232.0215,492.9664 234.4315,491.8664 C239.0215,489.7764 242.1305,489.5564 247.1615,490.2464 C251.3305,490.8154 255.5115,491.2664 259.7105,491.5564 C268.7105,492.1864 277.7715,492.2064 286.7715,491.5164 C303.3115,490.2464 320.2315,485.5754 335.2505,478.4964 C358.8005,467.3764 379.0315,449.1554 389.9515,425.2464 C402.6415,397.4964 401.8215,365.3464 401.2315,335.5264 C400.5805,302.8264 399.3715,270.2264 396.5315,237.6364 C395.1515,221.8364 393.0215,206.1464 391.1015,190.4164 C390.0905,182.0564 388.7615,173.7354 387.1305,165.4764 C386.2715,161.1054 385.1515,156.7964 384.2315,152.4564 C383.5615,152.5654 382.8805,152.6264 382.1815,152.6554 C378.0005,152.7964 373.4315,151.7764 370.3305,148.8064 C369.1415,149.6164 367.6305,150.1264 365.8115,150.2164 C348.6215,151.0654 331.1615,150.0164 313.9415,150.0064 C296.6615,149.9964 279.3715,150.0064 262.0805,150.0564 C244.8115,150.1054 227.4915,150.2664 210.2315,149.8064 C194.1615,149.3764 177.5505,149.7264 161.6915,146.7864 C156.3615,165.7264 156.5505,186.5364 167.6615,203.4564 C170.8005,208.2264 168.2505,213.8464 164.1615,216.8264 C159.9805,219.8674 152.4655,224.5304 146.0355,225.0094 C145.4125,226.4084 144.7725,227.8004 144.1645,229.1884 C141.0955,236.1814 138.3305,243.2184 136.3955,250.6224 C135.3985,254.4384 134.5405,258.3174 133.8185,262.2204 C133.8775,262.9034 133.9385,263.5854 134.0115,264.2664 C134.0115,264.3364 134.0215,264.4054 134.0315,264.4854 C134.0715,264.7664 134.1215,265.0864 134.1515,265.2664 C134.5215,267.2264 134.8805,269.1864 135.2715,271.1364 C136.2015,275.8864 136.9205,280.6764 137.4315,285.4854 C138.3615,294.2864 138.2715,305.7264 129.6915,310.9364 C125.1015,313.7264 119.6015,313.4364 114.7505,311.5654 C111.4915,310.3064 108.7215,308.5264 105.7215,306.7764 C103.9415,305.7354 102.0805,304.8864 100.3405,303.8064 C99.8615,303.5064 99.4015,303.1464 98.9715,302.7664 C95.7215,303.4564 92.5505,304.7464 90.7715,305.6264 C86.0005,307.9964 81.8115,311.4264 78.2505,315.3664 C70.6815,323.7564 68.4115,335.5764 69.4715,346.5464 C70.4605,356.7564 74.4715,368.4854 82.5405,375.2764 C86.0505,378.2354 90.4315,379.9664 95.0615,379.9164 C97.3405,379.8964 99.4415,379.4164 101.6415,378.8364 C103.8115,378.2664 106.4915,378.4364 108.4915,377.6364 C111.4605,376.4464 115.1215,380.0764 113.9115,383.0564 C113.0005,385.2964 112.4815,387.2764 111.3405,389.0264 C119.6215,402.5464 128.6915,415.6464 138.3405,428.2164 C147.0405,439.5364 157.2815,449.0564 166.9605,459.4264 C171.2315,464.0064 173.0115,473.0264 165.2815,474.9854 C157.5715,476.9564 151.8115,468.6764 147.3805,463.6464 C129.0315,442.7764 115.1615,418.8154 108.6705,391.7664 C105.7415,393.8464 102.3805,394.9764 98.8405,395.4664 C91.7905,396.4364 84.6615,395.0464 78.4815,391.4764 C55.0805,377.9664 49.4205,341.4564 60.3805,318.5764 C63.0235,313.0674 66.9275,308.1494 71.6865,304.3304 C71.3115,303.6134 71.1635,302.7734 71.4045,301.8704 C71.8275,300.2894 72.2925,298.7274 72.7805,297.1714 C72.2475,296.9344 71.8575,296.4444 71.9315,295.7164 C72.3715,291.2164 72.8005,286.7164 73.2315,282.2164 C73.0805,275.4164 72.7505,268.6264 72.8305,261.7864 C72.9515,250.8864 73.6115,239.9964 73.6515,229.0964 C73.7815,191.0764 75.3305,153.0964 75.4415,115.0764 C75.5005,96.4854 75.5405,77.8664 75.0505,59.2864 C75.0405,59.0364 75.0405,58.7964 75.0315,58.5464 C74.6305,43.6764 70.6915,23.7764 85.2315,14.1554 C87.6215,12.5764 90.6015,12.5564 93.2015,13.5764 C100.6815,8.3664 110.0615,5.8554 119.0315,4.4054 C136.1215,1.6464 153.3615,0.3154 170.5715,-1.4346 C179.5505,-2.3446 189.0005,-2.6936 198.0405,-2.4936 C207.1815,-2.2936 216.4415,-3.1236 225.6415,-2.9836 Z M87.0312,329.7963 C90.3002,326.6863 95.1812,327.4053 99.1912,328.1463 C104.7712,329.1763 110.1912,331.6163 114.8912,334.7463 C119.9512,338.1163 126.2012,342.7863 127.2012,349.1763 C128.1112,355.0463 122.2712,361.5163 116.2612,357.5863 C110.6912,353.9363 107.9812,347.2463 103.1912,342.6663 C100.8402,340.4263 98.3002,338.4563 95.6112,336.6553 C94.3912,335.8363 93.1912,334.9263 91.8612,334.2963 C91.7312,334.2353 86.2512,332.4563 87.3112,334.8063 C87.6712,335.5863 86.7312,336.4563 86.0612,335.7663 C84.1612,333.8363 85.2212,331.5163 87.0312,329.7963 Z" id="ðŸ–-Ink" fill="#000000"/></g>

        <g id="face" transform="translate(315 248)"><path d="M190.580838,219.822602 C187.280979,224.137269 181.305753,227.441635 174.614228,229.021959 C168.237661,230.527902 161.190418,230.466453 155.108614,228.149072 L154.586539,227.941176 C150.039387,226.052673 145.674617,222.239371 144.017177,218.259853 C143.358193,216.67763 143.135243,215.069584 143.586238,213.568908 C143.991922,212.219001 144.943012,210.976582 146.527174,209.909206 C147.024517,209.574134 147.691645,209.549745 148.327216,209.661813 C149.115834,209.800867 149.893132,210.16984 150.362097,210.668116 C152.964096,213.434928 156.73898,216.132349 161.207084,216.086453 C164.654507,216.051103 167.469871,214.689827 170.200003,213.151437 L172.118441,212.052717 C173.969461,210.996565 175.846656,210.004165 177.970548,209.550964 C181.772426,208.739097 186.383724,210.222313 189.193828,212.669867 C190.419132,213.737086 191.309321,214.991561 191.551236,216.342614 C191.754414,217.477328 191.469083,218.661462 190.580838,219.822602 Z M170.814304,144.367155 C178.365682,148.9572 189.871664,159.660291 181.748119,171.039573 C172.185929,181.073062 158.418535,169.568982 151.634201,164.366134 C145.343449,160.333898 138.275437,170.704507 144.112,175.412823 C193.135736,211.708059 213.030606,145.567387 174.633685,138.970386 C170.406047,138.243425 168.835891,142.947174 170.814304,144.367155 Z M85.623,73.8212 L87.7924418,73.2263619 L90.0045001,72.6293513 L91.5003254,72.2338515 C101.775159,69.5444674 113.108082,67.1776694 123.297,68.3332 C127.013,68.7552 130.029,70.8462 130.555,74.7392 C130.998,78.0242 128.875,82.2622 125.262,82.8462 C113.295,84.7822 101.044,84.1542 89.022,86.1502 C83.035,87.1432 77.094,88.3762 71.13,89.4872 C66.595,90.3332 61.909,90.6302 57.335,91.3142 L58.386,91.4602 C58.754,91.5102 58.662,92.1292 58.299,92.1042 C56.791375,91.9537 55.2814531,91.9302937 53.7692344,92.035991 L53.121,92.0892 C52.134,92.2282 51.552,91.0502 52.432,90.4522 C58.005,86.6712 62.734,82.5732 68.974,79.7862 C74.371,77.3762 79.926,75.3892 85.623,73.8212 Z M179.1621,68.0224 C187.0621,60.0364 203.8621,63.1054 213.2601,66.7584 C218.6241,68.8444 223.7241,71.4814 227.9721,75.4264 L228.386213,75.8144925 L229.024136,76.4279569 C231.891581,79.2352765 235.089211,83.0982889 234.6341,87.1454 C234.5651,87.7624 234.2291,88.4674 233.5321,88.5914 C229.7681,89.2584 226.0711,87.2724 222.5951,86.0774 L220.293037,85.2874616 C216.836083,84.1099289 213.3571,82.9848545 209.7931,82.1724 C205.3611,81.1644 200.8401,80.5814 196.2901,80.6394 C191.6911,80.6994 186.7511,81.9974 182.3701,80.1714 C177.4841,78.1364 174.9511,72.2804 179.1621,68.0224 Z M101.116056,132.429995 C99.1003582,134.488343 96.4383728,135.649706 93.0314637,134.958836 C90.3692151,134.419447 85.3003252,131.742536 81.251062,127.620059 C78.4808238,124.799734 76.1645189,121.275596 75.5348483,117.193133 C75.3886144,116.245027 74.8854838,115.637224 74.2248528,115.254453 C73.7031014,114.952149 73.0151982,114.800275 72.2659115,114.876138 C71.6297705,114.940545 70.9542643,115.170885 70.4322827,115.476318 C69.4393366,116.057332 69.0332625,116.882185 68.9507107,117.498123 C68.1541083,123.441745 70.4499798,129.339186 74.0286493,134.311705 C78.8582802,141.02242 85.9507822,145.940005 90.1194807,147.091006 C97.2532735,149.061815 104.770166,147.49291 110.31224,142.527816 C114.744111,138.55788 117.01573,133.385744 119.123418,128.067181 L119.529847,127.036237 C120.003893,125.829408 120.474351,124.631454 120.972784,123.446204 C121.971768,121.071164 121.651825,119.018235 120.683197,117.41812 C119.610133,115.645482 117.629461,114.397695 115.424424,114.014451 C113.386375,113.660232 111.205318,114.047672 109.483593,115.292567 C108.029146,116.344207 106.856231,118.01047 106.439508,120.474443 C105.761825,124.480999 104.189738,129.077997 101.417669,132.111101 L101.116056,132.429995 Z M223.440775,109.240446 C221.778563,108.374347 220.478145,108.113213 218.634261,108.665656 C217.614596,108.971929 216.606823,109.558916 215.817824,110.347916 C215.035882,111.129857 214.471712,112.102263 214.252419,113.181012 C213.713072,115.843338 212.256412,118.335447 210.18061,119.960058 C208.406384,121.348643 206.16691,122.084626 203.68291,121.669413 C201.002485,121.221959 198.448729,119.502882 196.689869,117.476128 C196.199984,116.910971 195.798335,116.281896 195.409968,115.645177 L195.177941,115.262679 C194.311333,113.831986 193.469024,112.502121 192.273843,111.451439 C191.82079,111.051686 191.138107,110.774816 190.476901,110.774816 C190.208169,110.774816 189.935444,110.818544 189.675563,110.899539 C187.007679,113.577235 186.494623,115.608542 186.580635,117.62333 C186.670832,119.736131 187.503809,121.875322 188.849905,123.871251 C192.007516,128.553207 198.002761,132.391976 202.048399,133.261475 C207.588873,134.452107 213.091225,133.022832 217.502758,129.928348 C222.041966,126.744306 225.405508,121.80078 226.454161,116.229671 C226.706431,114.887916 226.599231,113.439644 226.088238,112.183929 C225.588922,110.956906 224.71878,109.905984 223.440775,109.240446 Z" id="ðŸ–-Ink" fill="#000000"/></g>

        <g id="facial-hair" transform="translate(279 400)"><path d="M248.1317,111.7235 C244.6417,110.5815 241.2137,109.2525 237.7697,107.9715 C220.1607,99.1265 198.8897,97.5225 180.4227,104.9715 C171.3587,108.6275 162.9067,115.1965 153.8117,119.5015 C151.6517,120.3075 149.4737,121.0395 147.2717,121.6535 C145.9217,121.1835 144.5717,120.6835 143.2317,120.1835 C133.5847,116.5475 124.5107,112.0625 115.7007,107.1285 C114.7607,105.8055 113.7857,104.5195 112.7377,103.2845 C119.1127,102.3795 125.3547,100.8755 131.0017,99.3235 C148.3417,94.5735 164.6817,86.8335 181.9617,81.8735 C198.0517,77.2435 215.5117,74.7135 231.6717,80.4635 C239.3417,83.1935 246.0917,87.9735 253.5517,91.1935 C257.4117,92.8535 262.0417,94.4835 266.5517,94.7235 C263.6417,101.6935 259.9617,108.2035 254.9317,113.6235 C252.6317,113.1335 250.3517,112.4435 248.1317,111.7235 Z M285.6527,57.1315 C284.1087,58.4145 277.7367,62.5545 275.6697,65.0225 C275.1357,64.8195 274.6047,64.6115 274.0767,64.3975 C273.1677,63.2815 271.8287,62.7915 270.4637,62.8215 C260.9347,58.3895 252.4517,52.1265 244.8817,44.2735 C239.5017,38.7035 233.9917,32.8735 226.8017,29.6435 C218.3317,25.8235 210.0017,27.5835 201.1017,28.1635 C191.6317,28.7935 182.2817,26.1035 172.8217,27.3935 C165.9017,28.3435 159.4217,31.2735 153.8217,35.4035 C142.3917,43.8335 134.5117,55.6735 124.8517,65.8835 C113.8917,77.4635 100.4117,84.8635 85.4217,88.6435 C85.2417,88.5235 85.0517,88.4035 84.8617,88.2935 C73.8117,78.2935 63.8317,67.0035 55.0017,54.9735 C46.3817,43.2235 23.6517,-9.6665 18.1617,-14.3065 C15.8817,-16.2365 13.3817,-17.0665 10.9917,-16.9965 C6.6617,-16.8965 2.6617,-13.8865 0.8717,-9.1465 C-2.1683,-1.0865 -0.6483,9.3335 -0.4083,17.7635 C-0.1083,28.0835 0.5717,38.3935 1.6517,48.6635 C2.7217,58.8135 4.1417,68.9335 5.9117,78.9835 C6.8017,84.0635 7.7917,89.1335 8.8817,94.1835 C9.2217,95.7735 9.6517,97.1935 10.1717,98.5135 C10.7017,101.0035 11.2717,103.4835 11.8817,105.9435 C15.8617,122.0535 22.1417,138.1835 34.1317,150.0735 C46.6117,162.4635 63.5717,170.6935 79.3217,178.0535 C94.3217,185.0635 110.0417,191.2935 126.1717,196.1735 C140.1817,202.5235 155.1817,207.5435 170.2417,210.1835 C186.8217,213.0935 204.2517,213.2735 220.2617,207.5135 C228.1317,204.6835 235.5717,200.7335 242.3217,195.8135 C251.8917,190.8435 260.5017,184.0135 267.5517,174.9735 C280.178808,158.772201 286.205845,139.111428 288.843079,118.838022 C289.518075,113.64907 292.055805,93.7618006 292.255358,90.6655083 C292.899805,80.6661617 293.544253,70.6671223 294.1887,60.6675 C294.4927,55.9485 288.7007,54.6015 285.6527,57.1315 Z" id="ðŸ–-Ink" fill="#000000"/></g>

        <g id="eyewear" transform="translate(203 303)"><path d="M372.3111,95.4577 C360.1701,108.0027 339.9021,111.6027 323.7491,104.8747 C282.2731,87.5457 302.5741,33.4957 334.5611,18.9807 C338.5571,17.9847 343.8941,15.6217 348.7611,15.0857 C349.2011,14.8697 350.1591,15.4947 351.3201,14.9037 C386.5911,18.8417 394.6231,73.5937 372.3111,95.4577 M238.5331,98.6687 C224.9161,116.7297 199.6001,122.3017 178.9161,113.9057 C138.0541,97.8137 152.5471,49.8847 180.5041,31.0947 C239.5611,8.9037 263.9481,65.3677 238.5331,98.6687 M149.9531,58.6507 C149.9151,58.6327 149.8771,58.6237 149.8381,58.6057 C150.0541,58.5107 150.2701,58.4157 150.4851,58.3187 C150.4151,58.5017 150.3391,58.6827 150.2711,58.8657 C150.1651,58.7927 150.0721,58.7077 149.9531,58.6507 M400.4231,39.1277 C397.0891,39.1347 392.2731,39.6827 389.5131,41.9957 C382.7071,19.0427 357.5851,-2.2003 335.7371,13.2897 C318.5321,18.8227 305.7651,31.0937 298.5091,47.4077 C285.4261,39.6257 264.8541,42.9487 253.5091,53.2397 C246.0791,28.6887 227.7931,20.0917 206.0281,18.8227 C182.2721,14.9317 158.5941,38.0027 151.2061,56.5107 C145.0631,55.8117 135.8841,53.8567 130.1051,57.6477 C92.5981,47.8117 27.0231,42.3887 19.3981,47.8537 C13.9641,49.9387 10.9821,62.7647 18.5721,63.4567 C25.1861,62.5177 17.8001,54.0587 24.4671,53.1357 C59.9901,50.9337 94.4751,58.0877 129.6221,61.0897 C132.7601,65.3107 142.8991,66.7227 148.3081,65.0267 C139.7891,96.4227 158.1791,117.7827 185.7341,124.1807 C228.4011,133.9817 265.5221,95.8137 254.3651,56.1137 C267.2901,49.6837 282.1571,49.9597 296.2371,53.3467 C272.7091,139.9367 412.1661,136.0517 390.3851,44.9627 C404.8801,52.1727 408.0281,40.5827 400.4231,39.1277" id="ðŸ–-Ink" fill="#000000"/></g>
    </g>
</svg>