<svg xmlns="http://www.w3.org/2000/svg" viewBox="0 0 704 704" fill="none" width="512" height="512">
    <desc>"Open Peeps" by "Pablo Stanley", licensed under "CC0 1.0". / Remix of the original.</desc>
    <mask id="viewbox"><rect width="704" height="704" rx="0" ry="0" x="0" y="0" fill="#ffffff" /></mask>
    <g mask="url(#viewbox)">
        <rect id="background" fill="#c0aede" width="704" height="704" x="0" y="0" />

        <g id="body"><path id="skin" d="M705.3 1074a2351.1 2351.1 0 0 1-15.6-101c-1-7.7-2.5-16.4 2.7-22 7.3-8 14-14.8 14.8-26.2.8-10.7-2.8-22.4-5-32.8a809.4 809.4 0 0 0-17.3-64.7c-6.6-21.7-13.9-43.2-21.3-64.6-6.9-20-13.5-40.3-22.5-59.5-17-36.5-46-63.5-81.6-81.6-9-4.5-27-20.5-36.3-24-8.5-3.4-8.5 6.3-16.9 2.6-6.7-2.9-13-6.7-16.7-13.2-4-7-14.3-16.9-15.9-25-3.3-17.4.3-32.2-12-45.3a90 90 0 0 0-41.1-23.8c-33.7-9.3-78.5-2.8-98.8 28.5-9.7 14.9-13 33-26.2 45.1-11.4 10.7-8.8 18-23.6 23.4-.9.3-23.6-4.5-24.4-4.2-16.2-3.5-31.7 6.2-46.5 11.8a325.4 325.4 0 0 0-63 32.3 399.2 399.2 0 0 0-102.3 98.5 482.5 482.5 0 0 0-76.4 161c-1.7 6.4-3.5 13-1.5 19.4 1.7 5.3 5.4 9.2 9.8 12.4 6 4.3 18 7 17.7 15.7-.1 6.6-2.4 13.5-3.5 20-1.3 7.7-2.3 15.5-3.4 23.2-4.8 35.4-8.6 71-10.3 106.6a920 920 0 0 0-.5 106c.1 2.3.8 4.5 2 6.2-1 .4-1.2 2.4.1 2.7l2.7.5a12 12 0 0 0 7 2.4l5.5.2c19.3 4 38.6 7.9 58.1 10.8 23.8 3.5 47.6 6.3 71.5 8.7 49.2 4.8 98 3.2 147.1.6a1877 1877 0 0 1 147.4-2c49.2 1.4 98.4 3.5 147.6 4.4 55 1 110-.5 164.8-5 7.5-.5 12.2-6.5 10.7-14-8.9-44.7-19-89.1-27-134Z" fill="#d08b5b"/><path id="shirt" d="m201 597.5 1.2-.4c14.5-5.7 29.6-14.8 45.4-11.4.5-.2 10.8 1.9 17.9 3.2l-6.7 7L247 598c40.7 67.1 88.8 100.7 144.3 100.7 55.5 0 97.7-33.6 126.4-100.7l4-1c.4 0 1 .2 1.5.4 9.3 3.6 27.4 19.6 36.3 24.1 35.6 18 64.5 45 81.6 81.6 8.7 18.6 15.2 38 21.8 57.5l.7 2c7.4 21.4 14.7 43 21.3 64.6 6.3 20.4 12 41 16.6 61.8l.7 2.9c2.2 10.4 5.8 22 5 32.8a29 29 0 0 1-3 10.7l-80.4 29 38.4 261.3c-35.1 1.5-70.3 2-105.5 1.3-49.2-.9-98.4-3-147.6-4.3-47.7-1.2-95.3-.7-143 1.7l-12 .6a946.3 946.3 0 0 1-139.5-1l-3.1-.3v-38.3l16.3-212.9-83-15.6-81.3-39.5a21.7 21.7 0 0 1-5.6-8.8c-1.9-6-.5-12 1-18l.5-1.3a492.8 492.8 0 0 1 76.4-161A399.3 399.3 0 0 1 138 629.7c19.8-13 40.9-23.9 63-32.3Z" fill="#ffcf77"/><path d="M232.2 584.6c5.1-.3 10.3.6 15.4 1 .4.1.6.8 0 .9-9 1.9-18 4.5-26.9 7.1l-3.8 1.2c-10 3-19.8 6-29.6 10-19.4 7.9-37.8 18.5-54.8 30.8C67.2 682.8 20 754.3-9.9 828.3a526 526 0 0 0-24.3 77c-.4 1.6-2 5.4-1 7 .7 1.3 3.6 2.1 5 2.9l4.5 2.3 25.2 12.9 2.3 1.1c38 18.6 78.4 34.4 121 35.5l.4-3.7a342 342 0 0 1 9.9-60c.3-1 1.6-.6 1.7.3 3 23.1 2 46.4 1 69.7-1.8 41-4.3 82.2-6.5 123.3-1.2 20.6-2.6 41-3.9 61.7-1.3 20.5-1.7 41.6-4.7 62-.6 4.6-6 7-10 6.6-4.4-.5-7.9-4.5-8-9 0-11.9 1.5-24 2.4-35.8l2.5-33.8c3.1-41.1 6.8-82.2 10.2-123.3a4771 4771 0 0 1 3.8-43.7C76.4 979.8 34.2 963-6.1 943.5c-.6 13.2-2 26.5-3.4 39.6-3.8 36.8-7.1 73.6-9.6 110.5a2254.2 2254.2 0 0 0-4.2 92.7l-.2 7c0 4.4-.5 8.5-4.3 11.7-3.7 3.3-8.9 3.5-12.6 0-5-4.6-4.2-10.9-4-17.1a1675.6 1675.6 0 0 1 1.8-47.2 1321 1321 0 0 1 10.5-109.5l2-14c3.5-26 7.5-52.7 15.5-77.9-3.1-1.5-6.2-3-9.3-4.7-5.5-2.7-11.2-5.4-16.6-8.4-4.2-2.5-7.9-5.8-9-10.8-1.4-5.5.6-11.5 2-16.9v-.4a502 502 0 0 1 26.6-80 523.2 523.2 0 0 1 67.8-117 353.8 353.8 0 0 1 88.7-83.3 239 239 0 0 1 53.8-25.7 142.6 142.6 0 0 1 42.8-7.5Zm90.1-66c6-6.5 18.1.2 15.2 8.8a108.2 108.2 0 0 1-34.7 52A79.4 79.4 0 0 1 247 598l1.7 2.4a321.1 321.1 0 0 0 46.1 52.6c36 31.2 84.8 48 132 36 37.1-9.4 69.8-38.8 79.4-76.2-1.3.6-3 .9-4.8.5-7.7-1.7-15.3-9.8-20.3-15.6-5.3-6.3-9.5-13-12.6-20.7-5.6-14-7.4-32.1.3-45.7 1-1.7 3-.7 3.3 1l.3 2.5c1.5 12.7 3.3 25 9.3 36.6a76 76 0 0 0 18.2 23.1c2.6 2 5.8 3.6 8.1 6l.5.4c.6-5 4.1-7.3 7.6-7.2 3.3.2 7.3 1.6 8.8 2.3l.1.1a341 341 0 0 1 65.1 42 259 259 0 0 1 88.4 129c7.5 25.3 11.8 51.4 16.3 77.4l2.8 16c4.2 23.9 8.9 48.4 18.4 70.7 2.5 5.7.6 11.1-5.5 13.4A1493 1493 0 0 1 688 953c3.7 16 6 32.5 8.7 48.5 6 34.1 13.2 68 19.4 102 3.2 17.5 6.1 35 9.3 52.3l4.7 25.2 2.4 13.6.1.7c.5 2.4 1 4.9.4 7.3-.8 2.7-2.9 4.6-4.8 6.6-1.6 1.6-3.8 1.6-5.7.7l-.7-.3c-3.4-1.6-6-3.2-7.3-7-.7-2.5-1-5.2-1.5-7.7a3535.6 3535.6 0 0 1-7.8-43.6l-1.6-9.1c-5.2-31.4-10.2-62.9-12.8-94.5-1-14-2.3-28.1-3.5-42.2l-.9-10.5c-1.1-13.3-2.5-27-2.7-40.5l-4.5 1.6L657 964c-5.5 2-12.5 6-18.4 5.2-2.9-.3-5-1.2-6.8-2.9 2 28.8 4.8 57.4 8.5 86a1965.7 1965.7 0 0 0 22 135c.6 3.2 1.4 6.4 1.9 9.6.5 3.7-.5 5.9-2.5 9-1.7 2.4-5 3.7-7.8 2-3.6-2.3-5.5-4.3-6.5-8.4-1-3.7-1.6-7.6-2.3-11.4a1654.2 1654.2 0 0 1-11.4-65.2c-7.8-52-12.7-104.4-15.2-156.8a1388 1388 0 0 1-1.4-77.8c0-13.3.5-26.6 1.4-39.9 1-13.4 3-26.5 4.8-39.8 0-.5.7-.5.7 0 .8 14.9 2.1 29.8 2.8 44.7.6 14.3.9 28.5 1.4 42.8.6 18.7 1.5 37.5 2.7 56.2a9.6 9.6 0 0 1 8.5-3.1c4.7-1 9.7-3.4 14.1-5l16.8-5.5 26.4-8.7a679 679 0 0 1-18-80.8l-2-12.3c-4-24.2-8.5-48.5-15.8-72a229.8 229.8 0 0 0-34.8-68.2 370.2 370.2 0 0 0-52.7-55.3C557 627 539.7 614 523 600c.1.9.2 2 0 3-3.5 25.9-17 50-35.8 67.9-37.7 36-93.6 43.4-142 26.5-46.7-16.3-88-55-102.6-102.8-.3-.8.8-1 1.3-.5l2.4 3.3c0-.4.2-.9.7-1a129 129 0 0 0 46.6-29.2 100.2 100.2 0 0 0 21.3-33.3l.4-1c1.7-5 3.2-10.2 7-14.2Z" fill="#000000"/></g>

        <g id="head" transform="matrix(.99789 0 0 1 156 62)"><path id="skin" d="M195.395558,82.6720788 C346.965479,75.2183452 357.551668,119.271611 378.365264,147.356837 C388.694346,161.294583 415.36224,181.93629 419.786376,229.602142 C422.857417,262.689688 403.308238,300.826871 403.308238,330.393336 C403.308238,345.485177 421.786376,377.885575 413.184129,399.881894 C394.037459,448.840758 353.497414,503.176 301.837107,503.176 C250.1768,503.176 154.814935,474.704319 97.7325351,392.972519 C79.0353378,366.201473 43.8256361,90.1258123 195.395558,82.6720788 Z" fill="#d08b5b"/><path d="M416.009341,333.345332 C412.699341,329.695332 410.129341,326.695332 409.269341,321.675332 C408.909341,319.584332 408.749341,317.435332 408.679341,315.275332 C421.969341,296.695332 434.889341,252.808332 434.889341,228.804332 C434.889341,194.939332 422.399341,162.355332 401.899341,135.405332 C361.939341,82.9143323 295.419341,56.0043323 230.319341,58.1153323 C167.979341,60.1243323 101.671341,83.1043323 62.7833414,132.226332 C-66.2406586,295.201332 42.0473414,473.217332 121.359341,510.254332 C128.263341,513.478332 150.561341,512.358332 147.454341,505.473332 C138.530341,485.694332 131.499341,449.265332 129.859341,441.064332 C132.399341,442.775332 134.959341,444.445332 137.529341,446.175332 C142.079341,449.224332 148.179341,452.714332 153.899341,451.704332 C154.169341,451.655332 154.339341,451.365332 154.349341,451.115332 C154.609341,445.744332 150.769341,440.224332 147.389341,436.394332 C142.699341,431.074332 138.239341,425.624332 133.189341,420.634332 C131.039341,418.504332 128.859341,416.394332 126.679341,414.284332 C126.399341,401.624332 127.249341,388.905332 129.519341,376.175332 C133.449341,354.105332 140.229341,332.605332 148.019341,311.445332 C154.529341,306.644332 160.849341,301.595332 166.699341,296.074332 C180.789341,282.784332 191.539341,266.525332 200.759341,249.425332 C200.869341,249.374332 200.989341,249.314332 201.099341,249.265332 C218.969341,240.954332 236.689341,232.325332 254.269341,223.425332 C263.339341,218.834332 272.349341,214.134332 281.359341,209.435332 C286.259341,206.874332 291.309341,204.544332 296.319341,202.134332 C294.969341,209.054332 293.149341,215.874332 290.939341,222.584332 C289.119341,228.095332 294.679341,232.164332 299.599341,231.254332 C316.349341,228.155332 332.539341,221.925332 347.109341,213.105332 C354.329341,208.735332 361.199341,203.685332 367.569341,198.144332 C373.939341,207.634332 381.679341,216.534332 389.489341,224.195332 C394.759341,229.365332 400.269341,234.284332 405.989341,238.945332 C403.399341,256.775332 401.179341,274.644332 398.369341,292.435332 C396.899341,301.735332 395.129341,311.034332 394.019341,320.384332 C392.809341,330.574332 396.179341,337.834332 402.889341,345.284332 C412.269341,355.695332 412.259341,370.754332 408.669341,383.685332 C408.229341,385.284332 407.679341,386.845332 407.109341,388.394332 C406.989341,388.714332 406.639341,389.584332 406.509341,389.925332 C406.509341,389.935332 406.509341,389.945332 406.499341,389.964332 C406.499341,389.974332 406.489341,389.985332 406.489341,389.994332 C406.479341,389.994332 406.479341,390.004332 406.469341,390.015332 L406.469341,390.034332 L406.469341,390.044332 L406.459341,390.054332 C406.039341,391.034332 405.589341,391.994332 405.139341,392.954332 C403.089341,397.284332 400.799341,401.515332 398.419341,405.675332 C386.719341,426.214332 371.939341,445.004332 355.099341,461.584332 C347.259341,469.304332 339.109341,476.485332 329.899341,482.365332 C327.959341,483.595332 325.979341,484.784332 323.949341,485.874332 C322.859341,486.464332 321.739341,487.015332 320.619341,487.574332 C318.979341,488.384332 319.659341,488.064332 318.659341,488.464332 C316.849341,489.175332 314.999341,489.794332 313.109341,490.284332 C312.099341,490.544332 311.079341,490.765332 310.049341,490.954332 C310.039341,490.954332 310.019341,490.964332 309.989341,490.964332 C309.979341,490.964332 309.969341,490.974332 309.959341,490.964332 C309.949341,490.974332 309.929341,490.974332 309.909341,490.974332 C309.529341,491.004332 308.849341,491.064332 308.719341,491.064332 C294.359341,491.115332 280.119341,489.185332 266.219341,485.615332 C258.689341,483.675332 251.169341,481.324332 244.089341,478.095332 C240.489341,476.445332 236.969341,474.615332 233.599341,472.544332 C232.089341,471.615332 230.659341,470.494332 229.069341,469.685332 C226.689341,468.464332 224.359341,468.595332 221.789341,468.485332 C217.869341,468.324332 215.089341,472.425332 216.049341,476.025332 C217.219341,480.414332 219.059341,483.004332 222.839341,485.615332 C225.859341,487.695332 229.059341,489.534332 232.319341,491.204332 C239.419341,494.855332 246.929341,497.824332 254.529341,500.254332 C268.759341,504.794332 283.739341,507.584332 298.639341,508.605332 C309.489341,509.345332 318.889341,507.894332 328.769341,503.324332 C339.199341,498.494332 348.549341,491.284332 357.199341,483.804332 C376.569341,467.064332 393.419341,446.754332 407.709341,425.564332 C421.139341,405.644332 431.559341,383.954332 428.129341,359.224332 C426.759341,349.304332 422.719341,340.765332 416.009341,333.345332" id="ðŸ–-Ink" fill="#000000"/></g>

        <g id="face" transform="translate(315 248)"><path d="M55.6 167.6c3.5-7.8 19.1-20 19.1-20s4.8 27 1.1 35.3c-3 6.8-14 19.2-22 15.7s-4-18 1.8-31ZM250.2 160.5c-2.8-6.6-15.7-17-15.7-17s-3.9 22.9-.9 30c2.5 5.7 11.5 16.2 18.1 13.2 6.6-3 3.2-15.3-1.5-26.2ZM117 199.2h87.8l5.2 14.5s-65.5 15.3-88.5 5.5l-4.5-20Z" fill="#fff"/><path d="M181.7 171c8.2-11.3-3.3-22-10.9-26.6-2-1.5-.4-6.2 3.8-5.4 38.4 6.6 18.5 72.7-30.5 36.4-5.8-4.7 1.2-15 7.5-11l1 .7c7.1 5.5 20 15.5 29.1 6ZM104.5 56.5l-2 .3c-6 1-12 3.4-17.5 6.2a59.3 59.3 0 0 0-25.9 24c-.5 1.2.7 2.7 2 2 9-6.2 17.8-11.8 28.6-15a67.7 67.7 0 0 1 19.5-2.5c4.4.2 8.6.3 12.4-2.9 3-2.3 2.2-7 0-9.4-4.1-4.7-11.3-3.7-17.1-2.7ZM204.6 52.5l-1.4-.3a8.5 8.5 0 0 0-4.9.4 7.4 7.4 0 0 0-3.6 3.1 7 7 0 0 0-.8 5.9 7 7 0 0 0 2.6 4c1.2.9 2.9 1.5 4.6 1.7 7.8.9 15.4 2.6 22.9 5 3.5 1.2 6.8 2.7 10 4.3L237 78a45 45 0 0 0 9.4 3.6c.9-.3 1.1-.6 1.3-.8v-.1l.1-.1c.3-.3.6-.8.3-3-7.4-15.3-27.7-21.9-43.4-25.1ZM123.3 128c-3 1.8-6.3 1-8.9-1.1-1.6-1.3-2.8-3-4-4.6-1.5-1.9-2.9-3.8-5-5.1-3.2-2.2-7.5-2.3-11.2-1.7-5.6 1-10.4 3.6-15.3 6.2a86 86 0 0 1-8.3 4.2c-1.1.5-1.8-1-1.4-1.8a38 38 0 0 1 27-22.5 29 29 0 0 1 30.4 18.2c1.1 3-.7 6.7-3.3 8.2ZM242.6 115.4c.2 0 .5-.2.4-.5-3.2-10.3-15.1-14.7-25.2-13.8-6.2.5-11.9 2.8-16.6 7-4.5 4-8 11.4-4 16.9 4.3 5.6 12.8 3.8 13.3-3.6.4-4.8 8.6-7.8 12.8-8.5 6.5-1.2 13.2.2 19.3 2.5Z" fill="#000"/><path d="M176.1 195.5c11.6-.1 25.6-.3 35.6.3 3.6.2 5.3 5.3 5.6 7.8 2.3 22.4-15.6 40.4-35.4 47.3-18.4 6.5-42.7 7.7-59.2-4.3a50.2 50.2 0 0 1-16-20.6 56.8 56.8 0 0 1-4.3-15c-.6-3.3-1.3-7.3-.2-10.4 1.7-4.4 6-4.5 10.1-4.5h1l5-.2 12.8-.2 27.7-.2H176Zm-49.8 19a253 253 0 0 0 42.5 1.5c10-.4 36-6.5 36-9 0-2.7-1.1-5-2-5-4 .5-34.7.8-56.4 1a3011.2 3011.2 0 0 0-24.7.3c-1 3.2 1.7 10 4.6 11.1ZM82.3 146.6c-.3-2-2-3.2-4-2.2a7.5 7.5 0 0 0-2.6 2.2l.1-.2c0-.2 0-.4-.2-.4-4.4-.7-10.1 5.4-13.2 8.8l-.7.7a61.8 61.8 0 0 0-11 16c-3.5 7.5-7.2 18.9-2.5 26.6 6.6 10.9 20.5 2.7 25.7-4.8a39.9 39.9 0 0 0 7-21.5c0-2.2 0-4.4-.2-6.7 0-2-.2-4.2 0-6.3 0-1.8.4-3.6.8-5.3.5-2.3 1-4.6.8-6.9Zm-9.9 32.5c-1.5 5.8-4.6 12.5-10 15.6-2.9 1.7-7.1 2.3-8.8-1.1-3-6.5 1.3-16.4 3.9-22.2a63 63 0 0 1 17.2-23 29 29 0 0 0-1.6 11.2l.2 5.4c.2 4.7.3 9.5-.9 14.1ZM253.3 157.5A65.2 65.2 0 0 1 262 175c3 11.9-7.2 20.5-18.5 18-11.9-2.7-16.3-16.4-16-27.2 0-5 1-10 2.1-14.9l.4-2 .7-4.1c.3-2 .5-4 1-5.9-.5-1.5-.9-3-.8-4.6 0-2.5 2.6-3.8 4.7-2.7 3 1.5 4.7 4.3 6.3 7.2l1 1.8 3.6 6 3.5 6 3.2 5Zm-13 25.5c3.1 2.8 8.5 3.9 12 1.2 4.9-3.6.8-10-1.9-14.2l-.7-1.2a1574 1574 0 0 1-13-21.3l-.8 4.9-.7 3.6c-1.3 8.8-2.2 20.3 5.1 27Z" fill="#000"/></g>

        <g id="facial-hair" transform="translate(279 400)"><path d="M237.5945,65.8793 C240.3345,68.6893 242.9645,71.6993 245.4445,74.8093 C246.1345,79.7493 246.2945,84.7493 245.6645,89.9093 C244.7445,97.3893 242.7045,104.6993 239.9445,111.7193 C238.3145,111.4893 236.7045,111.0293 235.1345,110.3093 C230.1545,108.0193 227.3745,103.4093 224.0045,99.3393 C217.2945,91.2493 205.0545,86.4693 196.4945,94.8593 C192.7745,98.5093 190.3945,103.5593 187.0745,107.5693 C183.4245,111.9793 179.3245,116.1693 175.0445,119.9693 C174.5145,120.4493 173.9645,120.9693 173.3945,121.4793 C171.0145,118.7593 168.6745,116.0193 166.3845,113.2393 C159.5745,104.9593 153.6945,95.7893 150.6045,85.4493 C149.6245,82.1693 149.0145,78.7493 148.7745,75.2993 C151.8045,71.5393 155.2645,68.1193 159.1945,65.2893 C171.0445,56.7393 184.6945,55.3493 198.8945,54.6093 C213.5845,53.8493 226.8145,54.8493 237.5945,65.8793 M273.4345,105.5493 C272.8645,99.8293 271.9845,93.8793 270.6845,87.9393 C265.9345,65.8993 255.6445,43.9293 235.0145,33.8593 C225.2545,29.0893 214.1645,27.4093 203.6445,29.7093 C185.1845,22.7993 164.6845,29.8493 150.1545,42.4893 C133.0145,57.3993 125.1045,80.7993 122.4445,102.7193 C120.5945,117.9693 119.8975,138.3443 124.2245,149.4093 C128.5515,160.4743 156.0505,190.0633 195.3045,190.2693 C251.2145,190.5623 264.8045,152.8593 266.4545,149.5593 C273.3445,135.8393 274.9445,120.6893 273.4345,105.5493" id="ðŸ–-Ink" fill="#000000"/></g>

        <g id="eyewear" transform="translate(203 303)"><path d="M335.396552,-59.6130626 C341.176552,-61.5940626 345.786552,-55.5830626 344.676552,-50.3440626 C343.366552,-44.1740626 336.926552,-39.2220626 332.656552,-34.8730626 C328.176552,-30.2930626 323.606552,-25.8030626 318.866552,-21.4830626 C309.816552,-13.2220626 300.436552,-5.44306262 290.546552,1.80693738 L287.522492,4.02283738 C278.456252,10.6558374 269.417552,17.1349374 259.706552,22.8769374 C254.446552,25.9769374 249.136552,28.9769374 243.756552,31.8669374 C241.837552,32.8969374 239.496552,34.4859374 237.087552,35.6669374 C245.896552,42.4669374 252.676552,52.8469374 254.146552,62.5169374 C257.786552,86.5369374 242.306552,108.796937 220.465552,117.646937 C209.576552,122.056937 197.456552,123.336937 185.816552,122.006937 C173.976552,120.655937 161.976552,117.155937 154.286552,107.456937 C147.456552,98.8469374 144.996552,87.8579374 144.506552,77.0669374 C144.276552,71.9469374 144.326552,66.9059374 145.406552,62.3769374 C140.696552,62.4169374 135.986552,62.3969374 131.316552,62.4469374 C119.776552,62.5569374 108.215552,62.6079374 96.6665524,62.2869374 C84.7565524,61.9469374 72.9065524,61.4169374 61.0365524,60.3579374 C55.8265524,59.8869374 50.6465524,59.1169374 45.4655524,58.3769374 C40.4365524,57.6669374 34.8865524,57.3969374 30.1865524,55.3369374 C29.8665524,55.2069374 30.0003371,54.7469374 30.2765524,54.6559374 C35.2865524,53.0369374 40.9765524,53.3259374 46.1965524,53.0069374 L51.2842492,52.6983426 C55.5218586,52.4452231 59.7565524,52.212366 64.0065524,52.0759374 C73.8240524,51.7530624 83.6338962,51.6736561 93.4494821,51.5054374 L97.6565524,51.4269374 C109.206552,51.1969374 120.756552,51.0669374 132.306552,50.6969374 C137.096552,50.5469374 141.896552,50.2669374 146.706552,50.0069374 C147.266552,48.7359374 148.087552,47.5759374 148.876552,46.4469374 C151.236552,43.0669374 154.236552,40.0869374 157.346552,37.3869374 C163.715552,31.8259374 170.886552,27.6969374 178.886552,24.9269374 C186.814186,22.1912707 198.409172,20.8341567 206.796178,21.0107485 C215.183185,21.1873402 227.135719,22.3702707 230.976552,29.2269374 C231.376552,29.9369374 238.686552,28.5669374 240.856552,26.9059374 C245.926552,23.0369374 250.906552,19.0569374 255.795552,14.9769374 C264.876552,7.38693738 274.215552,-0.0830626211 282.816552,-8.20306262 C291.686552,-16.5830626 300.486552,-25.1030626 308.926552,-33.9030626 C313.166552,-38.3130626 317.396552,-42.7330626 321.506552,-47.2530626 C325.706552,-51.8630626 329.316552,-57.5430626 335.396552,-59.6130626 Z" id="ðŸ–-Ink" fill="#000000"/></g>
    </g>
</svg>