<svg xmlns="http://www.w3.org/2000/svg" viewBox="0 0 704 704" fill="none" width="512" height="512">
    <desc>"Open Peeps" by "Pablo Stanley", licensed under "CC0 1.0". / Remix of the original.</desc>
    <mask id="viewbox"><rect width="704" height="704" rx="0" ry="0" x="0" y="0" fill="#ffffff" /></mask>
    <g mask="url(#viewbox)">
        <rect id="background" fill="#ffd5dc" width="704" height="704" x="0" y="0" />

        <g id="body"><path id="skin" d="M705.3 1074a2351.1 2351.1 0 0 1-15.6-101c-1-7.7-2.5-16.4 2.7-22 7.3-8 14-14.8 14.8-26.2.8-10.7-2.8-22.4-5-32.8a809.4 809.4 0 0 0-17.3-64.7c-6.6-21.7-13.9-43.2-21.3-64.6-6.9-20-13.5-40.3-22.5-59.5-17-36.5-46-63.5-81.6-81.6-9-4.5-27-20.5-36.3-24-8.5-3.4-8.5 6.3-16.9 2.6-6.7-2.9-13-6.7-16.7-13.2-4-7-14.3-16.9-15.9-25-3.3-17.4.3-32.2-12-45.3a90 90 0 0 0-41.1-23.8c-33.7-9.3-78.5-2.8-98.8 28.5-9.7 14.9-13 33-26.2 45.1-11.4 10.7-8.8 18-23.6 23.4-.9.3-23.6-4.5-24.4-4.2-16.2-3.5-31.7 6.2-46.5 11.8a325.4 325.4 0 0 0-63 32.3 399.2 399.2 0 0 0-102.3 98.5 482.5 482.5 0 0 0-76.4 161c-1.7 6.4-3.5 13-1.5 19.4 1.7 5.3 5.4 9.2 9.8 12.4 6 4.3 18 7 17.7 15.7-.1 6.6-2.4 13.5-3.5 20-1.3 7.7-2.3 15.5-3.4 23.2-4.8 35.4-8.6 71-10.3 106.6a920 920 0 0 0-.5 106c.1 2.3.8 4.5 2 6.2-1 .4-1.2 2.4.1 2.7l2.7.5a12 12 0 0 0 7 2.4l5.5.2c19.3 4 38.6 7.9 58.1 10.8 23.8 3.5 47.6 6.3 71.5 8.7 49.2 4.8 98 3.2 147.1.6a1877 1877 0 0 1 147.4-2c49.2 1.4 98.4 3.5 147.6 4.4 55 1 110-.5 164.8-5 7.5-.5 12.2-6.5 10.7-14-8.9-44.7-19-89.1-27-134Z" fill="#d08b5b"/><path id="shirt" d="m201 597.5 1.2-.4c14.5-5.7 29.6-14.8 45.4-11.4.5-.2 10.8 1.9 17.9 3.2l-6.7 7L247 598c40.7 67.1 88.8 100.7 144.3 100.7 55.5 0 97.7-33.6 126.4-100.7l4-1c.4 0 1 .2 1.5.4 9.3 3.6 27.4 19.6 36.3 24.1 35.6 18 64.5 45 81.6 81.6 8.7 18.6 15.2 38 21.8 57.5l.7 2c7.4 21.4 14.7 43 21.3 64.6 6.3 20.4 12 41 16.6 61.8l.7 2.9c2.2 10.4 5.8 22 5 32.8a29 29 0 0 1-3 10.7l-80.4 29 38.4 261.3c-35.1 1.5-70.3 2-105.5 1.3-49.2-.9-98.4-3-147.6-4.3-47.7-1.2-95.3-.7-143 1.7l-12 .6a946.3 946.3 0 0 1-139.5-1l-3.1-.3v-38.3l16.3-212.9-83-15.6-81.3-39.5a21.7 21.7 0 0 1-5.6-8.8c-1.9-6-.5-12 1-18l.5-1.3a492.8 492.8 0 0 1 76.4-161A399.3 399.3 0 0 1 138 629.7c19.8-13 40.9-23.9 63-32.3Z" fill="#78e185"/><path d="M232.2 584.6c5.1-.3 10.3.6 15.4 1 .4.1.6.8 0 .9-9 1.9-18 4.5-26.9 7.1l-3.8 1.2c-10 3-19.8 6-29.6 10-19.4 7.9-37.8 18.5-54.8 30.8C67.2 682.8 20 754.3-9.9 828.3a526 526 0 0 0-24.3 77c-.4 1.6-2 5.4-1 7 .7 1.3 3.6 2.1 5 2.9l4.5 2.3 25.2 12.9 2.3 1.1c38 18.6 78.4 34.4 121 35.5l.4-3.7a342 342 0 0 1 9.9-60c.3-1 1.6-.6 1.7.3 3 23.1 2 46.4 1 69.7-1.8 41-4.3 82.2-6.5 123.3-1.2 20.6-2.6 41-3.9 61.7-1.3 20.5-1.7 41.6-4.7 62-.6 4.6-6 7-10 6.6-4.4-.5-7.9-4.5-8-9 0-11.9 1.5-24 2.4-35.8l2.5-33.8c3.1-41.1 6.8-82.2 10.2-123.3a4771 4771 0 0 1 3.8-43.7C76.4 979.8 34.2 963-6.1 943.5c-.6 13.2-2 26.5-3.4 39.6-3.8 36.8-7.1 73.6-9.6 110.5a2254.2 2254.2 0 0 0-4.2 92.7l-.2 7c0 4.4-.5 8.5-4.3 11.7-3.7 3.3-8.9 3.5-12.6 0-5-4.6-4.2-10.9-4-17.1a1675.6 1675.6 0 0 1 1.8-47.2 1321 1321 0 0 1 10.5-109.5l2-14c3.5-26 7.5-52.7 15.5-77.9-3.1-1.5-6.2-3-9.3-4.7-5.5-2.7-11.2-5.4-16.6-8.4-4.2-2.5-7.9-5.8-9-10.8-1.4-5.5.6-11.5 2-16.9v-.4a502 502 0 0 1 26.6-80 523.2 523.2 0 0 1 67.8-117 353.8 353.8 0 0 1 88.7-83.3 239 239 0 0 1 53.8-25.7 142.6 142.6 0 0 1 42.8-7.5Zm90.1-66c6-6.5 18.1.2 15.2 8.8a108.2 108.2 0 0 1-34.7 52A79.4 79.4 0 0 1 247 598l1.7 2.4a321.1 321.1 0 0 0 46.1 52.6c36 31.2 84.8 48 132 36 37.1-9.4 69.8-38.8 79.4-76.2-1.3.6-3 .9-4.8.5-7.7-1.7-15.3-9.8-20.3-15.6-5.3-6.3-9.5-13-12.6-20.7-5.6-14-7.4-32.1.3-45.7 1-1.7 3-.7 3.3 1l.3 2.5c1.5 12.7 3.3 25 9.3 36.6a76 76 0 0 0 18.2 23.1c2.6 2 5.8 3.6 8.1 6l.5.4c.6-5 4.1-7.3 7.6-7.2 3.3.2 7.3 1.6 8.8 2.3l.1.1a341 341 0 0 1 65.1 42 259 259 0 0 1 88.4 129c7.5 25.3 11.8 51.4 16.3 77.4l2.8 16c4.2 23.9 8.9 48.4 18.4 70.7 2.5 5.7.6 11.1-5.5 13.4A1493 1493 0 0 1 688 953c3.7 16 6 32.5 8.7 48.5 6 34.1 13.2 68 19.4 102 3.2 17.5 6.1 35 9.3 52.3l4.7 25.2 2.4 13.6.1.7c.5 2.4 1 4.9.4 7.3-.8 2.7-2.9 4.6-4.8 6.6-1.6 1.6-3.8 1.6-5.7.7l-.7-.3c-3.4-1.6-6-3.2-7.3-7-.7-2.5-1-5.2-1.5-7.7a3535.6 3535.6 0 0 1-7.8-43.6l-1.6-9.1c-5.2-31.4-10.2-62.9-12.8-94.5-1-14-2.3-28.1-3.5-42.2l-.9-10.5c-1.1-13.3-2.5-27-2.7-40.5l-4.5 1.6L657 964c-5.5 2-12.5 6-18.4 5.2-2.9-.3-5-1.2-6.8-2.9 2 28.8 4.8 57.4 8.5 86a1965.7 1965.7 0 0 0 22 135c.6 3.2 1.4 6.4 1.9 9.6.5 3.7-.5 5.9-2.5 9-1.7 2.4-5 3.7-7.8 2-3.6-2.3-5.5-4.3-6.5-8.4-1-3.7-1.6-7.6-2.3-11.4a1654.2 1654.2 0 0 1-11.4-65.2c-7.8-52-12.7-104.4-15.2-156.8a1388 1388 0 0 1-1.4-77.8c0-13.3.5-26.6 1.4-39.9 1-13.4 3-26.5 4.8-39.8 0-.5.7-.5.7 0 .8 14.9 2.1 29.8 2.8 44.7.6 14.3.9 28.5 1.4 42.8.6 18.7 1.5 37.5 2.7 56.2a9.6 9.6 0 0 1 8.5-3.1c4.7-1 9.7-3.4 14.1-5l16.8-5.5 26.4-8.7a679 679 0 0 1-18-80.8l-2-12.3c-4-24.2-8.5-48.5-15.8-72a229.8 229.8 0 0 0-34.8-68.2 370.2 370.2 0 0 0-52.7-55.3C557 627 539.7 614 523 600c.1.9.2 2 0 3-3.5 25.9-17 50-35.8 67.9-37.7 36-93.6 43.4-142 26.5-46.7-16.3-88-55-102.6-102.8-.3-.8.8-1 1.3-.5l2.4 3.3c0-.4.2-.9.7-1a129 129 0 0 0 46.6-29.2 100.2 100.2 0 0 0 21.3-33.3l.4-1c1.7-5 3.2-10.2 7-14.2Z" fill="#000000"/></g>

        <g id="head" transform="matrix(.99789 0 0 1 156 62)"><path id="skin" d="M402.066246,224.220511 C393.015708,186.067037 373.228495,150.560837 341.5498,121.8656 C246.2218,27.6196 71.1588,78.7746 71.9518,220.7966 C68.5328,237.3846 67.1448,254.4406 68.2768,271.3576 C68.7448,278.5756 71.8688,288.6486 67.6718,295.1446 C58.2048,307.2976 52.7028,316.2556 55.9248,332.4216 C58.6168,346.5366 68.2228,356.5366 81.1868,361.8526 C88.9618,364.0836 96.3388,368.9436 99.2188,376.3516 C116.5248,408.0356 129.3458,434.3896 156.6288,455.9826 C163.6688,461.5416 235.874671,494.8836 259.6658,494.8836 C329.317032,494.8836 417.1028,469.6536 418.5598,391.8536 C418.8118,374.7656 415.8128,357.4786 413.9318,340.5256 C409.352962,301.837543 410.968396,261.748438 402.066246,224.220511 Z" fill="#d08b5b"/><path d="M400.499,205.1369 C400.521,204.6649 401.197,204.5589 401.328,205.0249 C403.917,214.2099 405.384,223.5669 407.409,232.8949 C409.359,241.8799 411.2,250.8909 412.732,259.9549 C415.623077,277.061362 418.059148,294.212131 420.324936,311.407994 L420.888,315.7079 C424.826,345.9649 431.33,377.4859 425.643,407.9199 C420.79,433.8889 404.519,454.8189 383.55,470.1639 C363.695,484.6929 339.622,494.0169 315.72,499.3179 C290.066,505.0089 259.658,506.7069 238.785,487.8949 C230.429,480.3619 241.82,465.4159 250.885,472.2139 C272.17099,488.1727 299.249371,483.468052 323.268105,477.117815 L323.995,476.9249 C345.076,471.3099 366.297,462.7989 383.033,448.4409 C401.536,432.5659 410.685,410.5339 411.742,386.3699 C412.335036,372.793721 411.069307,359.23335 409.704019,345.737205 L409.552,344.2379 C407.985,328.8039 406.341,313.3769 404.824,297.9369 C403.439867,283.857567 402.245636,269.696349 401.614491,255.554063 L401.319968,248.421162 C400.706618,234.040085 399.88087,219.448857 400.499,205.1369 Z M150.8565,85.645 C185.4945,67.612 225.3025,61.158 263.8505,67.21 C300.9085,73.028 334.9185,92.15 360.3395,119.569 C372.7505,132.956 383.7665,148.441 390.8065,165.358 C394.3035,173.762 397.0415,182.529 398.4995,191.533 C399.2495,196.162 399.9865,200.958 400.1275,205.651 C400.2575,209.996 398.9815,214.071 399.1325,218.488 C399.1555,219.179 398.0965,219.312 397.9355,218.65 C396.7315,213.725 393.8305,210.001 392.0105,205.323 C390.650167,201.83 389.107142,198.419877 387.536223,195.020171 L386.1865,192.107 C382.2685,183.64 377.5855,175.521 372.9525,167.431 C363.6235,151.137 351.6535,136.329 337.6375,123.834 C313.0285,101.896 281.4575,87.735 248.5065,85.185 C214.3055,82.537 179.6155,90.689 150.4075,108.747 C121.2015,126.804 99.1175,154.874 87.6515,187.193 C81.8665,203.502 78.6715,220.495 77.9285,237.773 C77.5525,246.519 77.9035,255.338 78.5165,264.067 L78.8209867,268.229562 C79.1777779,273.221416 79.4223261,278.194043 78.6765,283.065 C83.9445,281.422 89.4665,280.741 95.0085,281.554 C103.2435,282.762 108.1635,286.138 111.8575,293.496 C112.0505,293.88 111.6635,294.264 111.2805,294.073 C106.4915,291.683 98.7435,292.941 93.6715,294.194 C88.3935,295.498 83.6395,297.766 79.1545,300.832 C70.8575,306.501 64.3535,315.286 62.7575,325.365 C61.2145,335.101 65.2115,344.959 71.9255,351.937 C75.3815,355.531 79.5125,358.638 84.1375,360.574 C89.7505,362.925 95.3065,362.852 100.2725,366.733 C103.3425,369.132 102.6005,373.237 100.5185,375.901 C110.9955,387.389 120.2865,399.957 130.7625,411.49 C135.6185,416.835778 140.435784,422.187877 145.088634,427.705726 L146.8255,429.783 C151.4715,435.39 158.8635,441.313 160.9865,448.365 C162.3075,452.752 157.6095,458.49 152.8605,456.491 C145.575862,453.423681 140.375613,445.443295 135.453155,439.322478 L135.1325,438.926 C129.9705,432.583 125.3875,425.887 121.1975,418.87 L119.819796,416.558354 C112.243173,403.816009 104.7317,390.6006 99.9005,376.602 C99.5815,376.93 99.2435,377.229 98.8875,377.482 C91.9275,382.431 81.8095,378.626 74.8585,375.412 C68.2965,372.379 62.2805,367.815 57.5915,362.314 C47.3935,350.352 42.6925,334.86 46.0985,319.335 C48.9835,306.184 58.0985,293.392 70.0485,286.74 C64.5325,280.39 62.2485,271.83 60.7285,263.461 C58.7885,252.778 58.4015,241.83 58.9285,230.997 C59.9795,209.42 65.5325,188.151 74.1165,168.393 C89.4745,133.04 116.6265,103.468 150.8565,85.645 Z M77.9552,321.556 C85.2252,320.194 92.0002,319.865 99.0122,322.941 C106.6182,326.28 111.9712,331.792 116.9472,338.25 C122.60901,345.5958 108.098402,353.620809 104.439716,343.868971 L104.3322,343.568 C103.3522,340.681 101.5972,337.89 99.3742,335.321 C98.7072,336.343 97.8152,337.243 96.7672,337.758 C95.4982,338.382 93.5602,337.95 93.2552,336.329 C92.9172,334.53 93.2912,332.35 94.3292,330.827 L94.4712,330.619 L94.4712,330.619 C89.4272,326.56 83.3602,323.595 77.9552,322.641 C77.4152,322.545 77.4212,321.656 77.9552,321.556 Z" id="ðŸ–-Ink" fill="#000000"/></g>

        <g id="face" transform="translate(315 248)"><path d="M79.2 197.8c11-6.6 51.7-1.8 83.8 0 25.5 1.4 43.7-1.4 49.5 2.5 13.1 8.9 6.8 51.7-16 57.6-22.6 5.8-106.6 14-121 0-14.6-14-15.9-48.3 3.7-60.1Z" fill="#fff"/><path d="M93.3 186.5c17.2-2.1 33.8 3.1 50.6 5.8a236.6 236.6 0 0 0 32 3c.2-1.6 1-3 3-4 4-1.7 7.1-2.5 11.4-2.4 4 .2 8 .6 11.9 1.3a37 37 0 0 1 19.4 9.4c12 11.8 10.1 30.9.9 43.8-19.2 26.7-54.1 28-84 27.6h-2.8c-27.3-.5-66.3 3.6-78.7-27.4a43.6 43.6 0 0 1 1.7-35.6c6.6-13 20.6-19.8 34.6-21.5Zm85.2 44.4h-.2c-12.6.5-25.2.8-37.8 1a500.6 500.6 0 0 0 2.3 17.3c.2 1.1.8 2.8.6 3.8v.4a3.8 3.8 0 0 1 2 2.2c9.8 0 20.3-.1 30.2-1.9v-.2c.2-1.3.8-2.1 1.5-2.7.7-4 .6-8.4.9-12.4l.5-7.5Zm-47.6 1.2c-9 .2-18 .3-27.1.2h-4.2c1 4.6 1.9 9.2 2.6 14 .9 4.8-3.4 8-7.2 7.8l1.3.2c11.6 1.6 23.7 1.2 35.5 1.2-.6-3.7-.4-8-.5-11v-.5l-.4-11.9Zm-61.5-.8c.3 2.4 1 4.8 1.8 7 4 9.3 12.8 13.6 22.2 15.5-1.7-.6-3-2-3.3-4.2A128 128 0 0 1 89 232c-6.6 0-13.1-.2-19.6-.8Zm143.2-2c-4.7 1-10 .6-14.6.8l-12.9.5.6 8.8c.3 3.7.3 7.7 1 11.5 8.7-3 16.4-7.7 22.2-15.2 1.4-1.9 2.7-4 3.7-6.4ZM91.4 201.8c-7.8 1.8-15 5.7-19 12.8a27 27 0 0 0-3.2 14c6.5-.7 13.2-1 19.8-1.2l.1-3.6.1-3c.2-5.9.3-13.2 2.2-19Zm40 .7-3.3-.4c-9.5-1-19-2.2-28.4-1.6l-4.2.5c1.7 6 1.5 13.1 2.2 19.1l1 6.9h1.7c10.1-.6 20.3-1 30.5-1.4V218c.2-4.8-.1-10.3.6-15.4Zm47.6-.8a190.6 190.6 0 0 1-41.5 1.4l.5 6.2 1.3 12.4.5 3.6 37.5-1.9h1.7l.5-7c.4-4.6.7-9.2 1.3-13.8l-.4-.1-1.4-.8Zm4.4 1.7 1.2 19.6 8.2-.4 4.2-.2c5.3-.3 12.2-2 17.5-.4.4-4.8-1-9.5-5.3-12.7-7.7-5.7-17.3-3.7-25.8-5.9Zm-28.2-58.3c12.3-7 43-14.2 45 7.9 1 10.1-6.6 18.6-15.5 22.3l-.3.1c-8.3 3.4-23 7.3-30.1 0-6-6.2 2-17.2 9.3-12.2 3.9 2.6 11.9.7 16.1-.6h.3c4.6-1.4 10.7-5.7 8.8-11.3-1.7-5-8.8-6-13.3-6-6.7-.3-13.2 1.2-19.8 1.7-1 0-1.3-1.4-.5-2Zm50.8-35.5c16.7-.8 27 17.4 23.2 32.3-.6 2.6-3.5 5-6.3 4.8h-.7l-1-.2c-2.7-.8-5-3.5-4.8-6.4v-.8c.4-7-.4-15.1-8.7-16.8-7.1-1.5-11 5.3-11.2 11.6 0 1.1-1.2 2-2.2 1.3-5.2-3-6-9.3-4-14.6a17.2 17.2 0 0 1 15.7-11.2Zm-123.6 3.9c12.2-4 25.2 2.4 31.1 13.1 2 .6 4.1 2.2 3.8 4.6-.4 3.5-1 5.7-3.4 8.4-3.8 4.1-11 2-12.5-3.1v-.2c-1.9-6.6-9.1-11-15.7-8.7-7.8 2.7-7.5 10.9-13 15.6-.6.6-1.4.7-2.1.3-5.8-2.8-4.8-11.1-2.7-16 2.7-6.2 8-11.8 14.5-14ZM66 76.7c9.8-10 35.5-19.7 42.2-1.2 1.3 3.5-1.5 8.2-5.1 9-6 1.2-11.4-1.4-17.3-1a26 26 0 0 0-13.8 5c-10.7 8.3-13 22.3-20.5 32.9-.4.5-1 .3-1.1-.3a58.4 58.4 0 0 1 15.6-44.4ZM194 66.8a33 33 0 0 1 20.5 0 39.7 39.7 0 0 1 23 18.6c.8 1.5 1.7 4.4 2.6 6.2 5.1 3 7.3 9.7 2.7 14.5l-.2.3-.6.6a9.9 9.9 0 0 1-9.6 2.5c-7.5-2.2-8.4-8.1-11-14.4a25.8 25.8 0 0 0-8.3-10.6 39.8 39.8 0 0 0-32.6-5.4c-.5.1-1.1-.6-.8-1 2-2.6 3-4.6 5.7-6.6 2.6-2 5.5-3.6 8.6-4.7Z" fill="#000"/></g>

        <g id="facial-hair" transform="translate(279 400)"><path d="M229.9448,33.9998 C241.6588,34.8308 252.7388,42.0988 262.8158,47.7168 C272.51397,53.5108426 279.691907,62.0952464 285.425881,71.6662255 L285.7978,72.2918 C286.1341,72.79055 285.534508,73.3515725 285.041591,73.1612186 L284.9648,73.1248 C275.4478,68.3498 265.4058,64.4798 256.0618,59.2708 C246.9378,53.6298 235.7338,51.7018 226.5408,46.5708 C221.2868,42.6758 222.8638,34.3008 229.9448,33.9998 Z M199.4764,39.6831 C199.9034,42.3551 198.8244,46.5961 195.3164,47.8351 C189.153275,50.0091625 183.540345,51.1812719 177.34959,52.8774291 L169.32497,55.1248967 C153.910423,59.4668903 138.264477,64.1279974 124.6174,70.9681 L124.1894,70.7801 C114.2764,64.5781 169.0404,38.7041 187.9494,34.5821 C191.4234,33.8241 198.8314,35.6511 199.4764,39.6831 Z" id="ðŸ–-Ink" fill="#000000"/></g>

        <g id="eyewear" transform="translate(203 303)"><path d="M398.9346,13.2313 C398.1116,13.0943 397.2876,12.9653 396.4636,12.8443 C395.8206,12.4793 395.0656,12.1983 394.1876,12.0293 C392.1826,11.5203 390.1916,11.1773 388.2036,10.9923 C359.6716,4.5713 293.6646,13.6883 290.9406,38.0363 C281.8546,41.0693 273.9926,38.3533 263.4616,38.6233 C255.4456,5.1183 116.8626,9.8473 110.1976,30.0473 C110.1726,30.0403 110.1476,30.0343 110.1216,30.0263 C103.7176,28.0443 94.2766,28.5223 86.9466,28.2083 C71.2956,27.8803 55.6266,29.2753 40.3136,32.5763 C11.6386,37.1333 -27.4964,42.4683 -7.5534,78.2763 C-7.5494,78.2823 -7.5464,78.2893 -7.5414,78.2953 L-7.5384,78.2923 C-4.1014,81.8153 1.7316,78.9783 1.9486,74.2093 C-4.7564,57.2453 10.3876,55.2083 22.0396,50.3333 C51.0326,39.9173 80.5506,38.4733 110.5366,41.6953 C112.7926,44.3513 116.2156,46.6673 119.8336,47.8793 C139.8826,51.2073 129.3166,66.0793 141.9896,68.2423 C139.6616,120.0843 202.6026,148.3823 239.0716,114.3033 C253.6326,100.0673 257.1036,78.9783 260.4796,59.9693 C262.2646,59.5683 263.3996,58.5923 264.0626,57.3003 C268.3556,53.0143 271.0526,49.0563 279.5416,47.8793 C288.0306,46.7033 294.5656,49.0643 295.4496,49.7873 C295.6726,50.2363 295.9116,50.6863 296.1896,51.1363 C296.5776,51.8073 297.1056,52.3423 297.7056,52.7633 C289.3226,104.3873 329.3996,137.0353 369.8586,110.2603 C387.4386,93.7233 391.1536,68.4053 391.8876,45.8073 C394.2706,44.3693 395.7796,41.5823 394.9546,38.0783 C393.8176,33.2483 396.4836,29.0663 400.7296,26.9663 C406.2466,24.2393 405.2706,14.2803 398.9346,13.2313 M225.086988,37.7223618 C220.065054,36.6178235 217.920374,44.3606372 222.95832,45.4681879 C226.525804,46.252514 229.549376,48.0515396 231.592155,51.0993468 L231.807252,51.4306867 C234.548399,55.792609 241.479828,51.7660647 238.719666,47.3760269 C235.614234,42.4357281 230.788453,38.9755108 225.086988,37.7223618 Z M372.1732,32.9216366 C370.402814,31.6745124 367.723715,32.6003163 366.69591,34.362557 C365.564701,36.303111 366.306135,38.4637159 367.964208,39.7331967 L368.133036,39.8571332 C369.653907,40.9290575 371.135119,42.8505012 371.321131,44.8192514 L371.337546,45.0655335 C371.536702,50.2177028 379.543974,50.24381 379.343817,45.0655335 C379.148664,39.999719 376.215367,35.767329 372.1732,32.9216366 Z" id="ðŸ–-Ink" fill="#000000"/></g>
    </g>
</svg>