<svg xmlns="http://www.w3.org/2000/svg" viewBox="0 0 704 704" fill="none" width="512" height="512">
    <desc>"Open Peeps" by "Pablo Stanley", licensed under "CC0 1.0". / Remix of the original.</desc>
    <mask id="viewbox"><rect width="704" height="704" rx="0" ry="0" x="0" y="0" fill="#ffffff" /></mask>
    <g mask="url(#viewbox)">
        <rect id="background" fill="#d1d4f9" width="704" height="704" x="0" y="0" />

        <g id="body"><path id="skin" d="M705.3 1074a2351.1 2351.1 0 0 1-15.6-101c-1-7.7-2.5-16.4 2.7-22 7.3-8 14-14.8 14.8-26.2.8-10.7-2.8-22.4-5-32.8a809.4 809.4 0 0 0-17.3-64.7c-6.6-21.7-13.9-43.2-21.3-64.6-6.9-20-13.5-40.3-22.5-59.5-17-36.5-46-63.5-81.6-81.6-9-4.5-27-20.5-36.3-24-8.5-3.4-8.5 6.3-16.9 2.6-6.7-2.9-13-6.7-16.7-13.2-4-7-14.3-16.9-15.9-25-3.3-17.4.3-32.2-12-45.3a90 90 0 0 0-41.1-23.8c-33.7-9.3-78.5-2.8-98.8 28.5-9.7 14.9-13 33-26.2 45.1-11.4 10.7-8.8 18-23.6 23.4-.9.3-23.6-4.5-24.4-4.2-16.2-3.5-31.7 6.2-46.5 11.8a325.4 325.4 0 0 0-63 32.3 399.2 399.2 0 0 0-102.3 98.5 482.5 482.5 0 0 0-76.4 161c-1.7 6.4-3.5 13-1.5 19.4 1.7 5.3 5.4 9.2 9.8 12.4 6 4.3 18 7 17.7 15.7-.1 6.6-2.4 13.5-3.5 20-1.3 7.7-2.3 15.5-3.4 23.2-4.8 35.4-8.6 71-10.3 106.6a920 920 0 0 0-.5 106c.1 2.3.8 4.5 2 6.2-1 .4-1.2 2.4.1 2.7l2.7.5a12 12 0 0 0 7 2.4l5.5.2c19.3 4 38.6 7.9 58.1 10.8 23.8 3.5 47.6 6.3 71.5 8.7 49.2 4.8 98 3.2 147.1.6a1877 1877 0 0 1 147.4-2c49.2 1.4 98.4 3.5 147.6 4.4 55 1 110-.5 164.8-5 7.5-.5 12.2-6.5 10.7-14-8.9-44.7-19-89.1-27-134Z" fill="#694d3d"/><path id="shirt" d="m201 597.5 1.2-.4c14.5-5.7 29.6-14.8 45.4-11.4.5-.2 10.8 1.9 17.9 3.2l-6.7 7L247 598c40.7 67.1 88.8 100.7 144.3 100.7 55.5 0 97.7-33.6 126.4-100.7l4-1c.4 0 1 .2 1.5.4 9.3 3.6 27.4 19.6 36.3 24.1 35.6 18 64.5 45 81.6 81.6 8.7 18.6 15.2 38 21.8 57.5l.7 2c7.4 21.4 14.7 43 21.3 64.6 6.3 20.4 12 41 16.6 61.8l.7 2.9c2.2 10.4 5.8 22 5 32.8a29 29 0 0 1-3 10.7l-80.4 29 38.4 261.3c-35.1 1.5-70.3 2-105.5 1.3-49.2-.9-98.4-3-147.6-4.3-47.7-1.2-95.3-.7-143 1.7l-12 .6a946.3 946.3 0 0 1-139.5-1l-3.1-.3v-38.3l16.3-212.9-83-15.6-81.3-39.5a21.7 21.7 0 0 1-5.6-8.8c-1.9-6-.5-12 1-18l.5-1.3a492.8 492.8 0 0 1 76.4-161A399.3 399.3 0 0 1 138 629.7c19.8-13 40.9-23.9 63-32.3Z" fill="#fdea6b"/><path d="M232.2 584.6c5.1-.3 10.3.6 15.4 1 .4.1.6.8 0 .9-9 1.9-18 4.5-26.9 7.1l-3.8 1.2c-10 3-19.8 6-29.6 10-19.4 7.9-37.8 18.5-54.8 30.8C67.2 682.8 20 754.3-9.9 828.3a526 526 0 0 0-24.3 77c-.4 1.6-2 5.4-1 7 .7 1.3 3.6 2.1 5 2.9l4.5 2.3 25.2 12.9 2.3 1.1c38 18.6 78.4 34.4 121 35.5l.4-3.7a342 342 0 0 1 9.9-60c.3-1 1.6-.6 1.7.3 3 23.1 2 46.4 1 69.7-1.8 41-4.3 82.2-6.5 123.3-1.2 20.6-2.6 41-3.9 61.7-1.3 20.5-1.7 41.6-4.7 62-.6 4.6-6 7-10 6.6-4.4-.5-7.9-4.5-8-9 0-11.9 1.5-24 2.4-35.8l2.5-33.8c3.1-41.1 6.8-82.2 10.2-123.3a4771 4771 0 0 1 3.8-43.7C76.4 979.8 34.2 963-6.1 943.5c-.6 13.2-2 26.5-3.4 39.6-3.8 36.8-7.1 73.6-9.6 110.5a2254.2 2254.2 0 0 0-4.2 92.7l-.2 7c0 4.4-.5 8.5-4.3 11.7-3.7 3.3-8.9 3.5-12.6 0-5-4.6-4.2-10.9-4-17.1a1675.6 1675.6 0 0 1 1.8-47.2 1321 1321 0 0 1 10.5-109.5l2-14c3.5-26 7.5-52.7 15.5-77.9-3.1-1.5-6.2-3-9.3-4.7-5.5-2.7-11.2-5.4-16.6-8.4-4.2-2.5-7.9-5.8-9-10.8-1.4-5.5.6-11.5 2-16.9v-.4a502 502 0 0 1 26.6-80 523.2 523.2 0 0 1 67.8-117 353.8 353.8 0 0 1 88.7-83.3 239 239 0 0 1 53.8-25.7 142.6 142.6 0 0 1 42.8-7.5Zm90.1-66c6-6.5 18.1.2 15.2 8.8a108.2 108.2 0 0 1-34.7 52A79.4 79.4 0 0 1 247 598l1.7 2.4a321.1 321.1 0 0 0 46.1 52.6c36 31.2 84.8 48 132 36 37.1-9.4 69.8-38.8 79.4-76.2-1.3.6-3 .9-4.8.5-7.7-1.7-15.3-9.8-20.3-15.6-5.3-6.3-9.5-13-12.6-20.7-5.6-14-7.4-32.1.3-45.7 1-1.7 3-.7 3.3 1l.3 2.5c1.5 12.7 3.3 25 9.3 36.6a76 76 0 0 0 18.2 23.1c2.6 2 5.8 3.6 8.1 6l.5.4c.6-5 4.1-7.3 7.6-7.2 3.3.2 7.3 1.6 8.8 2.3l.1.1a341 341 0 0 1 65.1 42 259 259 0 0 1 88.4 129c7.5 25.3 11.8 51.4 16.3 77.4l2.8 16c4.2 23.9 8.9 48.4 18.4 70.7 2.5 5.7.6 11.1-5.5 13.4A1493 1493 0 0 1 688 953c3.7 16 6 32.5 8.7 48.5 6 34.1 13.2 68 19.4 102 3.2 17.5 6.1 35 9.3 52.3l4.7 25.2 2.4 13.6.1.7c.5 2.4 1 4.9.4 7.3-.8 2.7-2.9 4.6-4.8 6.6-1.6 1.6-3.8 1.6-5.7.7l-.7-.3c-3.4-1.6-6-3.2-7.3-7-.7-2.5-1-5.2-1.5-7.7a3535.6 3535.6 0 0 1-7.8-43.6l-1.6-9.1c-5.2-31.4-10.2-62.9-12.8-94.5-1-14-2.3-28.1-3.5-42.2l-.9-10.5c-1.1-13.3-2.5-27-2.7-40.5l-4.5 1.6L657 964c-5.5 2-12.5 6-18.4 5.2-2.9-.3-5-1.2-6.8-2.9 2 28.8 4.8 57.4 8.5 86a1965.7 1965.7 0 0 0 22 135c.6 3.2 1.4 6.4 1.9 9.6.5 3.7-.5 5.9-2.5 9-1.7 2.4-5 3.7-7.8 2-3.6-2.3-5.5-4.3-6.5-8.4-1-3.7-1.6-7.6-2.3-11.4a1654.2 1654.2 0 0 1-11.4-65.2c-7.8-52-12.7-104.4-15.2-156.8a1388 1388 0 0 1-1.4-77.8c0-13.3.5-26.6 1.4-39.9 1-13.4 3-26.5 4.8-39.8 0-.5.7-.5.7 0 .8 14.9 2.1 29.8 2.8 44.7.6 14.3.9 28.5 1.4 42.8.6 18.7 1.5 37.5 2.7 56.2a9.6 9.6 0 0 1 8.5-3.1c4.7-1 9.7-3.4 14.1-5l16.8-5.5 26.4-8.7a679 679 0 0 1-18-80.8l-2-12.3c-4-24.2-8.5-48.5-15.8-72a229.8 229.8 0 0 0-34.8-68.2 370.2 370.2 0 0 0-52.7-55.3C557 627 539.7 614 523 600c.1.9.2 2 0 3-3.5 25.9-17 50-35.8 67.9-37.7 36-93.6 43.4-142 26.5-46.7-16.3-88-55-102.6-102.8-.3-.8.8-1 1.3-.5l2.4 3.3c0-.4.2-.9.7-1a129 129 0 0 0 46.6-29.2 100.2 100.2 0 0 0 21.3-33.3l.4-1c1.7-5 3.2-10.2 7-14.2Z" fill="#000000"/></g>

        <g id="head" transform="matrix(.99789 0 0 1 156 62)"><path d="M465.939,500.9589 C454.529,447.3989 447.21,393.1489 440.66,338.8289 C437.49,312.5189 434.96,286.1399 432.029,259.8099 C429.29,235.2789 426.099,210.6689 419.699,186.7889 C413.75,164.5989 405.049,142.6289 392.229,123.4699 C380.21,105.5089 365.099,90.1189 347.75,77.2689 C313.469,51.8789 269.629,38.3689 226.99,42.8489 C220.549,43.5289 214.169,44.6189 207.859,46.0789 C209.869,45.4889 211.9,44.9379 213.949,44.4589 C214.609,44.2999 214.316,43.4109 213.669,43.4699 C40.195,59.2309 -0.611,360.9189 -4.321,421.7489 C-4.611,426.4799 -4.84,431.1989 -5.01,435.9289 C-6.311,446.4799 -7.281,457.0599 -7.741,467.6689 C-8.26,479.9089 -8.01,492.2299 -6.881,504.4289 C-5.721,516.9379 -4.401,529.7589 0.82,541.2589 C4.019,548.3389 153.219,538.6399 154.759,530.2789 C157.879,513.3989 159.479,495.9799 158.5,478.8099 C158.04,470.5789 157.189,462.4089 155.429,454.3489 C154.949,452.1489 154.439,448.0189 153.15,444.7489 C166.759,418.8899 181.729,393.7689 197.139,368.9389 C229.21,317.2389 263.309,266.4989 289.519,211.4379 C302.66,183.8489 315.609,154.5499 321.809,124.3189 L322.809,124.5189 C322.689,124.8789 322.769,125.3289 323.129,125.5789 C351.619,145.2689 370.66,175.1089 383,207.0599 C397.369,244.2589 404.339,284.4289 403.339,324.2889 C401.75,387.6289 377.74,465.9089 309.809,485.9289 C294.309,490.4989 277.57,491.7889 261.689,488.4489 C254.199,486.8689 246.859,484.4379 240.099,480.8389 C232.599,476.8489 226.439,471.1989 219.41,466.5499 C212.979,462.2999 205.389,470.5889 209.089,476.8789 C217.259,490.7789 234.839,499.2789 249.939,503.4589 C266.049,507.9289 283.04,508.1399 299.449,505.2999 C300.699,505.0889 301.939,504.8489 303.169,504.5889 C303.449,508.7089 305.219,512.8099 308.099,516.1399 C309.389,517.6399 310.979,518.9379 312.759,520.0289 C312.99,524.0499 315.58,528.0889 319.79,528.9699 C342.279,533.6489 435.679,521.3789 458.139,514.6879 C464.169,512.8899 467.219,506.9799 465.939,500.9589" id="ðŸ–-Ink" fill="#000000"/><path id="skin" d="M407.2772,307.8148 C405.5932,229.2338 386.0142,142.2398 318.8992,93.6798 C314.6242,90.5828 308.2082,92.0828 304.6652,95.6198 C301.7562,96.1878 299.0842,97.9498 297.3072,101.1898 C257.6202,173.6248 215.8412,244.9148 171.9892,314.9068 C143.8332,360.1628 109.6312,405.4758 105.1192,460.3308 C104.3382,461.3678 97.0892,469.5518 101.3132,468.9558 C103.1882,467.9748 105.0972,467.1688 107.1052,466.5728 C112.4672,474.3898 124.9182,473.1608 127.8782,464.3378 C138.1402,464.6328 148.2962,467.2548 158.0732,470.2968 C182.0542,477.8028 206.4272,485.2228 230.9012,490.9598 C311.5272,512.3578 398.1612,485.1328 404.6032,391.1348 C413.2572,378.9418 408.5752,324.5988 407.2772,307.8148 L407.2772,307.8148 Z" fill="#694d3d"/></g>

        <g id="face" transform="translate(315 248)"><path d="M146.586567,240.926554 C139.864291,238.184203 133.866322,233.609781 129.481228,227.766254 C127.956691,225.734803 127.561405,223.589624 127.881219,221.627583 C128.240828,219.421406 129.546036,217.4219 131.326046,216.080693 C133.111571,214.735331 135.345035,214.071832 137.504329,214.410065 C139.380629,214.703969 141.248396,215.731287 142.726594,217.861908 L143.035427,218.287981 C145.642441,221.814933 149.039621,224.708755 152.91047,226.573991 C156.641339,228.371775 160.813939,229.21087 165.131898,228.722919 C173.355732,227.793938 179.024012,223.346401 185.048774,217.30672 C185.795561,216.544195 186.542826,215.757766 187.293714,214.958678 C187.767915,214.234308 188.425986,213.768756 189.156624,213.524488 C189.967867,213.253272 190.885573,213.268617 191.726122,213.56195 C192.536835,213.844871 193.261572,214.380994 193.747527,215.094538 C194.209389,215.772704 194.47125,216.610486 194.386283,217.574143 C193.834826,223.833283 190.562474,229.419299 185.914235,233.805502 C180.751772,238.67694 173.908551,242.047034 167.465957,243.229031 C160.36811,244.531047 153.135593,243.598228 146.586567,240.926554 L146.586567,240.926554 Z M170.814304,144.367155 C178.365682,148.9572 189.871664,159.660291 181.748119,171.039573 C172.185929,181.073062 158.418535,169.568982 151.634201,164.366134 C145.343449,160.333898 138.275437,170.704507 144.112,175.412823 C193.135736,211.708059 213.030606,145.567387 174.633685,138.970386 C170.406047,138.243425 168.835891,142.947174 170.814304,144.367155 Z M82.9633,102.1464 C83.7976284,91.7901242 99.5703,89.4384 101.1393,99.6864 C102.5443,108.8664 100.8903,117.2994 96.7553,125.5644 C92.8043,133.4604 82.8737826,129.776544 82.1227826,122.586544 C81.1160984,112.948648 82.4443,108.588596 82.9633,102.1464 Z M203.027,97.5615 C205.226,94.6815 208.401,92.7155 212.205,93.8265 C224.09,97.2995 220.587,114.1725 216.413,122.3855 C214.145,126.8455 206.814,127.9765 203.501,124.0495 C198.101,117.6455 195.515,104.8565 202.38,98.5485 C202.566,98.2225 202.773,97.8935 203.027,97.5615 Z M96.5879,56.8305 L98.465271,56.501905 C104.27307,55.49746 111.4944,54.5323 115.6029,59.2015 C117.7819,61.6775 118.5319,66.2795 115.6029,68.6495 C110.4509,72.8195 104.7549,71.2035 98.5809,71.5565 C93.4929,71.8485 88.6029,72.6905 83.7019,74.0915 C72.9499,77.1645 64.1889,82.7745 55.0059,88.9345 C53.8009,89.7425 52.5709,88.2015 53.1459,87.0745 C58.4469,76.6915 68.7199,68.1625 79.0099,62.9635 C84.5019,60.1885 90.5119,57.8865 96.5879,56.8305 Z M192.192876,52.1793876 L193.629806,52.4734684 C209.267042,55.742077 229.583473,62.2713911 236.988459,77.6308459 C237.270623,79.8027272 236.97249,80.2682047 236.730054,80.5723213 L236.649336,80.6735209 C236.449568,80.9332186 236.290169,81.2912104 235.348782,81.5868073 C235.087547,81.5245653 234.823712,81.4586426 234.557082,81.3887687 C231.162766,80.499243 228.477205,79.2737961 225.877298,78.0022488 L223.058339,76.6134493 C219.787784,75.0098309 216.488352,73.4645766 212.991711,72.3238115 C205.52958,69.8898666 197.854137,68.1753043 190.059777,67.259767 C188.37041,67.0615005 186.743655,66.4913394 185.460262,65.5141761 C184.242065,64.5866523 183.311441,63.3024737 182.887128,61.5955207 C182.33722,59.3864508 182.495251,57.7140037 183.680513,55.7210991 C184.571756,54.2244705 185.846982,53.1871113 187.311265,52.5914244 C188.804038,51.9841473 190.503545,51.840982 192.192876,52.1793876 Z" id="ðŸ–-Ink" fill="#000000"/></g>

        <g id="facial-hair" transform="translate(279 400)"><path d="M248.1317,111.7235 C244.6417,110.5815 241.2137,109.2525 237.7697,107.9715 C220.1607,99.1265 198.8897,97.5225 180.4227,104.9715 C171.3587,108.6275 162.9067,115.1965 153.8117,119.5015 C151.6517,120.3075 149.4737,121.0395 147.2717,121.6535 C145.9217,121.1835 144.5717,120.6835 143.2317,120.1835 C133.5847,116.5475 124.5107,112.0625 115.7007,107.1285 C114.7607,105.8055 113.7857,104.5195 112.7377,103.2845 C119.1127,102.3795 125.3547,100.8755 131.0017,99.3235 C148.3417,94.5735 164.6817,86.8335 181.9617,81.8735 C198.0517,77.2435 215.5117,74.7135 231.6717,80.4635 C239.3417,83.1935 246.0917,87.9735 253.5517,91.1935 C257.4117,92.8535 262.0417,94.4835 266.5517,94.7235 C263.6417,101.6935 259.9617,108.2035 254.9317,113.6235 C252.6317,113.1335 250.3517,112.4435 248.1317,111.7235 Z M285.6527,57.1315 C284.1087,58.4145 277.7367,62.5545 275.6697,65.0225 C275.1357,64.8195 274.6047,64.6115 274.0767,64.3975 C273.1677,63.2815 271.8287,62.7915 270.4637,62.8215 C260.9347,58.3895 252.4517,52.1265 244.8817,44.2735 C239.5017,38.7035 233.9917,32.8735 226.8017,29.6435 C218.3317,25.8235 210.0017,27.5835 201.1017,28.1635 C191.6317,28.7935 182.2817,26.1035 172.8217,27.3935 C165.9017,28.3435 159.4217,31.2735 153.8217,35.4035 C142.3917,43.8335 134.5117,55.6735 124.8517,65.8835 C113.8917,77.4635 100.4117,84.8635 85.4217,88.6435 C85.2417,88.5235 85.0517,88.4035 84.8617,88.2935 C73.8117,78.2935 63.8317,67.0035 55.0017,54.9735 C46.3817,43.2235 23.6517,-9.6665 18.1617,-14.3065 C15.8817,-16.2365 13.3817,-17.0665 10.9917,-16.9965 C6.6617,-16.8965 2.6617,-13.8865 0.8717,-9.1465 C-2.1683,-1.0865 -0.6483,9.3335 -0.4083,17.7635 C-0.1083,28.0835 0.5717,38.3935 1.6517,48.6635 C2.7217,58.8135 4.1417,68.9335 5.9117,78.9835 C6.8017,84.0635 7.7917,89.1335 8.8817,94.1835 C9.2217,95.7735 9.6517,97.1935 10.1717,98.5135 C10.7017,101.0035 11.2717,103.4835 11.8817,105.9435 C15.8617,122.0535 22.1417,138.1835 34.1317,150.0735 C46.6117,162.4635 63.5717,170.6935 79.3217,178.0535 C94.3217,185.0635 110.0417,191.2935 126.1717,196.1735 C140.1817,202.5235 155.1817,207.5435 170.2417,210.1835 C186.8217,213.0935 204.2517,213.2735 220.2617,207.5135 C228.1317,204.6835 235.5717,200.7335 242.3217,195.8135 C251.8917,190.8435 260.5017,184.0135 267.5517,174.9735 C280.178808,158.772201 286.205845,139.111428 288.843079,118.838022 C289.518075,113.64907 292.055805,93.7618006 292.255358,90.6655083 C292.899805,80.6661617 293.544253,70.6671223 294.1887,60.6675 C294.4927,55.9485 288.7007,54.6015 285.6527,57.1315 Z" id="ðŸ–-Ink" fill="#000000"/></g>

        <g id="eyewear" transform="translate(203 303)"></g>
    </g>
</svg>