<svg xmlns="http://www.w3.org/2000/svg" viewBox="0 0 704 704" fill="none" width="512" height="512">
    <desc>"Open Peeps" by "Pablo Stanley", licensed under "CC0 1.0". / Remix of the original.</desc>
    <mask id="viewbox"><rect width="704" height="704" rx="0" ry="0" x="0" y="0" fill="#ffffff" /></mask>
    <g mask="url(#viewbox)">
        <rect id="background" fill="#d1d4f9" width="704" height="704" x="0" y="0" />

        <g id="body"><path id="skin" d="M705.3 1074a2351.1 2351.1 0 0 1-15.6-101c-1-7.7-2.5-16.4 2.7-22 7.3-8 14-14.8 14.8-26.2.8-10.7-2.8-22.4-5-32.8a809.4 809.4 0 0 0-17.3-64.7c-6.6-21.7-13.9-43.2-21.3-64.6-6.9-20-13.5-40.3-22.5-59.5-17-36.5-46-63.5-81.6-81.6-9-4.5-27-20.5-36.3-24-8.5-3.4-8.5 6.3-16.9 2.6-6.7-2.9-13-6.7-16.7-13.2-4-7-14.3-16.9-15.9-25-3.3-17.4.3-32.2-12-45.3a90 90 0 0 0-41.1-23.8c-33.7-9.3-78.5-2.8-98.8 28.5-9.7 14.9-13 33-26.2 45.1-11.4 10.7-8.8 18-23.6 23.4-.9.3-23.6-4.5-24.4-4.2-16.2-3.5-31.7 6.2-46.5 11.8a325.4 325.4 0 0 0-63 32.3 399.2 399.2 0 0 0-102.3 98.5 482.5 482.5 0 0 0-76.4 161c-1.7 6.4-3.5 13-1.5 19.4 1.7 5.3 5.4 9.2 9.8 12.4 6 4.3 18 7 17.7 15.7-.1 6.6-2.4 13.5-3.5 20-1.3 7.7-2.3 15.5-3.4 23.2-4.8 35.4-8.6 71-10.3 106.6a920 920 0 0 0-.5 106c.1 2.3.8 4.5 2 6.2-1 .4-1.2 2.4.1 2.7l2.7.5a12 12 0 0 0 7 2.4l5.5.2c19.3 4 38.6 7.9 58.1 10.8 23.8 3.5 47.6 6.3 71.5 8.7 49.2 4.8 98 3.2 147.1.6a1877 1877 0 0 1 147.4-2c49.2 1.4 98.4 3.5 147.6 4.4 55 1 110-.5 164.8-5 7.5-.5 12.2-6.5 10.7-14-8.9-44.7-19-89.1-27-134Z" fill="#d08b5b"/><path id="shirt" d="m201 597.5 1.2-.4c14.5-5.7 29.6-14.8 45.4-11.4.5-.2 10.8 1.9 17.9 3.2l-6.7 7L247 598c40.7 67.1 88.8 100.7 144.3 100.7 55.5 0 97.7-33.6 126.4-100.7l4-1c.4 0 1 .2 1.5.4 9.3 3.6 27.4 19.6 36.3 24.1 35.6 18 64.5 45 81.6 81.6 8.7 18.6 15.2 38 21.8 57.5l.7 2c7.4 21.4 14.7 43 21.3 64.6 6.3 20.4 12 41 16.6 61.8l.7 2.9c2.2 10.4 5.8 22 5 32.8a29 29 0 0 1-3 10.7l-80.4 29 38.4 261.3c-35.1 1.5-70.3 2-105.5 1.3-49.2-.9-98.4-3-147.6-4.3-47.7-1.2-95.3-.7-143 1.7l-12 .6a946.3 946.3 0 0 1-139.5-1l-3.1-.3v-38.3l16.3-212.9-83-15.6-81.3-39.5a21.7 21.7 0 0 1-5.6-8.8c-1.9-6-.5-12 1-18l.5-1.3a492.8 492.8 0 0 1 76.4-161A399.3 399.3 0 0 1 138 629.7c19.8-13 40.9-23.9 63-32.3Z" fill="#e279c7"/><path d="M232.2 584.6c5.1-.3 10.3.6 15.4 1 .4.1.6.8 0 .9-9 1.9-18 4.5-26.9 7.1l-3.8 1.2c-10 3-19.8 6-29.6 10-19.4 7.9-37.8 18.5-54.8 30.8C67.2 682.8 20 754.3-9.9 828.3a526 526 0 0 0-24.3 77c-.4 1.6-2 5.4-1 7 .7 1.3 3.6 2.1 5 2.9l4.5 2.3 25.2 12.9 2.3 1.1c38 18.6 78.4 34.4 121 35.5l.4-3.7a342 342 0 0 1 9.9-60c.3-1 1.6-.6 1.7.3 3 23.1 2 46.4 1 69.7-1.8 41-4.3 82.2-6.5 123.3-1.2 20.6-2.6 41-3.9 61.7-1.3 20.5-1.7 41.6-4.7 62-.6 4.6-6 7-10 6.6-4.4-.5-7.9-4.5-8-9 0-11.9 1.5-24 2.4-35.8l2.5-33.8c3.1-41.1 6.8-82.2 10.2-123.3a4771 4771 0 0 1 3.8-43.7C76.4 979.8 34.2 963-6.1 943.5c-.6 13.2-2 26.5-3.4 39.6-3.8 36.8-7.1 73.6-9.6 110.5a2254.2 2254.2 0 0 0-4.2 92.7l-.2 7c0 4.4-.5 8.5-4.3 11.7-3.7 3.3-8.9 3.5-12.6 0-5-4.6-4.2-10.9-4-17.1a1675.6 1675.6 0 0 1 1.8-47.2 1321 1321 0 0 1 10.5-109.5l2-14c3.5-26 7.5-52.7 15.5-77.9-3.1-1.5-6.2-3-9.3-4.7-5.5-2.7-11.2-5.4-16.6-8.4-4.2-2.5-7.9-5.8-9-10.8-1.4-5.5.6-11.5 2-16.9v-.4a502 502 0 0 1 26.6-80 523.2 523.2 0 0 1 67.8-117 353.8 353.8 0 0 1 88.7-83.3 239 239 0 0 1 53.8-25.7 142.6 142.6 0 0 1 42.8-7.5Zm90.1-66c6-6.5 18.1.2 15.2 8.8a108.2 108.2 0 0 1-34.7 52A79.4 79.4 0 0 1 247 598l1.7 2.4a321.1 321.1 0 0 0 46.1 52.6c36 31.2 84.8 48 132 36 37.1-9.4 69.8-38.8 79.4-76.2-1.3.6-3 .9-4.8.5-7.7-1.7-15.3-9.8-20.3-15.6-5.3-6.3-9.5-13-12.6-20.7-5.6-14-7.4-32.1.3-45.7 1-1.7 3-.7 3.3 1l.3 2.5c1.5 12.7 3.3 25 9.3 36.6a76 76 0 0 0 18.2 23.1c2.6 2 5.8 3.6 8.1 6l.5.4c.6-5 4.1-7.3 7.6-7.2 3.3.2 7.3 1.6 8.8 2.3l.1.1a341 341 0 0 1 65.1 42 259 259 0 0 1 88.4 129c7.5 25.3 11.8 51.4 16.3 77.4l2.8 16c4.2 23.9 8.9 48.4 18.4 70.7 2.5 5.7.6 11.1-5.5 13.4A1493 1493 0 0 1 688 953c3.7 16 6 32.5 8.7 48.5 6 34.1 13.2 68 19.4 102 3.2 17.5 6.1 35 9.3 52.3l4.7 25.2 2.4 13.6.1.7c.5 2.4 1 4.9.4 7.3-.8 2.7-2.9 4.6-4.8 6.6-1.6 1.6-3.8 1.6-5.7.7l-.7-.3c-3.4-1.6-6-3.2-7.3-7-.7-2.5-1-5.2-1.5-7.7a3535.6 3535.6 0 0 1-7.8-43.6l-1.6-9.1c-5.2-31.4-10.2-62.9-12.8-94.5-1-14-2.3-28.1-3.5-42.2l-.9-10.5c-1.1-13.3-2.5-27-2.7-40.5l-4.5 1.6L657 964c-5.5 2-12.5 6-18.4 5.2-2.9-.3-5-1.2-6.8-2.9 2 28.8 4.8 57.4 8.5 86a1965.7 1965.7 0 0 0 22 135c.6 3.2 1.4 6.4 1.9 9.6.5 3.7-.5 5.9-2.5 9-1.7 2.4-5 3.7-7.8 2-3.6-2.3-5.5-4.3-6.5-8.4-1-3.7-1.6-7.6-2.3-11.4a1654.2 1654.2 0 0 1-11.4-65.2c-7.8-52-12.7-104.4-15.2-156.8a1388 1388 0 0 1-1.4-77.8c0-13.3.5-26.6 1.4-39.9 1-13.4 3-26.5 4.8-39.8 0-.5.7-.5.7 0 .8 14.9 2.1 29.8 2.8 44.7.6 14.3.9 28.5 1.4 42.8.6 18.7 1.5 37.5 2.7 56.2a9.6 9.6 0 0 1 8.5-3.1c4.7-1 9.7-3.4 14.1-5l16.8-5.5 26.4-8.7a679 679 0 0 1-18-80.8l-2-12.3c-4-24.2-8.5-48.5-15.8-72a229.8 229.8 0 0 0-34.8-68.2 370.2 370.2 0 0 0-52.7-55.3C557 627 539.7 614 523 600c.1.9.2 2 0 3-3.5 25.9-17 50-35.8 67.9-37.7 36-93.6 43.4-142 26.5-46.7-16.3-88-55-102.6-102.8-.3-.8.8-1 1.3-.5l2.4 3.3c0-.4.2-.9.7-1a129 129 0 0 0 46.6-29.2 100.2 100.2 0 0 0 21.3-33.3l.4-1c1.7-5 3.2-10.2 7-14.2Z" fill="#000000"/></g>

        <g id="head" transform="matrix(.99789 0 0 1 156 62)"><path id="skin" d="M242 75.3c56.8 0 115.6 44 136.4 72 24 32.5 43 188.4 34.1 241.3-8.9 53-53.1 110.6-130 110.6-76.7 0-123.5-9.5-125.3-23.2-2-13.8-50.7-90.2-50.7-90.2s-49.9-14-50-47.6c-.3-33.5 26.7-45.7 26.7-45.7s-9.6-132.3 14.5-166.7C122 91.3 185.3 75.3 242 75.3Z" fill="#d08b5b"/><path d="M203.8-10.2c7.6-9 21-.4 20.8 9.4 3 .8 6.6 3.6 8 7.4 3-.2 6 .4 8.7 2l.6-.8c9.5-11.5 22-21.4 34.9-13 3.5 2.4 5 6.2 4.3 10.3v.3l.2-1.2-.3 1.7-1 2c13.2-9.4 33.3-3.9 22.7 14.3l4.3-1.7c15-5.8 33.4-12 47-1.6 6.1 5.8-.6 13.6-6.8 15.5l1-.1c12-2 36.7-7 40.2 8.4 1.3 5.6-2.4 9.6-7 11.9 9.8 0 19.6 1.6 28.2 6.4 8.1 5.8 1.5 15.4-7 15 2.6 3.3 3.5 8.8 1 12.3 4.8 1.3 9.3 3 13.4 5.5l1.1.1c8.3 1 17.7 1.7 22.2 9.8 6.7 17.5-17 16.8-27.3 10.7.6 1 1 2 1.3 3.2l3.3.9c12.5 3.5 26.6 7.3 34.6 17.8 3.7 6-1.4 16.3-9 14.4 20.8 10 12.8 36.1-7.6 22.5-1 .9-2.1 1.6-3.3 1.8l4.3 2.4c10.9 6 24 14.1 21.7 27.7-2.1 7.2-12 5.9-17.2 3.1 8.9 7.7 17.2 15.9 24.8 24.8l2.1 2.5c6 7 16.2 20.1 5 27-13.6 6.9-20.5-13.7-28.4-21 6.3 15-14.4 25.4-21.6 10.3-1.2.2-2.5.2-3.7 0 6.3 6.7 23.1 52 2.2 42a85.2 85.2 0 0 1-9-11.5c3.4 26 5.8 52 7.4 78l.6 9.5c.6 9.8 1 19.6 0 29.4a99.5 99.5 0 0 1-9.6 32.3 128.2 128.2 0 0 1-17.2 26.4 59.5 59.5 0 0 1-12 11.7c-3.8 2.6-8.2 4.2-12.4 5.8a88.3 88.3 0 0 1-24.2 16.2 143.7 143.7 0 0 1-45 12.4c-16 1.9-32 1.4-47.7-1.3-15-2.6-31.2-9.2-40.5-22-.8-1 .7-2 1.7-1.6a156.4 156.4 0 0 0 126 .3c10.6-5 19.5-12.1 29-18.7 1.8-2.4 3.7-4.8 5.8-7l3.3-3.5a106.3 106.3 0 0 0 23.3-37.4c7.2-20.4 5.3-42.6 4-63.9l-.1-1.8a934.5 934.5 0 0 0-10.6-96.2c-2.4-4-5-7.8-7.9-11.3 2.4 9.1-5.8 21.8-15.8 15.8-11.4-9.8-10.9-25.6-20.5-37.6-9.9-15.3-78.5-45.2-99-49.4 3.4 4.8 9.4 8.1 10.8 13.8 25 22.1-15.8 34-28.6 2.3.3 10.5 1.4 21 3.7 31.2 3.4 9.5 6 36.8-11 28.5-8.2 2.4-14.4-4.6-15.4-12.4-6 17.7-.4 46.1-11.2 59.2-3.3 3.4-8.5 1.1-10.2-2.8-10-2.6-9.1-14.3-10.4-22.6-9 33.3-20.5 56.4-22.1 91.2 7 10-8.4 17.4-15.1 9.4-9.3-13.5-.7-32 1.5-46.8-2.7 0-5.3-1.3-7.4-3.8-1.2 4.6-.5 10.7-.1 15.8-6 23.1-28.5 8.3-27.5-10.5-1 5.3-1.8 10.7-2.2 16 4.3 5 7.5 11 9.5 17.4 1.3 4.6-3.3 7.4-7 6.7-1.8 6.5-10 11.1-15.4 5-5.4-5.5-6.3-13.3-6.7-21a4 4 0 0 1-1.2-3.1 7 7 0 0 1 .9-3l-.4-4.7c-4.2 12.9-1.5 26.3-1.1 39.5a82.3 82.3 0 0 0 24 7.6l1.2.3c2.6.5 3.5 4.4 1.5 6 5.2 5 9.7 11.2 14 16.7 5.8 7.5 11.4 15.2 16.8 22.9l3.2 4.5c9.2 13.2 22 31 16.3 47.3-.8 2.2-4 3-5.3.7-4.2-7.7-6.5-16.2-10.5-24-3.9-7.6-8.7-14.7-13.5-21.8l-2.8-4c-4.6-7-9.2-13.8-13.4-21l-3-4.8a109 109 0 0 1-7.5-14.3c-7.3 1.7-14.9.5-21.8-2.6l-.1.5-.2.9c-1 4.2-6.8 7-10.5 4.3a36.3 36.3 0 0 1-13.4-27.2c-1.7-3-3.3-6.2-4.5-9.4-.6 6.5-3 12.8-10.9 12.6-13.4-1-14.8-13.8-11.1-26.5-16 5-17.8-17.7-12.8-29.5a8.4 8.4 0 0 1-4.6-3.2l-.8 1.4c-3 5.3-6.6 10.5-11.4 13.3-6.8 3.8-16.6-1-16.2-9.4 1.5-13.9 13.6-24.4 21-35.5-1.4.2-2.7.2-4 0-14.8 8.2-21.8-11.2-16.6-22.4a79.5 79.5 0 0 1 18-26.4L3.5 232c-4 2.3-8.3 4.5-12.6 3.6-28 18.5-37.3-12.5-5.8-22.2v-.2c-3.1-3-4.5-7.8-2-12.7-11.6 4-28.1-5-18-17.6a62.9 62.9 0 0 1 23.3-14.5c-.5-2.3-.6-4.6-.4-7h-.6c-5.4.9-12.2 3.1-15.6-2.8-1.7-3-1.5-7.9 1.3-10.2 9.7-8 20.7-14.6 32.7-17.3l1.4-4.3c-10.2-.2-21.7-13.8-10-21.5A67 67 0 0 1 30 96.9c-6.8-6.7-2.8-19 6.3-20.8-6-12.7 8.8-19.3 19.8-17.2-.4-5.7 2.6-12 8.4-13.4-3-17.8 15.8-16.1 27.7-12-4-6.8 0-14.9 7-17.3 11.5-2.6 22.5 8.3 31.2 15-3-7-.5-13.4 6.6-16.2 7.3-2.8 15.2 2.7 21.2 6.4 3.4-4.1 9-5.5 14-5.2.6-1.6 1.4-2.9 2.4-4 0-9.5 16.4-14.8 22-5.9a34 34 0 0 1 7.3-16.5Zm204.8 174.5.2 1 .7.7 2.1.5-3-2.2Zm12.7-25.3-.3.3v.2l1.8.7.9.4.3.1c-1-.5-1.8-1.1-2.7-1.7ZM273.9 12l-.6.1-.5.1h-.2.2l-.9.7h.8l1.2-1Z" fill="#000"/></g>

        <g id="face" transform="translate(315 248)"><path d="M55.6 167.6c3.5-7.8 19.1-20 19.1-20s4.8 27 1.1 35.3c-3 6.8-14 19.2-22 15.7s-4-18 1.8-31ZM250.2 160.5c-2.8-6.6-15.7-17-15.7-17s-3.9 22.9-.9 30c2.5 5.7 11.5 16.2 18.1 13.2 6.6-3 3.2-15.3-1.5-26.2ZM117 199.2h87.8l5.2 14.5s-65.5 15.3-88.5 5.5l-4.5-20Z" fill="#fff"/><path d="M181.7 171c8.2-11.3-3.3-22-10.9-26.6-2-1.5-.4-6.2 3.8-5.4 38.4 6.6 18.5 72.7-30.5 36.4-5.8-4.7 1.2-15 7.5-11l1 .7c7.1 5.5 20 15.5 29.1 6ZM104.5 56.5l-2 .3c-6 1-12 3.4-17.5 6.2a59.3 59.3 0 0 0-25.9 24c-.5 1.2.7 2.7 2 2 9-6.2 17.8-11.8 28.6-15a67.7 67.7 0 0 1 19.5-2.5c4.4.2 8.6.3 12.4-2.9 3-2.3 2.2-7 0-9.4-4.1-4.7-11.3-3.7-17.1-2.7ZM204.6 52.5l-1.4-.3a8.5 8.5 0 0 0-4.9.4 7.4 7.4 0 0 0-3.6 3.1 7 7 0 0 0-.8 5.9 7 7 0 0 0 2.6 4c1.2.9 2.9 1.5 4.6 1.7 7.8.9 15.4 2.6 22.9 5 3.5 1.2 6.8 2.7 10 4.3L237 78a45 45 0 0 0 9.4 3.6c.9-.3 1.1-.6 1.3-.8v-.1l.1-.1c.3-.3.6-.8.3-3-7.4-15.3-27.7-21.9-43.4-25.1ZM123.3 128c-3 1.8-6.3 1-8.9-1.1-1.6-1.3-2.8-3-4-4.6-1.5-1.9-2.9-3.8-5-5.1-3.2-2.2-7.5-2.3-11.2-1.7-5.6 1-10.4 3.6-15.3 6.2a86 86 0 0 1-8.3 4.2c-1.1.5-1.8-1-1.4-1.8a38 38 0 0 1 27-22.5 29 29 0 0 1 30.4 18.2c1.1 3-.7 6.7-3.3 8.2ZM242.6 115.4c.2 0 .5-.2.4-.5-3.2-10.3-15.1-14.7-25.2-13.8-6.2.5-11.9 2.8-16.6 7-4.5 4-8 11.4-4 16.9 4.3 5.6 12.8 3.8 13.3-3.6.4-4.8 8.6-7.8 12.8-8.5 6.5-1.2 13.2.2 19.3 2.5Z" fill="#000"/><path d="M176.1 195.5c11.6-.1 25.6-.3 35.6.3 3.6.2 5.3 5.3 5.6 7.8 2.3 22.4-15.6 40.4-35.4 47.3-18.4 6.5-42.7 7.7-59.2-4.3a50.2 50.2 0 0 1-16-20.6 56.8 56.8 0 0 1-4.3-15c-.6-3.3-1.3-7.3-.2-10.4 1.7-4.4 6-4.5 10.1-4.5h1l5-.2 12.8-.2 27.7-.2H176Zm-49.8 19a253 253 0 0 0 42.5 1.5c10-.4 36-6.5 36-9 0-2.7-1.1-5-2-5-4 .5-34.7.8-56.4 1a3011.2 3011.2 0 0 0-24.7.3c-1 3.2 1.7 10 4.6 11.1ZM82.3 146.6c-.3-2-2-3.2-4-2.2a7.5 7.5 0 0 0-2.6 2.2l.1-.2c0-.2 0-.4-.2-.4-4.4-.7-10.1 5.4-13.2 8.8l-.7.7a61.8 61.8 0 0 0-11 16c-3.5 7.5-7.2 18.9-2.5 26.6 6.6 10.9 20.5 2.7 25.7-4.8a39.9 39.9 0 0 0 7-21.5c0-2.2 0-4.4-.2-6.7 0-2-.2-4.2 0-6.3 0-1.8.4-3.6.8-5.3.5-2.3 1-4.6.8-6.9Zm-9.9 32.5c-1.5 5.8-4.6 12.5-10 15.6-2.9 1.7-7.1 2.3-8.8-1.1-3-6.5 1.3-16.4 3.9-22.2a63 63 0 0 1 17.2-23 29 29 0 0 0-1.6 11.2l.2 5.4c.2 4.7.3 9.5-.9 14.1ZM253.3 157.5A65.2 65.2 0 0 1 262 175c3 11.9-7.2 20.5-18.5 18-11.9-2.7-16.3-16.4-16-27.2 0-5 1-10 2.1-14.9l.4-2 .7-4.1c.3-2 .5-4 1-5.9-.5-1.5-.9-3-.8-4.6 0-2.5 2.6-3.8 4.7-2.7 3 1.5 4.7 4.3 6.3 7.2l1 1.8 3.6 6 3.5 6 3.2 5Zm-13 25.5c3.1 2.8 8.5 3.9 12 1.2 4.9-3.6.8-10-1.9-14.2l-.7-1.2a1574 1574 0 0 1-13-21.3l-.8 4.9-.7 3.6c-1.3 8.8-2.2 20.3 5.1 27Z" fill="#000"/></g>

        <g id="facial-hair" transform="translate(279 400)"><path d="M350.9831,-16.9995 C348.8631,-20.1895 342.8531,-18.2495 344.4031,-14.2295 C361.2261,23.9425 353.4431,53.6325 306.1621,48.4395 C277.6581,46.5885 249.9761,21.3835 221.3491,33.9255 C213.9681,39.8545 209.1091,40.5895 201.3101,34.1735 C170.3641,20.6325 135.3241,44.7705 104.2331,48.0305 C55.5881,52.8135 29.1311,36.5395 53.7041,-13.3595 C55.2431,-16.7495 50.7731,-21.2195 48.0331,-17.7395 C14.1021,21.7435 12.3981,74.7565 67.0151,95.2105 C107.1001,108.5585 183.7591,119.6035 211.2731,79.3605 C228.8351,108.4205 266.3701,110.1595 296.5441,104.9595 C369.4001,98.2345 391.7241,41.6265 350.9831,-16.9995" id="ðŸ–-Ink" fill="#000000"/></g>

        <g id="eyewear" transform="translate(203 303)"><path d="M335.396552,-59.6130626 C341.176552,-61.5940626 345.786552,-55.5830626 344.676552,-50.3440626 C343.366552,-44.1740626 336.926552,-39.2220626 332.656552,-34.8730626 C328.176552,-30.2930626 323.606552,-25.8030626 318.866552,-21.4830626 C309.816552,-13.2220626 300.436552,-5.44306262 290.546552,1.80693738 L287.522492,4.02283738 C278.456252,10.6558374 269.417552,17.1349374 259.706552,22.8769374 C254.446552,25.9769374 249.136552,28.9769374 243.756552,31.8669374 C241.837552,32.8969374 239.496552,34.4859374 237.087552,35.6669374 C245.896552,42.4669374 252.676552,52.8469374 254.146552,62.5169374 C257.786552,86.5369374 242.306552,108.796937 220.465552,117.646937 C209.576552,122.056937 197.456552,123.336937 185.816552,122.006937 C173.976552,120.655937 161.976552,117.155937 154.286552,107.456937 C147.456552,98.8469374 144.996552,87.8579374 144.506552,77.0669374 C144.276552,71.9469374 144.326552,66.9059374 145.406552,62.3769374 C140.696552,62.4169374 135.986552,62.3969374 131.316552,62.4469374 C119.776552,62.5569374 108.215552,62.6079374 96.6665524,62.2869374 C84.7565524,61.9469374 72.9065524,61.4169374 61.0365524,60.3579374 C55.8265524,59.8869374 50.6465524,59.1169374 45.4655524,58.3769374 C40.4365524,57.6669374 34.8865524,57.3969374 30.1865524,55.3369374 C29.8665524,55.2069374 30.0003371,54.7469374 30.2765524,54.6559374 C35.2865524,53.0369374 40.9765524,53.3259374 46.1965524,53.0069374 L51.2842492,52.6983426 C55.5218586,52.4452231 59.7565524,52.212366 64.0065524,52.0759374 C73.8240524,51.7530624 83.6338962,51.6736561 93.4494821,51.5054374 L97.6565524,51.4269374 C109.206552,51.1969374 120.756552,51.0669374 132.306552,50.6969374 C137.096552,50.5469374 141.896552,50.2669374 146.706552,50.0069374 C147.266552,48.7359374 148.087552,47.5759374 148.876552,46.4469374 C151.236552,43.0669374 154.236552,40.0869374 157.346552,37.3869374 C163.715552,31.8259374 170.886552,27.6969374 178.886552,24.9269374 C186.814186,22.1912707 198.409172,20.8341567 206.796178,21.0107485 C215.183185,21.1873402 227.135719,22.3702707 230.976552,29.2269374 C231.376552,29.9369374 238.686552,28.5669374 240.856552,26.9059374 C245.926552,23.0369374 250.906552,19.0569374 255.795552,14.9769374 C264.876552,7.38693738 274.215552,-0.0830626211 282.816552,-8.20306262 C291.686552,-16.5830626 300.486552,-25.1030626 308.926552,-33.9030626 C313.166552,-38.3130626 317.396552,-42.7330626 321.506552,-47.2530626 C325.706552,-51.8630626 329.316552,-57.5430626 335.396552,-59.6130626 Z" id="ðŸ–-Ink" fill="#000000"/></g>
    </g>
</svg>