<svg xmlns="http://www.w3.org/2000/svg" viewBox="0 0 704 704" fill="none" width="512" height="512">
    <desc>"Open Peeps" by "Pablo Stanley", licensed under "CC0 1.0". / Remix of the original.</desc>
    <mask id="viewbox"><rect width="704" height="704" rx="0" ry="0" x="0" y="0" fill="#ffffff" /></mask>
    <g mask="url(#viewbox)">
        <rect id="background" fill="#d1d4f9" width="704" height="704" x="0" y="0" />

        <g id="body"><path id="skin" d="M705.3 1074a2351.1 2351.1 0 0 1-15.6-101c-1-7.7-2.5-16.4 2.7-22 7.3-8 14-14.8 14.8-26.2.8-10.7-2.8-22.4-5-32.8a809.4 809.4 0 0 0-17.3-64.7c-6.6-21.7-13.9-43.2-21.3-64.6-6.9-20-13.5-40.3-22.5-59.5-17-36.5-46-63.5-81.6-81.6-9-4.5-27-20.5-36.3-24-8.5-3.4-8.5 6.3-16.9 2.6-6.7-2.9-13-6.7-16.7-13.2-4-7-14.3-16.9-15.9-25-3.3-17.4.3-32.2-12-45.3a90 90 0 0 0-41.1-23.8c-33.7-9.3-78.5-2.8-98.8 28.5-9.7 14.9-13 33-26.2 45.1-11.4 10.7-8.8 18-23.6 23.4-.9.3-23.6-4.5-24.4-4.2-16.2-3.5-31.7 6.2-46.5 11.8a325.4 325.4 0 0 0-63 32.3 399.2 399.2 0 0 0-102.3 98.5 482.5 482.5 0 0 0-76.4 161c-1.7 6.4-3.5 13-1.5 19.4 1.7 5.3 5.4 9.2 9.8 12.4 6 4.3 18 7 17.7 15.7-.1 6.6-2.4 13.5-3.5 20-1.3 7.7-2.3 15.5-3.4 23.2-4.8 35.4-8.6 71-10.3 106.6a920 920 0 0 0-.5 106c.1 2.3.8 4.5 2 6.2-1 .4-1.2 2.4.1 2.7l2.7.5a12 12 0 0 0 7 2.4l5.5.2c19.3 4 38.6 7.9 58.1 10.8 23.8 3.5 47.6 6.3 71.5 8.7 49.2 4.8 98 3.2 147.1.6a1877 1877 0 0 1 147.4-2c49.2 1.4 98.4 3.5 147.6 4.4 55 1 110-.5 164.8-5 7.5-.5 12.2-6.5 10.7-14-8.9-44.7-19-89.1-27-134Z" fill="#d08b5b"/><path id="shirt" d="m201 597.5 1.2-.4c14.5-5.7 29.6-14.8 45.4-11.4.5-.2 10.8 1.9 17.9 3.2l-6.7 7L247 598c40.7 67.1 88.8 100.7 144.3 100.7 55.5 0 97.7-33.6 126.4-100.7l4-1c.4 0 1 .2 1.5.4 9.3 3.6 27.4 19.6 36.3 24.1 35.6 18 64.5 45 81.6 81.6 8.7 18.6 15.2 38 21.8 57.5l.7 2c7.4 21.4 14.7 43 21.3 64.6 6.3 20.4 12 41 16.6 61.8l.7 2.9c2.2 10.4 5.8 22 5 32.8a29 29 0 0 1-3 10.7l-80.4 29 38.4 261.3c-35.1 1.5-70.3 2-105.5 1.3-49.2-.9-98.4-3-147.6-4.3-47.7-1.2-95.3-.7-143 1.7l-12 .6a946.3 946.3 0 0 1-139.5-1l-3.1-.3v-38.3l16.3-212.9-83-15.6-81.3-39.5a21.7 21.7 0 0 1-5.6-8.8c-1.9-6-.5-12 1-18l.5-1.3a492.8 492.8 0 0 1 76.4-161A399.3 399.3 0 0 1 138 629.7c19.8-13 40.9-23.9 63-32.3Z" fill="#e279c7"/><path d="M232.2 584.6c5.1-.3 10.3.6 15.4 1 .4.1.6.8 0 .9-9 1.9-18 4.5-26.9 7.1l-3.8 1.2c-10 3-19.8 6-29.6 10-19.4 7.9-37.8 18.5-54.8 30.8C67.2 682.8 20 754.3-9.9 828.3a526 526 0 0 0-24.3 77c-.4 1.6-2 5.4-1 7 .7 1.3 3.6 2.1 5 2.9l4.5 2.3 25.2 12.9 2.3 1.1c38 18.6 78.4 34.4 121 35.5l.4-3.7a342 342 0 0 1 9.9-60c.3-1 1.6-.6 1.7.3 3 23.1 2 46.4 1 69.7-1.8 41-4.3 82.2-6.5 123.3-1.2 20.6-2.6 41-3.9 61.7-1.3 20.5-1.7 41.6-4.7 62-.6 4.6-6 7-10 6.6-4.4-.5-7.9-4.5-8-9 0-11.9 1.5-24 2.4-35.8l2.5-33.8c3.1-41.1 6.8-82.2 10.2-123.3a4771 4771 0 0 1 3.8-43.7C76.4 979.8 34.2 963-6.1 943.5c-.6 13.2-2 26.5-3.4 39.6-3.8 36.8-7.1 73.6-9.6 110.5a2254.2 2254.2 0 0 0-4.2 92.7l-.2 7c0 4.4-.5 8.5-4.3 11.7-3.7 3.3-8.9 3.5-12.6 0-5-4.6-4.2-10.9-4-17.1a1675.6 1675.6 0 0 1 1.8-47.2 1321 1321 0 0 1 10.5-109.5l2-14c3.5-26 7.5-52.7 15.5-77.9-3.1-1.5-6.2-3-9.3-4.7-5.5-2.7-11.2-5.4-16.6-8.4-4.2-2.5-7.9-5.8-9-10.8-1.4-5.5.6-11.5 2-16.9v-.4a502 502 0 0 1 26.6-80 523.2 523.2 0 0 1 67.8-117 353.8 353.8 0 0 1 88.7-83.3 239 239 0 0 1 53.8-25.7 142.6 142.6 0 0 1 42.8-7.5Zm90.1-66c6-6.5 18.1.2 15.2 8.8a108.2 108.2 0 0 1-34.7 52A79.4 79.4 0 0 1 247 598l1.7 2.4a321.1 321.1 0 0 0 46.1 52.6c36 31.2 84.8 48 132 36 37.1-9.4 69.8-38.8 79.4-76.2-1.3.6-3 .9-4.8.5-7.7-1.7-15.3-9.8-20.3-15.6-5.3-6.3-9.5-13-12.6-20.7-5.6-14-7.4-32.1.3-45.7 1-1.7 3-.7 3.3 1l.3 2.5c1.5 12.7 3.3 25 9.3 36.6a76 76 0 0 0 18.2 23.1c2.6 2 5.8 3.6 8.1 6l.5.4c.6-5 4.1-7.3 7.6-7.2 3.3.2 7.3 1.6 8.8 2.3l.1.1a341 341 0 0 1 65.1 42 259 259 0 0 1 88.4 129c7.5 25.3 11.8 51.4 16.3 77.4l2.8 16c4.2 23.9 8.9 48.4 18.4 70.7 2.5 5.7.6 11.1-5.5 13.4A1493 1493 0 0 1 688 953c3.7 16 6 32.5 8.7 48.5 6 34.1 13.2 68 19.4 102 3.2 17.5 6.1 35 9.3 52.3l4.7 25.2 2.4 13.6.1.7c.5 2.4 1 4.9.4 7.3-.8 2.7-2.9 4.6-4.8 6.6-1.6 1.6-3.8 1.6-5.7.7l-.7-.3c-3.4-1.6-6-3.2-7.3-7-.7-2.5-1-5.2-1.5-7.7a3535.6 3535.6 0 0 1-7.8-43.6l-1.6-9.1c-5.2-31.4-10.2-62.9-12.8-94.5-1-14-2.3-28.1-3.5-42.2l-.9-10.5c-1.1-13.3-2.5-27-2.7-40.5l-4.5 1.6L657 964c-5.5 2-12.5 6-18.4 5.2-2.9-.3-5-1.2-6.8-2.9 2 28.8 4.8 57.4 8.5 86a1965.7 1965.7 0 0 0 22 135c.6 3.2 1.4 6.4 1.9 9.6.5 3.7-.5 5.9-2.5 9-1.7 2.4-5 3.7-7.8 2-3.6-2.3-5.5-4.3-6.5-8.4-1-3.7-1.6-7.6-2.3-11.4a1654.2 1654.2 0 0 1-11.4-65.2c-7.8-52-12.7-104.4-15.2-156.8a1388 1388 0 0 1-1.4-77.8c0-13.3.5-26.6 1.4-39.9 1-13.4 3-26.5 4.8-39.8 0-.5.7-.5.7 0 .8 14.9 2.1 29.8 2.8 44.7.6 14.3.9 28.5 1.4 42.8.6 18.7 1.5 37.5 2.7 56.2a9.6 9.6 0 0 1 8.5-3.1c4.7-1 9.7-3.4 14.1-5l16.8-5.5 26.4-8.7a679 679 0 0 1-18-80.8l-2-12.3c-4-24.2-8.5-48.5-15.8-72a229.8 229.8 0 0 0-34.8-68.2 370.2 370.2 0 0 0-52.7-55.3C557 627 539.7 614 523 600c.1.9.2 2 0 3-3.5 25.9-17 50-35.8 67.9-37.7 36-93.6 43.4-142 26.5-46.7-16.3-88-55-102.6-102.8-.3-.8.8-1 1.3-.5l2.4 3.3c0-.4.2-.9.7-1a129 129 0 0 0 46.6-29.2 100.2 100.2 0 0 0 21.3-33.3l.4-1c1.7-5 3.2-10.2 7-14.2Z" fill="#000000"/></g>

        <g id="head" transform="matrix(.99789 0 0 1 156 62)"><path id="skin" d="M236.452396,86.8265552 C268.972826,86.8265552 316.610448,105.669983 379.365264,143.356837 C408.831003,266.837653 420.59513,346.21111 414.657645,381.477208 C405.751418,434.376356 359.365264,499.183765 282.566771,499.183765 C205.768277,499.183765 184.903783,472.088057 166.430645,459.772979 C154.11522,451.562927 135.546572,428.776374 110.7247,391.41332 C93.881767,396.658464 82.9884707,397.763517 78.0448113,394.728478 C67.514226,388.263483 68.7925651,371.261262 65.4644787,354.819677 C63.0119593,342.703613 54.6607617,330.814449 54.6607617,324.068568 C54.6607617,299.594784 72.0535308,301.343748 80.8138575,295.478662 C61.6181333,276.570518 66.6701406,210.997585 90.8519102,176.558424 C115.03368,142.119264 187.671751,86.8265552 236.452396,86.8265552 Z" fill="#d08b5b"/><path d="M324.1944,45.0538 C328.4614,44.3708 331.8904,50.3688 327.3734,52.5928 C308.1434,62.0658 287.9554,69.1928 268.3774,77.8278 C278.3784,79.0278 288.5774,80.9238 298.4324,83.8588 C309.7724,79.1978 321.4174,75.4218 333.4084,72.7528 L337.208808,71.9098962 C349.417577,69.231961 363.160781,66.6988 375.0204,70.8028 C379.0954,72.2118 378.8454,77.3578 375.0204,78.8488 C368.1364,81.5328 360.5284,82.2368 353.2424,83.0788 C345.9054,83.9258 338.6484,84.9598 331.4174,86.4858 C326.1494,87.5968 320.9074,88.8878 315.7134,90.3548 C318.9714,91.8758 322.1484,93.5428 325.2124,95.3898 C341.7214,105.3438 356.7494,116.7088 369.3244,131.4588 C381.5304,145.7738 391.1344,161.9858 397.6704,179.6318 C399.3814,184.2518 400.4794,189.1618 401.1884,194.0368 C401.7574,197.9408 401.4034,201.7658 401.4994,205.6168 C401.7044,205.6968 401.8804,205.8518 401.9384,206.0858 C404.2764,215.3688 404.5734,225.4568 405.3114,235.0008 C406.0774,244.9008 406.8634,254.7978 407.5184,264.7068 C408.1714,274.5648 408.0684,284.8518 409.9134,294.5678 C411.5894,303.3928 416.5694,311.2288 419.3724,319.7708 C436.1904,371.0228 419.7744,432.4368 378.8764,467.8338 C358.2274,485.7048 332.4824,497.0328 305.4714,500.7678 C291.4274,502.7088 277.4834,502.6588 263.4564,500.5898 C256.7984,499.6088 250.2194,498.1328 243.7944,496.1298 L241.412177,495.390985 C238.744631,494.557557 236.036938,493.656492 233.5754,492.4288 C230.0644,490.6778 228.5434,487.7318 227.3114,484.1498 C226.5634,481.9758 227.7704,478.6378 229.9384,477.6908 L230.64397,477.388234 C234.359656,475.828447 237.354812,475.158329 241.4094,476.6868 C244.6764,477.9188 247.9934,479.0098 251.3524,479.9618 C258.0164,481.8508 264.8504,483.2548 271.7454,483.9308 C285.6404,485.2948 299.6984,484.5988 313.3284,481.5458 C337.8194,476.0598 360.2514,463.7458 377.2364,445.1728 C393.8334,427.0248 404.2294,403.8758 408.2144,379.7038 C410.1904,367.7098 410.3524,355.1228 408.7644,343.0728 C407.9394,336.8198 406.5384,330.6168 404.7234,324.5798 C403.6984,321.1718 402.3784,317.8698 401.3064,314.4818 C400.335114,311.4138 400.038966,308.132826 399.594882,304.931116 L399.4894,304.1938 C398.2844,296.0528 398.6994,287.7618 398.7074,279.5588 C398.7154,271.3078 398.6694,263.0548 398.7514,254.8038 L398.8319,245.47455 C398.86015,242.36405 398.8944,239.2533 398.9484,236.1438 C397.8114,236.3248 396.3974,235.4878 396.2884,234.1328 C395.8864,229.1188 394.7524,224.2498 394.1244,219.2638 L393.957623,217.952221 C393.36492,213.369751 392.644052,208.877061 390.7294,204.6378 C386.8414,196.0308 384.1034,186.9488 380.4184,178.2568 C373.0954,160.9888 362.1814,145.0548 348.6684,132.0488 C332.4464,116.4348 312.3474,105.3468 290.8064,99.0208 C290.1214,99.3078 289.4314,99.5818 288.7494,99.8748 C275.1084,105.7608 262.1584,113.3338 249.8624,121.6528 C243.5244,125.9408 237.4254,130.5698 231.6044,135.5388 C228.7704,137.9578 225.9294,140.3748 223.1594,142.8688 C221.9744,143.9348 220.8014,145.0158 219.6414,146.1108 C218.8674,146.8388 218.1014,147.5738 217.3394,148.3148 C215.5864,149.5468 215.5484,151.2808 217.2254,153.5128 C217.8224,153.2668 218.2084,154.2498 217.6584,154.5418 C214.3374,156.3058 211.7274,152.5358 212.4334,149.4108 C212.992009,146.936278 215.286247,144.664872 216.900689,142.721728 L217.1164,142.4588 C219.6264,139.3578 222.1984,136.2788 224.9264,133.3648 C239.2964,118.0148 256.2564,105.3228 274.6434,95.2138 C266.9134,93.8288 259.0794,93.0328 251.2464,92.8368 C246.7374,92.7258 242.2454,92.7988 237.7754,93.0488 C230.8064,96.8368 223.9254,100.7808 217.1754,104.9658 C211.5424,108.4588 205.9914,112.0858 200.5364,115.8508 C197.6944,117.8118 194.8854,119.8178 192.0874,121.8398 C190.6774,122.8608 188.5224,124.0718 187.3904,125.3528 L187.304561,125.458035 C186.512726,126.493264 184.223155,131.010894 187.2004,130.8858 C187.5184,130.8728 187.5794,131.3648 187.2744,131.4388 C184.5594,132.0988 184.2064,129.2998 184.6714,127.1888 C185.832166,121.924247 192.859108,117.670278 196.810175,114.386579 L197.0634,114.1738 C205.0594,107.3808 213.3194,100.8958 221.8064,94.7238 C195.3564,98.7858 170.1874,109.1708 148.3094,125.1198 C120.1944,145.6128 99.0634,174.4978 84.9844,206.0928 C78.2944,221.1068 72.7464,237.1068 70.7614,253.4708 C68.9824,268.1368 70.8764,284.2238 82.3184,294.5908 C82.9414,294.5298 83.5644,294.4668 84.1874,294.4238 L85.1580526,294.364908 C93.3071424,293.929355 110.30256,294.4822 109.7544,305.6998 C109.7314,306.1668 109.0214,306.4568 108.7934,305.9598 C106.12111,300.155162 98.3162204,301.198028 92.7540004,302.115771 L89.6243119,302.631293 C83.1260379,303.71079 76.4854,305.098897 70.7724,308.4788 C65.2924,311.7218 60.4914,316.9058 59.4334,323.3968 C58.3894,329.7938 62.6344,334.6188 66.2924,339.3238 C70.4394,344.6588 73.7734,350.1778 74.1714,357.1048 C74.5694,364.0778 71.1524,371.0978 72.1434,377.9918 C74.3544,393.3958 96.7674,388.4328 106.4024,386.0658 C109.2914,385.3568 113.2734,386.4598 114.6054,389.4038 C120.9804,403.4928 129.6484,416.3508 140.5654,427.3198 C145.9634,432.7438 151.8044,437.7048 158.1184,442.0278 C164.5014,446.3978 170.6984,449.9848 175.0744,456.5908 C176.7704,459.1528 174.4684,462.0118 171.8364,462.2338 C163.2124,462.9608 156.1794,458.7178 149.3744,453.9228 C142.5214,449.0938 136.0334,443.7108 130.1284,437.7578 C119.5814,427.1268 110.7944,414.8168 104.2274,401.3748 L103.323745,401.544784 C88.530032,404.266852 72.1264,404.25274 62.5224,390.7258 C58.2504,384.7088 57.7744,377.6588 58.8804,370.5688 C59.9574,363.6628 62.4804,357.1928 58.5804,350.7438 C55.0404,344.8898 50.0014,340.0688 47.9804,333.3518 C46.0274,326.8618 47.1334,319.9798 50.0484,313.9738 C55.6264,302.4858 67.1354,296.8188 79.1834,294.9768 C64.6754,286.2418 59.8104,268.3728 59.7854,252.0408 C59.7534,231.5868 66.9834,210.9168 75.1804,192.4638 C90.6434,157.6538 116.7314,126.9818 148.5654,106.0928 C178.1084,86.7088 213.7224,76.2628 249.1024,76.5768 C258.1904,71.1298 267.5214,66.0868 277.0174,61.3938 L279.047118,60.3987491 C293.590674,53.330079 308.099978,47.6328444 324.1944,45.0538 Z M75.8454,328.249 C77.6064,323.952 85.3474,323.966 89.0014,324.111 L89.6727926,324.141794 C100.791313,324.724928 119.21988,329.26272 121.4974,341.695 C121.8784,343.772 120.5464,346.511 118.0174,346.264 C114.3584,345.907 111.5834,345.239 108.5774,343.085 L107.05552,341.997926 C104.524872,340.199083 102.005567,338.476167 99.2314,336.997 C95.8294,335.185 92.3214,333.876 88.6184,332.829 C87.1004,332.401 85.5714,331.954 84.0464,331.551 C83.0374,331.285 82.0214,331.051 80.9994,330.848 C79.8004,330.109 79.0204,330.567 78.6614,332.22 C79.1324,332.382 79.0894,333.2 78.5364,333.141 C76.3414,332.908 74.9904,330.333 75.8454,328.249 Z M111.1747,310.2103 C111.1747,310.1591 111.2387,310.1495 111.2643,310.179964 L111.2747,310.2103 L111.2747,314.8183 C111.2747,314.8703 111.2107,314.8807 111.1851,314.8495 L111.1747,314.8183 L111.1747,310.2103 Z" id="ðŸ–-Ink" fill="#000000"/></g>

        <g id="face" transform="translate(315 248)"><path d="M178.871914,230.917268 C172.084992,233.585341 164.066433,234.215552 157.061098,231.942304 C150.362703,229.768113 144.28029,224.929412 140.599925,218.84408 C137.321901,213.424001 135.952932,206.991935 137.890254,200.579759 C137.982934,200.27284 138.283597,200.076561 138.573641,200 C140.158597,201.44297 141.137823,202.876119 142.116194,204.302267 C143.765639,206.706626 145.418747,209.086307 147.687997,211.141935 C150.989651,214.132462 155.438004,216.561321 159.852826,217.362336 C164.175422,218.148364 168.599466,217.453721 172.469952,215.384705 C174.823771,214.127392 176.726931,212.446046 178.611487,210.757233 C180.663611,208.918256 182.683221,207.051286 185.509504,206.012861 C187.774373,205.180558 190.153432,205.882876 191.981074,207.275134 C193.945418,208.77153 195.357973,211.113879 195.279663,213.562705 C195.158382,217.356749 193.497588,220.521617 191.087827,223.132749 C187.829983,226.662832 183.223603,229.206343 178.871914,230.917268 Z M170.814304,136.367155 C178.365682,140.9572 189.871664,151.660291 181.748119,163.039573 C172.185929,173.073062 158.418535,161.568982 151.634201,156.366134 C145.343449,152.333898 138.275437,162.704507 144.112,167.412823 C193.135736,203.708059 213.030606,137.567387 174.633685,130.970386 C170.406047,130.243425 168.835891,134.947174 170.814304,136.367155 Z M91.388,72.7683 C101.68,72.2763 110.75,76.8983 120.558,78.9983 C129.622,80.9403 138.552,79.7743 147.367,77.3043 C161.673,73.2953 167.587,95.1953 153.476,99.4633 C143.2,102.5713 132.38,102.7873 121.835,101.1853 C112.468,99.7613 104.616,95.2013 95.685,92.5463 C88.0204884,90.2689512 79.0041303,91.2154163 70.9099803,92.2875982 L67.768,92.7103 C63.098,93.3393 58.403,93.9703 53.779,94.8833 C49.767,95.6763 45.762,97.1273 41.667,97.2953 C41.202,97.3153 40.808,96.7113 41.101,96.3083 C45.8578889,89.7777222 55.0259896,84.6248116 62.3187464,81.1879671 L62.813,80.9563 C71.815,76.7593 81.365,73.2463 91.388,72.7683 Z M87.6173265,120.923881 L87.6160369,120.698595 C87.6300369,114.321808 91.344047,99.7622157 100.524157,99.7622157 C106.259134,99.7622157 109.740999,109.67102 110.343765,119.885575 L110.3647,120.302049 C110.630879,126.652574 108.888163,140.533717 100.524157,140.533717 C92.071637,140.533717 87.7042339,127.386546 87.6173265,120.923881 L87.6173265,120.923881 Z M222.772617,120.923881 L222.773907,120.698595 C222.759907,114.321808 219.045897,99.7622157 209.865787,99.7622157 C204.274184,99.7622157 200.824446,109.181773 200.096775,119.120207 L200.046179,119.885575 C199.684084,126.021693 201.313826,140.533717 209.865787,140.533717 C218.318307,140.533717 222.68571,127.386546 222.772617,120.923881 L222.772617,120.923881 Z M222.631889,65.001572 L223.2885,65.016 C234.0165,65.388 245.0515,71.743 247.9155,82.418 C248.0635,82.972 247.3805,83.345 246.9755,82.965 C238.154379,74.7062828 226.291005,82.5977143 217.457956,86.7341044 L214.213553,88.2329098 C202.826322,93.5306845 189.875019,99.7591481 177.2315,95.811 C171.2265,93.936 167.4125,87.766 169.1255,81.534 C170.64941,75.9890149 177.342493,71.3290091 183.139632,73.330419 L183.4025,73.426 C188.1125,75.2276667 193.90375,73.40225 198.768148,71.6025278 L202.76406,70.1019862 C209.189584,67.6637959 215.644819,64.9359718 222.631889,65.001572 L222.631889,65.001572 Z" id="ðŸ–-Ink" fill="#000000"/></g>

        <g id="facial-hair" transform="translate(279 400)"></g>

        <g id="eyewear" transform="translate(203 303)"><path d="M337.808766,15 C361.280828,15 374.675545,20.0476268 379.583995,20.4408262 L379.731604,20.4513988 C381.773203,20.5819351 383.604638,20.7526365 385.526143,21.4956895 C392.591677,24.2168704 393.742579,31.6273185 389.619349,36.2975074 C389.330123,45.9612137 390.601118,57.2526079 388.42041,66.9474421 C385.730303,107.818373 366.509247,114.715713 355.583689,117.233056 C350.098392,118.49725 343.5973,119.000317 337.770736,117.665834 C327.83095,117.295312 318.004253,114.183526 309.596667,108.765263 C297.887495,101.213234 289.190683,89.6055398 286.368473,75.8299385 C285.030886,69.2635354 284.405767,62.4288331 285.133692,55.7543104 L285.24159,54.834673 C281.435609,53.014193 277.025154,52.6697779 272.478593,52.5091178 C270.306891,52.4318001 268.166215,52.3625154 266.086586,52.454895 C264.053994,52.6818274 262.04542,52.9840692 260.030842,53.3957608 C257.831119,54.0594879 255.753492,55.1549891 253.834989,56.8901185 L253.702886,59.4225236 C253.342603,65.7485159 252.511953,72.0935866 251.230949,78.3000879 C249.339468,87.4577148 246.297085,96.2036502 239.822013,102.69934 C237.630296,105.97279 234.918171,108.894796 231.625592,111.425193 C219.665224,120.63403 203.415495,124.014921 188.501813,122.74169 C158.225098,120.158074 140.724389,96.1233201 136.69123,85.8501095 L136.45028,85.2277051 C133.536796,77.5902322 131.214914,67.6806815 122.008729,66.0397124 L120.050703,65.6879191 C115.84966,64.8993558 111.973202,63.8015161 109.509939,59.7026747 C108.430093,57.9133226 107.874658,55.9121 107.738551,53.8717164 C106.301426,53.9821703 104.866302,54.0876035 103.436181,54.1900243 C92.0277451,56.6026875 23.600227,58.6483427 18.1383674,58.6483427 C18.1383674,58.6483427 7.63935915,63.0673229 3.20667133,59.6434313 C0.134264704,57.2626491 -0.876527051,54.0896117 0.814797767,50.4948415 C3.36675899,45.0862033 15.1402688,41.832872 20.368158,40.8027483 C20.368158,40.8027483 104.732847,41.5034375 110.804953,40.3521672 C114.561896,36.47825 121.28216,37.0084284 126.897559,36.3959117 C131.5462,33.0812926 138.049294,30.8611705 143.186318,29.3750644 C144.233138,28.9784347 145.26995,28.5948587 146.277739,28.2333734 C155.695116,24.8795934 165.483783,23.1032949 175.421568,22.1493754 C185.669595,21.1753734 195.947646,21.6161846 206.135626,23.0119194 C210.428989,23.5943124 214.682321,24.3474067 218.905629,25.3324541 C226.467802,26.3293627 233.985996,27.9714025 241.550918,29.9193501 L243.064552,30.3129178 C251.030792,32.4014994 259.217205,34.2079217 267.463664,32.7921043 C274.177256,31.6469826 280.633494,29.0632415 286.823569,26.2693175 L287.62946,25.9038016 C301.240122,19.6892673 322.495771,15 337.808766,15 Z M218.086988,37.7223618 C213.065054,36.6178235 210.920374,44.3606372 215.95832,45.4681879 C219.525804,46.252514 222.549376,48.0515396 224.592155,51.0993468 L224.807252,51.4306867 C227.548399,55.792609 234.479828,51.7660647 231.719666,47.3760269 C228.614234,42.4357281 223.788453,38.9755108 218.086988,37.7223618 Z M365.1732,32.9216366 C363.402814,31.6745124 360.723715,32.6003163 359.69591,34.362557 C358.564701,36.303111 359.306135,38.4637159 360.964208,39.7331967 L361.133036,39.8571332 C362.653907,40.9290575 364.135119,42.8505012 364.321131,44.8192514 L364.337546,45.0655335 C364.536702,50.2177028 372.543974,50.24381 372.343817,45.0655335 C372.148664,39.999719 369.215367,35.767329 365.1732,32.9216366 Z" id="ðŸ–-Ink" fill="#000000"/></g>
    </g>
</svg>