<svg xmlns="http://www.w3.org/2000/svg" viewBox="0 0 704 704" fill="none" width="512" height="512">
    <desc>"Open Peeps" by "Pablo Stanley", licensed under "CC0 1.0". / Remix of the original.</desc>
    <mask id="viewbox"><rect width="704" height="704" rx="0" ry="0" x="0" y="0" fill="#ffffff" /></mask>
    <g mask="url(#viewbox)">
        <rect id="background" fill="#d1d4f9" width="704" height="704" x="0" y="0" />

        <g id="body"><path id="skin" d="M705.3 1074a2351.1 2351.1 0 0 1-15.6-101c-1-7.7-2.5-16.4 2.7-22 7.3-8 14-14.8 14.8-26.2.8-10.7-2.8-22.4-5-32.8a809.4 809.4 0 0 0-17.3-64.7c-6.6-21.7-13.9-43.2-21.3-64.6-6.9-20-13.5-40.3-22.5-59.5-17-36.5-46-63.5-81.6-81.6-9-4.5-27-20.5-36.3-24-8.5-3.4-8.5 6.3-16.9 2.6-6.7-2.9-13-6.7-16.7-13.2-4-7-14.3-16.9-15.9-25-3.3-17.4.3-32.2-12-45.3a90 90 0 0 0-41.1-23.8c-33.7-9.3-78.5-2.8-98.8 28.5-9.7 14.9-13 33-26.2 45.1-11.4 10.7-8.8 18-23.6 23.4-.9.3-23.6-4.5-24.4-4.2-16.2-3.5-31.7 6.2-46.5 11.8a325.4 325.4 0 0 0-63 32.3 399.2 399.2 0 0 0-102.3 98.5 482.5 482.5 0 0 0-76.4 161c-1.7 6.4-3.5 13-1.5 19.4 1.7 5.3 5.4 9.2 9.8 12.4 6 4.3 18 7 17.7 15.7-.1 6.6-2.4 13.5-3.5 20-1.3 7.7-2.3 15.5-3.4 23.2-4.8 35.4-8.6 71-10.3 106.6a920 920 0 0 0-.5 106c.1 2.3.8 4.5 2 6.2-1 .4-1.2 2.4.1 2.7l2.7.5a12 12 0 0 0 7 2.4l5.5.2c19.3 4 38.6 7.9 58.1 10.8 23.8 3.5 47.6 6.3 71.5 8.7 49.2 4.8 98 3.2 147.1.6a1877 1877 0 0 1 147.4-2c49.2 1.4 98.4 3.5 147.6 4.4 55 1 110-.5 164.8-5 7.5-.5 12.2-6.5 10.7-14-8.9-44.7-19-89.1-27-134Z" fill="#d08b5b"/><path id="shirt" d="m201 597.5 1.2-.4c14.5-5.7 29.6-14.8 45.4-11.4.5-.2 10.8 1.9 17.9 3.2l-6.7 7L247 598c40.7 67.1 88.8 100.7 144.3 100.7 55.5 0 97.7-33.6 126.4-100.7l4-1c.4 0 1 .2 1.5.4 9.3 3.6 27.4 19.6 36.3 24.1 35.6 18 64.5 45 81.6 81.6 8.7 18.6 15.2 38 21.8 57.5l.7 2c7.4 21.4 14.7 43 21.3 64.6 6.3 20.4 12 41 16.6 61.8l.7 2.9c2.2 10.4 5.8 22 5 32.8a29 29 0 0 1-3 10.7l-80.4 29 38.4 261.3c-35.1 1.5-70.3 2-105.5 1.3-49.2-.9-98.4-3-147.6-4.3-47.7-1.2-95.3-.7-143 1.7l-12 .6a946.3 946.3 0 0 1-139.5-1l-3.1-.3v-38.3l16.3-212.9-83-15.6-81.3-39.5a21.7 21.7 0 0 1-5.6-8.8c-1.9-6-.5-12 1-18l.5-1.3a492.8 492.8 0 0 1 76.4-161A399.3 399.3 0 0 1 138 629.7c19.8-13 40.9-23.9 63-32.3Z" fill="#78e185"/><path d="M232.2 584.6c5.1-.3 10.3.6 15.4 1 .4.1.6.8 0 .9-9 1.9-18 4.5-26.9 7.1l-3.8 1.2c-10 3-19.8 6-29.6 10-19.4 7.9-37.8 18.5-54.8 30.8C67.2 682.8 20 754.3-9.9 828.3a526 526 0 0 0-24.3 77c-.4 1.6-2 5.4-1 7 .7 1.3 3.6 2.1 5 2.9l4.5 2.3 25.2 12.9 2.3 1.1c38 18.6 78.4 34.4 121 35.5l.4-3.7a342 342 0 0 1 9.9-60c.3-1 1.6-.6 1.7.3 3 23.1 2 46.4 1 69.7-1.8 41-4.3 82.2-6.5 123.3-1.2 20.6-2.6 41-3.9 61.7-1.3 20.5-1.7 41.6-4.7 62-.6 4.6-6 7-10 6.6-4.4-.5-7.9-4.5-8-9 0-11.9 1.5-24 2.4-35.8l2.5-33.8c3.1-41.1 6.8-82.2 10.2-123.3a4771 4771 0 0 1 3.8-43.7C76.4 979.8 34.2 963-6.1 943.5c-.6 13.2-2 26.5-3.4 39.6-3.8 36.8-7.1 73.6-9.6 110.5a2254.2 2254.2 0 0 0-4.2 92.7l-.2 7c0 4.4-.5 8.5-4.3 11.7-3.7 3.3-8.9 3.5-12.6 0-5-4.6-4.2-10.9-4-17.1a1675.6 1675.6 0 0 1 1.8-47.2 1321 1321 0 0 1 10.5-109.5l2-14c3.5-26 7.5-52.7 15.5-77.9-3.1-1.5-6.2-3-9.3-4.7-5.5-2.7-11.2-5.4-16.6-8.4-4.2-2.5-7.9-5.8-9-10.8-1.4-5.5.6-11.5 2-16.9v-.4a502 502 0 0 1 26.6-80 523.2 523.2 0 0 1 67.8-117 353.8 353.8 0 0 1 88.7-83.3 239 239 0 0 1 53.8-25.7 142.6 142.6 0 0 1 42.8-7.5Zm90.1-66c6-6.5 18.1.2 15.2 8.8a108.2 108.2 0 0 1-34.7 52A79.4 79.4 0 0 1 247 598l1.7 2.4a321.1 321.1 0 0 0 46.1 52.6c36 31.2 84.8 48 132 36 37.1-9.4 69.8-38.8 79.4-76.2-1.3.6-3 .9-4.8.5-7.7-1.7-15.3-9.8-20.3-15.6-5.3-6.3-9.5-13-12.6-20.7-5.6-14-7.4-32.1.3-45.7 1-1.7 3-.7 3.3 1l.3 2.5c1.5 12.7 3.3 25 9.3 36.6a76 76 0 0 0 18.2 23.1c2.6 2 5.8 3.6 8.1 6l.5.4c.6-5 4.1-7.3 7.6-7.2 3.3.2 7.3 1.6 8.8 2.3l.1.1a341 341 0 0 1 65.1 42 259 259 0 0 1 88.4 129c7.5 25.3 11.8 51.4 16.3 77.4l2.8 16c4.2 23.9 8.9 48.4 18.4 70.7 2.5 5.7.6 11.1-5.5 13.4A1493 1493 0 0 1 688 953c3.7 16 6 32.5 8.7 48.5 6 34.1 13.2 68 19.4 102 3.2 17.5 6.1 35 9.3 52.3l4.7 25.2 2.4 13.6.1.7c.5 2.4 1 4.9.4 7.3-.8 2.7-2.9 4.6-4.8 6.6-1.6 1.6-3.8 1.6-5.7.7l-.7-.3c-3.4-1.6-6-3.2-7.3-7-.7-2.5-1-5.2-1.5-7.7a3535.6 3535.6 0 0 1-7.8-43.6l-1.6-9.1c-5.2-31.4-10.2-62.9-12.8-94.5-1-14-2.3-28.1-3.5-42.2l-.9-10.5c-1.1-13.3-2.5-27-2.7-40.5l-4.5 1.6L657 964c-5.5 2-12.5 6-18.4 5.2-2.9-.3-5-1.2-6.8-2.9 2 28.8 4.8 57.4 8.5 86a1965.7 1965.7 0 0 0 22 135c.6 3.2 1.4 6.4 1.9 9.6.5 3.7-.5 5.9-2.5 9-1.7 2.4-5 3.7-7.8 2-3.6-2.3-5.5-4.3-6.5-8.4-1-3.7-1.6-7.6-2.3-11.4a1654.2 1654.2 0 0 1-11.4-65.2c-7.8-52-12.7-104.4-15.2-156.8a1388 1388 0 0 1-1.4-77.8c0-13.3.5-26.6 1.4-39.9 1-13.4 3-26.5 4.8-39.8 0-.5.7-.5.7 0 .8 14.9 2.1 29.8 2.8 44.7.6 14.3.9 28.5 1.4 42.8.6 18.7 1.5 37.5 2.7 56.2a9.6 9.6 0 0 1 8.5-3.1c4.7-1 9.7-3.4 14.1-5l16.8-5.5 26.4-8.7a679 679 0 0 1-18-80.8l-2-12.3c-4-24.2-8.5-48.5-15.8-72a229.8 229.8 0 0 0-34.8-68.2 370.2 370.2 0 0 0-52.7-55.3C557 627 539.7 614 523 600c.1.9.2 2 0 3-3.5 25.9-17 50-35.8 67.9-37.7 36-93.6 43.4-142 26.5-46.7-16.3-88-55-102.6-102.8-.3-.8.8-1 1.3-.5l2.4 3.3c0-.4.2-.9.7-1a129 129 0 0 0 46.6-29.2 100.2 100.2 0 0 0 21.3-33.3l.4-1c1.7-5 3.2-10.2 7-14.2Z" fill="#000000"/></g>

        <g id="head" transform="matrix(.99789 0 0 1 156 62)"><path id="skin" d="M431.9006,270.053 C428.1106,207.851 407.9266,137.33 348.5226,106.79 C217.5636,54.232 45.3796,186.588 36.2636,321.8 C33.0856,368.084 58.7836,418.659 105.7446,431.527 C116.1856,445.36 131.9756,453.808 147.5606,461.14 C333.1876,557.447 453.0946,479.16 431.9006,270.053 L431.9006,270.053 Z" fill="#d08b5b"/><path d="M474.1891,231.3601 C467.6291,213.1401 460.6991,195.0601 453.4091,177.1201 C446.3091,159.6601 439.896026,141.822713 431.0791,125.1901 C378.4191,25.8501 282.6591,25.8501 233.1591,38.8301 C207.4891,27.7701 159.408421,30.8898441 132.6791,40.8701 C89.4071,57.0271 36.6581,120.5851 18.6231,149.1411 C-21.1959,212.1901 -46.0459,296.1071 -19.5959,368.9631 C-16.1389,378.4851 -11.7299,387.3041 -6.7659,395.8031 C-9.8929,400.0411 -13.4919,404.0551 -17.4789,407.9991 C-29.3269,419.7211 -41.1749,431.0571 -51.4099,444.2781 C-61.5809,457.4171 -70.0129,471.3891 -76.2899,486.7941 C-88.1259,515.8461 -88.6959,548.7421 -73.0479,576.4631 C-59.4339,600.5831 -35.3169,618.5441 -8.1459,620.2571 C-6.7509,620.4511 -5.3539,620.6291 -3.9509,620.7701 C-0.3509,626.7001 4.0391,632.1601 9.0491,636.9201 C24.3991,651.5201 60.9891,659.0101 81.8591,659.4901 C82.9291,660.3501 84.0091,661.2101 85.0891,662.0601 C97.8591,672.1101 111.2591,682.2501 125.9191,689.4001 C135.8491,694.2501 148.8691,698.3001 159.2291,694.8001 C163.9291,697.9401 171.6391,697.2801 176.2991,694.7101 C183.9591,690.4901 190.1891,682.8901 193.9791,675.1101 C203.1691,656.2201 200.9591,635.5501 198.5991,615.3701 C195.9991,593.0801 193.4991,570.7801 190.9591,548.4901 C188.9691,531.0601 186.8891,513.3401 181.5891,496.5501 C178.8491,487.8501 175.2591,479.4901 170.6191,471.6301 C170.7391,470.9701 170.7191,470.3101 170.5291,469.6901 C169.0091,464.7501 165.8691,462.1601 162.1491,458.8001 C161.6691,458.3701 161.1891,457.9301 160.7191,457.4801 C158.8591,455.3601 156.8691,453.3901 154.7391,451.7201 C153.9191,450.8901 153.1091,450.0501 152.2991,449.2101 C145.5691,442.1601 139.2091,434.7501 133.5591,426.8101 C128.0791,419.1101 123.1291,411.0701 118.4191,402.8801 C113.6291,394.5501 110.4591,385.3601 105.6791,377.0901 C105.2691,376.3801 104.2291,376.2401 103.6491,376.8301 C102.1691,378.3601 101.2191,380.0601 101.3991,381.8501 L100.6591,381.9601 C100.3791,379.2601 97.8891,377.0601 94.5091,377.6501 C89.4491,378.5301 85.2891,378.8601 80.9091,377.1801 C81.6791,372.0701 82.3891,366.9501 83.0891,361.8201 C84.3691,352.3801 85.5591,342.9101 86.5791,333.4401 C89.0491,334.0301 91.4991,334.8801 93.8991,335.9601 C97.3191,337.4901 100.5491,339.5501 103.3091,342.0801 C106.0291,344.5801 107.9091,347.9501 111.2291,349.6901 C115.0491,351.6801 119.6591,348.3901 118.5391,344.0701 C116.2691,335.3401 103.4191,330.3401 95.4691,328.6901 C92.7391,328.1201 89.9491,327.8801 87.1591,327.9401 C87.7891,321.8601 88.3491,315.7801 88.8091,309.6901 C89.0291,306.8101 89.2291,303.9301 89.4191,301.0401 C95.5991,299.1701 102.2191,298.6101 108.6491,299.4901 C110.7691,301.1801 112.8891,302.8501 114.9391,304.5401 C121.4491,309.9201 127.9291,315.3301 134.3291,320.8401 C134.9091,321.3301 135.4791,321.8201 136.0591,322.3201 C139.8591,325.5901 144.5991,322.3501 143.9591,317.7201 C138.7391,279.7801 161.9791,249.6001 189.1891,226.2201 C219.3091,200.3301 274.0691,197.315396 309.8891,152.4701 C326.3862,155.827691 363.2191,165.8001 378.4191,190.0201 C399.6991,223.9601 396.9191,254.3701 398.5391,292.8701 C400.1591,331.4001 404.2791,371.5901 395.5291,409.5801 C387.4591,444.6101 365.6091,474.5401 331.7091,488.3001 C330.8691,488.6401 330.0191,488.9701 329.1691,489.2901 C311.6391,495.9001 292.5091,497.7701 274.0691,494.2901 C253.6591,490.4301 236.6191,481.0901 219.6391,469.6001 C218.6591,468.9501 217.2291,470.2901 217.9691,471.2701 C240.3491,500.9301 284.3091,510.8401 319.1791,503.0101 C320.8091,502.6401 322.4291,502.2401 324.0391,501.8001 C316.2391,524.2301 317.8091,548.8501 327.9691,570.6901 C334.0791,583.8301 343.3991,595.2001 354.7491,604.1701 C367.2591,614.0501 382.7791,622.0301 391.4591,635.9001 C399.4091,648.6101 397.0491,662.8901 383.4391,670.2301 C380.0091,672.0901 378.6891,678.1001 382.0891,680.7401 C383.3891,681.7401 384.6891,682.7601 386.0191,683.7601 C393.6391,689.5101 414.5691,700.3101 417.9591,700.7101 C448.0591,704.2801 468.2991,682.1801 481.2691,656.1101 C496.4991,625.5101 492.5391,588.2201 475.7591,559.0801 C462.2991,535.7001 435.7891,512.6601 446.3291,483.0701 C450.0891,472.5001 457.7791,463.4901 465.2491,455.3501 C473.7691,446.0801 482.9291,437.4001 491.0991,427.8001 C499.2191,418.2701 506.4191,407.9001 510.4391,395.9401 C516.3091,378.4601 513.3891,359.5601 508.9791,342.1101 C499.5291,304.6501 487.2591,267.6901 474.1891,231.3601 Z" id="ðŸ–-Ink" fill="#000000"/></g>

        <g id="face" transform="translate(315 248)"><path d="M95.4 211.2c16-12.4 100.6-16 109-8 8.4 8 28.2 31.2-9.6 46-37.8 14.7-86 13.9-99.4 0-13.5-13.9-16-25.6 0-38Z" fill="#fff"/><path d="M168 192.8c8.4-.3 17-1 25.4.3 14 2 28.3 12 28.3 27.6-.1 26-29.4 35.9-50.4 39.3l-2.3.3c-25.1 4-55.2 7.7-77.7-6.6-10.7-6.7-17.4-18-14.3-30.8a36.2 36.2 0 0 1 24.7-24.7c13.5-4.4 27.4-2.1 41-.3l3 .4c3.2-1 6.4-2.4 9.6-3.4a50 50 0 0 1 12.6-2Zm-3.2 33.4-13.1 1.7-14.9 1.9c.7 6.7.8 13.5.6 20.4a185 185 0 0 0 26.5-2.8c.6-7 1-14.1 1-21.2Zm-39 5c-12 1.3-24 2.5-36 3.5 2.8 5.2 9.7 8.5 15 10.4 6.1 2.1 12.4 3.4 18.8 4 1-5.8 1.8-11.9 2.2-18Zm87-10c-9 1.5-18.4 2.1-27.4 3.3l-10.6 1.3c1.1 6.4 2 12.9 2.5 19.4l1.6-.3a70.3 70.3 0 0 0 21.4-7.3l.6-.3c5.2-3.2 12.1-9.4 12-16.1Zm-86-10c-5.9.5-12.1.6-17.8 1.9-8.4 1.8-18.4 6.4-20 15.8a10 10 0 0 0 .2 4.3c12.3-2.3 24.7-4.5 37-6.5.4-5.2.5-10.4.6-15.5Zm32.1-3-8 .7c-6 .5-12 .7-18 1.1 1.4 4.7 2.4 9.4 3.1 14.2l14.8-2.2 14-2v-3.6l-.1-7.2h-.6l-5.2-1Zm50 5.6c-5.7-5-16.2-4.7-22.9-4.5-5 .1-10 .7-15.2.7 1 3 1.9 6 2.6 9.2l10.8-1.6c8.2-1.2 16.4-2.8 24.6-3.8Zm-38-69.4c7.5 4.6 19 15.3 10.8 26.6-9.5 10-23.3-1.4-30-6.6-6.4-4-13.4 6.3-7.6 11 49 36.3 69-29.8 30.5-36.4-4.2-.8-5.8 4-3.8 5.4Zm73.9-25.6c-2.6 16.9-29.1 40.4-32.7 40.4-3.6 0-34.5-30-34.5-43.3 0-13.3 13.3-31.2 34.5-8.7 12-15 35.3-5.3 32.7 11.6Zm-118-15c6.3 9 4 20.4-2.4 28.7-5.6 7.4-24.6 23.9-27.5 24.3-3.7.5-20.4-18.4-24.2-21.6-4-3.1-14.6-13.3-12-22.8 2.4-9 15.5-24.4 34.6-8.6 6-15.1 26-8.3 31.6 0Zm-62-29.4c9.7-11 30.5-22.6 42-7.7 2.8 3.8-.3 10-4.6 11-5.2 1.2-10.6.4-15.8 2a49.5 49.5 0 0 0-13.3 6.8c-4.7 3.2-9 6.7-12.9 10.7-2.3 2.4-5.3 8-8.9 8.1-3.6.1 1.2-11 1.6-12 2.9-7 6.8-13.3 11.8-18.9Zm118.5-26.8c5.7-2.7 11.2-1.5 16.9 0l2.4.7a58 58 0 0 1 17.7 7.4l.4.3c6.6 4.7 16.5 14.7 11.8 23.5-.3.6-1 .6-1.6.4-6.1-2.7-10.7-8-17.2-10.3l-1.2-.4a64.3 64.3 0 0 0-21-4.2c-4.8 1.5-11.2.3-12.5-5.6v-.3l-.1-.6c-.8-4 .3-9 4.4-11Z" fill="#000"/></g>

        <g id="facial-hair" transform="translate(279 400)"><path d="M117.724748,95.193032 C125.820991,76.2257701 143.491513,62.2858787 163.836481,57.1894344 C178.77663,53.4564466 194.455798,53.5755739 209.685563,55.0571566 C217.664961,55.82798 226.223589,56.4596548 233.743597,59.4228202 C240.165065,61.9545247 245.398112,66.7396365 249.332884,72.3566369 C254.016661,79.0127473 257.202428,86.6308855 259.439456,94.4392268 C259.757034,95.5494127 260.055637,96.6676073 260.334267,97.7918082 C259.36156,103.683102 257.296304,108.697458 251.839554,112.401415 C246.514629,116.018279 240.161071,117.497859 233.827486,118.023421 C233.206311,117.725102 232.606109,117.418775 232.05584,117.104439 C222.185954,111.454403 215.239184,98.1021397 202.781736,99.90907 C191.664507,101.522794 184.34623,115.510737 177.735014,123.713499 C156.513211,126.186141 135.307387,119.809329 118.040329,107.674365 C117.163494,103.520928 117.112562,99.332454 117.724748,95.193032 M274.758103,80.8046615 C273.060358,76.0405723 270.922199,71.4266434 268.387567,67.0800001 C260.0087,52.7056446 247.14579,41.2524095 231.876079,34.7054157 C195.754073,19.2388934 149.016172,30.1415403 119.844931,55.5076378 C109.880171,64.1789009 99.8045583,76.9215133 96.7576067,90.6281556 C95.8478155,90.8083481 94.9889566,91.2818539 94.2818961,91.9485661 C73.2058992,78.6793912 51.5017369,65.9127532 34.5183023,47.519104 C22.1846896,34.1548275 13.6060877,18.338932 8.35306724,0.959366195 C7.92363781,-0.471161978 5.61670297,-0.261938473 5.68661009,1.32075225 C5.70658355,1.69114793 5.72655701,2.06054254 5.74653047,2.43093821 C5.52682239,1.75021102 4.48820238,2.10058531 4.40830853,2.76129112 C1.58206368,23.8738448 -1.95323907,46.2577565 1.30243521,67.4804278 C3.24984774,80.1439557 9.00220475,89.4148595 16.6919876,99.4255535 C24.9310406,110.156016 34.2586473,120.136678 43.7959753,129.707903 C49.8479342,135.783393 56.1695349,142.790879 63.5796892,147.245638 C72.198238,152.421166 81.9752476,156.35637 91.1730268,160.349636 C100.530594,164.423989 110.027975,168.188009 119.705117,171.451496 C139.049415,177.99849 159.04285,182.523323 179.385821,184.505441 C195.674179,186.08713 214.289446,187.809971 229.898706,181.682425 C241.86281,176.98741 251.519978,168.499342 259.179801,158.287433 C267.518721,147.165552 274.110962,134.497019 277.755121,121.137748 C281.542089,107.260924 275.556042,83.0420517 274.758103,80.8046615" id="ðŸ–-Ink" fill="#000000"/></g>

        <g id="eyewear" transform="translate(203 303)"><path d="M337.808766,15 C361.280828,15 374.675545,20.0476268 379.583995,20.4408262 L379.731604,20.4513988 C381.773203,20.5819351 383.604638,20.7526365 385.526143,21.4956895 C392.591677,24.2168704 393.742579,31.6273185 389.619349,36.2975074 C389.330123,45.9612137 390.601118,57.2526079 388.42041,66.9474421 C385.730303,107.818373 366.509247,114.715713 355.583689,117.233056 C350.098392,118.49725 343.5973,119.000317 337.770736,117.665834 C327.83095,117.295312 318.004253,114.183526 309.596667,108.765263 C297.887495,101.213234 289.190683,89.6055398 286.368473,75.8299385 C285.030886,69.2635354 284.405767,62.4288331 285.133692,55.7543104 L285.24159,54.834673 C281.435609,53.014193 277.025154,52.6697779 272.478593,52.5091178 C270.306891,52.4318001 268.166215,52.3625154 266.086586,52.454895 C264.053994,52.6818274 262.04542,52.9840692 260.030842,53.3957608 C257.831119,54.0594879 255.753492,55.1549891 253.834989,56.8901185 L253.702886,59.4225236 C253.342603,65.7485159 252.511953,72.0935866 251.230949,78.3000879 C249.339468,87.4577148 246.297085,96.2036502 239.822013,102.69934 C237.630296,105.97279 234.918171,108.894796 231.625592,111.425193 C219.665224,120.63403 203.415495,124.014921 188.501813,122.74169 C158.225098,120.158074 140.724389,96.1233201 136.69123,85.8501095 L136.45028,85.2277051 C133.536796,77.5902322 131.214914,67.6806815 122.008729,66.0397124 L120.050703,65.6879191 C115.84966,64.8993558 111.973202,63.8015161 109.509939,59.7026747 C108.430093,57.9133226 107.874658,55.9121 107.738551,53.8717164 C106.301426,53.9821703 104.866302,54.0876035 103.436181,54.1900243 C92.0277451,56.6026875 23.600227,58.6483427 18.1383674,58.6483427 C18.1383674,58.6483427 7.63935915,63.0673229 3.20667133,59.6434313 C0.134264704,57.2626491 -0.876527051,54.0896117 0.814797767,50.4948415 C3.36675899,45.0862033 15.1402688,41.832872 20.368158,40.8027483 C20.368158,40.8027483 104.732847,41.5034375 110.804953,40.3521672 C114.561896,36.47825 121.28216,37.0084284 126.897559,36.3959117 C131.5462,33.0812926 138.049294,30.8611705 143.186318,29.3750644 C144.233138,28.9784347 145.26995,28.5948587 146.277739,28.2333734 C155.695116,24.8795934 165.483783,23.1032949 175.421568,22.1493754 C185.669595,21.1753734 195.947646,21.6161846 206.135626,23.0119194 C210.428989,23.5943124 214.682321,24.3474067 218.905629,25.3324541 C226.467802,26.3293627 233.985996,27.9714025 241.550918,29.9193501 L243.064552,30.3129178 C251.030792,32.4014994 259.217205,34.2079217 267.463664,32.7921043 C274.177256,31.6469826 280.633494,29.0632415 286.823569,26.2693175 L287.62946,25.9038016 C301.240122,19.6892673 322.495771,15 337.808766,15 Z M218.086988,37.7223618 C213.065054,36.6178235 210.920374,44.3606372 215.95832,45.4681879 C219.525804,46.252514 222.549376,48.0515396 224.592155,51.0993468 L224.807252,51.4306867 C227.548399,55.792609 234.479828,51.7660647 231.719666,47.3760269 C228.614234,42.4357281 223.788453,38.9755108 218.086988,37.7223618 Z M365.1732,32.9216366 C363.402814,31.6745124 360.723715,32.6003163 359.69591,34.362557 C358.564701,36.303111 359.306135,38.4637159 360.964208,39.7331967 L361.133036,39.8571332 C362.653907,40.9290575 364.135119,42.8505012 364.321131,44.8192514 L364.337546,45.0655335 C364.536702,50.2177028 372.543974,50.24381 372.343817,45.0655335 C372.148664,39.999719 369.215367,35.767329 365.1732,32.9216366 Z" id="ðŸ–-Ink" fill="#000000"/></g>
    </g>
</svg>