<svg xmlns="http://www.w3.org/2000/svg" viewBox="0 0 704 704" fill="none" width="512" height="512">
    <desc>"Open Peeps" by "Pablo Stanley", licensed under "CC0 1.0". / Remix of the original.</desc>
    <mask id="viewbox"><rect width="704" height="704" rx="0" ry="0" x="0" y="0" fill="#ffffff" /></mask>
    <g mask="url(#viewbox)">
        <rect id="background" fill="#b6e3f4" width="704" height="704" x="0" y="0" />

        <g id="body"><path id="skin" d="M705.3 1074a2351.1 2351.1 0 0 1-15.6-101c-1-7.7-2.5-16.4 2.7-22 7.3-8 14-14.8 14.8-26.2.8-10.7-2.8-22.4-5-32.8a809.4 809.4 0 0 0-17.3-64.7c-6.6-21.7-13.9-43.2-21.3-64.6-6.9-20-13.5-40.3-22.5-59.5-17-36.5-46-63.5-81.6-81.6-9-4.5-27-20.5-36.3-24-8.5-3.4-8.5 6.3-16.9 2.6-6.7-2.9-13-6.7-16.7-13.2-4-7-14.3-16.9-15.9-25-3.3-17.4.3-32.2-12-45.3a90 90 0 0 0-41.1-23.8c-33.7-9.3-78.5-2.8-98.8 28.5-9.7 14.9-13 33-26.2 45.1-11.4 10.7-8.8 18-23.6 23.4-.9.3-23.6-4.5-24.4-4.2-16.2-3.5-31.7 6.2-46.5 11.8a325.4 325.4 0 0 0-63 32.3 399.2 399.2 0 0 0-102.3 98.5 482.5 482.5 0 0 0-76.4 161c-1.7 6.4-3.5 13-1.5 19.4 1.7 5.3 5.4 9.2 9.8 12.4 6 4.3 18 7 17.7 15.7-.1 6.6-2.4 13.5-3.5 20-1.3 7.7-2.3 15.5-3.4 23.2-4.8 35.4-8.6 71-10.3 106.6a920 920 0 0 0-.5 106c.1 2.3.8 4.5 2 6.2-1 .4-1.2 2.4.1 2.7l2.7.5a12 12 0 0 0 7 2.4l5.5.2c19.3 4 38.6 7.9 58.1 10.8 23.8 3.5 47.6 6.3 71.5 8.7 49.2 4.8 98 3.2 147.1.6a1877 1877 0 0 1 147.4-2c49.2 1.4 98.4 3.5 147.6 4.4 55 1 110-.5 164.8-5 7.5-.5 12.2-6.5 10.7-14-8.9-44.7-19-89.1-27-134Z" fill="#d08b5b"/><path id="shirt" d="m201 597.5 1.2-.4c14.5-5.7 29.6-14.8 45.4-11.4.5-.2 10.8 1.9 17.9 3.2l-6.7 7L247 598c40.7 67.1 88.8 100.7 144.3 100.7 55.5 0 97.7-33.6 126.4-100.7l4-1c.4 0 1 .2 1.5.4 9.3 3.6 27.4 19.6 36.3 24.1 35.6 18 64.5 45 81.6 81.6 8.7 18.6 15.2 38 21.8 57.5l.7 2c7.4 21.4 14.7 43 21.3 64.6 6.3 20.4 12 41 16.6 61.8l.7 2.9c2.2 10.4 5.8 22 5 32.8a29 29 0 0 1-3 10.7l-80.4 29 38.4 261.3c-35.1 1.5-70.3 2-105.5 1.3-49.2-.9-98.4-3-147.6-4.3-47.7-1.2-95.3-.7-143 1.7l-12 .6a946.3 946.3 0 0 1-139.5-1l-3.1-.3v-38.3l16.3-212.9-83-15.6-81.3-39.5a21.7 21.7 0 0 1-5.6-8.8c-1.9-6-.5-12 1-18l.5-1.3a492.8 492.8 0 0 1 76.4-161A399.3 399.3 0 0 1 138 629.7c19.8-13 40.9-23.9 63-32.3Z" fill="#9ddadb"/><path d="M232.2 584.6c5.1-.3 10.3.6 15.4 1 .4.1.6.8 0 .9-9 1.9-18 4.5-26.9 7.1l-3.8 1.2c-10 3-19.8 6-29.6 10-19.4 7.9-37.8 18.5-54.8 30.8C67.2 682.8 20 754.3-9.9 828.3a526 526 0 0 0-24.3 77c-.4 1.6-2 5.4-1 7 .7 1.3 3.6 2.1 5 2.9l4.5 2.3 25.2 12.9 2.3 1.1c38 18.6 78.4 34.4 121 35.5l.4-3.7a342 342 0 0 1 9.9-60c.3-1 1.6-.6 1.7.3 3 23.1 2 46.4 1 69.7-1.8 41-4.3 82.2-6.5 123.3-1.2 20.6-2.6 41-3.9 61.7-1.3 20.5-1.7 41.6-4.7 62-.6 4.6-6 7-10 6.6-4.4-.5-7.9-4.5-8-9 0-11.9 1.5-24 2.4-35.8l2.5-33.8c3.1-41.1 6.8-82.2 10.2-123.3a4771 4771 0 0 1 3.8-43.7C76.4 979.8 34.2 963-6.1 943.5c-.6 13.2-2 26.5-3.4 39.6-3.8 36.8-7.1 73.6-9.6 110.5a2254.2 2254.2 0 0 0-4.2 92.7l-.2 7c0 4.4-.5 8.5-4.3 11.7-3.7 3.3-8.9 3.5-12.6 0-5-4.6-4.2-10.9-4-17.1a1675.6 1675.6 0 0 1 1.8-47.2 1321 1321 0 0 1 10.5-109.5l2-14c3.5-26 7.5-52.7 15.5-77.9-3.1-1.5-6.2-3-9.3-4.7-5.5-2.7-11.2-5.4-16.6-8.4-4.2-2.5-7.9-5.8-9-10.8-1.4-5.5.6-11.5 2-16.9v-.4a502 502 0 0 1 26.6-80 523.2 523.2 0 0 1 67.8-117 353.8 353.8 0 0 1 88.7-83.3 239 239 0 0 1 53.8-25.7 142.6 142.6 0 0 1 42.8-7.5Zm90.1-66c6-6.5 18.1.2 15.2 8.8a108.2 108.2 0 0 1-34.7 52A79.4 79.4 0 0 1 247 598l1.7 2.4a321.1 321.1 0 0 0 46.1 52.6c36 31.2 84.8 48 132 36 37.1-9.4 69.8-38.8 79.4-76.2-1.3.6-3 .9-4.8.5-7.7-1.7-15.3-9.8-20.3-15.6-5.3-6.3-9.5-13-12.6-20.7-5.6-14-7.4-32.1.3-45.7 1-1.7 3-.7 3.3 1l.3 2.5c1.5 12.7 3.3 25 9.3 36.6a76 76 0 0 0 18.2 23.1c2.6 2 5.8 3.6 8.1 6l.5.4c.6-5 4.1-7.3 7.6-7.2 3.3.2 7.3 1.6 8.8 2.3l.1.1a341 341 0 0 1 65.1 42 259 259 0 0 1 88.4 129c7.5 25.3 11.8 51.4 16.3 77.4l2.8 16c4.2 23.9 8.9 48.4 18.4 70.7 2.5 5.7.6 11.1-5.5 13.4A1493 1493 0 0 1 688 953c3.7 16 6 32.5 8.7 48.5 6 34.1 13.2 68 19.4 102 3.2 17.5 6.1 35 9.3 52.3l4.7 25.2 2.4 13.6.1.7c.5 2.4 1 4.9.4 7.3-.8 2.7-2.9 4.6-4.8 6.6-1.6 1.6-3.8 1.6-5.7.7l-.7-.3c-3.4-1.6-6-3.2-7.3-7-.7-2.5-1-5.2-1.5-7.7a3535.6 3535.6 0 0 1-7.8-43.6l-1.6-9.1c-5.2-31.4-10.2-62.9-12.8-94.5-1-14-2.3-28.1-3.5-42.2l-.9-10.5c-1.1-13.3-2.5-27-2.7-40.5l-4.5 1.6L657 964c-5.5 2-12.5 6-18.4 5.2-2.9-.3-5-1.2-6.8-2.9 2 28.8 4.8 57.4 8.5 86a1965.7 1965.7 0 0 0 22 135c.6 3.2 1.4 6.4 1.9 9.6.5 3.7-.5 5.9-2.5 9-1.7 2.4-5 3.7-7.8 2-3.6-2.3-5.5-4.3-6.5-8.4-1-3.7-1.6-7.6-2.3-11.4a1654.2 1654.2 0 0 1-11.4-65.2c-7.8-52-12.7-104.4-15.2-156.8a1388 1388 0 0 1-1.4-77.8c0-13.3.5-26.6 1.4-39.9 1-13.4 3-26.5 4.8-39.8 0-.5.7-.5.7 0 .8 14.9 2.1 29.8 2.8 44.7.6 14.3.9 28.5 1.4 42.8.6 18.7 1.5 37.5 2.7 56.2a9.6 9.6 0 0 1 8.5-3.1c4.7-1 9.7-3.4 14.1-5l16.8-5.5 26.4-8.7a679 679 0 0 1-18-80.8l-2-12.3c-4-24.2-8.5-48.5-15.8-72a229.8 229.8 0 0 0-34.8-68.2 370.2 370.2 0 0 0-52.7-55.3C557 627 539.7 614 523 600c.1.9.2 2 0 3-3.5 25.9-17 50-35.8 67.9-37.7 36-93.6 43.4-142 26.5-46.7-16.3-88-55-102.6-102.8-.3-.8.8-1 1.3-.5l2.4 3.3c0-.4.2-.9.7-1a129 129 0 0 0 46.6-29.2 100.2 100.2 0 0 0 21.3-33.3l.4-1c1.7-5 3.2-10.2 7-14.2Z" fill="#000000"/></g>

        <g id="head" transform="matrix(.99789 0 0 1 156 62)"><path d="M465.939,500.9589 C454.529,447.3989 447.21,393.1489 440.66,338.8289 C437.49,312.5189 434.96,286.1399 432.029,259.8099 C429.29,235.2789 426.099,210.6689 419.699,186.7889 C413.75,164.5989 405.049,142.6289 392.229,123.4699 C380.21,105.5089 365.099,90.1189 347.75,77.2689 C313.469,51.8789 269.629,38.3689 226.99,42.8489 C220.549,43.5289 214.169,44.6189 207.859,46.0789 C209.869,45.4889 211.9,44.9379 213.949,44.4589 C214.609,44.2999 214.316,43.4109 213.669,43.4699 C40.195,59.2309 -0.611,360.9189 -4.321,421.7489 C-4.611,426.4799 -4.84,431.1989 -5.01,435.9289 C-6.311,446.4799 -7.281,457.0599 -7.741,467.6689 C-8.26,479.9089 -8.01,492.2299 -6.881,504.4289 C-5.721,516.9379 -4.401,529.7589 0.82,541.2589 C4.019,548.3389 153.219,538.6399 154.759,530.2789 C157.879,513.3989 159.479,495.9799 158.5,478.8099 C158.04,470.5789 157.189,462.4089 155.429,454.3489 C154.949,452.1489 154.439,448.0189 153.15,444.7489 C166.759,418.8899 181.729,393.7689 197.139,368.9389 C229.21,317.2389 263.309,266.4989 289.519,211.4379 C302.66,183.8489 315.609,154.5499 321.809,124.3189 L322.809,124.5189 C322.689,124.8789 322.769,125.3289 323.129,125.5789 C351.619,145.2689 370.66,175.1089 383,207.0599 C397.369,244.2589 404.339,284.4289 403.339,324.2889 C401.75,387.6289 377.74,465.9089 309.809,485.9289 C294.309,490.4989 277.57,491.7889 261.689,488.4489 C254.199,486.8689 246.859,484.4379 240.099,480.8389 C232.599,476.8489 226.439,471.1989 219.41,466.5499 C212.979,462.2999 205.389,470.5889 209.089,476.8789 C217.259,490.7789 234.839,499.2789 249.939,503.4589 C266.049,507.9289 283.04,508.1399 299.449,505.2999 C300.699,505.0889 301.939,504.8489 303.169,504.5889 C303.449,508.7089 305.219,512.8099 308.099,516.1399 C309.389,517.6399 310.979,518.9379 312.759,520.0289 C312.99,524.0499 315.58,528.0889 319.79,528.9699 C342.279,533.6489 435.679,521.3789 458.139,514.6879 C464.169,512.8899 467.219,506.9799 465.939,500.9589" id="ðŸ–-Ink" fill="#000000"/><path id="skin" d="M407.2772,307.8148 C405.5932,229.2338 386.0142,142.2398 318.8992,93.6798 C314.6242,90.5828 308.2082,92.0828 304.6652,95.6198 C301.7562,96.1878 299.0842,97.9498 297.3072,101.1898 C257.6202,173.6248 215.8412,244.9148 171.9892,314.9068 C143.8332,360.1628 109.6312,405.4758 105.1192,460.3308 C104.3382,461.3678 97.0892,469.5518 101.3132,468.9558 C103.1882,467.9748 105.0972,467.1688 107.1052,466.5728 C112.4672,474.3898 124.9182,473.1608 127.8782,464.3378 C138.1402,464.6328 148.2962,467.2548 158.0732,470.2968 C182.0542,477.8028 206.4272,485.2228 230.9012,490.9598 C311.5272,512.3578 398.1612,485.1328 404.6032,391.1348 C413.2572,378.9418 408.5752,324.5988 407.2772,307.8148 L407.2772,307.8148 Z" fill="#d08b5b"/></g>

        <g id="face" transform="translate(315 248)"><path d="M182.2439,225.9652 L182.935568,225.805218 C188.460204,224.502539 193.7763,222.73084 198.9219,226.1542 C203.8249,229.4152 204.5059,235.4472 200.6859,239.8472 C196.759696,244.370955 191.543789,244.117821 186.039297,244.179866 L185.6949,244.1842 C181.1239,244.2472 176.4769,244.1792 171.9239,243.7742 C167.6795,243.3962 163.40756,242.79221 159.211598,241.999409 L156.7304,241.51302 C154.195197,240.999997 151.698275,240.3327 150.3919,237.8792 C148.1139,233.6022 165.0459,230.2462 167.1029,229.6592 C172.0949,228.2342 177.1809,227.1122 182.2439,225.9652 Z M191.634193,174.394641 C188.935096,177.193987 185.36999,179.105754 181.367913,180.295732 C171.30965,183.286456 158.475622,181.693303 150.260436,178.645782 C148.556171,178.013644 146.963437,176.725048 146.048312,175.11365 C145.212412,173.641759 144.929477,171.91077 145.565716,170.145361 C145.746918,169.643897 145.967267,169.151539 146.18863,168.666648 C146.791277,167.347561 148.019458,166.321346 149.46204,165.734482 C150.960207,165.125004 152.663865,165.000599 154.030205,165.430262 C154.213756,165.487988 154.402027,165.547335 154.594782,165.608097 C159.799869,167.24887 168.337051,169.966044 175.409899,169.439413 C179.653911,169.123412 183.386915,167.62397 185.317652,163.740235 C186.335149,161.692395 186.053343,159.667058 185.150862,157.812727 C183.790166,155.016898 181.064689,152.584134 178.768455,150.90779 C175.531656,148.544107 172.079313,147.600482 168.508515,146.60419 C167.163013,146.22878 165.800236,145.848174 164.424715,145.392793 C163.971448,145.243158 163.574107,144.949174 163.276585,144.567009 C162.982731,144.189555 162.789851,143.72864 162.72939,143.266187 C162.666777,142.787275 162.744136,142.309698 162.966096,141.898081 C163.171987,141.516264 163.501275,141.180912 163.99334,140.960603 C170.979515,137.830669 180.015055,139.898917 186.834896,144.822934 C190.243367,147.283895 193.08628,150.445245 194.838513,153.977859 C196.46466,157.256278 197.155548,160.853243 196.518445,164.521349 C195.805094,168.627862 194.066972,171.871505 191.634193,174.394641 Z M77.1362,104.5549 C79.0992,103.6899 80.7122,107.7389 81.1162,108.8429 L81.9517138,111.133296 C83.3146459,114.826319 84.879269,118.580934 87.7452,121.3219 C90.1442,123.6169 93.9882,125.5619 96.7712,122.8769 C99.4112,120.3299 98.1242,117.4609 98.5132,114.3359 C99.2152,108.6839 106.9222,103.0349 111.5562,108.9329 C122.0242,122.2589 105.8282,140.7909 90.9102,137.5399 C83.3233034,135.885917 77.2160347,129.802709 74.7069246,122.568683 L74.5782,122.1869 C73.0762,117.6039 71.5572,107.0159 77.1362,104.5549 Z M212.219928,113.835683 L212.1476,113.6667 C207.1616,102.3257 224.9476,97.4517 226.4556,107.6347 L226.551051,108.321775 C228.017921,119.626038 224.92704,134.8277 211.0816,135.9547 C195.5396,137.2207 189.0676,119.8797 190.4556,107.1547 C190.7046,104.8767 193.4686,104.5617 194.3226,106.6317 L194.504313,107.083458 C197.013691,113.478563 199.396659,125.777394 208.2386,125.7647 C214.145986,125.755829 213.864071,117.781513 212.219928,113.835683 L212.219928,113.835683 Z M223.4962,81.0054 C232.4302,80.6884 232.4182,94.6704 223.4962,94.8804 C193.6942,95.5814 163.8692,96.5134 134.0582,96.6734 L128.639761,96.706498 C100.637912,96.8941456 72.5399273,97.2767636 44.6202,94.9264 C42.2372,94.7264 42.6802,91.3804 44.6712,91.5154 C73.9422,87.3494 103.5702,86.1314 133.0642,84.5484 C163.1812,82.9314 193.3562,82.0754 223.4962,81.0054 Z" id="ðŸ–-Ink" fill="#000000"/></g>

        <g id="facial-hair" transform="translate(279 400)"></g>

        <g id="eyewear" transform="translate(203 303)"><path d="M398.9346,13.2313 C398.1116,13.0943 397.2876,12.9653 396.4636,12.8443 C395.8206,12.4793 395.0656,12.1983 394.1876,12.0293 C392.1826,11.5203 390.1916,11.1773 388.2036,10.9923 C359.6716,4.5713 293.6646,13.6883 290.9406,38.0363 C281.8546,41.0693 273.9926,38.3533 263.4616,38.6233 C255.4456,5.1183 116.8626,9.8473 110.1976,30.0473 C110.1726,30.0403 110.1476,30.0343 110.1216,30.0263 C103.7176,28.0443 94.2766,28.5223 86.9466,28.2083 C71.2956,27.8803 55.6266,29.2753 40.3136,32.5763 C11.6386,37.1333 -27.4964,42.4683 -7.5534,78.2763 C-7.5494,78.2823 -7.5464,78.2893 -7.5414,78.2953 L-7.5384,78.2923 C-4.1014,81.8153 1.7316,78.9783 1.9486,74.2093 C-4.7564,57.2453 10.3876,55.2083 22.0396,50.3333 C51.0326,39.9173 80.5506,38.4733 110.5366,41.6953 C112.7926,44.3513 116.2156,46.6673 119.8336,47.8793 C139.8826,51.2073 129.3166,66.0793 141.9896,68.2423 C139.6616,120.0843 202.6026,148.3823 239.0716,114.3033 C253.6326,100.0673 257.1036,78.9783 260.4796,59.9693 C262.2646,59.5683 263.3996,58.5923 264.0626,57.3003 C268.3556,53.0143 271.0526,49.0563 279.5416,47.8793 C288.0306,46.7033 294.5656,49.0643 295.4496,49.7873 C295.6726,50.2363 295.9116,50.6863 296.1896,51.1363 C296.5776,51.8073 297.1056,52.3423 297.7056,52.7633 C289.3226,104.3873 329.3996,137.0353 369.8586,110.2603 C387.4386,93.7233 391.1536,68.4053 391.8876,45.8073 C394.2706,44.3693 395.7796,41.5823 394.9546,38.0783 C393.8176,33.2483 396.4836,29.0663 400.7296,26.9663 C406.2466,24.2393 405.2706,14.2803 398.9346,13.2313 M225.086988,37.7223618 C220.065054,36.6178235 217.920374,44.3606372 222.95832,45.4681879 C226.525804,46.252514 229.549376,48.0515396 231.592155,51.0993468 L231.807252,51.4306867 C234.548399,55.792609 241.479828,51.7660647 238.719666,47.3760269 C235.614234,42.4357281 230.788453,38.9755108 225.086988,37.7223618 Z M372.1732,32.9216366 C370.402814,31.6745124 367.723715,32.6003163 366.69591,34.362557 C365.564701,36.303111 366.306135,38.4637159 367.964208,39.7331967 L368.133036,39.8571332 C369.653907,40.9290575 371.135119,42.8505012 371.321131,44.8192514 L371.337546,45.0655335 C371.536702,50.2177028 379.543974,50.24381 379.343817,45.0655335 C379.148664,39.999719 376.215367,35.767329 372.1732,32.9216366 Z" id="ðŸ–-Ink" fill="#000000"/></g>
    </g>
</svg>