<svg xmlns="http://www.w3.org/2000/svg" viewBox="0 0 704 704" fill="none" width="512" height="512">
    <desc>"Open Peeps" by "Pablo Stanley", licensed under "CC0 1.0". / Remix of the original.</desc>
    <mask id="viewbox"><rect width="704" height="704" rx="0" ry="0" x="0" y="0" fill="#ffffff" /></mask>
    <g mask="url(#viewbox)">
        <rect id="background" fill="#d1d4f9" width="704" height="704" x="0" y="0" />

        <g id="body"><path id="skin" d="M705.3 1074a2351.1 2351.1 0 0 1-15.6-101c-1-7.7-2.5-16.4 2.7-22 7.3-8 14-14.8 14.8-26.2.8-10.7-2.8-22.4-5-32.8a809.4 809.4 0 0 0-17.3-64.7c-6.6-21.7-13.9-43.2-21.3-64.6-6.9-20-13.5-40.3-22.5-59.5-17-36.5-46-63.5-81.6-81.6-9-4.5-27-20.5-36.3-24-8.5-3.4-8.5 6.3-16.9 2.6-6.7-2.9-13-6.7-16.7-13.2-4-7-14.3-16.9-15.9-25-3.3-17.4.3-32.2-12-45.3a90 90 0 0 0-41.1-23.8c-33.7-9.3-78.5-2.8-98.8 28.5-9.7 14.9-13 33-26.2 45.1-11.4 10.7-8.8 18-23.6 23.4-.9.3-23.6-4.5-24.4-4.2-16.2-3.5-31.7 6.2-46.5 11.8a325.4 325.4 0 0 0-63 32.3 399.2 399.2 0 0 0-102.3 98.5 482.5 482.5 0 0 0-76.4 161c-1.7 6.4-3.5 13-1.5 19.4 1.7 5.3 5.4 9.2 9.8 12.4 6 4.3 18 7 17.7 15.7-.1 6.6-2.4 13.5-3.5 20-1.3 7.7-2.3 15.5-3.4 23.2-4.8 35.4-8.6 71-10.3 106.6a920 920 0 0 0-.5 106c.1 2.3.8 4.5 2 6.2-1 .4-1.2 2.4.1 2.7l2.7.5a12 12 0 0 0 7 2.4l5.5.2c19.3 4 38.6 7.9 58.1 10.8 23.8 3.5 47.6 6.3 71.5 8.7 49.2 4.8 98 3.2 147.1.6a1877 1877 0 0 1 147.4-2c49.2 1.4 98.4 3.5 147.6 4.4 55 1 110-.5 164.8-5 7.5-.5 12.2-6.5 10.7-14-8.9-44.7-19-89.1-27-134Z" fill="#694d3d"/><path id="shirt" d="m201 597.5 1.2-.4c14.5-5.7 29.6-14.8 45.4-11.4.5-.2 10.8 1.9 17.9 3.2l-6.7 7L247 598c40.7 67.1 88.8 100.7 144.3 100.7 55.5 0 97.7-33.6 126.4-100.7l4-1c.4 0 1 .2 1.5.4 9.3 3.6 27.4 19.6 36.3 24.1 35.6 18 64.5 45 81.6 81.6 8.7 18.6 15.2 38 21.8 57.5l.7 2c7.4 21.4 14.7 43 21.3 64.6 6.3 20.4 12 41 16.6 61.8l.7 2.9c2.2 10.4 5.8 22 5 32.8a29 29 0 0 1-3 10.7l-80.4 29 38.4 261.3c-35.1 1.5-70.3 2-105.5 1.3-49.2-.9-98.4-3-147.6-4.3-47.7-1.2-95.3-.7-143 1.7l-12 .6a946.3 946.3 0 0 1-139.5-1l-3.1-.3v-38.3l16.3-212.9-83-15.6-81.3-39.5a21.7 21.7 0 0 1-5.6-8.8c-1.9-6-.5-12 1-18l.5-1.3a492.8 492.8 0 0 1 76.4-161A399.3 399.3 0 0 1 138 629.7c19.8-13 40.9-23.9 63-32.3Z" fill="#9ddadb"/><path d="M232.2 584.6c5.1-.3 10.3.6 15.4 1 .4.1.6.8 0 .9-9 1.9-18 4.5-26.9 7.1l-3.8 1.2c-10 3-19.8 6-29.6 10-19.4 7.9-37.8 18.5-54.8 30.8C67.2 682.8 20 754.3-9.9 828.3a526 526 0 0 0-24.3 77c-.4 1.6-2 5.4-1 7 .7 1.3 3.6 2.1 5 2.9l4.5 2.3 25.2 12.9 2.3 1.1c38 18.6 78.4 34.4 121 35.5l.4-3.7a342 342 0 0 1 9.9-60c.3-1 1.6-.6 1.7.3 3 23.1 2 46.4 1 69.7-1.8 41-4.3 82.2-6.5 123.3-1.2 20.6-2.6 41-3.9 61.7-1.3 20.5-1.7 41.6-4.7 62-.6 4.6-6 7-10 6.6-4.4-.5-7.9-4.5-8-9 0-11.9 1.5-24 2.4-35.8l2.5-33.8c3.1-41.1 6.8-82.2 10.2-123.3a4771 4771 0 0 1 3.8-43.7C76.4 979.8 34.2 963-6.1 943.5c-.6 13.2-2 26.5-3.4 39.6-3.8 36.8-7.1 73.6-9.6 110.5a2254.2 2254.2 0 0 0-4.2 92.7l-.2 7c0 4.4-.5 8.5-4.3 11.7-3.7 3.3-8.9 3.5-12.6 0-5-4.6-4.2-10.9-4-17.1a1675.6 1675.6 0 0 1 1.8-47.2 1321 1321 0 0 1 10.5-109.5l2-14c3.5-26 7.5-52.7 15.5-77.9-3.1-1.5-6.2-3-9.3-4.7-5.5-2.7-11.2-5.4-16.6-8.4-4.2-2.5-7.9-5.8-9-10.8-1.4-5.5.6-11.5 2-16.9v-.4a502 502 0 0 1 26.6-80 523.2 523.2 0 0 1 67.8-117 353.8 353.8 0 0 1 88.7-83.3 239 239 0 0 1 53.8-25.7 142.6 142.6 0 0 1 42.8-7.5Zm90.1-66c6-6.5 18.1.2 15.2 8.8a108.2 108.2 0 0 1-34.7 52A79.4 79.4 0 0 1 247 598l1.7 2.4a321.1 321.1 0 0 0 46.1 52.6c36 31.2 84.8 48 132 36 37.1-9.4 69.8-38.8 79.4-76.2-1.3.6-3 .9-4.8.5-7.7-1.7-15.3-9.8-20.3-15.6-5.3-6.3-9.5-13-12.6-20.7-5.6-14-7.4-32.1.3-45.7 1-1.7 3-.7 3.3 1l.3 2.5c1.5 12.7 3.3 25 9.3 36.6a76 76 0 0 0 18.2 23.1c2.6 2 5.8 3.6 8.1 6l.5.4c.6-5 4.1-7.3 7.6-7.2 3.3.2 7.3 1.6 8.8 2.3l.1.1a341 341 0 0 1 65.1 42 259 259 0 0 1 88.4 129c7.5 25.3 11.8 51.4 16.3 77.4l2.8 16c4.2 23.9 8.9 48.4 18.4 70.7 2.5 5.7.6 11.1-5.5 13.4A1493 1493 0 0 1 688 953c3.7 16 6 32.5 8.7 48.5 6 34.1 13.2 68 19.4 102 3.2 17.5 6.1 35 9.3 52.3l4.7 25.2 2.4 13.6.1.7c.5 2.4 1 4.9.4 7.3-.8 2.7-2.9 4.6-4.8 6.6-1.6 1.6-3.8 1.6-5.7.7l-.7-.3c-3.4-1.6-6-3.2-7.3-7-.7-2.5-1-5.2-1.5-7.7a3535.6 3535.6 0 0 1-7.8-43.6l-1.6-9.1c-5.2-31.4-10.2-62.9-12.8-94.5-1-14-2.3-28.1-3.5-42.2l-.9-10.5c-1.1-13.3-2.5-27-2.7-40.5l-4.5 1.6L657 964c-5.5 2-12.5 6-18.4 5.2-2.9-.3-5-1.2-6.8-2.9 2 28.8 4.8 57.4 8.5 86a1965.7 1965.7 0 0 0 22 135c.6 3.2 1.4 6.4 1.9 9.6.5 3.7-.5 5.9-2.5 9-1.7 2.4-5 3.7-7.8 2-3.6-2.3-5.5-4.3-6.5-8.4-1-3.7-1.6-7.6-2.3-11.4a1654.2 1654.2 0 0 1-11.4-65.2c-7.8-52-12.7-104.4-15.2-156.8a1388 1388 0 0 1-1.4-77.8c0-13.3.5-26.6 1.4-39.9 1-13.4 3-26.5 4.8-39.8 0-.5.7-.5.7 0 .8 14.9 2.1 29.8 2.8 44.7.6 14.3.9 28.5 1.4 42.8.6 18.7 1.5 37.5 2.7 56.2a9.6 9.6 0 0 1 8.5-3.1c4.7-1 9.7-3.4 14.1-5l16.8-5.5 26.4-8.7a679 679 0 0 1-18-80.8l-2-12.3c-4-24.2-8.5-48.5-15.8-72a229.8 229.8 0 0 0-34.8-68.2 370.2 370.2 0 0 0-52.7-55.3C557 627 539.7 614 523 600c.1.9.2 2 0 3-3.5 25.9-17 50-35.8 67.9-37.7 36-93.6 43.4-142 26.5-46.7-16.3-88-55-102.6-102.8-.3-.8.8-1 1.3-.5l2.4 3.3c0-.4.2-.9.7-1a129 129 0 0 0 46.6-29.2 100.2 100.2 0 0 0 21.3-33.3l.4-1c1.7-5 3.2-10.2 7-14.2Z" fill="#000000"/></g>

        <g id="head" transform="matrix(.99789 0 0 1 156 62)"><path id="skin" d="M434.8 366.8c-17-76.6-20.2-160.8-64.8-227.6-19.5-27.3-50.8-62.9-87.4-51.6 1.5-16.2 3-32.3 4.3-48.5.7-9.3 4.2-21.6-3.6-28.7C270.3 0 249 16 239 25c-21.7 20.7-30.2 40.8-58.7 54.6C169 71.4 157.7 63 146.2 55c-11.9-8-28.8-21.1-41-6.2-10.4 12.6-3.8 32.5.4 46.4 2 7 4.2 14.8 7 22.1.3 5.6.8 11.1 1.4 16.7-21.1 3.7-42.8 6.9-63 14.3-11 6-10 19.4-2.2 27.5a121.6 121.6 0 0 0 42.5 26.1c-2.9 10.2-10 18.8-18.7 24.4-3 1.9-4.7 4.6-5.3 7.5a59.2 59.2 0 0 1-14.4 5c-6.4 1.3-10 8.7-8.4 14.6 4.6 14.4 20.8 6.2 31.3 5.2.3 10 .4 20.5 5 29.8-24.4 6.4-45.5 29.8-39.9 56 5.1 25.2 32.3 32.9 53.8 38.6 1.6 1 1.6 1.9 2 4.3 3.6 16.3.7 34.2-5 49.6-1.5 4.3.8 9.5 4.2 12 17.5 11.2 23.3-22.7 43.2-1.1-1.5-.2-5.2-2-5 .6 25.9 45.4 102.2 48.2 149 49.3 5.7 2.7 12.1 1.2 18.5-.6 6.2-.3 12.3-.8 18.4-1.4 11.1-2 30.8.4 31.5-15.3 28.8-11.4 53.5-31 70.4-57a67.3 67.3 0 0 0 12.9-56.5Z" fill="#694d3d"/><path id="hair" d="M97.9 411a68.5 68.5 0 0 0 15 33l-.5.2-.5.3c-4 2-8 3-11.6 0-3.2-2.8-1.8-8.4-1.5-12.2V431l.3-2.9v-1.2c.3-3.8.4-7.6-.6-11.1-.2-.7-.6-1.1-1-1.4 0-1 .2-1.8.3-2.8v-.5ZM72.6 226.2c-2.7 10-4.5 20-5.6 30.3-3 0-6 .4-9-.3-2.1-.5-4-1.3-5.9-2.3-.6-.4-1.5-1.4-2.3-1.8 1.6-1 3.6-4.3 4.9-5.6 2-2 4-4 6.2-5.8 2.8-2.5 9.1-5.7 9.7-9.6 0-.2 0-.4-.2-.5-.6-.3-1-.5-1.6-.5.8-1.4 2-2.6 3.4-3.7l.4-.2Zm56.7-172.4.5.2 2.3 1.2a807 807 0 0 1 43.5 24.3c.9.4 2-.6 1.4-1.4l-1.3-1.9.2.2c1.6 1.2 4.2 3.8-.6 7.3-11.6 8.3-22 18.2-31.8 28.4a239.8 239.8 0 0 0-39.2 53.2 131 131 0 0 0-21.5 33l-5-2.3c1.3-.2 2.5-.7 4-1.6l.4-.2.7-.4c2.3-1.3 3-5 .8-6.8-1.8-1.6-2.6-2.9-5-3.7-2.2-.7-4.4-1-6.6-1.6a45 45 0 0 1-22.2-14.5l-.7-.8-.6-.9c-1.3-1.6-2.8-3.7-2-5.5.8-1.7 4.5-3.7 6.2-4.7l1-.6c17.2-10.6 37.1-12 56.4-16.3.7-.1.5-1.2-.2-1.3-3.6-.3-7.1-.5-10.7-.6l14.7-2.6-.8-8.4c2.2 1.8 5.1 2.4 9.2.3 3.3-1.7 4.4-6 3-9.3-.4-1-1-2-1.8-2.6l-.2-.2L121 103l-5.3-24-.1-.8-.2-.7-1-4.2c-2-7.8-4.1-18.4 2.6-22 3.8-2.1 8.7.8 12.3 2.6Zm149.5-35.2.1.7.4 1.7a150.7 150.7 0 0 1 1 50.3c-.5 4.5-1.8 9-2.1 13.6-1.4 1.7-2.7 3.6-4.1 5.2-3.8 4.2-8.4 7.4-14.2 7.4-11.3.2-20.7-8.6-31.6-10.5h-.7c-1.8-.4-16.1-4.1-14.4-10.3l.1-.3a5 5 0 0 0-1.3-5 8 8 0 0 0-2-1.4c11-19.6 25.9-36.3 46.2-47.3l2.8-1.5 1.5-.8c4.7-2.3 10-4.8 14.8-5.2 2.5-.2 3 1.4 3.5 3.4Z" fill="#debe99"/><path d="m260.2 4.7 1.6-.8C267.6 1.4 274-1 280.3.4c7.3 1.6 11.5 7.9 13.3 14.7 2.1 8 3 16.4 3.6 24.5.6 8.5.4 17-.2 25.4-.6 7-1.7 15.2-4.3 22l.4-.2c10.4-1 19.9-.4 29.8 3 9.2 3 18 7.4 26 12.9a128 128 0 0 1 40 48.3c19 37.7 23 80.4 28.3 121.6l.1 1.3c2.9 22 6.7 43.8 12.8 65.2l1 3.6c5.6 19.6 9 38.6 4.5 58.9-8.6 39.2-39 68.7-74 85.8a228 228 0 0 1-57 18.9c-20 3.8-41.8 4.4-60.1-6-9-5.1-1-18.3 8-13.8 19 9.2 40.5 6.2 60.1 1 19.6-5 38.8-12 56-22.5 29.8-18 54.8-49 55.7-85.1.4-20.3-8.3-39.7-12.4-59.3-3.7-17.2-6-34.7-8.2-52.3l-1.6-13c-4.6-37.3-10.4-75.7-29.6-108.7a120 120 0 0 0-80-58.6c-1 5.5-7 10.6-11 13.8a30.3 30.3 0 0 1-19.5 7.6c-14-.2-26-11.1-35.6-20.2-1.1-1 0-2.5 1.3-2.3 11.1 1.7 20.7 10.7 32.1 10.6 6 0 10.4-3.2 14.3-7.4 1.4-1.6 2.7-3.5 4-5.2.4-4.6 1.7-9 2.3-13.6.5-4.3 1-8.6 1.2-12.9a150.7 150.7 0 0 0-2.3-37.4l-.4-1.7c-.5-2.3-.8-4.3-3.6-4.1-6.1.5-13 4.2-18.3 7A116.4 116.4 0 0 0 210 70a8 8 0 0 1 2 1.4 5 5 0 0 1 1.3 5c-2.2 6.5-10.1 6.7-15.7 9.2-6 2.8-11.8 6.4-17.2 10.3a252.8 252.8 0 0 0-29.6 26 630.9 630.9 0 0 0-41.3 45.9l-2.8 6.2a237.3 237.3 0 0 0-21.3 84.6c-.6 10 .8 20 .7 30 .9 1.7 1.2 3.6.8 5.5 2.8.8 5.5 2 8 3.6.7.4.3 1.4-.4 1.2-3.3-.8-6.5-1-9.7-.6a9 9 0 0 1-7 3.3h-1.1c-.9 0-1.7-.2-2.5-.4a41.2 41.2 0 0 0-23.8 40 33.3 33.3 0 0 0 17.2 28c4.6 2.5 9.7 3.8 15 4 5 0 11.7-1.5 15.8 1.8.5.3.8.8 1 1.4l.9-3.7c.2-1 1.8-1 2 0l.2 1.4c3.5 19.5 4.7 39.7 18.5 55.4 6.5 7.3 14.3 14 22.2 19.5l1.4 1c3.4 2.3 7 4.6 11.1 5.4 4.5 1 8.3.7 12.4 3.2 2 1.2 3.2 3.7 2.5 6-4.7 14.3-22.8 7.9-32 2.2-5-3.1-10-7-14.6-11.2a36 36 0 0 1-13 4.7c-6.2 1-13-.4-18-4.5a18.1 18.1 0 0 1-6.2-17.2c.4-3.3 1.3-6.6 2.2-9.8l.8-2.6c1.1-3.8 2-7.8 4.2-11.1 1.2-1.7 3.9-1.5 4.5.6 1.3 4.8.7 10.2.4 15.2l-.1 1.2c-.2 3.7-1.8 9.5 1.5 12.3 4 3.4 8.3 1.8 12.5-.5l-1.2-1.6A74.6 74.6 0 0 1 98.2 382c-3.5 4.6-12.8 5.6-17.7 5.3-7.7-.6-15.2-3-21.8-7A47.6 47.6 0 0 1 37 340.4 48.5 48.5 0 0 1 56.5 300c3.4-2.4 7.2-4.3 11-5.5-1.8-7.6-2-16-1.6-24.3a31 31 0 0 1-13.7-1.6l-.7-.2c-6.4-2.3-14.5-7-15.7-14.1-1.5-8.9 9.4-14 15.8-17.5 3-1.7 6-3.2 9.1-4.5l1-.4c2.7-1 5.9-3 8.6-1.4.2 0 .3.3.2.5-.5 3.8-6.8 7.1-9.6 9.5a106 106 0 0 0-6.2 5.9c-1.3 1.3-3.3 4.6-5 5.6.8.4 1.8 1.3 2.4 1.7 1.8 1.1 3.7 1.9 5.8 2.3 3 .8 6 .5 9.1.4 1.3-12.1 3.5-24 7.1-35.6 6-19.6 16-40.2 30.2-55.6a239.8 239.8 0 0 1 39.2-53.2 237.6 237.6 0 0 1 31.7-28.4c5.1-3.7 10.5-7 16.2-9.7l2-.8c3-1.5 7-3.4 10.6-4a98.4 98.4 0 0 1 56.1-64.6ZM71.2 333a49 49 0 0 1 31.2-7.7 58 58 0 0 1 15.9 3.7l2 .8c5 2 10.1 4.3 10.3 10.2 0 2.3-1.7 4.2-3.7 4.9-5 1.8-9.2-2.5-13.3-4.7a59.8 59.8 0 0 0-13.3-5c-.5 0-1-.2-1.4-.3.3.5.4 1 .4 1.6-.1 1.4-.5 2.4-1 3.7 0 .4-.3 2.8-.6 3l.1 2.4c0 2.5-.2 4.5-1.5 6.6-3 5.3-11.8 5.8-14.7 0-3-5.8-.6-11.5 3.8-15.6 1.2-1.2 2.8-2.3 4.6-3.1-6.2-.6-12.4-.3-18.6.5-.6 0-.7-.8-.3-1Zm.5-194.7c12.5-2.1 25.6-2.6 38.3-1.3.6 0 1 1.1.1 1.3C91 142.6 71 144 53.8 154.6l-.8.5c-1.7 1-5.6 3-6.4 5-1 2.1 1.6 5 2.8 6.5a45 45 0 0 0 22.6 15c2.2.7 4.5 1 6.6 1.7 2.5.8 3.3 2 5.1 3.7 2.2 1.9 1.4 5.5-.9 6.8l-.6.4c-3 1.7-4.7 2.2-8.5 1.6a58.1 58.1 0 0 1-23-11.2l-.6-.6c-7.8-6.4-21-20.4-12.3-30.6 7.7-9 22.7-13.1 33.9-15Zm30.8-97.2c12-14.2 29-4.5 41.1 4 13 9 24.3 19.8 33.4 32.8.6.9-.6 1.9-1.4 1.4A807 807 0 0 0 132.1 55l-2.3-1c-3.7-1.9-8.9-5.2-12.8-3-8.3 4.6-3.2 19.7-1.4 27l.1.7 5.3 24 2.4 10.9a7 7 0 0 1 2 2.8c1.4 3.2.3 7.5-3 9.2-9.7 5-13-4.7-14.8-12l-4.5-17.8-2.5-9.9c-3.8-14.8-9.1-31.8 2-44.8Z" fill="#000"/></g>

        <g id="face" transform="translate(315 248)"><path d="M182.1622,217.944437 C175.818663,214.891576 168.562915,215.102951 161.910567,217.121951 C154.03688,219.51384 147.064604,224.482123 140.860171,229.770792 C138.438967,231.835486 136.138367,234.165912 133.828649,236.509296 C130.894803,239.485903 127.950312,242.491794 124.681533,244.928994 C125.759686,235.746126 132.203294,226.420872 137.736988,219.676305 C144.526239,211.402689 153.979675,204.697403 164.199975,201.453875 C175.083531,197.999299 186.314125,199.898229 195.128036,205.507146 C203.861286,211.064732 210.223033,220.269827 211.504761,231.527047 C211.774243,233.891831 210.668892,236.056124 209.028966,237.696192 C207.115883,239.609439 204.42973,240.8686 201.9249,240.8686 C199.368586,240.8686 197.101844,239.838852 195.42024,238.197563 C193.656431,236.47604 192.530626,234.087169 192.369622,231.492058 C192.261561,228.726514 191.620729,226.303933 189.296796,223.385913 C187.735495,221.427351 184.80054,219.214173 182.1622,217.944437 Z M198.289023,121.302437 C195.656533,122.259375 192.599047,124.569715 191.710195,127.099885 C191.514526,127.656869 191.40461,128.226372 191.395602,128.803012 C190.538647,127.061656 190.212556,125.011272 190.324278,122.981997 C190.679012,116.535999 196.82653,111.857577 202.064082,109.12393 C203.924833,108.152235 205.836884,107.506728 207.742297,107.167059 L214.488223,105.964497 L208.154558,103.349469 C202.31398,100.938025 196.837197,97.6208236 191.949853,93.5603152 C187.280917,89.6840017 182.965124,84.6709279 180.43174,79.1394691 C179.287901,76.6413595 178.390185,74.1975806 177.760365,71.5575861 L177.59164,70.8159761 C177.282284,69.3937416 176.944139,68.6683942 176.564256,67.8635422 C176.341356,67.3912885 176.09902,66.8827497 175.838811,66.0559331 C175.692498,65.5916806 175.610879,65.2029977 175.747041,64.9001748 C175.878784,64.607182 176.199149,64.4814402 176.511634,64.3631984 C178.579255,63.5808277 181.909292,64.1138616 183.323945,64.6792237 C186.742779,66.0458477 189.747436,69.0253172 192.639666,71.8157105 C194.050989,73.17734 195.433013,74.5077822 196.805837,75.6457894 C205.565186,82.9076312 216.497853,87.0394119 227.182029,88.0470266 L227.824109,88.1038551 C230.649571,88.3357746 233.269433,89.4485909 235.126022,91.3051798 C236.785791,92.9649481 237.8103,95.2228621 237.8103,97.9271 C237.8103,100.560935 236.62542,103.09701 234.784213,104.938218 C233.025905,106.696525 230.647626,107.835792 228.065569,107.74437 C226.251755,107.679695 224.451489,107.517189 222.663749,107.277794 L216.013678,106.387288 L221.090813,110.773533 C222.098475,111.644073 223.046122,112.643248 223.898326,113.802966 C228.524863,120.102548 230.510624,129.706096 230.338796,137.415564 C230.306023,138.88694 229.89962,140.404563 229.149522,141.712128 C228.494434,142.854073 227.573409,143.839781 226.386092,144.454888 C224.964585,145.192549 223.761821,145.585972 222.143076,145.617485 C220.383092,145.652008 218.892245,145.095102 217.667233,144.162492 C216.135221,142.996161 215.009659,141.275569 214.236753,139.398835 C213.209573,136.903356 213.148424,134.267566 213.046868,131.633051 C212.976688,129.812501 212.900838,127.988516 212.597392,126.191155 C212.164848,123.896013 211.126973,120.971497 209.8177,120.048188 C207.884841,118.683758 202.742435,119.734442 199.548914,120.850555 L198.289023,121.302437 Z M170.814304,144.367155 C178.365682,148.9572 189.871664,159.660291 181.748119,171.039573 C172.185929,181.073062 158.418535,169.568982 151.634201,164.366134 C145.343449,160.333898 138.275437,170.704507 144.112,175.412823 C193.135736,211.708059 213.030606,145.567387 174.633685,138.970386 C170.406047,138.243425 168.835891,142.947174 170.814304,144.367155 Z M117.253343,129.795878 C115.189697,127.467877 113.180038,125.297848 110.07553,124.062087 C106.402731,122.597901 101.952364,122.440575 98.131967,123.537565 C93.8004021,124.781227 90.3708449,127.652701 87.8300313,131.320509 C85.5977411,134.542946 84.060359,138.378485 83.1837539,142.160566 C81.5474246,140.363486 80.7821931,138.285389 80.4127514,136.171348 C79.8045273,132.69093 80.2355568,129.104548 81.4217683,125.693847 C84.0626538,118.100538 90.4248164,111.34976 97.8433211,108.444142 C106.31361,105.126417 116.794138,106.23401 124.575076,110.905386 C128.544708,113.289788 133.120212,117.426725 135.424805,121.473358 C136.999069,124.238731 137.089932,127.101893 136.089237,129.561518 C134.987724,132.268945 132.610787,134.467746 129.576036,135.571451 C128.13846,136.094533 126.658808,136.052665 125.254893,135.681478 C123.427923,135.198437 121.720911,134.166802 120.328796,132.965095 C119.168854,131.965121 118.201916,130.865965 117.253343,129.795878 Z M129.909364,81.906319 C128.170956,84.2324165 125.610528,85.4209854 122.942935,85.5457851 C122.669402,85.558582 122.395948,85.5601377 122.123521,85.5503249 C121.951466,85.7482134 121.759318,85.9668681 121.533596,86.2239105 C121.012719,86.8170628 120.671442,87.2065182 120.316454,87.5845152 C119.034154,88.9500438 117.685984,90.25357 116.281192,91.4937762 C113.152795,94.257709 109.783274,96.6822042 106.138989,98.7165833 C99.7555839,102.282667 92.7546136,105.064062 85.5557623,106.391751 C78.4120992,107.708864 71.3603807,108.113738 64.1668449,107.081931 L62.4220059,106.831235 C58.2665484,106.222436 52.8193479,105.428061 49.4069952,102.854398 C50.7508377,102.426295 52.1121415,102.405375 53.440212,102.346646 C54.3142587,102.307994 55.1826477,102.268832 56.0294255,102.191391 C60.0554707,101.82548 63.9678503,101.157258 67.8658041,100.078158 C75.4430494,97.9813426 82.3096312,95.0855504 88.9994876,90.9352762 C95.5585767,86.8675282 101.581523,81.3311727 106.37991,75.2665777 L106.954901,74.5312102 C107.199882,74.2145892 107.441158,73.8992955 107.680714,73.5862338 C109.643457,71.0212404 111.4463,68.5768669 114.495745,66.9492162 C116.912021,65.6602396 119.357112,65.3118666 121.708053,65.6827776 C124.435778,66.1131342 127.025507,67.486486 129.320578,69.4081583 C131.017757,70.8289556 131.803161,72.8749261 131.928138,74.9733664 C132.07516,77.4419375 131.323839,80.0132766 129.909364,81.906319 Z" id="ðŸ–-Ink" fill="#000000"/></g>

        <g id="facial-hair" transform="translate(279 400)"><path d="M248.1317,111.7235 C244.6417,110.5815 241.2137,109.2525 237.7697,107.9715 C220.1607,99.1265 198.8897,97.5225 180.4227,104.9715 C171.3587,108.6275 162.9067,115.1965 153.8117,119.5015 C151.6517,120.3075 149.4737,121.0395 147.2717,121.6535 C145.9217,121.1835 144.5717,120.6835 143.2317,120.1835 C133.5847,116.5475 124.5107,112.0625 115.7007,107.1285 C114.7607,105.8055 113.7857,104.5195 112.7377,103.2845 C119.1127,102.3795 125.3547,100.8755 131.0017,99.3235 C148.3417,94.5735 164.6817,86.8335 181.9617,81.8735 C198.0517,77.2435 215.5117,74.7135 231.6717,80.4635 C239.3417,83.1935 246.0917,87.9735 253.5517,91.1935 C257.4117,92.8535 262.0417,94.4835 266.5517,94.7235 C263.6417,101.6935 259.9617,108.2035 254.9317,113.6235 C252.6317,113.1335 250.3517,112.4435 248.1317,111.7235 Z M285.6527,57.1315 C284.1087,58.4145 277.7367,62.5545 275.6697,65.0225 C275.1357,64.8195 274.6047,64.6115 274.0767,64.3975 C273.1677,63.2815 271.8287,62.7915 270.4637,62.8215 C260.9347,58.3895 252.4517,52.1265 244.8817,44.2735 C239.5017,38.7035 233.9917,32.8735 226.8017,29.6435 C218.3317,25.8235 210.0017,27.5835 201.1017,28.1635 C191.6317,28.7935 182.2817,26.1035 172.8217,27.3935 C165.9017,28.3435 159.4217,31.2735 153.8217,35.4035 C142.3917,43.8335 134.5117,55.6735 124.8517,65.8835 C113.8917,77.4635 100.4117,84.8635 85.4217,88.6435 C85.2417,88.5235 85.0517,88.4035 84.8617,88.2935 C73.8117,78.2935 63.8317,67.0035 55.0017,54.9735 C46.3817,43.2235 23.6517,-9.6665 18.1617,-14.3065 C15.8817,-16.2365 13.3817,-17.0665 10.9917,-16.9965 C6.6617,-16.8965 2.6617,-13.8865 0.8717,-9.1465 C-2.1683,-1.0865 -0.6483,9.3335 -0.4083,17.7635 C-0.1083,28.0835 0.5717,38.3935 1.6517,48.6635 C2.7217,58.8135 4.1417,68.9335 5.9117,78.9835 C6.8017,84.0635 7.7917,89.1335 8.8817,94.1835 C9.2217,95.7735 9.6517,97.1935 10.1717,98.5135 C10.7017,101.0035 11.2717,103.4835 11.8817,105.9435 C15.8617,122.0535 22.1417,138.1835 34.1317,150.0735 C46.6117,162.4635 63.5717,170.6935 79.3217,178.0535 C94.3217,185.0635 110.0417,191.2935 126.1717,196.1735 C140.1817,202.5235 155.1817,207.5435 170.2417,210.1835 C186.8217,213.0935 204.2517,213.2735 220.2617,207.5135 C228.1317,204.6835 235.5717,200.7335 242.3217,195.8135 C251.8917,190.8435 260.5017,184.0135 267.5517,174.9735 C280.178808,158.772201 286.205845,139.111428 288.843079,118.838022 C289.518075,113.64907 292.055805,93.7618006 292.255358,90.6655083 C292.899805,80.6661617 293.544253,70.6671223 294.1887,60.6675 C294.4927,55.9485 288.7007,54.6015 285.6527,57.1315 Z" id="ðŸ–-Ink" fill="#000000"/></g>

        <g id="eyewear" transform="translate(203 303)"></g>
    </g>
</svg>