<svg xmlns="http://www.w3.org/2000/svg" viewBox="0 0 704 704" fill="none" width="512" height="512">
    <desc>"Open Peeps" by "Pablo Stanley", licensed under "CC0 1.0". / Remix of the original.</desc>
    <mask id="viewbox"><rect width="704" height="704" rx="0" ry="0" x="0" y="0" fill="#ffffff" /></mask>
    <g mask="url(#viewbox)">
        <rect id="background" fill="#ffdfbf" width="704" height="704" x="0" y="0" />

        <g id="body"><path id="skin" d="M705.3 1074a2351.1 2351.1 0 0 1-15.6-101c-1-7.7-2.5-16.4 2.7-22 7.3-8 14-14.8 14.8-26.2.8-10.7-2.8-22.4-5-32.8a809.4 809.4 0 0 0-17.3-64.7c-6.6-21.7-13.9-43.2-21.3-64.6-6.9-20-13.5-40.3-22.5-59.5-17-36.5-46-63.5-81.6-81.6-9-4.5-27-20.5-36.3-24-8.5-3.4-8.5 6.3-16.9 2.6-6.7-2.9-13-6.7-16.7-13.2-4-7-14.3-16.9-15.9-25-3.3-17.4.3-32.2-12-45.3a90 90 0 0 0-41.1-23.8c-33.7-9.3-78.5-2.8-98.8 28.5-9.7 14.9-13 33-26.2 45.1-11.4 10.7-8.8 18-23.6 23.4-.9.3-23.6-4.5-24.4-4.2-16.2-3.5-31.7 6.2-46.5 11.8a325.4 325.4 0 0 0-63 32.3 399.2 399.2 0 0 0-102.3 98.5 482.5 482.5 0 0 0-76.4 161c-1.7 6.4-3.5 13-1.5 19.4 1.7 5.3 5.4 9.2 9.8 12.4 6 4.3 18 7 17.7 15.7-.1 6.6-2.4 13.5-3.5 20-1.3 7.7-2.3 15.5-3.4 23.2-4.8 35.4-8.6 71-10.3 106.6a920 920 0 0 0-.5 106c.1 2.3.8 4.5 2 6.2-1 .4-1.2 2.4.1 2.7l2.7.5a12 12 0 0 0 7 2.4l5.5.2c19.3 4 38.6 7.9 58.1 10.8 23.8 3.5 47.6 6.3 71.5 8.7 49.2 4.8 98 3.2 147.1.6a1877 1877 0 0 1 147.4-2c49.2 1.4 98.4 3.5 147.6 4.4 55 1 110-.5 164.8-5 7.5-.5 12.2-6.5 10.7-14-8.9-44.7-19-89.1-27-134Z" fill="#694d3d"/><path id="shirt" d="m201 597.5 1.2-.4c14.5-5.7 29.6-14.8 45.4-11.4.5-.2 10.8 1.9 17.9 3.2l-6.7 7L247 598c40.7 67.1 88.8 100.7 144.3 100.7 55.5 0 97.7-33.6 126.4-100.7l4-1c.4 0 1 .2 1.5.4 9.3 3.6 27.4 19.6 36.3 24.1 35.6 18 64.5 45 81.6 81.6 8.7 18.6 15.2 38 21.8 57.5l.7 2c7.4 21.4 14.7 43 21.3 64.6 6.3 20.4 12 41 16.6 61.8l.7 2.9c2.2 10.4 5.8 22 5 32.8a29 29 0 0 1-3 10.7l-80.4 29 38.4 261.3c-35.1 1.5-70.3 2-105.5 1.3-49.2-.9-98.4-3-147.6-4.3-47.7-1.2-95.3-.7-143 1.7l-12 .6a946.3 946.3 0 0 1-139.5-1l-3.1-.3v-38.3l16.3-212.9-83-15.6-81.3-39.5a21.7 21.7 0 0 1-5.6-8.8c-1.9-6-.5-12 1-18l.5-1.3a492.8 492.8 0 0 1 76.4-161A399.3 399.3 0 0 1 138 629.7c19.8-13 40.9-23.9 63-32.3Z" fill="#e78276"/><path d="M232.2 584.6c5.1-.3 10.3.6 15.4 1 .4.1.6.8 0 .9-9 1.9-18 4.5-26.9 7.1l-3.8 1.2c-10 3-19.8 6-29.6 10-19.4 7.9-37.8 18.5-54.8 30.8C67.2 682.8 20 754.3-9.9 828.3a526 526 0 0 0-24.3 77c-.4 1.6-2 5.4-1 7 .7 1.3 3.6 2.1 5 2.9l4.5 2.3 25.2 12.9 2.3 1.1c38 18.6 78.4 34.4 121 35.5l.4-3.7a342 342 0 0 1 9.9-60c.3-1 1.6-.6 1.7.3 3 23.1 2 46.4 1 69.7-1.8 41-4.3 82.2-6.5 123.3-1.2 20.6-2.6 41-3.9 61.7-1.3 20.5-1.7 41.6-4.7 62-.6 4.6-6 7-10 6.6-4.4-.5-7.9-4.5-8-9 0-11.9 1.5-24 2.4-35.8l2.5-33.8c3.1-41.1 6.8-82.2 10.2-123.3a4771 4771 0 0 1 3.8-43.7C76.4 979.8 34.2 963-6.1 943.5c-.6 13.2-2 26.5-3.4 39.6-3.8 36.8-7.1 73.6-9.6 110.5a2254.2 2254.2 0 0 0-4.2 92.7l-.2 7c0 4.4-.5 8.5-4.3 11.7-3.7 3.3-8.9 3.5-12.6 0-5-4.6-4.2-10.9-4-17.1a1675.6 1675.6 0 0 1 1.8-47.2 1321 1321 0 0 1 10.5-109.5l2-14c3.5-26 7.5-52.7 15.5-77.9-3.1-1.5-6.2-3-9.3-4.7-5.5-2.7-11.2-5.4-16.6-8.4-4.2-2.5-7.9-5.8-9-10.8-1.4-5.5.6-11.5 2-16.9v-.4a502 502 0 0 1 26.6-80 523.2 523.2 0 0 1 67.8-117 353.8 353.8 0 0 1 88.7-83.3 239 239 0 0 1 53.8-25.7 142.6 142.6 0 0 1 42.8-7.5Zm90.1-66c6-6.5 18.1.2 15.2 8.8a108.2 108.2 0 0 1-34.7 52A79.4 79.4 0 0 1 247 598l1.7 2.4a321.1 321.1 0 0 0 46.1 52.6c36 31.2 84.8 48 132 36 37.1-9.4 69.8-38.8 79.4-76.2-1.3.6-3 .9-4.8.5-7.7-1.7-15.3-9.8-20.3-15.6-5.3-6.3-9.5-13-12.6-20.7-5.6-14-7.4-32.1.3-45.7 1-1.7 3-.7 3.3 1l.3 2.5c1.5 12.7 3.3 25 9.3 36.6a76 76 0 0 0 18.2 23.1c2.6 2 5.8 3.6 8.1 6l.5.4c.6-5 4.1-7.3 7.6-7.2 3.3.2 7.3 1.6 8.8 2.3l.1.1a341 341 0 0 1 65.1 42 259 259 0 0 1 88.4 129c7.5 25.3 11.8 51.4 16.3 77.4l2.8 16c4.2 23.9 8.9 48.4 18.4 70.7 2.5 5.7.6 11.1-5.5 13.4A1493 1493 0 0 1 688 953c3.7 16 6 32.5 8.7 48.5 6 34.1 13.2 68 19.4 102 3.2 17.5 6.1 35 9.3 52.3l4.7 25.2 2.4 13.6.1.7c.5 2.4 1 4.9.4 7.3-.8 2.7-2.9 4.6-4.8 6.6-1.6 1.6-3.8 1.6-5.7.7l-.7-.3c-3.4-1.6-6-3.2-7.3-7-.7-2.5-1-5.2-1.5-7.7a3535.6 3535.6 0 0 1-7.8-43.6l-1.6-9.1c-5.2-31.4-10.2-62.9-12.8-94.5-1-14-2.3-28.1-3.5-42.2l-.9-10.5c-1.1-13.3-2.5-27-2.7-40.5l-4.5 1.6L657 964c-5.5 2-12.5 6-18.4 5.2-2.9-.3-5-1.2-6.8-2.9 2 28.8 4.8 57.4 8.5 86a1965.7 1965.7 0 0 0 22 135c.6 3.2 1.4 6.4 1.9 9.6.5 3.7-.5 5.9-2.5 9-1.7 2.4-5 3.7-7.8 2-3.6-2.3-5.5-4.3-6.5-8.4-1-3.7-1.6-7.6-2.3-11.4a1654.2 1654.2 0 0 1-11.4-65.2c-7.8-52-12.7-104.4-15.2-156.8a1388 1388 0 0 1-1.4-77.8c0-13.3.5-26.6 1.4-39.9 1-13.4 3-26.5 4.8-39.8 0-.5.7-.5.7 0 .8 14.9 2.1 29.8 2.8 44.7.6 14.3.9 28.5 1.4 42.8.6 18.7 1.5 37.5 2.7 56.2a9.6 9.6 0 0 1 8.5-3.1c4.7-1 9.7-3.4 14.1-5l16.8-5.5 26.4-8.7a679 679 0 0 1-18-80.8l-2-12.3c-4-24.2-8.5-48.5-15.8-72a229.8 229.8 0 0 0-34.8-68.2 370.2 370.2 0 0 0-52.7-55.3C557 627 539.7 614 523 600c.1.9.2 2 0 3-3.5 25.9-17 50-35.8 67.9-37.7 36-93.6 43.4-142 26.5-46.7-16.3-88-55-102.6-102.8-.3-.8.8-1 1.3-.5l2.4 3.3c0-.4.2-.9.7-1a129 129 0 0 0 46.6-29.2 100.2 100.2 0 0 0 21.3-33.3l.4-1c1.7-5 3.2-10.2 7-14.2Z" fill="#000000"/></g>

        <g id="head" transform="matrix(.99789 0 0 1 156 62)"><path id="skin" d="M431.9006,270.053 C428.1106,207.851 407.9266,137.33 348.5226,106.79 C217.5636,54.232 45.3796,186.588 36.2636,321.8 C33.0856,368.084 58.7836,418.659 105.7446,431.527 C116.1856,445.36 131.9756,453.808 147.5606,461.14 C333.1876,557.447 453.0946,479.16 431.9006,270.053 L431.9006,270.053 Z" fill="#694d3d"/><path d="M474.1891,231.3601 C467.6291,213.1401 460.6991,195.0601 453.4091,177.1201 C446.3091,159.6601 439.896026,141.822713 431.0791,125.1901 C378.4191,25.8501 282.6591,25.8501 233.1591,38.8301 C207.4891,27.7701 159.408421,30.8898441 132.6791,40.8701 C89.4071,57.0271 36.6581,120.5851 18.6231,149.1411 C-21.1959,212.1901 -46.0459,296.1071 -19.5959,368.9631 C-16.1389,378.4851 -11.7299,387.3041 -6.7659,395.8031 C-9.8929,400.0411 -13.4919,404.0551 -17.4789,407.9991 C-29.3269,419.7211 -41.1749,431.0571 -51.4099,444.2781 C-61.5809,457.4171 -70.0129,471.3891 -76.2899,486.7941 C-88.1259,515.8461 -88.6959,548.7421 -73.0479,576.4631 C-59.4339,600.5831 -35.3169,618.5441 -8.1459,620.2571 C-6.7509,620.4511 -5.3539,620.6291 -3.9509,620.7701 C-0.3509,626.7001 4.0391,632.1601 9.0491,636.9201 C24.3991,651.5201 60.9891,659.0101 81.8591,659.4901 C82.9291,660.3501 84.0091,661.2101 85.0891,662.0601 C97.8591,672.1101 111.2591,682.2501 125.9191,689.4001 C135.8491,694.2501 148.8691,698.3001 159.2291,694.8001 C163.9291,697.9401 171.6391,697.2801 176.2991,694.7101 C183.9591,690.4901 190.1891,682.8901 193.9791,675.1101 C203.1691,656.2201 200.9591,635.5501 198.5991,615.3701 C195.9991,593.0801 193.4991,570.7801 190.9591,548.4901 C188.9691,531.0601 186.8891,513.3401 181.5891,496.5501 C178.8491,487.8501 175.2591,479.4901 170.6191,471.6301 C170.7391,470.9701 170.7191,470.3101 170.5291,469.6901 C169.0091,464.7501 165.8691,462.1601 162.1491,458.8001 C161.6691,458.3701 161.1891,457.9301 160.7191,457.4801 C158.8591,455.3601 156.8691,453.3901 154.7391,451.7201 C153.9191,450.8901 153.1091,450.0501 152.2991,449.2101 C145.5691,442.1601 139.2091,434.7501 133.5591,426.8101 C128.0791,419.1101 123.1291,411.0701 118.4191,402.8801 C113.6291,394.5501 110.4591,385.3601 105.6791,377.0901 C105.2691,376.3801 104.2291,376.2401 103.6491,376.8301 C102.1691,378.3601 101.2191,380.0601 101.3991,381.8501 L100.6591,381.9601 C100.3791,379.2601 97.8891,377.0601 94.5091,377.6501 C89.4491,378.5301 85.2891,378.8601 80.9091,377.1801 C81.6791,372.0701 82.3891,366.9501 83.0891,361.8201 C84.3691,352.3801 85.5591,342.9101 86.5791,333.4401 C89.0491,334.0301 91.4991,334.8801 93.8991,335.9601 C97.3191,337.4901 100.5491,339.5501 103.3091,342.0801 C106.0291,344.5801 107.9091,347.9501 111.2291,349.6901 C115.0491,351.6801 119.6591,348.3901 118.5391,344.0701 C116.2691,335.3401 103.4191,330.3401 95.4691,328.6901 C92.7391,328.1201 89.9491,327.8801 87.1591,327.9401 C87.7891,321.8601 88.3491,315.7801 88.8091,309.6901 C89.0291,306.8101 89.2291,303.9301 89.4191,301.0401 C95.5991,299.1701 102.2191,298.6101 108.6491,299.4901 C110.7691,301.1801 112.8891,302.8501 114.9391,304.5401 C121.4491,309.9201 127.9291,315.3301 134.3291,320.8401 C134.9091,321.3301 135.4791,321.8201 136.0591,322.3201 C139.8591,325.5901 144.5991,322.3501 143.9591,317.7201 C138.7391,279.7801 161.9791,249.6001 189.1891,226.2201 C219.3091,200.3301 274.0691,197.315396 309.8891,152.4701 C326.3862,155.827691 363.2191,165.8001 378.4191,190.0201 C399.6991,223.9601 396.9191,254.3701 398.5391,292.8701 C400.1591,331.4001 404.2791,371.5901 395.5291,409.5801 C387.4591,444.6101 365.6091,474.5401 331.7091,488.3001 C330.8691,488.6401 330.0191,488.9701 329.1691,489.2901 C311.6391,495.9001 292.5091,497.7701 274.0691,494.2901 C253.6591,490.4301 236.6191,481.0901 219.6391,469.6001 C218.6591,468.9501 217.2291,470.2901 217.9691,471.2701 C240.3491,500.9301 284.3091,510.8401 319.1791,503.0101 C320.8091,502.6401 322.4291,502.2401 324.0391,501.8001 C316.2391,524.2301 317.8091,548.8501 327.9691,570.6901 C334.0791,583.8301 343.3991,595.2001 354.7491,604.1701 C367.2591,614.0501 382.7791,622.0301 391.4591,635.9001 C399.4091,648.6101 397.0491,662.8901 383.4391,670.2301 C380.0091,672.0901 378.6891,678.1001 382.0891,680.7401 C383.3891,681.7401 384.6891,682.7601 386.0191,683.7601 C393.6391,689.5101 414.5691,700.3101 417.9591,700.7101 C448.0591,704.2801 468.2991,682.1801 481.2691,656.1101 C496.4991,625.5101 492.5391,588.2201 475.7591,559.0801 C462.2991,535.7001 435.7891,512.6601 446.3291,483.0701 C450.0891,472.5001 457.7791,463.4901 465.2491,455.3501 C473.7691,446.0801 482.9291,437.4001 491.0991,427.8001 C499.2191,418.2701 506.4191,407.9001 510.4391,395.9401 C516.3091,378.4601 513.3891,359.5601 508.9791,342.1101 C499.5291,304.6501 487.2591,267.6901 474.1891,231.3601 Z" id="ðŸ–-Ink" fill="#000000"/></g>

        <g id="face" transform="translate(315 248)"><path d="M55.6 167.6c3.5-7.8 19.1-20 19.1-20s4.8 27 1.1 35.3c-3 6.8-14 19.2-22 15.7s-4-18 1.8-31ZM250.2 160.5c-2.8-6.6-15.7-17-15.7-17s-3.9 22.9-.9 30c2.5 5.7 11.5 16.2 18.1 13.2 6.6-3 3.2-15.3-1.5-26.2ZM117 199.2h87.8l5.2 14.5s-65.5 15.3-88.5 5.5l-4.5-20Z" fill="#fff"/><path d="M181.7 171c8.2-11.3-3.3-22-10.9-26.6-2-1.5-.4-6.2 3.8-5.4 38.4 6.6 18.5 72.7-30.5 36.4-5.8-4.7 1.2-15 7.5-11l1 .7c7.1 5.5 20 15.5 29.1 6ZM104.5 56.5l-2 .3c-6 1-12 3.4-17.5 6.2a59.3 59.3 0 0 0-25.9 24c-.5 1.2.7 2.7 2 2 9-6.2 17.8-11.8 28.6-15a67.7 67.7 0 0 1 19.5-2.5c4.4.2 8.6.3 12.4-2.9 3-2.3 2.2-7 0-9.4-4.1-4.7-11.3-3.7-17.1-2.7ZM204.6 52.5l-1.4-.3a8.5 8.5 0 0 0-4.9.4 7.4 7.4 0 0 0-3.6 3.1 7 7 0 0 0-.8 5.9 7 7 0 0 0 2.6 4c1.2.9 2.9 1.5 4.6 1.7 7.8.9 15.4 2.6 22.9 5 3.5 1.2 6.8 2.7 10 4.3L237 78a45 45 0 0 0 9.4 3.6c.9-.3 1.1-.6 1.3-.8v-.1l.1-.1c.3-.3.6-.8.3-3-7.4-15.3-27.7-21.9-43.4-25.1ZM123.3 128c-3 1.8-6.3 1-8.9-1.1-1.6-1.3-2.8-3-4-4.6-1.5-1.9-2.9-3.8-5-5.1-3.2-2.2-7.5-2.3-11.2-1.7-5.6 1-10.4 3.6-15.3 6.2a86 86 0 0 1-8.3 4.2c-1.1.5-1.8-1-1.4-1.8a38 38 0 0 1 27-22.5 29 29 0 0 1 30.4 18.2c1.1 3-.7 6.7-3.3 8.2ZM242.6 115.4c.2 0 .5-.2.4-.5-3.2-10.3-15.1-14.7-25.2-13.8-6.2.5-11.9 2.8-16.6 7-4.5 4-8 11.4-4 16.9 4.3 5.6 12.8 3.8 13.3-3.6.4-4.8 8.6-7.8 12.8-8.5 6.5-1.2 13.2.2 19.3 2.5Z" fill="#000"/><path d="M176.1 195.5c11.6-.1 25.6-.3 35.6.3 3.6.2 5.3 5.3 5.6 7.8 2.3 22.4-15.6 40.4-35.4 47.3-18.4 6.5-42.7 7.7-59.2-4.3a50.2 50.2 0 0 1-16-20.6 56.8 56.8 0 0 1-4.3-15c-.6-3.3-1.3-7.3-.2-10.4 1.7-4.4 6-4.5 10.1-4.5h1l5-.2 12.8-.2 27.7-.2H176Zm-49.8 19a253 253 0 0 0 42.5 1.5c10-.4 36-6.5 36-9 0-2.7-1.1-5-2-5-4 .5-34.7.8-56.4 1a3011.2 3011.2 0 0 0-24.7.3c-1 3.2 1.7 10 4.6 11.1ZM82.3 146.6c-.3-2-2-3.2-4-2.2a7.5 7.5 0 0 0-2.6 2.2l.1-.2c0-.2 0-.4-.2-.4-4.4-.7-10.1 5.4-13.2 8.8l-.7.7a61.8 61.8 0 0 0-11 16c-3.5 7.5-7.2 18.9-2.5 26.6 6.6 10.9 20.5 2.7 25.7-4.8a39.9 39.9 0 0 0 7-21.5c0-2.2 0-4.4-.2-6.7 0-2-.2-4.2 0-6.3 0-1.8.4-3.6.8-5.3.5-2.3 1-4.6.8-6.9Zm-9.9 32.5c-1.5 5.8-4.6 12.5-10 15.6-2.9 1.7-7.1 2.3-8.8-1.1-3-6.5 1.3-16.4 3.9-22.2a63 63 0 0 1 17.2-23 29 29 0 0 0-1.6 11.2l.2 5.4c.2 4.7.3 9.5-.9 14.1ZM253.3 157.5A65.2 65.2 0 0 1 262 175c3 11.9-7.2 20.5-18.5 18-11.9-2.7-16.3-16.4-16-27.2 0-5 1-10 2.1-14.9l.4-2 .7-4.1c.3-2 .5-4 1-5.9-.5-1.5-.9-3-.8-4.6 0-2.5 2.6-3.8 4.7-2.7 3 1.5 4.7 4.3 6.3 7.2l1 1.8 3.6 6 3.5 6 3.2 5Zm-13 25.5c3.1 2.8 8.5 3.9 12 1.2 4.9-3.6.8-10-1.9-14.2l-.7-1.2a1574 1574 0 0 1-13-21.3l-.8 4.9-.7 3.6c-1.3 8.8-2.2 20.3 5.1 27Z" fill="#000"/></g>

        <g id="facial-hair" transform="translate(279 400)"><path d="M258.6349,38.6644 C252.0409,37.4254 245.2239,37.7734 238.6739,36.3314 C232.2839,34.9234 227.2089,30.7364 221.0349,28.7874 C215.6019,27.0714 209.2339,28.2334 205.0029,31.5594 C201.0719,29.7424 196.6049,29.3494 192.1329,29.9494 C185.3509,30.8594 179.0229,33.7294 172.9819,36.8334 C172.2819,37.1934 171.5809,37.5364 170.8809,37.8834 C159.7189,37.6044 148.2759,37.6264 137.3229,40.0184 C127.6239,42.1374 118.4549,47.0694 112.6709,55.3074 C106.1979,64.5284 105.0289,76.2704 104.0309,87.1664 C103.3959,94.0824 113.0019,95.4854 116.2569,90.4774 C119.6319,85.2854 123.1449,80.0814 127.6419,75.7794 C132.7499,70.8924 138.9629,68.9684 145.9259,68.5224 C161.2939,67.5384 176.7639,68.3634 192.1469,67.6824 C201.0639,67.2874 210.9919,63.8584 214.5859,56.1064 C218.4219,62.1174 227.1139,65.6914 234.2629,66.2334 C241.8179,66.8074 249.4889,65.4344 256.9689,67.0084 C264.1149,68.5124 272.6089,73.8344 271.0199,82.3464 C270.0859,87.3464 276.4069,90.2944 279.3159,85.8444 C291.1949,67.6614 279.4899,42.5854 258.6349,38.6644" id="ðŸ–-Ink" fill="#000000"/></g>

        <g id="eyewear" transform="translate(203 303)"><path d="M389.0901,63.2824 C379.5561,127.7714 313.0021,134.9034 301.1771,70.8814 C303.0751,70.0504 304.4401,68.4144 304.1551,65.2384 C304.0881,51.2864 308.4191,36.5404 321.0051,28.7814 C334.0111,20.7754 349.2321,19.9814 364.2831,20.1834 C393.0051,19.4994 392.4011,43.5064 389.0901,63.2824 M290.7581,35.2354 C281.7441,34.8554 270.3401,35.1734 262.2651,40.6654 C260.0451,34.6874 254.2771,28.3044 248.4491,24.8914 C270.1111,25.5254 292.4091,23.3934 314.2331,21.7384 C309.0091,25.2994 304.1491,30.6494 300.9901,36.8344 C298.0591,35.2714 293.8611,35.4174 290.7581,35.2354 M251.0261,70.1194 C226.0311,156.1554 163.6401,118.6554 156.8381,107.6294 C144.5691,89.3834 142.2611,45.0294 152.9481,33.1704 C168.2461,22.4464 189.9031,25.2064 207.9751,24.9434 C241.1761,25.3914 264.7561,35.3234 251.0261,70.1194 M418.6031,30.5484 C411.8121,29.6604 404.5551,29.4814 398.2411,32.4714 C396.2971,24.2084 390.1941,17.3004 383.3031,14.2604 C382.4691,13.2144 382.5941,12.6524 379.7451,12.8094 C362.2501,7.5514 342.6731,10.3334 325.8611,15.7254 C299.3091,17.9614 271.4521,19.7244 244.6771,22.8054 C219.5951,11.5414 143.9021,9.8904 139.1981,37.6534 C133.2811,36.7684 123.2041,32.1114 118.2321,38.4284 C81.7611,32.2454 44.0761,40.8384 7.4471,44.6654 C-1.7729,46.3634 -6.5219,64.6614 3.9441,64.4114 C9.8281,62.8144 3.7631,53.0174 11.6861,52.2804 C47.0271,48.4204 81.5951,42.9444 117.2981,42.3034 C116.0561,48.4684 140.9121,48.8694 141.2791,45.2694 C141.3321,45.2964 141.3881,45.3144 141.4421,45.3384 C135.3001,68.2284 140.8441,101.1704 151.9441,115.3644 C167.4961,133.9504 206.5411,139.2824 223.8541,127.3244 C246.1871,116.2874 269.4201,60.8854 262.8941,42.4794 C274.7381,38.7254 286.4471,39.8524 298.7391,41.7644 C295.9251,49.7134 291.0671,69.2814 298.0561,70.9784 C296.7731,109.8284 332.1301,134.0694 364.7241,118.1324 C392.9351,104.8894 402.8011,62.9714 399.3491,37.5284 C402.8611,44.3144 432.3491,36.9264 418.6031,30.5484" id="ðŸ–-Ink" fill="#000000"/></g>
    </g>
</svg>