<svg xmlns="http://www.w3.org/2000/svg" viewBox="0 0 704 704" fill="none" width="512" height="512">
    <desc>"Open Peeps" by "Pablo Stanley", licensed under "CC0 1.0". / Remix of the original.</desc>
    <mask id="viewbox"><rect width="704" height="704" rx="0" ry="0" x="0" y="0" fill="#ffffff" /></mask>
    <g mask="url(#viewbox)">
        <rect id="background" fill="#ffd5dc" width="704" height="704" x="0" y="0" />

        <g id="body"><path id="skin" d="M705.3 1074a2351.1 2351.1 0 0 1-15.6-101c-1-7.7-2.5-16.4 2.7-22 7.3-8 14-14.8 14.8-26.2.8-10.7-2.8-22.4-5-32.8a809.4 809.4 0 0 0-17.3-64.7c-6.6-21.7-13.9-43.2-21.3-64.6-6.9-20-13.5-40.3-22.5-59.5-17-36.5-46-63.5-81.6-81.6-9-4.5-27-20.5-36.3-24-8.5-3.4-8.5 6.3-16.9 2.6-6.7-2.9-13-6.7-16.7-13.2-4-7-14.3-16.9-15.9-25-3.3-17.4.3-32.2-12-45.3a90 90 0 0 0-41.1-23.8c-33.7-9.3-78.5-2.8-98.8 28.5-9.7 14.9-13 33-26.2 45.1-11.4 10.7-8.8 18-23.6 23.4-.9.3-23.6-4.5-24.4-4.2-16.2-3.5-31.7 6.2-46.5 11.8a325.4 325.4 0 0 0-63 32.3 399.2 399.2 0 0 0-102.3 98.5 482.5 482.5 0 0 0-76.4 161c-1.7 6.4-3.5 13-1.5 19.4 1.7 5.3 5.4 9.2 9.8 12.4 6 4.3 18 7 17.7 15.7-.1 6.6-2.4 13.5-3.5 20-1.3 7.7-2.3 15.5-3.4 23.2-4.8 35.4-8.6 71-10.3 106.6a920 920 0 0 0-.5 106c.1 2.3.8 4.5 2 6.2-1 .4-1.2 2.4.1 2.7l2.7.5a12 12 0 0 0 7 2.4l5.5.2c19.3 4 38.6 7.9 58.1 10.8 23.8 3.5 47.6 6.3 71.5 8.7 49.2 4.8 98 3.2 147.1.6a1877 1877 0 0 1 147.4-2c49.2 1.4 98.4 3.5 147.6 4.4 55 1 110-.5 164.8-5 7.5-.5 12.2-6.5 10.7-14-8.9-44.7-19-89.1-27-134Z" fill="#ae5d29"/><path id="shirt" d="m201 597.5 1.2-.4c14.5-5.7 29.6-14.8 45.4-11.4.5-.2 10.8 1.9 17.9 3.2l-6.7 7L247 598c40.7 67.1 88.8 100.7 144.3 100.7 55.5 0 97.7-33.6 126.4-100.7l4-1c.4 0 1 .2 1.5.4 9.3 3.6 27.4 19.6 36.3 24.1 35.6 18 64.5 45 81.6 81.6 8.7 18.6 15.2 38 21.8 57.5l.7 2c7.4 21.4 14.7 43 21.3 64.6 6.3 20.4 12 41 16.6 61.8l.7 2.9c2.2 10.4 5.8 22 5 32.8a29 29 0 0 1-3 10.7l-80.4 29 38.4 261.3c-35.1 1.5-70.3 2-105.5 1.3-49.2-.9-98.4-3-147.6-4.3-47.7-1.2-95.3-.7-143 1.7l-12 .6a946.3 946.3 0 0 1-139.5-1l-3.1-.3v-38.3l16.3-212.9-83-15.6-81.3-39.5a21.7 21.7 0 0 1-5.6-8.8c-1.9-6-.5-12 1-18l.5-1.3a492.8 492.8 0 0 1 76.4-161A399.3 399.3 0 0 1 138 629.7c19.8-13 40.9-23.9 63-32.3Z" fill="#ffcf77"/><path d="M232.2 584.6c5.1-.3 10.3.6 15.4 1 .4.1.6.8 0 .9-9 1.9-18 4.5-26.9 7.1l-3.8 1.2c-10 3-19.8 6-29.6 10-19.4 7.9-37.8 18.5-54.8 30.8C67.2 682.8 20 754.3-9.9 828.3a526 526 0 0 0-24.3 77c-.4 1.6-2 5.4-1 7 .7 1.3 3.6 2.1 5 2.9l4.5 2.3 25.2 12.9 2.3 1.1c38 18.6 78.4 34.4 121 35.5l.4-3.7a342 342 0 0 1 9.9-60c.3-1 1.6-.6 1.7.3 3 23.1 2 46.4 1 69.7-1.8 41-4.3 82.2-6.5 123.3-1.2 20.6-2.6 41-3.9 61.7-1.3 20.5-1.7 41.6-4.7 62-.6 4.6-6 7-10 6.6-4.4-.5-7.9-4.5-8-9 0-11.9 1.5-24 2.4-35.8l2.5-33.8c3.1-41.1 6.8-82.2 10.2-123.3a4771 4771 0 0 1 3.8-43.7C76.4 979.8 34.2 963-6.1 943.5c-.6 13.2-2 26.5-3.4 39.6-3.8 36.8-7.1 73.6-9.6 110.5a2254.2 2254.2 0 0 0-4.2 92.7l-.2 7c0 4.4-.5 8.5-4.3 11.7-3.7 3.3-8.9 3.5-12.6 0-5-4.6-4.2-10.9-4-17.1a1675.6 1675.6 0 0 1 1.8-47.2 1321 1321 0 0 1 10.5-109.5l2-14c3.5-26 7.5-52.7 15.5-77.9-3.1-1.5-6.2-3-9.3-4.7-5.5-2.7-11.2-5.4-16.6-8.4-4.2-2.5-7.9-5.8-9-10.8-1.4-5.5.6-11.5 2-16.9v-.4a502 502 0 0 1 26.6-80 523.2 523.2 0 0 1 67.8-117 353.8 353.8 0 0 1 88.7-83.3 239 239 0 0 1 53.8-25.7 142.6 142.6 0 0 1 42.8-7.5Zm90.1-66c6-6.5 18.1.2 15.2 8.8a108.2 108.2 0 0 1-34.7 52A79.4 79.4 0 0 1 247 598l1.7 2.4a321.1 321.1 0 0 0 46.1 52.6c36 31.2 84.8 48 132 36 37.1-9.4 69.8-38.8 79.4-76.2-1.3.6-3 .9-4.8.5-7.7-1.7-15.3-9.8-20.3-15.6-5.3-6.3-9.5-13-12.6-20.7-5.6-14-7.4-32.1.3-45.7 1-1.7 3-.7 3.3 1l.3 2.5c1.5 12.7 3.3 25 9.3 36.6a76 76 0 0 0 18.2 23.1c2.6 2 5.8 3.6 8.1 6l.5.4c.6-5 4.1-7.3 7.6-7.2 3.3.2 7.3 1.6 8.8 2.3l.1.1a341 341 0 0 1 65.1 42 259 259 0 0 1 88.4 129c7.5 25.3 11.8 51.4 16.3 77.4l2.8 16c4.2 23.9 8.9 48.4 18.4 70.7 2.5 5.7.6 11.1-5.5 13.4A1493 1493 0 0 1 688 953c3.7 16 6 32.5 8.7 48.5 6 34.1 13.2 68 19.4 102 3.2 17.5 6.1 35 9.3 52.3l4.7 25.2 2.4 13.6.1.7c.5 2.4 1 4.9.4 7.3-.8 2.7-2.9 4.6-4.8 6.6-1.6 1.6-3.8 1.6-5.7.7l-.7-.3c-3.4-1.6-6-3.2-7.3-7-.7-2.5-1-5.2-1.5-7.7a3535.6 3535.6 0 0 1-7.8-43.6l-1.6-9.1c-5.2-31.4-10.2-62.9-12.8-94.5-1-14-2.3-28.1-3.5-42.2l-.9-10.5c-1.1-13.3-2.5-27-2.7-40.5l-4.5 1.6L657 964c-5.5 2-12.5 6-18.4 5.2-2.9-.3-5-1.2-6.8-2.9 2 28.8 4.8 57.4 8.5 86a1965.7 1965.7 0 0 0 22 135c.6 3.2 1.4 6.4 1.9 9.6.5 3.7-.5 5.9-2.5 9-1.7 2.4-5 3.7-7.8 2-3.6-2.3-5.5-4.3-6.5-8.4-1-3.7-1.6-7.6-2.3-11.4a1654.2 1654.2 0 0 1-11.4-65.2c-7.8-52-12.7-104.4-15.2-156.8a1388 1388 0 0 1-1.4-77.8c0-13.3.5-26.6 1.4-39.9 1-13.4 3-26.5 4.8-39.8 0-.5.7-.5.7 0 .8 14.9 2.1 29.8 2.8 44.7.6 14.3.9 28.5 1.4 42.8.6 18.7 1.5 37.5 2.7 56.2a9.6 9.6 0 0 1 8.5-3.1c4.7-1 9.7-3.4 14.1-5l16.8-5.5 26.4-8.7a679 679 0 0 1-18-80.8l-2-12.3c-4-24.2-8.5-48.5-15.8-72a229.8 229.8 0 0 0-34.8-68.2 370.2 370.2 0 0 0-52.7-55.3C557 627 539.7 614 523 600c.1.9.2 2 0 3-3.5 25.9-17 50-35.8 67.9-37.7 36-93.6 43.4-142 26.5-46.7-16.3-88-55-102.6-102.8-.3-.8.8-1 1.3-.5l2.4 3.3c0-.4.2-.9.7-1a129 129 0 0 0 46.6-29.2 100.2 100.2 0 0 0 21.3-33.3l.4-1c1.7-5 3.2-10.2 7-14.2Z" fill="#000000"/></g>

        <g id="head" transform="matrix(.99789 0 0 1 156 62)"><path id="skin" d="M375.4192,51.0238 C321.9502,35.3308 138.0662,51.4168 133.5192,54.8158 C126.0782,60.9988 89.8835379,80.6172827 84.2515379,85.0962827 C33.3265379,139.070283 81.8742,219.2228 78.1382,284.3348 C78.3762,307.4308 68.5342,328.5188 64.0102,350.7378 C62.1002,362.3818 62.5212,374.4258 68.5902,384.8798 C79.2602,403.5598 101.7932,407.3468 120.1192,414.8788 C129.2382,418.8048 137.7582,424.3718 145.5682,430.4628 C198.1522,476.9798 227.4222,508.8338 304.1492,498.3398 C304.5412,502.0028 307.7862,505.6018 311.8092,503.9648 C321.2292,500.1288 330.5822,496.0598 340.0842,492.4238 C342.1152,497.3178 347.9492,498.7148 351.9012,494.3928 L351.9242,494.4238 C369.5132,480.1558 380.6992,460.6468 389.0072,439.7618 C394.8212,427.7128 399.5822,415.1408 403.2202,402.1948 C403.6312,400.7298 403.5772,399.4208 403.2052,398.2938 C419.9912,340.4508 426.2032,279.4868 421.7842,219.4298 C420.8892,207.0388 418.5492,194.4838 419.1242,182.0408 C419.6442,170.7988 424.4872,160.1648 428.1792,149.6948 C447.2172,105.1858 418.1152,65.0378 375.4192,51.0238 Z" fill="#ae5d29"/><path d="M382.1444,-21.2439 L382.714554,-21.6857766 C388.879365,-26.5222159 394.691863,-32.8607657 403.3844,-30.4839 C410.5144,-28.5339 414.1144,-22.6339 415.6444,-15.5039 C417.8144,-17.7739 419.9244,-20.1239 421.9844,-22.5539 C427.5844,-29.1539 440.0944,-25.7339 441.7644,-17.3239 C445.1444,-0.3839 445.3144,16.8561 442.0244,33.8261 C441.5244,36.3961 440.9344,38.9561 440.2444,41.4861 C443.9944,36.8161 447.4844,31.9461 450.6144,26.8161 C454.0044,21.2461 461.6644,24.0061 462.1944,29.9561 C462.3344,31.4961 462.4144,33.0561 462.4344,34.6261 C464.8244,35.4661 466.4744,37.9261 465.8444,40.9461 C462.3644,57.5661 457.9544,73.9561 452.6544,90.0661 C461.1744,85.5461 470.7244,82.8661 479.7144,86.0561 C493.9944,91.1361 497.3944,106.7161 494.6044,120.1261 C491.0944,136.9861 480.0544,151.0961 465.8144,160.3461 C464.1244,162.8861 462.4544,165.4461 460.8644,168.0561 C460.8344,175.4261 459.4944,182.7761 456.7944,189.6061 C453.7544,197.2761 448.3944,203.9061 441.7944,208.9461 C439.47509,213.997479 433.331154,217.68706 427.937556,216.664299 L427.6544,216.6061 L427.6444,216.6161 C429.0244,221.5561 430.2144,226.5461 431.2444,231.5461 C439.219558,270.283995 435.181672,310.607964 427.907638,349.127374 L427.6744,350.3561 C421.1444,384.6361 413.5444,420.1361 398.7744,451.9661 C385.4144,480.7461 362.7644,506.0561 330.3944,512.3361 C292.3144,519.7261 250.1644,508.0161 217.4144,488.4861 C205.5444,481.4061 216.4244,462.7461 228.2444,469.9461 C245.3044,480.3261 263.8344,487.5761 283.4344,491.3961 C301.7544,494.9561 322.2444,496.1661 339.8144,488.7861 C364.2844,478.5061 378.8244,453.3961 388.0244,429.7561 C393.4444,415.8061 397.5044,401.4061 401.2844,386.9461 C406.1544,368.3561 410.6944,349.6461 414.1044,330.7261 C420.4544,295.4361 422.5144,258.7861 415.7944,223.3961 C413.6544,212.1061 410.6244,200.7461 406.6744,189.8261 C406.0544,189.0561 405.4644,188.1961 404.9344,187.2561 C400.8044,180.0161 397.9544,171.7861 394.8844,163.9561 C392.1944,159.2861 389.2544,154.7961 386.1344,150.4061 C381.4694,146.8211 377.0264,142.9881 372.9564,138.8061 C384.7774,131.1521 395.2084,121.5701 402.7134,109.3641 C403.9514,107.3511 403.1654,105.4271 401.6984,104.3421 C395.7054,111.8391 387.9474,118.1881 379.7874,123.8131 C375.6074,127.3931 371.1054,130.6091 366.3874,133.5151 C363.0164,134.1821 359.6084,134.6401 356.3044,135.0161 C346.8944,136.0861 337.4344,135.6861 328.0744,134.4361 C307.8344,131.7361 222.2364,108.1621 186.1544,117.3261 C178.6384,119.2351 175.0944,125.9761 171.1144,132.3061 C167.662257,137.812171 163.270969,142.369799 158.0033,146.122445 L157.4144,146.5361 C147.1144,153.6661 126.4054,176.2221 117.7004,196.3541 C106.4604,222.3461 95.6644,300.2361 100.6344,300.9061 C113.6344,302.6661 120.8344,309.5061 131.4244,316.8461 C132.1244,317.3261 131.7144,318.6261 130.8144,318.2961 C123.8244,315.7761 116.2644,314.2861 108.9344,313.0661 C102.3044,311.9561 95.3244,311.7561 88.9244,314.1261 C79.1044,317.7661 74.3144,325.9961 72.3444,335.2761 C71.5744,338.9061 71.2344,342.6961 71.1944,346.4461 L71.1887611,347.53366 C71.1940235,359.356873 73.3985791,372.464458 81.9844,381.1861 C85.6344,384.8961 90.5844,387.3961 95.7644,388.0861 C101.4344,388.8461 104.9344,386.2861 110.1444,384.9561 C116.1444,383.4261 120.8244,387.3761 120.2644,392.5261 C121.5344,393.6361 122.7644,394.8061 123.9844,395.9961 L123.98565,396.0011 L123.9944,396.0061 C124.7944,396.3661 125.5544,396.8461 126.2444,397.4261 C127.3744,398.3861 128.3244,399.4361 129.0844,400.5661 C130.7744,400.8961 132.3944,401.8361 133.7244,403.5561 C136.4644,407.0861 138.9944,410.6561 141.3444,414.2961 C145.5544,418.7661 149.7444,423.2461 153.8744,427.7961 C158.845829,433.264671 163.685012,438.858141 168.555683,444.419074 L170.9944,447.1961 C173.6244,450.1861 176.2444,453.1761 178.8644,456.1761 L179.645901,457.057188 C182.281658,460.008427 184.301753,462.187276 184.5844,466.4361 C184.7844,469.5861 181.3944,471.7261 178.5844,471.0061 C174.251829,469.888957 172.240694,466.488124 169.645021,463.113715 L165.7244,458.08485 L165.7244,458.08485 L162.0344,453.3461 C160.2044,450.9861 158.3544,448.6361 156.5144,446.2861 C155.9644,450.6161 151.3844,454.1061 147.2044,454.2961 L146.230096,454.334231 C136.414192,454.65995 124.485368,453.275455 117.0144,446.3561 C113.6544,449.7461 109.4744,452.4161 104.3244,454.0161 C92.6244,457.6561 80.6644,451.2061 75.9344,441.3961 C66.7644,445.3261 56.4044,446.1161 46.4944,443.2261 C40.778458,441.550738 38.8017304,434.426806 42.7848025,430.066641 L42.9644,429.8761 L43.0104,429.8241 C42.1884,428.7551 41.7364,427.4471 41.6634,426.0221 C41.5744,424.2921 42.8354,422.4581 42.5754,420.8431 C41.5834,414.6841 31.5394,419.2471 28.3474,420.5811 C27.7374,420.8351 27.1654,420.9561 26.6314,420.9751 C21.6964,422.4121 16.3294,415.9281 18.9144,410.5761 C24.7044,398.6161 30.3544,386.5661 36.2144,374.6261 C35.4744,374.8761 34.7144,375.1061 33.9644,375.2961 C23.4344,377.9961 10.6644,372.8161 13.0944,360.1261 C13.6544,357.1461 16.3544,355.1061 19.0344,354.1861 C24.2544,352.3861 28.1744,353.6861 32.1944,352.0061 C36.7244,350.1261 41.4544,346.6761 45.4344,343.4261 C49.6844,339.9661 53.3544,336.0761 56.6044,331.8561 C57.9044,325.7261 60.1544,319.8661 63.7544,314.8261 C63.9744,314.5261 64.1944,314.2261 64.4244,313.9361 C41.3376,308.4317 44.360664,285.726545 34.1770765,265.605032 L33.3166876,263.937095 C26.4002251,250.477533 20.3661949,235.302767 23.8544,219.9761 C24.4744,217.2661 25.3744,214.6761 26.5344,212.2561 C24.6844,212.4861 22.8244,212.6961 20.9744,212.9061 C16.7244,213.3861 12.4044,207.9061 14.0944,203.8761 C14.9844,201.7661 15.9644,199.7261 17.0244,197.7461 C19.9644,192.2861 23.5744,187.3261 27.8244,182.8461 C20.6844,182.6561 13.5344,182.6561 6.4744,181.8361 C-0.1956,181.0661 -7.2056,177.4161 -7.00461171,169.7261 C-6.7936,162.3941 -0.3606,156.8441 5.6044,153.2671 C11.4754,145.4581 18.9224,138.9681 27.3454,134.1451 C25.6791143,133.770529 23.9907878,133.492937 22.2747528,133.3224 L21.4144,133.2461 C16.6044,132.8661 12.2844,131.5461 7.9244,129.5361 C4.0244,127.7361 4.0844,122.2761 6.6344,119.5261 C14.8784,110.6141 27.2304,113.5161 36.8414,118.6231 C36.1722333,117.773933 35.4391778,116.956017 34.6404972,116.173401 L34.1534,115.7081 C29.4314,111.3111 36.5184,104.2551 41.2244,108.6371 C42.7114,110.0221 44.0434,111.5271 45.2314,113.1221 L45.3444,112.8861 L45.3444,112.8861 C51.5621083,100.274433 60.6561187,88.9858656 71.4153882,79.9404141 L73.9440381,77.8379726 C93.345754,61.63133 99.3324,53.9499 125.1344,56.3361 C124.0344,51.6491435 124.142113,46.3766293 124.38985,42.0413256 L124.4244,41.4561 C125.4144,25.1561 131.4244,5.6461 147.3244,-1.6739 C151.4544,-3.5639 156.1344,-0.4739 155.0344,4.2561 C154.2644,7.6061 153.3244,10.8661 152.1544,14.0361 C155.6244,10.3861 159.3444,6.9761 163.2844,3.8361 C179.3444,-8.9639 200.8044,-19.9739 221.9144,-16.3739 C233.5144,-14.3839 242.6144,-7.1039 252.3244,-1.0239 C262.0844,5.0961 272.9844,8.7261 284.4144,10.0361 C300.3844,11.8761 316.4144,10.0261 332.2044,7.1061 C343.0544,2.3761 353.5844,-3.1639 363.8644,-9.1339 C370.1844,-12.8039 376.3344,-16.8139 382.1444,-21.2439 Z M98.6049,332.7859 C101.9849,331.9159 105.7749,331.9259 109.1649,332.7759 C117.9149,334.9759 126.0549,342.2959 126.5649,351.5259 C126.7949,355.6959 123.4349,359.6859 119.5349,360.7559 C115.1149,361.9759 111.3149,359.8159 108.7349,356.3559 C105.9649,352.6559 105.2749,348.6459 101.8849,345.2859 L101.103309,344.524858 C98.2216297,341.769227 93.8640304,338.20677 89.8649,338.8459 C89.2749,338.9359 88.8349,338.1359 89.4349,337.8159 C92.6949,336.0359 94.8349,333.7459 98.6049,332.7859 Z M144.0545,289.316 C145.597756,288.056 147.637107,289.534064 146.911104,291.346038 L146.8545,291.476 C145.0245,295.336 147.1745,299.866 149.3945,303.096 C151.3045,305.886 147.6945,308.536 145.1545,307.336 C138.0145,303.946 138.3845,293.916 144.0545,289.316 Z M170.1545,173.3457 C170.0245,172.4057 171.2745,172.0157 171.5945,172.9457 C176.9245,188.4157 178.4545,202.1157 177.5845,218.4757 L177.502609,219.92754 C176.561069,235.685595 173.801067,252.363909 164.2645,265.3057 C162.0545,268.2957 157.5345,266.5357 158.2645,262.7757 C161.1945,247.7257 166.8245,233.4357 169.0145,218.2057 C171.3045,202.2857 172.3345,189.2757 170.1545,173.3457 Z M120.3747,229.576 C121.1547,225.446 127.5047,221.196 130.7147,225.346 C131.7947,226.756 130.5247,228.486 129.2247,229.006 C128.0047,229.486 126.9147,228.826 125.7147,229.066 C124.744033,229.262 124.0347,229.867422 123.562309,230.695268 L123.4647,230.876 C122.5247,232.676 120.0447,231.336 120.3747,229.576 Z M117.7749,196.6759 C120.0549,192.4559 125.3049,189.7659 129.7949,192.3959 C131.2749,193.2659 130.6949,195.7959 128.8949,195.7159 L127.8285,195.67274 C124.6272,195.5561 121.4259,195.6209 118.7349,197.6459 C118.1349,198.0959 117.4749,197.2459 117.7749,196.6759 Z M125.7914,81.4281 C113.0024,75.6781 100.2834,80.8691 89.8404,88.9651 C88.9764,89.6351 88.5574,90.4171 88.4654,91.2031 C95.4374,88.4881 102.8604,86.7081 109.9564,85.2391 C115.7584,84.0371 121.6154,83.2261 127.4794,82.9061 C127.1514,82.3171 126.6124,81.7971 125.7914,81.4281 Z" id="ðŸ–-Ink" fill="#000000"/></g>

        <g id="face" transform="translate(315 248)"><path d="M182.2439,225.9652 L182.935568,225.805218 C188.460204,224.502539 193.7763,222.73084 198.9219,226.1542 C203.8249,229.4152 204.5059,235.4472 200.6859,239.8472 C196.759696,244.370955 191.543789,244.117821 186.039297,244.179866 L185.6949,244.1842 C181.1239,244.2472 176.4769,244.1792 171.9239,243.7742 C167.6795,243.3962 163.40756,242.79221 159.211598,241.999409 L156.7304,241.51302 C154.195197,240.999997 151.698275,240.3327 150.3919,237.8792 C148.1139,233.6022 165.0459,230.2462 167.1029,229.6592 C172.0949,228.2342 177.1809,227.1122 182.2439,225.9652 Z M191.634193,174.394641 C188.935096,177.193987 185.36999,179.105754 181.367913,180.295732 C171.30965,183.286456 158.475622,181.693303 150.260436,178.645782 C148.556171,178.013644 146.963437,176.725048 146.048312,175.11365 C145.212412,173.641759 144.929477,171.91077 145.565716,170.145361 C145.746918,169.643897 145.967267,169.151539 146.18863,168.666648 C146.791277,167.347561 148.019458,166.321346 149.46204,165.734482 C150.960207,165.125004 152.663865,165.000599 154.030205,165.430262 C154.213756,165.487988 154.402027,165.547335 154.594782,165.608097 C159.799869,167.24887 168.337051,169.966044 175.409899,169.439413 C179.653911,169.123412 183.386915,167.62397 185.317652,163.740235 C186.335149,161.692395 186.053343,159.667058 185.150862,157.812727 C183.790166,155.016898 181.064689,152.584134 178.768455,150.90779 C175.531656,148.544107 172.079313,147.600482 168.508515,146.60419 C167.163013,146.22878 165.800236,145.848174 164.424715,145.392793 C163.971448,145.243158 163.574107,144.949174 163.276585,144.567009 C162.982731,144.189555 162.789851,143.72864 162.72939,143.266187 C162.666777,142.787275 162.744136,142.309698 162.966096,141.898081 C163.171987,141.516264 163.501275,141.180912 163.99334,140.960603 C170.979515,137.830669 180.015055,139.898917 186.834896,144.822934 C190.243367,147.283895 193.08628,150.445245 194.838513,153.977859 C196.46466,157.256278 197.155548,160.853243 196.518445,164.521349 C195.805094,168.627862 194.066972,171.871505 191.634193,174.394641 Z M77.1362,104.5549 C79.0992,103.6899 80.7122,107.7389 81.1162,108.8429 L81.9517138,111.133296 C83.3146459,114.826319 84.879269,118.580934 87.7452,121.3219 C90.1442,123.6169 93.9882,125.5619 96.7712,122.8769 C99.4112,120.3299 98.1242,117.4609 98.5132,114.3359 C99.2152,108.6839 106.9222,103.0349 111.5562,108.9329 C122.0242,122.2589 105.8282,140.7909 90.9102,137.5399 C83.3233034,135.885917 77.2160347,129.802709 74.7069246,122.568683 L74.5782,122.1869 C73.0762,117.6039 71.5572,107.0159 77.1362,104.5549 Z M212.219928,113.835683 L212.1476,113.6667 C207.1616,102.3257 224.9476,97.4517 226.4556,107.6347 L226.551051,108.321775 C228.017921,119.626038 224.92704,134.8277 211.0816,135.9547 C195.5396,137.2207 189.0676,119.8797 190.4556,107.1547 C190.7046,104.8767 193.4686,104.5617 194.3226,106.6317 L194.504313,107.083458 C197.013691,113.478563 199.396659,125.777394 208.2386,125.7647 C214.145986,125.755829 213.864071,117.781513 212.219928,113.835683 L212.219928,113.835683 Z M223.4962,81.0054 C232.4302,80.6884 232.4182,94.6704 223.4962,94.8804 C193.6942,95.5814 163.8692,96.5134 134.0582,96.6734 L128.639761,96.706498 C100.637912,96.8941456 72.5399273,97.2767636 44.6202,94.9264 C42.2372,94.7264 42.6802,91.3804 44.6712,91.5154 C73.9422,87.3494 103.5702,86.1314 133.0642,84.5484 C163.1812,82.9314 193.3562,82.0754 223.4962,81.0054 Z" id="ðŸ–-Ink" fill="#000000"/></g>

        <g id="facial-hair" transform="translate(279 400)"><path d="M117.724748,95.193032 C125.820991,76.2257701 143.491513,62.2858787 163.836481,57.1894344 C178.77663,53.4564466 194.455798,53.5755739 209.685563,55.0571566 C217.664961,55.82798 226.223589,56.4596548 233.743597,59.4228202 C240.165065,61.9545247 245.398112,66.7396365 249.332884,72.3566369 C254.016661,79.0127473 257.202428,86.6308855 259.439456,94.4392268 C259.757034,95.5494127 260.055637,96.6676073 260.334267,97.7918082 C259.36156,103.683102 257.296304,108.697458 251.839554,112.401415 C246.514629,116.018279 240.161071,117.497859 233.827486,118.023421 C233.206311,117.725102 232.606109,117.418775 232.05584,117.104439 C222.185954,111.454403 215.239184,98.1021397 202.781736,99.90907 C191.664507,101.522794 184.34623,115.510737 177.735014,123.713499 C156.513211,126.186141 135.307387,119.809329 118.040329,107.674365 C117.163494,103.520928 117.112562,99.332454 117.724748,95.193032 M274.758103,80.8046615 C273.060358,76.0405723 270.922199,71.4266434 268.387567,67.0800001 C260.0087,52.7056446 247.14579,41.2524095 231.876079,34.7054157 C195.754073,19.2388934 149.016172,30.1415403 119.844931,55.5076378 C109.880171,64.1789009 99.8045583,76.9215133 96.7576067,90.6281556 C95.8478155,90.8083481 94.9889566,91.2818539 94.2818961,91.9485661 C73.2058992,78.6793912 51.5017369,65.9127532 34.5183023,47.519104 C22.1846896,34.1548275 13.6060877,18.338932 8.35306724,0.959366195 C7.92363781,-0.471161978 5.61670297,-0.261938473 5.68661009,1.32075225 C5.70658355,1.69114793 5.72655701,2.06054254 5.74653047,2.43093821 C5.52682239,1.75021102 4.48820238,2.10058531 4.40830853,2.76129112 C1.58206368,23.8738448 -1.95323907,46.2577565 1.30243521,67.4804278 C3.24984774,80.1439557 9.00220475,89.4148595 16.6919876,99.4255535 C24.9310406,110.156016 34.2586473,120.136678 43.7959753,129.707903 C49.8479342,135.783393 56.1695349,142.790879 63.5796892,147.245638 C72.198238,152.421166 81.9752476,156.35637 91.1730268,160.349636 C100.530594,164.423989 110.027975,168.188009 119.705117,171.451496 C139.049415,177.99849 159.04285,182.523323 179.385821,184.505441 C195.674179,186.08713 214.289446,187.809971 229.898706,181.682425 C241.86281,176.98741 251.519978,168.499342 259.179801,158.287433 C267.518721,147.165552 274.110962,134.497019 277.755121,121.137748 C281.542089,107.260924 275.556042,83.0420517 274.758103,80.8046615" id="ðŸ–-Ink" fill="#000000"/></g>

        <g id="eyewear" transform="translate(203 303)"><path d="M389.0901,63.2824 C379.5561,127.7714 313.0021,134.9034 301.1771,70.8814 C303.0751,70.0504 304.4401,68.4144 304.1551,65.2384 C304.0881,51.2864 308.4191,36.5404 321.0051,28.7814 C334.0111,20.7754 349.2321,19.9814 364.2831,20.1834 C393.0051,19.4994 392.4011,43.5064 389.0901,63.2824 M290.7581,35.2354 C281.7441,34.8554 270.3401,35.1734 262.2651,40.6654 C260.0451,34.6874 254.2771,28.3044 248.4491,24.8914 C270.1111,25.5254 292.4091,23.3934 314.2331,21.7384 C309.0091,25.2994 304.1491,30.6494 300.9901,36.8344 C298.0591,35.2714 293.8611,35.4174 290.7581,35.2354 M251.0261,70.1194 C226.0311,156.1554 163.6401,118.6554 156.8381,107.6294 C144.5691,89.3834 142.2611,45.0294 152.9481,33.1704 C168.2461,22.4464 189.9031,25.2064 207.9751,24.9434 C241.1761,25.3914 264.7561,35.3234 251.0261,70.1194 M418.6031,30.5484 C411.8121,29.6604 404.5551,29.4814 398.2411,32.4714 C396.2971,24.2084 390.1941,17.3004 383.3031,14.2604 C382.4691,13.2144 382.5941,12.6524 379.7451,12.8094 C362.2501,7.5514 342.6731,10.3334 325.8611,15.7254 C299.3091,17.9614 271.4521,19.7244 244.6771,22.8054 C219.5951,11.5414 143.9021,9.8904 139.1981,37.6534 C133.2811,36.7684 123.2041,32.1114 118.2321,38.4284 C81.7611,32.2454 44.0761,40.8384 7.4471,44.6654 C-1.7729,46.3634 -6.5219,64.6614 3.9441,64.4114 C9.8281,62.8144 3.7631,53.0174 11.6861,52.2804 C47.0271,48.4204 81.5951,42.9444 117.2981,42.3034 C116.0561,48.4684 140.9121,48.8694 141.2791,45.2694 C141.3321,45.2964 141.3881,45.3144 141.4421,45.3384 C135.3001,68.2284 140.8441,101.1704 151.9441,115.3644 C167.4961,133.9504 206.5411,139.2824 223.8541,127.3244 C246.1871,116.2874 269.4201,60.8854 262.8941,42.4794 C274.7381,38.7254 286.4471,39.8524 298.7391,41.7644 C295.9251,49.7134 291.0671,69.2814 298.0561,70.9784 C296.7731,109.8284 332.1301,134.0694 364.7241,118.1324 C392.9351,104.8894 402.8011,62.9714 399.3491,37.5284 C402.8611,44.3144 432.3491,36.9264 418.6031,30.5484" id="ðŸ–-Ink" fill="#000000"/></g>
    </g>
</svg>