<svg xmlns="http://www.w3.org/2000/svg" viewBox="0 0 704 704" fill="none" width="512" height="512">
    <desc>"Open Peeps" by "Pablo Stanley", licensed under "CC0 1.0". / Remix of the original.</desc>
    <mask id="viewbox"><rect width="704" height="704" rx="0" ry="0" x="0" y="0" fill="#ffffff" /></mask>
    <g mask="url(#viewbox)">
        <rect id="background" fill="#ffd5dc" width="704" height="704" x="0" y="0" />

        <g id="body"><path id="skin" d="M705.3 1074a2351.1 2351.1 0 0 1-15.6-101c-1-7.7-2.5-16.4 2.7-22 7.3-8 14-14.8 14.8-26.2.8-10.7-2.8-22.4-5-32.8a809.4 809.4 0 0 0-17.3-64.7c-6.6-21.7-13.9-43.2-21.3-64.6-6.9-20-13.5-40.3-22.5-59.5-17-36.5-46-63.5-81.6-81.6-9-4.5-27-20.5-36.3-24-8.5-3.4-8.5 6.3-16.9 2.6-6.7-2.9-13-6.7-16.7-13.2-4-7-14.3-16.9-15.9-25-3.3-17.4.3-32.2-12-45.3a90 90 0 0 0-41.1-23.8c-33.7-9.3-78.5-2.8-98.8 28.5-9.7 14.9-13 33-26.2 45.1-11.4 10.7-8.8 18-23.6 23.4-.9.3-23.6-4.5-24.4-4.2-16.2-3.5-31.7 6.2-46.5 11.8a325.4 325.4 0 0 0-63 32.3 399.2 399.2 0 0 0-102.3 98.5 482.5 482.5 0 0 0-76.4 161c-1.7 6.4-3.5 13-1.5 19.4 1.7 5.3 5.4 9.2 9.8 12.4 6 4.3 18 7 17.7 15.7-.1 6.6-2.4 13.5-3.5 20-1.3 7.7-2.3 15.5-3.4 23.2-4.8 35.4-8.6 71-10.3 106.6a920 920 0 0 0-.5 106c.1 2.3.8 4.5 2 6.2-1 .4-1.2 2.4.1 2.7l2.7.5a12 12 0 0 0 7 2.4l5.5.2c19.3 4 38.6 7.9 58.1 10.8 23.8 3.5 47.6 6.3 71.5 8.7 49.2 4.8 98 3.2 147.1.6a1877 1877 0 0 1 147.4-2c49.2 1.4 98.4 3.5 147.6 4.4 55 1 110-.5 164.8-5 7.5-.5 12.2-6.5 10.7-14-8.9-44.7-19-89.1-27-134Z" fill="#694d3d"/><path id="shirt" d="m201 597.5 1.2-.4c14.5-5.7 29.6-14.8 45.4-11.4.5-.2 10.8 1.9 17.9 3.2l-6.7 7L247 598c40.7 67.1 88.8 100.7 144.3 100.7 55.5 0 97.7-33.6 126.4-100.7l4-1c.4 0 1 .2 1.5.4 9.3 3.6 27.4 19.6 36.3 24.1 35.6 18 64.5 45 81.6 81.6 8.7 18.6 15.2 38 21.8 57.5l.7 2c7.4 21.4 14.7 43 21.3 64.6 6.3 20.4 12 41 16.6 61.8l.7 2.9c2.2 10.4 5.8 22 5 32.8a29 29 0 0 1-3 10.7l-80.4 29 38.4 261.3c-35.1 1.5-70.3 2-105.5 1.3-49.2-.9-98.4-3-147.6-4.3-47.7-1.2-95.3-.7-143 1.7l-12 .6a946.3 946.3 0 0 1-139.5-1l-3.1-.3v-38.3l16.3-212.9-83-15.6-81.3-39.5a21.7 21.7 0 0 1-5.6-8.8c-1.9-6-.5-12 1-18l.5-1.3a492.8 492.8 0 0 1 76.4-161A399.3 399.3 0 0 1 138 629.7c19.8-13 40.9-23.9 63-32.3Z" fill="#e279c7"/><path d="M232.2 584.6c5.1-.3 10.3.6 15.4 1 .4.1.6.8 0 .9-9 1.9-18 4.5-26.9 7.1l-3.8 1.2c-10 3-19.8 6-29.6 10-19.4 7.9-37.8 18.5-54.8 30.8C67.2 682.8 20 754.3-9.9 828.3a526 526 0 0 0-24.3 77c-.4 1.6-2 5.4-1 7 .7 1.3 3.6 2.1 5 2.9l4.5 2.3 25.2 12.9 2.3 1.1c38 18.6 78.4 34.4 121 35.5l.4-3.7a342 342 0 0 1 9.9-60c.3-1 1.6-.6 1.7.3 3 23.1 2 46.4 1 69.7-1.8 41-4.3 82.2-6.5 123.3-1.2 20.6-2.6 41-3.9 61.7-1.3 20.5-1.7 41.6-4.7 62-.6 4.6-6 7-10 6.6-4.4-.5-7.9-4.5-8-9 0-11.9 1.5-24 2.4-35.8l2.5-33.8c3.1-41.1 6.8-82.2 10.2-123.3a4771 4771 0 0 1 3.8-43.7C76.4 979.8 34.2 963-6.1 943.5c-.6 13.2-2 26.5-3.4 39.6-3.8 36.8-7.1 73.6-9.6 110.5a2254.2 2254.2 0 0 0-4.2 92.7l-.2 7c0 4.4-.5 8.5-4.3 11.7-3.7 3.3-8.9 3.5-12.6 0-5-4.6-4.2-10.9-4-17.1a1675.6 1675.6 0 0 1 1.8-47.2 1321 1321 0 0 1 10.5-109.5l2-14c3.5-26 7.5-52.7 15.5-77.9-3.1-1.5-6.2-3-9.3-4.7-5.5-2.7-11.2-5.4-16.6-8.4-4.2-2.5-7.9-5.8-9-10.8-1.4-5.5.6-11.5 2-16.9v-.4a502 502 0 0 1 26.6-80 523.2 523.2 0 0 1 67.8-117 353.8 353.8 0 0 1 88.7-83.3 239 239 0 0 1 53.8-25.7 142.6 142.6 0 0 1 42.8-7.5Zm90.1-66c6-6.5 18.1.2 15.2 8.8a108.2 108.2 0 0 1-34.7 52A79.4 79.4 0 0 1 247 598l1.7 2.4a321.1 321.1 0 0 0 46.1 52.6c36 31.2 84.8 48 132 36 37.1-9.4 69.8-38.8 79.4-76.2-1.3.6-3 .9-4.8.5-7.7-1.7-15.3-9.8-20.3-15.6-5.3-6.3-9.5-13-12.6-20.7-5.6-14-7.4-32.1.3-45.7 1-1.7 3-.7 3.3 1l.3 2.5c1.5 12.7 3.3 25 9.3 36.6a76 76 0 0 0 18.2 23.1c2.6 2 5.8 3.6 8.1 6l.5.4c.6-5 4.1-7.3 7.6-7.2 3.3.2 7.3 1.6 8.8 2.3l.1.1a341 341 0 0 1 65.1 42 259 259 0 0 1 88.4 129c7.5 25.3 11.8 51.4 16.3 77.4l2.8 16c4.2 23.9 8.9 48.4 18.4 70.7 2.5 5.7.6 11.1-5.5 13.4A1493 1493 0 0 1 688 953c3.7 16 6 32.5 8.7 48.5 6 34.1 13.2 68 19.4 102 3.2 17.5 6.1 35 9.3 52.3l4.7 25.2 2.4 13.6.1.7c.5 2.4 1 4.9.4 7.3-.8 2.7-2.9 4.6-4.8 6.6-1.6 1.6-3.8 1.6-5.7.7l-.7-.3c-3.4-1.6-6-3.2-7.3-7-.7-2.5-1-5.2-1.5-7.7a3535.6 3535.6 0 0 1-7.8-43.6l-1.6-9.1c-5.2-31.4-10.2-62.9-12.8-94.5-1-14-2.3-28.1-3.5-42.2l-.9-10.5c-1.1-13.3-2.5-27-2.7-40.5l-4.5 1.6L657 964c-5.5 2-12.5 6-18.4 5.2-2.9-.3-5-1.2-6.8-2.9 2 28.8 4.8 57.4 8.5 86a1965.7 1965.7 0 0 0 22 135c.6 3.2 1.4 6.4 1.9 9.6.5 3.7-.5 5.9-2.5 9-1.7 2.4-5 3.7-7.8 2-3.6-2.3-5.5-4.3-6.5-8.4-1-3.7-1.6-7.6-2.3-11.4a1654.2 1654.2 0 0 1-11.4-65.2c-7.8-52-12.7-104.4-15.2-156.8a1388 1388 0 0 1-1.4-77.8c0-13.3.5-26.6 1.4-39.9 1-13.4 3-26.5 4.8-39.8 0-.5.7-.5.7 0 .8 14.9 2.1 29.8 2.8 44.7.6 14.3.9 28.5 1.4 42.8.6 18.7 1.5 37.5 2.7 56.2a9.6 9.6 0 0 1 8.5-3.1c4.7-1 9.7-3.4 14.1-5l16.8-5.5 26.4-8.7a679 679 0 0 1-18-80.8l-2-12.3c-4-24.2-8.5-48.5-15.8-72a229.8 229.8 0 0 0-34.8-68.2 370.2 370.2 0 0 0-52.7-55.3C557 627 539.7 614 523 600c.1.9.2 2 0 3-3.5 25.9-17 50-35.8 67.9-37.7 36-93.6 43.4-142 26.5-46.7-16.3-88-55-102.6-102.8-.3-.8.8-1 1.3-.5l2.4 3.3c0-.4.2-.9.7-1a129 129 0 0 0 46.6-29.2 100.2 100.2 0 0 0 21.3-33.3l.4-1c1.7-5 3.2-10.2 7-14.2Z" fill="#000000"/></g>

        <g id="head" transform="matrix(.99789 0 0 1 156 62)"><path id="skin" d="M287.4 509.5c-22.2.1-41-6.2-55.4-16.6-18-6.4-39.7-16.3-52.8-26.7-5.2 1.3-11.3-4.1-15.2-7-24.5-18.2-43.6-45-49.3-71.7-8.8 11-21.3 11.6-33.2 6-25-14.2-24.1-44-15.1-66.4-19-42.6-32.1-155-3.2-200.3 6-6.8 14.6-10.8 20.9-17.8 5.6-6 10.9-12.3 17.3-17 19.8-15.1 53.8-23.1 75.2-27 89-19.1 157.3 15.4 238 44.6a142 142 0 0 1-18.5 32c20 7.5 10.8 24.3-4.7 32.8l-9.2-4.5c14.4 51.6 47.5 179.8 33.2 221-11.4 64.1-61.5 119-128 118.6" fill="#694d3d"/><path id="hair" d="M86 309.8c-11.3 0-19.7 12.7-19.7 12.7H64C46.2 276.7 35 170.9 63 127.3c3-3.4 6.7-6.2 10.4-9A68 68 0 0 0 86 107c4.7-5.2 9.4-10.4 15-14.5 19.8-15 53.8-23 75.1-26.8C252.7 49 314 72.3 381 97.6c11 4.2 22 8.4 33.3 12.5a142 142 0 0 1-18.4 32c20 7.5 10.8 24.3-4.7 32.8l-6.9-3.3c-1.8-9.7-6.6-28.5-16.7-29.5-7.2-.7-19 6-30.4 12.5-10.3 6-20.4 11.7-26.7 11.7-5 0-17.4-4-33-9-26-8.4-60.8-19.6-83.8-19.6-36.8 0-68 30.4-80.5 52.4s18.5 49.3 18.5 49.3-18.5 23.7-18.5 34.1c0 10.4 4.3 42.9 4.3 42.9s-20-6.6-31.3-6.6Z" fill="#4f1a00"/><path d="M300.3 515c-28.9 3-63-3.9-82.3-27.3a3.6 3.6 0 0 1 2-5.8c.7-.2 1.5 0 2.4.4l1.8 1a115.7 115.7 0 0 0 87.7 15c27.6-6.3 50-22.4 66.4-43.5a162.5 162.5 0 0 0 32.2-83.7c3.5-36.4-4.5-72.5-12.6-107.7-8.6-37-18-73.8-29-110.2-.3-1.1-.3-2.1-.3-3-3.2-1.4-6.6-1-10 .1-6.2 2.2-12.4 6.9-17.6 10.8l-5.2 3.8a42.4 42.4 0 0 1-21.3 8c-8.1.6-16.1-2-23.6-5.1l-11.1-5c-10.5-4.7-20.9-9.4-32.2-12.5-15.2-4-31-6-46.7-6-28 .3-56.3 7.6-73.5 31.3-7 9.6-11.5 20.7-8 32.6a59 59 0 0 0 9.6 17.7l1.4 1.8c2.1 3 4 6 4.6 9.1.5 2.6.1 5.4-1.8 8.5a40 40 0 0 1-4.2 5.3c-1 1.3-2.2 2.5-3.1 3.8a48.9 48.9 0 0 0-4.9 8.6 50.8 50.8 0 0 0-4 18.7c-.2 7.7 1 15.2 2 22.8.7 5.4 1.5 10.7 1.8 16.2 0 1-.2 1.6-.6 2.1a3 3 0 0 1-2 1.2h-.8l.3 1.6a28.6 28.6 0 0 0-1.8-2c-.6-.4-1-.9-1.4-1.5l-2.6-2.2a27.6 27.6 0 0 0-16-5.8c-5.5 0-10.9 1.8-15 5.7C72.4 327.5 70 340.2 70 351c0 11 2.5 24.4 12.2 31.2 3.8 2.8 8.6 4.5 13.3 4.5 4 0 7.7-1.4 11.5-2.7l3.4-1.2c1.3-.4 2.5-.4 3.5 0 1.2.3 2.1 1 2.9 2a7 7 0 0 1 .4 7.8l2.1 3.5a220.5 220.5 0 0 0 27.3 37.8c6.2 6.6 12.8 12.8 20 18.3l1 .7c.7.5 1.4 1 2.1 1.7 2.1 1.7 4.7 4 7 4.1l1.9-.1c1.3-.2 2.5-.3 3.6.2.9.4 1.8 1 2.7 2.4a6.5 6.5 0 0 1 0 6.7 9.5 9.5 0 0 1-4.2 4 10 10 0 0 1-5.9.5c-5-1-10.7-5.2-14.3-8l-.7-.4c-8-6.1-15.5-12.8-22.1-20.3a126.6 126.6 0 0 1-26.6-44.3 25.2 25.2 0 0 1-13 3.7 44 44 0 0 1-19.5-4A42.8 42.8 0 0 1 56 370.6 71.7 71.7 0 0 1 59 326c-15.3-38.7-20-81.7-18.7-123a291 291 0 0 1 6.5-58.5c2-8.4 5.6-16.5 11.3-23.1 3.2-3.8 7.2-6.8 11.2-9.7 3.4-2.6 6.9-5.1 9.8-8.3l1.4-1.5.9-1c5-5.6 10-11 16-15.5 7.1-5.3 15-9.4 23-12.9a264.3 264.3 0 0 1 55-15.2C215.8 50 257.2 49.6 297 60a587 587 0 0 1 59.4 20l41.9 15.3 19.4 7.2a7 7 0 0 1 3.6 3 5 5 0 0 1 .4 4.5c-4 10-9 19.5-15.2 28.3a19.6 19.6 0 0 1 8.1 15.4c.3 12-10.6 20.1-19.6 26-.9.5-1.7.8-2.5 1 8.8 33.4 17.1 67 24.2 100.9l.5 2.3c7.4 35.4 12 71.6 5.2 107.4a169 169 0 0 1-41.6 83.8 128.6 128.6 0 0 1-80.5 39.9ZM110.5 311.3c-3.8-12-5.8-25-4.3-37.2a58.9 58.9 0 0 1 14.5-32.4l1-1.2c.5-.5 1-1 1.1-1.7.1-.4 0-.8-.2-1.3-.5-1.2-1.5-2.2-2.4-3.3l-1.6-2c-8.3-11.1-14.4-24.5-12.4-38.7 2-13.8 11-26.7 20.7-36.5C148 135.6 181 130.7 210 132a186.6 186.6 0 0 1 72.8 18l1.7.8c.9.5 1.8 1 2.7 1.3 5.8 3 11.7 5.8 18 7.4 12.5 3 21-3.4 29.8-9.9 3-2.2 6.2-4.5 9.4-6.4l.7-.4c6-3.5 13-5.8 19.8-5.7 6 .1 11.6 2 16.3 6.5 1 .9 1.5 1.9 1.7 2.9a8 8 0 0 1 1.2 2.6 8705 8705 0 0 1 5 18.7l1.3-.9c4-2.6 8.4-5.5 10.3-9.9.8-1.7.7-4.4-.3-6.5a4 4 0 0 0-1.4-1.7c-.4-.3-1-.5-1.6-.4-1.5.2-2.8 0-4-.5a6.7 6.7 0 0 1-3.1-2.7 6 6 0 0 1-1-4c.2-1.1.8-2.4 1.8-3.6 6.8-7.8 12.6-16.5 17-26L379 101l-30.8-11.4-5.6-2a466.2 466.2 0 0 0-57-18c-38.7-8.8-79-6.7-117.6 1.5l-2.3.5a202 202 0 0 0-47.5 15.2 84 84 0 0 0-20.2 13.7c-2.6 2.5-5 5.2-7.3 7.9A88 88 0 0 1 80 119l-3.6 2.9A42.2 42.2 0 0 0 63 137.5c-3.3 7.2-4.8 15-6 22.8-3.2 19.3-4.5 39-4.4 58.7.2 33 5.2 65.2 11.6 97.4 5-7.3 12.2-13 21.3-14.1a29 29 0 0 1 25 9Zm-9.6 39.1a38.5 38.5 0 0 0-20.8-2.2 3 3 0 0 1-2-.3c-.6-.4-1-1-1.3-1.6-.3-.7-.3-1.4 0-2.1.1-.6.6-1.2 1.4-1.6a43.6 43.6 0 0 1 24.6-4h.8c4.3.7 10.4 2 15 4.7 3.5 2 6.2 5 6.8 8.7.3 2-.1 4-1.3 5.5a5.8 5.8 0 0 1-4.9 2.3c-3.8-.1-6-1.7-8.7-3.8l-1-.8a36 36 0 0 0-8.6-4.8Z" fill="#000"/></g>

        <g id="face" transform="translate(315 248)"><path d="M190.580838,219.822602 C187.280979,224.137269 181.305753,227.441635 174.614228,229.021959 C168.237661,230.527902 161.190418,230.466453 155.108614,228.149072 L154.586539,227.941176 C150.039387,226.052673 145.674617,222.239371 144.017177,218.259853 C143.358193,216.67763 143.135243,215.069584 143.586238,213.568908 C143.991922,212.219001 144.943012,210.976582 146.527174,209.909206 C147.024517,209.574134 147.691645,209.549745 148.327216,209.661813 C149.115834,209.800867 149.893132,210.16984 150.362097,210.668116 C152.964096,213.434928 156.73898,216.132349 161.207084,216.086453 C164.654507,216.051103 167.469871,214.689827 170.200003,213.151437 L172.118441,212.052717 C173.969461,210.996565 175.846656,210.004165 177.970548,209.550964 C181.772426,208.739097 186.383724,210.222313 189.193828,212.669867 C190.419132,213.737086 191.309321,214.991561 191.551236,216.342614 C191.754414,217.477328 191.469083,218.661462 190.580838,219.822602 Z M170.814304,144.367155 C178.365682,148.9572 189.871664,159.660291 181.748119,171.039573 C172.185929,181.073062 158.418535,169.568982 151.634201,164.366134 C145.343449,160.333898 138.275437,170.704507 144.112,175.412823 C193.135736,211.708059 213.030606,145.567387 174.633685,138.970386 C170.406047,138.243425 168.835891,142.947174 170.814304,144.367155 Z M85.623,73.8212 L87.7924418,73.2263619 L90.0045001,72.6293513 L91.5003254,72.2338515 C101.775159,69.5444674 113.108082,67.1776694 123.297,68.3332 C127.013,68.7552 130.029,70.8462 130.555,74.7392 C130.998,78.0242 128.875,82.2622 125.262,82.8462 C113.295,84.7822 101.044,84.1542 89.022,86.1502 C83.035,87.1432 77.094,88.3762 71.13,89.4872 C66.595,90.3332 61.909,90.6302 57.335,91.3142 L58.386,91.4602 C58.754,91.5102 58.662,92.1292 58.299,92.1042 C56.791375,91.9537 55.2814531,91.9302937 53.7692344,92.035991 L53.121,92.0892 C52.134,92.2282 51.552,91.0502 52.432,90.4522 C58.005,86.6712 62.734,82.5732 68.974,79.7862 C74.371,77.3762 79.926,75.3892 85.623,73.8212 Z M179.1621,68.0224 C187.0621,60.0364 203.8621,63.1054 213.2601,66.7584 C218.6241,68.8444 223.7241,71.4814 227.9721,75.4264 L228.386213,75.8144925 L229.024136,76.4279569 C231.891581,79.2352765 235.089211,83.0982889 234.6341,87.1454 C234.5651,87.7624 234.2291,88.4674 233.5321,88.5914 C229.7681,89.2584 226.0711,87.2724 222.5951,86.0774 L220.293037,85.2874616 C216.836083,84.1099289 213.3571,82.9848545 209.7931,82.1724 C205.3611,81.1644 200.8401,80.5814 196.2901,80.6394 C191.6911,80.6994 186.7511,81.9974 182.3701,80.1714 C177.4841,78.1364 174.9511,72.2804 179.1621,68.0224 Z M101.116056,132.429995 C99.1003582,134.488343 96.4383728,135.649706 93.0314637,134.958836 C90.3692151,134.419447 85.3003252,131.742536 81.251062,127.620059 C78.4808238,124.799734 76.1645189,121.275596 75.5348483,117.193133 C75.3886144,116.245027 74.8854838,115.637224 74.2248528,115.254453 C73.7031014,114.952149 73.0151982,114.800275 72.2659115,114.876138 C71.6297705,114.940545 70.9542643,115.170885 70.4322827,115.476318 C69.4393366,116.057332 69.0332625,116.882185 68.9507107,117.498123 C68.1541083,123.441745 70.4499798,129.339186 74.0286493,134.311705 C78.8582802,141.02242 85.9507822,145.940005 90.1194807,147.091006 C97.2532735,149.061815 104.770166,147.49291 110.31224,142.527816 C114.744111,138.55788 117.01573,133.385744 119.123418,128.067181 L119.529847,127.036237 C120.003893,125.829408 120.474351,124.631454 120.972784,123.446204 C121.971768,121.071164 121.651825,119.018235 120.683197,117.41812 C119.610133,115.645482 117.629461,114.397695 115.424424,114.014451 C113.386375,113.660232 111.205318,114.047672 109.483593,115.292567 C108.029146,116.344207 106.856231,118.01047 106.439508,120.474443 C105.761825,124.480999 104.189738,129.077997 101.417669,132.111101 L101.116056,132.429995 Z M223.440775,109.240446 C221.778563,108.374347 220.478145,108.113213 218.634261,108.665656 C217.614596,108.971929 216.606823,109.558916 215.817824,110.347916 C215.035882,111.129857 214.471712,112.102263 214.252419,113.181012 C213.713072,115.843338 212.256412,118.335447 210.18061,119.960058 C208.406384,121.348643 206.16691,122.084626 203.68291,121.669413 C201.002485,121.221959 198.448729,119.502882 196.689869,117.476128 C196.199984,116.910971 195.798335,116.281896 195.409968,115.645177 L195.177941,115.262679 C194.311333,113.831986 193.469024,112.502121 192.273843,111.451439 C191.82079,111.051686 191.138107,110.774816 190.476901,110.774816 C190.208169,110.774816 189.935444,110.818544 189.675563,110.899539 C187.007679,113.577235 186.494623,115.608542 186.580635,117.62333 C186.670832,119.736131 187.503809,121.875322 188.849905,123.871251 C192.007516,128.553207 198.002761,132.391976 202.048399,133.261475 C207.588873,134.452107 213.091225,133.022832 217.502758,129.928348 C222.041966,126.744306 225.405508,121.80078 226.454161,116.229671 C226.706431,114.887916 226.599231,113.439644 226.088238,112.183929 C225.588922,110.956906 224.71878,109.905984 223.440775,109.240446 Z" id="ðŸ–-Ink" fill="#000000"/></g>

        <g id="facial-hair" transform="translate(279 400)"><path d="M258.6349,38.6644 C252.0409,37.4254 245.2239,37.7734 238.6739,36.3314 C232.2839,34.9234 227.2089,30.7364 221.0349,28.7874 C215.6019,27.0714 209.2339,28.2334 205.0029,31.5594 C201.0719,29.7424 196.6049,29.3494 192.1329,29.9494 C185.3509,30.8594 179.0229,33.7294 172.9819,36.8334 C172.2819,37.1934 171.5809,37.5364 170.8809,37.8834 C159.7189,37.6044 148.2759,37.6264 137.3229,40.0184 C127.6239,42.1374 118.4549,47.0694 112.6709,55.3074 C106.1979,64.5284 105.0289,76.2704 104.0309,87.1664 C103.3959,94.0824 113.0019,95.4854 116.2569,90.4774 C119.6319,85.2854 123.1449,80.0814 127.6419,75.7794 C132.7499,70.8924 138.9629,68.9684 145.9259,68.5224 C161.2939,67.5384 176.7639,68.3634 192.1469,67.6824 C201.0639,67.2874 210.9919,63.8584 214.5859,56.1064 C218.4219,62.1174 227.1139,65.6914 234.2629,66.2334 C241.8179,66.8074 249.4889,65.4344 256.9689,67.0084 C264.1149,68.5124 272.6089,73.8344 271.0199,82.3464 C270.0859,87.3464 276.4069,90.2944 279.3159,85.8444 C291.1949,67.6614 279.4899,42.5854 258.6349,38.6644" id="ðŸ–-Ink" fill="#000000"/></g>

        <g id="eyewear" transform="translate(203 303)"><path d="M398.9346,13.2313 C398.1116,13.0943 397.2876,12.9653 396.4636,12.8443 C395.8206,12.4793 395.0656,12.1983 394.1876,12.0293 C392.1826,11.5203 390.1916,11.1773 388.2036,10.9923 C359.6716,4.5713 293.6646,13.6883 290.9406,38.0363 C281.8546,41.0693 273.9926,38.3533 263.4616,38.6233 C255.4456,5.1183 116.8626,9.8473 110.1976,30.0473 C110.1726,30.0403 110.1476,30.0343 110.1216,30.0263 C103.7176,28.0443 94.2766,28.5223 86.9466,28.2083 C71.2956,27.8803 55.6266,29.2753 40.3136,32.5763 C11.6386,37.1333 -27.4964,42.4683 -7.5534,78.2763 C-7.5494,78.2823 -7.5464,78.2893 -7.5414,78.2953 L-7.5384,78.2923 C-4.1014,81.8153 1.7316,78.9783 1.9486,74.2093 C-4.7564,57.2453 10.3876,55.2083 22.0396,50.3333 C51.0326,39.9173 80.5506,38.4733 110.5366,41.6953 C112.7926,44.3513 116.2156,46.6673 119.8336,47.8793 C139.8826,51.2073 129.3166,66.0793 141.9896,68.2423 C139.6616,120.0843 202.6026,148.3823 239.0716,114.3033 C253.6326,100.0673 257.1036,78.9783 260.4796,59.9693 C262.2646,59.5683 263.3996,58.5923 264.0626,57.3003 C268.3556,53.0143 271.0526,49.0563 279.5416,47.8793 C288.0306,46.7033 294.5656,49.0643 295.4496,49.7873 C295.6726,50.2363 295.9116,50.6863 296.1896,51.1363 C296.5776,51.8073 297.1056,52.3423 297.7056,52.7633 C289.3226,104.3873 329.3996,137.0353 369.8586,110.2603 C387.4386,93.7233 391.1536,68.4053 391.8876,45.8073 C394.2706,44.3693 395.7796,41.5823 394.9546,38.0783 C393.8176,33.2483 396.4836,29.0663 400.7296,26.9663 C406.2466,24.2393 405.2706,14.2803 398.9346,13.2313 M225.086988,37.7223618 C220.065054,36.6178235 217.920374,44.3606372 222.95832,45.4681879 C226.525804,46.252514 229.549376,48.0515396 231.592155,51.0993468 L231.807252,51.4306867 C234.548399,55.792609 241.479828,51.7660647 238.719666,47.3760269 C235.614234,42.4357281 230.788453,38.9755108 225.086988,37.7223618 Z M372.1732,32.9216366 C370.402814,31.6745124 367.723715,32.6003163 366.69591,34.362557 C365.564701,36.303111 366.306135,38.4637159 367.964208,39.7331967 L368.133036,39.8571332 C369.653907,40.9290575 371.135119,42.8505012 371.321131,44.8192514 L371.337546,45.0655335 C371.536702,50.2177028 379.543974,50.24381 379.343817,45.0655335 C379.148664,39.999719 376.215367,35.767329 372.1732,32.9216366 Z" id="ðŸ–-Ink" fill="#000000"/></g>
    </g>
</svg>