<svg xmlns="http://www.w3.org/2000/svg" viewBox="0 0 704 704" fill="none" width="512" height="512">
    <desc>"Open Peeps" by "Pablo Stanley", licensed under "CC0 1.0". / Remix of the original.</desc>
    <mask id="viewbox"><rect width="704" height="704" rx="0" ry="0" x="0" y="0" fill="#ffffff" /></mask>
    <g mask="url(#viewbox)">
        <rect id="background" fill="#ffd5dc" width="704" height="704" x="0" y="0" />

        <g id="body"><path id="skin" d="M705.3 1074a2351.1 2351.1 0 0 1-15.6-101c-1-7.7-2.5-16.4 2.7-22 7.3-8 14-14.8 14.8-26.2.8-10.7-2.8-22.4-5-32.8a809.4 809.4 0 0 0-17.3-64.7c-6.6-21.7-13.9-43.2-21.3-64.6-6.9-20-13.5-40.3-22.5-59.5-17-36.5-46-63.5-81.6-81.6-9-4.5-27-20.5-36.3-24-8.5-3.4-8.5 6.3-16.9 2.6-6.7-2.9-13-6.7-16.7-13.2-4-7-14.3-16.9-15.9-25-3.3-17.4.3-32.2-12-45.3a90 90 0 0 0-41.1-23.8c-33.7-9.3-78.5-2.8-98.8 28.5-9.7 14.9-13 33-26.2 45.1-11.4 10.7-8.8 18-23.6 23.4-.9.3-23.6-4.5-24.4-4.2-16.2-3.5-31.7 6.2-46.5 11.8a325.4 325.4 0 0 0-63 32.3 399.2 399.2 0 0 0-102.3 98.5 482.5 482.5 0 0 0-76.4 161c-1.7 6.4-3.5 13-1.5 19.4 1.7 5.3 5.4 9.2 9.8 12.4 6 4.3 18 7 17.7 15.7-.1 6.6-2.4 13.5-3.5 20-1.3 7.7-2.3 15.5-3.4 23.2-4.8 35.4-8.6 71-10.3 106.6a920 920 0 0 0-.5 106c.1 2.3.8 4.5 2 6.2-1 .4-1.2 2.4.1 2.7l2.7.5a12 12 0 0 0 7 2.4l5.5.2c19.3 4 38.6 7.9 58.1 10.8 23.8 3.5 47.6 6.3 71.5 8.7 49.2 4.8 98 3.2 147.1.6a1877 1877 0 0 1 147.4-2c49.2 1.4 98.4 3.5 147.6 4.4 55 1 110-.5 164.8-5 7.5-.5 12.2-6.5 10.7-14-8.9-44.7-19-89.1-27-134Z" fill="#edb98a"/><path id="shirt" d="m201 597.5 1.2-.4c14.5-5.7 29.6-14.8 45.4-11.4.5-.2 10.8 1.9 17.9 3.2l-6.7 7L247 598c40.7 67.1 88.8 100.7 144.3 100.7 55.5 0 97.7-33.6 126.4-100.7l4-1c.4 0 1 .2 1.5.4 9.3 3.6 27.4 19.6 36.3 24.1 35.6 18 64.5 45 81.6 81.6 8.7 18.6 15.2 38 21.8 57.5l.7 2c7.4 21.4 14.7 43 21.3 64.6 6.3 20.4 12 41 16.6 61.8l.7 2.9c2.2 10.4 5.8 22 5 32.8a29 29 0 0 1-3 10.7l-80.4 29 38.4 261.3c-35.1 1.5-70.3 2-105.5 1.3-49.2-.9-98.4-3-147.6-4.3-47.7-1.2-95.3-.7-143 1.7l-12 .6a946.3 946.3 0 0 1-139.5-1l-3.1-.3v-38.3l16.3-212.9-83-15.6-81.3-39.5a21.7 21.7 0 0 1-5.6-8.8c-1.9-6-.5-12 1-18l.5-1.3a492.8 492.8 0 0 1 76.4-161A399.3 399.3 0 0 1 138 629.7c19.8-13 40.9-23.9 63-32.3Z" fill="#78e185"/><path d="M232.2 584.6c5.1-.3 10.3.6 15.4 1 .4.1.6.8 0 .9-9 1.9-18 4.5-26.9 7.1l-3.8 1.2c-10 3-19.8 6-29.6 10-19.4 7.9-37.8 18.5-54.8 30.8C67.2 682.8 20 754.3-9.9 828.3a526 526 0 0 0-24.3 77c-.4 1.6-2 5.4-1 7 .7 1.3 3.6 2.1 5 2.9l4.5 2.3 25.2 12.9 2.3 1.1c38 18.6 78.4 34.4 121 35.5l.4-3.7a342 342 0 0 1 9.9-60c.3-1 1.6-.6 1.7.3 3 23.1 2 46.4 1 69.7-1.8 41-4.3 82.2-6.5 123.3-1.2 20.6-2.6 41-3.9 61.7-1.3 20.5-1.7 41.6-4.7 62-.6 4.6-6 7-10 6.6-4.4-.5-7.9-4.5-8-9 0-11.9 1.5-24 2.4-35.8l2.5-33.8c3.1-41.1 6.8-82.2 10.2-123.3a4771 4771 0 0 1 3.8-43.7C76.4 979.8 34.2 963-6.1 943.5c-.6 13.2-2 26.5-3.4 39.6-3.8 36.8-7.1 73.6-9.6 110.5a2254.2 2254.2 0 0 0-4.2 92.7l-.2 7c0 4.4-.5 8.5-4.3 11.7-3.7 3.3-8.9 3.5-12.6 0-5-4.6-4.2-10.9-4-17.1a1675.6 1675.6 0 0 1 1.8-47.2 1321 1321 0 0 1 10.5-109.5l2-14c3.5-26 7.5-52.7 15.5-77.9-3.1-1.5-6.2-3-9.3-4.7-5.5-2.7-11.2-5.4-16.6-8.4-4.2-2.5-7.9-5.8-9-10.8-1.4-5.5.6-11.5 2-16.9v-.4a502 502 0 0 1 26.6-80 523.2 523.2 0 0 1 67.8-117 353.8 353.8 0 0 1 88.7-83.3 239 239 0 0 1 53.8-25.7 142.6 142.6 0 0 1 42.8-7.5Zm90.1-66c6-6.5 18.1.2 15.2 8.8a108.2 108.2 0 0 1-34.7 52A79.4 79.4 0 0 1 247 598l1.7 2.4a321.1 321.1 0 0 0 46.1 52.6c36 31.2 84.8 48 132 36 37.1-9.4 69.8-38.8 79.4-76.2-1.3.6-3 .9-4.8.5-7.7-1.7-15.3-9.8-20.3-15.6-5.3-6.3-9.5-13-12.6-20.7-5.6-14-7.4-32.1.3-45.7 1-1.7 3-.7 3.3 1l.3 2.5c1.5 12.7 3.3 25 9.3 36.6a76 76 0 0 0 18.2 23.1c2.6 2 5.8 3.6 8.1 6l.5.4c.6-5 4.1-7.3 7.6-7.2 3.3.2 7.3 1.6 8.8 2.3l.1.1a341 341 0 0 1 65.1 42 259 259 0 0 1 88.4 129c7.5 25.3 11.8 51.4 16.3 77.4l2.8 16c4.2 23.9 8.9 48.4 18.4 70.7 2.5 5.7.6 11.1-5.5 13.4A1493 1493 0 0 1 688 953c3.7 16 6 32.5 8.7 48.5 6 34.1 13.2 68 19.4 102 3.2 17.5 6.1 35 9.3 52.3l4.7 25.2 2.4 13.6.1.7c.5 2.4 1 4.9.4 7.3-.8 2.7-2.9 4.6-4.8 6.6-1.6 1.6-3.8 1.6-5.7.7l-.7-.3c-3.4-1.6-6-3.2-7.3-7-.7-2.5-1-5.2-1.5-7.7a3535.6 3535.6 0 0 1-7.8-43.6l-1.6-9.1c-5.2-31.4-10.2-62.9-12.8-94.5-1-14-2.3-28.1-3.5-42.2l-.9-10.5c-1.1-13.3-2.5-27-2.7-40.5l-4.5 1.6L657 964c-5.5 2-12.5 6-18.4 5.2-2.9-.3-5-1.2-6.8-2.9 2 28.8 4.8 57.4 8.5 86a1965.7 1965.7 0 0 0 22 135c.6 3.2 1.4 6.4 1.9 9.6.5 3.7-.5 5.9-2.5 9-1.7 2.4-5 3.7-7.8 2-3.6-2.3-5.5-4.3-6.5-8.4-1-3.7-1.6-7.6-2.3-11.4a1654.2 1654.2 0 0 1-11.4-65.2c-7.8-52-12.7-104.4-15.2-156.8a1388 1388 0 0 1-1.4-77.8c0-13.3.5-26.6 1.4-39.9 1-13.4 3-26.5 4.8-39.8 0-.5.7-.5.7 0 .8 14.9 2.1 29.8 2.8 44.7.6 14.3.9 28.5 1.4 42.8.6 18.7 1.5 37.5 2.7 56.2a9.6 9.6 0 0 1 8.5-3.1c4.7-1 9.7-3.4 14.1-5l16.8-5.5 26.4-8.7a679 679 0 0 1-18-80.8l-2-12.3c-4-24.2-8.5-48.5-15.8-72a229.8 229.8 0 0 0-34.8-68.2 370.2 370.2 0 0 0-52.7-55.3C557 627 539.7 614 523 600c.1.9.2 2 0 3-3.5 25.9-17 50-35.8 67.9-37.7 36-93.6 43.4-142 26.5-46.7-16.3-88-55-102.6-102.8-.3-.8.8-1 1.3-.5l2.4 3.3c0-.4.2-.9.7-1a129 129 0 0 0 46.6-29.2 100.2 100.2 0 0 0 21.3-33.3l.4-1c1.7-5 3.2-10.2 7-14.2Z" fill="#000000"/></g>

        <g id="head" transform="matrix(.99789 0 0 1 156 62)"><path id="skin" d="M287.4 509.5c-22.2.1-41-6.2-55.4-16.6-18-6.4-39.7-16.3-52.8-26.7-5.2 1.3-11.3-4.1-15.2-7-24.5-18.2-43.6-45-49.3-71.7-8.8 11-21.3 11.6-33.2 6-25-14.2-24.1-44-15.1-66.4-19-42.6-32.1-155-3.2-200.3 6-6.8 14.6-10.8 20.9-17.8 5.6-6 10.9-12.3 17.3-17 19.8-15.1 53.8-23.1 75.2-27 89-19.1 157.3 15.4 238 44.6a142 142 0 0 1-18.5 32c20 7.5 10.8 24.3-4.7 32.8l-9.2-4.5c14.4 51.6 47.5 179.8 33.2 221-11.4 64.1-61.5 119-128 118.6" fill="#edb98a"/><path id="hair" d="M86 309.8c-11.3 0-19.7 12.7-19.7 12.7H64C46.2 276.7 35 170.9 63 127.3c3-3.4 6.7-6.2 10.4-9A68 68 0 0 0 86 107c4.7-5.2 9.4-10.4 15-14.5 19.8-15 53.8-23 75.1-26.8C252.7 49 314 72.3 381 97.6c11 4.2 22 8.4 33.3 12.5a142 142 0 0 1-18.4 32c20 7.5 10.8 24.3-4.7 32.8l-6.9-3.3c-1.8-9.7-6.6-28.5-16.7-29.5-7.2-.7-19 6-30.4 12.5-10.3 6-20.4 11.7-26.7 11.7-5 0-17.4-4-33-9-26-8.4-60.8-19.6-83.8-19.6-36.8 0-68 30.4-80.5 52.4s18.5 49.3 18.5 49.3-18.5 23.7-18.5 34.1c0 10.4 4.3 42.9 4.3 42.9s-20-6.6-31.3-6.6Z" fill="#aa8866"/><path d="M300.3 515c-28.9 3-63-3.9-82.3-27.3a3.6 3.6 0 0 1 2-5.8c.7-.2 1.5 0 2.4.4l1.8 1a115.7 115.7 0 0 0 87.7 15c27.6-6.3 50-22.4 66.4-43.5a162.5 162.5 0 0 0 32.2-83.7c3.5-36.4-4.5-72.5-12.6-107.7-8.6-37-18-73.8-29-110.2-.3-1.1-.3-2.1-.3-3-3.2-1.4-6.6-1-10 .1-6.2 2.2-12.4 6.9-17.6 10.8l-5.2 3.8a42.4 42.4 0 0 1-21.3 8c-8.1.6-16.1-2-23.6-5.1l-11.1-5c-10.5-4.7-20.9-9.4-32.2-12.5-15.2-4-31-6-46.7-6-28 .3-56.3 7.6-73.5 31.3-7 9.6-11.5 20.7-8 32.6a59 59 0 0 0 9.6 17.7l1.4 1.8c2.1 3 4 6 4.6 9.1.5 2.6.1 5.4-1.8 8.5a40 40 0 0 1-4.2 5.3c-1 1.3-2.2 2.5-3.1 3.8a48.9 48.9 0 0 0-4.9 8.6 50.8 50.8 0 0 0-4 18.7c-.2 7.7 1 15.2 2 22.8.7 5.4 1.5 10.7 1.8 16.2 0 1-.2 1.6-.6 2.1a3 3 0 0 1-2 1.2h-.8l.3 1.6a28.6 28.6 0 0 0-1.8-2c-.6-.4-1-.9-1.4-1.5l-2.6-2.2a27.6 27.6 0 0 0-16-5.8c-5.5 0-10.9 1.8-15 5.7C72.4 327.5 70 340.2 70 351c0 11 2.5 24.4 12.2 31.2 3.8 2.8 8.6 4.5 13.3 4.5 4 0 7.7-1.4 11.5-2.7l3.4-1.2c1.3-.4 2.5-.4 3.5 0 1.2.3 2.1 1 2.9 2a7 7 0 0 1 .4 7.8l2.1 3.5a220.5 220.5 0 0 0 27.3 37.8c6.2 6.6 12.8 12.8 20 18.3l1 .7c.7.5 1.4 1 2.1 1.7 2.1 1.7 4.7 4 7 4.1l1.9-.1c1.3-.2 2.5-.3 3.6.2.9.4 1.8 1 2.7 2.4a6.5 6.5 0 0 1 0 6.7 9.5 9.5 0 0 1-4.2 4 10 10 0 0 1-5.9.5c-5-1-10.7-5.2-14.3-8l-.7-.4c-8-6.1-15.5-12.8-22.1-20.3a126.6 126.6 0 0 1-26.6-44.3 25.2 25.2 0 0 1-13 3.7 44 44 0 0 1-19.5-4A42.8 42.8 0 0 1 56 370.6 71.7 71.7 0 0 1 59 326c-15.3-38.7-20-81.7-18.7-123a291 291 0 0 1 6.5-58.5c2-8.4 5.6-16.5 11.3-23.1 3.2-3.8 7.2-6.8 11.2-9.7 3.4-2.6 6.9-5.1 9.8-8.3l1.4-1.5.9-1c5-5.6 10-11 16-15.5 7.1-5.3 15-9.4 23-12.9a264.3 264.3 0 0 1 55-15.2C215.8 50 257.2 49.6 297 60a587 587 0 0 1 59.4 20l41.9 15.3 19.4 7.2a7 7 0 0 1 3.6 3 5 5 0 0 1 .4 4.5c-4 10-9 19.5-15.2 28.3a19.6 19.6 0 0 1 8.1 15.4c.3 12-10.6 20.1-19.6 26-.9.5-1.7.8-2.5 1 8.8 33.4 17.1 67 24.2 100.9l.5 2.3c7.4 35.4 12 71.6 5.2 107.4a169 169 0 0 1-41.6 83.8 128.6 128.6 0 0 1-80.5 39.9ZM110.5 311.3c-3.8-12-5.8-25-4.3-37.2a58.9 58.9 0 0 1 14.5-32.4l1-1.2c.5-.5 1-1 1.1-1.7.1-.4 0-.8-.2-1.3-.5-1.2-1.5-2.2-2.4-3.3l-1.6-2c-8.3-11.1-14.4-24.5-12.4-38.7 2-13.8 11-26.7 20.7-36.5C148 135.6 181 130.7 210 132a186.6 186.6 0 0 1 72.8 18l1.7.8c.9.5 1.8 1 2.7 1.3 5.8 3 11.7 5.8 18 7.4 12.5 3 21-3.4 29.8-9.9 3-2.2 6.2-4.5 9.4-6.4l.7-.4c6-3.5 13-5.8 19.8-5.7 6 .1 11.6 2 16.3 6.5 1 .9 1.5 1.9 1.7 2.9a8 8 0 0 1 1.2 2.6 8705 8705 0 0 1 5 18.7l1.3-.9c4-2.6 8.4-5.5 10.3-9.9.8-1.7.7-4.4-.3-6.5a4 4 0 0 0-1.4-1.7c-.4-.3-1-.5-1.6-.4-1.5.2-2.8 0-4-.5a6.7 6.7 0 0 1-3.1-2.7 6 6 0 0 1-1-4c.2-1.1.8-2.4 1.8-3.6 6.8-7.8 12.6-16.5 17-26L379 101l-30.8-11.4-5.6-2a466.2 466.2 0 0 0-57-18c-38.7-8.8-79-6.7-117.6 1.5l-2.3.5a202 202 0 0 0-47.5 15.2 84 84 0 0 0-20.2 13.7c-2.6 2.5-5 5.2-7.3 7.9A88 88 0 0 1 80 119l-3.6 2.9A42.2 42.2 0 0 0 63 137.5c-3.3 7.2-4.8 15-6 22.8-3.2 19.3-4.5 39-4.4 58.7.2 33 5.2 65.2 11.6 97.4 5-7.3 12.2-13 21.3-14.1a29 29 0 0 1 25 9Zm-9.6 39.1a38.5 38.5 0 0 0-20.8-2.2 3 3 0 0 1-2-.3c-.6-.4-1-1-1.3-1.6-.3-.7-.3-1.4 0-2.1.1-.6.6-1.2 1.4-1.6a43.6 43.6 0 0 1 24.6-4h.8c4.3.7 10.4 2 15 4.7 3.5 2 6.2 5 6.8 8.7.3 2-.1 4-1.3 5.5a5.8 5.8 0 0 1-4.9 2.3c-3.8-.1-6-1.7-8.7-3.8l-1-.8a36 36 0 0 0-8.6-4.8Z" fill="#000"/></g>

        <g id="face" transform="translate(315 248)"><path d="M126.149889,196.292214 C131.744002,187.090211 143.667824,209.632062 144.934713,213.508101 C146.056772,216.941676 146.797464,220.458991 147.173947,224.017014 C151.510872,224.989057 156.01445,224.990851 160.458249,224.139019 C167.062878,222.871873 171.100325,219.321223 176.840498,216.27243 C180.80528,214.165719 185.802087,216.636182 187.863888,220.130132 C190.289134,224.242684 188.744036,228.511189 185.554301,231.577101 C179.505319,237.390824 167.603613,238.726425 159.707644,237.182493 C155.183676,236.298273 151.03744,234.601718 147.375949,232.136142 C147.351679,232.596242 147.335471,233.056465 147.299179,233.515885 L147.229265,234.312833 C146.622587,240.760805 144.850336,248.868644 139.841994,253.064289 C131.627701,259.946669 121.490148,246.710667 129.471775,239.836072 L129.719209,239.629726 C134.680373,235.621175 135.762718,224.866141 135.495556,218.942309 C135.320385,215.075928 134.616096,211.160035 133.395334,207.477648 L133.144299,206.744368 C132.776832,205.704151 128.770187,195.83676 127.322375,197.093402 L127.253261,197.164261 C126.656242,197.877109 125.691416,197.04675 126.149889,196.292214 Z M170.814304,144.367155 C178.365682,148.9572 189.871664,159.660291 181.748119,171.039573 C172.185929,181.073062 158.418535,169.568982 151.634201,164.366134 C145.343449,160.333898 138.275437,170.704507 144.112,175.412823 C193.135736,211.708059 213.030606,145.567387 174.633685,138.970386 C170.406047,138.243425 168.835891,142.947174 170.814304,144.367155 Z M90.1787,101.9403 C97.5587,100.6313 105.1187,102.4663 111.2257,106.7843 L111.688541,107.117181 C117.57206,111.42005 124.154854,118.975479 120.7787,126.3923 C119.4237,129.3703 115.3657,129.8373 112.7907,128.4873 C108.5037,126.2393 107.7267,120.7083 103.9017,117.6473 C100.7647,115.1383 96.5407,113.6163 92.5007,113.9833 C83.0097,114.8453 77.1717,124.2063 74.2237,132.2733 C73.8467,133.3053 72.3317,133.7063 71.7397,132.5983 C64.7887,119.6063 77.0927,104.2623 90.1787,101.9403 Z M208.3893,97.0373 C222.5263,95.8723 239.0733,110.5283 235.3513,125.4503 C233.5663,132.6103 222.9453,132.4053 221.0573,125.4503 C220.0183,121.6233 220.1223,118.2373 217.3673,115.0593 C215.0933,112.4353 211.8623,110.9113 208.3893,111.1453 C204.5613,111.4033 201.0303,113.3163 198.3473,116.0053 C195.9243,118.4333 194.4753,121.9863 191.9653,124.1353 C191.3473,124.6633 190.5203,124.6973 189.9103,124.1353 C185.5903,120.1523 188.1833,111.8603 190.9223,107.7023 C194.8423,101.7523 201.2253,97.6283 208.3893,97.0373 Z M63.2578,75.4751 C72.3268,67.4471 88.8058,59.6941 101.0348,63.6451 C108.0658,65.9161 111.1308,77.2451 103.2818,80.8361 C94.1928,84.9941 83.7138,83.3021 74.4628,87.6121 C70.5778,89.4231 66.9238,91.6861 64.2188,95.0051 C62.0878,97.6211 59.9198,101.0631 56.8378,102.5711 C56.0278,102.9681 54.9308,102.9781 54.2818,102.2421 C47.5258,94.6001 57.3588,80.6961 63.2578,75.4751 Z M192.8016,63.2466 C198.4066,61.6736 204.6246,61.7056 210.3186,62.6936 C216.0106,63.6816 221.7896,66.0406 226.4366,69.4816 L226.976058,69.8845105 C232.049154,73.7073503 238.103014,79.2694621 237.7786,86.0416 C237.5076,91.6966 231.5586,95.5216 226.4226,92.5576 C222.2356,90.1406 220.2656,85.2986 216.7206,82.0746 C213.7956,79.4136 210.3596,77.3156 206.6936,75.8456 C202.6216,74.2126 198.5426,73.4476 194.1726,73.3746 C190.8076,73.3186 187.4226,74.4226 184.1206,74.7756 C184.3926,75.3336 181.7826,75.0736 180.2866,74.5786 C179.1786,74.1066 179.1726,72.7056 179.5566,71.7966 C181.4616,67.2936 188.3926,64.4826 192.8016,63.2466 Z" id="ðŸ–-Ink" fill="#000000"/></g>

        <g id="facial-hair" transform="translate(279 400)"><path d="M305.2686,13.0048 C301.9546,8.5558 295.9976,2.7168 289.9716,3.0308 C289.2006,3.0708 288.9116,3.9058 289.3746,4.4708 C291.3456,6.8778 294.0386,8.5898 296.0136,11.0468 C298.3506,13.9548 300.0376,17.4618 301.1346,21.0088 C302.7286,26.1618 303.1686,31.9938 301.7476,37.2338 C299.2436,46.4698 291.3266,53.2398 282.6886,56.6968 C274.1386,60.1188 263.8506,61.2878 255.7646,56.2738 C243.8296,48.8718 233.7066,38.2018 218.7056,37.9908 C215.1966,37.9418 212.7236,39.5488 211.2506,41.8428 C209.7706,39.6308 207.3286,38.0658 203.9076,38.0268 C187.0906,37.8378 174.5386,49.4148 160.4236,56.6318 C150.8846,61.5098 138.5416,59.9958 128.7006,56.7728 C119.4176,53.7338 109.3406,47.6308 105.8386,37.9938 C103.9056,32.6718 104.3386,26.4578 106.3236,21.2118 C107.6286,17.7618 109.6436,14.4288 112.1366,11.7178 C114.7216,8.9058 118.1196,7.1378 120.7676,4.4718 C121.3086,3.9268 120.8816,3.0798 120.1706,3.0308 C108.9246,2.2678 98.7696,15.6958 96.6466,25.4378 C94.5556,35.0318 97.6736,44.6008 103.9846,51.9218 C116.8176,66.8058 140.5796,71.7148 159.0736,67.3408 C174.0426,63.8018 188.2596,55.6498 203.9076,56.8198 C207.3376,57.0768 209.7996,55.6468 211.2856,53.4788 C212.7736,55.7098 215.2516,57.1688 218.7056,56.8348 C233.2896,55.4218 246.3066,65.7498 260.4626,68.2718 C271.7336,70.2788 283.9086,67.5718 293.5666,61.4998 C303.6616,55.1528 310.7676,44.9718 311.2356,32.8338 C311.5046,25.8508 309.4556,18.6258 305.2686,13.0048" id="ðŸ–-Ink" fill="#000000"/></g>

        <g id="eyewear" transform="translate(203 303)"><path d="M389.0901,63.2824 C379.5561,127.7714 313.0021,134.9034 301.1771,70.8814 C303.0751,70.0504 304.4401,68.4144 304.1551,65.2384 C304.0881,51.2864 308.4191,36.5404 321.0051,28.7814 C334.0111,20.7754 349.2321,19.9814 364.2831,20.1834 C393.0051,19.4994 392.4011,43.5064 389.0901,63.2824 M290.7581,35.2354 C281.7441,34.8554 270.3401,35.1734 262.2651,40.6654 C260.0451,34.6874 254.2771,28.3044 248.4491,24.8914 C270.1111,25.5254 292.4091,23.3934 314.2331,21.7384 C309.0091,25.2994 304.1491,30.6494 300.9901,36.8344 C298.0591,35.2714 293.8611,35.4174 290.7581,35.2354 M251.0261,70.1194 C226.0311,156.1554 163.6401,118.6554 156.8381,107.6294 C144.5691,89.3834 142.2611,45.0294 152.9481,33.1704 C168.2461,22.4464 189.9031,25.2064 207.9751,24.9434 C241.1761,25.3914 264.7561,35.3234 251.0261,70.1194 M418.6031,30.5484 C411.8121,29.6604 404.5551,29.4814 398.2411,32.4714 C396.2971,24.2084 390.1941,17.3004 383.3031,14.2604 C382.4691,13.2144 382.5941,12.6524 379.7451,12.8094 C362.2501,7.5514 342.6731,10.3334 325.8611,15.7254 C299.3091,17.9614 271.4521,19.7244 244.6771,22.8054 C219.5951,11.5414 143.9021,9.8904 139.1981,37.6534 C133.2811,36.7684 123.2041,32.1114 118.2321,38.4284 C81.7611,32.2454 44.0761,40.8384 7.4471,44.6654 C-1.7729,46.3634 -6.5219,64.6614 3.9441,64.4114 C9.8281,62.8144 3.7631,53.0174 11.6861,52.2804 C47.0271,48.4204 81.5951,42.9444 117.2981,42.3034 C116.0561,48.4684 140.9121,48.8694 141.2791,45.2694 C141.3321,45.2964 141.3881,45.3144 141.4421,45.3384 C135.3001,68.2284 140.8441,101.1704 151.9441,115.3644 C167.4961,133.9504 206.5411,139.2824 223.8541,127.3244 C246.1871,116.2874 269.4201,60.8854 262.8941,42.4794 C274.7381,38.7254 286.4471,39.8524 298.7391,41.7644 C295.9251,49.7134 291.0671,69.2814 298.0561,70.9784 C296.7731,109.8284 332.1301,134.0694 364.7241,118.1324 C392.9351,104.8894 402.8011,62.9714 399.3491,37.5284 C402.8611,44.3144 432.3491,36.9264 418.6031,30.5484" id="ðŸ–-Ink" fill="#000000"/></g>
    </g>
</svg>