<svg xmlns="http://www.w3.org/2000/svg" viewBox="0 0 704 704" fill="none" width="512" height="512">
    <desc>"Open Peeps" by "Pablo Stanley", licensed under "CC0 1.0". / Remix of the original.</desc>
    <mask id="viewbox"><rect width="704" height="704" rx="0" ry="0" x="0" y="0" fill="#ffffff" /></mask>
    <g mask="url(#viewbox)">
        <rect id="background" fill="#d1d4f9" width="704" height="704" x="0" y="0" />

        <g id="body"><path id="skin" d="M705.3 1074a2351.1 2351.1 0 0 1-15.6-101c-1-7.7-2.5-16.4 2.7-22 7.3-8 14-14.8 14.8-26.2.8-10.7-2.8-22.4-5-32.8a809.4 809.4 0 0 0-17.3-64.7c-6.6-21.7-13.9-43.2-21.3-64.6-6.9-20-13.5-40.3-22.5-59.5-17-36.5-46-63.5-81.6-81.6-9-4.5-27-20.5-36.3-24-8.5-3.4-8.5 6.3-16.9 2.6-6.7-2.9-13-6.7-16.7-13.2-4-7-14.3-16.9-15.9-25-3.3-17.4.3-32.2-12-45.3a90 90 0 0 0-41.1-23.8c-33.7-9.3-78.5-2.8-98.8 28.5-9.7 14.9-13 33-26.2 45.1-11.4 10.7-8.8 18-23.6 23.4-.9.3-23.6-4.5-24.4-4.2-16.2-3.5-31.7 6.2-46.5 11.8a325.4 325.4 0 0 0-63 32.3 399.2 399.2 0 0 0-102.3 98.5 482.5 482.5 0 0 0-76.4 161c-1.7 6.4-3.5 13-1.5 19.4 1.7 5.3 5.4 9.2 9.8 12.4 6 4.3 18 7 17.7 15.7-.1 6.6-2.4 13.5-3.5 20-1.3 7.7-2.3 15.5-3.4 23.2-4.8 35.4-8.6 71-10.3 106.6a920 920 0 0 0-.5 106c.1 2.3.8 4.5 2 6.2-1 .4-1.2 2.4.1 2.7l2.7.5a12 12 0 0 0 7 2.4l5.5.2c19.3 4 38.6 7.9 58.1 10.8 23.8 3.5 47.6 6.3 71.5 8.7 49.2 4.8 98 3.2 147.1.6a1877 1877 0 0 1 147.4-2c49.2 1.4 98.4 3.5 147.6 4.4 55 1 110-.5 164.8-5 7.5-.5 12.2-6.5 10.7-14-8.9-44.7-19-89.1-27-134Z" fill="#edb98a"/><path id="shirt" d="m201 597.5 1.2-.4c14.5-5.7 29.6-14.8 45.4-11.4.5-.2 10.8 1.9 17.9 3.2l-6.7 7L247 598c40.7 67.1 88.8 100.7 144.3 100.7 55.5 0 97.7-33.6 126.4-100.7l4-1c.4 0 1 .2 1.5.4 9.3 3.6 27.4 19.6 36.3 24.1 35.6 18 64.5 45 81.6 81.6 8.7 18.6 15.2 38 21.8 57.5l.7 2c7.4 21.4 14.7 43 21.3 64.6 6.3 20.4 12 41 16.6 61.8l.7 2.9c2.2 10.4 5.8 22 5 32.8a29 29 0 0 1-3 10.7l-80.4 29 38.4 261.3c-35.1 1.5-70.3 2-105.5 1.3-49.2-.9-98.4-3-147.6-4.3-47.7-1.2-95.3-.7-143 1.7l-12 .6a946.3 946.3 0 0 1-139.5-1l-3.1-.3v-38.3l16.3-212.9-83-15.6-81.3-39.5a21.7 21.7 0 0 1-5.6-8.8c-1.9-6-.5-12 1-18l.5-1.3a492.8 492.8 0 0 1 76.4-161A399.3 399.3 0 0 1 138 629.7c19.8-13 40.9-23.9 63-32.3Z" fill="#8fa7df"/><path d="M232.2 584.6c5.1-.3 10.3.6 15.4 1 .4.1.6.8 0 .9-9 1.9-18 4.5-26.9 7.1l-3.8 1.2c-10 3-19.8 6-29.6 10-19.4 7.9-37.8 18.5-54.8 30.8C67.2 682.8 20 754.3-9.9 828.3a526 526 0 0 0-24.3 77c-.4 1.6-2 5.4-1 7 .7 1.3 3.6 2.1 5 2.9l4.5 2.3 25.2 12.9 2.3 1.1c38 18.6 78.4 34.4 121 35.5l.4-3.7a342 342 0 0 1 9.9-60c.3-1 1.6-.6 1.7.3 3 23.1 2 46.4 1 69.7-1.8 41-4.3 82.2-6.5 123.3-1.2 20.6-2.6 41-3.9 61.7-1.3 20.5-1.7 41.6-4.7 62-.6 4.6-6 7-10 6.6-4.4-.5-7.9-4.5-8-9 0-11.9 1.5-24 2.4-35.8l2.5-33.8c3.1-41.1 6.8-82.2 10.2-123.3a4771 4771 0 0 1 3.8-43.7C76.4 979.8 34.2 963-6.1 943.5c-.6 13.2-2 26.5-3.4 39.6-3.8 36.8-7.1 73.6-9.6 110.5a2254.2 2254.2 0 0 0-4.2 92.7l-.2 7c0 4.4-.5 8.5-4.3 11.7-3.7 3.3-8.9 3.5-12.6 0-5-4.6-4.2-10.9-4-17.1a1675.6 1675.6 0 0 1 1.8-47.2 1321 1321 0 0 1 10.5-109.5l2-14c3.5-26 7.5-52.7 15.5-77.9-3.1-1.5-6.2-3-9.3-4.7-5.5-2.7-11.2-5.4-16.6-8.4-4.2-2.5-7.9-5.8-9-10.8-1.4-5.5.6-11.5 2-16.9v-.4a502 502 0 0 1 26.6-80 523.2 523.2 0 0 1 67.8-117 353.8 353.8 0 0 1 88.7-83.3 239 239 0 0 1 53.8-25.7 142.6 142.6 0 0 1 42.8-7.5Zm90.1-66c6-6.5 18.1.2 15.2 8.8a108.2 108.2 0 0 1-34.7 52A79.4 79.4 0 0 1 247 598l1.7 2.4a321.1 321.1 0 0 0 46.1 52.6c36 31.2 84.8 48 132 36 37.1-9.4 69.8-38.8 79.4-76.2-1.3.6-3 .9-4.8.5-7.7-1.7-15.3-9.8-20.3-15.6-5.3-6.3-9.5-13-12.6-20.7-5.6-14-7.4-32.1.3-45.7 1-1.7 3-.7 3.3 1l.3 2.5c1.5 12.7 3.3 25 9.3 36.6a76 76 0 0 0 18.2 23.1c2.6 2 5.8 3.6 8.1 6l.5.4c.6-5 4.1-7.3 7.6-7.2 3.3.2 7.3 1.6 8.8 2.3l.1.1a341 341 0 0 1 65.1 42 259 259 0 0 1 88.4 129c7.5 25.3 11.8 51.4 16.3 77.4l2.8 16c4.2 23.9 8.9 48.4 18.4 70.7 2.5 5.7.6 11.1-5.5 13.4A1493 1493 0 0 1 688 953c3.7 16 6 32.5 8.7 48.5 6 34.1 13.2 68 19.4 102 3.2 17.5 6.1 35 9.3 52.3l4.7 25.2 2.4 13.6.1.7c.5 2.4 1 4.9.4 7.3-.8 2.7-2.9 4.6-4.8 6.6-1.6 1.6-3.8 1.6-5.7.7l-.7-.3c-3.4-1.6-6-3.2-7.3-7-.7-2.5-1-5.2-1.5-7.7a3535.6 3535.6 0 0 1-7.8-43.6l-1.6-9.1c-5.2-31.4-10.2-62.9-12.8-94.5-1-14-2.3-28.1-3.5-42.2l-.9-10.5c-1.1-13.3-2.5-27-2.7-40.5l-4.5 1.6L657 964c-5.5 2-12.5 6-18.4 5.2-2.9-.3-5-1.2-6.8-2.9 2 28.8 4.8 57.4 8.5 86a1965.7 1965.7 0 0 0 22 135c.6 3.2 1.4 6.4 1.9 9.6.5 3.7-.5 5.9-2.5 9-1.7 2.4-5 3.7-7.8 2-3.6-2.3-5.5-4.3-6.5-8.4-1-3.7-1.6-7.6-2.3-11.4a1654.2 1654.2 0 0 1-11.4-65.2c-7.8-52-12.7-104.4-15.2-156.8a1388 1388 0 0 1-1.4-77.8c0-13.3.5-26.6 1.4-39.9 1-13.4 3-26.5 4.8-39.8 0-.5.7-.5.7 0 .8 14.9 2.1 29.8 2.8 44.7.6 14.3.9 28.5 1.4 42.8.6 18.7 1.5 37.5 2.7 56.2a9.6 9.6 0 0 1 8.5-3.1c4.7-1 9.7-3.4 14.1-5l16.8-5.5 26.4-8.7a679 679 0 0 1-18-80.8l-2-12.3c-4-24.2-8.5-48.5-15.8-72a229.8 229.8 0 0 0-34.8-68.2 370.2 370.2 0 0 0-52.7-55.3C557 627 539.7 614 523 600c.1.9.2 2 0 3-3.5 25.9-17 50-35.8 67.9-37.7 36-93.6 43.4-142 26.5-46.7-16.3-88-55-102.6-102.8-.3-.8.8-1 1.3-.5l2.4 3.3c0-.4.2-.9.7-1a129 129 0 0 0 46.6-29.2 100.2 100.2 0 0 0 21.3-33.3l.4-1c1.7-5 3.2-10.2 7-14.2Z" fill="#000000"/></g>

        <g id="head" transform="matrix(.99789 0 0 1 156 62)"><path id="skin" d="M242.041161,75.2596156 C298.821805,75.2596156 372.115238,110.877442 378.365264,147.356837 C385.730757,190.346849 425.171562,355.304424 416.265335,408.203572 C407.359108,461.10272 359.365264,499.183765 282.566771,499.183765 C205.768277,499.183765 148.446655,457.302629 135.285147,442.922462 C126.510808,433.335685 113.993271,411.428601 97.7325351,377.201211 C70.3194918,373.555491 56.5470645,360.55971 56.4152532,338.213866 C56.2871511,315.868022 65.1995229,300.630067 83.1523686,292.5 C76.7512999,204.313833 81.6113554,148.741029 97.7325351,125.781589 C121.914305,91.3424282 185.260516,75.2596156 242.041161,75.2596156 Z" fill="#edb98a"/><path d="M374.8904,141.4707 C374.8494,140.7017 375.9694,140.6117 376.1794,141.2917 C388.4294,181.7617 395.9804,213.3007 403.9294,254.7917 L406.276866,266.997009 C412.550326,299.550095 418.8884,332.150589 424.2404,364.8617 L424.554568,366.814687 C427.23555,383.747064 428.781141,400.844293 425.4204,417.8117 C422.2804,433.6717 413.7004,448.2117 402.5604,459.7917 C381.0304,482.1727 351.1094,496.1517 321.0104,502.4017 C305.7904,505.5617 290.0904,506.7817 274.5804,505.6817 C266.8494,505.1407 259.1304,504.0507 251.5604,502.4417 L250.724678,502.263016 C243.094277,500.615682 236.322032,498.650612 232.2694,491.4707 C231.2504,489.6617 231.6604,486.5617 233.8004,485.6317 C237.8404,483.8907 240.8104,483.1617 245.2194,483.6617 C249.4294,484.1407 253.5404,485.4117 257.7004,486.2017 C265.6504,487.7117 273.7304,488.4707 281.8204,488.6517 C297.7104,489.0017 313.6404,487.0117 328.8304,482.2717 C354.9294,474.1217 381.4504,458.5317 396.7004,435.2117 C414.6392,407.7788 407.496261,374.484902 402.742688,344.188836 L402.5994,343.2717 C397.7869,312.30545 393.028759,281.3392 388.410058,250.352852 L386.4394,237.0717 C381.2604,201.9817 376.3704,176.9317 374.8904,141.4707 Z M109.9002,55.5816 C122.926662,46.9957538 139.113587,44.8859503 154.413673,45.0044304 L156.329603,45.0285863 C175.920941,45.3271956 274.537721,47.674017 307.55555,48.3961621 L315.4102,48.5616 C325.806354,48.7577538 346.77388,48.9625649 357.576625,49.1599951 L358.2002,49.1716 C363.5002,49.2716 368.8002,49.3116 374.1002,49.4816 L374.877076,49.5095821 C378.847271,49.6790784 382.150806,50.2731455 385.2602,53.0716 C386.84145,54.4899333 387.458377,56.6530913 387.313413,58.713503 L387.2902,58.9816 L395.1602,59.6716 C400.50401,60.143981 403.329704,64.9368668 401.206794,69.7868945 L401.1002,70.0216 C397.3302,78.0616 394.4502,101.4616 392.4302,110.1116 C391.3702,114.6616 390.5192,119.2816 390.0192,123.9316 C389.6202,127.5926 389.5802,131.2616 387.5402,134.4816 C383.1892,141.3516 370.9502,141.2916 370.7302,131.5616 C370.7202,131.2516 370.7302,130.9516 370.7602,130.6616 C339.9602,129.3116 297.9102,129.4416 267.1502,131.2816 C238.4202,133.0016 209.8202,136.9016 181.6702,142.8716 C174.5402,144.3816 167.4302,146.0316 160.3702,147.8216 C154.5802,149.2816 147.4702,150.1516 142.2902,153.2816 C136.4902,156.8016 136.6002,163.1116 137.2302,169.1216 C137.9064,175.4916 139.033988,172.20958 140.631788,178.014673 L140.7302,178.3816 C142.3802,184.6816 144.4202,190.9116 147.1202,196.8316 C148.6602,200.2116 151.1412,203.4616 150.2002,207.3516 C149.6702,209.5416 147.9392,211.8816 146.3502,213.4116 C139.1092,220.3616 126.8702,215.9316 121.9502,225.4516 C116.801162,235.406408 116.673284,248.891419 116.236302,259.906545 L116.2102,260.5516 C115.8912,268.1416 115.9802,275.7516 116.4802,283.3216 C116.9302,290.2206 118.7692,297.0516 116.4102,303.6816 C114.6892,308.5016 109.0702,308.9516 106.1302,305.0316 C105.7927,304.5816 105.483325,304.12035 105.193638,303.656287 L104.9102,303.1916 L104.8912,303.2016 C105.1702,303.6416 105.4302,304.0926 105.6802,304.5516 C105.9502,305.0616 105.2802,305.6216 104.8702,305.1816 C97.9502,297.6516 87.8402,299.1516 80.0102,304.4216 C72.0802,309.7816 68.9502,319.9616 68.5402,329.0926 C68.0802,339.2206 68.9802,351.0926 73.2002,360.4516 C74.9802,364.4116 77.5192,368.0516 81.7302,369.5616 C83.6412,370.2416 85.4602,370.1516 87.4502,370.3116 C89.5192,370.4706 92.0102,371.5116 94.0192,371.3716 C96.6311565,371.18573 98.9761116,374.167512 98.2342607,376.665804 L98.1802,376.8316 C98.1412,376.9516 98.1002,377.0716 98.0612,377.1816 C98.1602,377.2716 98.2602,377.3816 98.3302,377.5416 C105.9302,393.0716 116.3502,406.8916 127.8702,419.7116 C133.6412,426.1216 140.0402,432.0116 146.7302,437.4616 C150.0302,440.1516 153.5102,442.8426 157.1802,445.0116 C158.4002,445.7206 159.5192,446.2016 160.8912,446.5926 C161.5302,446.7716 162.2602,446.8616 162.8802,447.0716 L163.52404,447.29208 C163.5682,447.3064 163.6102,447.3196 163.6502,447.3316 C165.4902,447.5416 167.0402,448.7616 167.6502,450.6716 C169.2402,455.6516 166.3502,460.0516 161.4102,461.4216 C156.058135,462.918339 151.014222,460.290433 146.771833,457.273279 L146.4902,457.0716 C137.8402,450.8426 129.8702,443.8516 122.9702,435.6916 C109.3202,419.5816 100.7692,400.9316 96.8112,380.3016 C95.8302,382.4116 94.5102,384.2516 92.2202,385.5316 C88.6602,387.5316 84.4102,387.5316 80.5102,386.8616 C72.6602,385.5316 65.9702,380.7416 61.5002,374.2616 C56.8592,367.5416 55.1302,359.3816 54.0802,351.4316 C53.0402,343.4706 52.5302,335.4816 53.5702,327.5016 C55.0612,316.0416 59.8702,304.7116 69.2202,298.4316 C62.2202,283.1816 60.9902,266.0816 61.4902,249.3816 C62.1002,228.8216 65.6502,208.0316 68.3802,187.6616 L76.1412,129.7516 L76.1412,129.7516 L76.4587208,127.417033 C78.331566,113.793594 80.6115514,100.098086 85.7102,87.2616 C90.7402,74.6116 98.3802,63.1716 109.9002,55.5816 Z M77.2404,329.5414 C90.0604,323.3214 103.9104,329.0514 110.8104,341.1214 C116.8098,351.6154 98.9721879,358.551637 95.9959987,347.734637 L95.9104,347.4014 C93.9504,339.2114 85.9694,332.1314 77.6404,331.0314 C76.9504,330.9324 76.4394,329.9324 77.2404,329.5414 Z" id="ðŸ–-Ink" fill="#000000"/></g>

        <g id="face" transform="translate(315 248)"><path style=" stroke:none;fill-rule:evenodd;fill:rgb(0%,0%,0%);fill-opacity:1;" d="M 127.09375 64.90625 C 132.585938 64.816406 136.035156 67.425781 137.441406 72.726562 C 137.988281 77.246094 136.285156 80.632812 132.339844 82.882812 C 131.1875 83.480469 129.980469 83.925781 128.714844 84.21875 C 119.59375 88.425781 110.117188 91.605469 100.292969 93.757812 C 89.773438 95.964844 79.152344 96.726562 68.433594 96.046875 C 63.515625 95.648438 58.84375 94.378906 54.414062 92.230469 C 53.914062 91.726562 53.800781 91.140625 54.082031 90.464844 C 54.304688 90.144531 54.609375 89.9375 54.984375 89.84375 C 56.652344 89.398438 58.335938 89.046875 60.042969 88.796875 C 69.839844 87.957031 79.472656 86.207031 88.941406 83.550781 C 100 80.324219 110.269531 75.492188 119.75 69.054688 C 121.640625 66.679688 124.085938 65.296875 127.09375 64.90625 Z M 127.09375 64.90625 "/><path style=" stroke:none;fill-rule:evenodd;fill:rgb(0%,0%,0%);fill-opacity:1;" d="M 178.503906 65.382812 C 178.859375 65.371094 179.210938 65.417969 179.550781 65.523438 C 181.621094 66.207031 183.589844 67.097656 185.464844 68.195312 C 192.785156 73.03125 200.734375 76.464844 209.308594 78.496094 C 214.09375 79.5625 218.929688 79.878906 223.808594 79.449219 C 226.453125 79.035156 229.089844 78.589844 231.722656 78.113281 C 233.652344 77.8125 235.59375 77.714844 237.542969 77.828125 C 240.703125 78.445312 242.976562 80.210938 244.363281 83.121094 C 245.324219 85.34375 245.417969 87.601562 244.648438 89.894531 C 243.984375 91.289062 243.015625 92.417969 241.738281 93.28125 C 238.011719 95.234375 234.039062 96.285156 229.816406 96.425781 C 223.957031 96.613281 218.203125 95.910156 212.554688 94.328125 C 204.269531 92.203125 196.671875 88.675781 189.757812 83.742188 C 186.5625 81.375 183.75 78.625 181.316406 75.492188 C 179.332031 72.828125 178.171875 69.839844 177.835938 66.527344 C 177.816406 65.988281 178.039062 65.609375 178.503906 65.382812 Z M 178.503906 65.382812 "/><path style=" stroke:none;fill-rule:evenodd;fill:rgb(0%,0%,0%);fill-opacity:1;" d="M 97.527344 98.382812 C 104.136719 98.246094 109.890625 100.363281 114.789062 104.726562 C 117.847656 107.660156 119.867188 111.207031 120.847656 115.359375 C 122.824219 116.386719 124.003906 118.007812 124.375 120.222656 C 124.984375 123.691406 123.792969 126.347656 120.796875 128.1875 C 118.125 129.507812 115.359375 129.730469 112.5 128.855469 C 109.191406 128.058594 107.332031 125.976562 106.921875 122.609375 C 106.910156 121.078125 106.976562 119.550781 107.109375 118.03125 C 106.855469 116.71875 106.3125 115.542969 105.488281 114.5 C 101.722656 110.4375 97.414062 109.785156 92.566406 112.546875 C 86.898438 116.359375 84.070312 121.714844 84.078125 128.617188 C 83.984375 130.636719 84.445312 132.511719 85.460938 134.242188 C 85.847656 134.695312 86.292969 135.078125 86.796875 135.386719 C 87.03125 135.964844 86.839844 136.3125 86.222656 136.4375 C 78.640625 135.183594 74.777344 130.714844 74.632812 123.039062 C 75.089844 114.460938 78.746094 107.625 85.601562 102.53125 C 89.183594 100.007812 93.160156 98.625 97.527344 98.382812 Z M 97.527344 98.382812 "/><path style=" stroke:none;fill-rule:evenodd;fill:rgb(0%,0%,0%);fill-opacity:1;" d="M 209.40625 98.953125 C 215.871094 99.121094 221.164062 101.664062 225.285156 106.585938 C 229.28125 111.863281 229.914062 117.519531 227.195312 123.5625 C 225.3125 126.558594 222.628906 127.71875 219.132812 127.042969 C 215.6875 126.046875 213.699219 123.773438 213.171875 120.222656 C 213.203125 118.699219 213.238281 117.171875 213.269531 115.644531 C 212.539062 112.820312 210.710938 111.566406 207.785156 111.878906 C 205.457031 112.222656 203.5 113.257812 201.917969 114.976562 C 198.523438 118.90625 197.1875 123.449219 197.914062 128.617188 C 198.152344 129.621094 198.484375 130.589844 198.914062 131.527344 C 198.796875 132.109375 198.449219 132.332031 197.863281 132.195312 C 195.6875 129.28125 193.859375 126.148438 192.378906 122.796875 C 190.398438 116.46875 191.511719 110.746094 195.71875 105.628906 C 199.324219 101.453125 203.886719 99.226562 209.40625 98.953125 Z M 209.40625 98.953125 "/><path style=" stroke:none;fill-rule:evenodd;fill:rgb(0%,0%,0%);fill-opacity:1;" d="M 172.875 138.820312 C 179.570312 139.269531 185.148438 141.96875 189.613281 146.929688 C 193.667969 152.074219 195.351562 157.921875 194.667969 164.480469 C 193.863281 171.773438 190.570312 177.636719 184.796875 182.074219 C 179.773438 185.445312 174.242188 186.78125 168.203125 186.082031 C 163.660156 185.542969 159.335938 184.269531 155.230469 182.265625 C 151.542969 180.457031 148.046875 178.359375 144.738281 175.972656 C 142.015625 174.039062 141.207031 171.476562 142.304688 168.292969 C 143.25 165.824219 144.980469 164.21875 147.503906 163.476562 C 148.765625 163.234375 149.972656 163.394531 151.128906 163.953125 C 154.101562 166.257812 157.152344 168.453125 160.285156 170.535156 C 162.785156 172.132812 165.457031 173.375 168.296875 174.253906 C 173.53125 175.84375 178.03125 174.683594 181.792969 170.773438 C 185.042969 165.929688 185.265625 160.9375 182.460938 155.800781 C 180.691406 152.855469 178.480469 150.261719 175.832031 148.027344 C 174.152344 146.613281 172.371094 145.34375 170.492188 144.210938 C 169.488281 142.371094 169.804688 140.78125 171.445312 139.441406 C 171.910156 139.179688 172.386719 138.972656 172.875 138.820312 Z M 172.875 138.820312 "/><path style=" stroke:none;fill-rule:evenodd;fill:rgb(0%,0%,0%);fill-opacity:1;" d="M 161.90625 207.875 C 164.832031 207.859375 167.757812 207.875 170.683594 207.921875 C 176.957031 208.007812 182.839844 209.5625 188.328125 212.597656 C 193.058594 215.105469 197.476562 218.0625 201.585938 221.46875 C 203.835938 223.460938 205.726562 225.734375 207.257812 228.285156 C 210.171875 233.722656 210.460938 239.285156 208.117188 244.976562 C 206.035156 249.15625 202.746094 251.875 198.246094 253.132812 C 193.308594 253.925781 188.347656 254.558594 183.367188 255.039062 C 166.984375 256.691406 150.578125 258.089844 134.152344 259.234375 C 130.039062 259.53125 126 259.117188 122.039062 257.996094 C 117.171875 256.339844 113.660156 253.179688 111.5 248.507812 C 110.304688 245.460938 110.082031 242.347656 110.832031 239.160156 C 111.734375 235.828125 113.195312 232.777344 115.21875 230.003906 C 124.082031 218.40625 135.765625 211.425781 150.269531 209.066406 C 154.140625 208.449219 158.019531 208.050781 161.90625 207.875 Z M 161.90625 207.875 "/><path style=" stroke:none;fill-rule:evenodd;fill:rgb(100%,100%,100%);fill-opacity:1;" d="M 161.90625 217.222656 C 168.765625 217.027344 175.28125 218.410156 181.460938 221.371094 C 182.257812 221.820312 182.972656 222.375 183.605469 223.039062 C 184.179688 223.855469 184.003906 224.445312 183.082031 224.804688 C 179.835938 225.75 176.53125 226.382812 173.160156 226.710938 C 163.402344 227.910156 153.609375 228.355469 143.785156 228.046875 C 142.882812 227.949219 141.992188 227.792969 141.113281 227.570312 C 140.40625 227.375 140.199219 226.945312 140.492188 226.285156 C 140.882812 225.703125 141.34375 225.179688 141.878906 224.710938 C 144.476562 222.871094 147.273438 221.375 150.269531 220.226562 C 154.042969 218.761719 157.921875 217.761719 161.90625 217.222656 Z M 161.90625 217.222656 "/></g>

        <g id="facial-hair" transform="translate(279 400)"><path d="M117.724748,95.193032 C125.820991,76.2257701 143.491513,62.2858787 163.836481,57.1894344 C178.77663,53.4564466 194.455798,53.5755739 209.685563,55.0571566 C217.664961,55.82798 226.223589,56.4596548 233.743597,59.4228202 C240.165065,61.9545247 245.398112,66.7396365 249.332884,72.3566369 C254.016661,79.0127473 257.202428,86.6308855 259.439456,94.4392268 C259.757034,95.5494127 260.055637,96.6676073 260.334267,97.7918082 C259.36156,103.683102 257.296304,108.697458 251.839554,112.401415 C246.514629,116.018279 240.161071,117.497859 233.827486,118.023421 C233.206311,117.725102 232.606109,117.418775 232.05584,117.104439 C222.185954,111.454403 215.239184,98.1021397 202.781736,99.90907 C191.664507,101.522794 184.34623,115.510737 177.735014,123.713499 C156.513211,126.186141 135.307387,119.809329 118.040329,107.674365 C117.163494,103.520928 117.112562,99.332454 117.724748,95.193032 M274.758103,80.8046615 C273.060358,76.0405723 270.922199,71.4266434 268.387567,67.0800001 C260.0087,52.7056446 247.14579,41.2524095 231.876079,34.7054157 C195.754073,19.2388934 149.016172,30.1415403 119.844931,55.5076378 C109.880171,64.1789009 99.8045583,76.9215133 96.7576067,90.6281556 C95.8478155,90.8083481 94.9889566,91.2818539 94.2818961,91.9485661 C73.2058992,78.6793912 51.5017369,65.9127532 34.5183023,47.519104 C22.1846896,34.1548275 13.6060877,18.338932 8.35306724,0.959366195 C7.92363781,-0.471161978 5.61670297,-0.261938473 5.68661009,1.32075225 C5.70658355,1.69114793 5.72655701,2.06054254 5.74653047,2.43093821 C5.52682239,1.75021102 4.48820238,2.10058531 4.40830853,2.76129112 C1.58206368,23.8738448 -1.95323907,46.2577565 1.30243521,67.4804278 C3.24984774,80.1439557 9.00220475,89.4148595 16.6919876,99.4255535 C24.9310406,110.156016 34.2586473,120.136678 43.7959753,129.707903 C49.8479342,135.783393 56.1695349,142.790879 63.5796892,147.245638 C72.198238,152.421166 81.9752476,156.35637 91.1730268,160.349636 C100.530594,164.423989 110.027975,168.188009 119.705117,171.451496 C139.049415,177.99849 159.04285,182.523323 179.385821,184.505441 C195.674179,186.08713 214.289446,187.809971 229.898706,181.682425 C241.86281,176.98741 251.519978,168.499342 259.179801,158.287433 C267.518721,147.165552 274.110962,134.497019 277.755121,121.137748 C281.542089,107.260924 275.556042,83.0420517 274.758103,80.8046615" id="ðŸ–-Ink" fill="#000000"/></g>

        <g id="eyewear" transform="translate(203 303)"><path id="accessories" d="M370.267229,94.0812186 C361.087518,105.550169 325.150885,118.280642 306.024457,104.460924 C286.89803,90.6412047 279.339478,81.010236 276.782894,63.7418278 C276.51029,61.9005247 273.181038,60.6757933 271.773574,61.9830996 C263.892542,69.3032997 258.790943,78.6267129 253.736631,87.9739798 C248.036181,98.5161913 242.421537,109.123108 232.062291,116.259689 C213.713905,126.095013 180.520036,127.495741 170.713277,123.157318 C151.927276,114.846558 137.066708,97.0725316 133.687387,72.6128057 C131.395829,65.3796109 129.246349,61.0020129 127.238947,59.4800116 C124.384546,57.3158209 108.631937,55.3878277 106.906249,55.0676312 C75.8071363,49.2972786 36.4749058,45.6190335 8.77600719,65.9200219 C5.02749548,68.1858834 -7.80539205,76.6985178 -7.99790561,74.60536 C-8.12928599,66.4063563 1.16220359,47.8487707 22.2939084,39.0185659 C48.4257396,28.098982 87.2707875,27.4603638 109.774665,29.8701917 C110.906452,29.9913891 114.764588,29.0433611 115.037186,28.9253388 C149.130646,14.1644408 188.359486,18.0847288 224.839489,24.2887991 C230.066858,25.3031978 276.863504,36.8905006 295.477887,29.8701917 C326.25407,17.3061158 359.067147,8.2038606 392.30185,11.7849229 C392.579752,11.8148671 396.775316,37.2812197 393.50699,39.0185659 C390.906064,40.4011413 386.480238,43.9439017 384.907987,45.8827637 C383.502453,47.6160336 382.61672,49.7708648 382.69528,52.7561081 C383.327324,70.0252897 378.399915,83.920401 370.267229,94.0812186 Z M243.72836,78.6720803 C247.630761,73.0270335 248.862219,60.3460528 247.228404,51.0948644 C246.401153,46.4106974 244.794863,42.6821957 242.779067,40.8261969 C241.439156,39.5925037 239.910346,39.0117383 238.243089,39.0979354 C237.328973,39.1451951 236.338477,39.4051824 235.290511,39.9705735 C221.097217,32.2929564 203.902812,29.5286089 187.604096,30.323616 C174.629301,30.3211866 165.372072,33.3837093 159.0944,38.1509351 C151.540713,43.8871592 148.137536,52.1332968 147.940635,61.0762046 C147.706992,71.6878578 152.06617,83.2970102 159.216953,92.4828862 C166.061287,101.275098 175.424043,107.793236 185.581316,109.297105 C197.111926,111.586016 208.862264,109.37159 219.07862,103.95477 C229.556845,98.3991036 238.407944,89.4765185 243.72836,78.6720803 Z M357.507438,84.6585403 C364.084035,76.8869454 368.457047,66.7766474 369.122697,56.7593194 C369.728486,47.6428312 367.287306,38.6124814 360.537606,31.1497224 C354.418516,25.8975011 343.605727,25.8104772 332.231167,28.7352865 C317.523167,32.5172431 302.307464,40.969058 297.23517,46.4275624 C296.040378,47.0540173 294.931407,48.1449237 293.965307,50.4849258 L293.958397,51.3191347 C292.421839,58.4056844 293.333557,65.5970212 295.991544,72.2310611 C298.878802,79.4373326 303.830659,85.9791775 309.868491,90.9705601 C317.890232,97.5784779 326.26399,99.6013328 334.1016,98.5342588 C342.979407,97.325564 351.234778,92.0709712 357.507438,84.6585403 Z" fill="#e279c7"/><path d="M294.4196,27.0634 C325.5846,14.3394 358.8976,5.1684 392.6236,8.8024 C395.4126,7.7414 398.8746,8.6354 400.1106,12.5794 C412.1236,49.1744 385.3346,38.9974 385.6946,52.6774 C388.5026,129.3804 285.4076,142.4794 273.8156,64.1814 L273.6026,64.3074 L273.6026,64.3074 C256.9246,79.8704 253.4116,105.1954 233.7646,118.7304 C194.1316,147.7154 137.9496,124.7504 130.7336,73.1504 L130.576211,72.452332 C128.153961,61.9216159 125.257898,59.3105277 113.3116,59.3624 L111.424306,58.9874342 C80.385228,52.872048 39.05216,47.3766 10.4636,68.4074 C4.2456,72.0234 3.9536,81.3194 -1.3004,85.3584 C-7.0564,86.4764 -10.6024,79.5534 -10.9924,74.7624 C-11.9044,26.9994 73.5656,23.5634 111.8436,27.6624 C112.5746,26.9054 114.1356,26.9994 114.6616,27.9424 C149.2796,12.9544 188.2806,15.0284 225.3466,21.3314 C248.3076,25.7764 270.9856,35.9014 294.4196,27.0634 Z M389.5206,17.6204 C370.8196,16.6854 353.5216,17.7084 335.1656,22.2034 C325.4916,24.5374 318.0676,27.4884 308.8076,31.0374 C251.0496,56.6264 244.3876,11.1414 114.9196,28.9714 C116.5946,36.1454 116.9026,43.2484 116.9926,49.9884 C143.42758,48.92316 137.203668,74.1647841 147.107497,91.894471 L147.4126,92.4294 C161.8466,118.2974 195.9066,130.3634 223.3816,113.2054 C246.3036,99.8454 248.5396,65.9604 271.3616,52.5124 C291.1446,51.7344 283.2426,78.4344 294.0086,89.4084 C309.1626,109.6294 341.3736,112.4564 360.3756,93.4364 C369.2906,84.2844 374.0286,72.6644 374.2906,60.1804 C374.7876,52.2044 373.4196,44.0994 379.4496,38.4894 C383.6766,34.1954 391.1866,35.6284 392.0486,29.1374 C392.5966,25.2994 391.0006,21.1364 389.5206,17.6204 Z M186.28,28.0747 C204.857,27.1597 224.513,30.3857 240.464,39.4967 C252.271,30.1007 255.164,67.4427 247.327,78.2437 C236.036,101.3457 209.749,116.5347 184.438,111.4907 C144.952,105.7687 117.44,28.0057 186.28,28.0747 Z M239.33,42.0007 L238.319634,41.8530365 C221.207242,39.24197 174.61224,27.14534 156.641,46.2377 C139.2,77.9067 183.447,131.1007 229.492,88.7307 C242.307,75.6837 247.274,59.8627 239.33,42.0007 Z M293.5595,46.0482 C302.4215,35.5552 347.5865,14.3012 363.3295,27.9402 C392.0625,60.1412 346.4955,125.2742 308.3295,93.5412 C295.6175,82.9342 287.2545,66.0342 290.9145,49.6692 L290.92013,48.9832 C290.928056,48.7345333 290.9745,48.7912 291.2405,48.4812 C291.7115,47.2442 292.5595,46.4542 293.5595,46.0482 Z M362.9285,65.5652 C372.6185,13.0082 332.1195,32.9882 298.8595,47.0162 C300.6445,48.6472 300.6365,50.8742 300.1235,52.7042 C296.6155,91.7002 344.0125,113.7982 362.9285,65.5652 Z M111.1716,30.2164 C97.2986,34.9144 5.5376,26.5124 -2.9394,69.5264 C6.0086,55.0294 24.5406,49.2764 41.2006,46.1544 C63.8616,41.9074 86.3986,44.3664 108.7416,48.8354 L109.203057,44.2113617 C109.698597,39.3065938 110.221071,34.7182235 111.1716,30.2164 Z" id="ðŸ–-Ink" fill="#000000"/></g>
    </g>
</svg>