<svg xmlns="http://www.w3.org/2000/svg" viewBox="0 0 704 704" fill="none" width="512" height="512">
    <desc>"Open Peeps" by "Pablo Stanley", licensed under "CC0 1.0". / Remix of the original.</desc>
    <mask id="viewbox"><rect width="704" height="704" rx="0" ry="0" x="0" y="0" fill="#ffffff" /></mask>
    <g mask="url(#viewbox)">
        <rect id="background" fill="#ffdfbf" width="704" height="704" x="0" y="0" />

        <g id="body"><path id="skin" d="M705.3 1074a2351.1 2351.1 0 0 1-15.6-101c-1-7.7-2.5-16.4 2.7-22 7.3-8 14-14.8 14.8-26.2.8-10.7-2.8-22.4-5-32.8a809.4 809.4 0 0 0-17.3-64.7c-6.6-21.7-13.9-43.2-21.3-64.6-6.9-20-13.5-40.3-22.5-59.5-17-36.5-46-63.5-81.6-81.6-9-4.5-27-20.5-36.3-24-8.5-3.4-8.5 6.3-16.9 2.6-6.7-2.9-13-6.7-16.7-13.2-4-7-14.3-16.9-15.9-25-3.3-17.4.3-32.2-12-45.3a90 90 0 0 0-41.1-23.8c-33.7-9.3-78.5-2.8-98.8 28.5-9.7 14.9-13 33-26.2 45.1-11.4 10.7-8.8 18-23.6 23.4-.9.3-23.6-4.5-24.4-4.2-16.2-3.5-31.7 6.2-46.5 11.8a325.4 325.4 0 0 0-63 32.3 399.2 399.2 0 0 0-102.3 98.5 482.5 482.5 0 0 0-76.4 161c-1.7 6.4-3.5 13-1.5 19.4 1.7 5.3 5.4 9.2 9.8 12.4 6 4.3 18 7 17.7 15.7-.1 6.6-2.4 13.5-3.5 20-1.3 7.7-2.3 15.5-3.4 23.2-4.8 35.4-8.6 71-10.3 106.6a920 920 0 0 0-.5 106c.1 2.3.8 4.5 2 6.2-1 .4-1.2 2.4.1 2.7l2.7.5a12 12 0 0 0 7 2.4l5.5.2c19.3 4 38.6 7.9 58.1 10.8 23.8 3.5 47.6 6.3 71.5 8.7 49.2 4.8 98 3.2 147.1.6a1877 1877 0 0 1 147.4-2c49.2 1.4 98.4 3.5 147.6 4.4 55 1 110-.5 164.8-5 7.5-.5 12.2-6.5 10.7-14-8.9-44.7-19-89.1-27-134Z" fill="#edb98a"/><path id="shirt" d="m201 597.5 1.2-.4c14.5-5.7 29.6-14.8 45.4-11.4.5-.2 10.8 1.9 17.9 3.2l-6.7 7L247 598c40.7 67.1 88.8 100.7 144.3 100.7 55.5 0 97.7-33.6 126.4-100.7l4-1c.4 0 1 .2 1.5.4 9.3 3.6 27.4 19.6 36.3 24.1 35.6 18 64.5 45 81.6 81.6 8.7 18.6 15.2 38 21.8 57.5l.7 2c7.4 21.4 14.7 43 21.3 64.6 6.3 20.4 12 41 16.6 61.8l.7 2.9c2.2 10.4 5.8 22 5 32.8a29 29 0 0 1-3 10.7l-80.4 29 38.4 261.3c-35.1 1.5-70.3 2-105.5 1.3-49.2-.9-98.4-3-147.6-4.3-47.7-1.2-95.3-.7-143 1.7l-12 .6a946.3 946.3 0 0 1-139.5-1l-3.1-.3v-38.3l16.3-212.9-83-15.6-81.3-39.5a21.7 21.7 0 0 1-5.6-8.8c-1.9-6-.5-12 1-18l.5-1.3a492.8 492.8 0 0 1 76.4-161A399.3 399.3 0 0 1 138 629.7c19.8-13 40.9-23.9 63-32.3Z" fill="#9ddadb"/><path d="M232.2 584.6c5.1-.3 10.3.6 15.4 1 .4.1.6.8 0 .9-9 1.9-18 4.5-26.9 7.1l-3.8 1.2c-10 3-19.8 6-29.6 10-19.4 7.9-37.8 18.5-54.8 30.8C67.2 682.8 20 754.3-9.9 828.3a526 526 0 0 0-24.3 77c-.4 1.6-2 5.4-1 7 .7 1.3 3.6 2.1 5 2.9l4.5 2.3 25.2 12.9 2.3 1.1c38 18.6 78.4 34.4 121 35.5l.4-3.7a342 342 0 0 1 9.9-60c.3-1 1.6-.6 1.7.3 3 23.1 2 46.4 1 69.7-1.8 41-4.3 82.2-6.5 123.3-1.2 20.6-2.6 41-3.9 61.7-1.3 20.5-1.7 41.6-4.7 62-.6 4.6-6 7-10 6.6-4.4-.5-7.9-4.5-8-9 0-11.9 1.5-24 2.4-35.8l2.5-33.8c3.1-41.1 6.8-82.2 10.2-123.3a4771 4771 0 0 1 3.8-43.7C76.4 979.8 34.2 963-6.1 943.5c-.6 13.2-2 26.5-3.4 39.6-3.8 36.8-7.1 73.6-9.6 110.5a2254.2 2254.2 0 0 0-4.2 92.7l-.2 7c0 4.4-.5 8.5-4.3 11.7-3.7 3.3-8.9 3.5-12.6 0-5-4.6-4.2-10.9-4-17.1a1675.6 1675.6 0 0 1 1.8-47.2 1321 1321 0 0 1 10.5-109.5l2-14c3.5-26 7.5-52.7 15.5-77.9-3.1-1.5-6.2-3-9.3-4.7-5.5-2.7-11.2-5.4-16.6-8.4-4.2-2.5-7.9-5.8-9-10.8-1.4-5.5.6-11.5 2-16.9v-.4a502 502 0 0 1 26.6-80 523.2 523.2 0 0 1 67.8-117 353.8 353.8 0 0 1 88.7-83.3 239 239 0 0 1 53.8-25.7 142.6 142.6 0 0 1 42.8-7.5Zm90.1-66c6-6.5 18.1.2 15.2 8.8a108.2 108.2 0 0 1-34.7 52A79.4 79.4 0 0 1 247 598l1.7 2.4a321.1 321.1 0 0 0 46.1 52.6c36 31.2 84.8 48 132 36 37.1-9.4 69.8-38.8 79.4-76.2-1.3.6-3 .9-4.8.5-7.7-1.7-15.3-9.8-20.3-15.6-5.3-6.3-9.5-13-12.6-20.7-5.6-14-7.4-32.1.3-45.7 1-1.7 3-.7 3.3 1l.3 2.5c1.5 12.7 3.3 25 9.3 36.6a76 76 0 0 0 18.2 23.1c2.6 2 5.8 3.6 8.1 6l.5.4c.6-5 4.1-7.3 7.6-7.2 3.3.2 7.3 1.6 8.8 2.3l.1.1a341 341 0 0 1 65.1 42 259 259 0 0 1 88.4 129c7.5 25.3 11.8 51.4 16.3 77.4l2.8 16c4.2 23.9 8.9 48.4 18.4 70.7 2.5 5.7.6 11.1-5.5 13.4A1493 1493 0 0 1 688 953c3.7 16 6 32.5 8.7 48.5 6 34.1 13.2 68 19.4 102 3.2 17.5 6.1 35 9.3 52.3l4.7 25.2 2.4 13.6.1.7c.5 2.4 1 4.9.4 7.3-.8 2.7-2.9 4.6-4.8 6.6-1.6 1.6-3.8 1.6-5.7.7l-.7-.3c-3.4-1.6-6-3.2-7.3-7-.7-2.5-1-5.2-1.5-7.7a3535.6 3535.6 0 0 1-7.8-43.6l-1.6-9.1c-5.2-31.4-10.2-62.9-12.8-94.5-1-14-2.3-28.1-3.5-42.2l-.9-10.5c-1.1-13.3-2.5-27-2.7-40.5l-4.5 1.6L657 964c-5.5 2-12.5 6-18.4 5.2-2.9-.3-5-1.2-6.8-2.9 2 28.8 4.8 57.4 8.5 86a1965.7 1965.7 0 0 0 22 135c.6 3.2 1.4 6.4 1.9 9.6.5 3.7-.5 5.9-2.5 9-1.7 2.4-5 3.7-7.8 2-3.6-2.3-5.5-4.3-6.5-8.4-1-3.7-1.6-7.6-2.3-11.4a1654.2 1654.2 0 0 1-11.4-65.2c-7.8-52-12.7-104.4-15.2-156.8a1388 1388 0 0 1-1.4-77.8c0-13.3.5-26.6 1.4-39.9 1-13.4 3-26.5 4.8-39.8 0-.5.7-.5.7 0 .8 14.9 2.1 29.8 2.8 44.7.6 14.3.9 28.5 1.4 42.8.6 18.7 1.5 37.5 2.7 56.2a9.6 9.6 0 0 1 8.5-3.1c4.7-1 9.7-3.4 14.1-5l16.8-5.5 26.4-8.7a679 679 0 0 1-18-80.8l-2-12.3c-4-24.2-8.5-48.5-15.8-72a229.8 229.8 0 0 0-34.8-68.2 370.2 370.2 0 0 0-52.7-55.3C557 627 539.7 614 523 600c.1.9.2 2 0 3-3.5 25.9-17 50-35.8 67.9-37.7 36-93.6 43.4-142 26.5-46.7-16.3-88-55-102.6-102.8-.3-.8.8-1 1.3-.5l2.4 3.3c0-.4.2-.9.7-1a129 129 0 0 0 46.6-29.2 100.2 100.2 0 0 0 21.3-33.3l.4-1c1.7-5 3.2-10.2 7-14.2Z" fill="#000000"/></g>

        <g id="head" transform="matrix(.99789 0 0 1 156 62)"><path id="skin" d="M236.452396,86.8265552 C268.972826,86.8265552 316.610448,105.669983 379.365264,143.356837 C408.831003,266.837653 420.59513,346.21111 414.657645,381.477208 C405.751418,434.376356 359.365264,499.183765 282.566771,499.183765 C205.768277,499.183765 184.903783,472.088057 166.430645,459.772979 C154.11522,451.562927 135.546572,428.776374 110.7247,391.41332 C93.881767,396.658464 82.9884707,397.763517 78.0448113,394.728478 C67.514226,388.263483 68.7925651,371.261262 65.4644787,354.819677 C63.0119593,342.703613 54.6607617,330.814449 54.6607617,324.068568 C54.6607617,299.594784 72.0535308,301.343748 80.8138575,295.478662 C61.6181333,276.570518 66.6701406,210.997585 90.8519102,176.558424 C115.03368,142.119264 187.671751,86.8265552 236.452396,86.8265552 Z" fill="#edb98a"/><path d="M324.1944,45.0538 C328.4614,44.3708 331.8904,50.3688 327.3734,52.5928 C308.1434,62.0658 287.9554,69.1928 268.3774,77.8278 C278.3784,79.0278 288.5774,80.9238 298.4324,83.8588 C309.7724,79.1978 321.4174,75.4218 333.4084,72.7528 L337.208808,71.9098962 C349.417577,69.231961 363.160781,66.6988 375.0204,70.8028 C379.0954,72.2118 378.8454,77.3578 375.0204,78.8488 C368.1364,81.5328 360.5284,82.2368 353.2424,83.0788 C345.9054,83.9258 338.6484,84.9598 331.4174,86.4858 C326.1494,87.5968 320.9074,88.8878 315.7134,90.3548 C318.9714,91.8758 322.1484,93.5428 325.2124,95.3898 C341.7214,105.3438 356.7494,116.7088 369.3244,131.4588 C381.5304,145.7738 391.1344,161.9858 397.6704,179.6318 C399.3814,184.2518 400.4794,189.1618 401.1884,194.0368 C401.7574,197.9408 401.4034,201.7658 401.4994,205.6168 C401.7044,205.6968 401.8804,205.8518 401.9384,206.0858 C404.2764,215.3688 404.5734,225.4568 405.3114,235.0008 C406.0774,244.9008 406.8634,254.7978 407.5184,264.7068 C408.1714,274.5648 408.0684,284.8518 409.9134,294.5678 C411.5894,303.3928 416.5694,311.2288 419.3724,319.7708 C436.1904,371.0228 419.7744,432.4368 378.8764,467.8338 C358.2274,485.7048 332.4824,497.0328 305.4714,500.7678 C291.4274,502.7088 277.4834,502.6588 263.4564,500.5898 C256.7984,499.6088 250.2194,498.1328 243.7944,496.1298 L241.412177,495.390985 C238.744631,494.557557 236.036938,493.656492 233.5754,492.4288 C230.0644,490.6778 228.5434,487.7318 227.3114,484.1498 C226.5634,481.9758 227.7704,478.6378 229.9384,477.6908 L230.64397,477.388234 C234.359656,475.828447 237.354812,475.158329 241.4094,476.6868 C244.6764,477.9188 247.9934,479.0098 251.3524,479.9618 C258.0164,481.8508 264.8504,483.2548 271.7454,483.9308 C285.6404,485.2948 299.6984,484.5988 313.3284,481.5458 C337.8194,476.0598 360.2514,463.7458 377.2364,445.1728 C393.8334,427.0248 404.2294,403.8758 408.2144,379.7038 C410.1904,367.7098 410.3524,355.1228 408.7644,343.0728 C407.9394,336.8198 406.5384,330.6168 404.7234,324.5798 C403.6984,321.1718 402.3784,317.8698 401.3064,314.4818 C400.335114,311.4138 400.038966,308.132826 399.594882,304.931116 L399.4894,304.1938 C398.2844,296.0528 398.6994,287.7618 398.7074,279.5588 C398.7154,271.3078 398.6694,263.0548 398.7514,254.8038 L398.8319,245.47455 C398.86015,242.36405 398.8944,239.2533 398.9484,236.1438 C397.8114,236.3248 396.3974,235.4878 396.2884,234.1328 C395.8864,229.1188 394.7524,224.2498 394.1244,219.2638 L393.957623,217.952221 C393.36492,213.369751 392.644052,208.877061 390.7294,204.6378 C386.8414,196.0308 384.1034,186.9488 380.4184,178.2568 C373.0954,160.9888 362.1814,145.0548 348.6684,132.0488 C332.4464,116.4348 312.3474,105.3468 290.8064,99.0208 C290.1214,99.3078 289.4314,99.5818 288.7494,99.8748 C275.1084,105.7608 262.1584,113.3338 249.8624,121.6528 C243.5244,125.9408 237.4254,130.5698 231.6044,135.5388 C228.7704,137.9578 225.9294,140.3748 223.1594,142.8688 C221.9744,143.9348 220.8014,145.0158 219.6414,146.1108 C218.8674,146.8388 218.1014,147.5738 217.3394,148.3148 C215.5864,149.5468 215.5484,151.2808 217.2254,153.5128 C217.8224,153.2668 218.2084,154.2498 217.6584,154.5418 C214.3374,156.3058 211.7274,152.5358 212.4334,149.4108 C212.992009,146.936278 215.286247,144.664872 216.900689,142.721728 L217.1164,142.4588 C219.6264,139.3578 222.1984,136.2788 224.9264,133.3648 C239.2964,118.0148 256.2564,105.3228 274.6434,95.2138 C266.9134,93.8288 259.0794,93.0328 251.2464,92.8368 C246.7374,92.7258 242.2454,92.7988 237.7754,93.0488 C230.8064,96.8368 223.9254,100.7808 217.1754,104.9658 C211.5424,108.4588 205.9914,112.0858 200.5364,115.8508 C197.6944,117.8118 194.8854,119.8178 192.0874,121.8398 C190.6774,122.8608 188.5224,124.0718 187.3904,125.3528 L187.304561,125.458035 C186.512726,126.493264 184.223155,131.010894 187.2004,130.8858 C187.5184,130.8728 187.5794,131.3648 187.2744,131.4388 C184.5594,132.0988 184.2064,129.2998 184.6714,127.1888 C185.832166,121.924247 192.859108,117.670278 196.810175,114.386579 L197.0634,114.1738 C205.0594,107.3808 213.3194,100.8958 221.8064,94.7238 C195.3564,98.7858 170.1874,109.1708 148.3094,125.1198 C120.1944,145.6128 99.0634,174.4978 84.9844,206.0928 C78.2944,221.1068 72.7464,237.1068 70.7614,253.4708 C68.9824,268.1368 70.8764,284.2238 82.3184,294.5908 C82.9414,294.5298 83.5644,294.4668 84.1874,294.4238 L85.1580526,294.364908 C93.3071424,293.929355 110.30256,294.4822 109.7544,305.6998 C109.7314,306.1668 109.0214,306.4568 108.7934,305.9598 C106.12111,300.155162 98.3162204,301.198028 92.7540004,302.115771 L89.6243119,302.631293 C83.1260379,303.71079 76.4854,305.098897 70.7724,308.4788 C65.2924,311.7218 60.4914,316.9058 59.4334,323.3968 C58.3894,329.7938 62.6344,334.6188 66.2924,339.3238 C70.4394,344.6588 73.7734,350.1778 74.1714,357.1048 C74.5694,364.0778 71.1524,371.0978 72.1434,377.9918 C74.3544,393.3958 96.7674,388.4328 106.4024,386.0658 C109.2914,385.3568 113.2734,386.4598 114.6054,389.4038 C120.9804,403.4928 129.6484,416.3508 140.5654,427.3198 C145.9634,432.7438 151.8044,437.7048 158.1184,442.0278 C164.5014,446.3978 170.6984,449.9848 175.0744,456.5908 C176.7704,459.1528 174.4684,462.0118 171.8364,462.2338 C163.2124,462.9608 156.1794,458.7178 149.3744,453.9228 C142.5214,449.0938 136.0334,443.7108 130.1284,437.7578 C119.5814,427.1268 110.7944,414.8168 104.2274,401.3748 L103.323745,401.544784 C88.530032,404.266852 72.1264,404.25274 62.5224,390.7258 C58.2504,384.7088 57.7744,377.6588 58.8804,370.5688 C59.9574,363.6628 62.4804,357.1928 58.5804,350.7438 C55.0404,344.8898 50.0014,340.0688 47.9804,333.3518 C46.0274,326.8618 47.1334,319.9798 50.0484,313.9738 C55.6264,302.4858 67.1354,296.8188 79.1834,294.9768 C64.6754,286.2418 59.8104,268.3728 59.7854,252.0408 C59.7534,231.5868 66.9834,210.9168 75.1804,192.4638 C90.6434,157.6538 116.7314,126.9818 148.5654,106.0928 C178.1084,86.7088 213.7224,76.2628 249.1024,76.5768 C258.1904,71.1298 267.5214,66.0868 277.0174,61.3938 L279.047118,60.3987491 C293.590674,53.330079 308.099978,47.6328444 324.1944,45.0538 Z M75.8454,328.249 C77.6064,323.952 85.3474,323.966 89.0014,324.111 L89.6727926,324.141794 C100.791313,324.724928 119.21988,329.26272 121.4974,341.695 C121.8784,343.772 120.5464,346.511 118.0174,346.264 C114.3584,345.907 111.5834,345.239 108.5774,343.085 L107.05552,341.997926 C104.524872,340.199083 102.005567,338.476167 99.2314,336.997 C95.8294,335.185 92.3214,333.876 88.6184,332.829 C87.1004,332.401 85.5714,331.954 84.0464,331.551 C83.0374,331.285 82.0214,331.051 80.9994,330.848 C79.8004,330.109 79.0204,330.567 78.6614,332.22 C79.1324,332.382 79.0894,333.2 78.5364,333.141 C76.3414,332.908 74.9904,330.333 75.8454,328.249 Z M111.1747,310.2103 C111.1747,310.1591 111.2387,310.1495 111.2643,310.179964 L111.2747,310.2103 L111.2747,314.8183 C111.2747,314.8703 111.2107,314.8807 111.1851,314.8495 L111.1747,314.8183 L111.1747,310.2103 Z" id="ðŸ–-Ink" fill="#000000"/></g>

        <g id="face" transform="translate(315 248)"><path d="M95.4 211.2c16-12.4 100.6-16 109-8 8.4 8 28.2 31.2-9.6 46-37.8 14.7-86 13.9-99.4 0-13.5-13.9-16-25.6 0-38Z" fill="#fff"/><path d="M168 192.8c8.4-.3 17-1 25.4.3 14 2 28.3 12 28.3 27.6-.1 26-29.4 35.9-50.4 39.3l-2.3.3c-25.1 4-55.2 7.7-77.7-6.6-10.7-6.7-17.4-18-14.3-30.8a36.2 36.2 0 0 1 24.7-24.7c13.5-4.4 27.4-2.1 41-.3l3 .4c3.2-1 6.4-2.4 9.6-3.4a50 50 0 0 1 12.6-2Zm-3.2 33.4-13.1 1.7-14.9 1.9c.7 6.7.8 13.5.6 20.4a185 185 0 0 0 26.5-2.8c.6-7 1-14.1 1-21.2Zm-39 5c-12 1.3-24 2.5-36 3.5 2.8 5.2 9.7 8.5 15 10.4 6.1 2.1 12.4 3.4 18.8 4 1-5.8 1.8-11.9 2.2-18Zm87-10c-9 1.5-18.4 2.1-27.4 3.3l-10.6 1.3c1.1 6.4 2 12.9 2.5 19.4l1.6-.3a70.3 70.3 0 0 0 21.4-7.3l.6-.3c5.2-3.2 12.1-9.4 12-16.1Zm-86-10c-5.9.5-12.1.6-17.8 1.9-8.4 1.8-18.4 6.4-20 15.8a10 10 0 0 0 .2 4.3c12.3-2.3 24.7-4.5 37-6.5.4-5.2.5-10.4.6-15.5Zm32.1-3-8 .7c-6 .5-12 .7-18 1.1 1.4 4.7 2.4 9.4 3.1 14.2l14.8-2.2 14-2v-3.6l-.1-7.2h-.6l-5.2-1Zm50 5.6c-5.7-5-16.2-4.7-22.9-4.5-5 .1-10 .7-15.2.7 1 3 1.9 6 2.6 9.2l10.8-1.6c8.2-1.2 16.4-2.8 24.6-3.8Zm-38-69.4c7.5 4.6 19 15.3 10.8 26.6-9.5 10-23.3-1.4-30-6.6-6.4-4-13.4 6.3-7.6 11 49 36.3 69-29.8 30.5-36.4-4.2-.8-5.8 4-3.8 5.4Zm73.9-25.6c-2.6 16.9-29.1 40.4-32.7 40.4-3.6 0-34.5-30-34.5-43.3 0-13.3 13.3-31.2 34.5-8.7 12-15 35.3-5.3 32.7 11.6Zm-118-15c6.3 9 4 20.4-2.4 28.7-5.6 7.4-24.6 23.9-27.5 24.3-3.7.5-20.4-18.4-24.2-21.6-4-3.1-14.6-13.3-12-22.8 2.4-9 15.5-24.4 34.6-8.6 6-15.1 26-8.3 31.6 0Zm-62-29.4c9.7-11 30.5-22.6 42-7.7 2.8 3.8-.3 10-4.6 11-5.2 1.2-10.6.4-15.8 2a49.5 49.5 0 0 0-13.3 6.8c-4.7 3.2-9 6.7-12.9 10.7-2.3 2.4-5.3 8-8.9 8.1-3.6.1 1.2-11 1.6-12 2.9-7 6.8-13.3 11.8-18.9Zm118.5-26.8c5.7-2.7 11.2-1.5 16.9 0l2.4.7a58 58 0 0 1 17.7 7.4l.4.3c6.6 4.7 16.5 14.7 11.8 23.5-.3.6-1 .6-1.6.4-6.1-2.7-10.7-8-17.2-10.3l-1.2-.4a64.3 64.3 0 0 0-21-4.2c-4.8 1.5-11.2.3-12.5-5.6v-.3l-.1-.6c-.8-4 .3-9 4.4-11Z" fill="#000"/></g>

        <g id="facial-hair" transform="translate(279 400)"><path d="M294.3921,32.7224 C293.0591,28.7404 286.2001,29.0874 286.6221,33.7744 C287.1051,39.1294 285.2721,45.1014 280.1421,47.7014 C274.7701,50.4234 268.7261,47.9764 265.4491,43.3064 C262.6001,39.2474 260.6351,34.8324 257.0501,31.2924 C253.7171,28.0004 249.6631,25.4614 245.2281,23.9544 C241.7741,22.7814 238.1911,22.4694 234.7161,22.8544 C226.0561,20.8974 216.0221,25.3484 210.6251,32.1004 C210.2771,32.5354 209.9541,32.9824 209.6421,33.4334 C209.1071,32.7054 208.5471,31.9844 207.9541,31.2734 C206.4251,29.4414 204.5271,29.0484 202.8131,29.5474 C193.0521,22.2884 179.3731,21.3264 168.2871,27.8774 C159.4051,33.1264 152.0581,40.8624 141.1361,41.4644 C132.4851,41.9414 123.0621,37.0054 122.4521,27.4984 C122.1321,22.5344 115.3681,18.3964 111.5731,22.9924 C103.5951,32.6564 101.9991,45.4934 106.4131,57.1784 C111.0711,69.5074 120.5611,78.1924 132.5771,83.3014 C145.5531,88.8184 160.7591,90.7344 174.7961,90.2974 C188.7901,89.8614 201.5141,84.4804 209.9491,73.0334 C210.9561,71.6674 211.8411,70.2794 212.6171,68.8754 C220.8071,79.3034 233.6451,83.6864 246.7211,84.0014 C260.4011,84.3294 276.5731,81.9284 286.2451,71.3044 C295.5661,61.0644 298.7831,45.8364 294.3921,32.7224" id="ðŸ–-Ink" fill="#000000"/></g>

        <g id="eyewear" transform="translate(203 303)"><path d="M367.0895,74.4323 C364.2615,82.1283 359.9575,90.1403 354.6945,96.6173 C333.4005,114.6493 312.7095,104.6653 302.2035,80.2263 C298.2115,62.9553 308.8105,44.3513 320.0415,31.6463 C336.2615,15.3893 362.7325,23.9213 370.1905,43.2473 C370.6435,45.7513 370.9175,48.2493 371.0485,50.7393 C370.8935,58.8303 369.9185,65.7453 367.0895,73.4323 M162.4095,58.9113 C190.4615,25.5443 242.9415,23.7603 241.6025,75.1153 C235.5765,140.1193 134.1055,124.1643 162.4095,58.9113 Z M375.9125,31.0763 C374.9295,29.4113 373.8385,27.8003 372.6475,26.2593 C372.2075,25.9973 371.9545,23.6733 370.3365,23.5013 C348.7095,-0.3577 310.7165,13.1793 296.9885,36.9533 C294.4815,39.9593 292.4365,43.4783 290.9285,47.1963 C277.4025,44.7153 261.6335,45.1973 249.0535,50.3063 C236.5795,17.7343 198.8145,14.8263 173.9275,28.7433 C158.4485,36.3563 148.4115,52.2993 133.3575,61.0573 C97.9685,63.6043 59.9875,55.6753 25.2375,64.5523 C-2.1685,70.2503 20.7415,84.1273 25.3375,74.8663 C58.1005,65.1863 96.9155,73.3663 130.9325,71.1853 C134.4695,77.1683 141.2525,82.0643 148.0125,81.8553 C155.3135,146.5763 249.6975,135.8443 252.9535,78.3113 C256.6465,72.4723 261.2395,66.8843 267.8135,63.2463 C270.3305,62.7253 272.7615,62.0483 274.9835,61.0003 C278.7815,60.4643 284.6335,62.0743 288.1275,65.2363 C300.0965,137.0523 369.0515,128.6883 381.3745,65.7743 C381.6195,65.5243 382.3045,64.5863 382.8305,63.0813 C387.0485,57.5043 397.3745,55.4313 395.7245,46.0163 C394.2555,36.5993 382.3635,36.7113 375.9125,31.0763 Z" id="ðŸ–-Ink" fill="#000000"/></g>
    </g>
</svg>