<svg xmlns="http://www.w3.org/2000/svg" viewBox="0 0 704 704" fill="none" width="512" height="512">
    <desc>"Open Peeps" by "Pablo Stanley", licensed under "CC0 1.0". / Remix of the original.</desc>
    <mask id="viewbox"><rect width="704" height="704" rx="0" ry="0" x="0" y="0" fill="#ffffff" /></mask>
    <g mask="url(#viewbox)">
        <rect id="background" fill="#d1d4f9" width="704" height="704" x="0" y="0" />

        <g id="body"><path id="skin" d="M705.3 1074a2351.1 2351.1 0 0 1-15.6-101c-1-7.7-2.5-16.4 2.7-22 7.3-8 14-14.8 14.8-26.2.8-10.7-2.8-22.4-5-32.8a809.4 809.4 0 0 0-17.3-64.7c-6.6-21.7-13.9-43.2-21.3-64.6-6.9-20-13.5-40.3-22.5-59.5-17-36.5-46-63.5-81.6-81.6-9-4.5-27-20.5-36.3-24-8.5-3.4-8.5 6.3-16.9 2.6-6.7-2.9-13-6.7-16.7-13.2-4-7-14.3-16.9-15.9-25-3.3-17.4.3-32.2-12-45.3a90 90 0 0 0-41.1-23.8c-33.7-9.3-78.5-2.8-98.8 28.5-9.7 14.9-13 33-26.2 45.1-11.4 10.7-8.8 18-23.6 23.4-.9.3-23.6-4.5-24.4-4.2-16.2-3.5-31.7 6.2-46.5 11.8a325.4 325.4 0 0 0-63 32.3 399.2 399.2 0 0 0-102.3 98.5 482.5 482.5 0 0 0-76.4 161c-1.7 6.4-3.5 13-1.5 19.4 1.7 5.3 5.4 9.2 9.8 12.4 6 4.3 18 7 17.7 15.7-.1 6.6-2.4 13.5-3.5 20-1.3 7.7-2.3 15.5-3.4 23.2-4.8 35.4-8.6 71-10.3 106.6a920 920 0 0 0-.5 106c.1 2.3.8 4.5 2 6.2-1 .4-1.2 2.4.1 2.7l2.7.5a12 12 0 0 0 7 2.4l5.5.2c19.3 4 38.6 7.9 58.1 10.8 23.8 3.5 47.6 6.3 71.5 8.7 49.2 4.8 98 3.2 147.1.6a1877 1877 0 0 1 147.4-2c49.2 1.4 98.4 3.5 147.6 4.4 55 1 110-.5 164.8-5 7.5-.5 12.2-6.5 10.7-14-8.9-44.7-19-89.1-27-134Z" fill="#ffdbb4"/><path id="shirt" d="m201 597.5 1.2-.4c14.5-5.7 29.6-14.8 45.4-11.4.5-.2 10.8 1.9 17.9 3.2l-6.7 7L247 598c40.7 67.1 88.8 100.7 144.3 100.7 55.5 0 97.7-33.6 126.4-100.7l4-1c.4 0 1 .2 1.5.4 9.3 3.6 27.4 19.6 36.3 24.1 35.6 18 64.5 45 81.6 81.6 8.7 18.6 15.2 38 21.8 57.5l.7 2c7.4 21.4 14.7 43 21.3 64.6 6.3 20.4 12 41 16.6 61.8l.7 2.9c2.2 10.4 5.8 22 5 32.8a29 29 0 0 1-3 10.7l-80.4 29 38.4 261.3c-35.1 1.5-70.3 2-105.5 1.3-49.2-.9-98.4-3-147.6-4.3-47.7-1.2-95.3-.7-143 1.7l-12 .6a946.3 946.3 0 0 1-139.5-1l-3.1-.3v-38.3l16.3-212.9-83-15.6-81.3-39.5a21.7 21.7 0 0 1-5.6-8.8c-1.9-6-.5-12 1-18l.5-1.3a492.8 492.8 0 0 1 76.4-161A399.3 399.3 0 0 1 138 629.7c19.8-13 40.9-23.9 63-32.3Z" fill="#78e185"/><path d="M232.2 584.6c5.1-.3 10.3.6 15.4 1 .4.1.6.8 0 .9-9 1.9-18 4.5-26.9 7.1l-3.8 1.2c-10 3-19.8 6-29.6 10-19.4 7.9-37.8 18.5-54.8 30.8C67.2 682.8 20 754.3-9.9 828.3a526 526 0 0 0-24.3 77c-.4 1.6-2 5.4-1 7 .7 1.3 3.6 2.1 5 2.9l4.5 2.3 25.2 12.9 2.3 1.1c38 18.6 78.4 34.4 121 35.5l.4-3.7a342 342 0 0 1 9.9-60c.3-1 1.6-.6 1.7.3 3 23.1 2 46.4 1 69.7-1.8 41-4.3 82.2-6.5 123.3-1.2 20.6-2.6 41-3.9 61.7-1.3 20.5-1.7 41.6-4.7 62-.6 4.6-6 7-10 6.6-4.4-.5-7.9-4.5-8-9 0-11.9 1.5-24 2.4-35.8l2.5-33.8c3.1-41.1 6.8-82.2 10.2-123.3a4771 4771 0 0 1 3.8-43.7C76.4 979.8 34.2 963-6.1 943.5c-.6 13.2-2 26.5-3.4 39.6-3.8 36.8-7.1 73.6-9.6 110.5a2254.2 2254.2 0 0 0-4.2 92.7l-.2 7c0 4.4-.5 8.5-4.3 11.7-3.7 3.3-8.9 3.5-12.6 0-5-4.6-4.2-10.9-4-17.1a1675.6 1675.6 0 0 1 1.8-47.2 1321 1321 0 0 1 10.5-109.5l2-14c3.5-26 7.5-52.7 15.5-77.9-3.1-1.5-6.2-3-9.3-4.7-5.5-2.7-11.2-5.4-16.6-8.4-4.2-2.5-7.9-5.8-9-10.8-1.4-5.5.6-11.5 2-16.9v-.4a502 502 0 0 1 26.6-80 523.2 523.2 0 0 1 67.8-117 353.8 353.8 0 0 1 88.7-83.3 239 239 0 0 1 53.8-25.7 142.6 142.6 0 0 1 42.8-7.5Zm90.1-66c6-6.5 18.1.2 15.2 8.8a108.2 108.2 0 0 1-34.7 52A79.4 79.4 0 0 1 247 598l1.7 2.4a321.1 321.1 0 0 0 46.1 52.6c36 31.2 84.8 48 132 36 37.1-9.4 69.8-38.8 79.4-76.2-1.3.6-3 .9-4.8.5-7.7-1.7-15.3-9.8-20.3-15.6-5.3-6.3-9.5-13-12.6-20.7-5.6-14-7.4-32.1.3-45.7 1-1.7 3-.7 3.3 1l.3 2.5c1.5 12.7 3.3 25 9.3 36.6a76 76 0 0 0 18.2 23.1c2.6 2 5.8 3.6 8.1 6l.5.4c.6-5 4.1-7.3 7.6-7.2 3.3.2 7.3 1.6 8.8 2.3l.1.1a341 341 0 0 1 65.1 42 259 259 0 0 1 88.4 129c7.5 25.3 11.8 51.4 16.3 77.4l2.8 16c4.2 23.9 8.9 48.4 18.4 70.7 2.5 5.7.6 11.1-5.5 13.4A1493 1493 0 0 1 688 953c3.7 16 6 32.5 8.7 48.5 6 34.1 13.2 68 19.4 102 3.2 17.5 6.1 35 9.3 52.3l4.7 25.2 2.4 13.6.1.7c.5 2.4 1 4.9.4 7.3-.8 2.7-2.9 4.6-4.8 6.6-1.6 1.6-3.8 1.6-5.7.7l-.7-.3c-3.4-1.6-6-3.2-7.3-7-.7-2.5-1-5.2-1.5-7.7a3535.6 3535.6 0 0 1-7.8-43.6l-1.6-9.1c-5.2-31.4-10.2-62.9-12.8-94.5-1-14-2.3-28.1-3.5-42.2l-.9-10.5c-1.1-13.3-2.5-27-2.7-40.5l-4.5 1.6L657 964c-5.5 2-12.5 6-18.4 5.2-2.9-.3-5-1.2-6.8-2.9 2 28.8 4.8 57.4 8.5 86a1965.7 1965.7 0 0 0 22 135c.6 3.2 1.4 6.4 1.9 9.6.5 3.7-.5 5.9-2.5 9-1.7 2.4-5 3.7-7.8 2-3.6-2.3-5.5-4.3-6.5-8.4-1-3.7-1.6-7.6-2.3-11.4a1654.2 1654.2 0 0 1-11.4-65.2c-7.8-52-12.7-104.4-15.2-156.8a1388 1388 0 0 1-1.4-77.8c0-13.3.5-26.6 1.4-39.9 1-13.4 3-26.5 4.8-39.8 0-.5.7-.5.7 0 .8 14.9 2.1 29.8 2.8 44.7.6 14.3.9 28.5 1.4 42.8.6 18.7 1.5 37.5 2.7 56.2a9.6 9.6 0 0 1 8.5-3.1c4.7-1 9.7-3.4 14.1-5l16.8-5.5 26.4-8.7a679 679 0 0 1-18-80.8l-2-12.3c-4-24.2-8.5-48.5-15.8-72a229.8 229.8 0 0 0-34.8-68.2 370.2 370.2 0 0 0-52.7-55.3C557 627 539.7 614 523 600c.1.9.2 2 0 3-3.5 25.9-17 50-35.8 67.9-37.7 36-93.6 43.4-142 26.5-46.7-16.3-88-55-102.6-102.8-.3-.8.8-1 1.3-.5l2.4 3.3c0-.4.2-.9.7-1a129 129 0 0 0 46.6-29.2 100.2 100.2 0 0 0 21.3-33.3l.4-1c1.7-5 3.2-10.2 7-14.2Z" fill="#000000"/></g>

        <g id="head" transform="matrix(.99789 0 0 1 156 62)"><path id="skin" d="M397.2 173.7c-33-46.7-115.8-52-168.2-51.7-103.4-.9-125 118-130.5 201.3a46.6 46.6 0 0 0-29 14.4c-8.9 10.6-12 28.7-3.6 40.5C71.4 386 80 388.7 89.2 389c30.2-2.9 36.4 24 51.3 44.2 38.1 51.5 104.2 68.3 164.9 68.5 20.5.6 45.4 2.1 58.5-17.3 41.7-72.2 42.6-168 45.2-249.7.3-21 .2-43.1-11.9-61.1Z" fill="#ffdbb4"/><path d="M468.4 214.2c.4.8.7 1.7.9 2.6.5 3-.6 5.4-2 7.6l.3 4.4c.5 7.5-1.2 17.8-7.8 20.8l-.4.4c-.5.8-1.2 1.6-2.3 2a9 9 0 0 1-1 .7l-.1.2a14.3 14.3 0 0 0 .4-.5 21.7 21.7 0 0 1-11 1.3c-2.3.9-4.6 1.5-6.6 2-6.1 1.5-14 2.7-20 .1-1.8-.7-3.3-1.7-4.4-3l.5 14a859 859 0 0 1-.9 74.8 589.6 589.6 0 0 1-3.7 39.1A271.7 271.7 0 0 1 393 444a138 138 0 0 1-21 36 93.6 93.6 0 0 1-32.2 25.1 95.3 95.3 0 0 1-39.6 6.5c-5.1-.1-10.5-1-15.6-1.9h-.3c-4-.7-8-1.5-12-2.6a128.6 128.6 0 0 1-22.3-7.5l-6.6-2.5c-2.8-1-5.5-2.3-8.2-3.8L228 490a99.9 99.9 0 0 1-11.8-6.8l.1-.7c-.1-.3-.1-.6.3-.9.2-.2.7-.1 1.1 0l-1.6-.9a.8.8 0 0 1 0-1.3l.3-.2.1-.6c-.2-.4-.3-.8.1-1 .6-.6 2 .2 2.6.6h.2l1.1.7.8.4c0-.1 0-.2.2-.3l-2.8-1.5c-.5-.3-1.3-.9-.5-1.5.6-.5 2.1.4 2.9.8l.3-.1a18.3 18.3 0 0 0-1-.6c-1-.5-.3-2 .6-1.5h.2l.2.2c.6 0 1.5.4 2 .7 3.1 2 6.4 3.7 9.8 5.2a427.8 427.8 0 0 0 13.8 6 146.7 146.7 0 0 0 48 11.7h7.7l13.4-1.3 1.4-.2a74.1 74.1 0 0 0 18.7-5.4c4.2-2 8.4-4.5 12.3-7.5l7.4-7.3 7.3-7.4 4.5-6.1c5.8-8.3 10.4-17.5 14.2-27l6-17.4a237.5 237.5 0 0 0 6.4-25.6c2.2-10.8 3.5-21.6 4.5-32.5 2-19.8 2.5-39.6 2.6-59.5 0-11.9 0-23.7-.3-35.6 0-6.9-.2-13.7-.3-20.6a2668.7 2668.7 0 0 0-.4-25c0-.5.2-.8.6-.8l-.1-15.6c0-.4.1-.6.3-.7v-1.3a59 59 0 0 0-8.4-19c-1-1.7-2.3-3.3-3.8-4.7l-1-.6a244.4 244.4 0 0 1-2.8-2l-1.8-1-1.7-1.2c-.7-.3-.3-1.2.2-1.5l-.3-.2-4.5-3.9c-.3.2-.7.1-1 0a66 66 0 0 0-2.7-2.6 60.3 60.3 0 0 0-6.8-3.8 100.6 100.6 0 0 0-13.9-5.3l-.2-.1H351l-2.3-.2a1094.6 1094.6 0 0 0-169.3 5.7l-6.5.6c-8.2.7-17 1.4-24 5l-1 .5c.5 4 2 7.8 3.4 11.5l.7 1.7a53 53 0 0 1 4.4 20.2c-.1 5-1.2 9.7-2.7 14.4-.8 6.6-2.9 13-5 19.2a272 272 0 0 0-16 95.3c0 .9-.3 1.6-.6 2.3v.1l.6 4.2c1 5.5-6.4 8.3-8.9 4.6a1 1 0 0 1-.6.3c-.7 0-1.7-1-2-1.5l-1.2-2-.2-.1.4.8.4.8c.4 1-1.2 1.3-1.7.5l-1.4-2c-.3.2-.5.2-.7 0a33 33 0 0 0-5.5-7 25.6 25.6 0 0 0-10.8-5.1 37 37 0 0 0-20 2.8l-7.9 5.5-1.8 2a37.4 37.4 0 0 0-4.6 7.7v.2l-.1.3a31 31 0 0 0-1.5 11.5v4.5c.4 3.9 1.4 7.7 3 11.3a16 16 0 0 0 3.3 5.7c.8 1.4 1.7 2.7 2.8 3.9 2 1.4 4.4 2.6 6.8 3.5l1.9.5a39.8 39.8 0 0 0 22.3.8c2.5-.4 5-1.2 7.3-2.2 2.2-1.1 4.4-2.5 6.3-4 .3-.2.6-.1 1 0l.2-.1 1-.9c.3 0 .4 0 .5.3l.2-.1c.7-.6 3 1.1 2 2.1l1.2 1c1.7 0 5.2 3.2 4.5 3.7l-3 2.4c1 .6 2.1 1.7 1.6 2.1-1 1-2.2 1.9-3.3 2.6a30.4 30.4 0 0 1-5.4 3.1c1.7 3.4 3.4 6.7 4.9 10.1 1 2.4 2.2 4.7 3.5 7 1.7 3.4 3.8 6.6 6.2 9.6a109.1 109.1 0 0 0 17.3 19.5l4.6 3c4 3 8.3 5.6 12.8 7.8.5.2 1 .9.3 1.4l4.4 2.5c.7.4 1.8 1 1 1.7-.6.4-2.4-.4-3.5-1l.3.2h.2v.1c.5.3 2.2 1.2 1 1.7-.6.1-1.1 0-1.7-.2l-1.6-.7c0 .1-.1.3-.4.5h-.7l3.7 2c.4.2 2 1.1 1 1.7-.6.1-1.1 0-1.6-.2a27.8 27.8 0 0 1-3-1.4l-.4-.2h-.5l3 1.5c.6.3 1.6 1 .7 1.6-.6.5-2.2-.3-3.1-.9l-.2.3c-.7.4-2.1-.4-2.8-.8-.2 0-.2-.1-.3-.2a155.4 155.4 0 0 1-22.6-14.3 102.4 102.4 0 0 1-21.5-22.8c-4.6-6.5-8-13.3-11.3-20.5 0-.1 0-.4.2-.7a210 210 0 0 1-2-5l-5.2.4c-4 .2-8-.1-11.7-1-4.6-.6-9.1-1.9-13.2-3.9a69.8 69.8 0 0 1-6.9-4 35.3 35.3 0 0 1-18.7-28.3 43 43 0 0 1 1.5-21.5 36 36 0 0 1 12.9-19.3 34.9 34.9 0 0 1 11-6.2l-.7-1.9c-.3.1-1.3 0-1.4-.4l-.5-1.6-.4-1-.7.2v1c0 .3-.5 2-.8 1.1l-.5-1.6-.4-1-.5-.5-.1-.3v.3c0 .2-.6 1.6-.7 1.3-1.7-4.7-3-9.6-4.2-14.5a159.4 159.4 0 0 1-3-15.8l-.2-.7v-1a165.8 165.8 0 0 1-1.8-26.5h-.2l-.1.1c-2.6 1.1-5.4 2-8.2 2.8a28 28 0 0 1-31 11l-1 .2c-1.6.2-2.9-.1-4.2-.5a18.1 18.1 0 0 0-3.2-.6c-3.3-.4-6-.8-8.3-2.8-.7 0-1.4 0-2-.3-6.4 1.6-13.1-1.8-15.4-8.8a23.6 23.6 0 0 1-8.8-9.3 54.5 54.5 0 0 1-9-17.8h-.1c-1-2.2-1.5-4.5-1.5-6.8-1-6.5-.8-13 1.2-18.9a26.4 26.4 0 0 1 9.3-19.4c0-3.6 1.6-7.7 3.7-10.4a22.1 22.1 0 0 1 16.6-8.8c3.3-8.4 13.3-10.4 21.9-7.6 3.5-3.6 8.8-5.4 14-4.8a20 20 0 0 1 11.3 5.6l2.5.7c2.7-1.2 6-1.5 8.8-.7 5 1.3 8.4 5.1 10.7 9.5l2.1 1.6c.8.3 1.5.8 2 1.3 1 .5 1.8 1.3 2.3 2.5 1.2 1.3 2.4 2.7 3.5 4.2a207 207 0 0 1 2.5-5.4c1.4.4 3-.2 3.7-2l.2-.5c4.4-11.8 12.3-32.7 19.8-42.4a51.5 51.5 0 0 1-31.7 8.7c-5.7 1-11.5 1.1-16.9 0a88.6 88.6 0 0 1-13.7-6.6l-.3-.3c-.7 0-1.4 0-2.2-.2a13.2 13.2 0 0 1-8.2-6.7 23 23 0 0 1-7-15.4c-.6-3-.5-6.3.5-9.2l.3-.6a25.6 25.6 0 0 0 .3-1c.3-1 .7-2 1.2-2.9.2-1 .5-1.8 1-2.7v-1.3c-3-6-2-13.8 2.8-18.7a12 12 0 0 1 2-9.3c1.3-2 3.3-3.6 5.5-4.8l1.6-.5 2.6-2c.2-5.9 6-9.3 11.1-12.2l.8-.4c1.6-1 2.8-2.3 4-3.7 1.3-1.5 2.5-3 4.3-3.9 3.1-1.7 7-2 10.6-2.4.8 0 1.5-.2 2.3-.3 10-1.2 20.5-2 30.5-1 5.5.6 10.1 3.3 12 7.7 4.8.5 9 4 12.4 7.5 4.2 4.4 7.7 9 9 14.9.8.4 1.5 1 2.2 1.6 0 4-.5 8.2-1.7 12a10 10 0 0 1-1.5 6.5c.2 1.9 0 3.7-.3 5.6 2.2 4 .1 10.1-3 14.2l-.1 2.2c.2 0 .4-.2.5-.3 9.2-7.9 18.6-10 28.7-12.3 5.8-1.4 11.9-2.8 18.3-5.4a323.6 323.6 0 0 1 48-5.7h-.3c-8.2-1.4-16-4.7-22.8-9.6a11.7 11.7 0 0 1-8.1-7l-.8-1c-5-1.2-9-5.6-8.3-11.3a15.1 15.1 0 0 1-3.3-13.5c-1.8-3-2-6.8-.6-10-2.9-3.5-3-8.3-.9-12.2a8.3 8.3 0 0 1 0-10.1 8.4 8.4 0 0 1 4.7-3.1 9.5 9.5 0 0 1 5.6-6.5c.4-2 1.5-3.7 3.5-5.1 1-.7 2-1.1 3-1.3a11 11 0 0 1 4.6-5.5c2.7-1.6 5.9-1.8 8.7-1 3.7-5.6 12-7.8 17.6-3.6 4.7-3 10.7-2.3 15 1.2 5-3 11.4-1.8 15.4 2.4 6.5-3.5 15-.9 18.4 5.8 6.6-.7 12.7 3.5 14.4 9.7l.9.7c4 .3 7.6 1.8 9.8 5.4 1.1 1.8 1.6 4 1.5 6a10 10 0 0 1 4.5 13.2c3.3 3.5 4.2 8.8 1.9 13.2 1 1.6 1.4 3.5 1.3 5.5 0 3-1.5 5.4-3.3 7.4a10 10 0 0 1-2.4 12.7c-2.2 7.8-7.8 13-16.3 16.2a86 86 0 0 1-13.4 3.7c18.3 2.5 36.3 6.8 53.6 13.2 1 .4 1.7.3 2.3-.1l.5.2.6.3a188 188 0 0 1 14 8.5V98c0-4.1.4-8.2 1.5-12-1.5-2-2.5-4.2-3.1-6.5-1.5-5.8 1.3-13.9 6.3-15.8 1.7-4.9 5.7-8.4 10.5-9.7l1.3-1c1-.7 2.1-1.2 3.3-1.5.6-2.6 2-5 4.4-6.7 3.4-2.4 7.5-2.6 11-1.3l2-.6a14.2 14.2 0 0 1 19.7 1.2c3.5-1.6 7.5-1.7 11 .4 2.9 1.7 4.7 4.5 5.3 7.5 5.4.1 10.3 3.7 11.8 9 5 .5 9 4.4 9.9 9.3 3 .4 6 1.9 7.8 4.8a9.9 9.9 0 0 1 1.3 4.3c1.6.8 3 2 4.1 3.5 2 2.6 2.3 5.7 1.6 8.6l.2.4.3.6c.5 1 1 2.2 1.3 3.4 1.6 2.4 2.4 5.3 2.2 8.3a40.8 40.8 0 0 1-.3 27.2c-.4 1.8-1 3.6-1.7 5.4-1.6 2.2-3.4 4.4-5.3 6.5a41 41 0 0 1-10 10.4 36.8 36.8 0 0 1-11.1 6.2l-2.2-.4a36.6 36.6 0 0 1-16 2.7c-5 0-9.3-1.2-13-3.5l.8 1.5.5 1-.3.2c-.8-1.3-1.7-2.5-2.8-3.3-1.4-1.1-3.7-1.2-4.7.6v.1c-.5 1-.5 2 0 2.7l.4.7.1.1c1.4 1.2 2.7 3.8 4 6.5.9 1.5 1.7 3 2.4 4.6.5.7 1.3 1.3 2.1 1.4-.1 1.3.4 2.6 1.4 3.2l1-1.5a16.8 16.8 0 0 1 19-5.7 43.4 43.4 0 0 1 16.5.4 26.1 26.1 0 0 1 6.3 5.3l2 1.5c2.5 1.4 4.4 4 6 6.6 1.2 1.8 2.3 3.7 3.2 5.6 4.4 7.5 9.4 16.8 5.5 24Z" fill="#000"/><path d="M118.7 358.4c1.6 1.8 2.8 3.9 3.7 6.1.4.8 0 1.2-.8 1-.3 0-.8-.2-1.2-.5l.2.5c.4.7 0 1.3-.8 1l-.2-.1c.5.8 1 1.7 1.3 2.5.4.8 0 1.4-.9 1l-1.3-.8.2.3.4 1c.4.7 0 1.1-.9 1l-1.8-1.4-.2-.1c.2.6-.3 1-1 .8-.9-.1-2.6-1.7-3-2.5l-.1-.2-1.4-1.2c-.4.5-1 .8-1.3.2-.8-2.2-2.1-4.2-3.9-5.9a40.4 40.4 0 0 0-6.1-5.7 22.2 22.2 0 0 0-5.2-1.6l-.4-.1H94l-2-.4c-3-.4-5.8-.5-8.7-.2-.5 0-1-.4-1.2-.8h-2c-1 .1-.8-1.4 0-1.5l3-.5v-.3a36 36 0 0 0-5.5.2c-.8 0 .2-1.5.6-1.5h.3l.3-.1v-.1c-1.2 0-2-1.7-.6-2h.5l.5-.1v-.5h-1.7l.4-.6c.1-.4.3-.8.5-.8h.4l.5-.1c0-.4.5-1.2.8-1.3 1.9-.3 3.7-.5 5.6-.6.2-.4.4-1 .7-1a51.2 51.2 0 0 1 6.3.1l1 .3a28.5 28.5 0 0 1 11 4.3 45.5 45.5 0 0 1 8 6.6 86.2 86.2 0 0 1 6 5.6Z" fill="#000"/></g>

        <g id="face" transform="translate(315 248)"><path d="M189.0594,229.1111 C195.3794,227.6381 200.3434,232.9901 199.1014,239.1531 C197.7864,245.6771 190.7714,247.9131 184.8894,247.7081 C178.2204,247.4771 171.5564,246.1001 164.8544,245.8231 C157.9694,245.5391 151.0584,245.4871 144.1694,245.6731 C137.7974,245.8451 131.2574,246.9681 124.9354,245.9601 C122.4734,245.5671 122.7064,242.3171 124.3084,241.1621 C129.0644,237.7321 135.2284,236.3341 140.8344,234.8951 C146.5504,233.4271 152.3934,232.3031 158.2554,231.6171 C164.1984,230.9221 170.1904,230.5751 176.1724,230.5071 C178.8954,230.4761 182.2344,231.0811 184.8894,230.5911 C186.2424,230.3401 187.6204,229.4471 189.0594,229.1111 Z M170.814304,144.367155 C178.365682,148.9572 189.871664,159.660291 181.748119,171.039573 C172.185929,181.073062 158.418535,169.568982 151.634201,164.366134 C145.343449,160.333898 138.275437,170.704507 144.112,175.412823 C193.135736,211.708059 213.030606,145.567387 174.633685,138.970386 C170.406047,138.243425 168.835891,142.947174 170.814304,144.367155 Z M116.0593,110.0915 C126.1603,108.4115 127.9273,122.8115 117.9163,123.8175 C115.8153,124.0285 113.7263,124.2125 111.6413,124.3955 C111.8443,125.0475 111.9793,125.7185 112.0533,126.4085 C112.1483,126.9945 112.2193,127.6165 112.2823,128.3275 C112.5993,131.8705 110.0873,135.5545 107.1523,137.2725 C104.1023,139.0575 99.7243,139.2955 96.6953,137.2725 C95.1333,136.2285 93.5733,135.0515 92.7123,133.3255 C91.5573,131.5525 90.9273,129.5005 90.8633,127.3945 C86.2583,128.5905 81.5693,130.2075 76.9183,131.0645 C77.0893,131.2325 77.2573,131.4115 77.4203,131.6085 C77.5443,131.7595 77.3743,132.0425 77.1933,131.9035 L74.8603,131.3865 L74.8603,131.3865 C74.1423,131.4805 73.4243,131.5575 72.7083,131.6025 L72.7253,131.5395 L72.7253,131.5395 C71.5283,131.5185 70.5483,130.1035 71.6193,128.9715 C75.7284316,124.628237 82.1402363,121.74178 87.9859351,119.328363 L93.618224,117.019362 C100.820152,114.092257 108.422685,111.361654 116.0593,110.0915 Z M197.3196,114.5463 C203.9356,113.7913 210.4866,114.0913 217.1136,114.4953 C228.2666,115.1743 223.5886,131.4383 214.6366,127.6833 C214.7286,128.2783 214.7526,128.8743 214.6836,129.4293 C214.3336,132.2883 213.4016,134.7043 210.7776,136.2403 C208.3406,137.6663 205.2516,137.6623 202.8146,136.2403 C200.2046,134.7183 199.0276,132.5733 198.3616,129.7863 C197.8456,127.6253 198.0526,125.8173 198.3506,123.6773 C198.4496,122.9683 198.7586,122.3073 199.1866,121.7133 C198.5626,121.5573 197.9376,121.4063 197.3116,121.2653 C191.7456,119.9993 186.2546,120.2533 180.7046,119.4513 C180.1126,119.3653 180.0186,118.4093 180.5366,118.1663 C185.5236,115.8233 191.8636,115.1683 197.3196,114.5463 Z M115.0395,64.3154 C118.8575,62.8584 123.6535,65.2814 125.6025,68.6144 C127.8145,72.3964 126.8695,76.7624 124.1395,79.9494 C119.951684,84.8382684 111.976365,87.8499762 106.098381,90.639663 L105.6265,90.8654 C99.5905,93.7774 93.3895,96.4514 87.1045,98.7814 C80.9235,101.0744 74.4935,102.8704 68.0855,104.4124 C64.7065,105.2254 61.2555,105.8974 57.8025,106.3214 C55.0765,106.6554 52.9745,105.9074 50.3665,105.9074 C49.9855,105.9084 49.8665,105.4034 50.1775,105.2094 C52.6145,103.6774 54.4235,101.6604 57.0815,100.2414 C59.8495,98.7644 62.6275,97.3124 65.4155,95.8744 C71.0525,92.9684 76.4805,89.7344 81.9185,86.4794 C87.6505,83.0484 93.2525,79.4354 98.7005,75.5674 C104.0315,71.7824 108.9445,66.6404 115.0395,64.3154 Z M183.0763,61.2035 C187.8443,60.2785 192.5663,62.5345 193.9773,67.3935 C195.3303,72.0485 193.9153,73.0465 197.5243,76.3775 C200.401223,79.0321154 203.502998,81.4015237 206.633449,83.7347007 L211.240945,87.1599199 C219.586327,93.3374333 228.0007,99.1782333 237.5963,103.3465 C238.4073,103.6985 237.9383,104.9035 237.1693,104.9195 C221.9153,105.2135 207.2883,103.1485 193.5193,96.3195 C187.0873,93.1295 180.6253,89.0945 176.8983,82.7265 C172.5813,75.3525 172.7073,63.2135 183.0763,61.2035 Z" id="ðŸ–-Ink" fill="#000000"/></g>

        <g id="facial-hair" transform="translate(279 400)"><path d="M229.9448,33.9998 C241.6588,34.8308 252.7388,42.0988 262.8158,47.7168 C272.51397,53.5108426 279.691907,62.0952464 285.425881,71.6662255 L285.7978,72.2918 C286.1341,72.79055 285.534508,73.3515725 285.041591,73.1612186 L284.9648,73.1248 C275.4478,68.3498 265.4058,64.4798 256.0618,59.2708 C246.9378,53.6298 235.7338,51.7018 226.5408,46.5708 C221.2868,42.6758 222.8638,34.3008 229.9448,33.9998 Z M199.4764,39.6831 C199.9034,42.3551 198.8244,46.5961 195.3164,47.8351 C189.153275,50.0091625 183.540345,51.1812719 177.34959,52.8774291 L169.32497,55.1248967 C153.910423,59.4668903 138.264477,64.1279974 124.6174,70.9681 L124.1894,70.7801 C114.2764,64.5781 169.0404,38.7041 187.9494,34.5821 C191.4234,33.8241 198.8314,35.6511 199.4764,39.6831 Z" id="ðŸ–-Ink" fill="#000000"/></g>

        <g id="eyewear" transform="translate(203 303)"><path id="accessories" d="M370.267229,94.0812186 C361.087518,105.550169 325.150885,118.280642 306.024457,104.460924 C286.89803,90.6412047 279.339478,81.010236 276.782894,63.7418278 C276.51029,61.9005247 273.181038,60.6757933 271.773574,61.9830996 C263.892542,69.3032997 258.790943,78.6267129 253.736631,87.9739798 C248.036181,98.5161913 242.421537,109.123108 232.062291,116.259689 C213.713905,126.095013 180.520036,127.495741 170.713277,123.157318 C151.927276,114.846558 137.066708,97.0725316 133.687387,72.6128057 C131.395829,65.3796109 129.246349,61.0020129 127.238947,59.4800116 C124.384546,57.3158209 108.631937,55.3878277 106.906249,55.0676312 C75.8071363,49.2972786 36.4749058,45.6190335 8.77600719,65.9200219 C5.02749548,68.1858834 -7.80539205,76.6985178 -7.99790561,74.60536 C-8.12928599,66.4063563 1.16220359,47.8487707 22.2939084,39.0185659 C48.4257396,28.098982 87.2707875,27.4603638 109.774665,29.8701917 C110.906452,29.9913891 114.764588,29.0433611 115.037186,28.9253388 C149.130646,14.1644408 188.359486,18.0847288 224.839489,24.2887991 C230.066858,25.3031978 276.863504,36.8905006 295.477887,29.8701917 C326.25407,17.3061158 359.067147,8.2038606 392.30185,11.7849229 C392.579752,11.8148671 396.775316,37.2812197 393.50699,39.0185659 C390.906064,40.4011413 386.480238,43.9439017 384.907987,45.8827637 C383.502453,47.6160336 382.61672,49.7708648 382.69528,52.7561081 C383.327324,70.0252897 378.399915,83.920401 370.267229,94.0812186 Z M243.72836,78.6720803 C247.630761,73.0270335 248.862219,60.3460528 247.228404,51.0948644 C246.401153,46.4106974 244.794863,42.6821957 242.779067,40.8261969 C241.439156,39.5925037 239.910346,39.0117383 238.243089,39.0979354 C237.328973,39.1451951 236.338477,39.4051824 235.290511,39.9705735 C221.097217,32.2929564 203.902812,29.5286089 187.604096,30.323616 C174.629301,30.3211866 165.372072,33.3837093 159.0944,38.1509351 C151.540713,43.8871592 148.137536,52.1332968 147.940635,61.0762046 C147.706992,71.6878578 152.06617,83.2970102 159.216953,92.4828862 C166.061287,101.275098 175.424043,107.793236 185.581316,109.297105 C197.111926,111.586016 208.862264,109.37159 219.07862,103.95477 C229.556845,98.3991036 238.407944,89.4765185 243.72836,78.6720803 Z M357.507438,84.6585403 C364.084035,76.8869454 368.457047,66.7766474 369.122697,56.7593194 C369.728486,47.6428312 367.287306,38.6124814 360.537606,31.1497224 C354.418516,25.8975011 343.605727,25.8104772 332.231167,28.7352865 C317.523167,32.5172431 302.307464,40.969058 297.23517,46.4275624 C296.040378,47.0540173 294.931407,48.1449237 293.965307,50.4849258 L293.958397,51.3191347 C292.421839,58.4056844 293.333557,65.5970212 295.991544,72.2310611 C298.878802,79.4373326 303.830659,85.9791775 309.868491,90.9705601 C317.890232,97.5784779 326.26399,99.6013328 334.1016,98.5342588 C342.979407,97.325564 351.234778,92.0709712 357.507438,84.6585403 Z" fill="#ffcf77"/><path d="M294.4196,27.0634 C325.5846,14.3394 358.8976,5.1684 392.6236,8.8024 C395.4126,7.7414 398.8746,8.6354 400.1106,12.5794 C412.1236,49.1744 385.3346,38.9974 385.6946,52.6774 C388.5026,129.3804 285.4076,142.4794 273.8156,64.1814 L273.6026,64.3074 L273.6026,64.3074 C256.9246,79.8704 253.4116,105.1954 233.7646,118.7304 C194.1316,147.7154 137.9496,124.7504 130.7336,73.1504 L130.576211,72.452332 C128.153961,61.9216159 125.257898,59.3105277 113.3116,59.3624 L111.424306,58.9874342 C80.385228,52.872048 39.05216,47.3766 10.4636,68.4074 C4.2456,72.0234 3.9536,81.3194 -1.3004,85.3584 C-7.0564,86.4764 -10.6024,79.5534 -10.9924,74.7624 C-11.9044,26.9994 73.5656,23.5634 111.8436,27.6624 C112.5746,26.9054 114.1356,26.9994 114.6616,27.9424 C149.2796,12.9544 188.2806,15.0284 225.3466,21.3314 C248.3076,25.7764 270.9856,35.9014 294.4196,27.0634 Z M389.5206,17.6204 C370.8196,16.6854 353.5216,17.7084 335.1656,22.2034 C325.4916,24.5374 318.0676,27.4884 308.8076,31.0374 C251.0496,56.6264 244.3876,11.1414 114.9196,28.9714 C116.5946,36.1454 116.9026,43.2484 116.9926,49.9884 C143.42758,48.92316 137.203668,74.1647841 147.107497,91.894471 L147.4126,92.4294 C161.8466,118.2974 195.9066,130.3634 223.3816,113.2054 C246.3036,99.8454 248.5396,65.9604 271.3616,52.5124 C291.1446,51.7344 283.2426,78.4344 294.0086,89.4084 C309.1626,109.6294 341.3736,112.4564 360.3756,93.4364 C369.2906,84.2844 374.0286,72.6644 374.2906,60.1804 C374.7876,52.2044 373.4196,44.0994 379.4496,38.4894 C383.6766,34.1954 391.1866,35.6284 392.0486,29.1374 C392.5966,25.2994 391.0006,21.1364 389.5206,17.6204 Z M186.28,28.0747 C204.857,27.1597 224.513,30.3857 240.464,39.4967 C252.271,30.1007 255.164,67.4427 247.327,78.2437 C236.036,101.3457 209.749,116.5347 184.438,111.4907 C144.952,105.7687 117.44,28.0057 186.28,28.0747 Z M239.33,42.0007 L238.319634,41.8530365 C221.207242,39.24197 174.61224,27.14534 156.641,46.2377 C139.2,77.9067 183.447,131.1007 229.492,88.7307 C242.307,75.6837 247.274,59.8627 239.33,42.0007 Z M293.5595,46.0482 C302.4215,35.5552 347.5865,14.3012 363.3295,27.9402 C392.0625,60.1412 346.4955,125.2742 308.3295,93.5412 C295.6175,82.9342 287.2545,66.0342 290.9145,49.6692 L290.92013,48.9832 C290.928056,48.7345333 290.9745,48.7912 291.2405,48.4812 C291.7115,47.2442 292.5595,46.4542 293.5595,46.0482 Z M362.9285,65.5652 C372.6185,13.0082 332.1195,32.9882 298.8595,47.0162 C300.6445,48.6472 300.6365,50.8742 300.1235,52.7042 C296.6155,91.7002 344.0125,113.7982 362.9285,65.5652 Z M111.1716,30.2164 C97.2986,34.9144 5.5376,26.5124 -2.9394,69.5264 C6.0086,55.0294 24.5406,49.2764 41.2006,46.1544 C63.8616,41.9074 86.3986,44.3664 108.7416,48.8354 L109.203057,44.2113617 C109.698597,39.3065938 110.221071,34.7182235 111.1716,30.2164 Z" id="ðŸ–-Ink" fill="#000000"/></g>
    </g>
</svg>