<svg xmlns="http://www.w3.org/2000/svg" viewBox="0 0 704 704" fill="none" width="512" height="512">
    <desc>"Open Peeps" by "Pablo Stanley", licensed under "CC0 1.0". / Remix of the original.</desc>
    <mask id="viewbox"><rect width="704" height="704" rx="0" ry="0" x="0" y="0" fill="#ffffff" /></mask>
    <g mask="url(#viewbox)">
        <rect id="background" fill="#ffd5dc" width="704" height="704" x="0" y="0" />

        <g id="body"><path id="skin" d="M705.3 1074a2351.1 2351.1 0 0 1-15.6-101c-1-7.7-2.5-16.4 2.7-22 7.3-8 14-14.8 14.8-26.2.8-10.7-2.8-22.4-5-32.8a809.4 809.4 0 0 0-17.3-64.7c-6.6-21.7-13.9-43.2-21.3-64.6-6.9-20-13.5-40.3-22.5-59.5-17-36.5-46-63.5-81.6-81.6-9-4.5-27-20.5-36.3-24-8.5-3.4-8.5 6.3-16.9 2.6-6.7-2.9-13-6.7-16.7-13.2-4-7-14.3-16.9-15.9-25-3.3-17.4.3-32.2-12-45.3a90 90 0 0 0-41.1-23.8c-33.7-9.3-78.5-2.8-98.8 28.5-9.7 14.9-13 33-26.2 45.1-11.4 10.7-8.8 18-23.6 23.4-.9.3-23.6-4.5-24.4-4.2-16.2-3.5-31.7 6.2-46.5 11.8a325.4 325.4 0 0 0-63 32.3 399.2 399.2 0 0 0-102.3 98.5 482.5 482.5 0 0 0-76.4 161c-1.7 6.4-3.5 13-1.5 19.4 1.7 5.3 5.4 9.2 9.8 12.4 6 4.3 18 7 17.7 15.7-.1 6.6-2.4 13.5-3.5 20-1.3 7.7-2.3 15.5-3.4 23.2-4.8 35.4-8.6 71-10.3 106.6a920 920 0 0 0-.5 106c.1 2.3.8 4.5 2 6.2-1 .4-1.2 2.4.1 2.7l2.7.5a12 12 0 0 0 7 2.4l5.5.2c19.3 4 38.6 7.9 58.1 10.8 23.8 3.5 47.6 6.3 71.5 8.7 49.2 4.8 98 3.2 147.1.6a1877 1877 0 0 1 147.4-2c49.2 1.4 98.4 3.5 147.6 4.4 55 1 110-.5 164.8-5 7.5-.5 12.2-6.5 10.7-14-8.9-44.7-19-89.1-27-134Z" fill="#694d3d"/><path id="shirt" d="m201 597.5 1.2-.4c14.5-5.7 29.6-14.8 45.4-11.4.5-.2 10.8 1.9 17.9 3.2l-6.7 7L247 598c40.7 67.1 88.8 100.7 144.3 100.7 55.5 0 97.7-33.6 126.4-100.7l4-1c.4 0 1 .2 1.5.4 9.3 3.6 27.4 19.6 36.3 24.1 35.6 18 64.5 45 81.6 81.6 8.7 18.6 15.2 38 21.8 57.5l.7 2c7.4 21.4 14.7 43 21.3 64.6 6.3 20.4 12 41 16.6 61.8l.7 2.9c2.2 10.4 5.8 22 5 32.8a29 29 0 0 1-3 10.7l-80.4 29 38.4 261.3c-35.1 1.5-70.3 2-105.5 1.3-49.2-.9-98.4-3-147.6-4.3-47.7-1.2-95.3-.7-143 1.7l-12 .6a946.3 946.3 0 0 1-139.5-1l-3.1-.3v-38.3l16.3-212.9-83-15.6-81.3-39.5a21.7 21.7 0 0 1-5.6-8.8c-1.9-6-.5-12 1-18l.5-1.3a492.8 492.8 0 0 1 76.4-161A399.3 399.3 0 0 1 138 629.7c19.8-13 40.9-23.9 63-32.3Z" fill="#e78276"/><path d="M232.2 584.6c5.1-.3 10.3.6 15.4 1 .4.1.6.8 0 .9-9 1.9-18 4.5-26.9 7.1l-3.8 1.2c-10 3-19.8 6-29.6 10-19.4 7.9-37.8 18.5-54.8 30.8C67.2 682.8 20 754.3-9.9 828.3a526 526 0 0 0-24.3 77c-.4 1.6-2 5.4-1 7 .7 1.3 3.6 2.1 5 2.9l4.5 2.3 25.2 12.9 2.3 1.1c38 18.6 78.4 34.4 121 35.5l.4-3.7a342 342 0 0 1 9.9-60c.3-1 1.6-.6 1.7.3 3 23.1 2 46.4 1 69.7-1.8 41-4.3 82.2-6.5 123.3-1.2 20.6-2.6 41-3.9 61.7-1.3 20.5-1.7 41.6-4.7 62-.6 4.6-6 7-10 6.6-4.4-.5-7.9-4.5-8-9 0-11.9 1.5-24 2.4-35.8l2.5-33.8c3.1-41.1 6.8-82.2 10.2-123.3a4771 4771 0 0 1 3.8-43.7C76.4 979.8 34.2 963-6.1 943.5c-.6 13.2-2 26.5-3.4 39.6-3.8 36.8-7.1 73.6-9.6 110.5a2254.2 2254.2 0 0 0-4.2 92.7l-.2 7c0 4.4-.5 8.5-4.3 11.7-3.7 3.3-8.9 3.5-12.6 0-5-4.6-4.2-10.9-4-17.1a1675.6 1675.6 0 0 1 1.8-47.2 1321 1321 0 0 1 10.5-109.5l2-14c3.5-26 7.5-52.7 15.5-77.9-3.1-1.5-6.2-3-9.3-4.7-5.5-2.7-11.2-5.4-16.6-8.4-4.2-2.5-7.9-5.8-9-10.8-1.4-5.5.6-11.5 2-16.9v-.4a502 502 0 0 1 26.6-80 523.2 523.2 0 0 1 67.8-117 353.8 353.8 0 0 1 88.7-83.3 239 239 0 0 1 53.8-25.7 142.6 142.6 0 0 1 42.8-7.5Zm90.1-66c6-6.5 18.1.2 15.2 8.8a108.2 108.2 0 0 1-34.7 52A79.4 79.4 0 0 1 247 598l1.7 2.4a321.1 321.1 0 0 0 46.1 52.6c36 31.2 84.8 48 132 36 37.1-9.4 69.8-38.8 79.4-76.2-1.3.6-3 .9-4.8.5-7.7-1.7-15.3-9.8-20.3-15.6-5.3-6.3-9.5-13-12.6-20.7-5.6-14-7.4-32.1.3-45.7 1-1.7 3-.7 3.3 1l.3 2.5c1.5 12.7 3.3 25 9.3 36.6a76 76 0 0 0 18.2 23.1c2.6 2 5.8 3.6 8.1 6l.5.4c.6-5 4.1-7.3 7.6-7.2 3.3.2 7.3 1.6 8.8 2.3l.1.1a341 341 0 0 1 65.1 42 259 259 0 0 1 88.4 129c7.5 25.3 11.8 51.4 16.3 77.4l2.8 16c4.2 23.9 8.9 48.4 18.4 70.7 2.5 5.7.6 11.1-5.5 13.4A1493 1493 0 0 1 688 953c3.7 16 6 32.5 8.7 48.5 6 34.1 13.2 68 19.4 102 3.2 17.5 6.1 35 9.3 52.3l4.7 25.2 2.4 13.6.1.7c.5 2.4 1 4.9.4 7.3-.8 2.7-2.9 4.6-4.8 6.6-1.6 1.6-3.8 1.6-5.7.7l-.7-.3c-3.4-1.6-6-3.2-7.3-7-.7-2.5-1-5.2-1.5-7.7a3535.6 3535.6 0 0 1-7.8-43.6l-1.6-9.1c-5.2-31.4-10.2-62.9-12.8-94.5-1-14-2.3-28.1-3.5-42.2l-.9-10.5c-1.1-13.3-2.5-27-2.7-40.5l-4.5 1.6L657 964c-5.5 2-12.5 6-18.4 5.2-2.9-.3-5-1.2-6.8-2.9 2 28.8 4.8 57.4 8.5 86a1965.7 1965.7 0 0 0 22 135c.6 3.2 1.4 6.4 1.9 9.6.5 3.7-.5 5.9-2.5 9-1.7 2.4-5 3.7-7.8 2-3.6-2.3-5.5-4.3-6.5-8.4-1-3.7-1.6-7.6-2.3-11.4a1654.2 1654.2 0 0 1-11.4-65.2c-7.8-52-12.7-104.4-15.2-156.8a1388 1388 0 0 1-1.4-77.8c0-13.3.5-26.6 1.4-39.9 1-13.4 3-26.5 4.8-39.8 0-.5.7-.5.7 0 .8 14.9 2.1 29.8 2.8 44.7.6 14.3.9 28.5 1.4 42.8.6 18.7 1.5 37.5 2.7 56.2a9.6 9.6 0 0 1 8.5-3.1c4.7-1 9.7-3.4 14.1-5l16.8-5.5 26.4-8.7a679 679 0 0 1-18-80.8l-2-12.3c-4-24.2-8.5-48.5-15.8-72a229.8 229.8 0 0 0-34.8-68.2 370.2 370.2 0 0 0-52.7-55.3C557 627 539.7 614 523 600c.1.9.2 2 0 3-3.5 25.9-17 50-35.8 67.9-37.7 36-93.6 43.4-142 26.5-46.7-16.3-88-55-102.6-102.8-.3-.8.8-1 1.3-.5l2.4 3.3c0-.4.2-.9.7-1a129 129 0 0 0 46.6-29.2 100.2 100.2 0 0 0 21.3-33.3l.4-1c1.7-5 3.2-10.2 7-14.2Z" fill="#000000"/></g>

        <g id="head" transform="matrix(.99789 0 0 1 156 62)"><path id="skin" d="M256.576291,38.9775732 C313.356936,38.9775732 384.472557,103.748468 405.286153,131.31104 C422.785231,154.484334 420.309672,273.865208 420.309672,344.682199 C420.309672,359.493187 413.614596,387.524654 411.184129,401.691934 C402.277902,453.60665 363.475367,497.14576 286.676873,497.14576 C224.144484,497.14576 176.022138,477.339081 129.486711,426.680302 C118.870145,415.123036 67.0216738,456.497557 56.4180351,441.59758 C28.7213893,441.59758 5.56239516,182.819749 59.9410538,105.20146 C114.319712,27.5831708 199.795646,38.9775732 256.576291,38.9775732 Z" fill="#694d3d"/><path d="M85.9167,57.2049 C118.7267,27.3549 162.4367,12.9949 206.5367,14.0549 C229.3767,14.6049 252.1367,18.9549 273.7067,26.4049 C284.4967,30.1449 294.9467,35.0249 304.9367,40.5449 C308.5367,42.5295154 311.855517,44.8549592 315.050455,47.3245996 L315.8467,47.9449 L315.8567,47.9449 C324.4267,51.0249 332.0767,56.5549 339.0167,63.0249 C352.9267,61.9149 366.9467,63.1649 380.3967,67.4549 C399.1167,73.4349 416.4467,84.3849 428.6167,99.9349 C442.792614,118.038126 447.505367,139.997076 445.823796,162.665466 L445.513305,166.516377 C443.850425,186.541 440.8717,212.2974 424.4367,225.4549 C423.1867,226.4549 421.8067,227.2149 420.3767,227.6749 C430.9667,245.8149 439.6567,265.9549 444.8567,286.2949 C464.7067,363.9849 449.4467,445.0049 425.5767,519.8849 C423.6167,526.0549 414.2867,530.1549 409.5367,524.1249 C401.0567,513.3449 388.7367,505.1249 374.8767,503.5849 C366.3267,502.6349 357.8167,504.3549 349.7367,500.4749 C346.5667,498.9449 343.5067,496.4449 341.3067,493.4049 C327.6667,498.5749 312.9767,501.0149 298.4067,500.4149 C274.4967,499.4349 248.9367,491.1549 232.4867,472.9949 C229.8467,470.0799 229.1777,466.8069 229.7857,463.8569 C231.8487,463.1209 233.9667,462.5729 236.1487,462.2299 C257.0087,474.5239 280.0027,482.7389 304.7147,483.2549 C318.9937,483.5529 332.9217,481.5559 344.4997,472.6399 C347.0047,470.7099 349.3087,468.5729 351.4387,466.2769 C375.6457,450.7049 392.7127,424.2559 400.8267,395.9249 C408.3867,369.5049 407.4567,341.9949 404.8567,314.8949 L403.485019,300.594317 C401.485553,279.605232 399.630552,258.553344 399.1107,237.4749 L399.2677,237.4669 L399.2677,237.4669 C404.3797,237.1369 404.4167,229.1339 399.2677,229.4669 C385.9487,230.3289 372.7307,228.1439 359.4527,229.0959 C359.3417,222.8189 358.8897,216.5699 357.0447,210.5159 C355.9917,207.0569 349.9687,206.3749 349.3307,210.5159 C348.4767,216.0559 348.1647,221.5649 348.0717,227.1299 C328.2007,226.8659 308.3487,225.1939 288.4747,225.8809 C284.8087,221.9709 283.6417,215.0379 281.9267,210.2149 C281.6767,209.5049 281.4267,208.8049 281.1667,208.0949 C279.6597,214.9869 277.5237,221.7279 274.7137,228.3269 L269.839636,228.343416 C242.184786,228.473135 213.9672,229.299733 186.9627,235.0429 C185.0857,233.6019 183.9687,231.0879 183.6667,228.8049 C181.707912,213.949142 178.912246,199.488316 173.957567,185.331239 L173.24874,183.33386 C173.19082,183.16818 173.1297,182.9921 173.0657,182.8069 C169.4147,188.6999 165.0587,194.1929 160.3077,199.3079 C157.5077,202.3229 154.5717,205.2059 151.5587,208.0069 C148.6317,211.2569 145.6067,214.4579 142.6747,217.7179 C142.7897,218.3109 142.8897,218.9129 142.9707,219.5259 C143.8677,226.2909 143.9607,233.1519 143.3037,239.9429 C142.1157,252.2199 138.6497,264.0499 133.0817,274.9939 L132.905538,276.0897 C132.060038,281.218429 130.857033,286.518767 128.0477,290.3809 C131.5537,294.3089 134.2547,299.0009 135.8207,304.2139 C137.2147,308.8549 130.7937,312.8769 127.4637,309.0789 C124.8187,306.0619 121.8797,303.5649 118.6517,301.5729 C118.4477,301.8499 118.0797,301.9859 117.6667,301.7549 C108.6767,296.7649 93.4067,298.2749 84.4267,302.9749 C73.2567,308.8149 68.8967,320.8049 70.1367,332.9549 C71.3267,344.5649 76.4067,358.1349 86.2567,364.0849 C90.7767,366.8149 94.2967,367.0449 99.0967,365.7349 C100.631437,365.318058 102.534152,364.039609 103.350883,363.404531 L104.154664,362.760278 C107.301367,360.273256 110.232033,358.570233 113.9467,358.5049 C117.745867,357.320108 121.564209,358.96368 123.017192,362.947444 L123.1067,363.2049 C123.7867,365.2349 125.0267,367.7849 124.7567,370.8849 C124.4767,374.2049 122.9567,377.2249 120.6867,379.6549 C120.2967,380.0749 119.8767,380.4949 119.4467,380.8849 C158.5467,423.2149 163.5667,489.1749 143.5167,542.0549 C142.6467,544.3749 141.7167,546.6649 140.7467,548.9349 C137.3967,556.7149 124.4967,554.3049 122.8567,546.5949 C122.3667,544.2849 121.8267,541.9849 121.2367,539.7049 C120.152256,535.491567 118.909786,531.31774 117.509293,527.204488 L116.9767,525.6649 C115.7867,522.2649 114.6767,518.8349 113.4767,515.4349 L113.3567,515.04615 C113.3117,514.8924 113.2617,514.7149 113.2067,514.5149 L111.1767,518.9449 L111.1767,518.9449 L105.0067,532.3149 C102.119509,538.554001 92.9460006,535.163207 92.6048851,529.150871 L92.5967,528.9449 C92.5667,527.8349 92.5267,526.7349 92.4567,525.6449 C92.0167,517.4749 90.6067,509.5349 88.3667,501.7649 L87.5585516,502.769199 C75.5245976,517.646954 61.4013154,531.592043 42.0267,535.0249 C37.1667,535.8849 31.6667,530.8049 35.0067,525.8949 C36.3867,523.8649 37.7167,521.7849 38.9767,519.6749 C37.8867,519.1649 36.8567,518.6349 35.9067,518.0949 C28.5567,513.9649 22.4367,508.0849 17.3767,501.4149 C6.6467,487.2749 2.8067,469.4749 1.8667,452.0549 C0.8667,433.6449 2.4867,414.2349 7.5167,396.4749 C9.6967,388.7949 12.6467,381.4249 16.0567,374.2749 C15.8167,373.6349 15.5867,372.9949 15.3567,372.3549 C11.6767,362.0949 8.6567,351.6049 6.1467,340.9949 C1.0867,319.5749 -1.6333,297.4749 -1.9633,275.4649 C-2.5633,236.0349 4.2367,195.9749 18.5667,159.2049 C33.3667,121.2849 55.6267,84.7549 85.9167,57.2049 Z M67.4867,401.9449 C64.7690529,397.665841 57.9691803,401.521935 60.4925916,405.830831 L60.5867,405.9849 C64.8967,412.7749 66.9167,420.4949 69.3967,428.0649 C70.9867,432.9349 78.7167,430.8549 77.1067,425.9349 L76.5737163,424.292219 C74.1059,416.615656 71.8547,408.814233 67.4867,401.9449 Z M91.1567,320.2648 L92.9621857,319.391076 C98.6574547,316.673276 103.647643,314.82197 110.3767,317.1948 C119.3867,320.3648 129.0367,330.4548 122.9467,340.2448 C120.7067,343.8548 116.7267,345.2948 112.6267,344.4448 C105.7147,343.011345 103.931004,336.786975 100.423385,331.677477 L99.8197901,330.812303 C97.6813189,327.720576 94.977003,323.446618 91.4167,322.2348 C90.6067,321.9548 90.2667,320.6948 91.1567,320.2648 Z M96.2352437,112.406042 L96.8167,111.8849 C100.6867,108.4649 95.0067,102.8249 91.1567,106.2249 C73.5367,121.7949 67.4167,146.1649 58.2767,166.9349 C56.2267,171.6049 63.1167,175.6849 65.1867,170.9749 C73.9053207,151.15536 79.6925105,127.446788 96.2352437,112.406042 L96.2352437,112.406042 Z M307.9767,105.5949 C303.372845,103.520201 299.344858,110.220181 303.770982,112.42622 L303.9367,112.5049 C319.4967,119.5349 326.1167,135.4549 332.4567,150.2349 C334.4767,154.9549 341.3667,150.8849 339.3667,146.2049 L338.222617,143.552929 C331.607228,128.321498 323.891425,112.796219 307.9767,105.5949 Z M332.3667,95.9749 C327.4867,94.2849 325.3967,102.0049 330.2367,103.6949 C343.4267,108.2849 352.4767,118.1849 360.1067,129.5049 C362.9667,133.7449 369.8967,129.7449 367.0067,125.4649 C358.1467,112.3249 347.6267,101.2949 332.3667,95.9749 Z" id="ðŸ–-Ink" fill="#000000"/></g>

        <g id="face" transform="translate(315 248)"><path d="M190.580838,219.822602 C187.280979,224.137269 181.305753,227.441635 174.614228,229.021959 C168.237661,230.527902 161.190418,230.466453 155.108614,228.149072 L154.586539,227.941176 C150.039387,226.052673 145.674617,222.239371 144.017177,218.259853 C143.358193,216.67763 143.135243,215.069584 143.586238,213.568908 C143.991922,212.219001 144.943012,210.976582 146.527174,209.909206 C147.024517,209.574134 147.691645,209.549745 148.327216,209.661813 C149.115834,209.800867 149.893132,210.16984 150.362097,210.668116 C152.964096,213.434928 156.73898,216.132349 161.207084,216.086453 C164.654507,216.051103 167.469871,214.689827 170.200003,213.151437 L172.118441,212.052717 C173.969461,210.996565 175.846656,210.004165 177.970548,209.550964 C181.772426,208.739097 186.383724,210.222313 189.193828,212.669867 C190.419132,213.737086 191.309321,214.991561 191.551236,216.342614 C191.754414,217.477328 191.469083,218.661462 190.580838,219.822602 Z M170.814304,144.367155 C178.365682,148.9572 189.871664,159.660291 181.748119,171.039573 C172.185929,181.073062 158.418535,169.568982 151.634201,164.366134 C145.343449,160.333898 138.275437,170.704507 144.112,175.412823 C193.135736,211.708059 213.030606,145.567387 174.633685,138.970386 C170.406047,138.243425 168.835891,142.947174 170.814304,144.367155 Z M85.623,73.8212 L87.7924418,73.2263619 L90.0045001,72.6293513 L91.5003254,72.2338515 C101.775159,69.5444674 113.108082,67.1776694 123.297,68.3332 C127.013,68.7552 130.029,70.8462 130.555,74.7392 C130.998,78.0242 128.875,82.2622 125.262,82.8462 C113.295,84.7822 101.044,84.1542 89.022,86.1502 C83.035,87.1432 77.094,88.3762 71.13,89.4872 C66.595,90.3332 61.909,90.6302 57.335,91.3142 L58.386,91.4602 C58.754,91.5102 58.662,92.1292 58.299,92.1042 C56.791375,91.9537 55.2814531,91.9302937 53.7692344,92.035991 L53.121,92.0892 C52.134,92.2282 51.552,91.0502 52.432,90.4522 C58.005,86.6712 62.734,82.5732 68.974,79.7862 C74.371,77.3762 79.926,75.3892 85.623,73.8212 Z M179.1621,68.0224 C187.0621,60.0364 203.8621,63.1054 213.2601,66.7584 C218.6241,68.8444 223.7241,71.4814 227.9721,75.4264 L228.386213,75.8144925 L229.024136,76.4279569 C231.891581,79.2352765 235.089211,83.0982889 234.6341,87.1454 C234.5651,87.7624 234.2291,88.4674 233.5321,88.5914 C229.7681,89.2584 226.0711,87.2724 222.5951,86.0774 L220.293037,85.2874616 C216.836083,84.1099289 213.3571,82.9848545 209.7931,82.1724 C205.3611,81.1644 200.8401,80.5814 196.2901,80.6394 C191.6911,80.6994 186.7511,81.9974 182.3701,80.1714 C177.4841,78.1364 174.9511,72.2804 179.1621,68.0224 Z M101.116056,132.429995 C99.1003582,134.488343 96.4383728,135.649706 93.0314637,134.958836 C90.3692151,134.419447 85.3003252,131.742536 81.251062,127.620059 C78.4808238,124.799734 76.1645189,121.275596 75.5348483,117.193133 C75.3886144,116.245027 74.8854838,115.637224 74.2248528,115.254453 C73.7031014,114.952149 73.0151982,114.800275 72.2659115,114.876138 C71.6297705,114.940545 70.9542643,115.170885 70.4322827,115.476318 C69.4393366,116.057332 69.0332625,116.882185 68.9507107,117.498123 C68.1541083,123.441745 70.4499798,129.339186 74.0286493,134.311705 C78.8582802,141.02242 85.9507822,145.940005 90.1194807,147.091006 C97.2532735,149.061815 104.770166,147.49291 110.31224,142.527816 C114.744111,138.55788 117.01573,133.385744 119.123418,128.067181 L119.529847,127.036237 C120.003893,125.829408 120.474351,124.631454 120.972784,123.446204 C121.971768,121.071164 121.651825,119.018235 120.683197,117.41812 C119.610133,115.645482 117.629461,114.397695 115.424424,114.014451 C113.386375,113.660232 111.205318,114.047672 109.483593,115.292567 C108.029146,116.344207 106.856231,118.01047 106.439508,120.474443 C105.761825,124.480999 104.189738,129.077997 101.417669,132.111101 L101.116056,132.429995 Z M223.440775,109.240446 C221.778563,108.374347 220.478145,108.113213 218.634261,108.665656 C217.614596,108.971929 216.606823,109.558916 215.817824,110.347916 C215.035882,111.129857 214.471712,112.102263 214.252419,113.181012 C213.713072,115.843338 212.256412,118.335447 210.18061,119.960058 C208.406384,121.348643 206.16691,122.084626 203.68291,121.669413 C201.002485,121.221959 198.448729,119.502882 196.689869,117.476128 C196.199984,116.910971 195.798335,116.281896 195.409968,115.645177 L195.177941,115.262679 C194.311333,113.831986 193.469024,112.502121 192.273843,111.451439 C191.82079,111.051686 191.138107,110.774816 190.476901,110.774816 C190.208169,110.774816 189.935444,110.818544 189.675563,110.899539 C187.007679,113.577235 186.494623,115.608542 186.580635,117.62333 C186.670832,119.736131 187.503809,121.875322 188.849905,123.871251 C192.007516,128.553207 198.002761,132.391976 202.048399,133.261475 C207.588873,134.452107 213.091225,133.022832 217.502758,129.928348 C222.041966,126.744306 225.405508,121.80078 226.454161,116.229671 C226.706431,114.887916 226.599231,113.439644 226.088238,112.183929 C225.588922,110.956906 224.71878,109.905984 223.440775,109.240446 Z" id="ðŸ–-Ink" fill="#000000"/></g>

        <g id="facial-hair" transform="translate(279 400)"><path d="M229.9448,33.9998 C241.6588,34.8308 252.7388,42.0988 262.8158,47.7168 C272.51397,53.5108426 279.691907,62.0952464 285.425881,71.6662255 L285.7978,72.2918 C286.1341,72.79055 285.534508,73.3515725 285.041591,73.1612186 L284.9648,73.1248 C275.4478,68.3498 265.4058,64.4798 256.0618,59.2708 C246.9378,53.6298 235.7338,51.7018 226.5408,46.5708 C221.2868,42.6758 222.8638,34.3008 229.9448,33.9998 Z M199.4764,39.6831 C199.9034,42.3551 198.8244,46.5961 195.3164,47.8351 C189.153275,50.0091625 183.540345,51.1812719 177.34959,52.8774291 L169.32497,55.1248967 C153.910423,59.4668903 138.264477,64.1279974 124.6174,70.9681 L124.1894,70.7801 C114.2764,64.5781 169.0404,38.7041 187.9494,34.5821 C191.4234,33.8241 198.8314,35.6511 199.4764,39.6831 Z" id="ðŸ–-Ink" fill="#000000"/></g>

        <g id="eyewear" transform="translate(203 303)"><path d="M335.396552,-59.6130626 C341.176552,-61.5940626 345.786552,-55.5830626 344.676552,-50.3440626 C343.366552,-44.1740626 336.926552,-39.2220626 332.656552,-34.8730626 C328.176552,-30.2930626 323.606552,-25.8030626 318.866552,-21.4830626 C309.816552,-13.2220626 300.436552,-5.44306262 290.546552,1.80693738 L287.522492,4.02283738 C278.456252,10.6558374 269.417552,17.1349374 259.706552,22.8769374 C254.446552,25.9769374 249.136552,28.9769374 243.756552,31.8669374 C241.837552,32.8969374 239.496552,34.4859374 237.087552,35.6669374 C245.896552,42.4669374 252.676552,52.8469374 254.146552,62.5169374 C257.786552,86.5369374 242.306552,108.796937 220.465552,117.646937 C209.576552,122.056937 197.456552,123.336937 185.816552,122.006937 C173.976552,120.655937 161.976552,117.155937 154.286552,107.456937 C147.456552,98.8469374 144.996552,87.8579374 144.506552,77.0669374 C144.276552,71.9469374 144.326552,66.9059374 145.406552,62.3769374 C140.696552,62.4169374 135.986552,62.3969374 131.316552,62.4469374 C119.776552,62.5569374 108.215552,62.6079374 96.6665524,62.2869374 C84.7565524,61.9469374 72.9065524,61.4169374 61.0365524,60.3579374 C55.8265524,59.8869374 50.6465524,59.1169374 45.4655524,58.3769374 C40.4365524,57.6669374 34.8865524,57.3969374 30.1865524,55.3369374 C29.8665524,55.2069374 30.0003371,54.7469374 30.2765524,54.6559374 C35.2865524,53.0369374 40.9765524,53.3259374 46.1965524,53.0069374 L51.2842492,52.6983426 C55.5218586,52.4452231 59.7565524,52.212366 64.0065524,52.0759374 C73.8240524,51.7530624 83.6338962,51.6736561 93.4494821,51.5054374 L97.6565524,51.4269374 C109.206552,51.1969374 120.756552,51.0669374 132.306552,50.6969374 C137.096552,50.5469374 141.896552,50.2669374 146.706552,50.0069374 C147.266552,48.7359374 148.087552,47.5759374 148.876552,46.4469374 C151.236552,43.0669374 154.236552,40.0869374 157.346552,37.3869374 C163.715552,31.8259374 170.886552,27.6969374 178.886552,24.9269374 C186.814186,22.1912707 198.409172,20.8341567 206.796178,21.0107485 C215.183185,21.1873402 227.135719,22.3702707 230.976552,29.2269374 C231.376552,29.9369374 238.686552,28.5669374 240.856552,26.9059374 C245.926552,23.0369374 250.906552,19.0569374 255.795552,14.9769374 C264.876552,7.38693738 274.215552,-0.0830626211 282.816552,-8.20306262 C291.686552,-16.5830626 300.486552,-25.1030626 308.926552,-33.9030626 C313.166552,-38.3130626 317.396552,-42.7330626 321.506552,-47.2530626 C325.706552,-51.8630626 329.316552,-57.5430626 335.396552,-59.6130626 Z" id="ðŸ–-Ink" fill="#000000"/></g>
    </g>
</svg>