<svg xmlns="http://www.w3.org/2000/svg" viewBox="0 0 704 704" fill="none" width="512" height="512">
    <desc>"Open Peeps" by "Pablo Stanley", licensed under "CC0 1.0". / Remix of the original.</desc>
    <mask id="viewbox"><rect width="704" height="704" rx="0" ry="0" x="0" y="0" fill="#ffffff" /></mask>
    <g mask="url(#viewbox)">
        <rect id="background" fill="#b6e3f4" width="704" height="704" x="0" y="0" />

        <g id="body"><path id="skin" d="M705.3 1074a2351.1 2351.1 0 0 1-15.6-101c-1-7.7-2.5-16.4 2.7-22 7.3-8 14-14.8 14.8-26.2.8-10.7-2.8-22.4-5-32.8a809.4 809.4 0 0 0-17.3-64.7c-6.6-21.7-13.9-43.2-21.3-64.6-6.9-20-13.5-40.3-22.5-59.5-17-36.5-46-63.5-81.6-81.6-9-4.5-27-20.5-36.3-24-8.5-3.4-8.5 6.3-16.9 2.6-6.7-2.9-13-6.7-16.7-13.2-4-7-14.3-16.9-15.9-25-3.3-17.4.3-32.2-12-45.3a90 90 0 0 0-41.1-23.8c-33.7-9.3-78.5-2.8-98.8 28.5-9.7 14.9-13 33-26.2 45.1-11.4 10.7-8.8 18-23.6 23.4-.9.3-23.6-4.5-24.4-4.2-16.2-3.5-31.7 6.2-46.5 11.8a325.4 325.4 0 0 0-63 32.3 399.2 399.2 0 0 0-102.3 98.5 482.5 482.5 0 0 0-76.4 161c-1.7 6.4-3.5 13-1.5 19.4 1.7 5.3 5.4 9.2 9.8 12.4 6 4.3 18 7 17.7 15.7-.1 6.6-2.4 13.5-3.5 20-1.3 7.7-2.3 15.5-3.4 23.2-4.8 35.4-8.6 71-10.3 106.6a920 920 0 0 0-.5 106c.1 2.3.8 4.5 2 6.2-1 .4-1.2 2.4.1 2.7l2.7.5a12 12 0 0 0 7 2.4l5.5.2c19.3 4 38.6 7.9 58.1 10.8 23.8 3.5 47.6 6.3 71.5 8.7 49.2 4.8 98 3.2 147.1.6a1877 1877 0 0 1 147.4-2c49.2 1.4 98.4 3.5 147.6 4.4 55 1 110-.5 164.8-5 7.5-.5 12.2-6.5 10.7-14-8.9-44.7-19-89.1-27-134Z" fill="#edb98a"/><path id="shirt" d="m201 597.5 1.2-.4c14.5-5.7 29.6-14.8 45.4-11.4.5-.2 10.8 1.9 17.9 3.2l-6.7 7L247 598c40.7 67.1 88.8 100.7 144.3 100.7 55.5 0 97.7-33.6 126.4-100.7l4-1c.4 0 1 .2 1.5.4 9.3 3.6 27.4 19.6 36.3 24.1 35.6 18 64.5 45 81.6 81.6 8.7 18.6 15.2 38 21.8 57.5l.7 2c7.4 21.4 14.7 43 21.3 64.6 6.3 20.4 12 41 16.6 61.8l.7 2.9c2.2 10.4 5.8 22 5 32.8a29 29 0 0 1-3 10.7l-80.4 29 38.4 261.3c-35.1 1.5-70.3 2-105.5 1.3-49.2-.9-98.4-3-147.6-4.3-47.7-1.2-95.3-.7-143 1.7l-12 .6a946.3 946.3 0 0 1-139.5-1l-3.1-.3v-38.3l16.3-212.9-83-15.6-81.3-39.5a21.7 21.7 0 0 1-5.6-8.8c-1.9-6-.5-12 1-18l.5-1.3a492.8 492.8 0 0 1 76.4-161A399.3 399.3 0 0 1 138 629.7c19.8-13 40.9-23.9 63-32.3Z" fill="#fdea6b"/><path d="M232.2 584.6c5.1-.3 10.3.6 15.4 1 .4.1.6.8 0 .9-9 1.9-18 4.5-26.9 7.1l-3.8 1.2c-10 3-19.8 6-29.6 10-19.4 7.9-37.8 18.5-54.8 30.8C67.2 682.8 20 754.3-9.9 828.3a526 526 0 0 0-24.3 77c-.4 1.6-2 5.4-1 7 .7 1.3 3.6 2.1 5 2.9l4.5 2.3 25.2 12.9 2.3 1.1c38 18.6 78.4 34.4 121 35.5l.4-3.7a342 342 0 0 1 9.9-60c.3-1 1.6-.6 1.7.3 3 23.1 2 46.4 1 69.7-1.8 41-4.3 82.2-6.5 123.3-1.2 20.6-2.6 41-3.9 61.7-1.3 20.5-1.7 41.6-4.7 62-.6 4.6-6 7-10 6.6-4.4-.5-7.9-4.5-8-9 0-11.9 1.5-24 2.4-35.8l2.5-33.8c3.1-41.1 6.8-82.2 10.2-123.3a4771 4771 0 0 1 3.8-43.7C76.4 979.8 34.2 963-6.1 943.5c-.6 13.2-2 26.5-3.4 39.6-3.8 36.8-7.1 73.6-9.6 110.5a2254.2 2254.2 0 0 0-4.2 92.7l-.2 7c0 4.4-.5 8.5-4.3 11.7-3.7 3.3-8.9 3.5-12.6 0-5-4.6-4.2-10.9-4-17.1a1675.6 1675.6 0 0 1 1.8-47.2 1321 1321 0 0 1 10.5-109.5l2-14c3.5-26 7.5-52.7 15.5-77.9-3.1-1.5-6.2-3-9.3-4.7-5.5-2.7-11.2-5.4-16.6-8.4-4.2-2.5-7.9-5.8-9-10.8-1.4-5.5.6-11.5 2-16.9v-.4a502 502 0 0 1 26.6-80 523.2 523.2 0 0 1 67.8-117 353.8 353.8 0 0 1 88.7-83.3 239 239 0 0 1 53.8-25.7 142.6 142.6 0 0 1 42.8-7.5Zm90.1-66c6-6.5 18.1.2 15.2 8.8a108.2 108.2 0 0 1-34.7 52A79.4 79.4 0 0 1 247 598l1.7 2.4a321.1 321.1 0 0 0 46.1 52.6c36 31.2 84.8 48 132 36 37.1-9.4 69.8-38.8 79.4-76.2-1.3.6-3 .9-4.8.5-7.7-1.7-15.3-9.8-20.3-15.6-5.3-6.3-9.5-13-12.6-20.7-5.6-14-7.4-32.1.3-45.7 1-1.7 3-.7 3.3 1l.3 2.5c1.5 12.7 3.3 25 9.3 36.6a76 76 0 0 0 18.2 23.1c2.6 2 5.8 3.6 8.1 6l.5.4c.6-5 4.1-7.3 7.6-7.2 3.3.2 7.3 1.6 8.8 2.3l.1.1a341 341 0 0 1 65.1 42 259 259 0 0 1 88.4 129c7.5 25.3 11.8 51.4 16.3 77.4l2.8 16c4.2 23.9 8.9 48.4 18.4 70.7 2.5 5.7.6 11.1-5.5 13.4A1493 1493 0 0 1 688 953c3.7 16 6 32.5 8.7 48.5 6 34.1 13.2 68 19.4 102 3.2 17.5 6.1 35 9.3 52.3l4.7 25.2 2.4 13.6.1.7c.5 2.4 1 4.9.4 7.3-.8 2.7-2.9 4.6-4.8 6.6-1.6 1.6-3.8 1.6-5.7.7l-.7-.3c-3.4-1.6-6-3.2-7.3-7-.7-2.5-1-5.2-1.5-7.7a3535.6 3535.6 0 0 1-7.8-43.6l-1.6-9.1c-5.2-31.4-10.2-62.9-12.8-94.5-1-14-2.3-28.1-3.5-42.2l-.9-10.5c-1.1-13.3-2.5-27-2.7-40.5l-4.5 1.6L657 964c-5.5 2-12.5 6-18.4 5.2-2.9-.3-5-1.2-6.8-2.9 2 28.8 4.8 57.4 8.5 86a1965.7 1965.7 0 0 0 22 135c.6 3.2 1.4 6.4 1.9 9.6.5 3.7-.5 5.9-2.5 9-1.7 2.4-5 3.7-7.8 2-3.6-2.3-5.5-4.3-6.5-8.4-1-3.7-1.6-7.6-2.3-11.4a1654.2 1654.2 0 0 1-11.4-65.2c-7.8-52-12.7-104.4-15.2-156.8a1388 1388 0 0 1-1.4-77.8c0-13.3.5-26.6 1.4-39.9 1-13.4 3-26.5 4.8-39.8 0-.5.7-.5.7 0 .8 14.9 2.1 29.8 2.8 44.7.6 14.3.9 28.5 1.4 42.8.6 18.7 1.5 37.5 2.7 56.2a9.6 9.6 0 0 1 8.5-3.1c4.7-1 9.7-3.4 14.1-5l16.8-5.5 26.4-8.7a679 679 0 0 1-18-80.8l-2-12.3c-4-24.2-8.5-48.5-15.8-72a229.8 229.8 0 0 0-34.8-68.2 370.2 370.2 0 0 0-52.7-55.3C557 627 539.7 614 523 600c.1.9.2 2 0 3-3.5 25.9-17 50-35.8 67.9-37.7 36-93.6 43.4-142 26.5-46.7-16.3-88-55-102.6-102.8-.3-.8.8-1 1.3-.5l2.4 3.3c0-.4.2-.9.7-1a129 129 0 0 0 46.6-29.2 100.2 100.2 0 0 0 21.3-33.3l.4-1c1.7-5 3.2-10.2 7-14.2Z" fill="#000000"/></g>

        <g id="head" transform="matrix(.99789 0 0 1 156 62)"><path id="skin" d="M412.5 250.2c-1.2-21.9-2.2-44.5-6.4-66a66.6 66.6 0 0 0-12.8-28.8c-6-7.8-13.8-13.8-21.5-19.8-15.7-12-30.7-25.3-48.2-34.6-16.7-8.9-34.9-14.3-53.7-16.7-36.2-4.6-74.2 3.1-105.6 21.7-30.5 18-55 46-70.2 78A195.5 195.5 0 0 0 78 233.7c-3.7 20.6-3.3 41.3-3.2 62.2 0 7 0 14-.4 21-.5 3.4-.9 6.8-.9 10.5-6.9 9-9.7 21.2-5.3 32.4 6.9 17.8 26.4 26 44.2 22.8.8 4.7 2.7 9.2 5.1 13.7 4 7.6 8.6 15 13.5 22.2a194 194 0 0 0 35 39.7c27.1 22.9 61.4 37.9 96.9 40 32.3 2 66.4-7.2 92.8-26.1 13.7-9.9 25.5-22 34.3-36.4a149 149 0 0 0 18.8-55.7c6.3-42.7 6-87 3.8-129.9Z" fill="#edb98a"/><path d="M157.5 24c-1.3-13.7 11.4-24 23.2-20.2 2.2.3 4.3 1 6.2 2.1 5.4 3.3 6.6 8.7 5.1 13.3 2.6 1.9 4.6 4.5 5.6 7.6 1 3.3 1 6.4 0 9.2a15.5 15.5 0 0 1 6.8 17c5.6 1.8 10.1 6 10 12.5 3.3.2 6.6.3 9.9 0a15 15 0 0 1 1.9-3.7c1.7-2.4 4.2-4.1 7-5.1l.3-.2v-.7c-2.1-2.3-3-5.2-.9-8.4.4-.6.9-1 1.4-1.4l.8-4c-1.8-2.7-1.6-7 1.5-8.2-.4-2.5-.5-5.1 0-7.7a22.3 22.3 0 0 1 26.8-17c2.6.2 5.2.8 7.8 1.6 2.9 1 3.6 3.5 3 5.6 4 5.3 5.1 12.5 1.1 19l-.5.7a7.2 7.2 0 0 1 1 10.4 5 5 0 0 1-2 1.4v.2c-.2 3.4-.8 6.9-1.8 10.2 4.2 3.9 7 9.2 7.5 15l4.7.5c.3-1.6 1.2-3 2.7-4.1 1.2-1 2.5-1.7 3.8-2.2a16.6 16.6 0 0 1 8.1-11.5c0-3.6.7-7.2 2.7-10.6 1.7-2.8 4-4.8 6.8-6.1 2-4 5.7-7.3 11.1-9.2 4-1.4 8.3.3 11.4 2.9l.6.6c2.9 2.5 3.9 7 2.8 10.5-.4 1.7-1.3 3.6-2.4 5.2 1.2 5.5-1.3 10-5 12.6 1.2 1.9 2.3 4 3.2 6.1 1.6 3.8-.2 8.5-3 11.5 1.2 2 2 4.3 2.3 6.7 1.3 0 2.6.3 3.9.7.6-2.4 2-4.5 3.9-6.3.8-1.6 1.9-3.2 3-4.6 1.8-2.1 4.1-3.7 6.7-4.3.3-.8.8-1.6 1.4-2.3-.6-7 4-14.2 11.2-14.2a38 38 0 0 1 1.8-4.8c1.5-3.2 4.6-5 7.9-5.6 2-4.8 5.8-8.3 12.4-8.8 14.7-1.3 24 16.5 20.4 29.4-1 3.8-3.6 7.3-7 9.4-.8.6-1.7 1-2.6 1.3a11.5 11.5 0 0 1-4.6 3.8c0 5.7-4 10.4-8.8 11.9.3 3.6-.6 7.2-3.4 10l-.2.2-.4.3v.2c1 2.5.9 5.3-.5 7.6 0 2 .5 4 1.2 6 2.7 2.2 5 4.7 7.2 7.5a5.4 5.4 0 0 1 5.4-1.2 7 7 0 0 1 1.6-.3h2.5l1.3-1.6c3.5-3.5 8.5-3.4 12.5-1.2.8-.6 1.6-1 2.5-1.4 10.2-4.3 16.9 8.6 17.9 16.7.5 4.4-3.3 7.1-7.2 7.4-.7 2.6-3.3 4.6-6.1 5.2a7.7 7.7 0 0 1-8.5 8.5v.8c.3 3-1.3 5-3.4 6a4.7 4.7 0 0 1-2.8 3.2c5 11.6 9 23.8 12.2 35.8A467.7 467.7 0 0 1 421.8 370a189 189 0 0 1-13 53 160 160 0 0 1-24 38.2 124 124 0 0 1-77.1 45.2c-16 2.3-32.3 1.5-47.8-2.8s-32-11.7-41.7-24.9c-2.6-3.5-1.3-9.3 1.6-12.2 3.3-3.4 8.2-3.6 12.3-1.6 7.2 3.5 13.8 8.3 21.1 11.7a99.7 99.7 0 0 0 64.9 4.6 108.3 108.3 0 0 0 62.7-45.9c17-26.4 23-57.4 25.8-88.2 3-33.8 2.7-68-1.3-101.7-2-16.7-5-33.3-8.7-49.7-2.6-11.7-5.5-23.3-8.3-35-2.5-2.3-4.9-4.8-7.2-7.3h-1c-13.8 1.2-28.8-.2-40.5-8.2a41.7 41.7 0 0 1-11.9-12c-4.2-3-8-6.6-11-11-2-2.2-4-4.5-5.8-7-4.6-6-7-12.4-9.8-19.4l-.1-.5c-.6-.9-1-1.8-1.1-2.8a261.5 261.5 0 0 0-24.8-1.7c.5 2.1.9 4.3 1 6.5l5.3.6c8.5 1.4 14 5.8 19.2 12.6a93 93 0 0 1 12 22.5c2 4.8-.5 10-4.6 13.2a89.7 89.7 0 0 0-30.3 7.5c-.3.2-.6.5-.7.8-7.7 2.3-15.4 4.4-23.2 6.2a47.5 47.5 0 0 1-32-2.9c-1.6.2-3.4 0-5.2-1.1-2.8-1.6-5.6-3.4-8.3-5.3-5-2.3-9.7-4.8-14.3-7.7-3.6-4.4-8.8-9-14.6-12.3-.7-1-1.3-2-1.7-3.1-2.5-6.1-1.5-13.5 3.8-17.7 0-1.4.7-2.8 2.1-4l3.4-2.5-.7-.6-1.4-1.1c-3.5 1.9-7 3.8-10.7 5.5l-.3.2c-6.8 4.5-13.3 9.6-20.2 14l-5 3-1.8 2.5c-.2 1.4-.6 2.7-1 4 .8.7 1.6 1.7 2 2.8 2.2.8 4.2 1.9 6.1 3l1.7.8a44 44 0 0 1 6.9-4.5 39 39 0 0 1 23 12.8l1 1 1.8 1.9c.5.7 1.2 1 1.9 1.2 3.5 3.4 6.9 7.1 9.2 11 3.6 6.4 1 14.2-1.6 20.4l-1.4 3c-5.2 6.9-10 14-15 21.1-3.2 3.2-6.5 6.4-9.6 9.7l-1.6 1c-9 4.7-17.9-.6-26.5-3.9l-1-.3c-8.9-3.3-20-5.4-20.5-17v-4.8a176 176 0 0 1 7.6-17 11 11 0 0 1-1.5-2.1c-.9-1.2-1.7-2.4-2.2-3.7-4.2 8-8.1 16.4-13.4 23.4-3 3.8-6.6 5.2-10.5 5.2a9.2 9.2 0 0 1-5.2.9l.2 2 .6 5.4c3.7-.1 7.7 1 11.1 2.3 10.3 4 20.2 9.7 30 14.5 4.8 2.4 11.4 4.3 15.3 8 3 2.8 2.6 6.3 1.5 10l-.6 1.8v.2c-3.2 4-5.4 8.8-7 13.7a54.7 54.7 0 0 0-5.6 14.2c-1 4-1.7 8-2.2 12v1.1l-.2.1v1a122.6 122.6 0 0 0 .7 27.3c-1.2 3.5-6.5 4-9.2 1.8a87 87 0 0 0-9.5-6.4 20 20 0 0 1-14.7.7c-.3 0-.7-.2-1-.4a71 71 0 0 0-11 2.4l-1.1.3c-5.7 1.8-11 3.9-15.4 8.2a37 37 0 0 0-8.5 30.6c1.5 10.2 7.4 21.8 18 24.7 4.4 1.2 9 1.2 13.3-.5 1.6-.6 3-1.5 4.3-2.6 1.7-1.2 3-2.6 5-3.4 1.8-.7 4.9-.7 5.8-.7 2.7-.2 5 2 5.8 4.4 2.5 7.5-1.2 13-7.1 16.7 2.5 3.8 4.8 7.8 7.3 11.4 4.6 6.6 9.5 13.1 14.6 19.5a183 183 0 0 0 25.2 26l1.6 1.3c2.7 2.3 5 4.6 5 8.5-.1 2.2-1.6 4.2-3.8 4.8-7.6 2.1-15.7-8-20.7-13l-.3-.5c-6-6.1-11.7-12.7-16.8-19.6a115.8 115.8 0 0 1-17.6-35.7 39.2 39.2 0 0 1-33-1.1 18 18 0 0 1-3.3 5c-5 5.3-12.3 6.8-19.3 6.7-9 0-17.1-5.7-17.4-15.3-.2-6.2 3-11.6 7.7-15.2 1.7-4.3 5-7.8 9.8-9a57 57 0 0 1-1.3-30.5C55.6 320.4 61 311 69 305l.4-.4-.2.1-5.5 3.3-.9.4c-8.2 4.7-17.8 8.7-27.4 6.2-15.3-4-16.7-23-3.5-30.5 4.5-2.6 9.8-3.6 15-4.3.8-1 1.8-2 2.8-2.8.2-3.5 2-7 5-9.2 3.3-2.2 6.8-2.4 10.2-1.4a19.8 19.8 0 0 1 7.9-3.6v-3.1c-.3-1-.4-2-.5-3.1l-.7-.1a23 23 0 0 1-9.1-4.3 18.3 18.3 0 0 1-15.6 1.8c-5.7-1.6-11-7-13.8-13A29 29 0 0 1 23 237c-5.8 1.4-12-.8-14.3-6.8-1.7-4.4.4-9.7 4-12.4 1.1-.8 2.3-.7 3.2 0a17.2 17.2 0 0 1 1.2-3c-.1-5.8 2-11.5 7.3-14.6 4-2.3 8.6-2.6 12.8-1.2 2.4-2.2 5.3-3.8 9-4.7 6.4-1.6 13.1.2 17.7 5l3-.6a13 13 0 0 1 8-10.7c.9-3 2.2-5.8 4.4-8l-3-3.2-2.7-.6a18.4 18.4 0 0 1-10.4-8.4 16 16 0 0 1-13-2 17 17 0 0 1-6.7-8.7l-3.6-1.3a12.7 12.7 0 0 1-7.2-6c-1.7.6-3.7.6-5.2-.6-9.3-7.2-3-19 7-21.3 4-1 7.4-.4 10.6 1 2.2-2.1 5-3.7 8.2-4.4a17 17 0 0 1 11 1.4h1c3.4-2.6 7.8-3.8 13.2-2.5a20.4 20.4 0 0 1 13.2 9.3 15 15 0 0 1 12.9-3.8l3.3-4.6a12.1 12.1 0 0 1-4.7-9.1c-.9-.5-1.7-1.1-2.4-1.7-3.8-2.6-7-6-8.4-10.4-.7-2.2-1-4.5-1-6.8l-1.1-.3c-16-4.6-22.6-26.6-10-38.4C87 51.5 97 55 103.5 59.6c4.4 3.1 8 7 11.2 11.3h.4c4.7 1.1 8.3 4.1 11 7.9 4.8-.8 10 0 14.5 3.4 3.3 2.4 5.4 5.4 6.4 8.7 4.3-2.3 8.8-4.2 13.3-6l1-2.1c.7-1.4 1.6-2.6 2.6-3.6a20.6 20.6 0 0 1-3-4.3 19.5 19.5 0 0 1 1.9-21.1 21.3 21.3 0 0 1-.6-16c-2.6-4.2-4.3-8.8-4.7-13.7Zm-70 307.3c2.8-.7 3.4-1.6 6.6-1.3a44.8 44.8 0 0 1 22.5 9c6.5 4.8-1.3 13.9-6.4 8.7l-.2-.2a51.9 51.9 0 0 0-11.7-9.2c-2.3-1.3-4.5-2.2-6.9-3.4-1.6-.7-2.5-2-4-2.8-.3-.2-.3-.7.1-.8Zm15-73.3c-1.6-.6-3.4.6-3.8 2-.4 1.7.5 3.1 2 3.7h.1c2 .8 3.8 2 5.3 3.3l.3.3c2.8 2.7 7-1.5 4.2-4.2-2.3-2.3-5-4-8.2-5.1Zm71.7-109.2c-1.6-3.5-6.6-.6-5.3 2.8l.1.2a11 11 0 0 1-.7 9.6l-.2.3c-1.8 3.4 3.3 6.4 5.2 3 2.8-5 3.3-10.7.9-16Zm43.6-43-.1-.4c-.7-3.8-6.5-2.2-5.8 1.6 1.2 6.3 5.8 10.4 11.6 12.5 3.7 1.3 5.2-4.5 1.6-5.8-3.9-1.4-6.5-4-7.3-8Zm94.5-6.1h-1l.8 1 .2-1Z" fill="#000"/></g>

        <g id="face" transform="translate(315 248)"><path d="m111.4 252.4-10.6-40.3 1.7.2c16.8 2.7 25.1 5.4 25.1 8.2v.1c-.2 3.2-5.6 13.8-16.2 31.8Zm97.2-31.6-3.7 28.8-19.5-21.3 23.2-7.5ZM98.5 149c21.8 0 39.5-16.1 39.5-36s-17.7-36-39.5-36S59 93.1 59 113s17.7 36 39.5 36Z" fill="#fff"/><path d="M157 112c19.9 0 36-15.9 36-35.5A35.8 35.8 0 0 0 157 41c-19.9 0-36 15.9-36 35.5a35.8 35.8 0 0 0 36 35.5Z" fill="#fff"/><path d="M206 142c16 0 29-14.3 29-32s-13-29.5-29-29.5-29 11.8-29 29.5 13 32 29 32Z" fill="#fff"/><path d="M101.2 210.7c7.2-1.4 16.2 1.6 23.5 3h.5c8.8 1.6 17.5 3.4 26.4 4.3 8.5 1 17.1 1 25.6 0a82.2 82.2 0 0 0 17-3.8h.2c1.3-.5 4.5-2.4 4.5-1.4 1-1 2.2-1.8 3.6-2.2 2-.5 4.5 0 6.2 1.4 2.1-1.7 5.3-.5 6.8 1.5 2.4 3.5 1.6 7.6 1.3 11.7v.3c-.3 3.9-.7 7.7-1.2 11.5l-.2 1.6c-.8 5.6-1 14.8-7.8 16.7-5.4 1.4-10.3-4-13.8-8.5l-2-2.4a54.3 54.3 0 0 1-8-13.6l-.1-.5c-10 1.3-20.2 1.2-30.2-.2-6.3-.8-12.6-2-18.7-3.6l-2.8 5c-3.2 5.8-6.5 11.6-10 17.4l-.2.4c-3.3 5.1-8.7 10.3-15.1 6.4-5.7-3.4-6-11.3-6.6-17.1l-.9-11.8V225c-.1-3.8-.8-8.2.7-11.8.2-.5 1-1 1.4-.4 3 3.7 4 9.5 5.3 14 1.5 5.2 3.6 10.7 4.4 16l.2-.4a375 375 0 0 1 2.3-4.2l2.3-4.3 6.4-11.5-7.3-3-5.5-2.2a25.9 25.9 0 0 1-8.6-5.2c-.4-.4-.3-1.3.4-1.4Zm103.7 14c-5.4 2.2-11 3.8-16.7 4.9l1.1 1.1 4.2 4.5.8.9c2.2 2.2 5.5 6 8.9 8l.1-1 .1-.3.4-3.2.1-1.6.8-8.6.2-4.6ZM141 40a40 40 0 0 1 39.1 5.4 46.6 46.6 0 0 1 17 36c8.9-7.7 21.8-1.9 29.3 5.3a37 37 0 0 1 11 32.5 32.7 32.7 0 0 1-22 25.7 31.2 31.2 0 0 1-23.6-2.4l.4 1.5c2.7 11.7 4.3 25 .2 36.5-6.7 18.7-30.5 29.1-45.3 12.6a39.1 39.1 0 0 1-10-25.6c.2-4.6 2.9-10 8.3-9.7 4.2.3 6.2 3.8 5.1 7.5v.2c-2.3 7.2 1.6 17.5 7.2 22.4 8.7 7.5 20.6 1 25.4-7.8 5.5-10.2 4.8-23.3 3-34.4-1.7-11-5.5-21-9.6-31l-1.4.2c-8.2 1.1-24.8 1.5-33.8-4.4 1 9.1-1 18.6-6.1 26.3a34 34 0 0 1-24.7 14.6 87.4 87.4 0 0 1-31-.7c-20.7-5-28-30.6-21.7-49 3.7-11 14-20.8 25.5-23.2a34 34 0 0 1 20.7-4.5c10.2.7 20.3 5.2 27.1 12.9 2.6 3 4.8 6.3 6.4 9.9a5 5 0 0 1 2-1c1.1-.2 2.1-.3 3.2.1a7 7 0 0 1 1.9 1.4l1 1.3c1.4 1.5 2.7 2.9 5.1 3.8a54.3 54.3 0 0 0 23 2.8c18.2-1.4 15.9-25.5 11.4-38a32.8 32.8 0 0 0-36-21.1 35 35 0 0 0-17.9 9.3c-5.4 5.1-7.8 11.4-11 18-.2.3-.9.2-1-.2-2.6-13.8 10-28.2 21.8-33.2ZM44.1 151c-.5-.7.3-1.8 1-1.3 5.9 4 12.3 6.8 19.3 7.6 3.3.3 6.6.3 10-.2 2.7-.4 5.2-1.2 8-.5 1.5.4 1.8 2.2.9 3.2-4.2 5-14.6 3.7-20.3 2.4A35 35 0 0 1 44.2 151Zm195.3-9.2c2.9-1.8 6.2 1.7 4.6 4.5-4.4 7.3-16.9 7.9-24.2 6.1-.5 0-.4-1 .2-1 4.1.1 8-.7 11.5-2.8 3.1-2 5-5 8-6.8Zm-139-58-.5.1c-6.7.1-12.8 2.6-19.2 4l-1.5-.1a30.7 30.7 0 0 0-14 24.1 33.8 33.8 0 0 0 5.8 21.7c5 7 13.2 8 21.2 8.3h.8c15.1.3 31.7-.6 37.1-17.5 4-12.5-.2-27.7-11.3-35.2a32.6 32.6 0 0 0-18.4-5.3Zm121.8 9-.4-.5c-6-6.8-15.3-13-24.6-9.5V84.6c0 13.1-5 25.4-17.6 29.2 3.4 4.8 6 10.2 8.2 15.7.8-.5 1.7-.8 2.8-1 4.4-.4 7 3.7 10.7 5.3 3.6 1.4 7.7 1.8 11.4 1 8.3-1.6 14-8.7 16.1-16.6 2.3-9-.7-18.3-6.6-25.2ZM96.5 104c2.8-4.6 9.6-4 12.3.1l.1.3a12.6 12.6 0 0 1-4.2 18.4c-5.3 2.6-12 2-15.5-3.2a9.1 9.1 0 0 1-1.5-4c0-.9 0-1.8.2-2.7v.2l.2-1.4c.5-1.9 1.6-4 3-5.3a8.5 8.5 0 0 1 5.4-2.4Zm113.2-4.8c2.4 0 4.6 1 6.4 2.6 2.5 2.3 2.8 5.6 2.3 8.8l-.7 2.8-.2.9v.4a7 7 0 0 1-.7 1.6c-1 4-5.3 5.8-9 5a7.5 7.5 0 0 1-5-4.9l-.8-1.7-.3-1.3-.7-2.8c-.6-3.3 0-6.3 2.3-8.8 1.7-1.6 4-2.6 6.4-2.6ZM156 65.5c4.2-.6 8.5 1.4 10.7 5.2a11 11 0 0 1 0 10.8l-.1.3c-3.5 6-11.7 6.8-16.6 2.1l-.2-.2a10.7 10.7 0 0 1 6.2-18.2Z" fill="#000"/></g>

        <g id="facial-hair" transform="translate(279 400)"><path d="M207.9143,31.3282 C196.7933,26.3192 176.8233,30.6902 169.5733,32.4282 C152.7183,36.4702 135.7623,45.2052 130.5223,58.8902 C124.6173,74.3132 136.3993,79.1682 138.1323,78.3752 C149.8003,79.1972 163.6953,71.8622 175.9223,69.9692 C185.8483,68.4192 196.3193,67.0662 205.6193,61.7922 C212.4093,65.5272 227.7453,67.5462 240.1223,70.8122 C250.6633,73.5922 255.2303,79.6212 265.0023,78.3392 C276.7143,76.8032 271.9203,52.1702 258.8673,42.1912 C244.5813,31.2702 220.4193,26.8412 207.9143,31.3282 Z M229.9341,136.6535 C220.204493,139.025645 219.5511,117.7005 218.4611,110.1665 C217.609542,104.280593 212.806884,89.1015762 200.6311,89.7565 C188.455316,90.4114238 183.878432,103.128761 184.4961,111.0385 C184.896642,116.16777 189.62335,142.149551 174.5361,145.4365 C164.9171,145.4025 153.7891,144.7535 143.6751,142.8885 C131.7711,140.1925 116.291914,130.753365 112.2031,149.3425 C110.731534,156.03274 163.1691,175.9095 186.4381,177.7075 C210.036475,182.489578 237.64678,175.136312 254.448053,157.083732 C258.270339,152.976774 269.035635,135.930081 269.802759,131.753365 C271.414428,122.978404 267.682963,117.331642 256.8251,120.4245 C249.1551,124.5205 236.191168,135.127984 229.9341,136.6535 Z" id="ðŸ–-Ink" fill="#000000"/></g>

        <g id="eyewear" transform="translate(203 303)"><path d="M337.808766,15 C361.280828,15 374.675545,20.0476268 379.583995,20.4408262 L379.731604,20.4513988 C381.773203,20.5819351 383.604638,20.7526365 385.526143,21.4956895 C392.591677,24.2168704 393.742579,31.6273185 389.619349,36.2975074 C389.330123,45.9612137 390.601118,57.2526079 388.42041,66.9474421 C385.730303,107.818373 366.509247,114.715713 355.583689,117.233056 C350.098392,118.49725 343.5973,119.000317 337.770736,117.665834 C327.83095,117.295312 318.004253,114.183526 309.596667,108.765263 C297.887495,101.213234 289.190683,89.6055398 286.368473,75.8299385 C285.030886,69.2635354 284.405767,62.4288331 285.133692,55.7543104 L285.24159,54.834673 C281.435609,53.014193 277.025154,52.6697779 272.478593,52.5091178 C270.306891,52.4318001 268.166215,52.3625154 266.086586,52.454895 C264.053994,52.6818274 262.04542,52.9840692 260.030842,53.3957608 C257.831119,54.0594879 255.753492,55.1549891 253.834989,56.8901185 L253.702886,59.4225236 C253.342603,65.7485159 252.511953,72.0935866 251.230949,78.3000879 C249.339468,87.4577148 246.297085,96.2036502 239.822013,102.69934 C237.630296,105.97279 234.918171,108.894796 231.625592,111.425193 C219.665224,120.63403 203.415495,124.014921 188.501813,122.74169 C158.225098,120.158074 140.724389,96.1233201 136.69123,85.8501095 L136.45028,85.2277051 C133.536796,77.5902322 131.214914,67.6806815 122.008729,66.0397124 L120.050703,65.6879191 C115.84966,64.8993558 111.973202,63.8015161 109.509939,59.7026747 C108.430093,57.9133226 107.874658,55.9121 107.738551,53.8717164 C106.301426,53.9821703 104.866302,54.0876035 103.436181,54.1900243 C92.0277451,56.6026875 23.600227,58.6483427 18.1383674,58.6483427 C18.1383674,58.6483427 7.63935915,63.0673229 3.20667133,59.6434313 C0.134264704,57.2626491 -0.876527051,54.0896117 0.814797767,50.4948415 C3.36675899,45.0862033 15.1402688,41.832872 20.368158,40.8027483 C20.368158,40.8027483 104.732847,41.5034375 110.804953,40.3521672 C114.561896,36.47825 121.28216,37.0084284 126.897559,36.3959117 C131.5462,33.0812926 138.049294,30.8611705 143.186318,29.3750644 C144.233138,28.9784347 145.26995,28.5948587 146.277739,28.2333734 C155.695116,24.8795934 165.483783,23.1032949 175.421568,22.1493754 C185.669595,21.1753734 195.947646,21.6161846 206.135626,23.0119194 C210.428989,23.5943124 214.682321,24.3474067 218.905629,25.3324541 C226.467802,26.3293627 233.985996,27.9714025 241.550918,29.9193501 L243.064552,30.3129178 C251.030792,32.4014994 259.217205,34.2079217 267.463664,32.7921043 C274.177256,31.6469826 280.633494,29.0632415 286.823569,26.2693175 L287.62946,25.9038016 C301.240122,19.6892673 322.495771,15 337.808766,15 Z M218.086988,37.7223618 C213.065054,36.6178235 210.920374,44.3606372 215.95832,45.4681879 C219.525804,46.252514 222.549376,48.0515396 224.592155,51.0993468 L224.807252,51.4306867 C227.548399,55.792609 234.479828,51.7660647 231.719666,47.3760269 C228.614234,42.4357281 223.788453,38.9755108 218.086988,37.7223618 Z M365.1732,32.9216366 C363.402814,31.6745124 360.723715,32.6003163 359.69591,34.362557 C358.564701,36.303111 359.306135,38.4637159 360.964208,39.7331967 L361.133036,39.8571332 C362.653907,40.9290575 364.135119,42.8505012 364.321131,44.8192514 L364.337546,45.0655335 C364.536702,50.2177028 372.543974,50.24381 372.343817,45.0655335 C372.148664,39.999719 369.215367,35.767329 365.1732,32.9216366 Z" id="ðŸ–-Ink" fill="#000000"/></g>
    </g>
</svg>