<svg xmlns="http://www.w3.org/2000/svg" viewBox="0 0 704 704" fill="none" width="512" height="512">
    <desc>"Open Peeps" by "Pablo Stanley", licensed under "CC0 1.0". / Remix of the original.</desc>
    <mask id="viewbox"><rect width="704" height="704" rx="0" ry="0" x="0" y="0" fill="#ffffff" /></mask>
    <g mask="url(#viewbox)">
        <rect id="background" fill="#c0aede" width="704" height="704" x="0" y="0" />

        <g id="body"><path id="skin" d="M705.3 1074a2351.1 2351.1 0 0 1-15.6-101c-1-7.7-2.5-16.4 2.7-22 7.3-8 14-14.8 14.8-26.2.8-10.7-2.8-22.4-5-32.8a809.4 809.4 0 0 0-17.3-64.7c-6.6-21.7-13.9-43.2-21.3-64.6-6.9-20-13.5-40.3-22.5-59.5-17-36.5-46-63.5-81.6-81.6-9-4.5-27-20.5-36.3-24-8.5-3.4-8.5 6.3-16.9 2.6-6.7-2.9-13-6.7-16.7-13.2-4-7-14.3-16.9-15.9-25-3.3-17.4.3-32.2-12-45.3a90 90 0 0 0-41.1-23.8c-33.7-9.3-78.5-2.8-98.8 28.5-9.7 14.9-13 33-26.2 45.1-11.4 10.7-8.8 18-23.6 23.4-.9.3-23.6-4.5-24.4-4.2-16.2-3.5-31.7 6.2-46.5 11.8a325.4 325.4 0 0 0-63 32.3 399.2 399.2 0 0 0-102.3 98.5 482.5 482.5 0 0 0-76.4 161c-1.7 6.4-3.5 13-1.5 19.4 1.7 5.3 5.4 9.2 9.8 12.4 6 4.3 18 7 17.7 15.7-.1 6.6-2.4 13.5-3.5 20-1.3 7.7-2.3 15.5-3.4 23.2-4.8 35.4-8.6 71-10.3 106.6a920 920 0 0 0-.5 106c.1 2.3.8 4.5 2 6.2-1 .4-1.2 2.4.1 2.7l2.7.5a12 12 0 0 0 7 2.4l5.5.2c19.3 4 38.6 7.9 58.1 10.8 23.8 3.5 47.6 6.3 71.5 8.7 49.2 4.8 98 3.2 147.1.6a1877 1877 0 0 1 147.4-2c49.2 1.4 98.4 3.5 147.6 4.4 55 1 110-.5 164.8-5 7.5-.5 12.2-6.5 10.7-14-8.9-44.7-19-89.1-27-134Z" fill="#694d3d"/><path id="shirt" d="m201 597.5 1.2-.4c14.5-5.7 29.6-14.8 45.4-11.4.5-.2 10.8 1.9 17.9 3.2l-6.7 7L247 598c40.7 67.1 88.8 100.7 144.3 100.7 55.5 0 97.7-33.6 126.4-100.7l4-1c.4 0 1 .2 1.5.4 9.3 3.6 27.4 19.6 36.3 24.1 35.6 18 64.5 45 81.6 81.6 8.7 18.6 15.2 38 21.8 57.5l.7 2c7.4 21.4 14.7 43 21.3 64.6 6.3 20.4 12 41 16.6 61.8l.7 2.9c2.2 10.4 5.8 22 5 32.8a29 29 0 0 1-3 10.7l-80.4 29 38.4 261.3c-35.1 1.5-70.3 2-105.5 1.3-49.2-.9-98.4-3-147.6-4.3-47.7-1.2-95.3-.7-143 1.7l-12 .6a946.3 946.3 0 0 1-139.5-1l-3.1-.3v-38.3l16.3-212.9-83-15.6-81.3-39.5a21.7 21.7 0 0 1-5.6-8.8c-1.9-6-.5-12 1-18l.5-1.3a492.8 492.8 0 0 1 76.4-161A399.3 399.3 0 0 1 138 629.7c19.8-13 40.9-23.9 63-32.3Z" fill="#9ddadb"/><path d="M232.2 584.6c5.1-.3 10.3.6 15.4 1 .4.1.6.8 0 .9-9 1.9-18 4.5-26.9 7.1l-3.8 1.2c-10 3-19.8 6-29.6 10-19.4 7.9-37.8 18.5-54.8 30.8C67.2 682.8 20 754.3-9.9 828.3a526 526 0 0 0-24.3 77c-.4 1.6-2 5.4-1 7 .7 1.3 3.6 2.1 5 2.9l4.5 2.3 25.2 12.9 2.3 1.1c38 18.6 78.4 34.4 121 35.5l.4-3.7a342 342 0 0 1 9.9-60c.3-1 1.6-.6 1.7.3 3 23.1 2 46.4 1 69.7-1.8 41-4.3 82.2-6.5 123.3-1.2 20.6-2.6 41-3.9 61.7-1.3 20.5-1.7 41.6-4.7 62-.6 4.6-6 7-10 6.6-4.4-.5-7.9-4.5-8-9 0-11.9 1.5-24 2.4-35.8l2.5-33.8c3.1-41.1 6.8-82.2 10.2-123.3a4771 4771 0 0 1 3.8-43.7C76.4 979.8 34.2 963-6.1 943.5c-.6 13.2-2 26.5-3.4 39.6-3.8 36.8-7.1 73.6-9.6 110.5a2254.2 2254.2 0 0 0-4.2 92.7l-.2 7c0 4.4-.5 8.5-4.3 11.7-3.7 3.3-8.9 3.5-12.6 0-5-4.6-4.2-10.9-4-17.1a1675.6 1675.6 0 0 1 1.8-47.2 1321 1321 0 0 1 10.5-109.5l2-14c3.5-26 7.5-52.7 15.5-77.9-3.1-1.5-6.2-3-9.3-4.7-5.5-2.7-11.2-5.4-16.6-8.4-4.2-2.5-7.9-5.8-9-10.8-1.4-5.5.6-11.5 2-16.9v-.4a502 502 0 0 1 26.6-80 523.2 523.2 0 0 1 67.8-117 353.8 353.8 0 0 1 88.7-83.3 239 239 0 0 1 53.8-25.7 142.6 142.6 0 0 1 42.8-7.5Zm90.1-66c6-6.5 18.1.2 15.2 8.8a108.2 108.2 0 0 1-34.7 52A79.4 79.4 0 0 1 247 598l1.7 2.4a321.1 321.1 0 0 0 46.1 52.6c36 31.2 84.8 48 132 36 37.1-9.4 69.8-38.8 79.4-76.2-1.3.6-3 .9-4.8.5-7.7-1.7-15.3-9.8-20.3-15.6-5.3-6.3-9.5-13-12.6-20.7-5.6-14-7.4-32.1.3-45.7 1-1.7 3-.7 3.3 1l.3 2.5c1.5 12.7 3.3 25 9.3 36.6a76 76 0 0 0 18.2 23.1c2.6 2 5.8 3.6 8.1 6l.5.4c.6-5 4.1-7.3 7.6-7.2 3.3.2 7.3 1.6 8.8 2.3l.1.1a341 341 0 0 1 65.1 42 259 259 0 0 1 88.4 129c7.5 25.3 11.8 51.4 16.3 77.4l2.8 16c4.2 23.9 8.9 48.4 18.4 70.7 2.5 5.7.6 11.1-5.5 13.4A1493 1493 0 0 1 688 953c3.7 16 6 32.5 8.7 48.5 6 34.1 13.2 68 19.4 102 3.2 17.5 6.1 35 9.3 52.3l4.7 25.2 2.4 13.6.1.7c.5 2.4 1 4.9.4 7.3-.8 2.7-2.9 4.6-4.8 6.6-1.6 1.6-3.8 1.6-5.7.7l-.7-.3c-3.4-1.6-6-3.2-7.3-7-.7-2.5-1-5.2-1.5-7.7a3535.6 3535.6 0 0 1-7.8-43.6l-1.6-9.1c-5.2-31.4-10.2-62.9-12.8-94.5-1-14-2.3-28.1-3.5-42.2l-.9-10.5c-1.1-13.3-2.5-27-2.7-40.5l-4.5 1.6L657 964c-5.5 2-12.5 6-18.4 5.2-2.9-.3-5-1.2-6.8-2.9 2 28.8 4.8 57.4 8.5 86a1965.7 1965.7 0 0 0 22 135c.6 3.2 1.4 6.4 1.9 9.6.5 3.7-.5 5.9-2.5 9-1.7 2.4-5 3.7-7.8 2-3.6-2.3-5.5-4.3-6.5-8.4-1-3.7-1.6-7.6-2.3-11.4a1654.2 1654.2 0 0 1-11.4-65.2c-7.8-52-12.7-104.4-15.2-156.8a1388 1388 0 0 1-1.4-77.8c0-13.3.5-26.6 1.4-39.9 1-13.4 3-26.5 4.8-39.8 0-.5.7-.5.7 0 .8 14.9 2.1 29.8 2.8 44.7.6 14.3.9 28.5 1.4 42.8.6 18.7 1.5 37.5 2.7 56.2a9.6 9.6 0 0 1 8.5-3.1c4.7-1 9.7-3.4 14.1-5l16.8-5.5 26.4-8.7a679 679 0 0 1-18-80.8l-2-12.3c-4-24.2-8.5-48.5-15.8-72a229.8 229.8 0 0 0-34.8-68.2 370.2 370.2 0 0 0-52.7-55.3C557 627 539.7 614 523 600c.1.9.2 2 0 3-3.5 25.9-17 50-35.8 67.9-37.7 36-93.6 43.4-142 26.5-46.7-16.3-88-55-102.6-102.8-.3-.8.8-1 1.3-.5l2.4 3.3c0-.4.2-.9.7-1a129 129 0 0 0 46.6-29.2 100.2 100.2 0 0 0 21.3-33.3l.4-1c1.7-5 3.2-10.2 7-14.2Z" fill="#000000"/></g>

        <g id="head" transform="matrix(.99789 0 0 1 156 62)"><path id="skin" d="M408.0736,252.0653 C404.3616,222.4443 392.70157,190.994866 380.43857,163.379866 C352.86457,104.993866 289.7376,96.9553 233.1466,84.9173 C177.3026,76.7873 118.1676,69.4463 63.1656,85.6673 C32.2446,93.2423 20.1676,130.0683 25.0476,159.1293 C27.8326,177.2383 36.0756,194.3773 43.1046,211.1603 C57.0756,245.6263 65.9396,282.5253 65.9546,319.8413 C64.9956,344.2273 61.5536,372.0613 89.5776,382.3903 C116.2446,395.6513 118.4976,431.5993 151.8886,451.9953 C165.3906,479.3443 202.1696,481.7513 228.6406,488.0953 C245.3716,491.2973 262.2916,493.6543 279.2576,495.1763 C328.3836,501.4713 367.6836,487.2363 393.3996,443.4743 C410.6086,416.8413 423.4236,386.0893 420.2576,353.8113 C417.1046,319.8213 411.8516,286.0093 408.0736,252.0653 Z" fill="#694d3d"/><path d="M233.5706,13.9589 C236.3746,10.7809 240.6946,11.8709 243.3166,14.3839 C245.0236,14.8869 246.6776,15.6349 248.2396,16.6249 C251.7696,16.1719 255.4706,16.1719 258.9326,16.2989 C259.7726,15.8279 260.6726,15.4089 261.6526,15.0489 C268.6526,12.4899 274.8516,13.7899 279.9646,17.2159 C282.4276,14.8859 285.5346,13.4239 289.5066,13.6449 C293.0516,13.8429 295.5776,15.5109 297.7426,17.7079 C299.9016,14.5949 303.3916,12.3739 307.7396,12.0649 C313.8166,11.6329 319.6586,14.0699 324.5006,17.8429 C327.3216,14.6069 331.1676,12.7469 335.4536,12.7289 C338.2736,12.2169 341.2496,12.4189 343.9386,13.2309 C347.8426,14.4099 351.2706,16.6189 354.0006,19.4859 C358.3196,15.3499 363.6066,12.3739 369.7026,12.8079 C377.5926,13.3779 384.1326,19.1789 387.1726,26.3189 C392.5126,28.4579 397.4426,31.5089 401.5626,35.8589 C401.7826,36.0879 401.9926,36.3279 402.2126,36.5689 C404.4326,37.3879 406.5226,38.5489 408.3626,40.0779 C414.1926,44.9289 415.4926,51.9489 413.5626,58.8279 C413.8326,59.9289 414.0626,61.0489 414.2726,62.1679 C419.7326,62.9979 424.6926,66.1489 427.5126,71.2789 C431.3726,78.3189 430.6126,87.5979 426.4326,94.3189 C424.6356,97.2099 422.3546,99.6459 419.7926,101.7759 C422.6896,108.3559 421.2996,116.2079 416.6286,121.5299 C415.4906,123.3649 414.0936,125.0209 412.5216,126.5199 C414.2566,133.3229 411.1706,140.3419 405.0106,143.9769 L404.483711,145.295641 C404.395156,145.514789 404.305267,145.7329 404.2126,145.9489 C404.1446,146.2289 404.0606,146.4999 403.9776,146.7729 C403.8306,149.1869 403.0356,151.5559 401.4576,153.7879 C398.227,158.362167 394.22268,161.345074 392.099428,166.684931 L391.8866,167.2459 C390.9736,169.7729 388.0256,171.5559 385.5136,170.7759 C399.4606,199.4169 406.7726,231.2859 411.7926,262.5179 C414.295725,278.09915 416.227561,293.734013 417.794101,309.429082 L419.330606,325.058487 C420.681949,338.950977 421.884908,352.889438 421.8926,366.8279 C421.9126,398.3589 412.8926,428.6879 393.5326,453.7789 C375.2226,477.4979 349.3126,494.6879 320.0426,501.4579 C289.8226,508.4379 254.3726,505.6879 227.2726,489.7079 C219.2826,485.0089 226.2826,473.7079 234.4126,477.4889 C249.8026,484.6489 265.4426,489.9689 282.5026,491.1589 C299.1326,492.3279 315.8026,490.2479 331.5726,484.8079 C357.6626,475.7989 379.8626,456.9289 394.1326,433.4289 C401.1626,421.8479 406.2526,409.2789 408.9626,395.9979 C412.335933,379.4451 411.827706,362.335879 410.588207,345.571389 L410.5026,344.4289 C408.0526,312.1279 404.8226,279.6279 399.6026,247.6489 C394.9886,219.3699 387.8936,191.6639 378.6826,164.5709 C375.0746,161.3949 371.0386,158.7669 366.7196,156.7709 C335.0926,155.4499 303.4086,155.8359 271.8226,158.0179 C244.884669,159.891003 218.077249,163.059898 191.472347,167.678496 L188.6226,168.1789 C182.7326,169.2279 176.1926,169.8279 170.6426,172.1989 C165.8826,174.2389 163.9526,178.1589 162.7526,182.9779 C159.7326,195.1679 159.2726,208.5089 158.7626,221.0089 C158.2626,233.2279 159.3926,245.5489 158.4126,257.7279 C157.5826,267.9179 154.9726,278.3479 147.4226,285.7189 C143.4726,289.5779 138.6126,291.6879 134.0526,294.6179 C131.1026,296.5089 129.8526,298.4579 130.2326,301.9579 C131.0526,309.6179 137.2226,319.2679 130.2926,325.8279 C129.0726,326.9779 126.9626,327.1279 125.7626,325.8279 C122.9026,322.7189 118.9526,320.3479 115.5626,317.8379 C114.1426,316.7989 115.3226,314.7789 116.9326,315.4979 C119.0526,316.4489 121.2126,317.5689 123.4226,318.5489 C118.5426,314.5289 111.6026,312.5579 105.8226,311.3879 C102.9126,310.8079 99.8526,310.6379 96.8226,310.9089 C94.5826,311.9779 92.2926,312.9689 90.0026,313.9379 C87.0926,315.1589 84.1526,316.2679 81.1926,317.3189 C70.9226,325.6879 66.0226,339.2989 68.1626,352.6089 C69.3326,359.9579 72.7226,367.9489 79.1126,372.2389 C86.6826,377.3189 96.8226,375.1379 105.0026,378.9089 C112.6626,382.4379 117.3226,389.5689 120.8126,396.9489 L122.267564,400.021495 C125.506834,406.824289 128.836513,413.446596 133.2626,419.6379 C138.3826,426.8079 144.6526,433.2479 151.4926,438.7789 C154.810933,441.455567 158.347739,443.863344 162.002884,446.056151 L163.0026,446.6489 C166.7026,448.8189 169.3526,450.8879 169.6026,455.4779 C169.6826,457.0779 168.6726,458.5379 167.3726,459.3679 C161.7726,462.9179 156.2026,458.4779 151.5426,455.3779 C146.5126,452.0379 141.7026,448.2789 137.2526,444.1789 C128.7926,436.3989 121.4726,427.1589 115.8426,417.1279 C111.5526,409.4889 109.1126,398.7389 102.3326,392.8189 C98.1926,389.2079 92.3426,389.1789 87.1726,388.5179 C82.3626,387.8989 77.8126,386.8989 73.5326,384.5289 C56.1226,374.8589 51.2026,351.4489 55.3326,333.3589 C56.0326,330.3079 57.0126,327.3379 58.2226,324.4779 C51.7426,325.5579 44.4626,318.8589 47.0926,312.0979 C47.2926,311.5879 47.5226,311.1089 47.7426,310.6179 C43.4726,307.8079 40.1026,303.5489 38.5026,297.9779 C37.6826,295.0979 37.5626,292.1879 37.9926,289.3779 C35.9226,287.9889 34.2126,286.0779 33.1126,283.7279 C29.6726,282.1379 26.6226,279.7589 24.8026,276.3589 C22.2826,271.6679 22.6026,267.3479 24.5226,263.4579 C24.2526,262.9689 23.9926,262.4689 23.7426,261.9579 C16.6926,257.4889 11.7726,249.7879 12.3326,241.2479 C12.5126,238.4179 13.2126,235.8679 14.2926,233.5689 C14.2026,233.2789 14.1126,232.9779 14.0326,232.6879 C8.1326,229.6879 3.2526,224.7589 1.5126,218.1789 C-0.2274,211.5579 1.8226,204.9579 5.9226,199.8779 C-0.0774,195.4889 -3.6874,189.3589 -1.4974,180.0879 C-0.6074,176.3189 1.1826,172.8879 3.6026,169.9979 C3.5926,169.9089 3.5726,169.8189 3.5526,169.7279 L2.99125469,169.292531 C-4.41579976,163.447537 -8.67374146,155.998876 -4.1274,146.8379 C-2.0874,142.7189 0.8226,139.8479 4.2426,137.9579 L4.4126,137.4179 L4.4126,137.4179 C1.9626,132.1679 1.1326,126.3379 2.8226,120.2079 C4.2026,115.1589 7.4726,111.1379 11.6526,108.4689 C11.3726,106.2079 11.4126,103.7989 11.8626,101.1879 C12.6126,96.7789 14.8026,92.9289 18.0026,90.1989 C18.1226,89.6179 18.2726,89.0489 18.4426,88.4779 C19.5226,84.9889 21.5426,81.1989 23.8826,78.3879 C25.8126,76.0579 27.9726,75.2079 30.6126,75.1179 C30.4526,72.9689 30.5626,70.7879 31.0026,68.5779 C32.3526,61.7589 36.6926,55.3479 43.1226,52.4379 C45.7626,51.2479 48.5426,50.8989 51.2226,51.1879 C53.5026,46.3879 57.9526,42.9089 63.4226,42.1589 C65.5526,41.8589 67.5326,41.8779 69.3526,42.1489 C70.3826,41.6679 71.4526,41.2389 72.5726,40.8479 C73.3126,40.5879 74.0626,40.3479 74.8126,40.1089 C77.3426,36.9689 80.6726,34.4579 84.5626,32.9489 C89.0526,31.1989 93.6226,31.3779 97.6726,32.8479 L98.9626,32.5779 L98.9626,32.5779 C100.9826,29.0779 104.2026,26.3679 109.1526,25.1379 C114.7726,23.7479 120.5426,25.6879 124.9626,29.2189 C124.9826,29.2189 125.0026,29.2189 125.0326,29.2079 C127.3426,24.0379 131.2926,20.4379 137.9226,20.6879 C142.0526,20.8479 145.7826,22.8989 148.6626,25.8189 C150.2626,25.6179 151.8626,25.4379 153.4726,25.2589 C155.1726,23.2679 157.0626,21.4089 159.1526,19.7389 C162.5726,16.9979 167.0226,17.2189 169.5426,21.0779 C170.0926,21.9179 170.6026,22.7679 171.1126,23.6179 L173.4226,23.4579 L173.4226,23.4579 C176.1426,19.7879 179.8526,17.3079 184.9326,17.1089 C189.5926,16.9179 192.9126,19.1989 195.4426,22.3879 C197.5026,22.3379 199.5726,22.2989 201.6426,22.2679 C204.0526,19.4779 206.8926,17.0179 210.1326,14.9779 C212.6126,13.4179 216.2726,13.9489 218.2826,16.0289 C219.6406,17.4429 220.9046,18.9189 222.0796,20.4469 C225.1086,17.0509 229.1996,14.8139 233.5706,13.9589 Z M86.3926,331.5085 C91.0626,328.8485 97.3426,331.7285 101.8626,333.9885 C107.3726,336.7385 112.8426,340.8885 116.2126,346.0885 C120.8026,353.1685 110.0126,358.8885 105.1826,352.5385 C102.2126,348.6285 99.8426,344.6885 96.2426,341.2685 C92.9526,338.1285 88.1826,336.0285 86.2926,331.8885 C86.2226,331.7485 86.2426,331.5885 86.3926,331.5085 Z M89.6732526,159.657628 L89.7606,159.4079 C91.0886,155.7749 85.2926,154.2089 83.9756,157.8119 C81.9796,163.2729 84.2806,169.2099 89.6746,171.5679 C91.1696,172.2219 92.8776,171.9949 93.7786,170.4919 C94.5356,169.2269 94.1846,167.0349 92.7026,166.3879 C89.6676263,165.060768 88.6510744,162.718264 89.6732526,159.657628 L89.6732526,159.657628 Z M39.7416,149.4989 C42.6426,146.9389 38.3856,142.7079 35.4986,145.2569 C32.8046,147.6349 30.8066,150.8649 31.3256,154.5799 C31.8546,158.3659 34.7096,161.0389 37.8346,162.9279 C41.1466,164.9309 44.1656,159.7449 40.8626,157.7469 L40.4915497,157.519926 C39.1050722,156.658851 37.4822667,155.4749 37.2476,153.7809 C36.9986,151.9809 38.5216,150.5759 39.7416,149.4989 Z M56.2090224,104.327047 L56.4146,104.1759 C59.5306,101.9519 56.5376,96.7459 53.3856,98.9949 C50.4956,101.0579 48.1776,103.7379 47.9336,107.4339 C47.6966,111.0259 49.5246,114.1399 51.9146,116.6669 C54.5736,119.4779 58.8116,115.2299 56.1576,112.4249 C53.5716208,109.691067 53.0661668,106.707954 56.2090224,104.327047 L56.2090224,104.327047 Z" id="ðŸ–-Ink" fill="#000000"/></g>

        <g id="face" transform="translate(315 248)"><path d="M155.8839,250.9317 C163.4429,249.8797 171.5709,245.5987 178.7909,249.0777 C182.1659,250.7037 183.7679,256.2647 181.4859,259.3557 C178.0009,264.0767 174.4029,264.8577 168.7459,265.3117 C164.5049,265.6517 160.2409,265.6767 156.0109,265.1877 L154.934929,265.056029 C147.387247,264.081793 139.542445,261.975155 133.6949,256.9027 C132.4989,255.8647 133.1119,253.6227 134.6469,253.2987 C141.5909,251.8377 148.8549,251.9107 155.8839,250.9317 Z M146.9873,233.5262 C146.9843,233.4652 147.0773,233.4652 147.0803,233.5262 C147.2633,237.8462 148.4773,241.8512 150.7213,245.5472 C150.7523,245.6002 150.6713,245.6472 150.6403,245.5952 C148.3953,241.8962 147.1703,237.8502 146.9873,233.5262 Z M170.814304,144.367155 C178.365682,148.9572 189.871664,159.660291 181.748119,171.039573 C172.185929,181.073062 158.418535,169.568982 151.634201,164.366134 C145.343449,160.333898 138.275437,170.704507 144.112,175.412823 C193.135736,211.708059 213.030606,145.567387 174.633685,138.970386 C170.406047,138.243425 168.835891,142.947174 170.814304,144.367155 Z M209.464,93.0002 C211.237197,93.0002 212.933146,93.6020668 214.477662,94.7157521 C215.997787,95.8118502 217.37393,97.4115833 218.520105,99.4068237 C220.689089,103.182554 222.045,108.395834 222.045,114.1602 C222.045,119.924566 220.689089,125.137846 218.520105,128.913576 C217.37393,130.908817 215.997787,132.50855 214.477662,133.604648 C212.933146,134.718333 211.237197,135.3202 209.464,135.3202 C207.690803,135.3202 205.994854,134.718333 204.450338,133.604648 C202.930213,132.50855 201.55407,130.908817 200.407895,128.913576 C198.238911,125.137846 196.883,119.924566 196.883,114.1602 C196.883,108.395834 198.238911,103.182554 200.407895,99.4068237 C201.55407,97.4115833 202.930213,95.8118502 204.450338,94.7157521 C205.994854,93.6020668 207.690803,93.0002 209.464,93.0002 Z M127.3467,98.8798 L128.014238,98.7532209 C131.908988,98.044836 133.877121,98.2832737 137.2687,100.9378 C139.8177,102.9328 139.0877,106.8618 137.2687,108.9598 C134.100382,112.615777 131.004648,111.968245 126.664534,112.107728 L126.3597,112.1188 C122.7427,112.2658 119.1227,112.3688 115.5027,112.4238 C114.5127,112.4398 113.5217,112.4358 112.5317,112.4418 C112.6367,121.6028 107.3547,128.5778 100.3987,133.8808 C95.9027,137.3098 90.2157,133.3538 88.6117,129.0858 C87.2847,125.5538 86.9997,121.2108 87.6877,117.3438 C87.9425333,115.918383 88.4738181,114.371126 89.2861757,113.051725 L89.5147,112.6978 L89.4777,112.1918 C89.4687,112.0668 89.4777,111.9458 89.4737,111.8208 C83.0162,111.4284 76.59596,110.78085 70.177988,109.967088 L68.0387,109.6898 C62.5607,108.9648 54.5157,108.7318 50.0827,105.1688 C49.9427,105.0548 49.9927,104.8058 50.1407,104.7268 C52.5776545,103.4143 55.0501442,103.488581 57.7756042,103.367584 L58.1667,103.3488 C61.1307,103.1958 64.08795,103.068112 67.0502625,102.966581 L70.0147,102.8738 C77.5967,102.6568 85.1857,102.2888 92.7607,101.8858 C94.0777,101.8158 95.3947,101.7328 96.7137,101.6518 C98.0927,101.0738 99.5587,100.7278 101.0067,100.6638 C102.2067,100.6098 103.3607,100.7758 104.4457,101.1208 C107.21245,100.90705 109.977513,100.674175 112.740466,100.423862 L115.5027,100.1678 C119.4007,99.7968 123.4987,99.6348 127.3467,98.8798 Z M175.2153,30.2196 C183.5483,26.1246 193.6803,26.0246 202.2623,29.4136 L202.831053,29.6439032 C211.498518,33.2408114 221.942601,41.5490409 219.6813,51.8976 C217.6123,61.3696 202.7553,59.7646 202.0023,50.8116 C197.2053,44.1656 186.4483,42.7076 179.6863,46.9336 C175.5853,49.4976 172.7703,53.8146 170.8463,58.1686 C169.2063,61.8766 168.8973,66.4556 166.3783,69.6856 C166.2963,69.7906 166.1323,69.8096 166.0133,69.7816 C158.5013,68.0436 158.3273,56.1066 159.6083,50.3166 C161.4693,41.8986 167.4423,34.0416 175.2153,30.2196 Z" id="ðŸ–-Ink" fill="#000000"/></g>

        <g id="facial-hair" transform="translate(279 400)"><path d="M258.5298,37.2406 C249.4788,33.0086 239.7508,30.4896 229.7568,29.5966 C225.4348,29.2096 216.9448,27.9886 212.3478,30.8076 C210.1978,32.1276 208.3808,33.9716 206.9398,36.2236 C206.3778,35.4466 205.6378,34.7846 205.1698,33.9446 C202.6528,29.4226 187.2048,29.3286 182.5408,29.7126 C171.4808,30.6226 160.7158,33.2196 150.5778,37.5856 C132.3768,45.4256 117.0868,61.7146 121.8948,82.3946 C122.5748,85.3236 125.8558,86.4626 128.5588,85.9566 C146.7778,82.5416 164.9968,79.1256 183.2168,75.7106 C187.4458,74.9186 191.6758,74.1256 195.9048,73.3326 C199.7298,72.6156 204.4178,72.3886 208.0478,70.7386 C209.5078,71.3626 211.1338,71.7586 212.8698,72.1026 C234.7908,76.4566 256.7398,80.6806 278.6748,84.9696 C281.3048,85.4846 284.7548,84.1506 285.2268,81.2366 C288.3748,61.7926 275.9918,45.4046 258.5298,37.2406" id="ðŸ–-Ink" fill="#000000"/></g>

        <g id="eyewear" transform="translate(203 303)"><path id="accessories" d="M370.267229,94.0812186 C361.087518,105.550169 325.150885,118.280642 306.024457,104.460924 C286.89803,90.6412047 279.339478,81.010236 276.782894,63.7418278 C276.51029,61.9005247 273.181038,60.6757933 271.773574,61.9830996 C263.892542,69.3032997 258.790943,78.6267129 253.736631,87.9739798 C248.036181,98.5161913 242.421537,109.123108 232.062291,116.259689 C213.713905,126.095013 180.520036,127.495741 170.713277,123.157318 C151.927276,114.846558 137.066708,97.0725316 133.687387,72.6128057 C131.395829,65.3796109 129.246349,61.0020129 127.238947,59.4800116 C124.384546,57.3158209 108.631937,55.3878277 106.906249,55.0676312 C75.8071363,49.2972786 36.4749058,45.6190335 8.77600719,65.9200219 C5.02749548,68.1858834 -7.80539205,76.6985178 -7.99790561,74.60536 C-8.12928599,66.4063563 1.16220359,47.8487707 22.2939084,39.0185659 C48.4257396,28.098982 87.2707875,27.4603638 109.774665,29.8701917 C110.906452,29.9913891 114.764588,29.0433611 115.037186,28.9253388 C149.130646,14.1644408 188.359486,18.0847288 224.839489,24.2887991 C230.066858,25.3031978 276.863504,36.8905006 295.477887,29.8701917 C326.25407,17.3061158 359.067147,8.2038606 392.30185,11.7849229 C392.579752,11.8148671 396.775316,37.2812197 393.50699,39.0185659 C390.906064,40.4011413 386.480238,43.9439017 384.907987,45.8827637 C383.502453,47.6160336 382.61672,49.7708648 382.69528,52.7561081 C383.327324,70.0252897 378.399915,83.920401 370.267229,94.0812186 Z M243.72836,78.6720803 C247.630761,73.0270335 248.862219,60.3460528 247.228404,51.0948644 C246.401153,46.4106974 244.794863,42.6821957 242.779067,40.8261969 C241.439156,39.5925037 239.910346,39.0117383 238.243089,39.0979354 C237.328973,39.1451951 236.338477,39.4051824 235.290511,39.9705735 C221.097217,32.2929564 203.902812,29.5286089 187.604096,30.323616 C174.629301,30.3211866 165.372072,33.3837093 159.0944,38.1509351 C151.540713,43.8871592 148.137536,52.1332968 147.940635,61.0762046 C147.706992,71.6878578 152.06617,83.2970102 159.216953,92.4828862 C166.061287,101.275098 175.424043,107.793236 185.581316,109.297105 C197.111926,111.586016 208.862264,109.37159 219.07862,103.95477 C229.556845,98.3991036 238.407944,89.4765185 243.72836,78.6720803 Z M357.507438,84.6585403 C364.084035,76.8869454 368.457047,66.7766474 369.122697,56.7593194 C369.728486,47.6428312 367.287306,38.6124814 360.537606,31.1497224 C354.418516,25.8975011 343.605727,25.8104772 332.231167,28.7352865 C317.523167,32.5172431 302.307464,40.969058 297.23517,46.4275624 C296.040378,47.0540173 294.931407,48.1449237 293.965307,50.4849258 L293.958397,51.3191347 C292.421839,58.4056844 293.333557,65.5970212 295.991544,72.2310611 C298.878802,79.4373326 303.830659,85.9791775 309.868491,90.9705601 C317.890232,97.5784779 326.26399,99.6013328 334.1016,98.5342588 C342.979407,97.325564 351.234778,92.0709712 357.507438,84.6585403 Z" fill="#e279c7"/><path d="M294.4196,27.0634 C325.5846,14.3394 358.8976,5.1684 392.6236,8.8024 C395.4126,7.7414 398.8746,8.6354 400.1106,12.5794 C412.1236,49.1744 385.3346,38.9974 385.6946,52.6774 C388.5026,129.3804 285.4076,142.4794 273.8156,64.1814 L273.6026,64.3074 L273.6026,64.3074 C256.9246,79.8704 253.4116,105.1954 233.7646,118.7304 C194.1316,147.7154 137.9496,124.7504 130.7336,73.1504 L130.576211,72.452332 C128.153961,61.9216159 125.257898,59.3105277 113.3116,59.3624 L111.424306,58.9874342 C80.385228,52.872048 39.05216,47.3766 10.4636,68.4074 C4.2456,72.0234 3.9536,81.3194 -1.3004,85.3584 C-7.0564,86.4764 -10.6024,79.5534 -10.9924,74.7624 C-11.9044,26.9994 73.5656,23.5634 111.8436,27.6624 C112.5746,26.9054 114.1356,26.9994 114.6616,27.9424 C149.2796,12.9544 188.2806,15.0284 225.3466,21.3314 C248.3076,25.7764 270.9856,35.9014 294.4196,27.0634 Z M389.5206,17.6204 C370.8196,16.6854 353.5216,17.7084 335.1656,22.2034 C325.4916,24.5374 318.0676,27.4884 308.8076,31.0374 C251.0496,56.6264 244.3876,11.1414 114.9196,28.9714 C116.5946,36.1454 116.9026,43.2484 116.9926,49.9884 C143.42758,48.92316 137.203668,74.1647841 147.107497,91.894471 L147.4126,92.4294 C161.8466,118.2974 195.9066,130.3634 223.3816,113.2054 C246.3036,99.8454 248.5396,65.9604 271.3616,52.5124 C291.1446,51.7344 283.2426,78.4344 294.0086,89.4084 C309.1626,109.6294 341.3736,112.4564 360.3756,93.4364 C369.2906,84.2844 374.0286,72.6644 374.2906,60.1804 C374.7876,52.2044 373.4196,44.0994 379.4496,38.4894 C383.6766,34.1954 391.1866,35.6284 392.0486,29.1374 C392.5966,25.2994 391.0006,21.1364 389.5206,17.6204 Z M186.28,28.0747 C204.857,27.1597 224.513,30.3857 240.464,39.4967 C252.271,30.1007 255.164,67.4427 247.327,78.2437 C236.036,101.3457 209.749,116.5347 184.438,111.4907 C144.952,105.7687 117.44,28.0057 186.28,28.0747 Z M239.33,42.0007 L238.319634,41.8530365 C221.207242,39.24197 174.61224,27.14534 156.641,46.2377 C139.2,77.9067 183.447,131.1007 229.492,88.7307 C242.307,75.6837 247.274,59.8627 239.33,42.0007 Z M293.5595,46.0482 C302.4215,35.5552 347.5865,14.3012 363.3295,27.9402 C392.0625,60.1412 346.4955,125.2742 308.3295,93.5412 C295.6175,82.9342 287.2545,66.0342 290.9145,49.6692 L290.92013,48.9832 C290.928056,48.7345333 290.9745,48.7912 291.2405,48.4812 C291.7115,47.2442 292.5595,46.4542 293.5595,46.0482 Z M362.9285,65.5652 C372.6185,13.0082 332.1195,32.9882 298.8595,47.0162 C300.6445,48.6472 300.6365,50.8742 300.1235,52.7042 C296.6155,91.7002 344.0125,113.7982 362.9285,65.5652 Z M111.1716,30.2164 C97.2986,34.9144 5.5376,26.5124 -2.9394,69.5264 C6.0086,55.0294 24.5406,49.2764 41.2006,46.1544 C63.8616,41.9074 86.3986,44.3664 108.7416,48.8354 L109.203057,44.2113617 C109.698597,39.3065938 110.221071,34.7182235 111.1716,30.2164 Z" id="ðŸ–-Ink" fill="#000000"/></g>
    </g>
</svg>