<svg xmlns="http://www.w3.org/2000/svg" viewBox="0 0 704 704" fill="none" width="512" height="512">
    <desc>"Open Peeps" by "Pablo Stanley", licensed under "CC0 1.0". / Remix of the original.</desc>
    <mask id="viewbox"><rect width="704" height="704" rx="0" ry="0" x="0" y="0" fill="#ffffff" /></mask>
    <g mask="url(#viewbox)">
        <rect id="background" fill="#d1d4f9" width="704" height="704" x="0" y="0" />

        <g id="body"><path id="skin" d="M705.3 1074a2351.1 2351.1 0 0 1-15.6-101c-1-7.7-2.5-16.4 2.7-22 7.3-8 14-14.8 14.8-26.2.8-10.7-2.8-22.4-5-32.8a809.4 809.4 0 0 0-17.3-64.7c-6.6-21.7-13.9-43.2-21.3-64.6-6.9-20-13.5-40.3-22.5-59.5-17-36.5-46-63.5-81.6-81.6-9-4.5-27-20.5-36.3-24-8.5-3.4-8.5 6.3-16.9 2.6-6.7-2.9-13-6.7-16.7-13.2-4-7-14.3-16.9-15.9-25-3.3-17.4.3-32.2-12-45.3a90 90 0 0 0-41.1-23.8c-33.7-9.3-78.5-2.8-98.8 28.5-9.7 14.9-13 33-26.2 45.1-11.4 10.7-8.8 18-23.6 23.4-.9.3-23.6-4.5-24.4-4.2-16.2-3.5-31.7 6.2-46.5 11.8a325.4 325.4 0 0 0-63 32.3 399.2 399.2 0 0 0-102.3 98.5 482.5 482.5 0 0 0-76.4 161c-1.7 6.4-3.5 13-1.5 19.4 1.7 5.3 5.4 9.2 9.8 12.4 6 4.3 18 7 17.7 15.7-.1 6.6-2.4 13.5-3.5 20-1.3 7.7-2.3 15.5-3.4 23.2-4.8 35.4-8.6 71-10.3 106.6a920 920 0 0 0-.5 106c.1 2.3.8 4.5 2 6.2-1 .4-1.2 2.4.1 2.7l2.7.5a12 12 0 0 0 7 2.4l5.5.2c19.3 4 38.6 7.9 58.1 10.8 23.8 3.5 47.6 6.3 71.5 8.7 49.2 4.8 98 3.2 147.1.6a1877 1877 0 0 1 147.4-2c49.2 1.4 98.4 3.5 147.6 4.4 55 1 110-.5 164.8-5 7.5-.5 12.2-6.5 10.7-14-8.9-44.7-19-89.1-27-134Z" fill="#694d3d"/><path id="shirt" d="m201 597.5 1.2-.4c14.5-5.7 29.6-14.8 45.4-11.4.5-.2 10.8 1.9 17.9 3.2l-6.7 7L247 598c40.7 67.1 88.8 100.7 144.3 100.7 55.5 0 97.7-33.6 126.4-100.7l4-1c.4 0 1 .2 1.5.4 9.3 3.6 27.4 19.6 36.3 24.1 35.6 18 64.5 45 81.6 81.6 8.7 18.6 15.2 38 21.8 57.5l.7 2c7.4 21.4 14.7 43 21.3 64.6 6.3 20.4 12 41 16.6 61.8l.7 2.9c2.2 10.4 5.8 22 5 32.8a29 29 0 0 1-3 10.7l-80.4 29 38.4 261.3c-35.1 1.5-70.3 2-105.5 1.3-49.2-.9-98.4-3-147.6-4.3-47.7-1.2-95.3-.7-143 1.7l-12 .6a946.3 946.3 0 0 1-139.5-1l-3.1-.3v-38.3l16.3-212.9-83-15.6-81.3-39.5a21.7 21.7 0 0 1-5.6-8.8c-1.9-6-.5-12 1-18l.5-1.3a492.8 492.8 0 0 1 76.4-161A399.3 399.3 0 0 1 138 629.7c19.8-13 40.9-23.9 63-32.3Z" fill="#8fa7df"/><path d="M232.2 584.6c5.1-.3 10.3.6 15.4 1 .4.1.6.8 0 .9-9 1.9-18 4.5-26.9 7.1l-3.8 1.2c-10 3-19.8 6-29.6 10-19.4 7.9-37.8 18.5-54.8 30.8C67.2 682.8 20 754.3-9.9 828.3a526 526 0 0 0-24.3 77c-.4 1.6-2 5.4-1 7 .7 1.3 3.6 2.1 5 2.9l4.5 2.3 25.2 12.9 2.3 1.1c38 18.6 78.4 34.4 121 35.5l.4-3.7a342 342 0 0 1 9.9-60c.3-1 1.6-.6 1.7.3 3 23.1 2 46.4 1 69.7-1.8 41-4.3 82.2-6.5 123.3-1.2 20.6-2.6 41-3.9 61.7-1.3 20.5-1.7 41.6-4.7 62-.6 4.6-6 7-10 6.6-4.4-.5-7.9-4.5-8-9 0-11.9 1.5-24 2.4-35.8l2.5-33.8c3.1-41.1 6.8-82.2 10.2-123.3a4771 4771 0 0 1 3.8-43.7C76.4 979.8 34.2 963-6.1 943.5c-.6 13.2-2 26.5-3.4 39.6-3.8 36.8-7.1 73.6-9.6 110.5a2254.2 2254.2 0 0 0-4.2 92.7l-.2 7c0 4.4-.5 8.5-4.3 11.7-3.7 3.3-8.9 3.5-12.6 0-5-4.6-4.2-10.9-4-17.1a1675.6 1675.6 0 0 1 1.8-47.2 1321 1321 0 0 1 10.5-109.5l2-14c3.5-26 7.5-52.7 15.5-77.9-3.1-1.5-6.2-3-9.3-4.7-5.5-2.7-11.2-5.4-16.6-8.4-4.2-2.5-7.9-5.8-9-10.8-1.4-5.5.6-11.5 2-16.9v-.4a502 502 0 0 1 26.6-80 523.2 523.2 0 0 1 67.8-117 353.8 353.8 0 0 1 88.7-83.3 239 239 0 0 1 53.8-25.7 142.6 142.6 0 0 1 42.8-7.5Zm90.1-66c6-6.5 18.1.2 15.2 8.8a108.2 108.2 0 0 1-34.7 52A79.4 79.4 0 0 1 247 598l1.7 2.4a321.1 321.1 0 0 0 46.1 52.6c36 31.2 84.8 48 132 36 37.1-9.4 69.8-38.8 79.4-76.2-1.3.6-3 .9-4.8.5-7.7-1.7-15.3-9.8-20.3-15.6-5.3-6.3-9.5-13-12.6-20.7-5.6-14-7.4-32.1.3-45.7 1-1.7 3-.7 3.3 1l.3 2.5c1.5 12.7 3.3 25 9.3 36.6a76 76 0 0 0 18.2 23.1c2.6 2 5.8 3.6 8.1 6l.5.4c.6-5 4.1-7.3 7.6-7.2 3.3.2 7.3 1.6 8.8 2.3l.1.1a341 341 0 0 1 65.1 42 259 259 0 0 1 88.4 129c7.5 25.3 11.8 51.4 16.3 77.4l2.8 16c4.2 23.9 8.9 48.4 18.4 70.7 2.5 5.7.6 11.1-5.5 13.4A1493 1493 0 0 1 688 953c3.7 16 6 32.5 8.7 48.5 6 34.1 13.2 68 19.4 102 3.2 17.5 6.1 35 9.3 52.3l4.7 25.2 2.4 13.6.1.7c.5 2.4 1 4.9.4 7.3-.8 2.7-2.9 4.6-4.8 6.6-1.6 1.6-3.8 1.6-5.7.7l-.7-.3c-3.4-1.6-6-3.2-7.3-7-.7-2.5-1-5.2-1.5-7.7a3535.6 3535.6 0 0 1-7.8-43.6l-1.6-9.1c-5.2-31.4-10.2-62.9-12.8-94.5-1-14-2.3-28.1-3.5-42.2l-.9-10.5c-1.1-13.3-2.5-27-2.7-40.5l-4.5 1.6L657 964c-5.5 2-12.5 6-18.4 5.2-2.9-.3-5-1.2-6.8-2.9 2 28.8 4.8 57.4 8.5 86a1965.7 1965.7 0 0 0 22 135c.6 3.2 1.4 6.4 1.9 9.6.5 3.7-.5 5.9-2.5 9-1.7 2.4-5 3.7-7.8 2-3.6-2.3-5.5-4.3-6.5-8.4-1-3.7-1.6-7.6-2.3-11.4a1654.2 1654.2 0 0 1-11.4-65.2c-7.8-52-12.7-104.4-15.2-156.8a1388 1388 0 0 1-1.4-77.8c0-13.3.5-26.6 1.4-39.9 1-13.4 3-26.5 4.8-39.8 0-.5.7-.5.7 0 .8 14.9 2.1 29.8 2.8 44.7.6 14.3.9 28.5 1.4 42.8.6 18.7 1.5 37.5 2.7 56.2a9.6 9.6 0 0 1 8.5-3.1c4.7-1 9.7-3.4 14.1-5l16.8-5.5 26.4-8.7a679 679 0 0 1-18-80.8l-2-12.3c-4-24.2-8.5-48.5-15.8-72a229.8 229.8 0 0 0-34.8-68.2 370.2 370.2 0 0 0-52.7-55.3C557 627 539.7 614 523 600c.1.9.2 2 0 3-3.5 25.9-17 50-35.8 67.9-37.7 36-93.6 43.4-142 26.5-46.7-16.3-88-55-102.6-102.8-.3-.8.8-1 1.3-.5l2.4 3.3c0-.4.2-.9.7-1a129 129 0 0 0 46.6-29.2 100.2 100.2 0 0 0 21.3-33.3l.4-1c1.7-5 3.2-10.2 7-14.2Z" fill="#000000"/></g>

        <g id="head" transform="matrix(.99789 0 0 1 156 62)"><path id="skin" d="M242 75.3c56.8 0 115.6 44 136.4 72 24 32.5 43 188.4 34.1 241.3-8.9 53-53.1 110.6-130 110.6-76.7 0-123.5-9.5-125.3-23.2-2-13.8-50.7-90.2-50.7-90.2s-49.9-14-50-47.6c-.3-33.5 26.7-45.7 26.7-45.7s-9.6-132.3 14.5-166.7C122 91.3 185.3 75.3 242 75.3Z" fill="#694d3d"/><path d="M203.8-10.2c7.6-9 21-.4 20.8 9.4 3 .8 6.6 3.6 8 7.4 3-.2 6 .4 8.7 2l.6-.8c9.5-11.5 22-21.4 34.9-13 3.5 2.4 5 6.2 4.3 10.3v.3l.2-1.2-.3 1.7-1 2c13.2-9.4 33.3-3.9 22.7 14.3l4.3-1.7c15-5.8 33.4-12 47-1.6 6.1 5.8-.6 13.6-6.8 15.5l1-.1c12-2 36.7-7 40.2 8.4 1.3 5.6-2.4 9.6-7 11.9 9.8 0 19.6 1.6 28.2 6.4 8.1 5.8 1.5 15.4-7 15 2.6 3.3 3.5 8.8 1 12.3 4.8 1.3 9.3 3 13.4 5.5l1.1.1c8.3 1 17.7 1.7 22.2 9.8 6.7 17.5-17 16.8-27.3 10.7.6 1 1 2 1.3 3.2l3.3.9c12.5 3.5 26.6 7.3 34.6 17.8 3.7 6-1.4 16.3-9 14.4 20.8 10 12.8 36.1-7.6 22.5-1 .9-2.1 1.6-3.3 1.8l4.3 2.4c10.9 6 24 14.1 21.7 27.7-2.1 7.2-12 5.9-17.2 3.1 8.9 7.7 17.2 15.9 24.8 24.8l2.1 2.5c6 7 16.2 20.1 5 27-13.6 6.9-20.5-13.7-28.4-21 6.3 15-14.4 25.4-21.6 10.3-1.2.2-2.5.2-3.7 0 6.3 6.7 23.1 52 2.2 42a85.2 85.2 0 0 1-9-11.5c3.4 26 5.8 52 7.4 78l.6 9.5c.6 9.8 1 19.6 0 29.4a99.5 99.5 0 0 1-9.6 32.3 128.2 128.2 0 0 1-17.2 26.4 59.5 59.5 0 0 1-12 11.7c-3.8 2.6-8.2 4.2-12.4 5.8a88.3 88.3 0 0 1-24.2 16.2 143.7 143.7 0 0 1-45 12.4c-16 1.9-32 1.4-47.7-1.3-15-2.6-31.2-9.2-40.5-22-.8-1 .7-2 1.7-1.6a156.4 156.4 0 0 0 126 .3c10.6-5 19.5-12.1 29-18.7 1.8-2.4 3.7-4.8 5.8-7l3.3-3.5a106.3 106.3 0 0 0 23.3-37.4c7.2-20.4 5.3-42.6 4-63.9l-.1-1.8a934.5 934.5 0 0 0-10.6-96.2c-2.4-4-5-7.8-7.9-11.3 2.4 9.1-5.8 21.8-15.8 15.8-11.4-9.8-10.9-25.6-20.5-37.6-9.9-15.3-78.5-45.2-99-49.4 3.4 4.8 9.4 8.1 10.8 13.8 25 22.1-15.8 34-28.6 2.3.3 10.5 1.4 21 3.7 31.2 3.4 9.5 6 36.8-11 28.5-8.2 2.4-14.4-4.6-15.4-12.4-6 17.7-.4 46.1-11.2 59.2-3.3 3.4-8.5 1.1-10.2-2.8-10-2.6-9.1-14.3-10.4-22.6-9 33.3-20.5 56.4-22.1 91.2 7 10-8.4 17.4-15.1 9.4-9.3-13.5-.7-32 1.5-46.8-2.7 0-5.3-1.3-7.4-3.8-1.2 4.6-.5 10.7-.1 15.8-6 23.1-28.5 8.3-27.5-10.5-1 5.3-1.8 10.7-2.2 16 4.3 5 7.5 11 9.5 17.4 1.3 4.6-3.3 7.4-7 6.7-1.8 6.5-10 11.1-15.4 5-5.4-5.5-6.3-13.3-6.7-21a4 4 0 0 1-1.2-3.1 7 7 0 0 1 .9-3l-.4-4.7c-4.2 12.9-1.5 26.3-1.1 39.5a82.3 82.3 0 0 0 24 7.6l1.2.3c2.6.5 3.5 4.4 1.5 6 5.2 5 9.7 11.2 14 16.7 5.8 7.5 11.4 15.2 16.8 22.9l3.2 4.5c9.2 13.2 22 31 16.3 47.3-.8 2.2-4 3-5.3.7-4.2-7.7-6.5-16.2-10.5-24-3.9-7.6-8.7-14.7-13.5-21.8l-2.8-4c-4.6-7-9.2-13.8-13.4-21l-3-4.8a109 109 0 0 1-7.5-14.3c-7.3 1.7-14.9.5-21.8-2.6l-.1.5-.2.9c-1 4.2-6.8 7-10.5 4.3a36.3 36.3 0 0 1-13.4-27.2c-1.7-3-3.3-6.2-4.5-9.4-.6 6.5-3 12.8-10.9 12.6-13.4-1-14.8-13.8-11.1-26.5-16 5-17.8-17.7-12.8-29.5a8.4 8.4 0 0 1-4.6-3.2l-.8 1.4c-3 5.3-6.6 10.5-11.4 13.3-6.8 3.8-16.6-1-16.2-9.4 1.5-13.9 13.6-24.4 21-35.5-1.4.2-2.7.2-4 0-14.8 8.2-21.8-11.2-16.6-22.4a79.5 79.5 0 0 1 18-26.4L3.5 232c-4 2.3-8.3 4.5-12.6 3.6-28 18.5-37.3-12.5-5.8-22.2v-.2c-3.1-3-4.5-7.8-2-12.7-11.6 4-28.1-5-18-17.6a62.9 62.9 0 0 1 23.3-14.5c-.5-2.3-.6-4.6-.4-7h-.6c-5.4.9-12.2 3.1-15.6-2.8-1.7-3-1.5-7.9 1.3-10.2 9.7-8 20.7-14.6 32.7-17.3l1.4-4.3c-10.2-.2-21.7-13.8-10-21.5A67 67 0 0 1 30 96.9c-6.8-6.7-2.8-19 6.3-20.8-6-12.7 8.8-19.3 19.8-17.2-.4-5.7 2.6-12 8.4-13.4-3-17.8 15.8-16.1 27.7-12-4-6.8 0-14.9 7-17.3 11.5-2.6 22.5 8.3 31.2 15-3-7-.5-13.4 6.6-16.2 7.3-2.8 15.2 2.7 21.2 6.4 3.4-4.1 9-5.5 14-5.2.6-1.6 1.4-2.9 2.4-4 0-9.5 16.4-14.8 22-5.9a34 34 0 0 1 7.3-16.5Zm204.8 174.5.2 1 .7.7 2.1.5-3-2.2Zm12.7-25.3-.3.3v.2l1.8.7.9.4.3.1c-1-.5-1.8-1.1-2.7-1.7ZM273.9 12l-.6.1-.5.1h-.2.2l-.9.7h.8l1.2-1Z" fill="#000"/></g>

        <g id="face" transform="translate(315 248)"><path d="M177.5335,205.3371 C180.9645,199.2831 191.2025,200.2671 192.7675,207.3281 C195.9425,221.6421 178.8735,234.8601 165.9095,235.1901 C153.0265,235.5171 138.5715,224.5521 140.4365,210.7021 C140.8975,207.2761 145.4735,207.6921 147.0335,209.8401 L147.639154,210.664134 C151.876221,216.356303 157.466992,222.247946 165.3305,220.8601 C168.5895,220.2861 171.5495,218.2501 173.5195,215.6291 C175.8955,212.4661 175.6345,208.6891 177.5335,205.3371 Z M95.6148,100.6165 C97.3608,100.1355 99.1228,100.3215 100.6698,100.9795 C104.1238,101.6125 107.0088,104.4925 108.0228,107.7805 C108.1028,108.065167 108.192133,108.346278 108.290504,108.624426 L108.4448,109.0395 L108.0308,107.9855 C108.2218,109.0235 109.0668,110.1145 109.3708,111.1565 C109.7448,112.4375 109.8358,113.8925 109.7098,115.3025 C110.8078,115.3135 111.9058,115.3505 113.0018,115.4455 L114.060904,115.540412 C119.98388,116.090875 126.486479,117.100575 129.9978,122.2185 C131.9698,125.0945 130.1188,130.2725 126.4958,130.8265 C120.9188,131.6795 116.1148,128.5935 110.5568,127.9755 C105.3028,127.3905 99.8048,127.7255 94.6188,128.6745 C83.91192,130.63194 74.0731872,134.971716 63.6392483,137.694821 L62.2188,138.0555 L62.2188,138.0555 L62.2208,138.0485 C60.4328,138.4805 58.4028,135.9945 60.1718,134.5405 C68.5308,127.6735 79.2328,122.1085 89.7758,118.7195 C88.2398,116.2765 87.7648,113.0585 88.8148,110.4355 C88.9774,109.8919 89.17924,109.36342 89.392024,108.836452 L89.8358,107.7525 L89.8358,107.7525 C89.8788,107.2415 89.9768,106.7365 90.1188,106.2415 L90.1418,106.0905 L90.1418,106.0905 L90.1548,106.0995 L90.1548,106.0995 C90.9398,103.5485 92.9898,101.3405 95.6148,100.6165 Z M202.2598,101.0113 C204.546011,98.7241158 207.758477,99.0621123 210.144209,100.862169 L210.4608,101.1103 L210.4608,101.1103 C212.7098,102.1093 214.5708,104.2923 215.7928,106.3153 C217.0618,108.4163 217.9048,110.5563 217.9378,112.8693 C223.4718,112.8873 228.7728,114.5473 232.8358,119.0153 C234.1478,120.4573 235.0438,122.6813 234.3218,124.6363 L233.8918,125.7993 L233.8918,125.7993 C232.527456,129.491691 226.393723,131.617218 224.308978,127.274981 L224.2128,127.0633 C221.9978,121.9073 213.4948,122.4483 208.9758,122.9753 C205.8258,123.3443 202.7148,124.1273 199.6728,125.0043 C198.60105,125.3133 197.538863,125.648737 196.4778,125.991206 L195.4168,126.3353 C194.8508,126.5183 191.9028,128.1193 193.7368,127.7403 C194.2298,127.6383 194.6008,128.3563 194.0978,128.5973 C191.9118,129.6423 189.5798,127.5613 189.7258,125.2133 C189.97864,121.13748 196.45103,118.902747 199.565401,117.497319 L199.7518,117.4123 C200.9458,116.8603 202.1968,116.3313 203.4878,115.8403 C202.7618,114.7603 202.1618,113.5603 201.6628,112.2723 C201.1908,111.0563 200.8758,109.8743 200.7028,108.5813 C200.5328,107.9493 200.5328,107.3173 200.7028,106.6843 L200.7288,106.5033 L200.7288,106.5033 C200.6408,106.0853 200.5988,105.6533 200.6048,105.2183 L200.5868,105.0493 L200.6048,105.0493 C200.6658,103.5263 201.2708,102.0003 202.2598,101.0113 Z M165.7316,144.4161 C174.5146,147.1301 189.0046,154.5231 184.4276,165.9341 C178.0366,176.4141 161.0876,168.7121 152.8746,165.3261 C145.4956,162.8821 141.6536,173.2231 148.7886,176.3401 C207.7476,199.6651 207.5306,138.1061 167.8696,139.0101 C163.5026,139.1091 163.3656,143.5141 165.7316,144.4161 Z M87.7267006,64.1488907 L89.2249,63.7117 C97.0099,61.4567 104.9569,57.5627 111.8689,63.6387 C114.5829,66.0247 115.1419,70.9827 113.1999,73.9587 C108.7759,80.7397 102.2149,79.7037 95.0699,80.2817 C89.6299,80.7217 84.2709,82.3197 79.1929,84.3167 C75.0429,85.9497 71.1939,88.2487 67.5599,90.8127 C63.9899,93.3337 61.5509,97.2747 57.8889,99.5437 C56.5469,100.3757 54.9969,99.5197 54.5149,98.1707 C52.8069,93.3857 55.6929,87.4247 58.1349,83.3477 C61.1159,78.3737 65.6439,74.3057 70.5129,71.2277 C75.8445923,67.8566231 81.7403556,65.9102089 87.7267006,64.1488907 L87.7267006,64.1488907 Z M201.1644,59.0001967 C214.3234,58.9962 226.9854,66.3152 234.3454,77.0442 C236.8464,80.6892 235.0134,86.0892 231.4234,88.1882 C227.395949,90.5440824 223.089759,88.8476771 220.435649,85.471752 L220.2784,85.2672 C216.0574,79.6462 210.6164,75.2192 204.1664,72.3372 C201.0194,70.9302 197.5394,69.7892 194.1354,69.2102 L193.035296,69.021688 C191.49344,68.76332 189.7048,68.5166 188.3104,68.7582 C187.5634,68.8562 186.8774,69.1032 186.2454,69.4792 C186.5494,70.1432 185.7644,70.9432 185.0394,70.5452 C181.7694,68.7492 182.1704,65.5452 184.8714,63.0552 C188.6924,59.5322 196.2294,59.0012 201.1644,59.0001967 Z" id="ðŸ–-Ink" fill="#000000"/></g>

        <g id="facial-hair" transform="translate(279 400)"><path d="M229.9448,33.9998 C241.6588,34.8308 252.7388,42.0988 262.8158,47.7168 C272.51397,53.5108426 279.691907,62.0952464 285.425881,71.6662255 L285.7978,72.2918 C286.1341,72.79055 285.534508,73.3515725 285.041591,73.1612186 L284.9648,73.1248 C275.4478,68.3498 265.4058,64.4798 256.0618,59.2708 C246.9378,53.6298 235.7338,51.7018 226.5408,46.5708 C221.2868,42.6758 222.8638,34.3008 229.9448,33.9998 Z M199.4764,39.6831 C199.9034,42.3551 198.8244,46.5961 195.3164,47.8351 C189.153275,50.0091625 183.540345,51.1812719 177.34959,52.8774291 L169.32497,55.1248967 C153.910423,59.4668903 138.264477,64.1279974 124.6174,70.9681 L124.1894,70.7801 C114.2764,64.5781 169.0404,38.7041 187.9494,34.5821 C191.4234,33.8241 198.8314,35.6511 199.4764,39.6831 Z" id="ðŸ–-Ink" fill="#000000"/></g>

        <g id="eyewear" transform="translate(203 303)"><path d="M372.3111,95.4577 C360.1701,108.0027 339.9021,111.6027 323.7491,104.8747 C282.2731,87.5457 302.5741,33.4957 334.5611,18.9807 C338.5571,17.9847 343.8941,15.6217 348.7611,15.0857 C349.2011,14.8697 350.1591,15.4947 351.3201,14.9037 C386.5911,18.8417 394.6231,73.5937 372.3111,95.4577 M238.5331,98.6687 C224.9161,116.7297 199.6001,122.3017 178.9161,113.9057 C138.0541,97.8137 152.5471,49.8847 180.5041,31.0947 C239.5611,8.9037 263.9481,65.3677 238.5331,98.6687 M149.9531,58.6507 C149.9151,58.6327 149.8771,58.6237 149.8381,58.6057 C150.0541,58.5107 150.2701,58.4157 150.4851,58.3187 C150.4151,58.5017 150.3391,58.6827 150.2711,58.8657 C150.1651,58.7927 150.0721,58.7077 149.9531,58.6507 M400.4231,39.1277 C397.0891,39.1347 392.2731,39.6827 389.5131,41.9957 C382.7071,19.0427 357.5851,-2.2003 335.7371,13.2897 C318.5321,18.8227 305.7651,31.0937 298.5091,47.4077 C285.4261,39.6257 264.8541,42.9487 253.5091,53.2397 C246.0791,28.6887 227.7931,20.0917 206.0281,18.8227 C182.2721,14.9317 158.5941,38.0027 151.2061,56.5107 C145.0631,55.8117 135.8841,53.8567 130.1051,57.6477 C92.5981,47.8117 27.0231,42.3887 19.3981,47.8537 C13.9641,49.9387 10.9821,62.7647 18.5721,63.4567 C25.1861,62.5177 17.8001,54.0587 24.4671,53.1357 C59.9901,50.9337 94.4751,58.0877 129.6221,61.0897 C132.7601,65.3107 142.8991,66.7227 148.3081,65.0267 C139.7891,96.4227 158.1791,117.7827 185.7341,124.1807 C228.4011,133.9817 265.5221,95.8137 254.3651,56.1137 C267.2901,49.6837 282.1571,49.9597 296.2371,53.3467 C272.7091,139.9367 412.1661,136.0517 390.3851,44.9627 C404.8801,52.1727 408.0281,40.5827 400.4231,39.1277" id="ðŸ–-Ink" fill="#000000"/></g>
    </g>
</svg>