<svg xmlns="http://www.w3.org/2000/svg" viewBox="0 0 704 704" fill="none" width="512" height="512">
    <desc>"Open Peeps" by "Pablo Stanley", licensed under "CC0 1.0". / Remix of the original.</desc>
    <mask id="viewbox"><rect width="704" height="704" rx="0" ry="0" x="0" y="0" fill="#ffffff" /></mask>
    <g mask="url(#viewbox)">
        <rect id="background" fill="#ffd5dc" width="704" height="704" x="0" y="0" />

        <g id="body"><path id="skin" d="M705.3 1074a2351.1 2351.1 0 0 1-15.6-101c-1-7.7-2.5-16.4 2.7-22 7.3-8 14-14.8 14.8-26.2.8-10.7-2.8-22.4-5-32.8a809.4 809.4 0 0 0-17.3-64.7c-6.6-21.7-13.9-43.2-21.3-64.6-6.9-20-13.5-40.3-22.5-59.5-17-36.5-46-63.5-81.6-81.6-9-4.5-27-20.5-36.3-24-8.5-3.4-8.5 6.3-16.9 2.6-6.7-2.9-13-6.7-16.7-13.2-4-7-14.3-16.9-15.9-25-3.3-17.4.3-32.2-12-45.3a90 90 0 0 0-41.1-23.8c-33.7-9.3-78.5-2.8-98.8 28.5-9.7 14.9-13 33-26.2 45.1-11.4 10.7-8.8 18-23.6 23.4-.9.3-23.6-4.5-24.4-4.2-16.2-3.5-31.7 6.2-46.5 11.8a325.4 325.4 0 0 0-63 32.3 399.2 399.2 0 0 0-102.3 98.5 482.5 482.5 0 0 0-76.4 161c-1.7 6.4-3.5 13-1.5 19.4 1.7 5.3 5.4 9.2 9.8 12.4 6 4.3 18 7 17.7 15.7-.1 6.6-2.4 13.5-3.5 20-1.3 7.7-2.3 15.5-3.4 23.2-4.8 35.4-8.6 71-10.3 106.6a920 920 0 0 0-.5 106c.1 2.3.8 4.5 2 6.2-1 .4-1.2 2.4.1 2.7l2.7.5a12 12 0 0 0 7 2.4l5.5.2c19.3 4 38.6 7.9 58.1 10.8 23.8 3.5 47.6 6.3 71.5 8.7 49.2 4.8 98 3.2 147.1.6a1877 1877 0 0 1 147.4-2c49.2 1.4 98.4 3.5 147.6 4.4 55 1 110-.5 164.8-5 7.5-.5 12.2-6.5 10.7-14-8.9-44.7-19-89.1-27-134Z" fill="#ae5d29"/><path id="shirt" d="m201 597.5 1.2-.4c14.5-5.7 29.6-14.8 45.4-11.4.5-.2 10.8 1.9 17.9 3.2l-6.7 7L247 598c40.7 67.1 88.8 100.7 144.3 100.7 55.5 0 97.7-33.6 126.4-100.7l4-1c.4 0 1 .2 1.5.4 9.3 3.6 27.4 19.6 36.3 24.1 35.6 18 64.5 45 81.6 81.6 8.7 18.6 15.2 38 21.8 57.5l.7 2c7.4 21.4 14.7 43 21.3 64.6 6.3 20.4 12 41 16.6 61.8l.7 2.9c2.2 10.4 5.8 22 5 32.8a29 29 0 0 1-3 10.7l-80.4 29 38.4 261.3c-35.1 1.5-70.3 2-105.5 1.3-49.2-.9-98.4-3-147.6-4.3-47.7-1.2-95.3-.7-143 1.7l-12 .6a946.3 946.3 0 0 1-139.5-1l-3.1-.3v-38.3l16.3-212.9-83-15.6-81.3-39.5a21.7 21.7 0 0 1-5.6-8.8c-1.9-6-.5-12 1-18l.5-1.3a492.8 492.8 0 0 1 76.4-161A399.3 399.3 0 0 1 138 629.7c19.8-13 40.9-23.9 63-32.3Z" fill="#9ddadb"/><path d="M232.2 584.6c5.1-.3 10.3.6 15.4 1 .4.1.6.8 0 .9-9 1.9-18 4.5-26.9 7.1l-3.8 1.2c-10 3-19.8 6-29.6 10-19.4 7.9-37.8 18.5-54.8 30.8C67.2 682.8 20 754.3-9.9 828.3a526 526 0 0 0-24.3 77c-.4 1.6-2 5.4-1 7 .7 1.3 3.6 2.1 5 2.9l4.5 2.3 25.2 12.9 2.3 1.1c38 18.6 78.4 34.4 121 35.5l.4-3.7a342 342 0 0 1 9.9-60c.3-1 1.6-.6 1.7.3 3 23.1 2 46.4 1 69.7-1.8 41-4.3 82.2-6.5 123.3-1.2 20.6-2.6 41-3.9 61.7-1.3 20.5-1.7 41.6-4.7 62-.6 4.6-6 7-10 6.6-4.4-.5-7.9-4.5-8-9 0-11.9 1.5-24 2.4-35.8l2.5-33.8c3.1-41.1 6.8-82.2 10.2-123.3a4771 4771 0 0 1 3.8-43.7C76.4 979.8 34.2 963-6.1 943.5c-.6 13.2-2 26.5-3.4 39.6-3.8 36.8-7.1 73.6-9.6 110.5a2254.2 2254.2 0 0 0-4.2 92.7l-.2 7c0 4.4-.5 8.5-4.3 11.7-3.7 3.3-8.9 3.5-12.6 0-5-4.6-4.2-10.9-4-17.1a1675.6 1675.6 0 0 1 1.8-47.2 1321 1321 0 0 1 10.5-109.5l2-14c3.5-26 7.5-52.7 15.5-77.9-3.1-1.5-6.2-3-9.3-4.7-5.5-2.7-11.2-5.4-16.6-8.4-4.2-2.5-7.9-5.8-9-10.8-1.4-5.5.6-11.5 2-16.9v-.4a502 502 0 0 1 26.6-80 523.2 523.2 0 0 1 67.8-117 353.8 353.8 0 0 1 88.7-83.3 239 239 0 0 1 53.8-25.7 142.6 142.6 0 0 1 42.8-7.5Zm90.1-66c6-6.5 18.1.2 15.2 8.8a108.2 108.2 0 0 1-34.7 52A79.4 79.4 0 0 1 247 598l1.7 2.4a321.1 321.1 0 0 0 46.1 52.6c36 31.2 84.8 48 132 36 37.1-9.4 69.8-38.8 79.4-76.2-1.3.6-3 .9-4.8.5-7.7-1.7-15.3-9.8-20.3-15.6-5.3-6.3-9.5-13-12.6-20.7-5.6-14-7.4-32.1.3-45.7 1-1.7 3-.7 3.3 1l.3 2.5c1.5 12.7 3.3 25 9.3 36.6a76 76 0 0 0 18.2 23.1c2.6 2 5.8 3.6 8.1 6l.5.4c.6-5 4.1-7.3 7.6-7.2 3.3.2 7.3 1.6 8.8 2.3l.1.1a341 341 0 0 1 65.1 42 259 259 0 0 1 88.4 129c7.5 25.3 11.8 51.4 16.3 77.4l2.8 16c4.2 23.9 8.9 48.4 18.4 70.7 2.5 5.7.6 11.1-5.5 13.4A1493 1493 0 0 1 688 953c3.7 16 6 32.5 8.7 48.5 6 34.1 13.2 68 19.4 102 3.2 17.5 6.1 35 9.3 52.3l4.7 25.2 2.4 13.6.1.7c.5 2.4 1 4.9.4 7.3-.8 2.7-2.9 4.6-4.8 6.6-1.6 1.6-3.8 1.6-5.7.7l-.7-.3c-3.4-1.6-6-3.2-7.3-7-.7-2.5-1-5.2-1.5-7.7a3535.6 3535.6 0 0 1-7.8-43.6l-1.6-9.1c-5.2-31.4-10.2-62.9-12.8-94.5-1-14-2.3-28.1-3.5-42.2l-.9-10.5c-1.1-13.3-2.5-27-2.7-40.5l-4.5 1.6L657 964c-5.5 2-12.5 6-18.4 5.2-2.9-.3-5-1.2-6.8-2.9 2 28.8 4.8 57.4 8.5 86a1965.7 1965.7 0 0 0 22 135c.6 3.2 1.4 6.4 1.9 9.6.5 3.7-.5 5.9-2.5 9-1.7 2.4-5 3.7-7.8 2-3.6-2.3-5.5-4.3-6.5-8.4-1-3.7-1.6-7.6-2.3-11.4a1654.2 1654.2 0 0 1-11.4-65.2c-7.8-52-12.7-104.4-15.2-156.8a1388 1388 0 0 1-1.4-77.8c0-13.3.5-26.6 1.4-39.9 1-13.4 3-26.5 4.8-39.8 0-.5.7-.5.7 0 .8 14.9 2.1 29.8 2.8 44.7.6 14.3.9 28.5 1.4 42.8.6 18.7 1.5 37.5 2.7 56.2a9.6 9.6 0 0 1 8.5-3.1c4.7-1 9.7-3.4 14.1-5l16.8-5.5 26.4-8.7a679 679 0 0 1-18-80.8l-2-12.3c-4-24.2-8.5-48.5-15.8-72a229.8 229.8 0 0 0-34.8-68.2 370.2 370.2 0 0 0-52.7-55.3C557 627 539.7 614 523 600c.1.9.2 2 0 3-3.5 25.9-17 50-35.8 67.9-37.7 36-93.6 43.4-142 26.5-46.7-16.3-88-55-102.6-102.8-.3-.8.8-1 1.3-.5l2.4 3.3c0-.4.2-.9.7-1a129 129 0 0 0 46.6-29.2 100.2 100.2 0 0 0 21.3-33.3l.4-1c1.7-5 3.2-10.2 7-14.2Z" fill="#000000"/></g>

        <g id="head" transform="matrix(.99789 0 0 1 156 62)"><path id="skin" d="M297.60207,145.1631 C182.512269,140.9631 72.5396269,218.3121 35.5126119,327.6411 C32.8221984,336.2171 41.1949165,344.2281 49.6432527,342.7781 C41.0028862,386.2841 59.8865246,444.8441 109.075124,451.0161 C119.150245,452.2871 129.2781,451.5551 139.367151,452.4801 C148.359738,453.3041 197.315514,480.8441 215.647936,487.2961 C254.243032,500.7781 351.364433,498.3091 389.999328,487.2961 C391.406223,490.4961 421.410841,367.4501 428.243337,329.3001 C430.734983,312.770703 407.96731,300.533226 409.646189,283.50001 C411.802769,261.620212 437.395394,234.943114 429.554715,214.1131 C408.887085,161.0971 348.905988,146.3041 297.60207,145.1631 Z" fill="#ae5d29"/><path d="M240.4447,48.7877 C245.6147,49.2177 250.8147,49.9477 255.9247,50.9077 C271.4547,48.3677 287.5247,51.1877 302.5847,56.0777 C337.8547,67.5277 371.8047,87.4077 398.3847,113.3577 C412.0647,126.7177 423.2547,142.1077 430.1447,160.0077 C433.6447,169.0877 435.6147,178.7777 436.1847,188.4877 L436.248051,189.664413 C436.407996,192.886021 436.480589,196.749033 436.0957,200.5757 C437.3267,208.3007 438.4237,216.0887 438.5067,223.9017 C438.5457,227.5207 438.3107,231.1337 437.8707,234.7227 L438.0217,235.0637 L438.0217,235.0637 C437.3837,239.3487 436.6217,243.6157 435.7537,247.8607 L435.5367,248.1417 C435.4177,249.0047 435.2807,249.8657 435.1517,250.7267 C434.6797,252.9087 434.1867,255.0857 433.6637,257.2547 C432.5317,261.9517 431.2787,266.6177 429.9287,271.2557 C429.6927,272.0687 429.9197,272.7097 430.3627,273.1307 C429.3787,276.6607 428.3037,280.1647 427.1117,283.6307 C427.6967,286.6637 428.2877,289.6957 428.9147,292.7177 C432.1847,308.4377 434.9547,324.2577 438.6747,339.8877 C446.2147,371.6077 457.6747,402.8177 460.8247,435.4277 C463.2747,460.7177 459.2047,488.3677 443.4847,509.0277 C429.9347,526.8277 409.5547,537.3377 387.5447,540.1377 C377.0147,541.4877 366.2147,540.8677 355.9147,538.2077 L354.792469,537.911761 C349.632679,536.522837 343.069528,534.34839 338.2747,530.8477 C333.0747,529.0177 328.1647,525.6377 325.2047,522.3377 C321.1647,517.8277 316.7547,510.1177 317.8547,503.7077 C311.8447,504.1977 305.7947,504.3377 299.8447,504.3177 C285.1847,504.2877 270.3947,503.1277 256.2947,498.8677 C243.7147,495.0677 229.0547,488.7177 221.6147,477.2577 C221.2647,476.7177 221.8447,475.9377 222.4547,476.1477 C228.4647,478.2577 234.0847,481.1077 240.2847,482.7177 C246.3847,484.2977 252.4847,485.7877 258.7747,486.4377 C271.0723,487.7049 283.55422,487.534404 295.893108,486.925964 L300.128567,486.706027 C313.331436,485.998556 326.976615,484.990679 339.3247,480.0477 C344.1697,478.1097 348.6537,475.404575 352.742405,472.189537 L353.3847,471.6777 C355.5747,469.8977 357.8347,468.3977 360.1347,466.9777 C360.4647,466.5577 360.7947,466.1377 361.1247,465.7077 C366.3547,458.9977 371.9747,452.5277 376.6847,445.4377 C386.0447,431.3677 389.6547,416.7477 390.1447,399.9677 C390.6577,382.2557 390.7171,364.5194 390.92797,346.80254 L391.0047,340.8977 C391.2747,320.6377 391.3147,300.3077 392.8747,280.0977 C393.593367,270.708367 394.616922,261.362589 396.189278,252.084758 L396.5347,250.0977 L399.0747,235.7877 C399.6857,232.3407 400.0427,228.7887 400.8237,225.3567 C399.9457,223.9167 398.9307,222.5307 397.7537,221.2107 C396.6687,219.9937 395.5667,218.8127 394.4667,217.6397 L393.673969,216.939921 C391.861837,215.322794 390.305187,213.779551 388.845958,211.555076 L388.4937,211.0047 L388.4937,211.0047 C386.9267,209.1137 385.4487,207.1357 384.1427,204.9627 L383.9017,204.5407 L383.9017,204.5407 C383.5757,204.1317 383.2517,203.7217 382.9147,203.3177 C381.8677,202.0587 380.7697,200.8697 379.6347,199.7307 C375.6537,207.4207 370.0227,214.0817 362.0507,218.2457 C359.1677,219.7517 355.6507,218.4617 354.7057,215.2577 C352.3207,207.1697 348.6987,199.6487 343.9057,192.8377 C335.9027,206.1557 323.2127,216.5727 308.2577,221.6557 C304.5207,222.9257 301.2297,219.0057 302.1077,215.5047 C304.8057,204.7437 305.3427,193.8007 303.7577,182.9827 C298.1127,187.0167 292.2907,190.8157 286.3127,194.3377 C273.0097,204.6207 258.9147,213.8747 243.4107,220.5197 C239.8287,222.0557 234.4377,219.4747 236.0657,214.8737 C237.436271,210.9997 238.562828,207.061032 239.284437,203.016061 L239.4437,202.0807 C239.4487,202.0527 239.4507,202.0247 239.4547,201.9957 C203.54839,251.52738 116.473999,299.258616 109.790488,299.718287 L109.6087,299.7197 L109.6087,299.7197 C113.7827,303.7067 117.1517,308.6327 119.3557,314.2937 C121.670265,320.239363 112.231563,322.828208 109.790611,317.143124 L109.7127,316.9527 C105.9577,307.3067 96.6697,300.3927 86.5647,298.7577 C80.4567,299.8667 74.6837,302.8117 70.7447,307.2777 C62.9947,316.0677 62.9247,326.6677 68.2147,336.6677 L68.9908227,338.124743 C71.8547694,343.466936 74.8713667,348.821033 76.4847,354.6877 C78.4547,361.8877 76.9647,369.1877 78.2547,376.3777 L78.324799,376.758907 C78.9363716,379.955866 80.2570077,383.5927 84.0647,382.7177 C84.3587,382.6497 84.6427,382.5587 84.9257,382.4617 C85.7287,383.1017 86.6947,383.6307 87.8987,383.9817 C90.8467,384.8407 94.1037,384.4237 97.0377,383.7297 C99.8717,383.0597 102.6237,382.0087 105.2727,380.7787 C105.5657,381.5027 105.7467,382.2597 105.7647,382.9877 C105.8547,386.7077 104.3147,389.7677 101.9447,392.2577 C105.7247,397.0377 108.9547,402.2977 112.5947,407.1777 C117.8247,414.1777 123.1747,421.0277 128.8647,427.6577 C134.7847,434.5677 141.2347,441.0977 147.9247,447.2677 C152.6147,451.5877 160.3647,456.2077 163.3047,462.4777 C166.6847,463.5277 169.5547,466.1177 170.6047,470.3777 C172.5147,478.0977 173.0747,496.1877 171.5747,504.0377 C170.0847,511.8177 164.4047,516.6677 158.1247,520.7677 C156.3847,521.9077 154.4147,521.7877 152.8147,520.9377 C151.4047,522.3077 149.8147,523.5677 147.9947,524.6877 C141.2747,528.8377 133.4647,530.3477 125.7247,531.2177 C115.2747,534.5577 104.0047,535.4377 92.8647,533.3577 C89.2247,533.7877 85.5847,534.1777 81.9347,534.4977 C44.5947,537.7477 6.6347,534.9777 -29.7853,526.0877 C-46.4953,522.0077 -62.2743,514.5927 -76.9753,505.0677 C-102.3133,488.6507 -113.0373,442.5707 -98.3353,398.5177 L-97.1711884,395.043982 C-90.5462167,375.364354 -83.4019667,355.7877 -73.8253,337.4277 L-72.6819341,335.243602 C-63.8792931,318.497908 -54.1961333,301.7702 -41.3353,287.7977 C-34.8953,280.8077 -27.4153,274.4577 -18.9653,270.0177 C-15.7573,268.3337 -12.0123,267.1657 -8.3523,265.8407 L-8.27755,264.924825 L-8.27755,264.924825 L-8.1983,264.0097 C-7.9573,261.0757 -7.6503,258.1467 -7.2543,255.2247 C-5.7763,244.2967 -3.6903,233.5297 -0.7273,222.8987 C2.2397,212.2537 5.8877,201.7877 10.2767,191.6437 C17.5987,174.7197 26.7947,158.6657 37.4097,143.6017 C38.1677,142.0457 38.9367,140.4957 39.7247,138.9577 C48.6747,121.4677 60.2647,104.7877 75.2147,91.8777 C92.3747,77.0577 113.0447,67.8577 134.6147,61.3977 C156.9847,54.7077 180.3247,50.1277 203.6347,48.5877 C215.9047,47.7777 228.1947,47.7677 240.4447,48.7877 Z M76.8448,329.7682 C88.0748,322.4182 103.3748,327.4572 109.0648,339.3982 C113.1748,348.0482 99.5848,352.9182 97.4348,344.2982 C95.2948,335.6582 86.1048,329.4682 77.2748,330.7882 C76.6648,330.8882 76.2848,330.1282 76.8448,329.7682 Z" id="ðŸ–-Ink" fill="#000000"/></g>

        <g id="face" transform="translate(315 248)"><path d="M177.5335,205.3371 C180.9645,199.2831 191.2025,200.2671 192.7675,207.3281 C195.9425,221.6421 178.8735,234.8601 165.9095,235.1901 C153.0265,235.5171 138.5715,224.5521 140.4365,210.7021 C140.8975,207.2761 145.4735,207.6921 147.0335,209.8401 L147.639154,210.664134 C151.876221,216.356303 157.466992,222.247946 165.3305,220.8601 C168.5895,220.2861 171.5495,218.2501 173.5195,215.6291 C175.8955,212.4661 175.6345,208.6891 177.5335,205.3371 Z M95.6148,100.6165 C97.3608,100.1355 99.1228,100.3215 100.6698,100.9795 C104.1238,101.6125 107.0088,104.4925 108.0228,107.7805 C108.1028,108.065167 108.192133,108.346278 108.290504,108.624426 L108.4448,109.0395 L108.0308,107.9855 C108.2218,109.0235 109.0668,110.1145 109.3708,111.1565 C109.7448,112.4375 109.8358,113.8925 109.7098,115.3025 C110.8078,115.3135 111.9058,115.3505 113.0018,115.4455 L114.060904,115.540412 C119.98388,116.090875 126.486479,117.100575 129.9978,122.2185 C131.9698,125.0945 130.1188,130.2725 126.4958,130.8265 C120.9188,131.6795 116.1148,128.5935 110.5568,127.9755 C105.3028,127.3905 99.8048,127.7255 94.6188,128.6745 C83.91192,130.63194 74.0731872,134.971716 63.6392483,137.694821 L62.2188,138.0555 L62.2188,138.0555 L62.2208,138.0485 C60.4328,138.4805 58.4028,135.9945 60.1718,134.5405 C68.5308,127.6735 79.2328,122.1085 89.7758,118.7195 C88.2398,116.2765 87.7648,113.0585 88.8148,110.4355 C88.9774,109.8919 89.17924,109.36342 89.392024,108.836452 L89.8358,107.7525 L89.8358,107.7525 C89.8788,107.2415 89.9768,106.7365 90.1188,106.2415 L90.1418,106.0905 L90.1418,106.0905 L90.1548,106.0995 L90.1548,106.0995 C90.9398,103.5485 92.9898,101.3405 95.6148,100.6165 Z M202.2598,101.0113 C204.546011,98.7241158 207.758477,99.0621123 210.144209,100.862169 L210.4608,101.1103 L210.4608,101.1103 C212.7098,102.1093 214.5708,104.2923 215.7928,106.3153 C217.0618,108.4163 217.9048,110.5563 217.9378,112.8693 C223.4718,112.8873 228.7728,114.5473 232.8358,119.0153 C234.1478,120.4573 235.0438,122.6813 234.3218,124.6363 L233.8918,125.7993 L233.8918,125.7993 C232.527456,129.491691 226.393723,131.617218 224.308978,127.274981 L224.2128,127.0633 C221.9978,121.9073 213.4948,122.4483 208.9758,122.9753 C205.8258,123.3443 202.7148,124.1273 199.6728,125.0043 C198.60105,125.3133 197.538863,125.648737 196.4778,125.991206 L195.4168,126.3353 C194.8508,126.5183 191.9028,128.1193 193.7368,127.7403 C194.2298,127.6383 194.6008,128.3563 194.0978,128.5973 C191.9118,129.6423 189.5798,127.5613 189.7258,125.2133 C189.97864,121.13748 196.45103,118.902747 199.565401,117.497319 L199.7518,117.4123 C200.9458,116.8603 202.1968,116.3313 203.4878,115.8403 C202.7618,114.7603 202.1618,113.5603 201.6628,112.2723 C201.1908,111.0563 200.8758,109.8743 200.7028,108.5813 C200.5328,107.9493 200.5328,107.3173 200.7028,106.6843 L200.7288,106.5033 L200.7288,106.5033 C200.6408,106.0853 200.5988,105.6533 200.6048,105.2183 L200.5868,105.0493 L200.6048,105.0493 C200.6658,103.5263 201.2708,102.0003 202.2598,101.0113 Z M165.7316,144.4161 C174.5146,147.1301 189.0046,154.5231 184.4276,165.9341 C178.0366,176.4141 161.0876,168.7121 152.8746,165.3261 C145.4956,162.8821 141.6536,173.2231 148.7886,176.3401 C207.7476,199.6651 207.5306,138.1061 167.8696,139.0101 C163.5026,139.1091 163.3656,143.5141 165.7316,144.4161 Z M87.7267006,64.1488907 L89.2249,63.7117 C97.0099,61.4567 104.9569,57.5627 111.8689,63.6387 C114.5829,66.0247 115.1419,70.9827 113.1999,73.9587 C108.7759,80.7397 102.2149,79.7037 95.0699,80.2817 C89.6299,80.7217 84.2709,82.3197 79.1929,84.3167 C75.0429,85.9497 71.1939,88.2487 67.5599,90.8127 C63.9899,93.3337 61.5509,97.2747 57.8889,99.5437 C56.5469,100.3757 54.9969,99.5197 54.5149,98.1707 C52.8069,93.3857 55.6929,87.4247 58.1349,83.3477 C61.1159,78.3737 65.6439,74.3057 70.5129,71.2277 C75.8445923,67.8566231 81.7403556,65.9102089 87.7267006,64.1488907 L87.7267006,64.1488907 Z M201.1644,59.0001967 C214.3234,58.9962 226.9854,66.3152 234.3454,77.0442 C236.8464,80.6892 235.0134,86.0892 231.4234,88.1882 C227.395949,90.5440824 223.089759,88.8476771 220.435649,85.471752 L220.2784,85.2672 C216.0574,79.6462 210.6164,75.2192 204.1664,72.3372 C201.0194,70.9302 197.5394,69.7892 194.1354,69.2102 L193.035296,69.021688 C191.49344,68.76332 189.7048,68.5166 188.3104,68.7582 C187.5634,68.8562 186.8774,69.1032 186.2454,69.4792 C186.5494,70.1432 185.7644,70.9432 185.0394,70.5452 C181.7694,68.7492 182.1704,65.5452 184.8714,63.0552 C188.6924,59.5322 196.2294,59.0012 201.1644,59.0001967 Z" id="ðŸ–-Ink" fill="#000000"/></g>

        <g id="facial-hair" transform="translate(279 400)"><path d="M305.2686,13.0048 C301.9546,8.5558 295.9976,2.7168 289.9716,3.0308 C289.2006,3.0708 288.9116,3.9058 289.3746,4.4708 C291.3456,6.8778 294.0386,8.5898 296.0136,11.0468 C298.3506,13.9548 300.0376,17.4618 301.1346,21.0088 C302.7286,26.1618 303.1686,31.9938 301.7476,37.2338 C299.2436,46.4698 291.3266,53.2398 282.6886,56.6968 C274.1386,60.1188 263.8506,61.2878 255.7646,56.2738 C243.8296,48.8718 233.7066,38.2018 218.7056,37.9908 C215.1966,37.9418 212.7236,39.5488 211.2506,41.8428 C209.7706,39.6308 207.3286,38.0658 203.9076,38.0268 C187.0906,37.8378 174.5386,49.4148 160.4236,56.6318 C150.8846,61.5098 138.5416,59.9958 128.7006,56.7728 C119.4176,53.7338 109.3406,47.6308 105.8386,37.9938 C103.9056,32.6718 104.3386,26.4578 106.3236,21.2118 C107.6286,17.7618 109.6436,14.4288 112.1366,11.7178 C114.7216,8.9058 118.1196,7.1378 120.7676,4.4718 C121.3086,3.9268 120.8816,3.0798 120.1706,3.0308 C108.9246,2.2678 98.7696,15.6958 96.6466,25.4378 C94.5556,35.0318 97.6736,44.6008 103.9846,51.9218 C116.8176,66.8058 140.5796,71.7148 159.0736,67.3408 C174.0426,63.8018 188.2596,55.6498 203.9076,56.8198 C207.3376,57.0768 209.7996,55.6468 211.2856,53.4788 C212.7736,55.7098 215.2516,57.1688 218.7056,56.8348 C233.2896,55.4218 246.3066,65.7498 260.4626,68.2718 C271.7336,70.2788 283.9086,67.5718 293.5666,61.4998 C303.6616,55.1528 310.7676,44.9718 311.2356,32.8338 C311.5046,25.8508 309.4556,18.6258 305.2686,13.0048" id="ðŸ–-Ink" fill="#000000"/></g>

        <g id="eyewear" transform="translate(203 303)"><path d="M367.1336,98.3183 C360.4006,107.3633 347.9186,110.2443 336.4056,109.2493 C311.5746,106.8593 303.7596,78.6583 302.9456,56.7393 C319.5966,61.4233 301.5376,28.2493 358.4566,24.6013 C378.5216,22.9293 372.9896,35.0473 381.8546,43.9013 C381.6726,62.4833 378.5796,82.6743 367.1336,98.3183 M248.8626,76.9663 C234.2026,145.6193 153.9246,129.2893 145.4916,67.4033 C153.2786,61.9073 151.2276,48.3363 160.9016,43.4193 C176.2336,33.6233 195.3996,34.0423 212.8106,34.2723 C235.0656,35.8013 241.4076,45.0203 252.8396,55.0783 C252.2896,61.7963 250.7036,69.7583 248.8626,76.9663 M398.9346,13.2313 C398.1116,13.0943 397.2876,12.9653 396.4636,12.8443 C395.8206,12.4793 395.0656,12.1983 394.1876,12.0293 C392.1826,11.5203 390.1916,11.1773 388.2036,10.9923 C359.6716,4.5713 293.6646,13.6883 290.9406,38.0363 C281.8546,41.0693 273.9926,38.3533 263.4616,38.6233 C255.4456,5.1183 116.8626,9.8473 110.1976,30.0473 C110.1726,30.0403 110.1476,30.0343 110.1216,30.0263 C103.7176,28.0443 94.2766,28.5223 86.9466,28.2083 C71.2956,27.8803 55.6266,29.2753 40.3136,32.5763 C11.6386,37.1333 -27.4964,42.4683 -7.5534,78.2763 C-7.5494,78.2823 -7.5464,78.2893 -7.5414,78.2953 L-7.5384,78.2923 C-4.1014,81.8153 1.7316,78.9783 1.9486,74.2093 C-4.7564,57.2453 10.3876,55.2083 22.0396,50.3333 C51.0326,39.9173 80.5506,38.4733 110.5366,41.6953 C112.7926,44.3513 116.2156,46.6673 119.8336,47.8793 C139.8826,51.2073 129.3166,66.0793 141.9896,68.2423 C139.6616,120.0843 202.6026,148.3823 239.0716,114.3033 C253.6326,100.0673 257.1036,78.9783 260.4796,59.9693 C262.2646,59.5683 263.3996,58.5923 264.0626,57.3003 C268.3556,53.0143 271.0526,49.0563 279.5416,47.8793 C288.0306,46.7033 294.5656,49.0643 295.4496,49.7873 C295.6726,50.2363 295.9116,50.6863 296.1896,51.1363 C296.5776,51.8073 297.1056,52.3423 297.7056,52.7633 C289.3226,104.3873 329.3996,137.0353 369.8586,110.2603 C387.4386,93.7233 391.1536,68.4053 391.8876,45.8073 C394.2706,44.3693 395.7796,41.5823 394.9546,38.0783 C393.8176,33.2483 396.4836,29.0663 400.7296,26.9663 C406.2466,24.2393 405.2706,14.2803 398.9346,13.2313" id="ðŸ–-Ink" fill="#000000"/></g>
    </g>
</svg>