<svg xmlns="http://www.w3.org/2000/svg" viewBox="0 0 704 704" fill="none" width="512" height="512">
    <desc>"Open Peeps" by "Pablo Stanley", licensed under "CC0 1.0". / Remix of the original.</desc>
    <mask id="viewbox"><rect width="704" height="704" rx="0" ry="0" x="0" y="0" fill="#ffffff" /></mask>
    <g mask="url(#viewbox)">
        <rect id="background" fill="#ffdfbf" width="704" height="704" x="0" y="0" />

        <g id="body"><path id="skin" d="M705.3 1074a2351.1 2351.1 0 0 1-15.6-101c-1-7.7-2.5-16.4 2.7-22 7.3-8 14-14.8 14.8-26.2.8-10.7-2.8-22.4-5-32.8a809.4 809.4 0 0 0-17.3-64.7c-6.6-21.7-13.9-43.2-21.3-64.6-6.9-20-13.5-40.3-22.5-59.5-17-36.5-46-63.5-81.6-81.6-9-4.5-27-20.5-36.3-24-8.5-3.4-8.5 6.3-16.9 2.6-6.7-2.9-13-6.7-16.7-13.2-4-7-14.3-16.9-15.9-25-3.3-17.4.3-32.2-12-45.3a90 90 0 0 0-41.1-23.8c-33.7-9.3-78.5-2.8-98.8 28.5-9.7 14.9-13 33-26.2 45.1-11.4 10.7-8.8 18-23.6 23.4-.9.3-23.6-4.5-24.4-4.2-16.2-3.5-31.7 6.2-46.5 11.8a325.4 325.4 0 0 0-63 32.3 399.2 399.2 0 0 0-102.3 98.5 482.5 482.5 0 0 0-76.4 161c-1.7 6.4-3.5 13-1.5 19.4 1.7 5.3 5.4 9.2 9.8 12.4 6 4.3 18 7 17.7 15.7-.1 6.6-2.4 13.5-3.5 20-1.3 7.7-2.3 15.5-3.4 23.2-4.8 35.4-8.6 71-10.3 106.6a920 920 0 0 0-.5 106c.1 2.3.8 4.5 2 6.2-1 .4-1.2 2.4.1 2.7l2.7.5a12 12 0 0 0 7 2.4l5.5.2c19.3 4 38.6 7.9 58.1 10.8 23.8 3.5 47.6 6.3 71.5 8.7 49.2 4.8 98 3.2 147.1.6a1877 1877 0 0 1 147.4-2c49.2 1.4 98.4 3.5 147.6 4.4 55 1 110-.5 164.8-5 7.5-.5 12.2-6.5 10.7-14-8.9-44.7-19-89.1-27-134Z" fill="#ae5d29"/><path id="shirt" d="m201 597.5 1.2-.4c14.5-5.7 29.6-14.8 45.4-11.4.5-.2 10.8 1.9 17.9 3.2l-6.7 7L247 598c40.7 67.1 88.8 100.7 144.3 100.7 55.5 0 97.7-33.6 126.4-100.7l4-1c.4 0 1 .2 1.5.4 9.3 3.6 27.4 19.6 36.3 24.1 35.6 18 64.5 45 81.6 81.6 8.7 18.6 15.2 38 21.8 57.5l.7 2c7.4 21.4 14.7 43 21.3 64.6 6.3 20.4 12 41 16.6 61.8l.7 2.9c2.2 10.4 5.8 22 5 32.8a29 29 0 0 1-3 10.7l-80.4 29 38.4 261.3c-35.1 1.5-70.3 2-105.5 1.3-49.2-.9-98.4-3-147.6-4.3-47.7-1.2-95.3-.7-143 1.7l-12 .6a946.3 946.3 0 0 1-139.5-1l-3.1-.3v-38.3l16.3-212.9-83-15.6-81.3-39.5a21.7 21.7 0 0 1-5.6-8.8c-1.9-6-.5-12 1-18l.5-1.3a492.8 492.8 0 0 1 76.4-161A399.3 399.3 0 0 1 138 629.7c19.8-13 40.9-23.9 63-32.3Z" fill="#e279c7"/><path d="M232.2 584.6c5.1-.3 10.3.6 15.4 1 .4.1.6.8 0 .9-9 1.9-18 4.5-26.9 7.1l-3.8 1.2c-10 3-19.8 6-29.6 10-19.4 7.9-37.8 18.5-54.8 30.8C67.2 682.8 20 754.3-9.9 828.3a526 526 0 0 0-24.3 77c-.4 1.6-2 5.4-1 7 .7 1.3 3.6 2.1 5 2.9l4.5 2.3 25.2 12.9 2.3 1.1c38 18.6 78.4 34.4 121 35.5l.4-3.7a342 342 0 0 1 9.9-60c.3-1 1.6-.6 1.7.3 3 23.1 2 46.4 1 69.7-1.8 41-4.3 82.2-6.5 123.3-1.2 20.6-2.6 41-3.9 61.7-1.3 20.5-1.7 41.6-4.7 62-.6 4.6-6 7-10 6.6-4.4-.5-7.9-4.5-8-9 0-11.9 1.5-24 2.4-35.8l2.5-33.8c3.1-41.1 6.8-82.2 10.2-123.3a4771 4771 0 0 1 3.8-43.7C76.4 979.8 34.2 963-6.1 943.5c-.6 13.2-2 26.5-3.4 39.6-3.8 36.8-7.1 73.6-9.6 110.5a2254.2 2254.2 0 0 0-4.2 92.7l-.2 7c0 4.4-.5 8.5-4.3 11.7-3.7 3.3-8.9 3.5-12.6 0-5-4.6-4.2-10.9-4-17.1a1675.6 1675.6 0 0 1 1.8-47.2 1321 1321 0 0 1 10.5-109.5l2-14c3.5-26 7.5-52.7 15.5-77.9-3.1-1.5-6.2-3-9.3-4.7-5.5-2.7-11.2-5.4-16.6-8.4-4.2-2.5-7.9-5.8-9-10.8-1.4-5.5.6-11.5 2-16.9v-.4a502 502 0 0 1 26.6-80 523.2 523.2 0 0 1 67.8-117 353.8 353.8 0 0 1 88.7-83.3 239 239 0 0 1 53.8-25.7 142.6 142.6 0 0 1 42.8-7.5Zm90.1-66c6-6.5 18.1.2 15.2 8.8a108.2 108.2 0 0 1-34.7 52A79.4 79.4 0 0 1 247 598l1.7 2.4a321.1 321.1 0 0 0 46.1 52.6c36 31.2 84.8 48 132 36 37.1-9.4 69.8-38.8 79.4-76.2-1.3.6-3 .9-4.8.5-7.7-1.7-15.3-9.8-20.3-15.6-5.3-6.3-9.5-13-12.6-20.7-5.6-14-7.4-32.1.3-45.7 1-1.7 3-.7 3.3 1l.3 2.5c1.5 12.7 3.3 25 9.3 36.6a76 76 0 0 0 18.2 23.1c2.6 2 5.8 3.6 8.1 6l.5.4c.6-5 4.1-7.3 7.6-7.2 3.3.2 7.3 1.6 8.8 2.3l.1.1a341 341 0 0 1 65.1 42 259 259 0 0 1 88.4 129c7.5 25.3 11.8 51.4 16.3 77.4l2.8 16c4.2 23.9 8.9 48.4 18.4 70.7 2.5 5.7.6 11.1-5.5 13.4A1493 1493 0 0 1 688 953c3.7 16 6 32.5 8.7 48.5 6 34.1 13.2 68 19.4 102 3.2 17.5 6.1 35 9.3 52.3l4.7 25.2 2.4 13.6.1.7c.5 2.4 1 4.9.4 7.3-.8 2.7-2.9 4.6-4.8 6.6-1.6 1.6-3.8 1.6-5.7.7l-.7-.3c-3.4-1.6-6-3.2-7.3-7-.7-2.5-1-5.2-1.5-7.7a3535.6 3535.6 0 0 1-7.8-43.6l-1.6-9.1c-5.2-31.4-10.2-62.9-12.8-94.5-1-14-2.3-28.1-3.5-42.2l-.9-10.5c-1.1-13.3-2.5-27-2.7-40.5l-4.5 1.6L657 964c-5.5 2-12.5 6-18.4 5.2-2.9-.3-5-1.2-6.8-2.9 2 28.8 4.8 57.4 8.5 86a1965.7 1965.7 0 0 0 22 135c.6 3.2 1.4 6.4 1.9 9.6.5 3.7-.5 5.9-2.5 9-1.7 2.4-5 3.7-7.8 2-3.6-2.3-5.5-4.3-6.5-8.4-1-3.7-1.6-7.6-2.3-11.4a1654.2 1654.2 0 0 1-11.4-65.2c-7.8-52-12.7-104.4-15.2-156.8a1388 1388 0 0 1-1.4-77.8c0-13.3.5-26.6 1.4-39.9 1-13.4 3-26.5 4.8-39.8 0-.5.7-.5.7 0 .8 14.9 2.1 29.8 2.8 44.7.6 14.3.9 28.5 1.4 42.8.6 18.7 1.5 37.5 2.7 56.2a9.6 9.6 0 0 1 8.5-3.1c4.7-1 9.7-3.4 14.1-5l16.8-5.5 26.4-8.7a679 679 0 0 1-18-80.8l-2-12.3c-4-24.2-8.5-48.5-15.8-72a229.8 229.8 0 0 0-34.8-68.2 370.2 370.2 0 0 0-52.7-55.3C557 627 539.7 614 523 600c.1.9.2 2 0 3-3.5 25.9-17 50-35.8 67.9-37.7 36-93.6 43.4-142 26.5-46.7-16.3-88-55-102.6-102.8-.3-.8.8-1 1.3-.5l2.4 3.3c0-.4.2-.9.7-1a129 129 0 0 0 46.6-29.2 100.2 100.2 0 0 0 21.3-33.3l.4-1c1.7-5 3.2-10.2 7-14.2Z" fill="#000000"/></g>

        <g id="head" transform="matrix(.99789 0 0 1 156 62)"><path id="skin" d="M260.3 105.2c150.5 4.7 159.6 76.2 159.6 196.1 0 120-78.1 195.5-106.9 208.7-28.7 13.2-104.4 69.8-172.7 43.7C72 527.6 91.7 417.3 91.7 370c0-47.4 18-269.5 168.6-264.7Z" fill="#ae5d29"/><path id="accessories" d="M114.8 295.4c31.1-126.9 88-188.8 170.4-185.7C409 114.3 407.7 240.5 400 229c-5-7.5-40.6-33.7-106.5-78.7l-4-2.8-174.6 148Z" fill="#e78276"/><path d="M321.3 470.6c-27.6 15.4-59.2 16-89 6.3a187.5 187.5 0 0 1-49.5-25.5 341 341 0 0 1-37-30.8 272.6 272.6 0 0 1-22.3-66c-3.6-20.8-4-42.4.1-63.3 31-25.5 62-51.3 92.8-77.1 15.7-13.2 31.4-26.3 47.4-39.2l24.1-19.7 4-3.2c16.6 12.1 34.5 22.6 51 35a349.4 349.4 0 0 1 37.4 32.4c3.6 3.7 7.2 9 12.3 10.3a5 5 0 0 0 2 .2c7 60.7 12 126.4-17.8 181.5-13 24.1-31.4 45.6-55.5 59Zm-179.8 22.3c-3.8-3.5 1.9-9.1 5.7-5.6 23.8 21.8 55 33.3 86.4 38.7 5 .8 2.9 8.5-2.2 7.7-32.8-5.6-65-18-89.9-40.8ZM113 526.4c-4.6-2.5-.5-9.4 4-7 18.6 10 38.9 15.2 59.5 18.7 5.1.8 3 8.5-2 7.7a198.6 198.6 0 0 1-61.5-19.4Zm75.5-337c15.3-13.9 31.9-27 49.4-38 17.6-11.3 37-18 57.8-18.2l-4.2 3.7-11.8 10.1c-8 6.8-15.8 13.6-23.5 20.4-15.3 13.6-30.7 27-46 40.7-29.2 26.1-57.9 52.8-86 80.3l.5-2c9.3-38.9 34.6-70.9 63.8-97ZM309 134.8l.2-.9c40 5.3 73.5 34.7 84.6 73.5-1 1.4-1.5 3-1.3 4.6 0 .9.2 1.8.3 2.6l-4-3.8a325.7 325.7 0 0 0-39.2-33.8 178.2 178.2 0 0 0-53.5-28.5l3.8-3.2c3.9-3 7.4-5.7 9-10.5Zm71.8-41.5A175.2 175.2 0 0 0 286.4 40a185 185 0 0 0-102 10.5c-67.7 26.6-121.1 85-146.2 152.9a278.3 278.3 0 0 0-15 124.6c4.4 41.6 17 84.5 39.8 120 2 3.2 4.3 6.3 6.7 9.3a79.7 79.7 0 0 1-11.5 34.6l-1.1 1.7c-6.6 4.9-13.4 9.5-20 14.3-5.8 4.1-11.5 8.4-17 13-5 4.3-11 9-14.5 14.9-2.8 4.8-4 11.3-.1 15.8 4.7 5.5 12.6 3.6 19 3.6H26l5.8 3.3 57.7 30.2c38.3 20 76.5 40.6 115.7 59 18.1 8.5 37.5 16 57.8 16 19.1-.1 36.3-7.7 51.2-19.2 17-13.1 31.2-29.8 45-46 5.4-6.6 10.8-13.2 16-20 10.3-3.3 20.3-4.3 29.4 2.2 7.3 5.3 16.8-1.8 17-9.7 0-2.8 0-5.6-.3-8.3-1.9-16.8-10-32-19.3-46.1a694.1 694.1 0 0 0-19.5-28.1 363.6 363.6 0 0 0 49.1-103.6A353 353 0 0 0 444 266c-3.7-61.4-20.6-126.3-63-172.7Z" fill="#000"/></g>

        <g id="face" transform="translate(315 248)"><path d="M189.0594,229.1111 C195.3794,227.6381 200.3434,232.9901 199.1014,239.1531 C197.7864,245.6771 190.7714,247.9131 184.8894,247.7081 C178.2204,247.4771 171.5564,246.1001 164.8544,245.8231 C157.9694,245.5391 151.0584,245.4871 144.1694,245.6731 C137.7974,245.8451 131.2574,246.9681 124.9354,245.9601 C122.4734,245.5671 122.7064,242.3171 124.3084,241.1621 C129.0644,237.7321 135.2284,236.3341 140.8344,234.8951 C146.5504,233.4271 152.3934,232.3031 158.2554,231.6171 C164.1984,230.9221 170.1904,230.5751 176.1724,230.5071 C178.8954,230.4761 182.2344,231.0811 184.8894,230.5911 C186.2424,230.3401 187.6204,229.4471 189.0594,229.1111 Z M170.814304,144.367155 C178.365682,148.9572 189.871664,159.660291 181.748119,171.039573 C172.185929,181.073062 158.418535,169.568982 151.634201,164.366134 C145.343449,160.333898 138.275437,170.704507 144.112,175.412823 C193.135736,211.708059 213.030606,145.567387 174.633685,138.970386 C170.406047,138.243425 168.835891,142.947174 170.814304,144.367155 Z M116.0593,110.0915 C126.1603,108.4115 127.9273,122.8115 117.9163,123.8175 C115.8153,124.0285 113.7263,124.2125 111.6413,124.3955 C111.8443,125.0475 111.9793,125.7185 112.0533,126.4085 C112.1483,126.9945 112.2193,127.6165 112.2823,128.3275 C112.5993,131.8705 110.0873,135.5545 107.1523,137.2725 C104.1023,139.0575 99.7243,139.2955 96.6953,137.2725 C95.1333,136.2285 93.5733,135.0515 92.7123,133.3255 C91.5573,131.5525 90.9273,129.5005 90.8633,127.3945 C86.2583,128.5905 81.5693,130.2075 76.9183,131.0645 C77.0893,131.2325 77.2573,131.4115 77.4203,131.6085 C77.5443,131.7595 77.3743,132.0425 77.1933,131.9035 L74.8603,131.3865 L74.8603,131.3865 C74.1423,131.4805 73.4243,131.5575 72.7083,131.6025 L72.7253,131.5395 L72.7253,131.5395 C71.5283,131.5185 70.5483,130.1035 71.6193,128.9715 C75.7284316,124.628237 82.1402363,121.74178 87.9859351,119.328363 L93.618224,117.019362 C100.820152,114.092257 108.422685,111.361654 116.0593,110.0915 Z M197.3196,114.5463 C203.9356,113.7913 210.4866,114.0913 217.1136,114.4953 C228.2666,115.1743 223.5886,131.4383 214.6366,127.6833 C214.7286,128.2783 214.7526,128.8743 214.6836,129.4293 C214.3336,132.2883 213.4016,134.7043 210.7776,136.2403 C208.3406,137.6663 205.2516,137.6623 202.8146,136.2403 C200.2046,134.7183 199.0276,132.5733 198.3616,129.7863 C197.8456,127.6253 198.0526,125.8173 198.3506,123.6773 C198.4496,122.9683 198.7586,122.3073 199.1866,121.7133 C198.5626,121.5573 197.9376,121.4063 197.3116,121.2653 C191.7456,119.9993 186.2546,120.2533 180.7046,119.4513 C180.1126,119.3653 180.0186,118.4093 180.5366,118.1663 C185.5236,115.8233 191.8636,115.1683 197.3196,114.5463 Z M115.0395,64.3154 C118.8575,62.8584 123.6535,65.2814 125.6025,68.6144 C127.8145,72.3964 126.8695,76.7624 124.1395,79.9494 C119.951684,84.8382684 111.976365,87.8499762 106.098381,90.639663 L105.6265,90.8654 C99.5905,93.7774 93.3895,96.4514 87.1045,98.7814 C80.9235,101.0744 74.4935,102.8704 68.0855,104.4124 C64.7065,105.2254 61.2555,105.8974 57.8025,106.3214 C55.0765,106.6554 52.9745,105.9074 50.3665,105.9074 C49.9855,105.9084 49.8665,105.4034 50.1775,105.2094 C52.6145,103.6774 54.4235,101.6604 57.0815,100.2414 C59.8495,98.7644 62.6275,97.3124 65.4155,95.8744 C71.0525,92.9684 76.4805,89.7344 81.9185,86.4794 C87.6505,83.0484 93.2525,79.4354 98.7005,75.5674 C104.0315,71.7824 108.9445,66.6404 115.0395,64.3154 Z M183.0763,61.2035 C187.8443,60.2785 192.5663,62.5345 193.9773,67.3935 C195.3303,72.0485 193.9153,73.0465 197.5243,76.3775 C200.401223,79.0321154 203.502998,81.4015237 206.633449,83.7347007 L211.240945,87.1599199 C219.586327,93.3374333 228.0007,99.1782333 237.5963,103.3465 C238.4073,103.6985 237.9383,104.9035 237.1693,104.9195 C221.9153,105.2135 207.2883,103.1485 193.5193,96.3195 C187.0873,93.1295 180.6253,89.0945 176.8983,82.7265 C172.5813,75.3525 172.7073,63.2135 183.0763,61.2035 Z" id="ðŸ–-Ink" fill="#000000"/></g>

        <g id="facial-hair" transform="translate(279 400)"><path d="M229.9448,33.9998 C241.6588,34.8308 252.7388,42.0988 262.8158,47.7168 C272.51397,53.5108426 279.691907,62.0952464 285.425881,71.6662255 L285.7978,72.2918 C286.1341,72.79055 285.534508,73.3515725 285.041591,73.1612186 L284.9648,73.1248 C275.4478,68.3498 265.4058,64.4798 256.0618,59.2708 C246.9378,53.6298 235.7338,51.7018 226.5408,46.5708 C221.2868,42.6758 222.8638,34.3008 229.9448,33.9998 Z M199.4764,39.6831 C199.9034,42.3551 198.8244,46.5961 195.3164,47.8351 C189.153275,50.0091625 183.540345,51.1812719 177.34959,52.8774291 L169.32497,55.1248967 C153.910423,59.4668903 138.264477,64.1279974 124.6174,70.9681 L124.1894,70.7801 C114.2764,64.5781 169.0404,38.7041 187.9494,34.5821 C191.4234,33.8241 198.8314,35.6511 199.4764,39.6831 Z" id="ðŸ–-Ink" fill="#000000"/></g>

        <g id="eyewear" transform="translate(203 303)"><path d="M337.808766,15 C361.280828,15 374.675545,20.0476268 379.583995,20.4408262 L379.731604,20.4513988 C381.773203,20.5819351 383.604638,20.7526365 385.526143,21.4956895 C392.591677,24.2168704 393.742579,31.6273185 389.619349,36.2975074 C389.330123,45.9612137 390.601118,57.2526079 388.42041,66.9474421 C385.730303,107.818373 366.509247,114.715713 355.583689,117.233056 C350.098392,118.49725 343.5973,119.000317 337.770736,117.665834 C327.83095,117.295312 318.004253,114.183526 309.596667,108.765263 C297.887495,101.213234 289.190683,89.6055398 286.368473,75.8299385 C285.030886,69.2635354 284.405767,62.4288331 285.133692,55.7543104 L285.24159,54.834673 C281.435609,53.014193 277.025154,52.6697779 272.478593,52.5091178 C270.306891,52.4318001 268.166215,52.3625154 266.086586,52.454895 C264.053994,52.6818274 262.04542,52.9840692 260.030842,53.3957608 C257.831119,54.0594879 255.753492,55.1549891 253.834989,56.8901185 L253.702886,59.4225236 C253.342603,65.7485159 252.511953,72.0935866 251.230949,78.3000879 C249.339468,87.4577148 246.297085,96.2036502 239.822013,102.69934 C237.630296,105.97279 234.918171,108.894796 231.625592,111.425193 C219.665224,120.63403 203.415495,124.014921 188.501813,122.74169 C158.225098,120.158074 140.724389,96.1233201 136.69123,85.8501095 L136.45028,85.2277051 C133.536796,77.5902322 131.214914,67.6806815 122.008729,66.0397124 L120.050703,65.6879191 C115.84966,64.8993558 111.973202,63.8015161 109.509939,59.7026747 C108.430093,57.9133226 107.874658,55.9121 107.738551,53.8717164 C106.301426,53.9821703 104.866302,54.0876035 103.436181,54.1900243 C92.0277451,56.6026875 23.600227,58.6483427 18.1383674,58.6483427 C18.1383674,58.6483427 7.63935915,63.0673229 3.20667133,59.6434313 C0.134264704,57.2626491 -0.876527051,54.0896117 0.814797767,50.4948415 C3.36675899,45.0862033 15.1402688,41.832872 20.368158,40.8027483 C20.368158,40.8027483 104.732847,41.5034375 110.804953,40.3521672 C114.561896,36.47825 121.28216,37.0084284 126.897559,36.3959117 C131.5462,33.0812926 138.049294,30.8611705 143.186318,29.3750644 C144.233138,28.9784347 145.26995,28.5948587 146.277739,28.2333734 C155.695116,24.8795934 165.483783,23.1032949 175.421568,22.1493754 C185.669595,21.1753734 195.947646,21.6161846 206.135626,23.0119194 C210.428989,23.5943124 214.682321,24.3474067 218.905629,25.3324541 C226.467802,26.3293627 233.985996,27.9714025 241.550918,29.9193501 L243.064552,30.3129178 C251.030792,32.4014994 259.217205,34.2079217 267.463664,32.7921043 C274.177256,31.6469826 280.633494,29.0632415 286.823569,26.2693175 L287.62946,25.9038016 C301.240122,19.6892673 322.495771,15 337.808766,15 Z M218.086988,37.7223618 C213.065054,36.6178235 210.920374,44.3606372 215.95832,45.4681879 C219.525804,46.252514 222.549376,48.0515396 224.592155,51.0993468 L224.807252,51.4306867 C227.548399,55.792609 234.479828,51.7660647 231.719666,47.3760269 C228.614234,42.4357281 223.788453,38.9755108 218.086988,37.7223618 Z M365.1732,32.9216366 C363.402814,31.6745124 360.723715,32.6003163 359.69591,34.362557 C358.564701,36.303111 359.306135,38.4637159 360.964208,39.7331967 L361.133036,39.8571332 C362.653907,40.9290575 364.135119,42.8505012 364.321131,44.8192514 L364.337546,45.0655335 C364.536702,50.2177028 372.543974,50.24381 372.343817,45.0655335 C372.148664,39.999719 369.215367,35.767329 365.1732,32.9216366 Z" id="ðŸ–-Ink" fill="#000000"/></g>
    </g>
</svg>