<svg xmlns="http://www.w3.org/2000/svg" viewBox="0 0 704 704" fill="none" width="512" height="512">
    <desc>"Open Peeps" by "Pablo Stanley", licensed under "CC0 1.0". / Remix of the original.</desc>
    <mask id="viewbox"><rect width="704" height="704" rx="0" ry="0" x="0" y="0" fill="#ffffff" /></mask>
    <g mask="url(#viewbox)">
        <rect id="background" fill="#c0aede" width="704" height="704" x="0" y="0" />

        <g id="body"><path id="skin" d="M705.3 1074a2351.1 2351.1 0 0 1-15.6-101c-1-7.7-2.5-16.4 2.7-22 7.3-8 14-14.8 14.8-26.2.8-10.7-2.8-22.4-5-32.8a809.4 809.4 0 0 0-17.3-64.7c-6.6-21.7-13.9-43.2-21.3-64.6-6.9-20-13.5-40.3-22.5-59.5-17-36.5-46-63.5-81.6-81.6-9-4.5-27-20.5-36.3-24-8.5-3.4-8.5 6.3-16.9 2.6-6.7-2.9-13-6.7-16.7-13.2-4-7-14.3-16.9-15.9-25-3.3-17.4.3-32.2-12-45.3a90 90 0 0 0-41.1-23.8c-33.7-9.3-78.5-2.8-98.8 28.5-9.7 14.9-13 33-26.2 45.1-11.4 10.7-8.8 18-23.6 23.4-.9.3-23.6-4.5-24.4-4.2-16.2-3.5-31.7 6.2-46.5 11.8a325.4 325.4 0 0 0-63 32.3 399.2 399.2 0 0 0-102.3 98.5 482.5 482.5 0 0 0-76.4 161c-1.7 6.4-3.5 13-1.5 19.4 1.7 5.3 5.4 9.2 9.8 12.4 6 4.3 18 7 17.7 15.7-.1 6.6-2.4 13.5-3.5 20-1.3 7.7-2.3 15.5-3.4 23.2-4.8 35.4-8.6 71-10.3 106.6a920 920 0 0 0-.5 106c.1 2.3.8 4.5 2 6.2-1 .4-1.2 2.4.1 2.7l2.7.5a12 12 0 0 0 7 2.4l5.5.2c19.3 4 38.6 7.9 58.1 10.8 23.8 3.5 47.6 6.3 71.5 8.7 49.2 4.8 98 3.2 147.1.6a1877 1877 0 0 1 147.4-2c49.2 1.4 98.4 3.5 147.6 4.4 55 1 110-.5 164.8-5 7.5-.5 12.2-6.5 10.7-14-8.9-44.7-19-89.1-27-134Z" fill="#694d3d"/><path id="shirt" d="m201 597.5 1.2-.4c14.5-5.7 29.6-14.8 45.4-11.4.5-.2 10.8 1.9 17.9 3.2l-6.7 7L247 598c40.7 67.1 88.8 100.7 144.3 100.7 55.5 0 97.7-33.6 126.4-100.7l4-1c.4 0 1 .2 1.5.4 9.3 3.6 27.4 19.6 36.3 24.1 35.6 18 64.5 45 81.6 81.6 8.7 18.6 15.2 38 21.8 57.5l.7 2c7.4 21.4 14.7 43 21.3 64.6 6.3 20.4 12 41 16.6 61.8l.7 2.9c2.2 10.4 5.8 22 5 32.8a29 29 0 0 1-3 10.7l-80.4 29 38.4 261.3c-35.1 1.5-70.3 2-105.5 1.3-49.2-.9-98.4-3-147.6-4.3-47.7-1.2-95.3-.7-143 1.7l-12 .6a946.3 946.3 0 0 1-139.5-1l-3.1-.3v-38.3l16.3-212.9-83-15.6-81.3-39.5a21.7 21.7 0 0 1-5.6-8.8c-1.9-6-.5-12 1-18l.5-1.3a492.8 492.8 0 0 1 76.4-161A399.3 399.3 0 0 1 138 629.7c19.8-13 40.9-23.9 63-32.3Z" fill="#8fa7df"/><path d="M232.2 584.6c5.1-.3 10.3.6 15.4 1 .4.1.6.8 0 .9-9 1.9-18 4.5-26.9 7.1l-3.8 1.2c-10 3-19.8 6-29.6 10-19.4 7.9-37.8 18.5-54.8 30.8C67.2 682.8 20 754.3-9.9 828.3a526 526 0 0 0-24.3 77c-.4 1.6-2 5.4-1 7 .7 1.3 3.6 2.1 5 2.9l4.5 2.3 25.2 12.9 2.3 1.1c38 18.6 78.4 34.4 121 35.5l.4-3.7a342 342 0 0 1 9.9-60c.3-1 1.6-.6 1.7.3 3 23.1 2 46.4 1 69.7-1.8 41-4.3 82.2-6.5 123.3-1.2 20.6-2.6 41-3.9 61.7-1.3 20.5-1.7 41.6-4.7 62-.6 4.6-6 7-10 6.6-4.4-.5-7.9-4.5-8-9 0-11.9 1.5-24 2.4-35.8l2.5-33.8c3.1-41.1 6.8-82.2 10.2-123.3a4771 4771 0 0 1 3.8-43.7C76.4 979.8 34.2 963-6.1 943.5c-.6 13.2-2 26.5-3.4 39.6-3.8 36.8-7.1 73.6-9.6 110.5a2254.2 2254.2 0 0 0-4.2 92.7l-.2 7c0 4.4-.5 8.5-4.3 11.7-3.7 3.3-8.9 3.5-12.6 0-5-4.6-4.2-10.9-4-17.1a1675.6 1675.6 0 0 1 1.8-47.2 1321 1321 0 0 1 10.5-109.5l2-14c3.5-26 7.5-52.7 15.5-77.9-3.1-1.5-6.2-3-9.3-4.7-5.5-2.7-11.2-5.4-16.6-8.4-4.2-2.5-7.9-5.8-9-10.8-1.4-5.5.6-11.5 2-16.9v-.4a502 502 0 0 1 26.6-80 523.2 523.2 0 0 1 67.8-117 353.8 353.8 0 0 1 88.7-83.3 239 239 0 0 1 53.8-25.7 142.6 142.6 0 0 1 42.8-7.5Zm90.1-66c6-6.5 18.1.2 15.2 8.8a108.2 108.2 0 0 1-34.7 52A79.4 79.4 0 0 1 247 598l1.7 2.4a321.1 321.1 0 0 0 46.1 52.6c36 31.2 84.8 48 132 36 37.1-9.4 69.8-38.8 79.4-76.2-1.3.6-3 .9-4.8.5-7.7-1.7-15.3-9.8-20.3-15.6-5.3-6.3-9.5-13-12.6-20.7-5.6-14-7.4-32.1.3-45.7 1-1.7 3-.7 3.3 1l.3 2.5c1.5 12.7 3.3 25 9.3 36.6a76 76 0 0 0 18.2 23.1c2.6 2 5.8 3.6 8.1 6l.5.4c.6-5 4.1-7.3 7.6-7.2 3.3.2 7.3 1.6 8.8 2.3l.1.1a341 341 0 0 1 65.1 42 259 259 0 0 1 88.4 129c7.5 25.3 11.8 51.4 16.3 77.4l2.8 16c4.2 23.9 8.9 48.4 18.4 70.7 2.5 5.7.6 11.1-5.5 13.4A1493 1493 0 0 1 688 953c3.7 16 6 32.5 8.7 48.5 6 34.1 13.2 68 19.4 102 3.2 17.5 6.1 35 9.3 52.3l4.7 25.2 2.4 13.6.1.7c.5 2.4 1 4.9.4 7.3-.8 2.7-2.9 4.6-4.8 6.6-1.6 1.6-3.8 1.6-5.7.7l-.7-.3c-3.4-1.6-6-3.2-7.3-7-.7-2.5-1-5.2-1.5-7.7a3535.6 3535.6 0 0 1-7.8-43.6l-1.6-9.1c-5.2-31.4-10.2-62.9-12.8-94.5-1-14-2.3-28.1-3.5-42.2l-.9-10.5c-1.1-13.3-2.5-27-2.7-40.5l-4.5 1.6L657 964c-5.5 2-12.5 6-18.4 5.2-2.9-.3-5-1.2-6.8-2.9 2 28.8 4.8 57.4 8.5 86a1965.7 1965.7 0 0 0 22 135c.6 3.2 1.4 6.4 1.9 9.6.5 3.7-.5 5.9-2.5 9-1.7 2.4-5 3.7-7.8 2-3.6-2.3-5.5-4.3-6.5-8.4-1-3.7-1.6-7.6-2.3-11.4a1654.2 1654.2 0 0 1-11.4-65.2c-7.8-52-12.7-104.4-15.2-156.8a1388 1388 0 0 1-1.4-77.8c0-13.3.5-26.6 1.4-39.9 1-13.4 3-26.5 4.8-39.8 0-.5.7-.5.7 0 .8 14.9 2.1 29.8 2.8 44.7.6 14.3.9 28.5 1.4 42.8.6 18.7 1.5 37.5 2.7 56.2a9.6 9.6 0 0 1 8.5-3.1c4.7-1 9.7-3.4 14.1-5l16.8-5.5 26.4-8.7a679 679 0 0 1-18-80.8l-2-12.3c-4-24.2-8.5-48.5-15.8-72a229.8 229.8 0 0 0-34.8-68.2 370.2 370.2 0 0 0-52.7-55.3C557 627 539.7 614 523 600c.1.9.2 2 0 3-3.5 25.9-17 50-35.8 67.9-37.7 36-93.6 43.4-142 26.5-46.7-16.3-88-55-102.6-102.8-.3-.8.8-1 1.3-.5l2.4 3.3c0-.4.2-.9.7-1a129 129 0 0 0 46.6-29.2 100.2 100.2 0 0 0 21.3-33.3l.4-1c1.7-5 3.2-10.2 7-14.2Z" fill="#000000"/></g>

        <g id="head" transform="matrix(.99789 0 0 1 156 62)"><path id="skin" d="M346.4621,91.6774 C272.5601,53.8014 162.4431,57.8744 110.4451,129.5084 C102.1691,143.1044 93.7681,157.9944 89.6921,173.1444 C84.580016,192.704181 75.536005,221.723412 73.4392737,249.856629 C72.2212776,266.199281 77.76048,282.044829 76.2575,296.0806 C75.0692665,307.17707 63.7071486,303.803823 64.1686265,314.448639 C65.0701727,335.244418 65.7282139,365.508322 76.2575,381.876182 C86.1535,396.020182 104.6351,395.1524 115.4991,408.4934 C125.7381,421.0564 134.5881,434.9944 147.5301,445.0504 C174.6191,495.5984 251.9261,507.0744 304.0421,502.3574 C428.2141,482.6294 426.7501,297.0434 424.9671,199.4224 C425.5271,149.4534 388.8691,112.4644 346.4621,91.6774 Z" fill="#694d3d"/><path d="M159.4765,36.5216 C204.5875,11.4116 258.4475,0.8716 309.7175,6.4616 C335.3875,9.2716 360.9875,15.6416 383.5075,28.6416 C404.0475,40.4816 420.8565,57.9016 431.9175,78.8706 C442.4475,98.8516 447.7675,121.7616 448.3565,144.2816 C448.6575,155.6616 447.5375,167.0516 445.3475,178.2216 C444.2575,183.8016 442.6065,189.9816 443.9275,195.6616 C445.2075,201.1616 450.3775,204.2316 454.2475,207.8916 C471.5875,224.3016 480.1175,249.2016 476.8075,272.7716 C473.9575,293.1016 461.6375,314.3306 443.5975,325.1516 C446.3275,328.2716 448.4365,332.0316 449.8775,335.7116 C453.4075,344.7716 453.1575,354.4716 449.3075,363.3616 C445.3775,372.4216 437.5375,383.4216 428.6275,388.1516 C424.2175,390.4816 419.0375,391.2906 414.2975,389.7816 C411.3775,421.7016 402.5675,452.1716 379.7175,476.7016 C361.3375,496.4416 336.2875,510.1516 309.4975,513.9116 C294.9365,515.9416 280.0075,515.3516 265.5775,512.5806 C258.7875,511.2816 252.1065,509.3706 245.6575,506.8816 C238.4875,504.1116 231.2575,501.3616 226.0475,495.5406 C220.6065,489.4716 225.9175,480.3306 233.8965,482.0716 C241.4275,483.7116 248.0275,487.9716 255.3275,490.4716 C262.1065,492.7816 269.1775,494.5716 276.2875,495.5016 C290.5175,497.3816 305.1275,495.8616 318.8675,491.8306 C341.0975,485.3016 361.7265,470.9416 375.2175,452.0516 C390.7375,430.3306 397.0875,404.2516 399.3965,377.9916 C402.0475,347.7616 401.0075,317.2716 401.2675,286.9616 C401.4075,270.9916 401.2675,255.0216 401.3775,239.0616 C401.4875,223.8516 401.0775,208.6716 402.0375,193.5016 C401.3565,193.3706 400.6575,193.0806 399.9675,192.5716 C392.7775,187.3516 387.1375,179.9316 380.2675,174.2116 C373.3275,168.4316 365.7975,163.3616 357.9575,158.9016 C328.6275,142.2016 294.7075,135.0316 261.1275,135.5806 C242.6575,135.8816 224.5375,138.3016 206.4875,142.1516 L206.4875,142.1516 L150.5275,157.1016 C139.0375,149.1116 126.0375,143.4916 113.3675,137.6016 C112.0475,142.8116 108.2775,147.8116 105.9475,152.4316 C102.8565,158.5516 100.0075,164.8016 97.4875,171.1816 C92.4075,184.0216 88.3375,197.3306 85.2675,210.8016 C82.4129545,223.347055 80.7402273,236.066063 79.1373723,248.808362 L78.6575,252.6316 C77.7975,259.5016 76.8475,266.4616 76.4675,273.3716 C76.2575,277.1016 76.3375,280.8516 76.2775,284.5806 C76.2265,287.1316 75.3875,292.5116 77.5975,294.9116 C77.7775,295.1016 77.9675,295.2716 78.1865,295.4216 C90.2775,291.7616 104.1775,295.7716 109.7075,308.1616 C110.0575,308.9416 109.1975,309.6316 108.5275,309.0716 C97.2575,299.6316 77.7175,305.0016 71.5475,317.8216 C68.6675,323.7906 68.2375,331.0216 69.7175,337.4216 C71.4675,344.9516 76.1465,351.2216 79.0675,358.2906 C80.7075,362.2616 81.4975,366.2016 82.1275,370.4216 C82.5175,373.0316 82.6975,376.7216 84.5975,378.7416 C86.6175,380.8916 90.5475,381.1716 93.2575,381.7816 C97.0275,382.6316 100.6675,383.6616 104.1065,385.4616 C117.5375,392.4816 124.4075,408.8816 133.9475,419.9816 C139.4365,426.3706 145.4075,432.3706 151.7775,437.8916 C157.8775,443.1816 167.6465,447.5216 168.4765,456.2616 C168.7575,459.1516 166.1775,462.0016 163.5575,462.7216 C157.0375,464.5216 152.3675,460.0516 147.6065,456.2906 C143.1975,452.8116 138.9475,449.1316 134.8965,445.2416 C126.8775,437.5516 119.6575,429.0616 113.1675,420.0616 C108.4765,413.5516 104.5575,405.1416 97.8275,400.4316 C90.9575,395.6316 81.6865,396.8706 74.9575,391.3016 C66.8275,384.5716 68.4675,375.4216 66.0975,366.2906 C63.8075,357.5116 57.7875,350.2416 55.9575,341.2216 C52.6975,325.0806 57.5875,305.3116 73.3375,297.3616 C74.2875,296.8816 75.2675,296.4516 76.2575,296.0806 C75.9575,295.8616 75.6775,295.6116 75.4275,295.3306 C73.6465,293.4016 72.9275,290.1516 72.3565,287.6916 C70.5575,280.0116 69.5575,272.0316 68.4975,264.2216 C66.3175,248.3416 67.4675,232.2016 70.0175,216.4316 C72.4075,201.5916 76.1575,187.0616 81.2775,172.9416 C79.4975,171.7116 78.0875,169.8916 77.3075,167.5806 C75.6175,162.6716 77.1375,157.6616 78.1065,152.7216 C78.3965,151.2116 78.7175,149.7016 79.0475,148.1916 C78.2875,99.3706 119.2575,58.9016 159.4765,36.5216 Z M81.3972,330.981 C88.2272,330.871 94.0282,332.172 99.9672,335.831 C105.6572,339.352 110.9472,344.432 113.5172,350.672 C115.6472,355.831 107.1072,359.222 104.6072,354.422 C102.0372,349.491 100.1272,344.901 96.0072,340.962 C92.0972,337.212 86.4472,333.791 81.2382,332.182 C80.5772,331.972 80.7072,330.991 81.3972,330.981 Z" id="ðŸ–-Ink" fill="#000000"/></g>

        <g id="face" transform="translate(315 248)"><path d="M107 148c18.2 0 33-13 33-29s-14.8-29-33-29-33 13-33 29 14.8 29 33 29ZM226.5 141c16.3 0 29.5-11.2 29.5-25s-13.2-25-29.5-25-29.5 11.2-29.5 25 13.2 25 29.5 25ZM119.7 216.6c4.8-12.8 32.5-23.9 51.5-23.9s49.7 11 49.7 11L212 228s-80-3.4-84.7-3.4c-4.6 0-12.4 4.9-7.7-8Z" fill="#fff"/><path d="M156.5 188.5c20.5-.8 58.6 3 74.1 15 16 12.1-4 50.9-6.3 50.8-23-.9-45.7 2.4-68.4 5.5l-4.5.6c-15.3 2.1-36.7 5.8-44-11.8-9-30.6 18.4-60.3 49-60.1Zm36.2 13a148.6 148.6 0 0 0-37-1c-11 1.2-21.4 4.2-28.3 12.5 1.7.3 3.2 1.5 4.2 3.2 14.8.4 30-.2 45 .6 8.4.1 17 1 25.3.6 7.2-.3 5.2-6.3 6.2-11.4a62.8 62.8 0 0 0-15.4-4.6ZM58 85.5c14.8-24.4 59.4-9.2 81.8-4.1 17.1-3.8 18.8 24.7 1 21.8a32 32 0 0 1-7.2 43.2C99.4 175 36.6 128.4 80 95c.5-4.1 6-5.3 9.3-7l-1.1-.2a52.1 52.1 0 0 0-28.7-.5c-1 0-1.5-1-1.4-1.8Zm120.8 50.8c7.6 4.6 19 15.3 11 26.6-9.6 10-23.4-1.4-30.2-6.6-6.3-4-13.3 6.3-7.5 11 49 36.3 69-29.8 30.5-36.4-4.2-.8-5.8 4-3.8 5.4ZM256.5 59c.5 0 .7.7.4 1-9.3 9.2-21 16-31.4 23.8a44.6 44.6 0 0 1 37.4 30c4.6 25.4-32 37-51.4 29.4-16.1-5.6-27.8-21.2-19-37.8-9.2 0-18.5-12-11.7-18.8 6-6.2 13-2.5 15.6-4l3-1.5c18-9.6 36.8-18.8 57-22Zm-124.8 51.4c-11.6-18.3-57.3-18.7-56 9.6 1.8 37.2 75.6 28.8 56-9.6ZM226 94.7c-8.6-1.8-16.1 8-21 5.5-27.2 31 28.2 49 46.4 25.2 10-12.8-13.2-30.4-25.4-30.7ZM111 112c11.2-4 11 12.6 2.7 16-9.5 3.7-12.7-16.2-2.8-16Zm101.1 1.8c-.6-10.2 14.9-14.9 18.8-4.7 5.4 13.7-18 20.6-18.8 4.7Z" fill="#000"/></g>

        <g id="facial-hair" transform="translate(279 400)"><path d="M279.528,190.8631 C281.547,192.7781 285.93,196.9931 290.129,198.8461 L294.056,198.8461 C294.899,198.6881 295.727,198.4471 296.549,198.1751 C297.618,195.5521 297.824,192.4961 297.299,189.4181 C294.331,172.3721 291.68,155.1111 293.093,137.7621 C294.424,121.4051 299.132,105.1281 297.861,88.6151 C296.088,49.6481 258.461,22.6651 225.52,30.5541 C221.267,30.9311 217.108,32.1281 213.404,34.2561 C162.018,12.7001 98.507,49.1221 110.469,108.7041 C112.762,124.8141 116.46,140.0931 115.324,156.5121 C114.78,164.3701 113.529,172.1421 112.061,179.8741 C110.959,185.6761 108.042,192.8301 110.722,198.5571 C121.488,205.3561 132.712,191.2261 139.903,179.0991 C143.667,168.9071 146.794,158.4721 150.32,148.2011 C156.682,129.7401 158.156,119.5441 179.151,114.5101 C188.219,111.4171 196.313,106.8571 203.254,100.8451 C208.589,98.2901 211.63,93.1721 213.448,87.9971 C214.354,90.5451 213.101,93.6381 212.874,96.2831 C228.101,116.4651 246.944,112.6441 253.723,126.6781 C258.91,139.8891 261.825,153.9731 265.794,167.6431 C266.337,169.5141 276.384,187.8811 279.528,190.8631" id="ðŸ–-Ink" fill="#000000"/></g>

        <g id="eyewear" transform="translate(203 303)"><path d="M389.0901,63.2824 C379.5561,127.7714 313.0021,134.9034 301.1771,70.8814 C303.0751,70.0504 304.4401,68.4144 304.1551,65.2384 C304.0881,51.2864 308.4191,36.5404 321.0051,28.7814 C334.0111,20.7754 349.2321,19.9814 364.2831,20.1834 C393.0051,19.4994 392.4011,43.5064 389.0901,63.2824 M290.7581,35.2354 C281.7441,34.8554 270.3401,35.1734 262.2651,40.6654 C260.0451,34.6874 254.2771,28.3044 248.4491,24.8914 C270.1111,25.5254 292.4091,23.3934 314.2331,21.7384 C309.0091,25.2994 304.1491,30.6494 300.9901,36.8344 C298.0591,35.2714 293.8611,35.4174 290.7581,35.2354 M251.0261,70.1194 C226.0311,156.1554 163.6401,118.6554 156.8381,107.6294 C144.5691,89.3834 142.2611,45.0294 152.9481,33.1704 C168.2461,22.4464 189.9031,25.2064 207.9751,24.9434 C241.1761,25.3914 264.7561,35.3234 251.0261,70.1194 M418.6031,30.5484 C411.8121,29.6604 404.5551,29.4814 398.2411,32.4714 C396.2971,24.2084 390.1941,17.3004 383.3031,14.2604 C382.4691,13.2144 382.5941,12.6524 379.7451,12.8094 C362.2501,7.5514 342.6731,10.3334 325.8611,15.7254 C299.3091,17.9614 271.4521,19.7244 244.6771,22.8054 C219.5951,11.5414 143.9021,9.8904 139.1981,37.6534 C133.2811,36.7684 123.2041,32.1114 118.2321,38.4284 C81.7611,32.2454 44.0761,40.8384 7.4471,44.6654 C-1.7729,46.3634 -6.5219,64.6614 3.9441,64.4114 C9.8281,62.8144 3.7631,53.0174 11.6861,52.2804 C47.0271,48.4204 81.5951,42.9444 117.2981,42.3034 C116.0561,48.4684 140.9121,48.8694 141.2791,45.2694 C141.3321,45.2964 141.3881,45.3144 141.4421,45.3384 C135.3001,68.2284 140.8441,101.1704 151.9441,115.3644 C167.4961,133.9504 206.5411,139.2824 223.8541,127.3244 C246.1871,116.2874 269.4201,60.8854 262.8941,42.4794 C274.7381,38.7254 286.4471,39.8524 298.7391,41.7644 C295.9251,49.7134 291.0671,69.2814 298.0561,70.9784 C296.7731,109.8284 332.1301,134.0694 364.7241,118.1324 C392.9351,104.8894 402.8011,62.9714 399.3491,37.5284 C402.8611,44.3144 432.3491,36.9264 418.6031,30.5484" id="ðŸ–-Ink" fill="#000000"/></g>
    </g>
</svg>