<svg xmlns="http://www.w3.org/2000/svg" viewBox="0 0 704 704" fill="none" width="512" height="512">
    <desc>"Open Peeps" by "Pablo Stanley", licensed under "CC0 1.0". / Remix of the original.</desc>
    <mask id="viewbox"><rect width="704" height="704" rx="0" ry="0" x="0" y="0" fill="#ffffff" /></mask>
    <g mask="url(#viewbox)">
        <rect id="background" fill="#ffd5dc" width="704" height="704" x="0" y="0" />

        <g id="body"><path id="skin" d="M705.3 1074a2351.1 2351.1 0 0 1-15.6-101c-1-7.7-2.5-16.4 2.7-22 7.3-8 14-14.8 14.8-26.2.8-10.7-2.8-22.4-5-32.8a809.4 809.4 0 0 0-17.3-64.7c-6.6-21.7-13.9-43.2-21.3-64.6-6.9-20-13.5-40.3-22.5-59.5-17-36.5-46-63.5-81.6-81.6-9-4.5-27-20.5-36.3-24-8.5-3.4-8.5 6.3-16.9 2.6-6.7-2.9-13-6.7-16.7-13.2-4-7-14.3-16.9-15.9-25-3.3-17.4.3-32.2-12-45.3a90 90 0 0 0-41.1-23.8c-33.7-9.3-78.5-2.8-98.8 28.5-9.7 14.9-13 33-26.2 45.1-11.4 10.7-8.8 18-23.6 23.4-.9.3-23.6-4.5-24.4-4.2-16.2-3.5-31.7 6.2-46.5 11.8a325.4 325.4 0 0 0-63 32.3 399.2 399.2 0 0 0-102.3 98.5 482.5 482.5 0 0 0-76.4 161c-1.7 6.4-3.5 13-1.5 19.4 1.7 5.3 5.4 9.2 9.8 12.4 6 4.3 18 7 17.7 15.7-.1 6.6-2.4 13.5-3.5 20-1.3 7.7-2.3 15.5-3.4 23.2-4.8 35.4-8.6 71-10.3 106.6a920 920 0 0 0-.5 106c.1 2.3.8 4.5 2 6.2-1 .4-1.2 2.4.1 2.7l2.7.5a12 12 0 0 0 7 2.4l5.5.2c19.3 4 38.6 7.9 58.1 10.8 23.8 3.5 47.6 6.3 71.5 8.7 49.2 4.8 98 3.2 147.1.6a1877 1877 0 0 1 147.4-2c49.2 1.4 98.4 3.5 147.6 4.4 55 1 110-.5 164.8-5 7.5-.5 12.2-6.5 10.7-14-8.9-44.7-19-89.1-27-134Z" fill="#694d3d"/><path id="shirt" d="m201 597.5 1.2-.4c14.5-5.7 29.6-14.8 45.4-11.4.5-.2 10.8 1.9 17.9 3.2l-6.7 7L247 598c40.7 67.1 88.8 100.7 144.3 100.7 55.5 0 97.7-33.6 126.4-100.7l4-1c.4 0 1 .2 1.5.4 9.3 3.6 27.4 19.6 36.3 24.1 35.6 18 64.5 45 81.6 81.6 8.7 18.6 15.2 38 21.8 57.5l.7 2c7.4 21.4 14.7 43 21.3 64.6 6.3 20.4 12 41 16.6 61.8l.7 2.9c2.2 10.4 5.8 22 5 32.8a29 29 0 0 1-3 10.7l-80.4 29 38.4 261.3c-35.1 1.5-70.3 2-105.5 1.3-49.2-.9-98.4-3-147.6-4.3-47.7-1.2-95.3-.7-143 1.7l-12 .6a946.3 946.3 0 0 1-139.5-1l-3.1-.3v-38.3l16.3-212.9-83-15.6-81.3-39.5a21.7 21.7 0 0 1-5.6-8.8c-1.9-6-.5-12 1-18l.5-1.3a492.8 492.8 0 0 1 76.4-161A399.3 399.3 0 0 1 138 629.7c19.8-13 40.9-23.9 63-32.3Z" fill="#9ddadb"/><path d="M232.2 584.6c5.1-.3 10.3.6 15.4 1 .4.1.6.8 0 .9-9 1.9-18 4.5-26.9 7.1l-3.8 1.2c-10 3-19.8 6-29.6 10-19.4 7.9-37.8 18.5-54.8 30.8C67.2 682.8 20 754.3-9.9 828.3a526 526 0 0 0-24.3 77c-.4 1.6-2 5.4-1 7 .7 1.3 3.6 2.1 5 2.9l4.5 2.3 25.2 12.9 2.3 1.1c38 18.6 78.4 34.4 121 35.5l.4-3.7a342 342 0 0 1 9.9-60c.3-1 1.6-.6 1.7.3 3 23.1 2 46.4 1 69.7-1.8 41-4.3 82.2-6.5 123.3-1.2 20.6-2.6 41-3.9 61.7-1.3 20.5-1.7 41.6-4.7 62-.6 4.6-6 7-10 6.6-4.4-.5-7.9-4.5-8-9 0-11.9 1.5-24 2.4-35.8l2.5-33.8c3.1-41.1 6.8-82.2 10.2-123.3a4771 4771 0 0 1 3.8-43.7C76.4 979.8 34.2 963-6.1 943.5c-.6 13.2-2 26.5-3.4 39.6-3.8 36.8-7.1 73.6-9.6 110.5a2254.2 2254.2 0 0 0-4.2 92.7l-.2 7c0 4.4-.5 8.5-4.3 11.7-3.7 3.3-8.9 3.5-12.6 0-5-4.6-4.2-10.9-4-17.1a1675.6 1675.6 0 0 1 1.8-47.2 1321 1321 0 0 1 10.5-109.5l2-14c3.5-26 7.5-52.7 15.5-77.9-3.1-1.5-6.2-3-9.3-4.7-5.5-2.7-11.2-5.4-16.6-8.4-4.2-2.5-7.9-5.8-9-10.8-1.4-5.5.6-11.5 2-16.9v-.4a502 502 0 0 1 26.6-80 523.2 523.2 0 0 1 67.8-117 353.8 353.8 0 0 1 88.7-83.3 239 239 0 0 1 53.8-25.7 142.6 142.6 0 0 1 42.8-7.5Zm90.1-66c6-6.5 18.1.2 15.2 8.8a108.2 108.2 0 0 1-34.7 52A79.4 79.4 0 0 1 247 598l1.7 2.4a321.1 321.1 0 0 0 46.1 52.6c36 31.2 84.8 48 132 36 37.1-9.4 69.8-38.8 79.4-76.2-1.3.6-3 .9-4.8.5-7.7-1.7-15.3-9.8-20.3-15.6-5.3-6.3-9.5-13-12.6-20.7-5.6-14-7.4-32.1.3-45.7 1-1.7 3-.7 3.3 1l.3 2.5c1.5 12.7 3.3 25 9.3 36.6a76 76 0 0 0 18.2 23.1c2.6 2 5.8 3.6 8.1 6l.5.4c.6-5 4.1-7.3 7.6-7.2 3.3.2 7.3 1.6 8.8 2.3l.1.1a341 341 0 0 1 65.1 42 259 259 0 0 1 88.4 129c7.5 25.3 11.8 51.4 16.3 77.4l2.8 16c4.2 23.9 8.9 48.4 18.4 70.7 2.5 5.7.6 11.1-5.5 13.4A1493 1493 0 0 1 688 953c3.7 16 6 32.5 8.7 48.5 6 34.1 13.2 68 19.4 102 3.2 17.5 6.1 35 9.3 52.3l4.7 25.2 2.4 13.6.1.7c.5 2.4 1 4.9.4 7.3-.8 2.7-2.9 4.6-4.8 6.6-1.6 1.6-3.8 1.6-5.7.7l-.7-.3c-3.4-1.6-6-3.2-7.3-7-.7-2.5-1-5.2-1.5-7.7a3535.6 3535.6 0 0 1-7.8-43.6l-1.6-9.1c-5.2-31.4-10.2-62.9-12.8-94.5-1-14-2.3-28.1-3.5-42.2l-.9-10.5c-1.1-13.3-2.5-27-2.7-40.5l-4.5 1.6L657 964c-5.5 2-12.5 6-18.4 5.2-2.9-.3-5-1.2-6.8-2.9 2 28.8 4.8 57.4 8.5 86a1965.7 1965.7 0 0 0 22 135c.6 3.2 1.4 6.4 1.9 9.6.5 3.7-.5 5.9-2.5 9-1.7 2.4-5 3.7-7.8 2-3.6-2.3-5.5-4.3-6.5-8.4-1-3.7-1.6-7.6-2.3-11.4a1654.2 1654.2 0 0 1-11.4-65.2c-7.8-52-12.7-104.4-15.2-156.8a1388 1388 0 0 1-1.4-77.8c0-13.3.5-26.6 1.4-39.9 1-13.4 3-26.5 4.8-39.8 0-.5.7-.5.7 0 .8 14.9 2.1 29.8 2.8 44.7.6 14.3.9 28.5 1.4 42.8.6 18.7 1.5 37.5 2.7 56.2a9.6 9.6 0 0 1 8.5-3.1c4.7-1 9.7-3.4 14.1-5l16.8-5.5 26.4-8.7a679 679 0 0 1-18-80.8l-2-12.3c-4-24.2-8.5-48.5-15.8-72a229.8 229.8 0 0 0-34.8-68.2 370.2 370.2 0 0 0-52.7-55.3C557 627 539.7 614 523 600c.1.9.2 2 0 3-3.5 25.9-17 50-35.8 67.9-37.7 36-93.6 43.4-142 26.5-46.7-16.3-88-55-102.6-102.8-.3-.8.8-1 1.3-.5l2.4 3.3c0-.4.2-.9.7-1a129 129 0 0 0 46.6-29.2 100.2 100.2 0 0 0 21.3-33.3l.4-1c1.7-5 3.2-10.2 7-14.2Z" fill="#000000"/></g>

        <g id="head" transform="matrix(.99789 0 0 1 156 62)"><path id="skin" d="M412.5 250.2c-1.2-21.9-2.2-44.5-6.4-66a66.6 66.6 0 0 0-12.8-28.8c-6-7.8-13.8-13.8-21.5-19.8-15.7-12-30.7-25.3-48.2-34.6-16.7-8.9-34.9-14.3-53.7-16.7-36.2-4.6-74.2 3.1-105.6 21.7-30.5 18-55 46-70.2 78A195.5 195.5 0 0 0 78 233.7c-3.7 20.6-3.3 41.3-3.2 62.2 0 7 0 14-.4 21-.5 3.4-.9 6.8-.9 10.5-6.9 9-9.7 21.2-5.3 32.4 6.9 17.8 26.4 26 44.2 22.8.8 4.7 2.7 9.2 5.1 13.7 4 7.6 8.6 15 13.5 22.2a194 194 0 0 0 35 39.7c27.1 22.9 61.4 37.9 96.9 40 32.3 2 66.4-7.2 92.8-26.1 13.7-9.9 25.5-22 34.3-36.4a149 149 0 0 0 18.8-55.7c6.3-42.7 6-87 3.8-129.9Z" fill="#694d3d"/><path d="M157.5 24c-1.3-13.7 11.4-24 23.2-20.2 2.2.3 4.3 1 6.2 2.1 5.4 3.3 6.6 8.7 5.1 13.3 2.6 1.9 4.6 4.5 5.6 7.6 1 3.3 1 6.4 0 9.2a15.5 15.5 0 0 1 6.8 17c5.6 1.8 10.1 6 10 12.5 3.3.2 6.6.3 9.9 0a15 15 0 0 1 1.9-3.7c1.7-2.4 4.2-4.1 7-5.1l.3-.2v-.7c-2.1-2.3-3-5.2-.9-8.4.4-.6.9-1 1.4-1.4l.8-4c-1.8-2.7-1.6-7 1.5-8.2-.4-2.5-.5-5.1 0-7.7a22.3 22.3 0 0 1 26.8-17c2.6.2 5.2.8 7.8 1.6 2.9 1 3.6 3.5 3 5.6 4 5.3 5.1 12.5 1.1 19l-.5.7a7.2 7.2 0 0 1 1 10.4 5 5 0 0 1-2 1.4v.2c-.2 3.4-.8 6.9-1.8 10.2 4.2 3.9 7 9.2 7.5 15l4.7.5c.3-1.6 1.2-3 2.7-4.1 1.2-1 2.5-1.7 3.8-2.2a16.6 16.6 0 0 1 8.1-11.5c0-3.6.7-7.2 2.7-10.6 1.7-2.8 4-4.8 6.8-6.1 2-4 5.7-7.3 11.1-9.2 4-1.4 8.3.3 11.4 2.9l.6.6c2.9 2.5 3.9 7 2.8 10.5-.4 1.7-1.3 3.6-2.4 5.2 1.2 5.5-1.3 10-5 12.6 1.2 1.9 2.3 4 3.2 6.1 1.6 3.8-.2 8.5-3 11.5 1.2 2 2 4.3 2.3 6.7 1.3 0 2.6.3 3.9.7.6-2.4 2-4.5 3.9-6.3.8-1.6 1.9-3.2 3-4.6 1.8-2.1 4.1-3.7 6.7-4.3.3-.8.8-1.6 1.4-2.3-.6-7 4-14.2 11.2-14.2a38 38 0 0 1 1.8-4.8c1.5-3.2 4.6-5 7.9-5.6 2-4.8 5.8-8.3 12.4-8.8 14.7-1.3 24 16.5 20.4 29.4-1 3.8-3.6 7.3-7 9.4-.8.6-1.7 1-2.6 1.3a11.5 11.5 0 0 1-4.6 3.8c0 5.7-4 10.4-8.8 11.9.3 3.6-.6 7.2-3.4 10l-.2.2-.4.3v.2c1 2.5.9 5.3-.5 7.6 0 2 .5 4 1.2 6 2.7 2.2 5 4.7 7.2 7.5a5.4 5.4 0 0 1 5.4-1.2 7 7 0 0 1 1.6-.3h2.5l1.3-1.6c3.5-3.5 8.5-3.4 12.5-1.2.8-.6 1.6-1 2.5-1.4 10.2-4.3 16.9 8.6 17.9 16.7.5 4.4-3.3 7.1-7.2 7.4-.7 2.6-3.3 4.6-6.1 5.2a7.7 7.7 0 0 1-8.5 8.5v.8c.3 3-1.3 5-3.4 6a4.7 4.7 0 0 1-2.8 3.2c5 11.6 9 23.8 12.2 35.8A467.7 467.7 0 0 1 421.8 370a189 189 0 0 1-13 53 160 160 0 0 1-24 38.2 124 124 0 0 1-77.1 45.2c-16 2.3-32.3 1.5-47.8-2.8s-32-11.7-41.7-24.9c-2.6-3.5-1.3-9.3 1.6-12.2 3.3-3.4 8.2-3.6 12.3-1.6 7.2 3.5 13.8 8.3 21.1 11.7a99.7 99.7 0 0 0 64.9 4.6 108.3 108.3 0 0 0 62.7-45.9c17-26.4 23-57.4 25.8-88.2 3-33.8 2.7-68-1.3-101.7-2-16.7-5-33.3-8.7-49.7-2.6-11.7-5.5-23.3-8.3-35-2.5-2.3-4.9-4.8-7.2-7.3h-1c-13.8 1.2-28.8-.2-40.5-8.2a41.7 41.7 0 0 1-11.9-12c-4.2-3-8-6.6-11-11-2-2.2-4-4.5-5.8-7-4.6-6-7-12.4-9.8-19.4l-.1-.5c-.6-.9-1-1.8-1.1-2.8a261.5 261.5 0 0 0-24.8-1.7c.5 2.1.9 4.3 1 6.5l5.3.6c8.5 1.4 14 5.8 19.2 12.6a93 93 0 0 1 12 22.5c2 4.8-.5 10-4.6 13.2a89.7 89.7 0 0 0-30.3 7.5c-.3.2-.6.5-.7.8-7.7 2.3-15.4 4.4-23.2 6.2a47.5 47.5 0 0 1-32-2.9c-1.6.2-3.4 0-5.2-1.1-2.8-1.6-5.6-3.4-8.3-5.3-5-2.3-9.7-4.8-14.3-7.7-3.6-4.4-8.8-9-14.6-12.3-.7-1-1.3-2-1.7-3.1-2.5-6.1-1.5-13.5 3.8-17.7 0-1.4.7-2.8 2.1-4l3.4-2.5-.7-.6-1.4-1.1c-3.5 1.9-7 3.8-10.7 5.5l-.3.2c-6.8 4.5-13.3 9.6-20.2 14l-5 3-1.8 2.5c-.2 1.4-.6 2.7-1 4 .8.7 1.6 1.7 2 2.8 2.2.8 4.2 1.9 6.1 3l1.7.8a44 44 0 0 1 6.9-4.5 39 39 0 0 1 23 12.8l1 1 1.8 1.9c.5.7 1.2 1 1.9 1.2 3.5 3.4 6.9 7.1 9.2 11 3.6 6.4 1 14.2-1.6 20.4l-1.4 3c-5.2 6.9-10 14-15 21.1-3.2 3.2-6.5 6.4-9.6 9.7l-1.6 1c-9 4.7-17.9-.6-26.5-3.9l-1-.3c-8.9-3.3-20-5.4-20.5-17v-4.8a176 176 0 0 1 7.6-17 11 11 0 0 1-1.5-2.1c-.9-1.2-1.7-2.4-2.2-3.7-4.2 8-8.1 16.4-13.4 23.4-3 3.8-6.6 5.2-10.5 5.2a9.2 9.2 0 0 1-5.2.9l.2 2 .6 5.4c3.7-.1 7.7 1 11.1 2.3 10.3 4 20.2 9.7 30 14.5 4.8 2.4 11.4 4.3 15.3 8 3 2.8 2.6 6.3 1.5 10l-.6 1.8v.2c-3.2 4-5.4 8.8-7 13.7a54.7 54.7 0 0 0-5.6 14.2c-1 4-1.7 8-2.2 12v1.1l-.2.1v1a122.6 122.6 0 0 0 .7 27.3c-1.2 3.5-6.5 4-9.2 1.8a87 87 0 0 0-9.5-6.4 20 20 0 0 1-14.7.7c-.3 0-.7-.2-1-.4a71 71 0 0 0-11 2.4l-1.1.3c-5.7 1.8-11 3.9-15.4 8.2a37 37 0 0 0-8.5 30.6c1.5 10.2 7.4 21.8 18 24.7 4.4 1.2 9 1.2 13.3-.5 1.6-.6 3-1.5 4.3-2.6 1.7-1.2 3-2.6 5-3.4 1.8-.7 4.9-.7 5.8-.7 2.7-.2 5 2 5.8 4.4 2.5 7.5-1.2 13-7.1 16.7 2.5 3.8 4.8 7.8 7.3 11.4 4.6 6.6 9.5 13.1 14.6 19.5a183 183 0 0 0 25.2 26l1.6 1.3c2.7 2.3 5 4.6 5 8.5-.1 2.2-1.6 4.2-3.8 4.8-7.6 2.1-15.7-8-20.7-13l-.3-.5c-6-6.1-11.7-12.7-16.8-19.6a115.8 115.8 0 0 1-17.6-35.7 39.2 39.2 0 0 1-33-1.1 18 18 0 0 1-3.3 5c-5 5.3-12.3 6.8-19.3 6.7-9 0-17.1-5.7-17.4-15.3-.2-6.2 3-11.6 7.7-15.2 1.7-4.3 5-7.8 9.8-9a57 57 0 0 1-1.3-30.5C55.6 320.4 61 311 69 305l.4-.4-.2.1-5.5 3.3-.9.4c-8.2 4.7-17.8 8.7-27.4 6.2-15.3-4-16.7-23-3.5-30.5 4.5-2.6 9.8-3.6 15-4.3.8-1 1.8-2 2.8-2.8.2-3.5 2-7 5-9.2 3.3-2.2 6.8-2.4 10.2-1.4a19.8 19.8 0 0 1 7.9-3.6v-3.1c-.3-1-.4-2-.5-3.1l-.7-.1a23 23 0 0 1-9.1-4.3 18.3 18.3 0 0 1-15.6 1.8c-5.7-1.6-11-7-13.8-13A29 29 0 0 1 23 237c-5.8 1.4-12-.8-14.3-6.8-1.7-4.4.4-9.7 4-12.4 1.1-.8 2.3-.7 3.2 0a17.2 17.2 0 0 1 1.2-3c-.1-5.8 2-11.5 7.3-14.6 4-2.3 8.6-2.6 12.8-1.2 2.4-2.2 5.3-3.8 9-4.7 6.4-1.6 13.1.2 17.7 5l3-.6a13 13 0 0 1 8-10.7c.9-3 2.2-5.8 4.4-8l-3-3.2-2.7-.6a18.4 18.4 0 0 1-10.4-8.4 16 16 0 0 1-13-2 17 17 0 0 1-6.7-8.7l-3.6-1.3a12.7 12.7 0 0 1-7.2-6c-1.7.6-3.7.6-5.2-.6-9.3-7.2-3-19 7-21.3 4-1 7.4-.4 10.6 1 2.2-2.1 5-3.7 8.2-4.4a17 17 0 0 1 11 1.4h1c3.4-2.6 7.8-3.8 13.2-2.5a20.4 20.4 0 0 1 13.2 9.3 15 15 0 0 1 12.9-3.8l3.3-4.6a12.1 12.1 0 0 1-4.7-9.1c-.9-.5-1.7-1.1-2.4-1.7-3.8-2.6-7-6-8.4-10.4-.7-2.2-1-4.5-1-6.8l-1.1-.3c-16-4.6-22.6-26.6-10-38.4C87 51.5 97 55 103.5 59.6c4.4 3.1 8 7 11.2 11.3h.4c4.7 1.1 8.3 4.1 11 7.9 4.8-.8 10 0 14.5 3.4 3.3 2.4 5.4 5.4 6.4 8.7 4.3-2.3 8.8-4.2 13.3-6l1-2.1c.7-1.4 1.6-2.6 2.6-3.6a20.6 20.6 0 0 1-3-4.3 19.5 19.5 0 0 1 1.9-21.1 21.3 21.3 0 0 1-.6-16c-2.6-4.2-4.3-8.8-4.7-13.7Zm-70 307.3c2.8-.7 3.4-1.6 6.6-1.3a44.8 44.8 0 0 1 22.5 9c6.5 4.8-1.3 13.9-6.4 8.7l-.2-.2a51.9 51.9 0 0 0-11.7-9.2c-2.3-1.3-4.5-2.2-6.9-3.4-1.6-.7-2.5-2-4-2.8-.3-.2-.3-.7.1-.8Zm15-73.3c-1.6-.6-3.4.6-3.8 2-.4 1.7.5 3.1 2 3.7h.1c2 .8 3.8 2 5.3 3.3l.3.3c2.8 2.7 7-1.5 4.2-4.2-2.3-2.3-5-4-8.2-5.1Zm71.7-109.2c-1.6-3.5-6.6-.6-5.3 2.8l.1.2a11 11 0 0 1-.7 9.6l-.2.3c-1.8 3.4 3.3 6.4 5.2 3 2.8-5 3.3-10.7.9-16Zm43.6-43-.1-.4c-.7-3.8-6.5-2.2-5.8 1.6 1.2 6.3 5.8 10.4 11.6 12.5 3.7 1.3 5.2-4.5 1.6-5.8-3.9-1.4-6.5-4-7.3-8Zm94.5-6.1h-1l.8 1 .2-1Z" fill="#000"/></g>

        <g id="face" transform="translate(315 248)"><path d="M95.4 211.2c16-12.4 100.6-16 109-8 8.4 8 28.2 31.2-9.6 46-37.8 14.7-86 13.9-99.4 0-13.5-13.9-16-25.6 0-38Z" fill="#fff"/><path d="M168 192.8c8.4-.3 17-1 25.4.3 14 2 28.3 12 28.3 27.6-.1 26-29.4 35.9-50.4 39.3l-2.3.3c-25.1 4-55.2 7.7-77.7-6.6-10.7-6.7-17.4-18-14.3-30.8a36.2 36.2 0 0 1 24.7-24.7c13.5-4.4 27.4-2.1 41-.3l3 .4c3.2-1 6.4-2.4 9.6-3.4a50 50 0 0 1 12.6-2Zm-3.2 33.4-13.1 1.7-14.9 1.9c.7 6.7.8 13.5.6 20.4a185 185 0 0 0 26.5-2.8c.6-7 1-14.1 1-21.2Zm-39 5c-12 1.3-24 2.5-36 3.5 2.8 5.2 9.7 8.5 15 10.4 6.1 2.1 12.4 3.4 18.8 4 1-5.8 1.8-11.9 2.2-18Zm87-10c-9 1.5-18.4 2.1-27.4 3.3l-10.6 1.3c1.1 6.4 2 12.9 2.5 19.4l1.6-.3a70.3 70.3 0 0 0 21.4-7.3l.6-.3c5.2-3.2 12.1-9.4 12-16.1Zm-86-10c-5.9.5-12.1.6-17.8 1.9-8.4 1.8-18.4 6.4-20 15.8a10 10 0 0 0 .2 4.3c12.3-2.3 24.7-4.5 37-6.5.4-5.2.5-10.4.6-15.5Zm32.1-3-8 .7c-6 .5-12 .7-18 1.1 1.4 4.7 2.4 9.4 3.1 14.2l14.8-2.2 14-2v-3.6l-.1-7.2h-.6l-5.2-1Zm50 5.6c-5.7-5-16.2-4.7-22.9-4.5-5 .1-10 .7-15.2.7 1 3 1.9 6 2.6 9.2l10.8-1.6c8.2-1.2 16.4-2.8 24.6-3.8Zm-38-69.4c7.5 4.6 19 15.3 10.8 26.6-9.5 10-23.3-1.4-30-6.6-6.4-4-13.4 6.3-7.6 11 49 36.3 69-29.8 30.5-36.4-4.2-.8-5.8 4-3.8 5.4Zm73.9-25.6c-2.6 16.9-29.1 40.4-32.7 40.4-3.6 0-34.5-30-34.5-43.3 0-13.3 13.3-31.2 34.5-8.7 12-15 35.3-5.3 32.7 11.6Zm-118-15c6.3 9 4 20.4-2.4 28.7-5.6 7.4-24.6 23.9-27.5 24.3-3.7.5-20.4-18.4-24.2-21.6-4-3.1-14.6-13.3-12-22.8 2.4-9 15.5-24.4 34.6-8.6 6-15.1 26-8.3 31.6 0Zm-62-29.4c9.7-11 30.5-22.6 42-7.7 2.8 3.8-.3 10-4.6 11-5.2 1.2-10.6.4-15.8 2a49.5 49.5 0 0 0-13.3 6.8c-4.7 3.2-9 6.7-12.9 10.7-2.3 2.4-5.3 8-8.9 8.1-3.6.1 1.2-11 1.6-12 2.9-7 6.8-13.3 11.8-18.9Zm118.5-26.8c5.7-2.7 11.2-1.5 16.9 0l2.4.7a58 58 0 0 1 17.7 7.4l.4.3c6.6 4.7 16.5 14.7 11.8 23.5-.3.6-1 .6-1.6.4-6.1-2.7-10.7-8-17.2-10.3l-1.2-.4a64.3 64.3 0 0 0-21-4.2c-4.8 1.5-11.2.3-12.5-5.6v-.3l-.1-.6c-.8-4 .3-9 4.4-11Z" fill="#000"/></g>

        <g id="facial-hair" transform="translate(279 400)"><path d="M209.56,138.063869 C179.966667,142.412366 158.546667,141.513713 145.3,135.367911 C125.49,126.178077 106.22,117.286552 88.25,105.11363 C69.84,92.6423999 54.22,77.8328139 43.07,58.8757739 C32.7,41.2370661 24.08,22.5205977 15.4,3.94847219 C14.8927599,2.8631581 9.91,-7.92614068 8.15,-11.5443372 C5.44,-17.1544662 -2.48276151,-15.3934895 -2.48276151,-6.68479136 C-2.48276151,2.0239068 -2.87,67.9754124 12.35,93.9186509 C26.08,117.350322 49.35,133.722402 72.47,148.012353 C98.05,163.813094 132.03,180.893676 162.55,185.406799 C190.17,189.486893 221.69,178.026063 241.69,159.136383 C262.6,139.380645 268.52,112.541703 279.31,86.8390358 C281.72,81.0941866 273.176247,77.6294969 270.67,83.2793543 C267.523643,90.3722187 247.153643,108.633723 209.56,138.063869 Z" id="ðŸ–-Ink" fill="#000000"/></g>

        <g id="eyewear" transform="translate(203 303)"><path d="M389.0901,63.2824 C379.5561,127.7714 313.0021,134.9034 301.1771,70.8814 C303.0751,70.0504 304.4401,68.4144 304.1551,65.2384 C304.0881,51.2864 308.4191,36.5404 321.0051,28.7814 C334.0111,20.7754 349.2321,19.9814 364.2831,20.1834 C393.0051,19.4994 392.4011,43.5064 389.0901,63.2824 M290.7581,35.2354 C281.7441,34.8554 270.3401,35.1734 262.2651,40.6654 C260.0451,34.6874 254.2771,28.3044 248.4491,24.8914 C270.1111,25.5254 292.4091,23.3934 314.2331,21.7384 C309.0091,25.2994 304.1491,30.6494 300.9901,36.8344 C298.0591,35.2714 293.8611,35.4174 290.7581,35.2354 M251.0261,70.1194 C226.0311,156.1554 163.6401,118.6554 156.8381,107.6294 C144.5691,89.3834 142.2611,45.0294 152.9481,33.1704 C168.2461,22.4464 189.9031,25.2064 207.9751,24.9434 C241.1761,25.3914 264.7561,35.3234 251.0261,70.1194 M418.6031,30.5484 C411.8121,29.6604 404.5551,29.4814 398.2411,32.4714 C396.2971,24.2084 390.1941,17.3004 383.3031,14.2604 C382.4691,13.2144 382.5941,12.6524 379.7451,12.8094 C362.2501,7.5514 342.6731,10.3334 325.8611,15.7254 C299.3091,17.9614 271.4521,19.7244 244.6771,22.8054 C219.5951,11.5414 143.9021,9.8904 139.1981,37.6534 C133.2811,36.7684 123.2041,32.1114 118.2321,38.4284 C81.7611,32.2454 44.0761,40.8384 7.4471,44.6654 C-1.7729,46.3634 -6.5219,64.6614 3.9441,64.4114 C9.8281,62.8144 3.7631,53.0174 11.6861,52.2804 C47.0271,48.4204 81.5951,42.9444 117.2981,42.3034 C116.0561,48.4684 140.9121,48.8694 141.2791,45.2694 C141.3321,45.2964 141.3881,45.3144 141.4421,45.3384 C135.3001,68.2284 140.8441,101.1704 151.9441,115.3644 C167.4961,133.9504 206.5411,139.2824 223.8541,127.3244 C246.1871,116.2874 269.4201,60.8854 262.8941,42.4794 C274.7381,38.7254 286.4471,39.8524 298.7391,41.7644 C295.9251,49.7134 291.0671,69.2814 298.0561,70.9784 C296.7731,109.8284 332.1301,134.0694 364.7241,118.1324 C392.9351,104.8894 402.8011,62.9714 399.3491,37.5284 C402.8611,44.3144 432.3491,36.9264 418.6031,30.5484" id="ðŸ–-Ink" fill="#000000"/></g>
    </g>
</svg>