<svg xmlns="http://www.w3.org/2000/svg" viewBox="0 0 704 704" fill="none" width="512" height="512">
    <desc>"Open Peeps" by "Pablo Stanley", licensed under "CC0 1.0". / Remix of the original.</desc>
    <mask id="viewbox"><rect width="704" height="704" rx="0" ry="0" x="0" y="0" fill="#ffffff" /></mask>
    <g mask="url(#viewbox)">
        <rect id="background" fill="#ffd5dc" width="704" height="704" x="0" y="0" />

        <g id="body"><path id="skin" d="M705.3 1074a2351.1 2351.1 0 0 1-15.6-101c-1-7.7-2.5-16.4 2.7-22 7.3-8 14-14.8 14.8-26.2.8-10.7-2.8-22.4-5-32.8a809.4 809.4 0 0 0-17.3-64.7c-6.6-21.7-13.9-43.2-21.3-64.6-6.9-20-13.5-40.3-22.5-59.5-17-36.5-46-63.5-81.6-81.6-9-4.5-27-20.5-36.3-24-8.5-3.4-8.5 6.3-16.9 2.6-6.7-2.9-13-6.7-16.7-13.2-4-7-14.3-16.9-15.9-25-3.3-17.4.3-32.2-12-45.3a90 90 0 0 0-41.1-23.8c-33.7-9.3-78.5-2.8-98.8 28.5-9.7 14.9-13 33-26.2 45.1-11.4 10.7-8.8 18-23.6 23.4-.9.3-23.6-4.5-24.4-4.2-16.2-3.5-31.7 6.2-46.5 11.8a325.4 325.4 0 0 0-63 32.3 399.2 399.2 0 0 0-102.3 98.5 482.5 482.5 0 0 0-76.4 161c-1.7 6.4-3.5 13-1.5 19.4 1.7 5.3 5.4 9.2 9.8 12.4 6 4.3 18 7 17.7 15.7-.1 6.6-2.4 13.5-3.5 20-1.3 7.7-2.3 15.5-3.4 23.2-4.8 35.4-8.6 71-10.3 106.6a920 920 0 0 0-.5 106c.1 2.3.8 4.5 2 6.2-1 .4-1.2 2.4.1 2.7l2.7.5a12 12 0 0 0 7 2.4l5.5.2c19.3 4 38.6 7.9 58.1 10.8 23.8 3.5 47.6 6.3 71.5 8.7 49.2 4.8 98 3.2 147.1.6a1877 1877 0 0 1 147.4-2c49.2 1.4 98.4 3.5 147.6 4.4 55 1 110-.5 164.8-5 7.5-.5 12.2-6.5 10.7-14-8.9-44.7-19-89.1-27-134Z" fill="#ae5d29"/><path id="shirt" d="m201 597.5 1.2-.4c14.5-5.7 29.6-14.8 45.4-11.4.5-.2 10.8 1.9 17.9 3.2l-6.7 7L247 598c40.7 67.1 88.8 100.7 144.3 100.7 55.5 0 97.7-33.6 126.4-100.7l4-1c.4 0 1 .2 1.5.4 9.3 3.6 27.4 19.6 36.3 24.1 35.6 18 64.5 45 81.6 81.6 8.7 18.6 15.2 38 21.8 57.5l.7 2c7.4 21.4 14.7 43 21.3 64.6 6.3 20.4 12 41 16.6 61.8l.7 2.9c2.2 10.4 5.8 22 5 32.8a29 29 0 0 1-3 10.7l-80.4 29 38.4 261.3c-35.1 1.5-70.3 2-105.5 1.3-49.2-.9-98.4-3-147.6-4.3-47.7-1.2-95.3-.7-143 1.7l-12 .6a946.3 946.3 0 0 1-139.5-1l-3.1-.3v-38.3l16.3-212.9-83-15.6-81.3-39.5a21.7 21.7 0 0 1-5.6-8.8c-1.9-6-.5-12 1-18l.5-1.3a492.8 492.8 0 0 1 76.4-161A399.3 399.3 0 0 1 138 629.7c19.8-13 40.9-23.9 63-32.3Z" fill="#9ddadb"/><path d="M232.2 584.6c5.1-.3 10.3.6 15.4 1 .4.1.6.8 0 .9-9 1.9-18 4.5-26.9 7.1l-3.8 1.2c-10 3-19.8 6-29.6 10-19.4 7.9-37.8 18.5-54.8 30.8C67.2 682.8 20 754.3-9.9 828.3a526 526 0 0 0-24.3 77c-.4 1.6-2 5.4-1 7 .7 1.3 3.6 2.1 5 2.9l4.5 2.3 25.2 12.9 2.3 1.1c38 18.6 78.4 34.4 121 35.5l.4-3.7a342 342 0 0 1 9.9-60c.3-1 1.6-.6 1.7.3 3 23.1 2 46.4 1 69.7-1.8 41-4.3 82.2-6.5 123.3-1.2 20.6-2.6 41-3.9 61.7-1.3 20.5-1.7 41.6-4.7 62-.6 4.6-6 7-10 6.6-4.4-.5-7.9-4.5-8-9 0-11.9 1.5-24 2.4-35.8l2.5-33.8c3.1-41.1 6.8-82.2 10.2-123.3a4771 4771 0 0 1 3.8-43.7C76.4 979.8 34.2 963-6.1 943.5c-.6 13.2-2 26.5-3.4 39.6-3.8 36.8-7.1 73.6-9.6 110.5a2254.2 2254.2 0 0 0-4.2 92.7l-.2 7c0 4.4-.5 8.5-4.3 11.7-3.7 3.3-8.9 3.5-12.6 0-5-4.6-4.2-10.9-4-17.1a1675.6 1675.6 0 0 1 1.8-47.2 1321 1321 0 0 1 10.5-109.5l2-14c3.5-26 7.5-52.7 15.5-77.9-3.1-1.5-6.2-3-9.3-4.7-5.5-2.7-11.2-5.4-16.6-8.4-4.2-2.5-7.9-5.8-9-10.8-1.4-5.5.6-11.5 2-16.9v-.4a502 502 0 0 1 26.6-80 523.2 523.2 0 0 1 67.8-117 353.8 353.8 0 0 1 88.7-83.3 239 239 0 0 1 53.8-25.7 142.6 142.6 0 0 1 42.8-7.5Zm90.1-66c6-6.5 18.1.2 15.2 8.8a108.2 108.2 0 0 1-34.7 52A79.4 79.4 0 0 1 247 598l1.7 2.4a321.1 321.1 0 0 0 46.1 52.6c36 31.2 84.8 48 132 36 37.1-9.4 69.8-38.8 79.4-76.2-1.3.6-3 .9-4.8.5-7.7-1.7-15.3-9.8-20.3-15.6-5.3-6.3-9.5-13-12.6-20.7-5.6-14-7.4-32.1.3-45.7 1-1.7 3-.7 3.3 1l.3 2.5c1.5 12.7 3.3 25 9.3 36.6a76 76 0 0 0 18.2 23.1c2.6 2 5.8 3.6 8.1 6l.5.4c.6-5 4.1-7.3 7.6-7.2 3.3.2 7.3 1.6 8.8 2.3l.1.1a341 341 0 0 1 65.1 42 259 259 0 0 1 88.4 129c7.5 25.3 11.8 51.4 16.3 77.4l2.8 16c4.2 23.9 8.9 48.4 18.4 70.7 2.5 5.7.6 11.1-5.5 13.4A1493 1493 0 0 1 688 953c3.7 16 6 32.5 8.7 48.5 6 34.1 13.2 68 19.4 102 3.2 17.5 6.1 35 9.3 52.3l4.7 25.2 2.4 13.6.1.7c.5 2.4 1 4.9.4 7.3-.8 2.7-2.9 4.6-4.8 6.6-1.6 1.6-3.8 1.6-5.7.7l-.7-.3c-3.4-1.6-6-3.2-7.3-7-.7-2.5-1-5.2-1.5-7.7a3535.6 3535.6 0 0 1-7.8-43.6l-1.6-9.1c-5.2-31.4-10.2-62.9-12.8-94.5-1-14-2.3-28.1-3.5-42.2l-.9-10.5c-1.1-13.3-2.5-27-2.7-40.5l-4.5 1.6L657 964c-5.5 2-12.5 6-18.4 5.2-2.9-.3-5-1.2-6.8-2.9 2 28.8 4.8 57.4 8.5 86a1965.7 1965.7 0 0 0 22 135c.6 3.2 1.4 6.4 1.9 9.6.5 3.7-.5 5.9-2.5 9-1.7 2.4-5 3.7-7.8 2-3.6-2.3-5.5-4.3-6.5-8.4-1-3.7-1.6-7.6-2.3-11.4a1654.2 1654.2 0 0 1-11.4-65.2c-7.8-52-12.7-104.4-15.2-156.8a1388 1388 0 0 1-1.4-77.8c0-13.3.5-26.6 1.4-39.9 1-13.4 3-26.5 4.8-39.8 0-.5.7-.5.7 0 .8 14.9 2.1 29.8 2.8 44.7.6 14.3.9 28.5 1.4 42.8.6 18.7 1.5 37.5 2.7 56.2a9.6 9.6 0 0 1 8.5-3.1c4.7-1 9.7-3.4 14.1-5l16.8-5.5 26.4-8.7a679 679 0 0 1-18-80.8l-2-12.3c-4-24.2-8.5-48.5-15.8-72a229.8 229.8 0 0 0-34.8-68.2 370.2 370.2 0 0 0-52.7-55.3C557 627 539.7 614 523 600c.1.9.2 2 0 3-3.5 25.9-17 50-35.8 67.9-37.7 36-93.6 43.4-142 26.5-46.7-16.3-88-55-102.6-102.8-.3-.8.8-1 1.3-.5l2.4 3.3c0-.4.2-.9.7-1a129 129 0 0 0 46.6-29.2 100.2 100.2 0 0 0 21.3-33.3l.4-1c1.7-5 3.2-10.2 7-14.2Z" fill="#000000"/></g>

        <g id="head" transform="matrix(.99789 0 0 1 156 62)"><path id="skin" d="M397.2 173.7c-33-46.7-115.8-52-168.2-51.7-103.4-.9-125 118-130.5 201.3a46.6 46.6 0 0 0-29 14.4c-8.9 10.6-12 28.7-3.6 40.5C71.4 386 80 388.7 89.2 389c30.2-2.9 36.4 24 51.3 44.2 38.1 51.5 104.2 68.3 164.9 68.5 20.5.6 45.4 2.1 58.5-17.3 41.7-72.2 42.6-168 45.2-249.7.3-21 .2-43.1-11.9-61.1Z" fill="#ae5d29"/><path d="M468.4 214.2c.4.8.7 1.7.9 2.6.5 3-.6 5.4-2 7.6l.3 4.4c.5 7.5-1.2 17.8-7.8 20.8l-.4.4c-.5.8-1.2 1.6-2.3 2a9 9 0 0 1-1 .7l-.1.2a14.3 14.3 0 0 0 .4-.5 21.7 21.7 0 0 1-11 1.3c-2.3.9-4.6 1.5-6.6 2-6.1 1.5-14 2.7-20 .1-1.8-.7-3.3-1.7-4.4-3l.5 14a859 859 0 0 1-.9 74.8 589.6 589.6 0 0 1-3.7 39.1A271.7 271.7 0 0 1 393 444a138 138 0 0 1-21 36 93.6 93.6 0 0 1-32.2 25.1 95.3 95.3 0 0 1-39.6 6.5c-5.1-.1-10.5-1-15.6-1.9h-.3c-4-.7-8-1.5-12-2.6a128.6 128.6 0 0 1-22.3-7.5l-6.6-2.5c-2.8-1-5.5-2.3-8.2-3.8L228 490a99.9 99.9 0 0 1-11.8-6.8l.1-.7c-.1-.3-.1-.6.3-.9.2-.2.7-.1 1.1 0l-1.6-.9a.8.8 0 0 1 0-1.3l.3-.2.1-.6c-.2-.4-.3-.8.1-1 .6-.6 2 .2 2.6.6h.2l1.1.7.8.4c0-.1 0-.2.2-.3l-2.8-1.5c-.5-.3-1.3-.9-.5-1.5.6-.5 2.1.4 2.9.8l.3-.1a18.3 18.3 0 0 0-1-.6c-1-.5-.3-2 .6-1.5h.2l.2.2c.6 0 1.5.4 2 .7 3.1 2 6.4 3.7 9.8 5.2a427.8 427.8 0 0 0 13.8 6 146.7 146.7 0 0 0 48 11.7h7.7l13.4-1.3 1.4-.2a74.1 74.1 0 0 0 18.7-5.4c4.2-2 8.4-4.5 12.3-7.5l7.4-7.3 7.3-7.4 4.5-6.1c5.8-8.3 10.4-17.5 14.2-27l6-17.4a237.5 237.5 0 0 0 6.4-25.6c2.2-10.8 3.5-21.6 4.5-32.5 2-19.8 2.5-39.6 2.6-59.5 0-11.9 0-23.7-.3-35.6 0-6.9-.2-13.7-.3-20.6a2668.7 2668.7 0 0 0-.4-25c0-.5.2-.8.6-.8l-.1-15.6c0-.4.1-.6.3-.7v-1.3a59 59 0 0 0-8.4-19c-1-1.7-2.3-3.3-3.8-4.7l-1-.6a244.4 244.4 0 0 1-2.8-2l-1.8-1-1.7-1.2c-.7-.3-.3-1.2.2-1.5l-.3-.2-4.5-3.9c-.3.2-.7.1-1 0a66 66 0 0 0-2.7-2.6 60.3 60.3 0 0 0-6.8-3.8 100.6 100.6 0 0 0-13.9-5.3l-.2-.1H351l-2.3-.2a1094.6 1094.6 0 0 0-169.3 5.7l-6.5.6c-8.2.7-17 1.4-24 5l-1 .5c.5 4 2 7.8 3.4 11.5l.7 1.7a53 53 0 0 1 4.4 20.2c-.1 5-1.2 9.7-2.7 14.4-.8 6.6-2.9 13-5 19.2a272 272 0 0 0-16 95.3c0 .9-.3 1.6-.6 2.3v.1l.6 4.2c1 5.5-6.4 8.3-8.9 4.6a1 1 0 0 1-.6.3c-.7 0-1.7-1-2-1.5l-1.2-2-.2-.1.4.8.4.8c.4 1-1.2 1.3-1.7.5l-1.4-2c-.3.2-.5.2-.7 0a33 33 0 0 0-5.5-7 25.6 25.6 0 0 0-10.8-5.1 37 37 0 0 0-20 2.8l-7.9 5.5-1.8 2a37.4 37.4 0 0 0-4.6 7.7v.2l-.1.3a31 31 0 0 0-1.5 11.5v4.5c.4 3.9 1.4 7.7 3 11.3a16 16 0 0 0 3.3 5.7c.8 1.4 1.7 2.7 2.8 3.9 2 1.4 4.4 2.6 6.8 3.5l1.9.5a39.8 39.8 0 0 0 22.3.8c2.5-.4 5-1.2 7.3-2.2 2.2-1.1 4.4-2.5 6.3-4 .3-.2.6-.1 1 0l.2-.1 1-.9c.3 0 .4 0 .5.3l.2-.1c.7-.6 3 1.1 2 2.1l1.2 1c1.7 0 5.2 3.2 4.5 3.7l-3 2.4c1 .6 2.1 1.7 1.6 2.1-1 1-2.2 1.9-3.3 2.6a30.4 30.4 0 0 1-5.4 3.1c1.7 3.4 3.4 6.7 4.9 10.1 1 2.4 2.2 4.7 3.5 7 1.7 3.4 3.8 6.6 6.2 9.6a109.1 109.1 0 0 0 17.3 19.5l4.6 3c4 3 8.3 5.6 12.8 7.8.5.2 1 .9.3 1.4l4.4 2.5c.7.4 1.8 1 1 1.7-.6.4-2.4-.4-3.5-1l.3.2h.2v.1c.5.3 2.2 1.2 1 1.7-.6.1-1.1 0-1.7-.2l-1.6-.7c0 .1-.1.3-.4.5h-.7l3.7 2c.4.2 2 1.1 1 1.7-.6.1-1.1 0-1.6-.2a27.8 27.8 0 0 1-3-1.4l-.4-.2h-.5l3 1.5c.6.3 1.6 1 .7 1.6-.6.5-2.2-.3-3.1-.9l-.2.3c-.7.4-2.1-.4-2.8-.8-.2 0-.2-.1-.3-.2a155.4 155.4 0 0 1-22.6-14.3 102.4 102.4 0 0 1-21.5-22.8c-4.6-6.5-8-13.3-11.3-20.5 0-.1 0-.4.2-.7a210 210 0 0 1-2-5l-5.2.4c-4 .2-8-.1-11.7-1-4.6-.6-9.1-1.9-13.2-3.9a69.8 69.8 0 0 1-6.9-4 35.3 35.3 0 0 1-18.7-28.3 43 43 0 0 1 1.5-21.5 36 36 0 0 1 12.9-19.3 34.9 34.9 0 0 1 11-6.2l-.7-1.9c-.3.1-1.3 0-1.4-.4l-.5-1.6-.4-1-.7.2v1c0 .3-.5 2-.8 1.1l-.5-1.6-.4-1-.5-.5-.1-.3v.3c0 .2-.6 1.6-.7 1.3-1.7-4.7-3-9.6-4.2-14.5a159.4 159.4 0 0 1-3-15.8l-.2-.7v-1a165.8 165.8 0 0 1-1.8-26.5h-.2l-.1.1c-2.6 1.1-5.4 2-8.2 2.8a28 28 0 0 1-31 11l-1 .2c-1.6.2-2.9-.1-4.2-.5a18.1 18.1 0 0 0-3.2-.6c-3.3-.4-6-.8-8.3-2.8-.7 0-1.4 0-2-.3-6.4 1.6-13.1-1.8-15.4-8.8a23.6 23.6 0 0 1-8.8-9.3 54.5 54.5 0 0 1-9-17.8h-.1c-1-2.2-1.5-4.5-1.5-6.8-1-6.5-.8-13 1.2-18.9a26.4 26.4 0 0 1 9.3-19.4c0-3.6 1.6-7.7 3.7-10.4a22.1 22.1 0 0 1 16.6-8.8c3.3-8.4 13.3-10.4 21.9-7.6 3.5-3.6 8.8-5.4 14-4.8a20 20 0 0 1 11.3 5.6l2.5.7c2.7-1.2 6-1.5 8.8-.7 5 1.3 8.4 5.1 10.7 9.5l2.1 1.6c.8.3 1.5.8 2 1.3 1 .5 1.8 1.3 2.3 2.5 1.2 1.3 2.4 2.7 3.5 4.2a207 207 0 0 1 2.5-5.4c1.4.4 3-.2 3.7-2l.2-.5c4.4-11.8 12.3-32.7 19.8-42.4a51.5 51.5 0 0 1-31.7 8.7c-5.7 1-11.5 1.1-16.9 0a88.6 88.6 0 0 1-13.7-6.6l-.3-.3c-.7 0-1.4 0-2.2-.2a13.2 13.2 0 0 1-8.2-6.7 23 23 0 0 1-7-15.4c-.6-3-.5-6.3.5-9.2l.3-.6a25.6 25.6 0 0 0 .3-1c.3-1 .7-2 1.2-2.9.2-1 .5-1.8 1-2.7v-1.3c-3-6-2-13.8 2.8-18.7a12 12 0 0 1 2-9.3c1.3-2 3.3-3.6 5.5-4.8l1.6-.5 2.6-2c.2-5.9 6-9.3 11.1-12.2l.8-.4c1.6-1 2.8-2.3 4-3.7 1.3-1.5 2.5-3 4.3-3.9 3.1-1.7 7-2 10.6-2.4.8 0 1.5-.2 2.3-.3 10-1.2 20.5-2 30.5-1 5.5.6 10.1 3.3 12 7.7 4.8.5 9 4 12.4 7.5 4.2 4.4 7.7 9 9 14.9.8.4 1.5 1 2.2 1.6 0 4-.5 8.2-1.7 12a10 10 0 0 1-1.5 6.5c.2 1.9 0 3.7-.3 5.6 2.2 4 .1 10.1-3 14.2l-.1 2.2c.2 0 .4-.2.5-.3 9.2-7.9 18.6-10 28.7-12.3 5.8-1.4 11.9-2.8 18.3-5.4a323.6 323.6 0 0 1 48-5.7h-.3c-8.2-1.4-16-4.7-22.8-9.6a11.7 11.7 0 0 1-8.1-7l-.8-1c-5-1.2-9-5.6-8.3-11.3a15.1 15.1 0 0 1-3.3-13.5c-1.8-3-2-6.8-.6-10-2.9-3.5-3-8.3-.9-12.2a8.3 8.3 0 0 1 0-10.1 8.4 8.4 0 0 1 4.7-3.1 9.5 9.5 0 0 1 5.6-6.5c.4-2 1.5-3.7 3.5-5.1 1-.7 2-1.1 3-1.3a11 11 0 0 1 4.6-5.5c2.7-1.6 5.9-1.8 8.7-1 3.7-5.6 12-7.8 17.6-3.6 4.7-3 10.7-2.3 15 1.2 5-3 11.4-1.8 15.4 2.4 6.5-3.5 15-.9 18.4 5.8 6.6-.7 12.7 3.5 14.4 9.7l.9.7c4 .3 7.6 1.8 9.8 5.4 1.1 1.8 1.6 4 1.5 6a10 10 0 0 1 4.5 13.2c3.3 3.5 4.2 8.8 1.9 13.2 1 1.6 1.4 3.5 1.3 5.5 0 3-1.5 5.4-3.3 7.4a10 10 0 0 1-2.4 12.7c-2.2 7.8-7.8 13-16.3 16.2a86 86 0 0 1-13.4 3.7c18.3 2.5 36.3 6.8 53.6 13.2 1 .4 1.7.3 2.3-.1l.5.2.6.3a188 188 0 0 1 14 8.5V98c0-4.1.4-8.2 1.5-12-1.5-2-2.5-4.2-3.1-6.5-1.5-5.8 1.3-13.9 6.3-15.8 1.7-4.9 5.7-8.4 10.5-9.7l1.3-1c1-.7 2.1-1.2 3.3-1.5.6-2.6 2-5 4.4-6.7 3.4-2.4 7.5-2.6 11-1.3l2-.6a14.2 14.2 0 0 1 19.7 1.2c3.5-1.6 7.5-1.7 11 .4 2.9 1.7 4.7 4.5 5.3 7.5 5.4.1 10.3 3.7 11.8 9 5 .5 9 4.4 9.9 9.3 3 .4 6 1.9 7.8 4.8a9.9 9.9 0 0 1 1.3 4.3c1.6.8 3 2 4.1 3.5 2 2.6 2.3 5.7 1.6 8.6l.2.4.3.6c.5 1 1 2.2 1.3 3.4 1.6 2.4 2.4 5.3 2.2 8.3a40.8 40.8 0 0 1-.3 27.2c-.4 1.8-1 3.6-1.7 5.4-1.6 2.2-3.4 4.4-5.3 6.5a41 41 0 0 1-10 10.4 36.8 36.8 0 0 1-11.1 6.2l-2.2-.4a36.6 36.6 0 0 1-16 2.7c-5 0-9.3-1.2-13-3.5l.8 1.5.5 1-.3.2c-.8-1.3-1.7-2.5-2.8-3.3-1.4-1.1-3.7-1.2-4.7.6v.1c-.5 1-.5 2 0 2.7l.4.7.1.1c1.4 1.2 2.7 3.8 4 6.5.9 1.5 1.7 3 2.4 4.6.5.7 1.3 1.3 2.1 1.4-.1 1.3.4 2.6 1.4 3.2l1-1.5a16.8 16.8 0 0 1 19-5.7 43.4 43.4 0 0 1 16.5.4 26.1 26.1 0 0 1 6.3 5.3l2 1.5c2.5 1.4 4.4 4 6 6.6 1.2 1.8 2.3 3.7 3.2 5.6 4.4 7.5 9.4 16.8 5.5 24Z" fill="#000"/><path d="M118.7 358.4c1.6 1.8 2.8 3.9 3.7 6.1.4.8 0 1.2-.8 1-.3 0-.8-.2-1.2-.5l.2.5c.4.7 0 1.3-.8 1l-.2-.1c.5.8 1 1.7 1.3 2.5.4.8 0 1.4-.9 1l-1.3-.8.2.3.4 1c.4.7 0 1.1-.9 1l-1.8-1.4-.2-.1c.2.6-.3 1-1 .8-.9-.1-2.6-1.7-3-2.5l-.1-.2-1.4-1.2c-.4.5-1 .8-1.3.2-.8-2.2-2.1-4.2-3.9-5.9a40.4 40.4 0 0 0-6.1-5.7 22.2 22.2 0 0 0-5.2-1.6l-.4-.1H94l-2-.4c-3-.4-5.8-.5-8.7-.2-.5 0-1-.4-1.2-.8h-2c-1 .1-.8-1.4 0-1.5l3-.5v-.3a36 36 0 0 0-5.5.2c-.8 0 .2-1.5.6-1.5h.3l.3-.1v-.1c-1.2 0-2-1.7-.6-2h.5l.5-.1v-.5h-1.7l.4-.6c.1-.4.3-.8.5-.8h.4l.5-.1c0-.4.5-1.2.8-1.3 1.9-.3 3.7-.5 5.6-.6.2-.4.4-1 .7-1a51.2 51.2 0 0 1 6.3.1l1 .3a28.5 28.5 0 0 1 11 4.3 45.5 45.5 0 0 1 8 6.6 86.2 86.2 0 0 1 6 5.6Z" fill="#000"/></g>

        <g id="face" transform="translate(315 248)"><path d="M79.2 197.8c11-6.6 51.7-1.8 83.8 0 25.5 1.4 43.7-1.4 49.5 2.5 13.1 8.9 6.8 51.7-16 57.6-22.6 5.8-106.6 14-121 0-14.6-14-15.9-48.3 3.7-60.1Z" fill="#fff"/><path d="M93.3 186.5c17.2-2.1 33.8 3.1 50.6 5.8a236.6 236.6 0 0 0 32 3c.2-1.6 1-3 3-4 4-1.7 7.1-2.5 11.4-2.4 4 .2 8 .6 11.9 1.3a37 37 0 0 1 19.4 9.4c12 11.8 10.1 30.9.9 43.8-19.2 26.7-54.1 28-84 27.6h-2.8c-27.3-.5-66.3 3.6-78.7-27.4a43.6 43.6 0 0 1 1.7-35.6c6.6-13 20.6-19.8 34.6-21.5Zm85.2 44.4h-.2c-12.6.5-25.2.8-37.8 1a500.6 500.6 0 0 0 2.3 17.3c.2 1.1.8 2.8.6 3.8v.4a3.8 3.8 0 0 1 2 2.2c9.8 0 20.3-.1 30.2-1.9v-.2c.2-1.3.8-2.1 1.5-2.7.7-4 .6-8.4.9-12.4l.5-7.5Zm-47.6 1.2c-9 .2-18 .3-27.1.2h-4.2c1 4.6 1.9 9.2 2.6 14 .9 4.8-3.4 8-7.2 7.8l1.3.2c11.6 1.6 23.7 1.2 35.5 1.2-.6-3.7-.4-8-.5-11v-.5l-.4-11.9Zm-61.5-.8c.3 2.4 1 4.8 1.8 7 4 9.3 12.8 13.6 22.2 15.5-1.7-.6-3-2-3.3-4.2A128 128 0 0 1 89 232c-6.6 0-13.1-.2-19.6-.8Zm143.2-2c-4.7 1-10 .6-14.6.8l-12.9.5.6 8.8c.3 3.7.3 7.7 1 11.5 8.7-3 16.4-7.7 22.2-15.2 1.4-1.9 2.7-4 3.7-6.4ZM91.4 201.8c-7.8 1.8-15 5.7-19 12.8a27 27 0 0 0-3.2 14c6.5-.7 13.2-1 19.8-1.2l.1-3.6.1-3c.2-5.9.3-13.2 2.2-19Zm40 .7-3.3-.4c-9.5-1-19-2.2-28.4-1.6l-4.2.5c1.7 6 1.5 13.1 2.2 19.1l1 6.9h1.7c10.1-.6 20.3-1 30.5-1.4V218c.2-4.8-.1-10.3.6-15.4Zm47.6-.8a190.6 190.6 0 0 1-41.5 1.4l.5 6.2 1.3 12.4.5 3.6 37.5-1.9h1.7l.5-7c.4-4.6.7-9.2 1.3-13.8l-.4-.1-1.4-.8Zm4.4 1.7 1.2 19.6 8.2-.4 4.2-.2c5.3-.3 12.2-2 17.5-.4.4-4.8-1-9.5-5.3-12.7-7.7-5.7-17.3-3.7-25.8-5.9Zm-28.2-58.3c12.3-7 43-14.2 45 7.9 1 10.1-6.6 18.6-15.5 22.3l-.3.1c-8.3 3.4-23 7.3-30.1 0-6-6.2 2-17.2 9.3-12.2 3.9 2.6 11.9.7 16.1-.6h.3c4.6-1.4 10.7-5.7 8.8-11.3-1.7-5-8.8-6-13.3-6-6.7-.3-13.2 1.2-19.8 1.7-1 0-1.3-1.4-.5-2Zm50.8-35.5c16.7-.8 27 17.4 23.2 32.3-.6 2.6-3.5 5-6.3 4.8h-.7l-1-.2c-2.7-.8-5-3.5-4.8-6.4v-.8c.4-7-.4-15.1-8.7-16.8-7.1-1.5-11 5.3-11.2 11.6 0 1.1-1.2 2-2.2 1.3-5.2-3-6-9.3-4-14.6a17.2 17.2 0 0 1 15.7-11.2Zm-123.6 3.9c12.2-4 25.2 2.4 31.1 13.1 2 .6 4.1 2.2 3.8 4.6-.4 3.5-1 5.7-3.4 8.4-3.8 4.1-11 2-12.5-3.1v-.2c-1.9-6.6-9.1-11-15.7-8.7-7.8 2.7-7.5 10.9-13 15.6-.6.6-1.4.7-2.1.3-5.8-2.8-4.8-11.1-2.7-16 2.7-6.2 8-11.8 14.5-14ZM66 76.7c9.8-10 35.5-19.7 42.2-1.2 1.3 3.5-1.5 8.2-5.1 9-6 1.2-11.4-1.4-17.3-1a26 26 0 0 0-13.8 5c-10.7 8.3-13 22.3-20.5 32.9-.4.5-1 .3-1.1-.3a58.4 58.4 0 0 1 15.6-44.4ZM194 66.8a33 33 0 0 1 20.5 0 39.7 39.7 0 0 1 23 18.6c.8 1.5 1.7 4.4 2.6 6.2 5.1 3 7.3 9.7 2.7 14.5l-.2.3-.6.6a9.9 9.9 0 0 1-9.6 2.5c-7.5-2.2-8.4-8.1-11-14.4a25.8 25.8 0 0 0-8.3-10.6 39.8 39.8 0 0 0-32.6-5.4c-.5.1-1.1-.6-.8-1 2-2.6 3-4.6 5.7-6.6 2.6-2 5.5-3.6 8.6-4.7Z" fill="#000"/></g>

        <g id="facial-hair" transform="translate(279 400)"><path d="M227.9943,104.3107 C218.6813,96.0137 208.2423,79.3337 194.8633,92.5317 C191.5543,96.2607 190.2143,104.6207 185.1543,106.2607 C178.4343,108.4407 171.7743,101.3307 169.4843,95.8707 C160.1143,65.5337 198.8483,57.2127 220.9143,62.1137 C231.6943,66.5407 239.6343,84.3607 240.1143,93.6607 C240.4243,99.9107 235.1343,109.1007 227.9943,104.3107 M298.2543,57.5507 C298.1633,57.1477 298.0363,56.7837 297.8833,56.4527 C293.7643,54.8957 290.5053,56.4837 288.4913,59.4497 C288.5573,60.1867 288.7773,60.9337 288.9163,61.6647 C287.3623,64.9387 285.9603,68.9897 283.8543,71.8187 C283.4383,71.8507 283.0073,71.8067 282.5933,71.6867 C247.6803,75.3327 264.7253,38.8037 229.3143,29.7307 C201.9413,25.2147 152.4673,30.3877 139.5543,58.8787 C129.3703,104.3867 77.5873,72.6767 60.5853,49.0097 C42.4443,27.4707 30.7143,1.1507 19.4043,-24.3893 C17.0143,-29.7943 9.5553,-25.9293 10.3663,-20.7433 C-0.0877,0.2277 0.2603,25.4177 -2.3287,48.3917 C-6.7327,94.2267 -11.0237,158.5047 31.5633,186.4917 C87.0503,249.2087 225.6083,271.3407 289.6063,213.7147 C311.7603,166.0847 309.0293,107.9777 298.2543,57.5507" id="ðŸ–-Ink" fill="#000000"/></g>

        <g id="eyewear" transform="translate(203 303)"><path d="M367.1336,98.3183 C360.4006,107.3633 347.9186,110.2443 336.4056,109.2493 C311.5746,106.8593 303.7596,78.6583 302.9456,56.7393 C319.5966,61.4233 301.5376,28.2493 358.4566,24.6013 C378.5216,22.9293 372.9896,35.0473 381.8546,43.9013 C381.6726,62.4833 378.5796,82.6743 367.1336,98.3183 M248.8626,76.9663 C234.2026,145.6193 153.9246,129.2893 145.4916,67.4033 C153.2786,61.9073 151.2276,48.3363 160.9016,43.4193 C176.2336,33.6233 195.3996,34.0423 212.8106,34.2723 C235.0656,35.8013 241.4076,45.0203 252.8396,55.0783 C252.2896,61.7963 250.7036,69.7583 248.8626,76.9663 M398.9346,13.2313 C398.1116,13.0943 397.2876,12.9653 396.4636,12.8443 C395.8206,12.4793 395.0656,12.1983 394.1876,12.0293 C392.1826,11.5203 390.1916,11.1773 388.2036,10.9923 C359.6716,4.5713 293.6646,13.6883 290.9406,38.0363 C281.8546,41.0693 273.9926,38.3533 263.4616,38.6233 C255.4456,5.1183 116.8626,9.8473 110.1976,30.0473 C110.1726,30.0403 110.1476,30.0343 110.1216,30.0263 C103.7176,28.0443 94.2766,28.5223 86.9466,28.2083 C71.2956,27.8803 55.6266,29.2753 40.3136,32.5763 C11.6386,37.1333 -27.4964,42.4683 -7.5534,78.2763 C-7.5494,78.2823 -7.5464,78.2893 -7.5414,78.2953 L-7.5384,78.2923 C-4.1014,81.8153 1.7316,78.9783 1.9486,74.2093 C-4.7564,57.2453 10.3876,55.2083 22.0396,50.3333 C51.0326,39.9173 80.5506,38.4733 110.5366,41.6953 C112.7926,44.3513 116.2156,46.6673 119.8336,47.8793 C139.8826,51.2073 129.3166,66.0793 141.9896,68.2423 C139.6616,120.0843 202.6026,148.3823 239.0716,114.3033 C253.6326,100.0673 257.1036,78.9783 260.4796,59.9693 C262.2646,59.5683 263.3996,58.5923 264.0626,57.3003 C268.3556,53.0143 271.0526,49.0563 279.5416,47.8793 C288.0306,46.7033 294.5656,49.0643 295.4496,49.7873 C295.6726,50.2363 295.9116,50.6863 296.1896,51.1363 C296.5776,51.8073 297.1056,52.3423 297.7056,52.7633 C289.3226,104.3873 329.3996,137.0353 369.8586,110.2603 C387.4386,93.7233 391.1536,68.4053 391.8876,45.8073 C394.2706,44.3693 395.7796,41.5823 394.9546,38.0783 C393.8176,33.2483 396.4836,29.0663 400.7296,26.9663 C406.2466,24.2393 405.2706,14.2803 398.9346,13.2313" id="ðŸ–-Ink" fill="#000000"/></g>
    </g>
</svg>