<svg xmlns="http://www.w3.org/2000/svg" viewBox="0 0 704 704" fill="none" width="512" height="512">
    <desc>"Open Peeps" by "Pablo Stanley", licensed under "CC0 1.0". / Remix of the original.</desc>
    <mask id="viewbox"><rect width="704" height="704" rx="0" ry="0" x="0" y="0" fill="#ffffff" /></mask>
    <g mask="url(#viewbox)">
        <rect id="background" fill="#b6e3f4" width="704" height="704" x="0" y="0" />

        <g id="body"><path id="skin" d="M705.3 1074a2351.1 2351.1 0 0 1-15.6-101c-1-7.7-2.5-16.4 2.7-22 7.3-8 14-14.8 14.8-26.2.8-10.7-2.8-22.4-5-32.8a809.4 809.4 0 0 0-17.3-64.7c-6.6-21.7-13.9-43.2-21.3-64.6-6.9-20-13.5-40.3-22.5-59.5-17-36.5-46-63.5-81.6-81.6-9-4.5-27-20.5-36.3-24-8.5-3.4-8.5 6.3-16.9 2.6-6.7-2.9-13-6.7-16.7-13.2-4-7-14.3-16.9-15.9-25-3.3-17.4.3-32.2-12-45.3a90 90 0 0 0-41.1-23.8c-33.7-9.3-78.5-2.8-98.8 28.5-9.7 14.9-13 33-26.2 45.1-11.4 10.7-8.8 18-23.6 23.4-.9.3-23.6-4.5-24.4-4.2-16.2-3.5-31.7 6.2-46.5 11.8a325.4 325.4 0 0 0-63 32.3 399.2 399.2 0 0 0-102.3 98.5 482.5 482.5 0 0 0-76.4 161c-1.7 6.4-3.5 13-1.5 19.4 1.7 5.3 5.4 9.2 9.8 12.4 6 4.3 18 7 17.7 15.7-.1 6.6-2.4 13.5-3.5 20-1.3 7.7-2.3 15.5-3.4 23.2-4.8 35.4-8.6 71-10.3 106.6a920 920 0 0 0-.5 106c.1 2.3.8 4.5 2 6.2-1 .4-1.2 2.4.1 2.7l2.7.5a12 12 0 0 0 7 2.4l5.5.2c19.3 4 38.6 7.9 58.1 10.8 23.8 3.5 47.6 6.3 71.5 8.7 49.2 4.8 98 3.2 147.1.6a1877 1877 0 0 1 147.4-2c49.2 1.4 98.4 3.5 147.6 4.4 55 1 110-.5 164.8-5 7.5-.5 12.2-6.5 10.7-14-8.9-44.7-19-89.1-27-134Z" fill="#ffdbb4"/><path id="shirt" d="m201 597.5 1.2-.4c14.5-5.7 29.6-14.8 45.4-11.4.5-.2 10.8 1.9 17.9 3.2l-6.7 7L247 598c40.7 67.1 88.8 100.7 144.3 100.7 55.5 0 97.7-33.6 126.4-100.7l4-1c.4 0 1 .2 1.5.4 9.3 3.6 27.4 19.6 36.3 24.1 35.6 18 64.5 45 81.6 81.6 8.7 18.6 15.2 38 21.8 57.5l.7 2c7.4 21.4 14.7 43 21.3 64.6 6.3 20.4 12 41 16.6 61.8l.7 2.9c2.2 10.4 5.8 22 5 32.8a29 29 0 0 1-3 10.7l-80.4 29 38.4 261.3c-35.1 1.5-70.3 2-105.5 1.3-49.2-.9-98.4-3-147.6-4.3-47.7-1.2-95.3-.7-143 1.7l-12 .6a946.3 946.3 0 0 1-139.5-1l-3.1-.3v-38.3l16.3-212.9-83-15.6-81.3-39.5a21.7 21.7 0 0 1-5.6-8.8c-1.9-6-.5-12 1-18l.5-1.3a492.8 492.8 0 0 1 76.4-161A399.3 399.3 0 0 1 138 629.7c19.8-13 40.9-23.9 63-32.3Z" fill="#9ddadb"/><path d="M232.2 584.6c5.1-.3 10.3.6 15.4 1 .4.1.6.8 0 .9-9 1.9-18 4.5-26.9 7.1l-3.8 1.2c-10 3-19.8 6-29.6 10-19.4 7.9-37.8 18.5-54.8 30.8C67.2 682.8 20 754.3-9.9 828.3a526 526 0 0 0-24.3 77c-.4 1.6-2 5.4-1 7 .7 1.3 3.6 2.1 5 2.9l4.5 2.3 25.2 12.9 2.3 1.1c38 18.6 78.4 34.4 121 35.5l.4-3.7a342 342 0 0 1 9.9-60c.3-1 1.6-.6 1.7.3 3 23.1 2 46.4 1 69.7-1.8 41-4.3 82.2-6.5 123.3-1.2 20.6-2.6 41-3.9 61.7-1.3 20.5-1.7 41.6-4.7 62-.6 4.6-6 7-10 6.6-4.4-.5-7.9-4.5-8-9 0-11.9 1.5-24 2.4-35.8l2.5-33.8c3.1-41.1 6.8-82.2 10.2-123.3a4771 4771 0 0 1 3.8-43.7C76.4 979.8 34.2 963-6.1 943.5c-.6 13.2-2 26.5-3.4 39.6-3.8 36.8-7.1 73.6-9.6 110.5a2254.2 2254.2 0 0 0-4.2 92.7l-.2 7c0 4.4-.5 8.5-4.3 11.7-3.7 3.3-8.9 3.5-12.6 0-5-4.6-4.2-10.9-4-17.1a1675.6 1675.6 0 0 1 1.8-47.2 1321 1321 0 0 1 10.5-109.5l2-14c3.5-26 7.5-52.7 15.5-77.9-3.1-1.5-6.2-3-9.3-4.7-5.5-2.7-11.2-5.4-16.6-8.4-4.2-2.5-7.9-5.8-9-10.8-1.4-5.5.6-11.5 2-16.9v-.4a502 502 0 0 1 26.6-80 523.2 523.2 0 0 1 67.8-117 353.8 353.8 0 0 1 88.7-83.3 239 239 0 0 1 53.8-25.7 142.6 142.6 0 0 1 42.8-7.5Zm90.1-66c6-6.5 18.1.2 15.2 8.8a108.2 108.2 0 0 1-34.7 52A79.4 79.4 0 0 1 247 598l1.7 2.4a321.1 321.1 0 0 0 46.1 52.6c36 31.2 84.8 48 132 36 37.1-9.4 69.8-38.8 79.4-76.2-1.3.6-3 .9-4.8.5-7.7-1.7-15.3-9.8-20.3-15.6-5.3-6.3-9.5-13-12.6-20.7-5.6-14-7.4-32.1.3-45.7 1-1.7 3-.7 3.3 1l.3 2.5c1.5 12.7 3.3 25 9.3 36.6a76 76 0 0 0 18.2 23.1c2.6 2 5.8 3.6 8.1 6l.5.4c.6-5 4.1-7.3 7.6-7.2 3.3.2 7.3 1.6 8.8 2.3l.1.1a341 341 0 0 1 65.1 42 259 259 0 0 1 88.4 129c7.5 25.3 11.8 51.4 16.3 77.4l2.8 16c4.2 23.9 8.9 48.4 18.4 70.7 2.5 5.7.6 11.1-5.5 13.4A1493 1493 0 0 1 688 953c3.7 16 6 32.5 8.7 48.5 6 34.1 13.2 68 19.4 102 3.2 17.5 6.1 35 9.3 52.3l4.7 25.2 2.4 13.6.1.7c.5 2.4 1 4.9.4 7.3-.8 2.7-2.9 4.6-4.8 6.6-1.6 1.6-3.8 1.6-5.7.7l-.7-.3c-3.4-1.6-6-3.2-7.3-7-.7-2.5-1-5.2-1.5-7.7a3535.6 3535.6 0 0 1-7.8-43.6l-1.6-9.1c-5.2-31.4-10.2-62.9-12.8-94.5-1-14-2.3-28.1-3.5-42.2l-.9-10.5c-1.1-13.3-2.5-27-2.7-40.5l-4.5 1.6L657 964c-5.5 2-12.5 6-18.4 5.2-2.9-.3-5-1.2-6.8-2.9 2 28.8 4.8 57.4 8.5 86a1965.7 1965.7 0 0 0 22 135c.6 3.2 1.4 6.4 1.9 9.6.5 3.7-.5 5.9-2.5 9-1.7 2.4-5 3.7-7.8 2-3.6-2.3-5.5-4.3-6.5-8.4-1-3.7-1.6-7.6-2.3-11.4a1654.2 1654.2 0 0 1-11.4-65.2c-7.8-52-12.7-104.4-15.2-156.8a1388 1388 0 0 1-1.4-77.8c0-13.3.5-26.6 1.4-39.9 1-13.4 3-26.5 4.8-39.8 0-.5.7-.5.7 0 .8 14.9 2.1 29.8 2.8 44.7.6 14.3.9 28.5 1.4 42.8.6 18.7 1.5 37.5 2.7 56.2a9.6 9.6 0 0 1 8.5-3.1c4.7-1 9.7-3.4 14.1-5l16.8-5.5 26.4-8.7a679 679 0 0 1-18-80.8l-2-12.3c-4-24.2-8.5-48.5-15.8-72a229.8 229.8 0 0 0-34.8-68.2 370.2 370.2 0 0 0-52.7-55.3C557 627 539.7 614 523 600c.1.9.2 2 0 3-3.5 25.9-17 50-35.8 67.9-37.7 36-93.6 43.4-142 26.5-46.7-16.3-88-55-102.6-102.8-.3-.8.8-1 1.3-.5l2.4 3.3c0-.4.2-.9.7-1a129 129 0 0 0 46.6-29.2 100.2 100.2 0 0 0 21.3-33.3l.4-1c1.7-5 3.2-10.2 7-14.2Z" fill="#000000"/></g>

        <g id="head" transform="matrix(.99789 0 0 1 156 62)"><path id="skin" d="M297.60207,145.1631 C182.512269,140.9631 72.5396269,218.3121 35.5126119,327.6411 C32.8221984,336.2171 41.1949165,344.2281 49.6432527,342.7781 C41.0028862,386.2841 59.8865246,444.8441 109.075124,451.0161 C119.150245,452.2871 129.2781,451.5551 139.367151,452.4801 C148.359738,453.3041 197.315514,480.8441 215.647936,487.2961 C254.243032,500.7781 351.364433,498.3091 389.999328,487.2961 C391.406223,490.4961 421.410841,367.4501 428.243337,329.3001 C430.734983,312.770703 407.96731,300.533226 409.646189,283.50001 C411.802769,261.620212 437.395394,234.943114 429.554715,214.1131 C408.887085,161.0971 348.905988,146.3041 297.60207,145.1631 Z" fill="#ffdbb4"/><path d="M240.4447,48.7877 C245.6147,49.2177 250.8147,49.9477 255.9247,50.9077 C271.4547,48.3677 287.5247,51.1877 302.5847,56.0777 C337.8547,67.5277 371.8047,87.4077 398.3847,113.3577 C412.0647,126.7177 423.2547,142.1077 430.1447,160.0077 C433.6447,169.0877 435.6147,178.7777 436.1847,188.4877 L436.248051,189.664413 C436.407996,192.886021 436.480589,196.749033 436.0957,200.5757 C437.3267,208.3007 438.4237,216.0887 438.5067,223.9017 C438.5457,227.5207 438.3107,231.1337 437.8707,234.7227 L438.0217,235.0637 L438.0217,235.0637 C437.3837,239.3487 436.6217,243.6157 435.7537,247.8607 L435.5367,248.1417 C435.4177,249.0047 435.2807,249.8657 435.1517,250.7267 C434.6797,252.9087 434.1867,255.0857 433.6637,257.2547 C432.5317,261.9517 431.2787,266.6177 429.9287,271.2557 C429.6927,272.0687 429.9197,272.7097 430.3627,273.1307 C429.3787,276.6607 428.3037,280.1647 427.1117,283.6307 C427.6967,286.6637 428.2877,289.6957 428.9147,292.7177 C432.1847,308.4377 434.9547,324.2577 438.6747,339.8877 C446.2147,371.6077 457.6747,402.8177 460.8247,435.4277 C463.2747,460.7177 459.2047,488.3677 443.4847,509.0277 C429.9347,526.8277 409.5547,537.3377 387.5447,540.1377 C377.0147,541.4877 366.2147,540.8677 355.9147,538.2077 L354.792469,537.911761 C349.632679,536.522837 343.069528,534.34839 338.2747,530.8477 C333.0747,529.0177 328.1647,525.6377 325.2047,522.3377 C321.1647,517.8277 316.7547,510.1177 317.8547,503.7077 C311.8447,504.1977 305.7947,504.3377 299.8447,504.3177 C285.1847,504.2877 270.3947,503.1277 256.2947,498.8677 C243.7147,495.0677 229.0547,488.7177 221.6147,477.2577 C221.2647,476.7177 221.8447,475.9377 222.4547,476.1477 C228.4647,478.2577 234.0847,481.1077 240.2847,482.7177 C246.3847,484.2977 252.4847,485.7877 258.7747,486.4377 C271.0723,487.7049 283.55422,487.534404 295.893108,486.925964 L300.128567,486.706027 C313.331436,485.998556 326.976615,484.990679 339.3247,480.0477 C344.1697,478.1097 348.6537,475.404575 352.742405,472.189537 L353.3847,471.6777 C355.5747,469.8977 357.8347,468.3977 360.1347,466.9777 C360.4647,466.5577 360.7947,466.1377 361.1247,465.7077 C366.3547,458.9977 371.9747,452.5277 376.6847,445.4377 C386.0447,431.3677 389.6547,416.7477 390.1447,399.9677 C390.6577,382.2557 390.7171,364.5194 390.92797,346.80254 L391.0047,340.8977 C391.2747,320.6377 391.3147,300.3077 392.8747,280.0977 C393.593367,270.708367 394.616922,261.362589 396.189278,252.084758 L396.5347,250.0977 L399.0747,235.7877 C399.6857,232.3407 400.0427,228.7887 400.8237,225.3567 C399.9457,223.9167 398.9307,222.5307 397.7537,221.2107 C396.6687,219.9937 395.5667,218.8127 394.4667,217.6397 L393.673969,216.939921 C391.861837,215.322794 390.305187,213.779551 388.845958,211.555076 L388.4937,211.0047 L388.4937,211.0047 C386.9267,209.1137 385.4487,207.1357 384.1427,204.9627 L383.9017,204.5407 L383.9017,204.5407 C383.5757,204.1317 383.2517,203.7217 382.9147,203.3177 C381.8677,202.0587 380.7697,200.8697 379.6347,199.7307 C375.6537,207.4207 370.0227,214.0817 362.0507,218.2457 C359.1677,219.7517 355.6507,218.4617 354.7057,215.2577 C352.3207,207.1697 348.6987,199.6487 343.9057,192.8377 C335.9027,206.1557 323.2127,216.5727 308.2577,221.6557 C304.5207,222.9257 301.2297,219.0057 302.1077,215.5047 C304.8057,204.7437 305.3427,193.8007 303.7577,182.9827 C298.1127,187.0167 292.2907,190.8157 286.3127,194.3377 C273.0097,204.6207 258.9147,213.8747 243.4107,220.5197 C239.8287,222.0557 234.4377,219.4747 236.0657,214.8737 C237.436271,210.9997 238.562828,207.061032 239.284437,203.016061 L239.4437,202.0807 C239.4487,202.0527 239.4507,202.0247 239.4547,201.9957 C203.54839,251.52738 116.473999,299.258616 109.790488,299.718287 L109.6087,299.7197 L109.6087,299.7197 C113.7827,303.7067 117.1517,308.6327 119.3557,314.2937 C121.670265,320.239363 112.231563,322.828208 109.790611,317.143124 L109.7127,316.9527 C105.9577,307.3067 96.6697,300.3927 86.5647,298.7577 C80.4567,299.8667 74.6837,302.8117 70.7447,307.2777 C62.9947,316.0677 62.9247,326.6677 68.2147,336.6677 L68.9908227,338.124743 C71.8547694,343.466936 74.8713667,348.821033 76.4847,354.6877 C78.4547,361.8877 76.9647,369.1877 78.2547,376.3777 L78.324799,376.758907 C78.9363716,379.955866 80.2570077,383.5927 84.0647,382.7177 C84.3587,382.6497 84.6427,382.5587 84.9257,382.4617 C85.7287,383.1017 86.6947,383.6307 87.8987,383.9817 C90.8467,384.8407 94.1037,384.4237 97.0377,383.7297 C99.8717,383.0597 102.6237,382.0087 105.2727,380.7787 C105.5657,381.5027 105.7467,382.2597 105.7647,382.9877 C105.8547,386.7077 104.3147,389.7677 101.9447,392.2577 C105.7247,397.0377 108.9547,402.2977 112.5947,407.1777 C117.8247,414.1777 123.1747,421.0277 128.8647,427.6577 C134.7847,434.5677 141.2347,441.0977 147.9247,447.2677 C152.6147,451.5877 160.3647,456.2077 163.3047,462.4777 C166.6847,463.5277 169.5547,466.1177 170.6047,470.3777 C172.5147,478.0977 173.0747,496.1877 171.5747,504.0377 C170.0847,511.8177 164.4047,516.6677 158.1247,520.7677 C156.3847,521.9077 154.4147,521.7877 152.8147,520.9377 C151.4047,522.3077 149.8147,523.5677 147.9947,524.6877 C141.2747,528.8377 133.4647,530.3477 125.7247,531.2177 C115.2747,534.5577 104.0047,535.4377 92.8647,533.3577 C89.2247,533.7877 85.5847,534.1777 81.9347,534.4977 C44.5947,537.7477 6.6347,534.9777 -29.7853,526.0877 C-46.4953,522.0077 -62.2743,514.5927 -76.9753,505.0677 C-102.3133,488.6507 -113.0373,442.5707 -98.3353,398.5177 L-97.1711884,395.043982 C-90.5462167,375.364354 -83.4019667,355.7877 -73.8253,337.4277 L-72.6819341,335.243602 C-63.8792931,318.497908 -54.1961333,301.7702 -41.3353,287.7977 C-34.8953,280.8077 -27.4153,274.4577 -18.9653,270.0177 C-15.7573,268.3337 -12.0123,267.1657 -8.3523,265.8407 L-8.27755,264.924825 L-8.27755,264.924825 L-8.1983,264.0097 C-7.9573,261.0757 -7.6503,258.1467 -7.2543,255.2247 C-5.7763,244.2967 -3.6903,233.5297 -0.7273,222.8987 C2.2397,212.2537 5.8877,201.7877 10.2767,191.6437 C17.5987,174.7197 26.7947,158.6657 37.4097,143.6017 C38.1677,142.0457 38.9367,140.4957 39.7247,138.9577 C48.6747,121.4677 60.2647,104.7877 75.2147,91.8777 C92.3747,77.0577 113.0447,67.8577 134.6147,61.3977 C156.9847,54.7077 180.3247,50.1277 203.6347,48.5877 C215.9047,47.7777 228.1947,47.7677 240.4447,48.7877 Z M76.8448,329.7682 C88.0748,322.4182 103.3748,327.4572 109.0648,339.3982 C113.1748,348.0482 99.5848,352.9182 97.4348,344.2982 C95.2948,335.6582 86.1048,329.4682 77.2748,330.7882 C76.6648,330.8882 76.2848,330.1282 76.8448,329.7682 Z" id="ðŸ–-Ink" fill="#000000"/></g>

        <g id="face" transform="translate(315 248)"><path d="M171.041749,240.15887 C163.675125,242.292501 155.767928,242.483273 148.258906,240.279784 C141.4481,238.280984 134.454927,233.882403 129.442325,228.062017 C124.989403,222.891504 122.105494,216.608051 122.218765,209.900917 C122.23165,209.134907 122.505549,208.495522 122.926888,207.999233 C123.380478,207.464958 124.014007,207.098085 124.692682,206.938847 C125.390651,206.775083 126.128513,206.833141 126.756813,207.118539 C127.325595,207.376901 127.812904,207.815736 128.117618,208.457126 C128.887965,209.469087 129.655321,210.466061 130.425688,211.435384 C136.619652,219.083686 142.618023,224.799426 151.931921,226.849502 C156.985367,227.962038 162.032458,227.4687 166.663343,225.771293 C171.620483,223.954301 176.101584,220.7596 179.613092,216.671419 C181.200004,214.823854 183.073535,214.069743 184.905526,214.057068 C186.981571,214.042704 189.033559,215.007378 190.57944,216.549217 C192.09898,218.064783 193.116434,220.124293 193.208649,222.278695 C193.289584,224.169532 192.672753,226.144647 191.031753,227.906756 C185.626535,233.711247 178.621333,237.963558 171.041749,240.15887 Z M170.814304,144.367155 C178.365682,148.9572 189.871664,159.660291 181.748119,171.039573 C172.185929,181.073062 158.418535,169.568982 151.634201,164.366134 C145.343449,160.333898 138.275437,170.704507 144.112,175.412823 C193.135736,211.708059 213.030606,145.567387 174.633685,138.970386 C170.406047,138.243425 168.835891,142.947174 170.814304,144.367155 Z M100.174958,124.170086 C97.7478949,122.617925 94.8928863,122.085145 91.7287079,123.524696 C89.2560287,124.649136 84.9192282,128.39769 81.9011027,133.325394 C79.8363008,136.696603 78.3721211,140.651472 78.6769434,144.770947 C78.7477349,145.727649 78.3942255,146.433054 77.8366311,146.954624 C77.3962557,147.366548 76.7601476,147.669274 76.0129997,147.763908 C75.3786744,147.844253 74.6686661,147.771772 74.0913555,147.591587 C72.9931588,147.248829 72.4119407,146.536464 72.1929489,145.954883 C70.0797393,140.342792 70.9901323,134.080043 73.3585073,128.429944 C76.5547725,120.804793 82.3592783,114.41778 86.1622145,112.358526 C92.669833,108.833475 100.346995,108.671236 106.863929,112.262379 C112.411467,115.318853 115.880218,120.253414 119.330136,125.2834 C120.06351,126.352661 120.791391,127.414081 121.543672,128.456831 C123.05132,130.546275 123.201386,132.618559 122.617532,134.395557 C121.970727,136.36415 120.32151,138.025511 118.259199,138.894957 C116.353068,139.69856 114.140756,139.811681 112.183119,138.985995 C110.529381,138.288488 109.0117,136.92878 108.051384,134.621701 C106.434021,130.736299 103.739338,126.449586 100.174958,124.170086 L100.174958,124.170086 Z M223.440775,132.814369 C221.778563,133.680468 220.478145,133.941602 218.634261,133.389159 C217.614596,133.082886 216.606823,132.495899 215.817824,131.706899 C215.035882,130.924958 214.471712,129.952552 214.252419,128.873803 C213.713072,126.211477 212.256412,123.719368 210.18061,122.094757 C208.406384,120.706172 206.16691,119.97019 203.68291,120.385402 C201.002485,120.832856 198.448729,122.551933 196.689869,124.578687 C196.102007,125.256875 195.641205,126.027105 195.177941,126.792136 C194.311333,128.22283 193.469024,129.552694 192.273843,130.603376 C191.82079,131.003129 191.138107,131.28 190.476901,131.28 C190.208169,131.28 189.935444,131.236271 189.675563,131.155276 C187.007679,128.47758 186.494623,126.446273 186.580635,124.431485 C186.670832,122.318684 187.503809,120.179493 188.849905,118.183565 C192.007516,113.501608 198.002761,109.662839 202.048399,108.79334 C207.588873,107.602708 213.091225,109.031983 217.502758,112.126467 C222.041966,115.310509 225.405508,120.254035 226.454161,125.825144 C226.706431,127.166899 226.599231,128.615171 226.088238,129.870886 C225.588922,131.097909 224.71878,132.148831 223.440775,132.814369 Z M112.394258,74.2526486 C109.069304,77.4921444 105.133931,77.9939318 101.152655,78.4402385 C98.9405594,78.6905522 97.1746454,78.8923401 95.4369094,79.2844431 C90.6605649,80.3626109 85.9393099,81.9864477 81.6319378,84.3250848 C77.1292738,86.7698547 72.2223932,89.7182412 68.6922598,93.4953513 C67.8528342,94.3941678 67.061542,95.3372855 66.2691444,96.2824677 C65.5465882,97.1443561 64.8505415,97.9741006 64.1169766,98.7741419 C63.2745284,99.6930924 62.474532,100.656215 61.6787885,101.616822 C61.1867388,102.427379 61.0895404,102.626735 60.9904523,102.834265 C60.8413425,103.146109 60.6678954,103.495099 60.4697946,103.869494 C60.1984889,104.382242 59.8807027,104.94353 59.5478797,105.452422 C58.9941378,106.382586 58.6970103,106.638799 58.44026,106.753401 C58.0142242,106.943142 57.6101892,107.036611 57.2182099,106.985995 C56.8506749,106.938536 56.5044166,106.762013 56.1624818,106.47304 C54.4554262,105.030757 53.951973,102.663788 54.003574,100.151245 C54.0818781,96.3384852 55.4881691,92.117066 56.7845563,89.5220553 C59.7989145,83.4923568 63.9794222,77.2240967 69.0062346,72.7238372 C74.7422821,67.5868727 81.0177087,63.6979271 88.2256814,61.0181785 C92.7050141,59.3522788 97.8912946,57.8231463 102.771356,58.0162973 C106.284021,58.1553272 109.63736,59.1994956 112.406688,61.8070554 C114.107217,63.4077623 114.923517,65.6846039 114.923517,67.9598329 C114.923517,70.2803828 114.075698,72.6146356 112.394258,74.2526486 Z M230.202983,103.917581 C229.991535,104.264137 229.698869,104.50296 229.373218,104.646395 C229.031839,104.796759 228.650729,104.840068 228.284999,104.778443 C227.920889,104.717091 227.574779,104.552038 227.300232,104.299793 C227.037084,104.058021 226.836702,103.737376 226.747103,103.344559 C224.539595,93.6490336 220.253164,86.4354186 211.104309,81.7836507 C206.603851,79.4952872 201.428751,78.0413484 196.529682,76.8821344 C195.106038,76.5452379 193.601743,76.3269526 192.086825,76.1057581 C187.338965,75.4125185 182.556847,74.6185951 179.461645,70.7808275 C177.596631,68.4690944 176.81391,65.5126371 177.256458,62.8088302 C177.67314,60.2630482 179.160769,57.9287462 181.865031,56.529874 C188.597516,53.048922 196.963943,56.4646469 203.762668,59.3743755 C204.266993,59.5902173 204.762058,59.8021006 205.246454,60.0065439 C211.895078,62.8129721 217.958974,66.5173942 222.943608,71.815137 C226.89868,76.0180237 230.563109,82.2312248 232.038949,88.62289 C233.266795,93.9405248 232.978088,99.3690991 230.202983,103.917581 Z" id="ðŸ–-Ink" fill="#000000"/></g>

        <g id="facial-hair" transform="translate(279 400)"><path d="M117.724748,95.193032 C125.820991,76.2257701 143.491513,62.2858787 163.836481,57.1894344 C178.77663,53.4564466 194.455798,53.5755739 209.685563,55.0571566 C217.664961,55.82798 226.223589,56.4596548 233.743597,59.4228202 C240.165065,61.9545247 245.398112,66.7396365 249.332884,72.3566369 C254.016661,79.0127473 257.202428,86.6308855 259.439456,94.4392268 C259.757034,95.5494127 260.055637,96.6676073 260.334267,97.7918082 C259.36156,103.683102 257.296304,108.697458 251.839554,112.401415 C246.514629,116.018279 240.161071,117.497859 233.827486,118.023421 C233.206311,117.725102 232.606109,117.418775 232.05584,117.104439 C222.185954,111.454403 215.239184,98.1021397 202.781736,99.90907 C191.664507,101.522794 184.34623,115.510737 177.735014,123.713499 C156.513211,126.186141 135.307387,119.809329 118.040329,107.674365 C117.163494,103.520928 117.112562,99.332454 117.724748,95.193032 M274.758103,80.8046615 C273.060358,76.0405723 270.922199,71.4266434 268.387567,67.0800001 C260.0087,52.7056446 247.14579,41.2524095 231.876079,34.7054157 C195.754073,19.2388934 149.016172,30.1415403 119.844931,55.5076378 C109.880171,64.1789009 99.8045583,76.9215133 96.7576067,90.6281556 C95.8478155,90.8083481 94.9889566,91.2818539 94.2818961,91.9485661 C73.2058992,78.6793912 51.5017369,65.9127532 34.5183023,47.519104 C22.1846896,34.1548275 13.6060877,18.338932 8.35306724,0.959366195 C7.92363781,-0.471161978 5.61670297,-0.261938473 5.68661009,1.32075225 C5.70658355,1.69114793 5.72655701,2.06054254 5.74653047,2.43093821 C5.52682239,1.75021102 4.48820238,2.10058531 4.40830853,2.76129112 C1.58206368,23.8738448 -1.95323907,46.2577565 1.30243521,67.4804278 C3.24984774,80.1439557 9.00220475,89.4148595 16.6919876,99.4255535 C24.9310406,110.156016 34.2586473,120.136678 43.7959753,129.707903 C49.8479342,135.783393 56.1695349,142.790879 63.5796892,147.245638 C72.198238,152.421166 81.9752476,156.35637 91.1730268,160.349636 C100.530594,164.423989 110.027975,168.188009 119.705117,171.451496 C139.049415,177.99849 159.04285,182.523323 179.385821,184.505441 C195.674179,186.08713 214.289446,187.809971 229.898706,181.682425 C241.86281,176.98741 251.519978,168.499342 259.179801,158.287433 C267.518721,147.165552 274.110962,134.497019 277.755121,121.137748 C281.542089,107.260924 275.556042,83.0420517 274.758103,80.8046615" id="ðŸ–-Ink" fill="#000000"/></g>

        <g id="eyewear" transform="translate(203 303)"></g>
    </g>
</svg>