<svg xmlns="http://www.w3.org/2000/svg" viewBox="0 0 704 704" fill="none" width="512" height="512">
    <desc>"Open Peeps" by "Pablo Stanley", licensed under "CC0 1.0". / Remix of the original.</desc>
    <mask id="viewbox"><rect width="704" height="704" rx="0" ry="0" x="0" y="0" fill="#ffffff" /></mask>
    <g mask="url(#viewbox)">
        <rect id="background" fill="#c0aede" width="704" height="704" x="0" y="0" />

        <g id="body"><path id="skin" d="M705.3 1074a2351.1 2351.1 0 0 1-15.6-101c-1-7.7-2.5-16.4 2.7-22 7.3-8 14-14.8 14.8-26.2.8-10.7-2.8-22.4-5-32.8a809.4 809.4 0 0 0-17.3-64.7c-6.6-21.7-13.9-43.2-21.3-64.6-6.9-20-13.5-40.3-22.5-59.5-17-36.5-46-63.5-81.6-81.6-9-4.5-27-20.5-36.3-24-8.5-3.4-8.5 6.3-16.9 2.6-6.7-2.9-13-6.7-16.7-13.2-4-7-14.3-16.9-15.9-25-3.3-17.4.3-32.2-12-45.3a90 90 0 0 0-41.1-23.8c-33.7-9.3-78.5-2.8-98.8 28.5-9.7 14.9-13 33-26.2 45.1-11.4 10.7-8.8 18-23.6 23.4-.9.3-23.6-4.5-24.4-4.2-16.2-3.5-31.7 6.2-46.5 11.8a325.4 325.4 0 0 0-63 32.3 399.2 399.2 0 0 0-102.3 98.5 482.5 482.5 0 0 0-76.4 161c-1.7 6.4-3.5 13-1.5 19.4 1.7 5.3 5.4 9.2 9.8 12.4 6 4.3 18 7 17.7 15.7-.1 6.6-2.4 13.5-3.5 20-1.3 7.7-2.3 15.5-3.4 23.2-4.8 35.4-8.6 71-10.3 106.6a920 920 0 0 0-.5 106c.1 2.3.8 4.5 2 6.2-1 .4-1.2 2.4.1 2.7l2.7.5a12 12 0 0 0 7 2.4l5.5.2c19.3 4 38.6 7.9 58.1 10.8 23.8 3.5 47.6 6.3 71.5 8.7 49.2 4.8 98 3.2 147.1.6a1877 1877 0 0 1 147.4-2c49.2 1.4 98.4 3.5 147.6 4.4 55 1 110-.5 164.8-5 7.5-.5 12.2-6.5 10.7-14-8.9-44.7-19-89.1-27-134Z" fill="#ffdbb4"/><path id="shirt" d="m201 597.5 1.2-.4c14.5-5.7 29.6-14.8 45.4-11.4.5-.2 10.8 1.9 17.9 3.2l-6.7 7L247 598c40.7 67.1 88.8 100.7 144.3 100.7 55.5 0 97.7-33.6 126.4-100.7l4-1c.4 0 1 .2 1.5.4 9.3 3.6 27.4 19.6 36.3 24.1 35.6 18 64.5 45 81.6 81.6 8.7 18.6 15.2 38 21.8 57.5l.7 2c7.4 21.4 14.7 43 21.3 64.6 6.3 20.4 12 41 16.6 61.8l.7 2.9c2.2 10.4 5.8 22 5 32.8a29 29 0 0 1-3 10.7l-80.4 29 38.4 261.3c-35.1 1.5-70.3 2-105.5 1.3-49.2-.9-98.4-3-147.6-4.3-47.7-1.2-95.3-.7-143 1.7l-12 .6a946.3 946.3 0 0 1-139.5-1l-3.1-.3v-38.3l16.3-212.9-83-15.6-81.3-39.5a21.7 21.7 0 0 1-5.6-8.8c-1.9-6-.5-12 1-18l.5-1.3a492.8 492.8 0 0 1 76.4-161A399.3 399.3 0 0 1 138 629.7c19.8-13 40.9-23.9 63-32.3Z" fill="#9ddadb"/><path d="M232.2 584.6c5.1-.3 10.3.6 15.4 1 .4.1.6.8 0 .9-9 1.9-18 4.5-26.9 7.1l-3.8 1.2c-10 3-19.8 6-29.6 10-19.4 7.9-37.8 18.5-54.8 30.8C67.2 682.8 20 754.3-9.9 828.3a526 526 0 0 0-24.3 77c-.4 1.6-2 5.4-1 7 .7 1.3 3.6 2.1 5 2.9l4.5 2.3 25.2 12.9 2.3 1.1c38 18.6 78.4 34.4 121 35.5l.4-3.7a342 342 0 0 1 9.9-60c.3-1 1.6-.6 1.7.3 3 23.1 2 46.4 1 69.7-1.8 41-4.3 82.2-6.5 123.3-1.2 20.6-2.6 41-3.9 61.7-1.3 20.5-1.7 41.6-4.7 62-.6 4.6-6 7-10 6.6-4.4-.5-7.9-4.5-8-9 0-11.9 1.5-24 2.4-35.8l2.5-33.8c3.1-41.1 6.8-82.2 10.2-123.3a4771 4771 0 0 1 3.8-43.7C76.4 979.8 34.2 963-6.1 943.5c-.6 13.2-2 26.5-3.4 39.6-3.8 36.8-7.1 73.6-9.6 110.5a2254.2 2254.2 0 0 0-4.2 92.7l-.2 7c0 4.4-.5 8.5-4.3 11.7-3.7 3.3-8.9 3.5-12.6 0-5-4.6-4.2-10.9-4-17.1a1675.6 1675.6 0 0 1 1.8-47.2 1321 1321 0 0 1 10.5-109.5l2-14c3.5-26 7.5-52.7 15.5-77.9-3.1-1.5-6.2-3-9.3-4.7-5.5-2.7-11.2-5.4-16.6-8.4-4.2-2.5-7.9-5.8-9-10.8-1.4-5.5.6-11.5 2-16.9v-.4a502 502 0 0 1 26.6-80 523.2 523.2 0 0 1 67.8-117 353.8 353.8 0 0 1 88.7-83.3 239 239 0 0 1 53.8-25.7 142.6 142.6 0 0 1 42.8-7.5Zm90.1-66c6-6.5 18.1.2 15.2 8.8a108.2 108.2 0 0 1-34.7 52A79.4 79.4 0 0 1 247 598l1.7 2.4a321.1 321.1 0 0 0 46.1 52.6c36 31.2 84.8 48 132 36 37.1-9.4 69.8-38.8 79.4-76.2-1.3.6-3 .9-4.8.5-7.7-1.7-15.3-9.8-20.3-15.6-5.3-6.3-9.5-13-12.6-20.7-5.6-14-7.4-32.1.3-45.7 1-1.7 3-.7 3.3 1l.3 2.5c1.5 12.7 3.3 25 9.3 36.6a76 76 0 0 0 18.2 23.1c2.6 2 5.8 3.6 8.1 6l.5.4c.6-5 4.1-7.3 7.6-7.2 3.3.2 7.3 1.6 8.8 2.3l.1.1a341 341 0 0 1 65.1 42 259 259 0 0 1 88.4 129c7.5 25.3 11.8 51.4 16.3 77.4l2.8 16c4.2 23.9 8.9 48.4 18.4 70.7 2.5 5.7.6 11.1-5.5 13.4A1493 1493 0 0 1 688 953c3.7 16 6 32.5 8.7 48.5 6 34.1 13.2 68 19.4 102 3.2 17.5 6.1 35 9.3 52.3l4.7 25.2 2.4 13.6.1.7c.5 2.4 1 4.9.4 7.3-.8 2.7-2.9 4.6-4.8 6.6-1.6 1.6-3.8 1.6-5.7.7l-.7-.3c-3.4-1.6-6-3.2-7.3-7-.7-2.5-1-5.2-1.5-7.7a3535.6 3535.6 0 0 1-7.8-43.6l-1.6-9.1c-5.2-31.4-10.2-62.9-12.8-94.5-1-14-2.3-28.1-3.5-42.2l-.9-10.5c-1.1-13.3-2.5-27-2.7-40.5l-4.5 1.6L657 964c-5.5 2-12.5 6-18.4 5.2-2.9-.3-5-1.2-6.8-2.9 2 28.8 4.8 57.4 8.5 86a1965.7 1965.7 0 0 0 22 135c.6 3.2 1.4 6.4 1.9 9.6.5 3.7-.5 5.9-2.5 9-1.7 2.4-5 3.7-7.8 2-3.6-2.3-5.5-4.3-6.5-8.4-1-3.7-1.6-7.6-2.3-11.4a1654.2 1654.2 0 0 1-11.4-65.2c-7.8-52-12.7-104.4-15.2-156.8a1388 1388 0 0 1-1.4-77.8c0-13.3.5-26.6 1.4-39.9 1-13.4 3-26.5 4.8-39.8 0-.5.7-.5.7 0 .8 14.9 2.1 29.8 2.8 44.7.6 14.3.9 28.5 1.4 42.8.6 18.7 1.5 37.5 2.7 56.2a9.6 9.6 0 0 1 8.5-3.1c4.7-1 9.7-3.4 14.1-5l16.8-5.5 26.4-8.7a679 679 0 0 1-18-80.8l-2-12.3c-4-24.2-8.5-48.5-15.8-72a229.8 229.8 0 0 0-34.8-68.2 370.2 370.2 0 0 0-52.7-55.3C557 627 539.7 614 523 600c.1.9.2 2 0 3-3.5 25.9-17 50-35.8 67.9-37.7 36-93.6 43.4-142 26.5-46.7-16.3-88-55-102.6-102.8-.3-.8.8-1 1.3-.5l2.4 3.3c0-.4.2-.9.7-1a129 129 0 0 0 46.6-29.2 100.2 100.2 0 0 0 21.3-33.3l.4-1c1.7-5 3.2-10.2 7-14.2Z" fill="#000000"/></g>

        <g id="head" transform="matrix(.99789 0 0 1 156 62)"><path id="skin" d="M418.4242,337.6034 C412.1532,292.3604 397.8102,248.4324 395.7512,202.5104 C394.5262,182.8594 393.3012,163.2074 392.0772,143.5544 C391.6122,131.2804 375.6682,127.1394 369.5782,138.0134 C355.7352,122.6614 330.9472,124.9224 312.0362,125.3884 C200.7082,129.3334 94.9142,204.6034 56.6982,309.5524 C55.7792,312.0544 56.0572,314.7174 57.0962,317.1004 C39.2832,376.5004 102.2782,414.7494 145.2422,441.2334 C162.6712,459.6514 183.1582,474.9534 206.2912,485.4334 C232.9022,497.9524 262.5242,504.9324 291.9252,505.6004 C298.3792,505.7484 302.2562,500.5304 302.7222,495.1294 C312.1022,492.9464 328.1532,495.4664 333.1132,485.8544 C389.6802,461.2854 426.5372,399.0134 418.4242,337.6034 L418.4242,337.6034 Z" fill="#ffdbb4"/><path d="M391.9565,177.1545 C391.7965,175.6875 393.9145,175.6425 394.3505,176.8305 C397.9355,186.5975 401.6525,196.2975 404.4925,206.3115 C407.2305,215.9625 409.2025,225.8325 411.1995,235.6605 C414.5115,251.9705 417.3595,268.4005 419.7155,284.8835 C424.7505,280.9515 431.3355,280.5935 437.5365,283.6535 C440.4465,285.0885 441.5605,288.8835 440.8625,291.8275 C440.3025,294.1895 439.6175,296.5395 438.7955,298.8415 C440.5525,300.3965 442.0455,302.3145 443.1295,304.5165 C445.9845,310.3165 445.0645,316.4045 442.5035,321.9375 C442.6985,322.2675 442.8915,322.5995 443.0735,322.9515 C446.7805,330.1505 444.7975,336.5975 442.0885,343.6215 C440.0605,348.8775 441.1925,354.7955 436.8175,358.7635 C435.2965,363.6495 433.0145,368.1935 429.6925,372.2985 C428.9385,373.6795 427.8085,374.7895 426.4675,375.6065 C426.1305,383.3175 425.3165,391.0025 423.7855,398.6205 C417.8405,428.1995 398.9725,454.5545 375.6155,473.1425 C352.7595,491.3325 325.9165,502.2015 296.9525,505.7145 C282.8885,507.4215 268.8035,506.8835 254.8545,504.4465 L253.116974,504.137299 C240.245727,501.803207 224.669935,497.938152 215.7695,488.2285 C211.0895,483.1225 213.8255,471.8845 222.1005,472.9455 C226.4845,473.5065 230.3005,474.2095 234.4285,475.8275 C237.6475,477.0895 240.8725,478.3055 244.1775,479.3355 C250.5075,481.3065 257.0545,482.8435 263.6265,483.6935 C277.3205,485.4625 291.5505,484.9945 305.0865,482.3245 C329.7005,477.4685 353.6135,466.2675 372.2925,449.4035 C394.0055,429.8005 406.7335,404.4295 408.6065,375.1675 C410.6925,342.5775 406.9295,309.2055 403.8055,276.7845 C402.1805,259.9195 400.1175,243.0885 397.6335,226.3285 C395.2065,209.9525 393.7515,193.5995 391.9565,177.1545 Z M199.79894,71.9198052 L200.8512,71.7582 C242.6512,65.3972 286.6312,65.8482 325.9212,83.0982 C333.4512,86.4072 340.8212,90.3972 347.7612,95.0272 C352.7322,94.5082 357.7322,94.0872 362.6422,94.0182 C368.8212,93.9372 374.8512,97.1472 375.6112,103.3972 C381.4012,104.1172 386.7322,106.2472 390.1422,110.5082 C391.4712,112.1672 392.3612,114.0872 392.8122,116.0872 C396.3712,116.9282 399.8612,118.2172 403.1712,119.9172 C407.1912,121.9872 409.5112,127.7472 408.0912,132.0082 C407.7632,132.9754 407.3904,133.91764 406.9728,134.839528 L406.6512,135.5272 L406.8412,135.7872 C410.0512,140.9472 407.8212,147.7172 402.9012,150.7972 C399.2112,153.1072 395.0912,154.9472 390.8512,155.8372 C391.2012,157.5372 391.5212,159.2472 391.7812,160.9772 C391.8812,161.6782 390.9822,162.1782 390.5812,161.4872 C391.594533,164.640533 392.864867,167.9542 394.3922,171.4282 C395.2912,173.4772 392.4112,175.2972 391.3122,173.2272 C388.3922,167.7072 386.5812,162.0472 383.9312,156.3572 C381.4822,156.1972 379.0412,155.6372 376.6912,154.5672 C375.1512,153.8672 373.9822,152.6872 373.1422,151.2772 C373.0912,151.3372 373.0622,151.4072 373.0112,151.4772 C365.1212,161.6272 349.7012,165.1872 337.7812,168.3972 C324.9822,171.8482 311.8812,173.9772 298.7322,175.5472 C275.7712,178.2772 252.6312,178.7872 229.5622,179.8482 C228.0342,179.9172 226.5092,179.9942 224.9832,180.0682 C215.6132,188.2882 203.5442,193.3962 191.1642,194.9492 C184.8912,195.7352 177.4712,195.5352 170.4372,193.9332 C167.8912,196.5332 164.6742,198.4592 161.1622,199.4482 C160.5302,212.5472 153.2262,224.9492 142.1842,232.1782 L142.380049,232.956823 C145.123854,244.142292 145.08845,256.368995 135.2522,264.1432 C133.9192,265.1952 132.4642,266.0972 130.9342,266.8452 L131.270371,267.617798 C136.351026,279.492019 137.973583,292.608391 128.4232,302.4612 C124.550741,306.454643 117.751649,305.50909 114.8481,300.92541 L114.7062,300.6932 C114.5452,300.4202 114.3712,300.1582 114.2042,299.8902 C113.9452,300.4202 113.5492,300.8672 112.9612,301.1172 C109.3312,302.6782 107.8812,301.5272 104.5712,299.9172 C101.5112,298.4172 98.2812,297.2972 94.9822,296.4282 C92.2912,295.7272 89.6112,295.2272 86.9112,294.9372 C69.8512,301.4572 58.8312,321.4572 61.4512,340.2272 C62.8712,350.4472 68.4822,360.5672 78.2612,364.8072 C82.5412,366.6672 87.5712,367.4472 92.2012,366.8172 C98.4712,365.9672 103.2912,362.0182 109.7812,364.2772 C112.3412,365.1672 113.9422,367.1782 114.0812,369.9282 C114.3122,374.2472 112.7812,377.4872 110.2012,379.8872 C114.7512,383.6872 118.4212,388.9672 122.3712,393.1782 C127.3122,398.4472 132.3212,403.7172 137.6612,408.5772 C142.7012,413.1872 148.0622,417.4672 153.7412,421.2682 L154.337936,421.661133 C161.454205,426.294636 170.420789,430.410104 170.7612,440.0982 C170.8712,443.0182 169.1012,445.6972 166.7012,447.1872 C157.7322,452.7472 147.9712,445.4472 140.9412,440.0982 C138.1112,437.9472 135.3612,435.7172 132.7112,433.4072 C130.9412,433.5472 129.0112,433.2582 127.0012,432.3672 C125.7112,431.8072 124.4512,431.1472 123.2112,430.4472 C119.1812,431.4572 115.3812,430.5672 112.2512,428.4572 C107.7412,429.5672 102.9612,429.6972 98.9012,428.8072 C95.1922,427.9872 91.8812,426.2372 89.1512,423.8872 C83.4512,425.7072 77.1212,425.3672 71.5012,421.9172 C68.1312,419.8482 65.5012,416.8972 64.0712,413.4472 C63.3432,412.3076 62.8774044,410.978098 62.842112,409.513167 L62.8412,408.9572 C57.9412,409.0672 53.0312,407.3872 49.2412,403.5082 C45.7612,399.9472 44.0622,395.5082 43.8712,390.9972 C38.9412,389.5982 34.4312,386.7262 31.0012,382.2972 C25.3212,374.9572 24.5622,365.8872 27.4822,357.7872 C27.2912,357.3572 27.1212,356.9172 26.9712,356.4772 C22.4412,350.0872 19.4512,342.3772 19.6912,334.6472 C19.7212,333.4472 19.8812,332.2682 20.1212,331.0982 C15.6612,328.7272 12.3812,324.5672 12.0312,319.2772 C11.7612,315.1272 13.2512,311.0672 15.9412,307.9972 C14.6312,304.8672 14.0512,301.4672 14.4512,298.0672 C14.8612,294.5772 16.0912,291.5472 17.8922,289.0182 C17.8512,288.0982 17.9012,287.1672 18.0512,286.2172 C17.8712,285.2872 17.7212,284.3272 17.6422,283.3482 C16.7912,272.6272 24.1912,263.2472 33.2012,258.2972 C35.5712,256.9972 38.1312,255.9372 40.6912,255.0372 C42.5512,254.3772 45.3512,254.1572 46.9912,252.9472 C46.9212,252.8972 47.6012,252.0182 47.7212,251.5472 C47.8512,250.9672 47.9912,250.3972 48.0622,249.8072 C48.3312,247.3272 48.1312,244.7772 48.0812,242.2872 C47.8612,230.9872 48.2112,219.6372 49.4012,208.3972 C51.6112,187.5572 57.0622,167.1672 67.6812,148.9572 C76.5912,133.6972 88.7912,120.8072 102.7812,110.1172 C130.646857,88.8343717 165.420808,77.2623525 199.79894,71.9198052 Z M70.6599,331.0876 C67.03254,322.36966 84.1097925,322.283461 88.6249563,322.697896 L88.7579,322.7106 C98.9209,323.7216 114.8099,328.6096 118.9679,338.8646 C120.6889,343.1096 115.5939,347.7106 111.5169,346.3146 C107.5259,344.9486 105.2879,342.0146 102.0849,339.4476 C101.2449,338.7736 100.3689,338.1446 99.4769,337.5376 C99.9467571,339.033529 100.698568,340.415641 101.741942,341.447743 L101.9879,341.6796 C106.9059,346.0976 98.1109,353.0406 94.8469,347.1896 C93.1089,344.0766 92.4129,340.6606 92.9549,337.1256 C93.1159,336.0826 93.3959,335.1286 93.8029,334.2186 C93.4789,334.0566 93.1599,333.8806 92.8319,333.7246 L92.2463641,333.452788 C88.3320616,331.676613 71.62954,324.70358 71.7649,330.9386 C71.7799,331.6286 70.8849,331.6296 70.6599,331.0876 Z" id="ðŸ–-Ink" fill="#000000"/></g>

        <g id="face" transform="translate(315 248)"><path d="M93.8 224.8c8-16 81.4-8.9 81.4-8.9l6.2 51s-35.4 11.3-56.5 9c-21-2.5-39-35.1-31-51.1Z" fill="#fff"/><path d="M99 251.5c-2.5-5.5 50-20.2 66.2-10.1 16.2 10 11.1 23.9 11.1 23.9S108 280.8 99 251.5Z" fill="#FF8181"/><path d="M89.3 215.3c12.2-14.2 32.9-15.2 50-11.7 11 2.3 21.6 6.1 32.7 7.5 5.2.7 10.5.9 15.7.8 5.2-.1 10.3-1.1 15.4-1 .8 0 1.1 1.1.4 1.5-7 4.4-16.5 5.7-24.8 6.6a93 93 0 0 1 .7 5.8l1.3 9.2c.8 6 1 12.3 2.5 18.2l.3 1a9 9 0 0 1 .3 3.4l.3-.1 1.1-.5.7-.4c2.6-1.2 5-2 8-1.7 2.3.2 4.2 1.7 4.2 4.2 0 11-14.7 14.5-23.1 16.6l-2.5.6c-10.8 2.6-21.7 4.9-32.8 5.4-17.7 1-37.7-4-49.3-18.4-10.8-13.4-12.8-33.4-1.1-47Zm80.6 46c-2-16.5-22.2-17.4-28-7-2.6-14.5-40.9-1.2-37.9 1.7 11.4 11 28.6 12 43.4 10 7.5-1 15-2.8 22.5-4.7Zm-22.5-43.2-5.1-.7-2-.3c-12.7-1.7-26.9-2.6-37.3 5.5a18 18 0 0 0-6.7 11A552 552 0 0 1 126 230l2.7-.3 18.6-1.7 4.3-.5 4.4-.4c1.6-.2 12-.7 14-.4.2-1.7.4-5.5.9-7.3-7.4.3-14.8-.3-22.1-1.2l-1.3-.2Zm23.4-73.7c7.6 4.6 19 15.3 11 26.6-9.6 10-23.4-1.4-30.2-6.6-6.3-4-13.3 6.3-7.5 11 49 36.3 69-29.8 30.5-36.4-4.2-.8-5.8 4-3.8 5.4Zm13.5 19.3.4-.2h.1c.2-.2 0-.2-.4 0l-.4.1v.3l.3-.2ZM87.6 123v-.2c0-6.4 3.7-21 13-21 5.7 0 9.1 10 9.7 20.2v.4c.3 6.4-1.4 20.2-9.8 20.2S87.7 129.4 87.6 123Zm135.2-2v-.2c0-6.4-3.8-21-13-21-5.5 0-9 9.5-9.7 19.4v.8c-.4 6.1 1.2 20.6 9.8 20.6 8.4 0 12.8-13.1 12.9-19.6Zm-130-62.6c7.5-1.2 17.5 1 21 8.6 1.5 3.4-.3 7.2-4.2 7.4-9.5.4-18-1.7-26.4 4.5a42 42 0 0 0-9 10l-1 1.4-.8 1.1c-1.7 2.5-3.4 5.3-3.1 8.3 0 1-.9 1.8-1.7 1.7-5.5-.2-6-7-5.4-11.1 1.4-7.7 5-14.8 10.2-20.6 5.4-6 12.4-10 20.5-11.3ZM196 67.5a29.3 29.3 0 0 1 17.9-4c12 .9 32 11 29.3 25.6-.8 4.5-7 6.9-10.8 4.4-4-2.7-4.9-6.9-7.8-10.4a28.5 28.5 0 0 0-8.6-6.5 28.3 28.3 0 0 0-10.3-3.1h-.6c-2.2-.3-13-.2-11.4 3.8.3.8-.9 1.5-1.4.9-3.4-3.7.4-8.5 3.7-10.7Z" fill="#000"/></g>

        <g id="facial-hair" transform="translate(279 400)"><path d="M279.528,190.8631 C281.547,192.7781 285.93,196.9931 290.129,198.8461 L294.056,198.8461 C294.899,198.6881 295.727,198.4471 296.549,198.1751 C297.618,195.5521 297.824,192.4961 297.299,189.4181 C294.331,172.3721 291.68,155.1111 293.093,137.7621 C294.424,121.4051 299.132,105.1281 297.861,88.6151 C296.088,49.6481 258.461,22.6651 225.52,30.5541 C221.267,30.9311 217.108,32.1281 213.404,34.2561 C162.018,12.7001 98.507,49.1221 110.469,108.7041 C112.762,124.8141 116.46,140.0931 115.324,156.5121 C114.78,164.3701 113.529,172.1421 112.061,179.8741 C110.959,185.6761 108.042,192.8301 110.722,198.5571 C121.488,205.3561 132.712,191.2261 139.903,179.0991 C143.667,168.9071 146.794,158.4721 150.32,148.2011 C156.682,129.7401 158.156,119.5441 179.151,114.5101 C188.219,111.4171 196.313,106.8571 203.254,100.8451 C208.589,98.2901 211.63,93.1721 213.448,87.9971 C214.354,90.5451 213.101,93.6381 212.874,96.2831 C228.101,116.4651 246.944,112.6441 253.723,126.6781 C258.91,139.8891 261.825,153.9731 265.794,167.6431 C266.337,169.5141 276.384,187.8811 279.528,190.8631" id="ðŸ–-Ink" fill="#000000"/></g>

        <g id="eyewear" transform="translate(203 303)"><path d="M367.1336,98.3183 C360.4006,107.3633 347.9186,110.2443 336.4056,109.2493 C311.5746,106.8593 303.7596,78.6583 302.9456,56.7393 C319.5966,61.4233 301.5376,28.2493 358.4566,24.6013 C378.5216,22.9293 372.9896,35.0473 381.8546,43.9013 C381.6726,62.4833 378.5796,82.6743 367.1336,98.3183 M248.8626,76.9663 C234.2026,145.6193 153.9246,129.2893 145.4916,67.4033 C153.2786,61.9073 151.2276,48.3363 160.9016,43.4193 C176.2336,33.6233 195.3996,34.0423 212.8106,34.2723 C235.0656,35.8013 241.4076,45.0203 252.8396,55.0783 C252.2896,61.7963 250.7036,69.7583 248.8626,76.9663 M398.9346,13.2313 C398.1116,13.0943 397.2876,12.9653 396.4636,12.8443 C395.8206,12.4793 395.0656,12.1983 394.1876,12.0293 C392.1826,11.5203 390.1916,11.1773 388.2036,10.9923 C359.6716,4.5713 293.6646,13.6883 290.9406,38.0363 C281.8546,41.0693 273.9926,38.3533 263.4616,38.6233 C255.4456,5.1183 116.8626,9.8473 110.1976,30.0473 C110.1726,30.0403 110.1476,30.0343 110.1216,30.0263 C103.7176,28.0443 94.2766,28.5223 86.9466,28.2083 C71.2956,27.8803 55.6266,29.2753 40.3136,32.5763 C11.6386,37.1333 -27.4964,42.4683 -7.5534,78.2763 C-7.5494,78.2823 -7.5464,78.2893 -7.5414,78.2953 L-7.5384,78.2923 C-4.1014,81.8153 1.7316,78.9783 1.9486,74.2093 C-4.7564,57.2453 10.3876,55.2083 22.0396,50.3333 C51.0326,39.9173 80.5506,38.4733 110.5366,41.6953 C112.7926,44.3513 116.2156,46.6673 119.8336,47.8793 C139.8826,51.2073 129.3166,66.0793 141.9896,68.2423 C139.6616,120.0843 202.6026,148.3823 239.0716,114.3033 C253.6326,100.0673 257.1036,78.9783 260.4796,59.9693 C262.2646,59.5683 263.3996,58.5923 264.0626,57.3003 C268.3556,53.0143 271.0526,49.0563 279.5416,47.8793 C288.0306,46.7033 294.5656,49.0643 295.4496,49.7873 C295.6726,50.2363 295.9116,50.6863 296.1896,51.1363 C296.5776,51.8073 297.1056,52.3423 297.7056,52.7633 C289.3226,104.3873 329.3996,137.0353 369.8586,110.2603 C387.4386,93.7233 391.1536,68.4053 391.8876,45.8073 C394.2706,44.3693 395.7796,41.5823 394.9546,38.0783 C393.8176,33.2483 396.4836,29.0663 400.7296,26.9663 C406.2466,24.2393 405.2706,14.2803 398.9346,13.2313" id="ðŸ–-Ink" fill="#000000"/></g>
    </g>
</svg>