<svg xmlns="http://www.w3.org/2000/svg" viewBox="0 0 704 704" fill="none" width="512" height="512">
    <desc>"Open Peeps" by "Pablo Stanley", licensed under "CC0 1.0". / Remix of the original.</desc>
    <mask id="viewbox"><rect width="704" height="704" rx="0" ry="0" x="0" y="0" fill="#ffffff" /></mask>
    <g mask="url(#viewbox)">
        <rect id="background" fill="#c0aede" width="704" height="704" x="0" y="0" />

        <g id="body"><path id="skin" d="M705.3 1074a2351.1 2351.1 0 0 1-15.6-101c-1-7.7-2.5-16.4 2.7-22 7.3-8 14-14.8 14.8-26.2.8-10.7-2.8-22.4-5-32.8a809.4 809.4 0 0 0-17.3-64.7c-6.6-21.7-13.9-43.2-21.3-64.6-6.9-20-13.5-40.3-22.5-59.5-17-36.5-46-63.5-81.6-81.6-9-4.5-27-20.5-36.3-24-8.5-3.4-8.5 6.3-16.9 2.6-6.7-2.9-13-6.7-16.7-13.2-4-7-14.3-16.9-15.9-25-3.3-17.4.3-32.2-12-45.3a90 90 0 0 0-41.1-23.8c-33.7-9.3-78.5-2.8-98.8 28.5-9.7 14.9-13 33-26.2 45.1-11.4 10.7-8.8 18-23.6 23.4-.9.3-23.6-4.5-24.4-4.2-16.2-3.5-31.7 6.2-46.5 11.8a325.4 325.4 0 0 0-63 32.3 399.2 399.2 0 0 0-102.3 98.5 482.5 482.5 0 0 0-76.4 161c-1.7 6.4-3.5 13-1.5 19.4 1.7 5.3 5.4 9.2 9.8 12.4 6 4.3 18 7 17.7 15.7-.1 6.6-2.4 13.5-3.5 20-1.3 7.7-2.3 15.5-3.4 23.2-4.8 35.4-8.6 71-10.3 106.6a920 920 0 0 0-.5 106c.1 2.3.8 4.5 2 6.2-1 .4-1.2 2.4.1 2.7l2.7.5a12 12 0 0 0 7 2.4l5.5.2c19.3 4 38.6 7.9 58.1 10.8 23.8 3.5 47.6 6.3 71.5 8.7 49.2 4.8 98 3.2 147.1.6a1877 1877 0 0 1 147.4-2c49.2 1.4 98.4 3.5 147.6 4.4 55 1 110-.5 164.8-5 7.5-.5 12.2-6.5 10.7-14-8.9-44.7-19-89.1-27-134Z" fill="#edb98a"/><path id="shirt" d="m201 597.5 1.2-.4c14.5-5.7 29.6-14.8 45.4-11.4.5-.2 10.8 1.9 17.9 3.2l-6.7 7L247 598c40.7 67.1 88.8 100.7 144.3 100.7 55.5 0 97.7-33.6 126.4-100.7l4-1c.4 0 1 .2 1.5.4 9.3 3.6 27.4 19.6 36.3 24.1 35.6 18 64.5 45 81.6 81.6 8.7 18.6 15.2 38 21.8 57.5l.7 2c7.4 21.4 14.7 43 21.3 64.6 6.3 20.4 12 41 16.6 61.8l.7 2.9c2.2 10.4 5.8 22 5 32.8a29 29 0 0 1-3 10.7l-80.4 29 38.4 261.3c-35.1 1.5-70.3 2-105.5 1.3-49.2-.9-98.4-3-147.6-4.3-47.7-1.2-95.3-.7-143 1.7l-12 .6a946.3 946.3 0 0 1-139.5-1l-3.1-.3v-38.3l16.3-212.9-83-15.6-81.3-39.5a21.7 21.7 0 0 1-5.6-8.8c-1.9-6-.5-12 1-18l.5-1.3a492.8 492.8 0 0 1 76.4-161A399.3 399.3 0 0 1 138 629.7c19.8-13 40.9-23.9 63-32.3Z" fill="#78e185"/><path d="M232.2 584.6c5.1-.3 10.3.6 15.4 1 .4.1.6.8 0 .9-9 1.9-18 4.5-26.9 7.1l-3.8 1.2c-10 3-19.8 6-29.6 10-19.4 7.9-37.8 18.5-54.8 30.8C67.2 682.8 20 754.3-9.9 828.3a526 526 0 0 0-24.3 77c-.4 1.6-2 5.4-1 7 .7 1.3 3.6 2.1 5 2.9l4.5 2.3 25.2 12.9 2.3 1.1c38 18.6 78.4 34.4 121 35.5l.4-3.7a342 342 0 0 1 9.9-60c.3-1 1.6-.6 1.7.3 3 23.1 2 46.4 1 69.7-1.8 41-4.3 82.2-6.5 123.3-1.2 20.6-2.6 41-3.9 61.7-1.3 20.5-1.7 41.6-4.7 62-.6 4.6-6 7-10 6.6-4.4-.5-7.9-4.5-8-9 0-11.9 1.5-24 2.4-35.8l2.5-33.8c3.1-41.1 6.8-82.2 10.2-123.3a4771 4771 0 0 1 3.8-43.7C76.4 979.8 34.2 963-6.1 943.5c-.6 13.2-2 26.5-3.4 39.6-3.8 36.8-7.1 73.6-9.6 110.5a2254.2 2254.2 0 0 0-4.2 92.7l-.2 7c0 4.4-.5 8.5-4.3 11.7-3.7 3.3-8.9 3.5-12.6 0-5-4.6-4.2-10.9-4-17.1a1675.6 1675.6 0 0 1 1.8-47.2 1321 1321 0 0 1 10.5-109.5l2-14c3.5-26 7.5-52.7 15.5-77.9-3.1-1.5-6.2-3-9.3-4.7-5.5-2.7-11.2-5.4-16.6-8.4-4.2-2.5-7.9-5.8-9-10.8-1.4-5.5.6-11.5 2-16.9v-.4a502 502 0 0 1 26.6-80 523.2 523.2 0 0 1 67.8-117 353.8 353.8 0 0 1 88.7-83.3 239 239 0 0 1 53.8-25.7 142.6 142.6 0 0 1 42.8-7.5Zm90.1-66c6-6.5 18.1.2 15.2 8.8a108.2 108.2 0 0 1-34.7 52A79.4 79.4 0 0 1 247 598l1.7 2.4a321.1 321.1 0 0 0 46.1 52.6c36 31.2 84.8 48 132 36 37.1-9.4 69.8-38.8 79.4-76.2-1.3.6-3 .9-4.8.5-7.7-1.7-15.3-9.8-20.3-15.6-5.3-6.3-9.5-13-12.6-20.7-5.6-14-7.4-32.1.3-45.7 1-1.7 3-.7 3.3 1l.3 2.5c1.5 12.7 3.3 25 9.3 36.6a76 76 0 0 0 18.2 23.1c2.6 2 5.8 3.6 8.1 6l.5.4c.6-5 4.1-7.3 7.6-7.2 3.3.2 7.3 1.6 8.8 2.3l.1.1a341 341 0 0 1 65.1 42 259 259 0 0 1 88.4 129c7.5 25.3 11.8 51.4 16.3 77.4l2.8 16c4.2 23.9 8.9 48.4 18.4 70.7 2.5 5.7.6 11.1-5.5 13.4A1493 1493 0 0 1 688 953c3.7 16 6 32.5 8.7 48.5 6 34.1 13.2 68 19.4 102 3.2 17.5 6.1 35 9.3 52.3l4.7 25.2 2.4 13.6.1.7c.5 2.4 1 4.9.4 7.3-.8 2.7-2.9 4.6-4.8 6.6-1.6 1.6-3.8 1.6-5.7.7l-.7-.3c-3.4-1.6-6-3.2-7.3-7-.7-2.5-1-5.2-1.5-7.7a3535.6 3535.6 0 0 1-7.8-43.6l-1.6-9.1c-5.2-31.4-10.2-62.9-12.8-94.5-1-14-2.3-28.1-3.5-42.2l-.9-10.5c-1.1-13.3-2.5-27-2.7-40.5l-4.5 1.6L657 964c-5.5 2-12.5 6-18.4 5.2-2.9-.3-5-1.2-6.8-2.9 2 28.8 4.8 57.4 8.5 86a1965.7 1965.7 0 0 0 22 135c.6 3.2 1.4 6.4 1.9 9.6.5 3.7-.5 5.9-2.5 9-1.7 2.4-5 3.7-7.8 2-3.6-2.3-5.5-4.3-6.5-8.4-1-3.7-1.6-7.6-2.3-11.4a1654.2 1654.2 0 0 1-11.4-65.2c-7.8-52-12.7-104.4-15.2-156.8a1388 1388 0 0 1-1.4-77.8c0-13.3.5-26.6 1.4-39.9 1-13.4 3-26.5 4.8-39.8 0-.5.7-.5.7 0 .8 14.9 2.1 29.8 2.8 44.7.6 14.3.9 28.5 1.4 42.8.6 18.7 1.5 37.5 2.7 56.2a9.6 9.6 0 0 1 8.5-3.1c4.7-1 9.7-3.4 14.1-5l16.8-5.5 26.4-8.7a679 679 0 0 1-18-80.8l-2-12.3c-4-24.2-8.5-48.5-15.8-72a229.8 229.8 0 0 0-34.8-68.2 370.2 370.2 0 0 0-52.7-55.3C557 627 539.7 614 523 600c.1.9.2 2 0 3-3.5 25.9-17 50-35.8 67.9-37.7 36-93.6 43.4-142 26.5-46.7-16.3-88-55-102.6-102.8-.3-.8.8-1 1.3-.5l2.4 3.3c0-.4.2-.9.7-1a129 129 0 0 0 46.6-29.2 100.2 100.2 0 0 0 21.3-33.3l.4-1c1.7-5 3.2-10.2 7-14.2Z" fill="#000000"/></g>

        <g id="head" transform="matrix(.99789 0 0 1 156 62)"><path id="skin" d="M287.4 509.5c-22.2.1-41-6.2-55.4-16.6-18-6.4-39.7-16.3-52.8-26.7-5.2 1.3-11.3-4.1-15.2-7-24.5-18.2-43.6-45-49.3-71.7-8.8 11-21.3 11.6-33.2 6-25-14.2-24.1-44-15.1-66.4-19-42.6-32.1-155-3.2-200.3 6-6.8 14.6-10.8 20.9-17.8 5.6-6 10.9-12.3 17.3-17 19.8-15.1 53.8-23.1 75.2-27 89-19.1 157.3 15.4 238 44.6a142 142 0 0 1-18.5 32c20 7.5 10.8 24.3-4.7 32.8l-9.2-4.5c14.4 51.6 47.5 179.8 33.2 221-11.4 64.1-61.5 119-128 118.6" fill="#edb98a"/><path id="hair" d="M86 309.8c-11.3 0-19.7 12.7-19.7 12.7H64C46.2 276.7 35 170.9 63 127.3c3-3.4 6.7-6.2 10.4-9A68 68 0 0 0 86 107c4.7-5.2 9.4-10.4 15-14.5 19.8-15 53.8-23 75.1-26.8C252.7 49 314 72.3 381 97.6c11 4.2 22 8.4 33.3 12.5a142 142 0 0 1-18.4 32c20 7.5 10.8 24.3-4.7 32.8l-6.9-3.3c-1.8-9.7-6.6-28.5-16.7-29.5-7.2-.7-19 6-30.4 12.5-10.3 6-20.4 11.7-26.7 11.7-5 0-17.4-4-33-9-26-8.4-60.8-19.6-83.8-19.6-36.8 0-68 30.4-80.5 52.4s18.5 49.3 18.5 49.3-18.5 23.7-18.5 34.1c0 10.4 4.3 42.9 4.3 42.9s-20-6.6-31.3-6.6Z" fill="#4f1a00"/><path d="M300.3 515c-28.9 3-63-3.9-82.3-27.3a3.6 3.6 0 0 1 2-5.8c.7-.2 1.5 0 2.4.4l1.8 1a115.7 115.7 0 0 0 87.7 15c27.6-6.3 50-22.4 66.4-43.5a162.5 162.5 0 0 0 32.2-83.7c3.5-36.4-4.5-72.5-12.6-107.7-8.6-37-18-73.8-29-110.2-.3-1.1-.3-2.1-.3-3-3.2-1.4-6.6-1-10 .1-6.2 2.2-12.4 6.9-17.6 10.8l-5.2 3.8a42.4 42.4 0 0 1-21.3 8c-8.1.6-16.1-2-23.6-5.1l-11.1-5c-10.5-4.7-20.9-9.4-32.2-12.5-15.2-4-31-6-46.7-6-28 .3-56.3 7.6-73.5 31.3-7 9.6-11.5 20.7-8 32.6a59 59 0 0 0 9.6 17.7l1.4 1.8c2.1 3 4 6 4.6 9.1.5 2.6.1 5.4-1.8 8.5a40 40 0 0 1-4.2 5.3c-1 1.3-2.2 2.5-3.1 3.8a48.9 48.9 0 0 0-4.9 8.6 50.8 50.8 0 0 0-4 18.7c-.2 7.7 1 15.2 2 22.8.7 5.4 1.5 10.7 1.8 16.2 0 1-.2 1.6-.6 2.1a3 3 0 0 1-2 1.2h-.8l.3 1.6a28.6 28.6 0 0 0-1.8-2c-.6-.4-1-.9-1.4-1.5l-2.6-2.2a27.6 27.6 0 0 0-16-5.8c-5.5 0-10.9 1.8-15 5.7C72.4 327.5 70 340.2 70 351c0 11 2.5 24.4 12.2 31.2 3.8 2.8 8.6 4.5 13.3 4.5 4 0 7.7-1.4 11.5-2.7l3.4-1.2c1.3-.4 2.5-.4 3.5 0 1.2.3 2.1 1 2.9 2a7 7 0 0 1 .4 7.8l2.1 3.5a220.5 220.5 0 0 0 27.3 37.8c6.2 6.6 12.8 12.8 20 18.3l1 .7c.7.5 1.4 1 2.1 1.7 2.1 1.7 4.7 4 7 4.1l1.9-.1c1.3-.2 2.5-.3 3.6.2.9.4 1.8 1 2.7 2.4a6.5 6.5 0 0 1 0 6.7 9.5 9.5 0 0 1-4.2 4 10 10 0 0 1-5.9.5c-5-1-10.7-5.2-14.3-8l-.7-.4c-8-6.1-15.5-12.8-22.1-20.3a126.6 126.6 0 0 1-26.6-44.3 25.2 25.2 0 0 1-13 3.7 44 44 0 0 1-19.5-4A42.8 42.8 0 0 1 56 370.6 71.7 71.7 0 0 1 59 326c-15.3-38.7-20-81.7-18.7-123a291 291 0 0 1 6.5-58.5c2-8.4 5.6-16.5 11.3-23.1 3.2-3.8 7.2-6.8 11.2-9.7 3.4-2.6 6.9-5.1 9.8-8.3l1.4-1.5.9-1c5-5.6 10-11 16-15.5 7.1-5.3 15-9.4 23-12.9a264.3 264.3 0 0 1 55-15.2C215.8 50 257.2 49.6 297 60a587 587 0 0 1 59.4 20l41.9 15.3 19.4 7.2a7 7 0 0 1 3.6 3 5 5 0 0 1 .4 4.5c-4 10-9 19.5-15.2 28.3a19.6 19.6 0 0 1 8.1 15.4c.3 12-10.6 20.1-19.6 26-.9.5-1.7.8-2.5 1 8.8 33.4 17.1 67 24.2 100.9l.5 2.3c7.4 35.4 12 71.6 5.2 107.4a169 169 0 0 1-41.6 83.8 128.6 128.6 0 0 1-80.5 39.9ZM110.5 311.3c-3.8-12-5.8-25-4.3-37.2a58.9 58.9 0 0 1 14.5-32.4l1-1.2c.5-.5 1-1 1.1-1.7.1-.4 0-.8-.2-1.3-.5-1.2-1.5-2.2-2.4-3.3l-1.6-2c-8.3-11.1-14.4-24.5-12.4-38.7 2-13.8 11-26.7 20.7-36.5C148 135.6 181 130.7 210 132a186.6 186.6 0 0 1 72.8 18l1.7.8c.9.5 1.8 1 2.7 1.3 5.8 3 11.7 5.8 18 7.4 12.5 3 21-3.4 29.8-9.9 3-2.2 6.2-4.5 9.4-6.4l.7-.4c6-3.5 13-5.8 19.8-5.7 6 .1 11.6 2 16.3 6.5 1 .9 1.5 1.9 1.7 2.9a8 8 0 0 1 1.2 2.6 8705 8705 0 0 1 5 18.7l1.3-.9c4-2.6 8.4-5.5 10.3-9.9.8-1.7.7-4.4-.3-6.5a4 4 0 0 0-1.4-1.7c-.4-.3-1-.5-1.6-.4-1.5.2-2.8 0-4-.5a6.7 6.7 0 0 1-3.1-2.7 6 6 0 0 1-1-4c.2-1.1.8-2.4 1.8-3.6 6.8-7.8 12.6-16.5 17-26L379 101l-30.8-11.4-5.6-2a466.2 466.2 0 0 0-57-18c-38.7-8.8-79-6.7-117.6 1.5l-2.3.5a202 202 0 0 0-47.5 15.2 84 84 0 0 0-20.2 13.7c-2.6 2.5-5 5.2-7.3 7.9A88 88 0 0 1 80 119l-3.6 2.9A42.2 42.2 0 0 0 63 137.5c-3.3 7.2-4.8 15-6 22.8-3.2 19.3-4.5 39-4.4 58.7.2 33 5.2 65.2 11.6 97.4 5-7.3 12.2-13 21.3-14.1a29 29 0 0 1 25 9Zm-9.6 39.1a38.5 38.5 0 0 0-20.8-2.2 3 3 0 0 1-2-.3c-.6-.4-1-1-1.3-1.6-.3-.7-.3-1.4 0-2.1.1-.6.6-1.2 1.4-1.6a43.6 43.6 0 0 1 24.6-4h.8c4.3.7 10.4 2 15 4.7 3.5 2 6.2 5 6.8 8.7.3 2-.1 4-1.3 5.5a5.8 5.8 0 0 1-4.9 2.3c-3.8-.1-6-1.7-8.7-3.8l-1-.8a36 36 0 0 0-8.6-4.8Z" fill="#000"/></g>

        <g id="face" transform="translate(315 248)"><path d="M196.5474,185.9139 C198.026892,183.981222 201.62664,192.394704 202.360997,193.42337 L202.3964,193.4699 C205.6004,197.3469 208.2164,203.2839 208.5864,208.2619 C208.5974,208.4109 208.5974,208.5549 208.5974,208.6989 C213.7334,207.9939 218.8704,207.2759 224.0054,206.4879 C225.9914,204.9949 228.7704,205.4579 231.4594,206.8169 C237.4564,209.8439 234.5374,219.4609 228.0764,219.3069 C210.6064,218.8909 192.7634,221.1339 175.4394,223.1529 C166.5274,224.1919 157.6344,225.2939 148.7704,226.7029 C140.4894,228.0179 132.0224,229.8759 123.6414,230.23829 C123.1844,230.2569 122.9934,229.5759 123.4054,229.3639 C130.7944,225.5689 139.2344,223.2709 147.2124,221.0479 C155.8454,218.6429 164.5424,216.3849 173.3004,214.4789 C181.1594,212.7679 189.0594,211.4879 196.9774,210.3349 C196.9164,210.1799 196.8574,210.0219 196.8074,209.8559 C195.803165,206.486488 195.82913,202.621021 195.614727,199.070695 L195.490559,197.186044 C195.295458,193.93866 195.100221,187.806567 196.5474,185.9139 Z M170.814304,144.367155 C178.365682,148.9572 189.871664,159.660291 181.748119,171.039573 C172.185929,181.073062 158.418535,169.568982 151.634201,164.366134 C145.343449,160.333898 138.275437,170.704507 144.112,175.412823 C193.135736,211.708059 213.030606,145.567387 174.633685,138.970386 C170.406047,138.243425 168.835891,142.947174 170.814304,144.367155 Z M49.4016,103.967 C61.9666,102.05 74.8376,101.83 87.5336,102.464 C94.1346,102.793 100.7276,103.283 107.3056,103.935 C110.7396,104.276 114.1706,104.658 117.5946,105.087 C120.0506,105.395 123.8426,106.801 126.1766,106.161 C133.3086,104.208 140.0796,110.957 138.1126,118.098 C136.1616,125.184 127.8006,127.053 122.4226,122.797 C119.8726,121.898 117.3076,121.046 114.7276,120.25 C114.5306,121.063 114.2416,121.867 113.8336,122.644 C113.3756,123.514 112.9346,124.39 112.5166,125.279 C112.6066,125.137 111.9156,126.794 111.8966,126.842 L111.344066,128.285023 C110.381494,130.77318 109.302697,133.132903 106.6876,134.422 C103.0926,136.194 97.4526,135.217 95.9996,130.989 C93.7299571,126.542452 95.2320819,120.330092 96.5328396,115.724108 L96.6336,115.37 C80.9526,111.641 65.0116,108.845 49.4016,105.052 C48.8916,104.928 48.8396,104.053 49.4016,103.967 Z M235.8942,87.2405 C236.7102,85.6075 238.5602,85.6005 239.6612,87.1345 C242.108336,90.5400085 236.627575,95.4174138 234.340652,97.6837577 L234.1122,97.9125 C228.9712,103.1285 222.7012,107.3325 216.4852,111.1335 C215.1812,111.9305 213.8572,112.6905 212.5282,113.4395 C212.7742,113.9345 212.9982,114.4395 213.1812,114.9545 C214.1222,117.6125 214.1402,120.7875 213.2922,123.4735 C211.5262,129.0745 206.8272,133.5495 200.7332,133.543512 C197.5192,133.5405 193.7142,130.5015 194.1492,126.9595 C194.3042,125.6985 194.4312,124.3565 194.6242,123.0155 C190.3382,124.4415 185.0752,122.7705 182.3492,119.2375 C178.5582,114.3265 179.6012,106.2775 185.4052,103.2275 C189.6732,100.9855 194.3842,100.4195 199.0072,99.2345 C203.5952,98.0605 208.1512,96.7115 212.6422,95.2045 C217.0712,93.7185 221.4792,92.1265 225.8802,90.5535 C228.0572,89.7745 230.2112,89.0565 232.4272,88.3965 C233.4172,88.1025 234.8422,87.3295 235.8942,87.2405 Z" id="ðŸ–-Ink" fill="#000000"/></g>

        <g id="facial-hair" transform="translate(279 400)"><path d="M258.5298,37.2406 C249.4788,33.0086 239.7508,30.4896 229.7568,29.5966 C225.4348,29.2096 216.9448,27.9886 212.3478,30.8076 C210.1978,32.1276 208.3808,33.9716 206.9398,36.2236 C206.3778,35.4466 205.6378,34.7846 205.1698,33.9446 C202.6528,29.4226 187.2048,29.3286 182.5408,29.7126 C171.4808,30.6226 160.7158,33.2196 150.5778,37.5856 C132.3768,45.4256 117.0868,61.7146 121.8948,82.3946 C122.5748,85.3236 125.8558,86.4626 128.5588,85.9566 C146.7778,82.5416 164.9968,79.1256 183.2168,75.7106 C187.4458,74.9186 191.6758,74.1256 195.9048,73.3326 C199.7298,72.6156 204.4178,72.3886 208.0478,70.7386 C209.5078,71.3626 211.1338,71.7586 212.8698,72.1026 C234.7908,76.4566 256.7398,80.6806 278.6748,84.9696 C281.3048,85.4846 284.7548,84.1506 285.2268,81.2366 C288.3748,61.7926 275.9918,45.4046 258.5298,37.2406" id="ðŸ–-Ink" fill="#000000"/></g>

        <g id="eyewear" transform="translate(203 303)"><path d="M337.808766,15 C361.280828,15 374.675545,20.0476268 379.583995,20.4408262 L379.731604,20.4513988 C381.773203,20.5819351 383.604638,20.7526365 385.526143,21.4956895 C392.591677,24.2168704 393.742579,31.6273185 389.619349,36.2975074 C389.330123,45.9612137 390.601118,57.2526079 388.42041,66.9474421 C385.730303,107.818373 366.509247,114.715713 355.583689,117.233056 C350.098392,118.49725 343.5973,119.000317 337.770736,117.665834 C327.83095,117.295312 318.004253,114.183526 309.596667,108.765263 C297.887495,101.213234 289.190683,89.6055398 286.368473,75.8299385 C285.030886,69.2635354 284.405767,62.4288331 285.133692,55.7543104 L285.24159,54.834673 C281.435609,53.014193 277.025154,52.6697779 272.478593,52.5091178 C270.306891,52.4318001 268.166215,52.3625154 266.086586,52.454895 C264.053994,52.6818274 262.04542,52.9840692 260.030842,53.3957608 C257.831119,54.0594879 255.753492,55.1549891 253.834989,56.8901185 L253.702886,59.4225236 C253.342603,65.7485159 252.511953,72.0935866 251.230949,78.3000879 C249.339468,87.4577148 246.297085,96.2036502 239.822013,102.69934 C237.630296,105.97279 234.918171,108.894796 231.625592,111.425193 C219.665224,120.63403 203.415495,124.014921 188.501813,122.74169 C158.225098,120.158074 140.724389,96.1233201 136.69123,85.8501095 L136.45028,85.2277051 C133.536796,77.5902322 131.214914,67.6806815 122.008729,66.0397124 L120.050703,65.6879191 C115.84966,64.8993558 111.973202,63.8015161 109.509939,59.7026747 C108.430093,57.9133226 107.874658,55.9121 107.738551,53.8717164 C106.301426,53.9821703 104.866302,54.0876035 103.436181,54.1900243 C92.0277451,56.6026875 23.600227,58.6483427 18.1383674,58.6483427 C18.1383674,58.6483427 7.63935915,63.0673229 3.20667133,59.6434313 C0.134264704,57.2626491 -0.876527051,54.0896117 0.814797767,50.4948415 C3.36675899,45.0862033 15.1402688,41.832872 20.368158,40.8027483 C20.368158,40.8027483 104.732847,41.5034375 110.804953,40.3521672 C114.561896,36.47825 121.28216,37.0084284 126.897559,36.3959117 C131.5462,33.0812926 138.049294,30.8611705 143.186318,29.3750644 C144.233138,28.9784347 145.26995,28.5948587 146.277739,28.2333734 C155.695116,24.8795934 165.483783,23.1032949 175.421568,22.1493754 C185.669595,21.1753734 195.947646,21.6161846 206.135626,23.0119194 C210.428989,23.5943124 214.682321,24.3474067 218.905629,25.3324541 C226.467802,26.3293627 233.985996,27.9714025 241.550918,29.9193501 L243.064552,30.3129178 C251.030792,32.4014994 259.217205,34.2079217 267.463664,32.7921043 C274.177256,31.6469826 280.633494,29.0632415 286.823569,26.2693175 L287.62946,25.9038016 C301.240122,19.6892673 322.495771,15 337.808766,15 Z M218.086988,37.7223618 C213.065054,36.6178235 210.920374,44.3606372 215.95832,45.4681879 C219.525804,46.252514 222.549376,48.0515396 224.592155,51.0993468 L224.807252,51.4306867 C227.548399,55.792609 234.479828,51.7660647 231.719666,47.3760269 C228.614234,42.4357281 223.788453,38.9755108 218.086988,37.7223618 Z M365.1732,32.9216366 C363.402814,31.6745124 360.723715,32.6003163 359.69591,34.362557 C358.564701,36.303111 359.306135,38.4637159 360.964208,39.7331967 L361.133036,39.8571332 C362.653907,40.9290575 364.135119,42.8505012 364.321131,44.8192514 L364.337546,45.0655335 C364.536702,50.2177028 372.543974,50.24381 372.343817,45.0655335 C372.148664,39.999719 369.215367,35.767329 365.1732,32.9216366 Z" id="ðŸ–-Ink" fill="#000000"/></g>
    </g>
</svg>