<svg xmlns="http://www.w3.org/2000/svg" viewBox="0 0 704 704" fill="none" width="512" height="512">
    <desc>"Open Peeps" by "Pablo Stanley", licensed under "CC0 1.0". / Remix of the original.</desc>
    <mask id="viewbox"><rect width="704" height="704" rx="0" ry="0" x="0" y="0" fill="#ffffff" /></mask>
    <g mask="url(#viewbox)">
        <rect id="background" fill="#d1d4f9" width="704" height="704" x="0" y="0" />

        <g id="body"><path id="skin" d="M705.3 1074a2351.1 2351.1 0 0 1-15.6-101c-1-7.7-2.5-16.4 2.7-22 7.3-8 14-14.8 14.8-26.2.8-10.7-2.8-22.4-5-32.8a809.4 809.4 0 0 0-17.3-64.7c-6.6-21.7-13.9-43.2-21.3-64.6-6.9-20-13.5-40.3-22.5-59.5-17-36.5-46-63.5-81.6-81.6-9-4.5-27-20.5-36.3-24-8.5-3.4-8.5 6.3-16.9 2.6-6.7-2.9-13-6.7-16.7-13.2-4-7-14.3-16.9-15.9-25-3.3-17.4.3-32.2-12-45.3a90 90 0 0 0-41.1-23.8c-33.7-9.3-78.5-2.8-98.8 28.5-9.7 14.9-13 33-26.2 45.1-11.4 10.7-8.8 18-23.6 23.4-.9.3-23.6-4.5-24.4-4.2-16.2-3.5-31.7 6.2-46.5 11.8a325.4 325.4 0 0 0-63 32.3 399.2 399.2 0 0 0-102.3 98.5 482.5 482.5 0 0 0-76.4 161c-1.7 6.4-3.5 13-1.5 19.4 1.7 5.3 5.4 9.2 9.8 12.4 6 4.3 18 7 17.7 15.7-.1 6.6-2.4 13.5-3.5 20-1.3 7.7-2.3 15.5-3.4 23.2-4.8 35.4-8.6 71-10.3 106.6a920 920 0 0 0-.5 106c.1 2.3.8 4.5 2 6.2-1 .4-1.2 2.4.1 2.7l2.7.5a12 12 0 0 0 7 2.4l5.5.2c19.3 4 38.6 7.9 58.1 10.8 23.8 3.5 47.6 6.3 71.5 8.7 49.2 4.8 98 3.2 147.1.6a1877 1877 0 0 1 147.4-2c49.2 1.4 98.4 3.5 147.6 4.4 55 1 110-.5 164.8-5 7.5-.5 12.2-6.5 10.7-14-8.9-44.7-19-89.1-27-134Z" fill="#ffdbb4"/><path id="shirt" d="m201 597.5 1.2-.4c14.5-5.7 29.6-14.8 45.4-11.4.5-.2 10.8 1.9 17.9 3.2l-6.7 7L247 598c40.7 67.1 88.8 100.7 144.3 100.7 55.5 0 97.7-33.6 126.4-100.7l4-1c.4 0 1 .2 1.5.4 9.3 3.6 27.4 19.6 36.3 24.1 35.6 18 64.5 45 81.6 81.6 8.7 18.6 15.2 38 21.8 57.5l.7 2c7.4 21.4 14.7 43 21.3 64.6 6.3 20.4 12 41 16.6 61.8l.7 2.9c2.2 10.4 5.8 22 5 32.8a29 29 0 0 1-3 10.7l-80.4 29 38.4 261.3c-35.1 1.5-70.3 2-105.5 1.3-49.2-.9-98.4-3-147.6-4.3-47.7-1.2-95.3-.7-143 1.7l-12 .6a946.3 946.3 0 0 1-139.5-1l-3.1-.3v-38.3l16.3-212.9-83-15.6-81.3-39.5a21.7 21.7 0 0 1-5.6-8.8c-1.9-6-.5-12 1-18l.5-1.3a492.8 492.8 0 0 1 76.4-161A399.3 399.3 0 0 1 138 629.7c19.8-13 40.9-23.9 63-32.3Z" fill="#e279c7"/><path d="M232.2 584.6c5.1-.3 10.3.6 15.4 1 .4.1.6.8 0 .9-9 1.9-18 4.5-26.9 7.1l-3.8 1.2c-10 3-19.8 6-29.6 10-19.4 7.9-37.8 18.5-54.8 30.8C67.2 682.8 20 754.3-9.9 828.3a526 526 0 0 0-24.3 77c-.4 1.6-2 5.4-1 7 .7 1.3 3.6 2.1 5 2.9l4.5 2.3 25.2 12.9 2.3 1.1c38 18.6 78.4 34.4 121 35.5l.4-3.7a342 342 0 0 1 9.9-60c.3-1 1.6-.6 1.7.3 3 23.1 2 46.4 1 69.7-1.8 41-4.3 82.2-6.5 123.3-1.2 20.6-2.6 41-3.9 61.7-1.3 20.5-1.7 41.6-4.7 62-.6 4.6-6 7-10 6.6-4.4-.5-7.9-4.5-8-9 0-11.9 1.5-24 2.4-35.8l2.5-33.8c3.1-41.1 6.8-82.2 10.2-123.3a4771 4771 0 0 1 3.8-43.7C76.4 979.8 34.2 963-6.1 943.5c-.6 13.2-2 26.5-3.4 39.6-3.8 36.8-7.1 73.6-9.6 110.5a2254.2 2254.2 0 0 0-4.2 92.7l-.2 7c0 4.4-.5 8.5-4.3 11.7-3.7 3.3-8.9 3.5-12.6 0-5-4.6-4.2-10.9-4-17.1a1675.6 1675.6 0 0 1 1.8-47.2 1321 1321 0 0 1 10.5-109.5l2-14c3.5-26 7.5-52.7 15.5-77.9-3.1-1.5-6.2-3-9.3-4.7-5.5-2.7-11.2-5.4-16.6-8.4-4.2-2.5-7.9-5.8-9-10.8-1.4-5.5.6-11.5 2-16.9v-.4a502 502 0 0 1 26.6-80 523.2 523.2 0 0 1 67.8-117 353.8 353.8 0 0 1 88.7-83.3 239 239 0 0 1 53.8-25.7 142.6 142.6 0 0 1 42.8-7.5Zm90.1-66c6-6.5 18.1.2 15.2 8.8a108.2 108.2 0 0 1-34.7 52A79.4 79.4 0 0 1 247 598l1.7 2.4a321.1 321.1 0 0 0 46.1 52.6c36 31.2 84.8 48 132 36 37.1-9.4 69.8-38.8 79.4-76.2-1.3.6-3 .9-4.8.5-7.7-1.7-15.3-9.8-20.3-15.6-5.3-6.3-9.5-13-12.6-20.7-5.6-14-7.4-32.1.3-45.7 1-1.7 3-.7 3.3 1l.3 2.5c1.5 12.7 3.3 25 9.3 36.6a76 76 0 0 0 18.2 23.1c2.6 2 5.8 3.6 8.1 6l.5.4c.6-5 4.1-7.3 7.6-7.2 3.3.2 7.3 1.6 8.8 2.3l.1.1a341 341 0 0 1 65.1 42 259 259 0 0 1 88.4 129c7.5 25.3 11.8 51.4 16.3 77.4l2.8 16c4.2 23.9 8.9 48.4 18.4 70.7 2.5 5.7.6 11.1-5.5 13.4A1493 1493 0 0 1 688 953c3.7 16 6 32.5 8.7 48.5 6 34.1 13.2 68 19.4 102 3.2 17.5 6.1 35 9.3 52.3l4.7 25.2 2.4 13.6.1.7c.5 2.4 1 4.9.4 7.3-.8 2.7-2.9 4.6-4.8 6.6-1.6 1.6-3.8 1.6-5.7.7l-.7-.3c-3.4-1.6-6-3.2-7.3-7-.7-2.5-1-5.2-1.5-7.7a3535.6 3535.6 0 0 1-7.8-43.6l-1.6-9.1c-5.2-31.4-10.2-62.9-12.8-94.5-1-14-2.3-28.1-3.5-42.2l-.9-10.5c-1.1-13.3-2.5-27-2.7-40.5l-4.5 1.6L657 964c-5.5 2-12.5 6-18.4 5.2-2.9-.3-5-1.2-6.8-2.9 2 28.8 4.8 57.4 8.5 86a1965.7 1965.7 0 0 0 22 135c.6 3.2 1.4 6.4 1.9 9.6.5 3.7-.5 5.9-2.5 9-1.7 2.4-5 3.7-7.8 2-3.6-2.3-5.5-4.3-6.5-8.4-1-3.7-1.6-7.6-2.3-11.4a1654.2 1654.2 0 0 1-11.4-65.2c-7.8-52-12.7-104.4-15.2-156.8a1388 1388 0 0 1-1.4-77.8c0-13.3.5-26.6 1.4-39.9 1-13.4 3-26.5 4.8-39.8 0-.5.7-.5.7 0 .8 14.9 2.1 29.8 2.8 44.7.6 14.3.9 28.5 1.4 42.8.6 18.7 1.5 37.5 2.7 56.2a9.6 9.6 0 0 1 8.5-3.1c4.7-1 9.7-3.4 14.1-5l16.8-5.5 26.4-8.7a679 679 0 0 1-18-80.8l-2-12.3c-4-24.2-8.5-48.5-15.8-72a229.8 229.8 0 0 0-34.8-68.2 370.2 370.2 0 0 0-52.7-55.3C557 627 539.7 614 523 600c.1.9.2 2 0 3-3.5 25.9-17 50-35.8 67.9-37.7 36-93.6 43.4-142 26.5-46.7-16.3-88-55-102.6-102.8-.3-.8.8-1 1.3-.5l2.4 3.3c0-.4.2-.9.7-1a129 129 0 0 0 46.6-29.2 100.2 100.2 0 0 0 21.3-33.3l.4-1c1.7-5 3.2-10.2 7-14.2Z" fill="#000000"/></g>

        <g id="head" transform="matrix(.99789 0 0 1 156 62)"><path id="skin" d="M256.576291,38.9775732 C313.356936,38.9775732 384.472557,103.748468 405.286153,131.31104 C422.785231,154.484334 420.309672,273.865208 420.309672,344.682199 C420.309672,359.493187 413.614596,387.524654 411.184129,401.691934 C402.277902,453.60665 363.475367,497.14576 286.676873,497.14576 C224.144484,497.14576 176.022138,477.339081 129.486711,426.680302 C118.870145,415.123036 67.0216738,456.497557 56.4180351,441.59758 C28.7213893,441.59758 5.56239516,182.819749 59.9410538,105.20146 C114.319712,27.5831708 199.795646,38.9775732 256.576291,38.9775732 Z" fill="#ffdbb4"/><path d="M85.9167,57.2049 C118.7267,27.3549 162.4367,12.9949 206.5367,14.0549 C229.3767,14.6049 252.1367,18.9549 273.7067,26.4049 C284.4967,30.1449 294.9467,35.0249 304.9367,40.5449 C308.5367,42.5295154 311.855517,44.8549592 315.050455,47.3245996 L315.8467,47.9449 L315.8567,47.9449 C324.4267,51.0249 332.0767,56.5549 339.0167,63.0249 C352.9267,61.9149 366.9467,63.1649 380.3967,67.4549 C399.1167,73.4349 416.4467,84.3849 428.6167,99.9349 C442.792614,118.038126 447.505367,139.997076 445.823796,162.665466 L445.513305,166.516377 C443.850425,186.541 440.8717,212.2974 424.4367,225.4549 C423.1867,226.4549 421.8067,227.2149 420.3767,227.6749 C430.9667,245.8149 439.6567,265.9549 444.8567,286.2949 C464.7067,363.9849 449.4467,445.0049 425.5767,519.8849 C423.6167,526.0549 414.2867,530.1549 409.5367,524.1249 C401.0567,513.3449 388.7367,505.1249 374.8767,503.5849 C366.3267,502.6349 357.8167,504.3549 349.7367,500.4749 C346.5667,498.9449 343.5067,496.4449 341.3067,493.4049 C327.6667,498.5749 312.9767,501.0149 298.4067,500.4149 C274.4967,499.4349 248.9367,491.1549 232.4867,472.9949 C229.8467,470.0799 229.1777,466.8069 229.7857,463.8569 C231.8487,463.1209 233.9667,462.5729 236.1487,462.2299 C257.0087,474.5239 280.0027,482.7389 304.7147,483.2549 C318.9937,483.5529 332.9217,481.5559 344.4997,472.6399 C347.0047,470.7099 349.3087,468.5729 351.4387,466.2769 C375.6457,450.7049 392.7127,424.2559 400.8267,395.9249 C408.3867,369.5049 407.4567,341.9949 404.8567,314.8949 L403.485019,300.594317 C401.485553,279.605232 399.630552,258.553344 399.1107,237.4749 L399.2677,237.4669 L399.2677,237.4669 C404.3797,237.1369 404.4167,229.1339 399.2677,229.4669 C385.9487,230.3289 372.7307,228.1439 359.4527,229.0959 C359.3417,222.8189 358.8897,216.5699 357.0447,210.5159 C355.9917,207.0569 349.9687,206.3749 349.3307,210.5159 C348.4767,216.0559 348.1647,221.5649 348.0717,227.1299 C328.2007,226.8659 308.3487,225.1939 288.4747,225.8809 C284.8087,221.9709 283.6417,215.0379 281.9267,210.2149 C281.6767,209.5049 281.4267,208.8049 281.1667,208.0949 C279.6597,214.9869 277.5237,221.7279 274.7137,228.3269 L269.839636,228.343416 C242.184786,228.473135 213.9672,229.299733 186.9627,235.0429 C185.0857,233.6019 183.9687,231.0879 183.6667,228.8049 C181.707912,213.949142 178.912246,199.488316 173.957567,185.331239 L173.24874,183.33386 C173.19082,183.16818 173.1297,182.9921 173.0657,182.8069 C169.4147,188.6999 165.0587,194.1929 160.3077,199.3079 C157.5077,202.3229 154.5717,205.2059 151.5587,208.0069 C148.6317,211.2569 145.6067,214.4579 142.6747,217.7179 C142.7897,218.3109 142.8897,218.9129 142.9707,219.5259 C143.8677,226.2909 143.9607,233.1519 143.3037,239.9429 C142.1157,252.2199 138.6497,264.0499 133.0817,274.9939 L132.905538,276.0897 C132.060038,281.218429 130.857033,286.518767 128.0477,290.3809 C131.5537,294.3089 134.2547,299.0009 135.8207,304.2139 C137.2147,308.8549 130.7937,312.8769 127.4637,309.0789 C124.8187,306.0619 121.8797,303.5649 118.6517,301.5729 C118.4477,301.8499 118.0797,301.9859 117.6667,301.7549 C108.6767,296.7649 93.4067,298.2749 84.4267,302.9749 C73.2567,308.8149 68.8967,320.8049 70.1367,332.9549 C71.3267,344.5649 76.4067,358.1349 86.2567,364.0849 C90.7767,366.8149 94.2967,367.0449 99.0967,365.7349 C100.631437,365.318058 102.534152,364.039609 103.350883,363.404531 L104.154664,362.760278 C107.301367,360.273256 110.232033,358.570233 113.9467,358.5049 C117.745867,357.320108 121.564209,358.96368 123.017192,362.947444 L123.1067,363.2049 C123.7867,365.2349 125.0267,367.7849 124.7567,370.8849 C124.4767,374.2049 122.9567,377.2249 120.6867,379.6549 C120.2967,380.0749 119.8767,380.4949 119.4467,380.8849 C158.5467,423.2149 163.5667,489.1749 143.5167,542.0549 C142.6467,544.3749 141.7167,546.6649 140.7467,548.9349 C137.3967,556.7149 124.4967,554.3049 122.8567,546.5949 C122.3667,544.2849 121.8267,541.9849 121.2367,539.7049 C120.152256,535.491567 118.909786,531.31774 117.509293,527.204488 L116.9767,525.6649 C115.7867,522.2649 114.6767,518.8349 113.4767,515.4349 L113.3567,515.04615 C113.3117,514.8924 113.2617,514.7149 113.2067,514.5149 L111.1767,518.9449 L111.1767,518.9449 L105.0067,532.3149 C102.119509,538.554001 92.9460006,535.163207 92.6048851,529.150871 L92.5967,528.9449 C92.5667,527.8349 92.5267,526.7349 92.4567,525.6449 C92.0167,517.4749 90.6067,509.5349 88.3667,501.7649 L87.5585516,502.769199 C75.5245976,517.646954 61.4013154,531.592043 42.0267,535.0249 C37.1667,535.8849 31.6667,530.8049 35.0067,525.8949 C36.3867,523.8649 37.7167,521.7849 38.9767,519.6749 C37.8867,519.1649 36.8567,518.6349 35.9067,518.0949 C28.5567,513.9649 22.4367,508.0849 17.3767,501.4149 C6.6467,487.2749 2.8067,469.4749 1.8667,452.0549 C0.8667,433.6449 2.4867,414.2349 7.5167,396.4749 C9.6967,388.7949 12.6467,381.4249 16.0567,374.2749 C15.8167,373.6349 15.5867,372.9949 15.3567,372.3549 C11.6767,362.0949 8.6567,351.6049 6.1467,340.9949 C1.0867,319.5749 -1.6333,297.4749 -1.9633,275.4649 C-2.5633,236.0349 4.2367,195.9749 18.5667,159.2049 C33.3667,121.2849 55.6267,84.7549 85.9167,57.2049 Z M67.4867,401.9449 C64.7690529,397.665841 57.9691803,401.521935 60.4925916,405.830831 L60.5867,405.9849 C64.8967,412.7749 66.9167,420.4949 69.3967,428.0649 C70.9867,432.9349 78.7167,430.8549 77.1067,425.9349 L76.5737163,424.292219 C74.1059,416.615656 71.8547,408.814233 67.4867,401.9449 Z M91.1567,320.2648 L92.9621857,319.391076 C98.6574547,316.673276 103.647643,314.82197 110.3767,317.1948 C119.3867,320.3648 129.0367,330.4548 122.9467,340.2448 C120.7067,343.8548 116.7267,345.2948 112.6267,344.4448 C105.7147,343.011345 103.931004,336.786975 100.423385,331.677477 L99.8197901,330.812303 C97.6813189,327.720576 94.977003,323.446618 91.4167,322.2348 C90.6067,321.9548 90.2667,320.6948 91.1567,320.2648 Z M96.2352437,112.406042 L96.8167,111.8849 C100.6867,108.4649 95.0067,102.8249 91.1567,106.2249 C73.5367,121.7949 67.4167,146.1649 58.2767,166.9349 C56.2267,171.6049 63.1167,175.6849 65.1867,170.9749 C73.9053207,151.15536 79.6925105,127.446788 96.2352437,112.406042 L96.2352437,112.406042 Z M307.9767,105.5949 C303.372845,103.520201 299.344858,110.220181 303.770982,112.42622 L303.9367,112.5049 C319.4967,119.5349 326.1167,135.4549 332.4567,150.2349 C334.4767,154.9549 341.3667,150.8849 339.3667,146.2049 L338.222617,143.552929 C331.607228,128.321498 323.891425,112.796219 307.9767,105.5949 Z M332.3667,95.9749 C327.4867,94.2849 325.3967,102.0049 330.2367,103.6949 C343.4267,108.2849 352.4767,118.1849 360.1067,129.5049 C362.9667,133.7449 369.8967,129.7449 367.0067,125.4649 C358.1467,112.3249 347.6267,101.2949 332.3667,95.9749 Z" id="ðŸ–-Ink" fill="#000000"/></g>

        <g id="face" transform="translate(315 248)"><path d="M171.041749,240.15887 C163.675125,242.292501 155.767928,242.483273 148.258906,240.279784 C141.4481,238.280984 134.454927,233.882403 129.442325,228.062017 C124.989403,222.891504 122.105494,216.608051 122.218765,209.900917 C122.23165,209.134907 122.505549,208.495522 122.926888,207.999233 C123.380478,207.464958 124.014007,207.098085 124.692682,206.938847 C125.390651,206.775083 126.128513,206.833141 126.756813,207.118539 C127.325595,207.376901 127.812904,207.815736 128.117618,208.457126 C128.887965,209.469087 129.655321,210.466061 130.425688,211.435384 C136.619652,219.083686 142.618023,224.799426 151.931921,226.849502 C156.985367,227.962038 162.032458,227.4687 166.663343,225.771293 C171.620483,223.954301 176.101584,220.7596 179.613092,216.671419 C181.200004,214.823854 183.073535,214.069743 184.905526,214.057068 C186.981571,214.042704 189.033559,215.007378 190.57944,216.549217 C192.09898,218.064783 193.116434,220.124293 193.208649,222.278695 C193.289584,224.169532 192.672753,226.144647 191.031753,227.906756 C185.626535,233.711247 178.621333,237.963558 171.041749,240.15887 Z M170.814304,144.367155 C178.365682,148.9572 189.871664,159.660291 181.748119,171.039573 C172.185929,181.073062 158.418535,169.568982 151.634201,164.366134 C145.343449,160.333898 138.275437,170.704507 144.112,175.412823 C193.135736,211.708059 213.030606,145.567387 174.633685,138.970386 C170.406047,138.243425 168.835891,142.947174 170.814304,144.367155 Z M100.174958,124.170086 C97.7478949,122.617925 94.8928863,122.085145 91.7287079,123.524696 C89.2560287,124.649136 84.9192282,128.39769 81.9011027,133.325394 C79.8363008,136.696603 78.3721211,140.651472 78.6769434,144.770947 C78.7477349,145.727649 78.3942255,146.433054 77.8366311,146.954624 C77.3962557,147.366548 76.7601476,147.669274 76.0129997,147.763908 C75.3786744,147.844253 74.6686661,147.771772 74.0913555,147.591587 C72.9931588,147.248829 72.4119407,146.536464 72.1929489,145.954883 C70.0797393,140.342792 70.9901323,134.080043 73.3585073,128.429944 C76.5547725,120.804793 82.3592783,114.41778 86.1622145,112.358526 C92.669833,108.833475 100.346995,108.671236 106.863929,112.262379 C112.411467,115.318853 115.880218,120.253414 119.330136,125.2834 C120.06351,126.352661 120.791391,127.414081 121.543672,128.456831 C123.05132,130.546275 123.201386,132.618559 122.617532,134.395557 C121.970727,136.36415 120.32151,138.025511 118.259199,138.894957 C116.353068,139.69856 114.140756,139.811681 112.183119,138.985995 C110.529381,138.288488 109.0117,136.92878 108.051384,134.621701 C106.434021,130.736299 103.739338,126.449586 100.174958,124.170086 L100.174958,124.170086 Z M223.440775,132.814369 C221.778563,133.680468 220.478145,133.941602 218.634261,133.389159 C217.614596,133.082886 216.606823,132.495899 215.817824,131.706899 C215.035882,130.924958 214.471712,129.952552 214.252419,128.873803 C213.713072,126.211477 212.256412,123.719368 210.18061,122.094757 C208.406384,120.706172 206.16691,119.97019 203.68291,120.385402 C201.002485,120.832856 198.448729,122.551933 196.689869,124.578687 C196.102007,125.256875 195.641205,126.027105 195.177941,126.792136 C194.311333,128.22283 193.469024,129.552694 192.273843,130.603376 C191.82079,131.003129 191.138107,131.28 190.476901,131.28 C190.208169,131.28 189.935444,131.236271 189.675563,131.155276 C187.007679,128.47758 186.494623,126.446273 186.580635,124.431485 C186.670832,122.318684 187.503809,120.179493 188.849905,118.183565 C192.007516,113.501608 198.002761,109.662839 202.048399,108.79334 C207.588873,107.602708 213.091225,109.031983 217.502758,112.126467 C222.041966,115.310509 225.405508,120.254035 226.454161,125.825144 C226.706431,127.166899 226.599231,128.615171 226.088238,129.870886 C225.588922,131.097909 224.71878,132.148831 223.440775,132.814369 Z M112.394258,74.2526486 C109.069304,77.4921444 105.133931,77.9939318 101.152655,78.4402385 C98.9405594,78.6905522 97.1746454,78.8923401 95.4369094,79.2844431 C90.6605649,80.3626109 85.9393099,81.9864477 81.6319378,84.3250848 C77.1292738,86.7698547 72.2223932,89.7182412 68.6922598,93.4953513 C67.8528342,94.3941678 67.061542,95.3372855 66.2691444,96.2824677 C65.5465882,97.1443561 64.8505415,97.9741006 64.1169766,98.7741419 C63.2745284,99.6930924 62.474532,100.656215 61.6787885,101.616822 C61.1867388,102.427379 61.0895404,102.626735 60.9904523,102.834265 C60.8413425,103.146109 60.6678954,103.495099 60.4697946,103.869494 C60.1984889,104.382242 59.8807027,104.94353 59.5478797,105.452422 C58.9941378,106.382586 58.6970103,106.638799 58.44026,106.753401 C58.0142242,106.943142 57.6101892,107.036611 57.2182099,106.985995 C56.8506749,106.938536 56.5044166,106.762013 56.1624818,106.47304 C54.4554262,105.030757 53.951973,102.663788 54.003574,100.151245 C54.0818781,96.3384852 55.4881691,92.117066 56.7845563,89.5220553 C59.7989145,83.4923568 63.9794222,77.2240967 69.0062346,72.7238372 C74.7422821,67.5868727 81.0177087,63.6979271 88.2256814,61.0181785 C92.7050141,59.3522788 97.8912946,57.8231463 102.771356,58.0162973 C106.284021,58.1553272 109.63736,59.1994956 112.406688,61.8070554 C114.107217,63.4077623 114.923517,65.6846039 114.923517,67.9598329 C114.923517,70.2803828 114.075698,72.6146356 112.394258,74.2526486 Z M230.202983,103.917581 C229.991535,104.264137 229.698869,104.50296 229.373218,104.646395 C229.031839,104.796759 228.650729,104.840068 228.284999,104.778443 C227.920889,104.717091 227.574779,104.552038 227.300232,104.299793 C227.037084,104.058021 226.836702,103.737376 226.747103,103.344559 C224.539595,93.6490336 220.253164,86.4354186 211.104309,81.7836507 C206.603851,79.4952872 201.428751,78.0413484 196.529682,76.8821344 C195.106038,76.5452379 193.601743,76.3269526 192.086825,76.1057581 C187.338965,75.4125185 182.556847,74.6185951 179.461645,70.7808275 C177.596631,68.4690944 176.81391,65.5126371 177.256458,62.8088302 C177.67314,60.2630482 179.160769,57.9287462 181.865031,56.529874 C188.597516,53.048922 196.963943,56.4646469 203.762668,59.3743755 C204.266993,59.5902173 204.762058,59.8021006 205.246454,60.0065439 C211.895078,62.8129721 217.958974,66.5173942 222.943608,71.815137 C226.89868,76.0180237 230.563109,82.2312248 232.038949,88.62289 C233.266795,93.9405248 232.978088,99.3690991 230.202983,103.917581 Z" id="ðŸ–-Ink" fill="#000000"/></g>

        <g id="facial-hair" transform="translate(279 400)"><path d="M520.3335,-58.5057 C504.3355,-43.9127 514.6135,-7.3547 520.8515,-17.2377 C521.7815,-26.3897 524.6395,-43.9257 533.9155,-47.4737 C602.1455,-50.3837 588.0555,118.3213 460.9575,97.5573 C379.9775,92.0933 294.4465,-25.1827 218.2945,46.1853 C135.5545,-21.2117 42.1275,79.8283 -43.0755,93.6663 C-112.3505,116.0693 -215.8745,74.9313 -197.2315,-10.4697 C-192.5745,-35.5297 -157.9185,-64.1967 -136.6935,-38.7647 C-130.4235,-32.7237 -138.3885,-10.5987 -131.7965,-15.1727 C-121.5345,-26.5097 -124.2085,-44.6147 -133.6925,-55.9057 C-149.4005,-74.6037 -177.4005,-66.4237 -193.6885,-53.2187 C-267.1715,19.0723 -178.6655,128.1953 -90.0875,120.9863 C6.9785,132.8583 138.9805,-2.0377 205.7015,63.4943 C212.504808,70.1763695 225.290205,70.1789823 231.2055,63.4993 C287.9295,-0.5547 397.4045,130.3573 476.4815,121.0083 C560.5825,128.6683 627.8905,27.1633 579.3495,-44.6057 C567.2555,-62.8517 538.1915,-76.6037 520.3335,-58.5057 Z" id="ðŸ–-Ink" fill="#000000"/></g>

        <g id="eyewear" transform="translate(203 303)"><path d="M367.0895,74.4323 C364.2615,82.1283 359.9575,90.1403 354.6945,96.6173 C333.4005,114.6493 312.7095,104.6653 302.2035,80.2263 C298.2115,62.9553 308.8105,44.3513 320.0415,31.6463 C336.2615,15.3893 362.7325,23.9213 370.1905,43.2473 C370.6435,45.7513 370.9175,48.2493 371.0485,50.7393 C370.8935,58.8303 369.9185,65.7453 367.0895,73.4323 M162.4095,58.9113 C190.4615,25.5443 242.9415,23.7603 241.6025,75.1153 C235.5765,140.1193 134.1055,124.1643 162.4095,58.9113 Z M375.9125,31.0763 C374.9295,29.4113 373.8385,27.8003 372.6475,26.2593 C372.2075,25.9973 371.9545,23.6733 370.3365,23.5013 C348.7095,-0.3577 310.7165,13.1793 296.9885,36.9533 C294.4815,39.9593 292.4365,43.4783 290.9285,47.1963 C277.4025,44.7153 261.6335,45.1973 249.0535,50.3063 C236.5795,17.7343 198.8145,14.8263 173.9275,28.7433 C158.4485,36.3563 148.4115,52.2993 133.3575,61.0573 C97.9685,63.6043 59.9875,55.6753 25.2375,64.5523 C-2.1685,70.2503 20.7415,84.1273 25.3375,74.8663 C58.1005,65.1863 96.9155,73.3663 130.9325,71.1853 C134.4695,77.1683 141.2525,82.0643 148.0125,81.8553 C155.3135,146.5763 249.6975,135.8443 252.9535,78.3113 C256.6465,72.4723 261.2395,66.8843 267.8135,63.2463 C270.3305,62.7253 272.7615,62.0483 274.9835,61.0003 C278.7815,60.4643 284.6335,62.0743 288.1275,65.2363 C300.0965,137.0523 369.0515,128.6883 381.3745,65.7743 C381.6195,65.5243 382.3045,64.5863 382.8305,63.0813 C387.0485,57.5043 397.3745,55.4313 395.7245,46.0163 C394.2555,36.5993 382.3635,36.7113 375.9125,31.0763 Z" id="ðŸ–-Ink" fill="#000000"/></g>
    </g>
</svg>