<svg xmlns="http://www.w3.org/2000/svg" viewBox="0 0 704 704" fill="none" width="512" height="512">
    <desc>"Open Peeps" by "Pablo Stanley", licensed under "CC0 1.0". / Remix of the original.</desc>
    <mask id="viewbox"><rect width="704" height="704" rx="0" ry="0" x="0" y="0" fill="#ffffff" /></mask>
    <g mask="url(#viewbox)">
        <rect id="background" fill="#c0aede" width="704" height="704" x="0" y="0" />

        <g id="body"><path id="skin" d="M705.3 1074a2351.1 2351.1 0 0 1-15.6-101c-1-7.7-2.5-16.4 2.7-22 7.3-8 14-14.8 14.8-26.2.8-10.7-2.8-22.4-5-32.8a809.4 809.4 0 0 0-17.3-64.7c-6.6-21.7-13.9-43.2-21.3-64.6-6.9-20-13.5-40.3-22.5-59.5-17-36.5-46-63.5-81.6-81.6-9-4.5-27-20.5-36.3-24-8.5-3.4-8.5 6.3-16.9 2.6-6.7-2.9-13-6.7-16.7-13.2-4-7-14.3-16.9-15.9-25-3.3-17.4.3-32.2-12-45.3a90 90 0 0 0-41.1-23.8c-33.7-9.3-78.5-2.8-98.8 28.5-9.7 14.9-13 33-26.2 45.1-11.4 10.7-8.8 18-23.6 23.4-.9.3-23.6-4.5-24.4-4.2-16.2-3.5-31.7 6.2-46.5 11.8a325.4 325.4 0 0 0-63 32.3 399.2 399.2 0 0 0-102.3 98.5 482.5 482.5 0 0 0-76.4 161c-1.7 6.4-3.5 13-1.5 19.4 1.7 5.3 5.4 9.2 9.8 12.4 6 4.3 18 7 17.7 15.7-.1 6.6-2.4 13.5-3.5 20-1.3 7.7-2.3 15.5-3.4 23.2-4.8 35.4-8.6 71-10.3 106.6a920 920 0 0 0-.5 106c.1 2.3.8 4.5 2 6.2-1 .4-1.2 2.4.1 2.7l2.7.5a12 12 0 0 0 7 2.4l5.5.2c19.3 4 38.6 7.9 58.1 10.8 23.8 3.5 47.6 6.3 71.5 8.7 49.2 4.8 98 3.2 147.1.6a1877 1877 0 0 1 147.4-2c49.2 1.4 98.4 3.5 147.6 4.4 55 1 110-.5 164.8-5 7.5-.5 12.2-6.5 10.7-14-8.9-44.7-19-89.1-27-134Z" fill="#edb98a"/><path id="shirt" d="m201 597.5 1.2-.4c14.5-5.7 29.6-14.8 45.4-11.4.5-.2 10.8 1.9 17.9 3.2l-6.7 7L247 598c40.7 67.1 88.8 100.7 144.3 100.7 55.5 0 97.7-33.6 126.4-100.7l4-1c.4 0 1 .2 1.5.4 9.3 3.6 27.4 19.6 36.3 24.1 35.6 18 64.5 45 81.6 81.6 8.7 18.6 15.2 38 21.8 57.5l.7 2c7.4 21.4 14.7 43 21.3 64.6 6.3 20.4 12 41 16.6 61.8l.7 2.9c2.2 10.4 5.8 22 5 32.8a29 29 0 0 1-3 10.7l-80.4 29 38.4 261.3c-35.1 1.5-70.3 2-105.5 1.3-49.2-.9-98.4-3-147.6-4.3-47.7-1.2-95.3-.7-143 1.7l-12 .6a946.3 946.3 0 0 1-139.5-1l-3.1-.3v-38.3l16.3-212.9-83-15.6-81.3-39.5a21.7 21.7 0 0 1-5.6-8.8c-1.9-6-.5-12 1-18l.5-1.3a492.8 492.8 0 0 1 76.4-161A399.3 399.3 0 0 1 138 629.7c19.8-13 40.9-23.9 63-32.3Z" fill="#e78276"/><path d="M232.2 584.6c5.1-.3 10.3.6 15.4 1 .4.1.6.8 0 .9-9 1.9-18 4.5-26.9 7.1l-3.8 1.2c-10 3-19.8 6-29.6 10-19.4 7.9-37.8 18.5-54.8 30.8C67.2 682.8 20 754.3-9.9 828.3a526 526 0 0 0-24.3 77c-.4 1.6-2 5.4-1 7 .7 1.3 3.6 2.1 5 2.9l4.5 2.3 25.2 12.9 2.3 1.1c38 18.6 78.4 34.4 121 35.5l.4-3.7a342 342 0 0 1 9.9-60c.3-1 1.6-.6 1.7.3 3 23.1 2 46.4 1 69.7-1.8 41-4.3 82.2-6.5 123.3-1.2 20.6-2.6 41-3.9 61.7-1.3 20.5-1.7 41.6-4.7 62-.6 4.6-6 7-10 6.6-4.4-.5-7.9-4.5-8-9 0-11.9 1.5-24 2.4-35.8l2.5-33.8c3.1-41.1 6.8-82.2 10.2-123.3a4771 4771 0 0 1 3.8-43.7C76.4 979.8 34.2 963-6.1 943.5c-.6 13.2-2 26.5-3.4 39.6-3.8 36.8-7.1 73.6-9.6 110.5a2254.2 2254.2 0 0 0-4.2 92.7l-.2 7c0 4.4-.5 8.5-4.3 11.7-3.7 3.3-8.9 3.5-12.6 0-5-4.6-4.2-10.9-4-17.1a1675.6 1675.6 0 0 1 1.8-47.2 1321 1321 0 0 1 10.5-109.5l2-14c3.5-26 7.5-52.7 15.5-77.9-3.1-1.5-6.2-3-9.3-4.7-5.5-2.7-11.2-5.4-16.6-8.4-4.2-2.5-7.9-5.8-9-10.8-1.4-5.5.6-11.5 2-16.9v-.4a502 502 0 0 1 26.6-80 523.2 523.2 0 0 1 67.8-117 353.8 353.8 0 0 1 88.7-83.3 239 239 0 0 1 53.8-25.7 142.6 142.6 0 0 1 42.8-7.5Zm90.1-66c6-6.5 18.1.2 15.2 8.8a108.2 108.2 0 0 1-34.7 52A79.4 79.4 0 0 1 247 598l1.7 2.4a321.1 321.1 0 0 0 46.1 52.6c36 31.2 84.8 48 132 36 37.1-9.4 69.8-38.8 79.4-76.2-1.3.6-3 .9-4.8.5-7.7-1.7-15.3-9.8-20.3-15.6-5.3-6.3-9.5-13-12.6-20.7-5.6-14-7.4-32.1.3-45.7 1-1.7 3-.7 3.3 1l.3 2.5c1.5 12.7 3.3 25 9.3 36.6a76 76 0 0 0 18.2 23.1c2.6 2 5.8 3.6 8.1 6l.5.4c.6-5 4.1-7.3 7.6-7.2 3.3.2 7.3 1.6 8.8 2.3l.1.1a341 341 0 0 1 65.1 42 259 259 0 0 1 88.4 129c7.5 25.3 11.8 51.4 16.3 77.4l2.8 16c4.2 23.9 8.9 48.4 18.4 70.7 2.5 5.7.6 11.1-5.5 13.4A1493 1493 0 0 1 688 953c3.7 16 6 32.5 8.7 48.5 6 34.1 13.2 68 19.4 102 3.2 17.5 6.1 35 9.3 52.3l4.7 25.2 2.4 13.6.1.7c.5 2.4 1 4.9.4 7.3-.8 2.7-2.9 4.6-4.8 6.6-1.6 1.6-3.8 1.6-5.7.7l-.7-.3c-3.4-1.6-6-3.2-7.3-7-.7-2.5-1-5.2-1.5-7.7a3535.6 3535.6 0 0 1-7.8-43.6l-1.6-9.1c-5.2-31.4-10.2-62.9-12.8-94.5-1-14-2.3-28.1-3.5-42.2l-.9-10.5c-1.1-13.3-2.5-27-2.7-40.5l-4.5 1.6L657 964c-5.5 2-12.5 6-18.4 5.2-2.9-.3-5-1.2-6.8-2.9 2 28.8 4.8 57.4 8.5 86a1965.7 1965.7 0 0 0 22 135c.6 3.2 1.4 6.4 1.9 9.6.5 3.7-.5 5.9-2.5 9-1.7 2.4-5 3.7-7.8 2-3.6-2.3-5.5-4.3-6.5-8.4-1-3.7-1.6-7.6-2.3-11.4a1654.2 1654.2 0 0 1-11.4-65.2c-7.8-52-12.7-104.4-15.2-156.8a1388 1388 0 0 1-1.4-77.8c0-13.3.5-26.6 1.4-39.9 1-13.4 3-26.5 4.8-39.8 0-.5.7-.5.7 0 .8 14.9 2.1 29.8 2.8 44.7.6 14.3.9 28.5 1.4 42.8.6 18.7 1.5 37.5 2.7 56.2a9.6 9.6 0 0 1 8.5-3.1c4.7-1 9.7-3.4 14.1-5l16.8-5.5 26.4-8.7a679 679 0 0 1-18-80.8l-2-12.3c-4-24.2-8.5-48.5-15.8-72a229.8 229.8 0 0 0-34.8-68.2 370.2 370.2 0 0 0-52.7-55.3C557 627 539.7 614 523 600c.1.9.2 2 0 3-3.5 25.9-17 50-35.8 67.9-37.7 36-93.6 43.4-142 26.5-46.7-16.3-88-55-102.6-102.8-.3-.8.8-1 1.3-.5l2.4 3.3c0-.4.2-.9.7-1a129 129 0 0 0 46.6-29.2 100.2 100.2 0 0 0 21.3-33.3l.4-1c1.7-5 3.2-10.2 7-14.2Z" fill="#000000"/></g>

        <g id="head" transform="matrix(.99789 0 0 1 156 62)"><path id="skin" d="M428.9 194.6C409.2 75.4 258.7 54 160.7 79c-1.8-22.9-16.3-43.1-34.3-56.5-76.6-55-167.2 38.5-149 119 3.2 24.5 22.7 52.4 50 48.2-34.3 65-47.7 196 28 236.5 7.2 5.2 8.4 15.7 14 22.5 9.2 10.9 48.1 24.8 69.2 13.6 6.6 6.1 14.2 12 23.2 14.1 46.1 37 113.5 45.3 169.7 30 34.6-5.8 70.5-21.4 88.3-53.3 15.1-24.3 8.2-52.8 1.2-78.4-3-14.2-4.9-28.4-6-42.8 2.4-2.9 2.5-6.8 3.1-10.5 2.7-12.8 8.5-24.7 11.4-37.5a215 215 0 0 0-.6-89.3" fill="#edb98a"/><path id="hair" d="M1 65.5a88.2 88.2 0 0 1 83.8-48.2c34.2 2.5 60.3 26 66.3 64l.2 1.2.4 2.5-.4.1.2.3.3.5 1.3 2 .8 1 2.5 3.7.2.2.6.8 1-.4a246.5 246.5 0 0 1 166.4 1.4l1.6.6 1.5.6.8.2a126.1 126.1 0 0 1 76.6 59.1l.6 1 .5.9c16.3 28 24.7 62.6 24.1 97.3v1.3l-.1 1a98 98 0 0 1-7.2 27.2l-.6 1.4-.8 2.2-2.7 6.8-.7 1.7-7.7 20.1 1.5-20.2.3-7.2v-.6l.2-8.6v-1.9l.1-2.4v-1.2l.2-1.8v-.8A58.5 58.5 0 0 0 395 237l-.5-.5-.5-.5-.7-.7c-7.5-7.3-15-12.9-30.7-23.2l-.7-.4-9-6-3.5-2.2c-7.5-5-12.1-8.1-17-11.9l-1-.8-.8-.6a101 101 0 0 1-20-20.2l-.5-.7-1-1.4.8-1.5v-.8a32.4 32.4 0 0 0 .4-3.5v-1l-.2.5c-9.7 28-32.7 51.5-65.2 68.7l-1 .6-1 .5c-32 16.6-71.2 26-105.1 26.4h-2.1l-1-.7c-3-2.6-8.8.6-7.7 5.2 9.6 42.2 11.6 86 5.8 128.1l-.3 1.5v.1l-.2 1.2-.6 3.4-.3 2-1.2 8.3-.6 3.5-.2 1.4a66 66 0 0 1-9.5 27.1l-.5.7-.4.4-.5.5c-1 1-1.5 1.8-1.8 2.3v.2c1.5.6 4.6.5 7.2-.2l.3-.1.3-.1 2.1-.7 1.5 2 .4.6 2.7 3.6 1.2 1.6 2.9 3.7-2.6 1.8c-8.9 6-21.2 4.9-34.3-.8l-.5-.3h-.2a51.6 51.6 0 0 1-17-15.9l-.9-1-3-3.8-1.1-1.5-2.2-2.6-.2-.2-.8-1-.2-.3c-3.3-6.6-8-11-16.2-15.8l-1.2-.7-.8-.5c-20.9-14.5-33.3-37.4-38.5-67.1a266 266 0 0 1 .1-78.7l.2-1.4.2-1.5a201 201 0 0 1 21.8-68.7l.5-1.1.6-1-2.7-2-1-.9A36 36 0 0 0 33 187l-.3-.2-.3-.2v.1l-2-.2c-8.5-.9-16.8-4.5-23.6-10.1l-.6-.5-.5-.6a73.4 73.4 0 0 1-19.5-52.8A122 122 0 0 1 0 67.2l.5-.8.5-1Z" fill="#debe99"/><path d="M427.3 255.3c-1.1 14.4-7.2 27.3-12.3 40.7.5-8 .3-16.2.8-24.4-6-51.5-76-65-103.2-104 1-2.2 1.4-21.9-2.6-16.3-15.8 68.8-109.3 103.3-173.3 103.5-4.8-4-14.4.2-12.6 8.2 9.5 42 11.6 85.8 5.5 128.5-3 15-3.4 33.2-12.4 46.1-9.6 9.2 2 9.9 8.3 7.8 1.7 2.5 3.6 5 5.5 7.3-9.2 6.3-22.5 2.9-31.9-1.3-10.5-5.6-16.5-16.3-24-25a40.9 40.9 0 0 0-18.6-17.6C11.5 378.2 12.6 311 19 262.5c18.8-144.4 179-214 307.7-163.9 69.4 17.8 102 89.6 100.5 156.7Zm-419-81.7C-19 146.2-13.4 98.4 3.8 66.9 38.3.9 136.6 3 148.4 82.9A214.4 214.4 0 0 0 30.8 183.5a42 42 0 0 1-22.4-9.8Zm420.6 21C409.2 75.5 258.7 54 160.7 79.1c-1.8-23-16.3-43.2-34.3-56.5-76.6-55.1-167.2 38.4-149 119 3.2 24.4 22.7 52.3 50 48.1-34.3 65-47.7 196 28 236.5 7.2 5.2 8.4 15.7 14 22.5 9.2 10.9 48.1 24.8 69.2 13.7 5 6 33.4 24.8 31.4 6.5-2.1-5-8.6-6.3-12.9-8.7-9-5-17-12-23-20.3 19.3-54.7 17.8-115.6 7-171.9 65-3.3 141.3-31.7 170-94.2 19.3 45.5 79.3 51.3 94.5 102.2 1 26.7-4.8 53-.6 79.7 1.2 26.2 15 52.2 7 78.2-22.3 56.7-102.8 65-156 62.6-12.6-1-23-7.8-33.4-14.3-6.2-3-13.6 3.2-9.8 9.8 14.5 20.3 44.5 22 67.4 21.4 59.7-3.6 145.9-21.2 149-94.9-2-29.1-13.4-57-14.3-86.6 2.5-2.8 2.6-6.8 3.2-10.4 2.7-12.9 8.5-24.8 11.4-37.6a215 215 0 0 0-.6-89.3Z" fill="#000"/></g>

        <g id="face" transform="translate(315 248)"><path d="M107 164c30.4 0 55-19 55-42.5S137.4 79 107 79s-55 19-55 42.5S76.6 164 107 164Z" fill="#fff"/><path d="M195 148c23.7 0 47-15.4 47-34.5 0-19-19.3-34.5-43-34.5s-43 15.4-43 34.5c0 10.5 3.4 3.7 12.6 10 7.5 5.2 15.7 24.5 26.4 24.5Z" fill="#fff"/><path d="m199.7 206 .8-.1c5.7-.3 11.1-1.2 16.2 2a10.5 10.5 0 0 1 0 18c-5.3 3.2-11 2.1-17 2a953.9 953.9 0 0 0-43.9-.4c-8.8 0-17.6 0-26.4-.2l-3.8-.1c-9-.3-18.5 0-27.4-1.7l-.3-.1c-1.6-.5-2.4-3-.6-3.9 8.9-4 19-5.8 28.4-7.7 9.6-2 19.4-3.4 29.1-4.5a588.5 588.5 0 0 1 45-3.4ZM170.2 80.1l.6-.4c7.1-4.7 17.3-9.2 25.4-5.6.5.2.9.4 1.2.7a51.7 51.7 0 0 1 44 27.8 34.6 34.6 0 0 1-10.3 44.8 48.4 48.4 0 0 1-24.5 10.3c-3 .2-6 .3-8.9-.6 1.4 2.9 2.4 5.8 3 9 1.7 10.7-2.6 19.6-12.6 24.2-8.8 4.1-21 5.7-29.7.5-7.3-4.3-4.9-18.7 4.8-17.4 6.5.8 12.4 3 18.9.2 5.2-2.2 2-10 .4-14-2.6-6.7-6.5-13-9.7-19.5l-.6-1.3c-2-4.2-4.4-8.7-6.3-13.3-1 5.4-3 10.7-5.1 15.6a40.4 40.4 0 0 1-27.4 22 138 138 0 0 1-39.7 3.8c-13-.4-26.7-3.8-36.2-13.2C40 136.5 45 106.4 63.4 91.9a63.6 63.6 0 0 1 43.9-14 56 56 0 0 1 24 1 49.6 49.6 0 0 1 27 15.4l1.8-3.6c-.3-.2-.4-.6-.1-.9l1.6-1.4c2.2-3.1 5-5.8 8.6-8.2Zm-126 80.9c-.7-1 .6-2 1.4-1.5a90.7 90.7 0 0 0 23 11.3c8 2.4 16.5 2.2 24.6 4.2 3 .8 2.5 4.7 0 5.7-9 3.4-19 .5-27.5-3-8.6-3.7-16.1-9-21.5-16.7ZM92.5 87l.2-.3-.6.2a54 54 0 0 0-25 17.1c-11.6 14-11.7 36 5.5 45.5 9.2 5 20.2 5.3 30.5 4.8l2-.1c9.1-.5 18.3-1.3 27-3.7a28.2 28.2 0 0 0 19.8-17.7l.3-.8c3.6-9.5 5.5-20.1-1.2-28.7-11.4-14.7-37.8-17.6-54.1-10.6-4 1.7-7-2.4-4.4-5.7ZM197 83a5 5 0 0 1-.9.7c-3.3 2-7 2-10.6 3A45 45 0 0 0 176 90c-4.8 2.5-9.8 5.4-14.4 8.6a34 34 0 0 1 5.2 20c3.2 2.8 5.9 6.2 8.7 9.3l2.5 2.7a218.8 218.8 0 0 1 13.2 16 7 7 0 0 1 1-1.9 6 6 0 0 1 6.5-2.7c2.3.6 4 1.7 6.4 1.7a37.7 37.7 0 0 0 24-11c9.1-9.5 4.3-23-3-32.2A49 49 0 0 0 197 83Zm-82.3 23c3-.8 7.4.6 8.7 3.6l1 2.2-.2-.1 1 2.3.8.7a11.7 11.7 0 0 1 3.2 11.4 10.8 10.8 0 0 1-10.4 7.8c-14.2 0-17.7-23.9-4.1-27.8Zm85.6-4.2c6.6-.3 11 5.5 11.5 11.4.2 3.4-.4 7.1-1.4 10.3a10 10 0 0 1-19.4-.2c-1.3-3.1-2-6.6-2.1-10-.2-6.5 5.3-11.2 11.4-11.5ZM114 48.2c6.6-1 13 2.2 14 9.4s-4.4 12-11 12.6c-12.6 1.4-25.4 1.7-38 2.2-5.3.3-10.6.4-15.8.4h-2.7c-4.9 0-11.2 1-15.7-1.4-.3-.1-.3-.5 0-.7 3-3.9 9.5-5.5 14-7.2l.5-.1a264 264 0 0 1 17.6-6l3-1c11.2-3.2 22.7-6.3 34-8.2Zm42.2-3.5c4-1.5 8.2-.5 11 2 9.3 2.7 19 4.7 28.3 7l2.6.6c11.8 3 24.7 5.2 35.7 10.6 1.2.6.4 2-.6 2.2-12.2 1.5-25.4-1-37.5-2.3-12.5-1.5-25-3.9-37.4-4.8-9-.7-10.3-12.2-2.1-15.3Z" fill="#000"/></g>

        <g id="facial-hair" transform="translate(279 400)"><path d="M248.1317,111.7235 C244.6417,110.5815 241.2137,109.2525 237.7697,107.9715 C220.1607,99.1265 198.8897,97.5225 180.4227,104.9715 C171.3587,108.6275 162.9067,115.1965 153.8117,119.5015 C151.6517,120.3075 149.4737,121.0395 147.2717,121.6535 C145.9217,121.1835 144.5717,120.6835 143.2317,120.1835 C133.5847,116.5475 124.5107,112.0625 115.7007,107.1285 C114.7607,105.8055 113.7857,104.5195 112.7377,103.2845 C119.1127,102.3795 125.3547,100.8755 131.0017,99.3235 C148.3417,94.5735 164.6817,86.8335 181.9617,81.8735 C198.0517,77.2435 215.5117,74.7135 231.6717,80.4635 C239.3417,83.1935 246.0917,87.9735 253.5517,91.1935 C257.4117,92.8535 262.0417,94.4835 266.5517,94.7235 C263.6417,101.6935 259.9617,108.2035 254.9317,113.6235 C252.6317,113.1335 250.3517,112.4435 248.1317,111.7235 Z M285.6527,57.1315 C284.1087,58.4145 277.7367,62.5545 275.6697,65.0225 C275.1357,64.8195 274.6047,64.6115 274.0767,64.3975 C273.1677,63.2815 271.8287,62.7915 270.4637,62.8215 C260.9347,58.3895 252.4517,52.1265 244.8817,44.2735 C239.5017,38.7035 233.9917,32.8735 226.8017,29.6435 C218.3317,25.8235 210.0017,27.5835 201.1017,28.1635 C191.6317,28.7935 182.2817,26.1035 172.8217,27.3935 C165.9017,28.3435 159.4217,31.2735 153.8217,35.4035 C142.3917,43.8335 134.5117,55.6735 124.8517,65.8835 C113.8917,77.4635 100.4117,84.8635 85.4217,88.6435 C85.2417,88.5235 85.0517,88.4035 84.8617,88.2935 C73.8117,78.2935 63.8317,67.0035 55.0017,54.9735 C46.3817,43.2235 23.6517,-9.6665 18.1617,-14.3065 C15.8817,-16.2365 13.3817,-17.0665 10.9917,-16.9965 C6.6617,-16.8965 2.6617,-13.8865 0.8717,-9.1465 C-2.1683,-1.0865 -0.6483,9.3335 -0.4083,17.7635 C-0.1083,28.0835 0.5717,38.3935 1.6517,48.6635 C2.7217,58.8135 4.1417,68.9335 5.9117,78.9835 C6.8017,84.0635 7.7917,89.1335 8.8817,94.1835 C9.2217,95.7735 9.6517,97.1935 10.1717,98.5135 C10.7017,101.0035 11.2717,103.4835 11.8817,105.9435 C15.8617,122.0535 22.1417,138.1835 34.1317,150.0735 C46.6117,162.4635 63.5717,170.6935 79.3217,178.0535 C94.3217,185.0635 110.0417,191.2935 126.1717,196.1735 C140.1817,202.5235 155.1817,207.5435 170.2417,210.1835 C186.8217,213.0935 204.2517,213.2735 220.2617,207.5135 C228.1317,204.6835 235.5717,200.7335 242.3217,195.8135 C251.8917,190.8435 260.5017,184.0135 267.5517,174.9735 C280.178808,158.772201 286.205845,139.111428 288.843079,118.838022 C289.518075,113.64907 292.055805,93.7618006 292.255358,90.6655083 C292.899805,80.6661617 293.544253,70.6671223 294.1887,60.6675 C294.4927,55.9485 288.7007,54.6015 285.6527,57.1315 Z" id="ðŸ–-Ink" fill="#000000"/></g>

        <g id="eyewear" transform="translate(203 303)"><path d="M398.9346,13.2313 C398.1116,13.0943 397.2876,12.9653 396.4636,12.8443 C395.8206,12.4793 395.0656,12.1983 394.1876,12.0293 C392.1826,11.5203 390.1916,11.1773 388.2036,10.9923 C359.6716,4.5713 293.6646,13.6883 290.9406,38.0363 C281.8546,41.0693 273.9926,38.3533 263.4616,38.6233 C255.4456,5.1183 116.8626,9.8473 110.1976,30.0473 C110.1726,30.0403 110.1476,30.0343 110.1216,30.0263 C103.7176,28.0443 94.2766,28.5223 86.9466,28.2083 C71.2956,27.8803 55.6266,29.2753 40.3136,32.5763 C11.6386,37.1333 -27.4964,42.4683 -7.5534,78.2763 C-7.5494,78.2823 -7.5464,78.2893 -7.5414,78.2953 L-7.5384,78.2923 C-4.1014,81.8153 1.7316,78.9783 1.9486,74.2093 C-4.7564,57.2453 10.3876,55.2083 22.0396,50.3333 C51.0326,39.9173 80.5506,38.4733 110.5366,41.6953 C112.7926,44.3513 116.2156,46.6673 119.8336,47.8793 C139.8826,51.2073 129.3166,66.0793 141.9896,68.2423 C139.6616,120.0843 202.6026,148.3823 239.0716,114.3033 C253.6326,100.0673 257.1036,78.9783 260.4796,59.9693 C262.2646,59.5683 263.3996,58.5923 264.0626,57.3003 C268.3556,53.0143 271.0526,49.0563 279.5416,47.8793 C288.0306,46.7033 294.5656,49.0643 295.4496,49.7873 C295.6726,50.2363 295.9116,50.6863 296.1896,51.1363 C296.5776,51.8073 297.1056,52.3423 297.7056,52.7633 C289.3226,104.3873 329.3996,137.0353 369.8586,110.2603 C387.4386,93.7233 391.1536,68.4053 391.8876,45.8073 C394.2706,44.3693 395.7796,41.5823 394.9546,38.0783 C393.8176,33.2483 396.4836,29.0663 400.7296,26.9663 C406.2466,24.2393 405.2706,14.2803 398.9346,13.2313 M225.086988,37.7223618 C220.065054,36.6178235 217.920374,44.3606372 222.95832,45.4681879 C226.525804,46.252514 229.549376,48.0515396 231.592155,51.0993468 L231.807252,51.4306867 C234.548399,55.792609 241.479828,51.7660647 238.719666,47.3760269 C235.614234,42.4357281 230.788453,38.9755108 225.086988,37.7223618 Z M372.1732,32.9216366 C370.402814,31.6745124 367.723715,32.6003163 366.69591,34.362557 C365.564701,36.303111 366.306135,38.4637159 367.964208,39.7331967 L368.133036,39.8571332 C369.653907,40.9290575 371.135119,42.8505012 371.321131,44.8192514 L371.337546,45.0655335 C371.536702,50.2177028 379.543974,50.24381 379.343817,45.0655335 C379.148664,39.999719 376.215367,35.767329 372.1732,32.9216366 Z" id="ðŸ–-Ink" fill="#000000"/></g>
    </g>
</svg>