<svg xmlns="http://www.w3.org/2000/svg" viewBox="0 0 704 704" fill="none" width="512" height="512">
    <desc>"Open Peeps" by "Pablo Stanley", licensed under "CC0 1.0". / Remix of the original.</desc>
    <mask id="viewbox"><rect width="704" height="704" rx="0" ry="0" x="0" y="0" fill="#fff" /></mask>
    <g mask="url(#viewbox)">
        <rect fill="#fff" width="704" height="704" x="0" y="0" />

        // Body
        <g id="body"><path id="skin" d="M705.3 1074a2351.1 2351.1 0 0 1-15.6-101c-1-7.7-2.5-16.4 2.7-22 7.3-8 14-14.8 14.8-26.2.8-10.7-2.8-22.4-5-32.8a809.4 809.4 0 0 0-17.3-64.7c-6.6-21.7-13.9-43.2-21.3-64.6-6.9-20-13.5-40.3-22.5-59.5-17-36.5-46-63.5-81.6-81.6-9-4.5-27-20.5-36.3-24-8.5-3.4-8.5 6.3-16.9 2.6-6.7-2.9-13-6.7-16.7-13.2-4-7-14.3-16.9-15.9-25-3.3-17.4.3-32.2-12-45.3a90 90 0 0 0-41.1-23.8c-33.7-9.3-78.5-2.8-98.8 28.5-9.7 14.9-13 33-26.2 45.1-11.4 10.7-8.8 18-23.6 23.4-.9.3-23.6-4.5-24.4-4.2-16.2-3.5-31.7 6.2-46.5 11.8a325.4 325.4 0 0 0-63 32.3 399.2 399.2 0 0 0-102.3 98.5 482.5 482.5 0 0 0-76.4 161c-1.7 6.4-3.5 13-1.5 19.4 1.7 5.3 5.4 9.2 9.8 12.4 6 4.3 18 7 17.7 15.7-.1 6.6-2.4 13.5-3.5 20-1.3 7.7-2.3 15.5-3.4 23.2-4.8 35.4-8.6 71-10.3 106.6a920 920 0 0 0-.5 106c.1 2.3.8 4.5 2 6.2-1 .4-1.2 2.4.1 2.7l2.7.5a12 12 0 0 0 7 2.4l5.5.2c19.3 4 38.6 7.9 58.1 10.8 23.8 3.5 47.6 6.3 71.5 8.7 49.2 4.8 98 3.2 147.1.6a1877 1877 0 0 1 147.4-2c49.2 1.4 98.4 3.5 147.6 4.4 55 1 110-.5 164.8-5 7.5-.5 12.2-6.5 10.7-14-8.9-44.7-19-89.1-27-134Z" fill="#FFFFFF"/><path id="shirt" d="m201 597.5 1.2-.4c14.5-5.7 29.6-14.8 45.4-11.4.5-.2 10.8 1.9 17.9 3.2l-6.7 7L247 598c40.7 67.1 88.8 100.7 144.3 100.7 55.5 0 97.7-33.6 126.4-100.7l4-1c.4 0 1 .2 1.5.4 9.3 3.6 27.4 19.6 36.3 24.1 35.6 18 64.5 45 81.6 81.6 8.7 18.6 15.2 38 21.8 57.5l.7 2c7.4 21.4 14.7 43 21.3 64.6 6.3 20.4 12 41 16.6 61.8l.7 2.9c2.2 10.4 5.8 22 5 32.8a29 29 0 0 1-3 10.7l-80.4 29 38.4 261.3c-35.1 1.5-70.3 2-105.5 1.3-49.2-.9-98.4-3-147.6-4.3-47.7-1.2-95.3-.7-143 1.7l-12 .6a946.3 946.3 0 0 1-139.5-1l-3.1-.3v-38.3l16.3-212.9-83-15.6-81.3-39.5a21.7 21.7 0 0 1-5.6-8.8c-1.9-6-.5-12 1-18l.5-1.3a492.8 492.8 0 0 1 76.4-161A399.3 399.3 0 0 1 138 629.7c19.8-13 40.9-23.9 63-32.3Z" fill="#fff"/><path d="M232.2 584.6c5.1-.3 10.3.6 15.4 1 .4.1.6.8 0 .9-9 1.9-18 4.5-26.9 7.1l-3.8 1.2c-10 3-19.8 6-29.6 10-19.4 7.9-37.8 18.5-54.8 30.8C67.2 682.8 20 754.3-9.9 828.3a526 526 0 0 0-24.3 77c-.4 1.6-2 5.4-1 7 .7 1.3 3.6 2.1 5 2.9l4.5 2.3 25.2 12.9 2.3 1.1c38 18.6 78.4 34.4 121 35.5l.4-3.7a342 342 0 0 1 9.9-60c.3-1 1.6-.6 1.7.3 3 23.1 2 46.4 1 69.7-1.8 41-4.3 82.2-6.5 123.3-1.2 20.6-2.6 41-3.9 61.7-1.3 20.5-1.7 41.6-4.7 62-.6 4.6-6 7-10 6.6-4.4-.5-7.9-4.5-8-9 0-11.9 1.5-24 2.4-35.8l2.5-33.8c3.1-41.1 6.8-82.2 10.2-123.3a4771 4771 0 0 1 3.8-43.7C76.4 979.8 34.2 963-6.1 943.5c-.6 13.2-2 26.5-3.4 39.6-3.8 36.8-7.1 73.6-9.6 110.5a2254.2 2254.2 0 0 0-4.2 92.7l-.2 7c0 4.4-.5 8.5-4.3 11.7-3.7 3.3-8.9 3.5-12.6 0-5-4.6-4.2-10.9-4-17.1a1675.6 1675.6 0 0 1 1.8-47.2 1321 1321 0 0 1 10.5-109.5l2-14c3.5-26 7.5-52.7 15.5-77.9-3.1-1.5-6.2-3-9.3-4.7-5.5-2.7-11.2-5.4-16.6-8.4-4.2-2.5-7.9-5.8-9-10.8-1.4-5.5.6-11.5 2-16.9v-.4a502 502 0 0 1 26.6-80 523.2 523.2 0 0 1 67.8-117 353.8 353.8 0 0 1 88.7-83.3 239 239 0 0 1 53.8-25.7 142.6 142.6 0 0 1 42.8-7.5Zm90.1-66c6-6.5 18.1.2 15.2 8.8a108.2 108.2 0 0 1-34.7 52A79.4 79.4 0 0 1 247 598l1.7 2.4a321.1 321.1 0 0 0 46.1 52.6c36 31.2 84.8 48 132 36 37.1-9.4 69.8-38.8 79.4-76.2-1.3.6-3 .9-4.8.5-7.7-1.7-15.3-9.8-20.3-15.6-5.3-6.3-9.5-13-12.6-20.7-5.6-14-7.4-32.1.3-45.7 1-1.7 3-.7 3.3 1l.3 2.5c1.5 12.7 3.3 25 9.3 36.6a76 76 0 0 0 18.2 23.1c2.6 2 5.8 3.6 8.1 6l.5.4c.6-5 4.1-7.3 7.6-7.2 3.3.2 7.3 1.6 8.8 2.3l.1.1a341 341 0 0 1 65.1 42 259 259 0 0 1 88.4 129c7.5 25.3 11.8 51.4 16.3 77.4l2.8 16c4.2 23.9 8.9 48.4 18.4 70.7 2.5 5.7.6 11.1-5.5 13.4A1493 1493 0 0 1 688 953c3.7 16 6 32.5 8.7 48.5 6 34.1 13.2 68 19.4 102 3.2 17.5 6.1 35 9.3 52.3l4.7 25.2 2.4 13.6.1.7c.5 2.4 1 4.9.4 7.3-.8 2.7-2.9 4.6-4.8 6.6-1.6 1.6-3.8 1.6-5.7.7l-.7-.3c-3.4-1.6-6-3.2-7.3-7-.7-2.5-1-5.2-1.5-7.7a3535.6 3535.6 0 0 1-7.8-43.6l-1.6-9.1c-5.2-31.4-10.2-62.9-12.8-94.5-1-14-2.3-28.1-3.5-42.2l-.9-10.5c-1.1-13.3-2.5-27-2.7-40.5l-4.5 1.6L657 964c-5.5 2-12.5 6-18.4 5.2-2.9-.3-5-1.2-6.8-2.9 2 28.8 4.8 57.4 8.5 86a1965.7 1965.7 0 0 0 22 135c.6 3.2 1.4 6.4 1.9 9.6.5 3.7-.5 5.9-2.5 9-1.7 2.4-5 3.7-7.8 2-3.6-2.3-5.5-4.3-6.5-8.4-1-3.7-1.6-7.6-2.3-11.4a1654.2 1654.2 0 0 1-11.4-65.2c-7.8-52-12.7-104.4-15.2-156.8a1388 1388 0 0 1-1.4-77.8c0-13.3.5-26.6 1.4-39.9 1-13.4 3-26.5 4.8-39.8 0-.5.7-.5.7 0 .8 14.9 2.1 29.8 2.8 44.7.6 14.3.9 28.5 1.4 42.8.6 18.7 1.5 37.5 2.7 56.2a9.6 9.6 0 0 1 8.5-3.1c4.7-1 9.7-3.4 14.1-5l16.8-5.5 26.4-8.7a679 679 0 0 1-18-80.8l-2-12.3c-4-24.2-8.5-48.5-15.8-72a229.8 229.8 0 0 0-34.8-68.2 370.2 370.2 0 0 0-52.7-55.3C557 627 539.7 614 523 600c.1.9.2 2 0 3-3.5 25.9-17 50-35.8 67.9-37.7 36-93.6 43.4-142 26.5-46.7-16.3-88-55-102.6-102.8-.3-.8.8-1 1.3-.5l2.4 3.3c0-.4.2-.9.7-1a129 129 0 0 0 46.6-29.2 100.2 100.2 0 0 0 21.3-33.3l.4-1c1.7-5 3.2-10.2 7-14.2Z" fill="#000000"/></g>

        // Head
        <g id="head" transform="matrix(.99789 0 0 1 156 62)"><path id="skin" d="M418.5807,283.1921 C418.1827,260.7901 417.7427,237.9401 414.4127,215.7561 C411.1567,194.0681 402.1997,174.4641 386.8077,158.7151 C354.1147,125.2621 306.7247,117.0911 262.6127,109.6031 L187.1937,96.8001 C164.1847,92.8951 139.6377,86.6531 116.3907,92.1911 C104.9357,94.9201 95.2077,101.2601 86.3167,108.7611 C77.7467,115.9911 68.5327,123.7551 62.7257,133.4821 C56.9087,143.2231 54.9077,154.6101 53.0167,165.6271 C50.8837,178.0481 49.2267,190.5661 48.0497,203.1141 C45.6907,228.2541 45.3687,253.5831 47.0797,278.7751 C47.9087,290.9941 49.2277,303.1781 50.9117,315.3081 C51.7467,321.3231 52.6907,327.3231 53.7567,333.3021 C54.0707,335.0651 54.3097,337.0171 54.6317,338.9891 C52.2527,345.7551 50.9007,352.7621 51.0097,359.7391 C51.3307,380.2911 68.6777,393.2301 86.1657,400.1771 C96.3057,404.2051 106.9067,406.9421 116.8697,411.4421 C127.3507,416.1751 134.4847,423.8481 141.6507,432.6011 C155.3177,449.2951 170.7407,464.2991 188.3517,476.8171 C225.6897,503.3581 272.9817,515.9111 318.2857,506.3831 C329.1557,504.0971 340.1217,500.5471 349.8927,495.1981 C360.2087,489.5511 367.9657,481.3681 374.4797,471.6931 C386.5747,453.7321 395.2487,433.5071 401.8107,412.9261 C408.5037,391.9321 413.2547,370.9001 415.8457,349.0091 C418.4277,327.1891 418.9717,305.1471 418.5807,283.1921 L418.5807,283.1921 Z" fill="#FFFFFF"/><path d="M177.911,18.7638 C209.121,14.4708 252.198,28.4238 267.741,56.5578 C341.947,39.0638 435.54,38.4908 496.701,96.7278 C560.52,165.8098 480.36,256.8948 427.207,277.4308 C431.077,296.2378 425.043,416.7228 382.348,470.4658 C348.464,516.0018 269.557,537.0168 233.044,482.6278 L232.759185,482.179028 C228.84735,475.897763 232.216386,476.099459 236.232,480.7718 C271.986,512.2138 320.599,512.7508 358.06,479.5688 C428.268,418.9188 421.029,270.2088 387.621,184.1778 C292.491,173.7298 190.637,202.5628 124.932,274.1718 L129.375,300.9198 C130.132,305.4768 130.992,310.0298 131.648,314.6028 C132.068,317.5328 132.115,320.4468 130.085,322.8188 C123.382,330.6488 112.085,318.8828 102.79,314.2028 C100.046,313.8168 97.297,313.6678 94.601,313.8578 C49.943,319.6098 58.742,406.2398 107.824,391.0548 C111.948,388.4858 115.491,389.2698 117.091,392.9978 C128.79,403.7138 136.504,422.8258 155.941,441.2338 C162.799,448.1388 169.04,453.9158 176.754,459.4548 C181.285,464.0368 194.957,468.7088 190.623,476.5498 C182.427,494.3918 134.096,438.3468 125.551,422.8478 C98.778,433.4198 69.108,429.8288 41.363,427.2448 C-105.007,419.6348 -85.467,265.3448 34.509,167.9338 C57.093,151.3078 82.01,137.7448 107.911,127.3078 C111.447,125.8828 109.902,120.0768 106.316,121.5218 C89.178,128.4288 72.471,136.6498 56.545,146.1648 L56.5208889,140.476217 C56.4975556,130.894967 56.6478333,120.919967 58.312,112.1658 C59.144,106.0998 60.543,99.6208 62.697,94.7468 C65.36,79.8038 107.075,28.5118 177.911,18.7638 Z M92.6476,333.7464 C94.9076,331.5994 99.1266,334.1594 101.1386,334.0954 C106.2836,334.7994 111.1716,336.9724 114.9836,339.6544 C117.5006,341.0644 119.2646,342.3884 120.7386,343.6064 L120.7786,343.5954 C120.7676,343.5954 120.7536,343.6064 120.7416,343.6094 L120.88034,343.703149 C123.026611,345.228067 130.883488,353.817299 125.9196,351.5074 C125.5496,351.0264 125.1706,350.5644 124.7886,350.1114 C124.7476,350.1734 124.6906,350.2344 124.6226,350.2934 L124.901425,350.707187 C129.120418,357.053674 121.836253,350.3674 120.7156,348.5914 C120.6626,348.6344 120.6026,348.6634 120.5436,348.6944 L122.003034,350.47064 C122.207069,350.722822 122.367475,350.92415 122.5006,351.0944 L122.80835,351.391495 C127.686358,356.186188 127.838752,360.501238 122.1716,353.4124 C122.3946,353.7464 122.5736,354.1004 122.5986,354.4144 L122.934448,354.842528 C127.384087,360.576307 123.764834,358.540007 121.553741,356.09113 L121.368713,355.880491 L121.406573,355.937683 C123.463553,359.106476 119.382226,356.883081 118.661034,355.188062 L118.6306,355.1114 C117.844733,354.4702 117.361142,353.7506 117.195274,353.568882 L117.1646,353.5384 C113.3386,349.6184 107.7926,346.3014 103.0816,344.7944 C102.3986,344.6644 101.7076,344.5604 101.0096,344.4864 C98.1766,343.8544 95.3126,343.4214 92.4186,343.1874 C92.0646,343.1454 91.7056,342.8854 91.4376,342.5494 C87.0614308,342.401815 88.4122973,340.608057 90.2279363,340.274958 L90.2597134,340.269491 L89.8995111,340.239171 C87.0910681,339.965081 85.1730646,338.957417 88.0127603,338.338948 L88.3726,338.2674 C88.3286,338.1984 88.2896,338.1294 88.2516,338.0604 C85.8196,337.7934 87.4066,335.4294 88.7566,336.0014 C88.1886,334.1444 90.7846,335.0714 91.1086,334.7954 C91.3556,334.5214 91.6626,334.2794 91.8396,334.2664 C92.6216,333.7144 92.2426,333.7644 92.6476,333.7464 Z M107.528,303.6808 L106.958,304.0138 C106.497,304.2828 106.023,304.4618 105.547,304.5668 C106.219,304.8528 106.883,305.1618 107.54,305.4918 C107.529333,305.088467 107.521778,304.685578 107.521778,304.28343 L107.528,303.6808 Z" id="ðŸ–-Ink" fill="#000000"/></g>

        // Face
        <g id="face" transform="translate(315 248)"><path d="M195.648193,205.742798 C187.261657,201.289422 177.421377,202.042614 169.00004,206.020824 C158.706314,210.88389 150.747499,218.869283 143.697486,227.649864 C140.990543,231.020761 138.458006,234.536024 135.928336,238.048092 C134.887194,239.493561 133.846489,240.938447 132.79402,242.372032 C132.588772,242.640738 132.363649,242.930014 132.12515,243.236505 C130.439996,245.40207 128.13963,248.397076 127.259175,251.115005 C126.905739,252.206047 126.774119,253.259272 126.932764,254.218574 C127.009571,254.683016 127.151913,255.128132 127.369961,255.548545 C126.026468,255.89614 125.129125,255.565059 124.508835,254.897651 C123.526737,253.840951 123.182462,252.253688 123.168043,250.431638 C123.118384,243.905641 127.421312,234.392264 129.178267,230.471862 C129.359195,230.068147 129.514259,229.722096 129.636514,229.44246 C135.990874,214.902707 146.156691,200.739536 160.288147,192.902543 C173.980473,185.309944 190.185593,183.874719 204.351165,191.053 C220.000474,198.983539 224.269956,214.687223 226.043182,230.826214 C226.314815,233.298502 225.196205,235.57888 223.475851,237.299234 C221.534025,239.24106 218.805833,240.498 216.2562,240.498 C213.608639,240.498 211.184446,239.377079 209.411751,237.604384 C207.624435,235.817068 206.49522,233.364 206.47514,230.706002 L206.458107,229.158195 C206.376243,223.769253 205.998264,218.709456 204.04209,214.418522 C202.469585,210.969178 199.895477,207.998577 195.648193,205.742798 Z M174.814304,133.367155 C182.365682,137.9572 193.871664,148.660291 185.748119,160.039573 C176.185929,170.073062 162.418535,158.568982 155.634201,153.366134 C149.343449,149.333898 142.275437,159.704507 148.112,164.412823 C197.135736,200.708059 217.030606,134.567387 178.633685,127.970386 C174.406047,127.243425 172.835891,131.947174 174.814304,133.367155 Z M111.249842,134.873685 C109.21559,135.869593 106.960397,136.273981 104.748339,135.812416 C102.766863,135.398964 100.83098,134.28903 99.1167073,132.332702 C96.7628125,129.643932 95.0538784,125.825893 96.1958438,122.182731 L96.522735,121.245789 C96.9093992,120.156024 97.4302579,119.134445 98.0641829,118.208027 C98.4710172,116.223311 98.5529701,114.923595 98.6298744,113.689429 C98.6495261,113.374056 98.6688905,113.063106 98.6908225,112.752749 C98.8127143,111.024361 99.066476,109.214651 99.6465705,107.55057 C99.7557985,107.237235 99.8772989,106.927048 100.008665,106.620486 C99.683933,106.506758 99.3592902,106.392662 99.0347035,106.278263 C96.7917559,105.487748 94.5557732,104.68431 92.3319381,103.844018 C86.0072865,101.452869 79.7532165,98.7573797 73.699327,95.7413805 C70.7082667,94.2508057 67.7926562,92.5737833 64.9139627,90.8770546 C63.5392598,89.9628132 60.5237088,87.8342564 59.1713627,86.6881642 L58.1451201,85.8184397 L57.6080011,87.0517676 C57.0306197,87.6334134 56.564872,87.6786301 56.1732669,87.5480196 C55.7523002,87.4076162 55.440413,87.0757766 55.2442996,86.6771596 C55.0082325,86.1973332 54.9345795,85.6131759 55.0591196,85.0493532 C55.1712928,84.5415179 55.4484252,84.0510599 55.9164995,83.6649246 C57.7001254,82.194146 60.2160755,82.8325585 62.3064786,83.2425326 C62.604845,83.3010488 62.8969781,83.3583123 63.1805622,83.4101146 C66.4312338,84.0040556 69.6742461,84.7114779 72.9040661,85.4416519 L76.7918803,86.327351 C78.2754916,86.6658136 79.7585845,87.0057018 81.2414495,87.3455377 C98.0882943,91.2064165 114.906174,95.0578885 132.122274,96.7503413 L133.936387,96.9204394 C137.005394,97.1943986 139.736127,98.4974603 141.535006,100.572739 C143.191844,102.48415 144.038528,105.048285 143.636316,108.02142 C143.242927,110.931137 141.606085,113.353809 139.353379,114.85422 C137.112221,116.346939 134.260478,116.926782 131.414339,116.162533 C126.070424,114.72933 120.738301,113.221432 115.431497,111.622283 L116.672752,114.571059 C117.740487,117.140109 118.725205,119.802457 118.841202,122.519863 C118.949725,125.073251 118.20064,127.544857 116.90419,129.659453 C115.524303,131.910141 113.523131,133.760751 111.249842,134.873685 Z M231.352025,73.4294893 C230.034079,75.2283938 228.519368,76.7648694 227.010036,78.304574 C223.75001,81.6302018 220.49134,84.9556201 217.000272,88.0490599 C215.73473,89.1711545 214.45535,90.2767508 213.175748,91.3825744 C212.70081,91.7930133 212.225838,92.203481 211.751524,92.614824 L211.004763,93.2624417 L211.643673,94.0166662 C211.815135,94.2190758 211.976961,94.4281686 212.112304,94.6495634 C214.030029,97.7892009 215.095107,101.196799 216.173318,104.614455 C216.912014,106.955936 217.654492,109.303239 218.650635,111.583012 L218.972312,112.29729 C220.269118,115.087375 220.618068,118.000041 219.928905,120.628455 C219.279746,123.104299 217.705376,125.314212 215.178913,126.923219 C214.543962,127.328244 213.460483,127.798237 212.726121,127.961035 C209.831292,128.603237 206.899979,128.155475 204.504242,126.795324 C202.213647,125.494866 200.4178,123.357954 199.621703,120.555259 C198.446409,116.414356 197.690559,112.20737 197.730652,108.107078 C197.737443,107.412601 197.767122,106.71551 197.817624,106.016716 C197.360448,106.481285 196.834987,106.88982 196.238805,107.226646 C194.383563,108.274805 192.286969,108.377994 190.315694,107.842886 C188.085419,107.237471 186.007568,105.820358 184.568759,103.968081 C183.301768,102.336995 182.526878,100.361258 182.627006,98.2959198 C182.714404,96.4931468 183.475101,94.6366233 185.102274,92.8878161 L186.636822,91.3243557 C187.779102,90.1656977 189.351381,89.2743516 191.026519,88.823827 C192.56375,88.4103922 194.193717,88.3660516 195.655884,88.8647619 C197.627626,88.3254321 198.906165,87.6894097 200.093298,87.0978865 C200.938605,86.6766877 201.735754,86.2788833 202.446542,85.9693195 C205.909514,84.4631572 209.359467,82.9279547 212.797752,81.365553 C215.778829,80.0095323 218.807301,78.7577584 221.835722,77.5057861 C225.026091,76.1868631 228.216312,74.8675388 231.352025,73.4294893 Z" id="ðŸ–-Ink" fill="#000000"/></g>

        // Facial hair
        <g id="facial-hair" transform="translate(279 400)"><path d="M227.9943,104.3107 C218.6813,96.0137 208.2423,79.3337 194.8633,92.5317 C191.5543,96.2607 190.2143,104.6207 185.1543,106.2607 C178.4343,108.4407 171.7743,101.3307 169.4843,95.8707 C160.1143,65.5337 198.8483,57.2127 220.9143,62.1137 C231.6943,66.5407 239.6343,84.3607 240.1143,93.6607 C240.4243,99.9107 235.1343,109.1007 227.9943,104.3107 M298.2543,57.5507 C298.1633,57.1477 298.0363,56.7837 297.8833,56.4527 C293.7643,54.8957 290.5053,56.4837 288.4913,59.4497 C288.5573,60.1867 288.7773,60.9337 288.9163,61.6647 C287.3623,64.9387 285.9603,68.9897 283.8543,71.8187 C283.4383,71.8507 283.0073,71.8067 282.5933,71.6867 C247.6803,75.3327 264.7253,38.8037 229.3143,29.7307 C201.9413,25.2147 152.4673,30.3877 139.5543,58.8787 C129.3703,104.3867 77.5873,72.6767 60.5853,49.0097 C42.4443,27.4707 30.7143,1.1507 19.4043,-24.3893 C17.0143,-29.7943 9.5553,-25.9293 10.3663,-20.7433 C-0.0877,0.2277 0.2603,25.4177 -2.3287,48.3917 C-6.7327,94.2267 -11.0237,158.5047 31.5633,186.4917 C87.0503,249.2087 225.6083,271.3407 289.6063,213.7147 C311.7603,166.0847 309.0293,107.9777 298.2543,57.5507" id="ðŸ–-Ink" fill="#000000"/></g>

        // Accessories
        <g id="accessories" transform="translate(203 303)"><path d="M337.808766,15 C361.280828,15 374.675545,20.0476268 379.583995,20.4408262 L379.731604,20.4513988 C381.773203,20.5819351 383.604638,20.7526365 385.526143,21.4956895 C392.591677,24.2168704 393.742579,31.6273185 389.619349,36.2975074 C389.330123,45.9612137 390.601118,57.2526079 388.42041,66.9474421 C385.730303,107.818373 366.509247,114.715713 355.583689,117.233056 C350.098392,118.49725 343.5973,119.000317 337.770736,117.665834 C327.83095,117.295312 318.004253,114.183526 309.596667,108.765263 C297.887495,101.213234 289.190683,89.6055398 286.368473,75.8299385 C285.030886,69.2635354 284.405767,62.4288331 285.133692,55.7543104 L285.24159,54.834673 C281.435609,53.014193 277.025154,52.6697779 272.478593,52.5091178 C270.306891,52.4318001 268.166215,52.3625154 266.086586,52.454895 C264.053994,52.6818274 262.04542,52.9840692 260.030842,53.3957608 C257.831119,54.0594879 255.753492,55.1549891 253.834989,56.8901185 L253.702886,59.4225236 C253.342603,65.7485159 252.511953,72.0935866 251.230949,78.3000879 C249.339468,87.4577148 246.297085,96.2036502 239.822013,102.69934 C237.630296,105.97279 234.918171,108.894796 231.625592,111.425193 C219.665224,120.63403 203.415495,124.014921 188.501813,122.74169 C158.225098,120.158074 140.724389,96.1233201 136.69123,85.8501095 L136.45028,85.2277051 C133.536796,77.5902322 131.214914,67.6806815 122.008729,66.0397124 L120.050703,65.6879191 C115.84966,64.8993558 111.973202,63.8015161 109.509939,59.7026747 C108.430093,57.9133226 107.874658,55.9121 107.738551,53.8717164 C106.301426,53.9821703 104.866302,54.0876035 103.436181,54.1900243 C92.0277451,56.6026875 23.600227,58.6483427 18.1383674,58.6483427 C18.1383674,58.6483427 7.63935915,63.0673229 3.20667133,59.6434313 C0.134264704,57.2626491 -0.876527051,54.0896117 0.814797767,50.4948415 C3.36675899,45.0862033 15.1402688,41.832872 20.368158,40.8027483 C20.368158,40.8027483 104.732847,41.5034375 110.804953,40.3521672 C114.561896,36.47825 121.28216,37.0084284 126.897559,36.3959117 C131.5462,33.0812926 138.049294,30.8611705 143.186318,29.3750644 C144.233138,28.9784347 145.26995,28.5948587 146.277739,28.2333734 C155.695116,24.8795934 165.483783,23.1032949 175.421568,22.1493754 C185.669595,21.1753734 195.947646,21.6161846 206.135626,23.0119194 C210.428989,23.5943124 214.682321,24.3474067 218.905629,25.3324541 C226.467802,26.3293627 233.985996,27.9714025 241.550918,29.9193501 L243.064552,30.3129178 C251.030792,32.4014994 259.217205,34.2079217 267.463664,32.7921043 C274.177256,31.6469826 280.633494,29.0632415 286.823569,26.2693175 L287.62946,25.9038016 C301.240122,19.6892673 322.495771,15 337.808766,15 Z M218.086988,37.7223618 C213.065054,36.6178235 210.920374,44.3606372 215.95832,45.4681879 C219.525804,46.252514 222.549376,48.0515396 224.592155,51.0993468 L224.807252,51.4306867 C227.548399,55.792609 234.479828,51.7660647 231.719666,47.3760269 C228.614234,42.4357281 223.788453,38.9755108 218.086988,37.7223618 Z M365.1732,32.9216366 C363.402814,31.6745124 360.723715,32.6003163 359.69591,34.362557 C358.564701,36.303111 359.306135,38.4637159 360.964208,39.7331967 L361.133036,39.8571332 C362.653907,40.9290575 364.135119,42.8505012 364.321131,44.8192514 L364.337546,45.0655335 C364.536702,50.2177028 372.543974,50.24381 372.343817,45.0655335 C372.148664,39.999719 369.215367,35.767329 365.1732,32.9216366 Z" id="ðŸ–-Ink" fill="#000000"/></g>
    </g>
</svg>